<svg width="18" height="22" viewBox="0 0 18 22" fill="none" xmlns="http://www.w3.org/2000/svg">
<path d="M4.6443 15.3945C4.66253 14.3099 4.78557 13.4531 5.01344 12.8242C5.2413 12.1953 5.70615 11.498 6.40797 10.7324L8.19898 8.88672C8.96461 8.02083 9.34742 7.09115 9.34742 6.09766C9.34742 5.14062 9.09677 4.39323 8.59547 3.85547C8.09417 3.30859 7.365 3.03516 6.40797 3.03516C5.47828 3.03516 4.73089 3.28125 4.16578 3.77344C3.60068 4.26562 3.31812 4.92643 3.31812 5.75586H0.788828C0.807057 4.2793 1.33115 3.08984 2.36109 2.1875C3.40016 1.27604 4.74911 0.820312 6.40797 0.820312C8.13062 0.820312 9.47047 1.28516 10.4275 2.21484C11.3936 3.13542 11.8767 4.40234 11.8767 6.01562C11.8767 7.61068 11.1384 9.18294 9.66187 10.7324L8.17164 12.209C7.50628 12.9473 7.17359 14.0091 7.17359 15.3945H4.6443ZM4.53492 19.7285C4.53492 19.3184 4.65797 18.9766 4.90406 18.7031C5.15927 18.4206 5.53297 18.2793 6.02516 18.2793C6.51734 18.2793 6.89104 18.4206 7.14625 18.7031C7.40146 18.9766 7.52906 19.3184 7.52906 19.7285C7.52906 20.1387 7.40146 20.4805 7.14625 20.7539C6.89104 21.0182 6.51734 21.1504 6.02516 21.1504C5.53297 21.1504 5.15927 21.0182 4.90406 20.7539C4.65797 20.4805 4.53492 20.1387 4.53492 19.7285ZM16.762 15.3809H14.4788L14.301 1.09375H16.9534L16.762 15.3809ZM14.2053 19.7285C14.2053 19.3184 14.3284 18.9766 14.5745 18.7031C14.8297 18.4206 15.2034 18.2793 15.6955 18.2793C16.1877 18.2793 16.5614 18.4206 16.8166 18.7031C17.0718 18.9766 17.1995 19.3184 17.1995 19.7285C17.1995 20.1387 17.0718 20.4805 16.8166 20.7539C16.5614 21.0182 16.1877 21.1504 15.6955 21.1504C15.2034 21.1504 14.8297 21.0182 14.5745 20.7539C14.3284 20.4805 14.2053 20.1387 14.2053 19.7285Z" fill="#FF9721"/>
</svg>
