<svg width="13" height="23" viewBox="0 0 13 23" fill="none" xmlns="http://www.w3.org/2000/svg">
<path d="M4.33203 15.7305C4.33203 14.4316 4.49316 13.3965 4.81543 12.625C5.1377 11.8535 5.77246 11.0088 6.71973 10.0908C7.67676 9.16309 8.28223 8.50391 8.53613 8.11328C8.92676 7.51758 9.12207 6.87305 9.12207 6.17969C9.12207 5.26172 8.89258 4.56348 8.43359 4.08496C7.98438 3.59668 7.32031 3.35254 6.44141 3.35254C5.60156 3.35254 4.92285 3.5918 4.40527 4.07031C3.89746 4.53906 3.64355 5.17871 3.64355 5.98926H0.0839844C0.103516 4.26074 0.689453 2.89355 1.8418 1.8877C3.00391 0.881836 4.53711 0.378906 6.44141 0.378906C8.4043 0.378906 9.93262 0.876953 11.0264 1.87305C12.1299 2.86914 12.6816 4.26074 12.6816 6.04785C12.6816 7.63965 11.9395 9.20703 10.4551 10.75L8.65332 12.5225C8.00879 13.2549 7.67676 14.3242 7.65723 15.7305H4.33203ZM4.08301 20.2861C4.08301 19.71 4.26367 19.2461 4.625 18.8945C4.98633 18.5332 5.47461 18.3525 6.08984 18.3525C6.71484 18.3525 7.20801 18.5381 7.56934 18.9092C7.93066 19.2705 8.11133 19.7295 8.11133 20.2861C8.11133 20.8232 7.93555 21.2725 7.58398 21.6338C7.23242 21.9951 6.73438 22.1758 6.08984 22.1758C5.44531 22.1758 4.94727 21.9951 4.5957 21.6338C4.25391 21.2725 4.08301 20.8232 4.08301 20.2861Z" fill="#ff9721"/>
</svg>
