
<svg version="1.1" viewBox="0 0 511.98 511.98" xml:space="preserve" xmlns="http://www.w3.org/2000/svg"><rect width="100%" height="100%" fill="none"/>
                
                      
                      
                
                  <g class="currentLayer" style=""><polygon class="" points="511.98 255.99 473.19 197.79 477.69 128 414.99 96.981 383.99 34.296 314.19 38.795 255.99 0 197.81 38.795 128 34.296 96.997 96.981 34.31 128 38.81 197.79 0 255.99 38.81 314.18 34.31 383.99 96.997 414.99 128 477.67 197.81 473.17 255.99 511.98 314.19 473.17 383.99 477.67 415 414.99 477.69 383.99 473.19 314.18" fill="#6d6d6d"/><g class="" fill="#fff">
                        <polygon points="160.29 283.66 122.32 221.85 101.72 221.85 101.72 314.12 121.29 314.12 121.29 252.18 159.53 314.12 179.74 314.12 179.74 221.85 160.29 221.85"/>
                        <polygon points="224.96 274.46 270.07 274.46 270.07 258.52 224.96 258.52 224.96 238.43 274.08 238.43 274.08 221.85 204.87 221.85 204.87 314.12 274.99 314.12 274.99 297.15 224.96 297.15"/>
                        <polygon points="390.33 221.85 375.04 285.35 359.08 221.85 340.04 221.85 323.83 284.57 309.07 221.85 288.71 221.85 313.21 314.12 333.82 314.12 349.36 251.13 365.18 314.12 385.39 314.12 410.28 221.85"/>
                      </g></g></svg>
