<svg width="19" height="26" viewBox="0 0 19 26" fill="none" xmlns="http://www.w3.org/2000/svg">
<path d="M6.68711 17.3552C6.96562 15.998 7.35595 14.951 7.85812 14.214C8.36028 13.4769 9.20468 12.7304 10.3913 11.9744C11.5902 11.2102 12.3642 10.6513 12.7133 10.2975C13.2492 9.75885 13.5915 9.12727 13.7402 8.40279C13.937 7.44361 13.8469 6.66481 13.47 6.06639C13.1053 5.45987 12.4638 5.06237 11.5454 4.87391C10.6678 4.69382 9.90737 4.79828 9.26395 5.18729C8.63282 5.56819 8.23036 6.18211 8.05655 7.02904L4.33719 6.26576C4.72824 4.46383 5.63365 3.16092 7.05341 2.357C8.48338 1.55518 10.1933 1.35844 12.183 1.76678C14.234 2.18769 15.7242 3.03581 16.6534 4.31116C17.5929 5.5886 17.871 7.16098 17.4878 9.02832C17.1465 10.6916 16.0349 12.1702 14.153 13.4641L11.8903 14.9298C11.0598 15.5569 10.4835 16.603 10.1616 18.0682L6.68711 17.3552ZM5.45003 22.0619C5.57358 21.4599 5.86182 21.014 6.31475 20.7241C6.76978 20.424 7.31872 20.34 7.96158 20.4719C8.61463 20.6059 9.09015 20.9055 9.38812 21.3708C9.68819 21.8258 9.77854 22.3441 9.65918 22.9257C9.54401 23.487 9.26401 23.9187 8.81918 24.2208C8.37436 24.523 7.81522 24.605 7.14175 24.4668C6.46829 24.3285 5.98662 24.033 5.69676 23.58C5.4171 23.1292 5.33485 22.6232 5.45003 22.0619Z" fill="#23180C"/>
</svg>
