<svg width="13" height="13" viewBox="0 0 13 13" fill="none" xmlns="http://www.w3.org/2000/svg">
<g clip-path="url(#clip0_4230:2)">
<path d="M6.88 0C5.25688 0 3.70023 0.644784 2.55251 1.79251C1.40478 2.94023 0.76 4.49687 0.76 6.12C0.76 7.74312 1.40478 9.29977 2.55251 10.4475C3.70023 11.5952 5.25688 12.24 6.88 12.24C8.50313 12.24 10.0598 11.5952 11.2075 10.4475C12.3552 9.29977 13 7.74312 13 6.12C13 4.49687 12.3552 2.94023 11.2075 1.79251C10.0598 0.644784 8.50313 0 6.88 0V0Z" fill="#FF9721"/>
<path fill-rule="evenodd" clip-rule="evenodd" d="M6.22195 10.4448H7.50715C7.61995 10.4422 7.72741 10.3962 7.8072 10.3164C7.88699 10.2366 7.93295 10.1292 7.93555 10.0164V8.94537H5.79355V10.0164C5.79614 10.1292 5.84211 10.2366 5.92189 10.3164C6.00168 10.3962 6.10914 10.4422 6.22195 10.4448V10.4448Z" fill="#FF9721"/>
<path fill-rule="evenodd" clip-rule="evenodd" d="M7.93588 9.18001V8.96581C7.93038 8.69219 7.97177 8.41965 8.05828 8.16001C8.1643 7.92703 8.30344 7.71059 8.47138 7.51741C8.76625 7.27557 9.00481 6.97231 9.17041 6.62878C9.33601 6.28525 9.42466 5.90973 9.43018 5.52841C9.43018 4.8467 9.15937 4.1929 8.67732 3.71086C8.19528 3.22882 7.54149 2.95801 6.85978 2.95801C6.17806 2.95801 5.52427 3.22882 5.04223 3.71086C4.56018 4.1929 4.28938 4.8467 4.28938 5.52841C4.29941 5.92243 4.39598 6.30943 4.57225 6.66197C4.74852 7.01451 5.00018 7.32397 5.30938 7.56841L5.33998 7.59391C5.39582 7.64199 5.4455 7.69681 5.48788 7.75711C5.56908 7.8703 5.63111 7.99608 5.67148 8.12941C5.75555 8.39489 5.79686 8.67205 5.79388 8.95051V9.18001" fill="#FFBC71" fill-opacity="0.89"/>
<path d="M6.88018 1.01996V2.09096M9.43018 1.87676L8.89468 2.58566L9.43018 1.87676ZM4.08028 1.87676L4.62088 2.58566L4.08028 1.87676Z" stroke="#22190C" stroke-width="0.7" stroke-linecap="round" stroke-linejoin="round"/>
<path d="M6.21701 3.672C5.83935 3.75241 5.49496 3.96495 5.23454 4.27833C4.96397 4.57284 4.77416 4.9461 4.68701 5.355" stroke="white" stroke-linecap="round" stroke-linejoin="round"/>
<path d="M6.23757 10.455H7.52277C7.63558 10.4516 7.74304 10.3906 7.82283 10.2847C7.90261 10.1789 7.94858 10.0364 7.95117 9.88672V8.466H5.80917V9.88672C5.81177 10.0364 5.85773 10.1789 5.93752 10.2847C6.0173 10.3906 6.12477 10.4516 6.23757 10.455V10.455Z" stroke="#22190C" stroke-width="0.7" stroke-linecap="round" stroke-linejoin="round"/>
<path d="M7.93556 8.44052L7.95093 8.97602C7.94543 8.7024 7.97146 8.41966 8.05796 8.16002C8.10415 8.02256 8.17501 7.89467 8.26706 7.78262C8.35302 7.65837 8.4522 7.5438 8.56286 7.44092C8.66902 7.34835 8.76791 7.24775 8.85866 7.14002C9.04131 6.91786 9.18448 6.666 9.28196 6.39542C9.38454 6.11808 9.43469 5.82409 9.42986 5.52842C9.42423 5.12344 9.32222 4.72563 9.13227 4.36792C8.94232 4.01021 8.6699 3.7029 8.33756 3.47141C8.00521 3.23992 7.62251 3.09093 7.22114 3.03676C6.81976 2.9826 6.41126 3.02482 6.02944 3.15993C5.64763 3.29504 5.30349 3.51915 5.02551 3.81371C4.74754 4.10828 4.54373 4.46482 4.43095 4.85381C4.31818 5.24281 4.29968 5.65307 4.377 6.05064C4.45431 6.44821 4.62522 6.82164 4.87556 7.14002C5.01279 7.30956 5.16655 7.46502 5.33456 7.60412C5.39368 7.65382 5.44674 7.71031 5.49266 7.77242C5.57033 7.88696 5.63049 8.01244 5.67116 8.14472C5.75764 8.40964 5.81439 8.6974 5.80893 8.97602L5.79356 8.44052" stroke="#22190C" stroke-width="0.7" stroke-linecap="round" stroke-linejoin="round"/>
</g>
<defs>
<clipPath id="clip0_4230:2">
<rect width="12.24" height="12.24" fill="white" transform="matrix(-1 0 0 1 13 0)"/>
</clipPath>
</defs>
</svg>
