<svg width="46" height="46" viewBox="0 0 46 46" fill="none" xmlns="http://www.w3.org/2000/svg">
<path d="M23 0C10.3173 0 0 10.3173 0 23C0 35.6827 10.3173 46 23 46C35.6827 46 46 35.6827 46 23C46 10.3173 35.6827 0 23 0ZM33.0625 24.9165H24.9165V33.0625C24.9165 34.1206 24.0581 34.979 23 34.979C21.9419 34.979 21.0835 34.1206 21.0835 33.0625V24.9165H12.9375C11.8794 24.9165 11.021 24.0581 11.021 23C11.021 21.9419 11.8794 21.0835 12.9375 21.0835H21.0835V12.9375C21.0835 11.8794 21.9419 11.021 23 11.021C24.0581 11.021 24.9165 11.8794 24.9165 12.9375V21.0835H33.0625C34.1206 21.0835 34.979 21.9419 34.979 23C34.979 24.0581 34.1206 24.9165 33.0625 24.9165Z" fill="#FF9721"/>
</svg>
