<svg width="31" height="17" viewBox="0 0 31 17" fill="none" xmlns="http://www.w3.org/2000/svg">
<path d="M30.6448 7.64283C30.6445 7.64247 30.6442 7.64204 30.6437 7.64168L24.3164 1.34481C23.8423 0.873088 23.0756 0.874843 22.6038 1.34893C22.132 1.82295 22.1338 2.58965 22.6078 3.06143L26.8561 7.28905H1.21094C0.542137 7.28905 0 7.83119 0 8.49999C0 9.16879 0.542137 9.71093 1.21094 9.71093H26.856L22.6079 13.9385C22.1339 14.4103 22.1321 15.177 22.6038 15.6511C23.0757 16.1252 23.8425 16.1268 24.3164 15.6552L30.6438 9.3583C30.6442 9.35794 30.6445 9.35752 30.6449 9.35715C31.1192 8.8838 31.1176 8.11461 30.6448 7.64283Z" fill="#0D6EFD"/>
</svg>
