<svg width="436" height="57" viewBox="0 0 436 57" fill="none" xmlns="http://www.w3.org/2000/svg">
<rect x="21" y="8" width="381" height="41" fill="#FF9721"/>
<circle cx="20.5" cy="28.5" r="20.5" fill="#FF9721"/>
<circle cx="20.5" cy="28.5" r="16.5" fill="white"/>
<path d="M23.0347 40H20.2192V21.3364L14.5732 23.4102V20.8672L22.5957 17.855H23.0347V40Z" fill="#FF9721"/>
<path d="M401.5 29L371.622 7.25L431.378 7.25L401.5 29Z" fill="white"/>
<path d="M401.5 28L431.378 49.75H371.622L401.5 28Z" fill="white"/>
<path d="M56.7598 30.4932C54.3477 29.7998 52.5898 28.9502 51.4863 27.9443C50.3926 26.9287 49.8457 25.6787 49.8457 24.1943C49.8457 22.5146 50.5146 21.1279 51.8525 20.0342C53.2002 18.9307 54.9482 18.3789 57.0967 18.3789C58.5615 18.3789 59.8652 18.6621 61.0078 19.2285C62.1602 19.7949 63.0488 20.5762 63.6738 21.5723C64.3086 22.5684 64.626 23.6572 64.626 24.8389H61.7988C61.7988 23.5498 61.3887 22.5391 60.5684 21.8066C59.748 21.0645 58.5908 20.6934 57.0967 20.6934C55.71 20.6934 54.626 21.001 53.8447 21.6162C53.0732 22.2217 52.6875 23.0664 52.6875 24.1504C52.6875 25.0195 53.0537 25.7568 53.7861 26.3623C54.5283 26.958 55.7832 27.5049 57.5508 28.0029C59.3281 28.501 60.7148 29.0527 61.7109 29.6582C62.7168 30.2539 63.459 30.9521 63.9375 31.7529C64.4258 32.5537 64.6699 33.4961 64.6699 34.5801C64.6699 36.3086 63.9961 37.6953 62.6484 38.7402C61.3008 39.7754 59.499 40.293 57.2432 40.293C55.7783 40.293 54.4111 40.0146 53.1416 39.458C51.8721 38.8916 50.8906 38.1201 50.1973 37.1436C49.5137 36.167 49.1719 35.0586 49.1719 33.8184H51.999C51.999 35.1074 52.4727 36.1279 53.4199 36.8799C54.377 37.6221 55.6514 37.9932 57.2432 37.9932C58.7275 37.9932 59.8652 37.6904 60.6562 37.085C61.4473 36.4795 61.8428 35.6543 61.8428 34.6094C61.8428 33.5645 61.4766 32.7588 60.7441 32.1924C60.0117 31.6162 58.6836 31.0498 56.7598 30.4932ZM72.3076 40H69.5977V24.1504H72.3076V40ZM69.3779 19.9463C69.3779 19.5068 69.5098 19.1357 69.7734 18.833C70.0469 18.5303 70.4473 18.3789 70.9746 18.3789C71.502 18.3789 71.9023 18.5303 72.1758 18.833C72.4492 19.1357 72.5859 19.5068 72.5859 19.9463C72.5859 20.3857 72.4492 20.752 72.1758 21.0449C71.9023 21.3379 71.502 21.4844 70.9746 21.4844C70.4473 21.4844 70.0469 21.3379 69.7734 21.0449C69.5098 20.752 69.3779 20.3857 69.3779 19.9463ZM84.5156 38.0811C85.4824 38.0811 86.3271 37.7881 87.0498 37.2021C87.7725 36.6162 88.1729 35.8838 88.251 35.0049H90.8145C90.7656 35.9131 90.4531 36.7773 89.877 37.5977C89.3008 38.418 88.5293 39.0723 87.5625 39.5605C86.6055 40.0488 85.5898 40.293 84.5156 40.293C82.3574 40.293 80.6387 39.5752 79.3594 38.1396C78.0898 36.6943 77.4551 34.7217 77.4551 32.2217V31.7676C77.4551 30.2246 77.7383 28.8525 78.3047 27.6514C78.8711 26.4502 79.6816 25.5176 80.7363 24.8535C81.8008 24.1895 83.0557 23.8574 84.501 23.8574C86.2783 23.8574 87.7529 24.3896 88.9248 25.4541C90.1064 26.5186 90.7363 27.9004 90.8145 29.5996H88.251C88.1729 28.5742 87.7822 27.7344 87.0791 27.0801C86.3857 26.416 85.5264 26.084 84.501 26.084C83.124 26.084 82.0547 26.582 81.293 27.5781C80.541 28.5645 80.165 29.9951 80.165 31.8701V32.3828C80.165 34.209 80.541 35.6152 81.293 36.6016C82.0449 37.5879 83.1191 38.0811 84.5156 38.0811ZM98.0713 26.0693C99.2725 24.5947 100.835 23.8574 102.759 23.8574C106.108 23.8574 107.798 25.7471 107.827 29.5264V40H105.117V29.5117C105.107 28.3691 104.844 27.5244 104.326 26.9775C103.818 26.4307 103.022 26.1572 101.938 26.1572C101.06 26.1572 100.288 26.3916 99.624 26.8604C98.96 27.3291 98.4424 27.9443 98.0713 28.7061V40H95.3613V17.5H98.0713V26.0693ZM117.062 20.3125V24.1504H120.021V26.2451H117.062V36.0742C117.062 36.709 117.193 37.1875 117.457 37.5098C117.721 37.8223 118.17 37.9785 118.805 37.9785C119.117 37.9785 119.547 37.9199 120.094 37.8027V40C119.381 40.1953 118.688 40.293 118.014 40.293C116.803 40.293 115.89 39.9268 115.274 39.1943C114.659 38.4619 114.352 37.4219 114.352 36.0742V26.2451H111.466V24.1504H114.352V20.3125H117.062ZM138.117 32.251C138.117 34.6729 137.561 36.6211 136.447 38.0957C135.334 39.5605 133.84 40.293 131.965 40.293C129.963 40.293 128.415 39.585 127.321 38.1689L127.189 40H124.699V17.5H127.409V25.8936C128.503 24.5361 130.012 23.8574 131.936 23.8574C133.859 23.8574 135.368 24.585 136.462 26.04C137.565 27.4951 138.117 29.4873 138.117 32.0166V32.251ZM135.407 31.9434C135.407 30.0977 135.051 28.6719 134.338 27.666C133.625 26.6602 132.6 26.1572 131.262 26.1572C129.475 26.1572 128.19 26.9873 127.409 28.6475V35.5029C128.239 37.1631 129.533 37.9932 131.291 37.9932C132.59 37.9932 133.601 37.4902 134.323 36.4844C135.046 35.4785 135.407 33.9648 135.407 31.9434ZM152.83 40C152.674 39.6875 152.547 39.1309 152.449 38.3301C151.189 39.6387 149.686 40.293 147.938 40.293C146.375 40.293 145.091 39.8535 144.085 38.9746C143.089 38.0859 142.591 36.9629 142.591 35.6055C142.591 33.9551 143.216 32.6758 144.466 31.7676C145.726 30.8496 147.493 30.3906 149.769 30.3906H152.405V29.1455C152.405 28.1982 152.122 27.4463 151.556 26.8896C150.989 26.3232 150.154 26.04 149.051 26.04C148.084 26.04 147.273 26.2842 146.619 26.7725C145.965 27.2607 145.638 27.8516 145.638 28.5449H142.913C142.913 27.7539 143.191 26.9922 143.748 26.2598C144.314 25.5176 145.076 24.9316 146.033 24.502C147 24.0723 148.06 23.8574 149.212 23.8574C151.038 23.8574 152.469 24.3164 153.504 25.2344C154.539 26.1426 155.076 27.3975 155.115 28.999V36.2939C155.115 37.749 155.301 38.9062 155.672 39.7656V40H152.83ZM148.333 37.9346C149.183 37.9346 149.988 37.7148 150.75 37.2754C151.512 36.8359 152.063 36.2646 152.405 35.5615V32.3096H150.281C146.961 32.3096 145.301 33.2812 145.301 35.2246C145.301 36.0742 145.584 36.7383 146.15 37.2168C146.717 37.6953 147.444 37.9346 148.333 37.9346ZM168.524 26.582C168.114 26.5137 167.67 26.4795 167.191 26.4795C165.414 26.4795 164.208 27.2363 163.573 28.75V40H160.863V24.1504H163.5L163.544 25.9814C164.433 24.5654 165.692 23.8574 167.323 23.8574C167.851 23.8574 168.251 23.9258 168.524 24.0625V26.582ZM195.504 36.2646L198.551 24.1504H201.261L196.646 40H194.449L190.597 27.9883L186.847 40H184.649L180.05 24.1504H182.745L185.865 36.0156L189.557 24.1504H191.739L195.504 36.2646ZM212.106 40.293C209.958 40.293 208.21 39.5898 206.862 38.1836C205.515 36.7676 204.841 34.8779 204.841 32.5146V32.0166C204.841 30.4443 205.139 29.043 205.734 27.8125C206.34 26.5723 207.18 25.6055 208.254 24.9121C209.338 24.209 210.51 23.8574 211.77 23.8574C213.83 23.8574 215.432 24.5361 216.574 25.8936C217.717 27.251 218.288 29.1943 218.288 31.7236V32.8516H207.551C207.59 34.4141 208.044 35.6787 208.913 36.6455C209.792 37.6025 210.905 38.0811 212.253 38.0811C213.21 38.0811 214.021 37.8857 214.685 37.4951C215.349 37.1045 215.93 36.5869 216.428 35.9424L218.083 37.2314C216.755 39.2725 214.763 40.293 212.106 40.293ZM211.77 26.084C210.676 26.084 209.758 26.4844 209.016 27.2852C208.273 28.0762 207.814 29.1895 207.639 30.625H215.578V30.4199C215.5 29.043 215.129 27.9785 214.465 27.2266C213.801 26.4648 212.902 26.084 211.77 26.084ZM230.599 26.582C230.188 26.5137 229.744 26.4795 229.266 26.4795C227.488 26.4795 226.282 27.2363 225.647 28.75V40H222.938V24.1504H225.574L225.618 25.9814C226.507 24.5654 227.767 23.8574 229.397 23.8574C229.925 23.8574 230.325 23.9258 230.599 24.0625V26.582ZM233.651 31.9434C233.651 29.5117 234.228 27.5586 235.38 26.084C236.532 24.5996 238.041 23.8574 239.906 23.8574C241.762 23.8574 243.231 24.4922 244.315 25.7617V17.5H247.025V40H244.535L244.403 38.3008C243.319 39.6289 241.811 40.293 239.877 40.293C238.041 40.293 236.542 39.541 235.38 38.0371C234.228 36.5332 233.651 34.5703 233.651 32.1484V31.9434ZM236.361 32.251C236.361 34.0479 236.732 35.4541 237.475 36.4697C238.217 37.4854 239.242 37.9932 240.551 37.9932C242.27 37.9932 243.524 37.2217 244.315 35.6787V28.3984C243.505 26.9043 242.26 26.1572 240.58 26.1572C239.252 26.1572 238.217 26.6699 237.475 27.6953C236.732 28.7207 236.361 30.2393 236.361 32.251ZM259.321 40.293C257.173 40.293 255.425 39.5898 254.077 38.1836C252.729 36.7676 252.056 34.8779 252.056 32.5146V32.0166C252.056 30.4443 252.354 29.043 252.949 27.8125C253.555 26.5723 254.395 25.6055 255.469 24.9121C256.553 24.209 257.725 23.8574 258.984 23.8574C261.045 23.8574 262.646 24.5361 263.789 25.8936C264.932 27.251 265.503 29.1943 265.503 31.7236V32.8516H254.766C254.805 34.4141 255.259 35.6787 256.128 36.6455C257.007 37.6025 258.12 38.0811 259.468 38.0811C260.425 38.0811 261.235 37.8857 261.899 37.4951C262.563 37.1045 263.145 36.5869 263.643 35.9424L265.298 37.2314C263.97 39.2725 261.978 40.293 259.321 40.293ZM258.984 26.084C257.891 26.084 256.973 26.4844 256.23 27.2852C255.488 28.0762 255.029 29.1895 254.854 30.625H262.793V30.4199C262.715 29.043 262.344 27.9785 261.68 27.2266C261.016 26.4648 260.117 26.084 258.984 26.084ZM272.716 24.1504L272.804 26.1426C274.015 24.6191 275.597 23.8574 277.55 23.8574C280.899 23.8574 282.589 25.7471 282.618 29.5264V40H279.908V29.5117C279.898 28.3691 279.635 27.5244 279.117 26.9775C278.609 26.4307 277.813 26.1572 276.729 26.1572C275.851 26.1572 275.079 26.3916 274.415 26.8604C273.751 27.3291 273.233 27.9443 272.862 28.7061V40H270.152V24.1504H272.716Z" fill="white"/>
</svg>
