<svg width="542" height="57" viewBox="0 0 542 57" fill="none" xmlns="http://www.w3.org/2000/svg">
<rect x="21" y="8" width="427" height="41" fill="#FFA137"/>
<circle cx="20.5" cy="28.5" r="20.5" fill="#FFA137"/>
<path d="M447.5 29L417.622 7.25L477.378 7.25L447.5 29Z" fill="white"/>
<path d="M447.5 28L477.378 49.75H417.622L447.5 28Z" fill="white"/>
<path d="M62.2529 33.4336H53.3174L51.3105 39H48.4102L56.5547 17.6719H59.0156L67.1748 39H64.2891L62.2529 33.4336ZM54.167 31.1191H61.418L57.7852 21.1436L54.167 31.1191ZM73.6846 23.1504L73.7725 25.1426C74.9834 23.6191 76.5654 22.8574 78.5186 22.8574C81.8682 22.8574 83.5576 24.7471 83.5869 28.5264V39H80.877V28.5117C80.8672 27.3691 80.6035 26.5244 80.0859 25.9775C79.5781 25.4307 78.7822 25.1572 77.6982 25.1572C76.8193 25.1572 76.0479 25.3916 75.3838 25.8604C74.7197 26.3291 74.2021 26.9443 73.8311 27.7061V39H71.1211V23.1504H73.6846ZM88.5293 30.9434C88.5293 28.4727 89.1006 26.5098 90.2432 25.0547C91.3857 23.5898 92.8994 22.8574 94.7842 22.8574C96.7178 22.8574 98.2266 23.541 99.3105 24.9082L99.4424 23.1504H101.918V38.6191C101.918 40.6699 101.308 42.2861 100.087 43.4678C98.876 44.6494 97.2451 45.2402 95.1943 45.2402C94.0518 45.2402 92.9336 44.9961 91.8398 44.5078C90.7461 44.0195 89.9111 43.3506 89.335 42.501L90.7412 40.875C91.9033 42.3105 93.3242 43.0283 95.0039 43.0283C96.3223 43.0283 97.3477 42.6572 98.0801 41.915C98.8223 41.1729 99.1934 40.1279 99.1934 38.7803V37.418C98.1094 38.668 96.6299 39.293 94.7549 39.293C92.8994 39.293 91.3955 38.5459 90.2432 37.0518C89.1006 35.5576 88.5293 33.5215 88.5293 30.9434ZM91.2539 31.251C91.2539 33.0381 91.6201 34.4443 92.3525 35.4697C93.085 36.4854 94.1104 36.9932 95.4287 36.9932C97.1377 36.9932 98.3926 36.2168 99.1934 34.6641V27.4277C98.3633 25.9141 97.1182 25.1572 95.458 25.1572C94.1396 25.1572 93.1094 25.6699 92.3672 26.6953C91.625 27.7207 91.2539 29.2393 91.2539 31.251ZM114.097 39.293C111.948 39.293 110.2 38.5898 108.853 37.1836C107.505 35.7676 106.831 33.8779 106.831 31.5146V31.0166C106.831 29.4443 107.129 28.043 107.725 26.8125C108.33 25.5723 109.17 24.6055 110.244 23.9121C111.328 23.209 112.5 22.8574 113.76 22.8574C115.82 22.8574 117.422 23.5361 118.564 24.8936C119.707 26.251 120.278 28.1943 120.278 30.7236V31.8516H109.541C109.58 33.4141 110.034 34.6787 110.903 35.6455C111.782 36.6025 112.896 37.0811 114.243 37.0811C115.2 37.0811 116.011 36.8857 116.675 36.4951C117.339 36.1045 117.92 35.5869 118.418 34.9424L120.073 36.2314C118.745 38.2725 116.753 39.293 114.097 39.293ZM113.76 25.084C112.666 25.084 111.748 25.4844 111.006 26.2852C110.264 27.0762 109.805 28.1895 109.629 29.625H117.568V29.4199C117.49 28.043 117.119 26.9785 116.455 26.2266C115.791 25.4648 114.893 25.084 113.76 25.084ZM138.346 31.251C138.346 33.6729 137.789 35.6211 136.676 37.0957C135.562 38.5605 134.068 39.293 132.193 39.293C130.191 39.293 128.644 38.585 127.55 37.1689L127.418 39H124.928V16.5H127.638V24.8936C128.731 23.5361 130.24 22.8574 132.164 22.8574C134.088 22.8574 135.597 23.585 136.69 25.04C137.794 26.4951 138.346 28.4873 138.346 31.0166V31.251ZM135.636 30.9434C135.636 29.0977 135.279 27.6719 134.566 26.666C133.854 25.6602 132.828 25.1572 131.49 25.1572C129.703 25.1572 128.419 25.9873 127.638 27.6475V34.5029C128.468 36.1631 129.762 36.9932 131.52 36.9932C132.818 36.9932 133.829 36.4902 134.552 35.4844C135.274 34.4785 135.636 32.9648 135.636 30.9434ZM142.556 30.9287C142.556 29.376 142.858 27.9795 143.464 26.7393C144.079 25.499 144.929 24.542 146.013 23.8682C147.106 23.1943 148.352 22.8574 149.748 22.8574C151.906 22.8574 153.649 23.6045 154.978 25.0986C156.315 26.5928 156.984 28.5801 156.984 31.0605V31.251C156.984 32.7939 156.687 34.1807 156.091 35.4111C155.505 36.6318 154.66 37.584 153.557 38.2676C152.463 38.9512 151.203 39.293 149.777 39.293C147.629 39.293 145.886 38.5459 144.548 37.0518C143.22 35.5576 142.556 33.5801 142.556 31.1191V30.9287ZM145.28 31.251C145.28 33.0088 145.686 34.4199 146.496 35.4844C147.316 36.5488 148.41 37.0811 149.777 37.0811C151.154 37.0811 152.248 36.5439 153.059 35.4697C153.869 34.3857 154.274 32.8721 154.274 30.9287C154.274 29.1904 153.859 27.7842 153.029 26.71C152.209 25.626 151.115 25.084 149.748 25.084C148.41 25.084 147.331 25.6162 146.511 26.6807C145.69 27.7451 145.28 29.2686 145.28 31.251ZM165.56 19.3125V23.1504H168.519V25.2451H165.56V35.0742C165.56 35.709 165.691 36.1875 165.955 36.5098C166.219 36.8223 166.668 36.9785 167.303 36.9785C167.615 36.9785 168.045 36.9199 168.592 36.8027V39C167.879 39.1953 167.186 39.293 166.512 39.293C165.301 39.293 164.388 38.9268 163.772 38.1943C163.157 37.4619 162.85 36.4219 162.85 35.0742V25.2451H159.964V23.1504H162.85V19.3125H165.56ZM179.774 39.293C177.626 39.293 175.878 38.5898 174.53 37.1836C173.183 35.7676 172.509 33.8779 172.509 31.5146V31.0166C172.509 29.4443 172.807 28.043 173.402 26.8125C174.008 25.5723 174.848 24.6055 175.922 23.9121C177.006 23.209 178.178 22.8574 179.438 22.8574C181.498 22.8574 183.1 23.5361 184.242 24.8936C185.385 26.251 185.956 28.1943 185.956 30.7236V31.8516H175.219C175.258 33.4141 175.712 34.6787 176.581 35.6455C177.46 36.6025 178.573 37.0811 179.921 37.0811C180.878 37.0811 181.688 36.8857 182.353 36.4951C183.017 36.1045 183.598 35.5869 184.096 34.9424L185.751 36.2314C184.423 38.2725 182.431 39.293 179.774 39.293ZM179.438 25.084C178.344 25.084 177.426 25.4844 176.684 26.2852C175.941 27.0762 175.482 28.1895 175.307 29.625H183.246V29.4199C183.168 28.043 182.797 26.9785 182.133 26.2266C181.469 25.4648 180.57 25.084 179.438 25.084ZM206.124 39.293C203.976 39.293 202.228 38.5898 200.88 37.1836C199.532 35.7676 198.858 33.8779 198.858 31.5146V31.0166C198.858 29.4443 199.156 28.043 199.752 26.8125C200.357 25.5723 201.197 24.6055 202.271 23.9121C203.355 23.209 204.527 22.8574 205.787 22.8574C207.848 22.8574 209.449 23.5361 210.592 24.8936C211.734 26.251 212.306 28.1943 212.306 30.7236V31.8516H201.568C201.607 33.4141 202.062 34.6787 202.931 35.6455C203.81 36.6025 204.923 37.0811 206.271 37.0811C207.228 37.0811 208.038 36.8857 208.702 36.4951C209.366 36.1045 209.947 35.5869 210.445 34.9424L212.101 36.2314C210.772 38.2725 208.78 39.293 206.124 39.293ZM205.787 25.084C204.693 25.084 203.775 25.4844 203.033 26.2852C202.291 27.0762 201.832 28.1895 201.656 29.625H209.596V29.4199C209.518 28.043 209.146 26.9785 208.482 26.2266C207.818 25.4648 206.92 25.084 205.787 25.084ZM224.616 25.582C224.206 25.5137 223.762 25.4795 223.283 25.4795C221.506 25.4795 220.3 26.2363 219.665 27.75V39H216.955V23.1504H219.592L219.636 24.9814C220.524 23.5654 221.784 22.8574 223.415 22.8574C223.942 22.8574 224.343 22.9258 224.616 23.0625V25.582ZM231.331 25.0693C232.532 23.5947 234.095 22.8574 236.019 22.8574C239.368 22.8574 241.058 24.7471 241.087 28.5264V39H238.377V28.5117C238.367 27.3691 238.104 26.5244 237.586 25.9775C237.078 25.4307 236.282 25.1572 235.198 25.1572C234.319 25.1572 233.548 25.3916 232.884 25.8604C232.22 26.3291 231.702 26.9443 231.331 27.7061V39H228.621V16.5H231.331V25.0693ZM256.43 39C256.273 38.6875 256.146 38.1309 256.049 37.3301C254.789 38.6387 253.285 39.293 251.537 39.293C249.975 39.293 248.69 38.8535 247.685 37.9746C246.688 37.0859 246.19 35.9629 246.19 34.6055C246.19 32.9551 246.815 31.6758 248.065 30.7676C249.325 29.8496 251.093 29.3906 253.368 29.3906H256.005V28.1455C256.005 27.1982 255.722 26.4463 255.155 25.8896C254.589 25.3232 253.754 25.04 252.65 25.04C251.684 25.04 250.873 25.2842 250.219 25.7725C249.564 26.2607 249.237 26.8516 249.237 27.5449H246.513C246.513 26.7539 246.791 25.9922 247.348 25.2598C247.914 24.5176 248.676 23.9316 249.633 23.502C250.6 23.0723 251.659 22.8574 252.812 22.8574C254.638 22.8574 256.068 23.3164 257.104 24.2344C258.139 25.1426 258.676 26.3975 258.715 27.999V35.2939C258.715 36.749 258.9 37.9062 259.271 38.7656V39H256.43ZM251.933 36.9346C252.782 36.9346 253.588 36.7148 254.35 36.2754C255.111 35.8359 255.663 35.2646 256.005 34.5615V31.3096H253.881C250.561 31.3096 248.9 32.2812 248.9 34.2246C248.9 35.0742 249.184 35.7383 249.75 36.2168C250.316 36.6953 251.044 36.9346 251.933 36.9346ZM267.407 39H264.697V16.5H267.407V39ZM276.935 19.3125V23.1504H279.894V25.2451H276.935V35.0742C276.935 35.709 277.066 36.1875 277.33 36.5098C277.594 36.8223 278.043 36.9785 278.678 36.9785C278.99 36.9785 279.42 36.9199 279.967 36.8027V39C279.254 39.1953 278.561 39.293 277.887 39.293C276.676 39.293 275.763 38.9268 275.147 38.1943C274.532 37.4619 274.225 36.4219 274.225 35.0742V25.2451H271.339V23.1504H274.225V19.3125H276.935ZM291.149 39.293C289.001 39.293 287.253 38.5898 285.905 37.1836C284.558 35.7676 283.884 33.8779 283.884 31.5146V31.0166C283.884 29.4443 284.182 28.043 284.777 26.8125C285.383 25.5723 286.223 24.6055 287.297 23.9121C288.381 23.209 289.553 22.8574 290.812 22.8574C292.873 22.8574 294.475 23.5361 295.617 24.8936C296.76 26.251 297.331 28.1943 297.331 30.7236V31.8516H286.594C286.633 33.4141 287.087 34.6787 287.956 35.6455C288.835 36.6025 289.948 37.0811 291.296 37.0811C292.253 37.0811 293.063 36.8857 293.728 36.4951C294.392 36.1045 294.973 35.5869 295.471 34.9424L297.126 36.2314C295.798 38.2725 293.806 39.293 291.149 39.293ZM290.812 25.084C289.719 25.084 288.801 25.4844 288.059 26.2852C287.316 27.0762 286.857 28.1895 286.682 29.625H294.621V29.4199C294.543 28.043 294.172 26.9785 293.508 26.2266C292.844 25.4648 291.945 25.084 290.812 25.084ZM304.544 23.1504L304.632 25.1426C305.843 23.6191 307.425 22.8574 309.378 22.8574C312.728 22.8574 314.417 24.7471 314.446 28.5264V39H311.736V28.5117C311.727 27.3691 311.463 26.5244 310.945 25.9775C310.438 25.4307 309.642 25.1572 308.558 25.1572C307.679 25.1572 306.907 25.3916 306.243 25.8604C305.579 26.3291 305.062 26.9443 304.69 27.7061V39H301.98V23.1504H304.544Z" fill="white"/>
<circle cx="20.5" cy="28.5" r="16.5" fill="white"/>
<path d="M28.272 39H13.8315V36.9868L21.4604 28.5103C22.5907 27.2287 23.3677 26.1893 23.7915 25.3921C24.2254 24.5848 24.4424 23.7523 24.4424 22.8945C24.4424 21.7441 24.0942 20.8006 23.3979 20.064C22.7017 19.3273 21.7733 18.959 20.6128 18.959C19.2202 18.959 18.1354 19.3576 17.3584 20.1548C16.5915 20.9419 16.208 22.0418 16.208 23.4546H13.4077C13.4077 21.4263 14.0586 19.7865 15.3604 18.5352C16.6722 17.2839 18.423 16.6582 20.6128 16.6582C22.6613 16.6582 24.2809 17.1981 25.4717 18.2778C26.6624 19.3475 27.2578 20.7754 27.2578 22.5615C27.2578 24.7311 25.8753 27.3145 23.1104 30.3115L17.207 36.7144H28.272V39Z" fill="#FF9721"/>
</svg>
