<svg width="542" height="57" viewBox="0 0 542 57" fill="none" xmlns="http://www.w3.org/2000/svg">
<rect x="21" y="8" width="475" height="41" fill="#FF9721" fill-opacity="0.8"/>
<circle cx="20.5" cy="28.5" r="20.5" fill="#FFAC4D"/>
<circle cx="20.5" cy="28.5" r="16.5" fill="white"/>
<path d="M17.9033 27.6182H20.0073C21.3293 27.598 22.3687 27.2498 23.1255 26.5737C23.8823 25.8976 24.2607 24.9844 24.2607 23.834C24.2607 21.2507 22.9741 19.959 20.4009 19.959C19.1899 19.959 18.2212 20.3071 17.4946 21.0034C16.7782 21.6896 16.4199 22.6029 16.4199 23.7432H13.6196C13.6196 21.9974 14.2554 20.5493 15.5269 19.3989C16.8084 18.2384 18.4331 17.6582 20.4009 17.6582C22.4797 17.6582 24.1094 18.2082 25.29 19.3081C26.4707 20.408 27.061 21.9368 27.061 23.8945C27.061 24.8532 26.7482 25.7816 26.1226 26.6797C25.507 27.5778 24.6644 28.2489 23.5947 28.6929C24.8057 29.0763 25.7391 29.7121 26.395 30.6001C27.061 31.4881 27.394 32.5729 27.394 33.8545C27.394 35.8324 26.7482 37.4015 25.4565 38.562C24.1649 39.7225 22.4847 40.3027 20.416 40.3027C18.3473 40.3027 16.6621 39.7427 15.3604 38.6226C14.0687 37.5024 13.4229 36.0241 13.4229 34.1875H16.2383C16.2383 35.348 16.6167 36.2764 17.3735 36.9727C18.1304 37.6689 19.1445 38.0171 20.416 38.0171C21.7682 38.0171 22.8026 37.6639 23.519 36.9575C24.2355 36.2511 24.5938 35.237 24.5938 33.915C24.5938 32.6335 24.2002 31.6496 23.4131 30.9634C22.626 30.2772 21.4907 29.924 20.0073 29.9038H17.9033V27.6182Z" fill="#FF9721"/>
<path d="M495.5 29L465.622 7.25L525.378 7.25L495.5 29Z" fill="white"/>
<path d="M495.5 28L525.378 49.75H465.622L495.5 28Z" fill="white"/>
<path d="M65.2119 19.9863H58.3564V39H55.5586V19.9863H48.7178V17.6719H65.2119V19.9863ZM75.999 25.582C75.5889 25.5137 75.1445 25.4795 74.666 25.4795C72.8887 25.4795 71.6826 26.2363 71.0479 27.75V39H68.3379V23.1504H70.9746L71.0186 24.9814C71.9072 23.5654 73.167 22.8574 74.7979 22.8574C75.3252 22.8574 75.7256 22.9258 75.999 23.0625V25.582ZM89.2031 39C89.0469 38.6875 88.9199 38.1309 88.8223 37.3301C87.5625 38.6387 86.0586 39.293 84.3105 39.293C82.748 39.293 81.4639 38.8535 80.458 37.9746C79.4619 37.0859 78.9639 35.9629 78.9639 34.6055C78.9639 32.9551 79.5889 31.6758 80.8389 30.7676C82.0986 29.8496 83.8662 29.3906 86.1416 29.3906H88.7783V28.1455C88.7783 27.1982 88.4951 26.4463 87.9287 25.8896C87.3623 25.3232 86.5273 25.04 85.4238 25.04C84.457 25.04 83.6465 25.2842 82.9922 25.7725C82.3379 26.2607 82.0107 26.8516 82.0107 27.5449H79.2861C79.2861 26.7539 79.5645 25.9922 80.1211 25.2598C80.6875 24.5176 81.4492 23.9316 82.4062 23.502C83.373 23.0723 84.4326 22.8574 85.585 22.8574C87.4111 22.8574 88.8418 23.3164 89.877 24.2344C90.9121 25.1426 91.4492 26.3975 91.4883 27.999V35.2939C91.4883 36.749 91.6738 37.9062 92.0449 38.7656V39H89.2031ZM84.7061 36.9346C85.5557 36.9346 86.3613 36.7148 87.123 36.2754C87.8848 35.8359 88.4365 35.2646 88.7783 34.5615V31.3096H86.6543C83.334 31.3096 81.6738 32.2812 81.6738 34.2246C81.6738 35.0742 81.957 35.7383 82.5234 36.2168C83.0898 36.6953 83.8174 36.9346 84.7061 36.9346ZM107.021 37.4326C105.967 38.6729 104.419 39.293 102.378 39.293C100.688 39.293 99.3994 38.8047 98.5107 37.8281C97.6318 36.8418 97.1875 35.3867 97.1777 33.4629V23.1504H99.8877V33.3896C99.8877 35.792 100.864 36.9932 102.817 36.9932C104.888 36.9932 106.265 36.2217 106.948 34.6787V23.1504H109.658V39H107.08L107.021 37.4326ZM117.838 23.1504L117.911 24.9082C119.073 23.541 120.641 22.8574 122.613 22.8574C124.83 22.8574 126.339 23.707 127.14 25.4062C127.667 24.6445 128.351 24.0293 129.19 23.5605C130.04 23.0918 131.041 22.8574 132.193 22.8574C135.67 22.8574 137.438 24.6982 137.496 28.3799V39H134.786V28.541C134.786 27.4082 134.527 26.5635 134.01 26.0068C133.492 25.4404 132.623 25.1572 131.402 25.1572C130.396 25.1572 129.562 25.46 128.897 26.0654C128.233 26.6611 127.848 27.4668 127.74 28.4824V39H125.016V28.6143C125.016 26.3096 123.888 25.1572 121.632 25.1572C119.854 25.1572 118.639 25.9141 117.984 27.4277V39H115.274V23.1504H117.838ZM145.896 23.1504V40.8311C145.896 43.8779 144.514 45.4014 141.75 45.4014C141.154 45.4014 140.603 45.3135 140.095 45.1377V42.9697C140.407 43.0479 140.817 43.0869 141.325 43.0869C141.931 43.0869 142.39 42.9209 142.702 42.5889C143.024 42.2666 143.186 41.7002 143.186 40.8896V23.1504H145.896ZM142.907 18.9463C142.907 18.5166 143.039 18.1504 143.303 17.8477C143.576 17.5352 143.972 17.3789 144.489 17.3789C145.017 17.3789 145.417 17.5303 145.69 17.833C145.964 18.1357 146.101 18.5068 146.101 18.9463C146.101 19.3857 145.964 19.752 145.69 20.0449C145.417 20.3379 145.017 20.4844 144.489 20.4844C143.962 20.4844 143.566 20.3379 143.303 20.0449C143.039 19.752 142.907 19.3857 142.907 18.9463ZM151.058 30.9287C151.058 29.376 151.36 27.9795 151.966 26.7393C152.581 25.499 153.431 24.542 154.515 23.8682C155.608 23.1943 156.854 22.8574 158.25 22.8574C160.408 22.8574 162.151 23.6045 163.479 25.0986C164.817 26.5928 165.486 28.5801 165.486 31.0605V31.251C165.486 32.7939 165.188 34.1807 164.593 35.4111C164.007 36.6318 163.162 37.584 162.059 38.2676C160.965 38.9512 159.705 39.293 158.279 39.293C156.131 39.293 154.388 38.5459 153.05 37.0518C151.722 35.5576 151.058 33.5801 151.058 31.1191V30.9287ZM153.782 31.251C153.782 33.0088 154.188 34.4199 154.998 35.4844C155.818 36.5488 156.912 37.0811 158.279 37.0811C159.656 37.0811 160.75 36.5439 161.561 35.4697C162.371 34.3857 162.776 32.8721 162.776 30.9287C162.776 29.1904 162.361 27.7842 161.531 26.71C160.711 25.626 159.617 25.084 158.25 25.084C156.912 25.084 155.833 25.6162 155.013 26.6807C154.192 27.7451 153.782 29.2686 153.782 31.251ZM183.803 31.251C183.803 33.6729 183.246 35.6211 182.133 37.0957C181.02 38.5605 179.525 39.293 177.65 39.293C175.648 39.293 174.101 38.585 173.007 37.1689L172.875 39H170.385V16.5H173.095V24.8936C174.188 23.5361 175.697 22.8574 177.621 22.8574C179.545 22.8574 181.054 23.585 182.147 25.04C183.251 26.4951 183.803 28.4873 183.803 31.0166V31.251ZM181.093 30.9434C181.093 29.0977 180.736 27.6719 180.023 26.666C179.311 25.6602 178.285 25.1572 176.947 25.1572C175.16 25.1572 173.876 25.9873 173.095 27.6475V34.5029C173.925 36.1631 175.219 36.9932 176.977 36.9932C178.275 36.9932 179.286 36.4902 180.009 35.4844C180.731 34.4785 181.093 32.9648 181.093 30.9434ZM207.457 39C207.301 38.6875 207.174 38.1309 207.076 37.3301C205.816 38.6387 204.312 39.293 202.564 39.293C201.002 39.293 199.718 38.8535 198.712 37.9746C197.716 37.0859 197.218 35.9629 197.218 34.6055C197.218 32.9551 197.843 31.6758 199.093 30.7676C200.353 29.8496 202.12 29.3906 204.396 29.3906H207.032V28.1455C207.032 27.1982 206.749 26.4463 206.183 25.8896C205.616 25.3232 204.781 25.04 203.678 25.04C202.711 25.04 201.9 25.2842 201.246 25.7725C200.592 26.2607 200.265 26.8516 200.265 27.5449H197.54C197.54 26.7539 197.818 25.9922 198.375 25.2598C198.941 24.5176 199.703 23.9316 200.66 23.502C201.627 23.0723 202.687 22.8574 203.839 22.8574C205.665 22.8574 207.096 23.3164 208.131 24.2344C209.166 25.1426 209.703 26.3975 209.742 27.999V35.2939C209.742 36.749 209.928 37.9062 210.299 38.7656V39H207.457ZM202.96 36.9346C203.81 36.9346 204.615 36.7148 205.377 36.2754C206.139 35.8359 206.69 35.2646 207.032 34.5615V31.3096H204.908C201.588 31.3096 199.928 32.2812 199.928 34.2246C199.928 35.0742 200.211 35.7383 200.777 36.2168C201.344 36.6953 202.071 36.9346 202.96 36.9346ZM225.275 37.4326C224.221 38.6729 222.673 39.293 220.632 39.293C218.942 39.293 217.653 38.8047 216.765 37.8281C215.886 36.8418 215.441 35.3867 215.432 33.4629V23.1504H218.142V33.3896C218.142 35.792 219.118 36.9932 221.071 36.9932C223.142 36.9932 224.519 36.2217 225.202 34.6787V23.1504H227.912V39H225.334L225.275 37.4326ZM242.771 34.7959C242.771 34.0635 242.493 33.4971 241.937 33.0967C241.39 32.6865 240.428 32.335 239.051 32.042C237.684 31.749 236.595 31.3975 235.784 30.9873C234.983 30.5771 234.388 30.0889 233.997 29.5225C233.616 28.9561 233.426 28.2822 233.426 27.501C233.426 26.2021 233.973 25.1035 235.066 24.2051C236.17 23.3066 237.576 22.8574 239.285 22.8574C241.082 22.8574 242.537 23.3213 243.65 24.249C244.773 25.1768 245.335 26.3633 245.335 27.8086H242.61C242.61 27.0664 242.293 26.4268 241.658 25.8896C241.033 25.3525 240.242 25.084 239.285 25.084C238.299 25.084 237.527 25.2988 236.971 25.7285C236.414 26.1582 236.136 26.7197 236.136 27.4131C236.136 28.0674 236.395 28.5605 236.912 28.8926C237.43 29.2246 238.362 29.542 239.71 29.8447C241.067 30.1475 242.166 30.5088 243.006 30.9287C243.846 31.3486 244.466 31.8564 244.866 32.4521C245.276 33.0381 245.481 33.7559 245.481 34.6055C245.481 36.0215 244.915 37.1592 243.782 38.0186C242.649 38.8682 241.18 39.293 239.373 39.293C238.104 39.293 236.98 39.0684 236.004 38.6191C235.027 38.1699 234.261 37.5449 233.704 36.7441C233.157 35.9336 232.884 35.0596 232.884 34.1221H235.594C235.643 35.0303 236.004 35.7529 236.678 36.29C237.361 36.8174 238.26 37.0811 239.373 37.0811C240.398 37.0811 241.219 36.876 241.834 36.4658C242.459 36.0459 242.771 35.4893 242.771 34.7959ZM264.545 35.2646L267.592 23.1504H270.302L265.688 39H263.49L259.638 26.9883L255.888 39H253.69L249.091 23.1504H251.786L254.906 35.0156L258.598 23.1504H260.78L264.545 35.2646ZM284.355 39C284.199 38.6875 284.072 38.1309 283.975 37.3301C282.715 38.6387 281.211 39.293 279.463 39.293C277.9 39.293 276.616 38.8535 275.61 37.9746C274.614 37.0859 274.116 35.9629 274.116 34.6055C274.116 32.9551 274.741 31.6758 275.991 30.7676C277.251 29.8496 279.019 29.3906 281.294 29.3906H283.931V28.1455C283.931 27.1982 283.647 26.4463 283.081 25.8896C282.515 25.3232 281.68 25.04 280.576 25.04C279.609 25.04 278.799 25.2842 278.145 25.7725C277.49 26.2607 277.163 26.8516 277.163 27.5449H274.438C274.438 26.7539 274.717 25.9922 275.273 25.2598C275.84 24.5176 276.602 23.9316 277.559 23.502C278.525 23.0723 279.585 22.8574 280.737 22.8574C282.563 22.8574 283.994 23.3164 285.029 24.2344C286.064 25.1426 286.602 26.3975 286.641 27.999V35.2939C286.641 36.749 286.826 37.9062 287.197 38.7656V39H284.355ZM279.858 36.9346C280.708 36.9346 281.514 36.7148 282.275 36.2754C283.037 35.8359 283.589 35.2646 283.931 34.5615V31.3096H281.807C278.486 31.3096 276.826 32.2812 276.826 34.2246C276.826 35.0742 277.109 35.7383 277.676 36.2168C278.242 36.6953 278.97 36.9346 279.858 36.9346ZM276.313 18.917C276.313 18.4775 276.445 18.1113 276.709 17.8184C276.982 17.5156 277.383 17.3643 277.91 17.3643C278.438 17.3643 278.838 17.5156 279.111 17.8184C279.385 18.1113 279.521 18.4775 279.521 18.917C279.521 19.3564 279.385 19.7227 279.111 20.0156C278.838 20.3086 278.438 20.4551 277.91 20.4551C277.383 20.4551 276.982 20.3086 276.709 20.0156C276.445 19.7227 276.313 19.3564 276.313 18.917ZM282.612 18.9463C282.612 18.5068 282.744 18.1357 283.008 17.833C283.281 17.5303 283.682 17.3789 284.209 17.3789C284.736 17.3789 285.137 17.5303 285.41 17.833C285.684 18.1357 285.82 18.5068 285.82 18.9463C285.82 19.3857 285.684 19.752 285.41 20.0449C285.137 20.3379 284.736 20.4844 284.209 20.4844C283.682 20.4844 283.281 20.3379 283.008 20.0449C282.744 19.752 282.612 19.3857 282.612 18.9463ZM295.099 25.0693C296.3 23.5947 297.862 22.8574 299.786 22.8574C303.136 22.8574 304.825 24.7471 304.854 28.5264V39H302.145V28.5117C302.135 27.3691 301.871 26.5244 301.354 25.9775C300.846 25.4307 300.05 25.1572 298.966 25.1572C298.087 25.1572 297.315 25.3916 296.651 25.8604C295.987 26.3291 295.47 26.9443 295.099 27.7061V39H292.389V16.5H295.099V25.0693ZM313.356 39H310.646V16.5H313.356V39ZM325.784 39.293C323.636 39.293 321.888 38.5898 320.54 37.1836C319.192 35.7676 318.519 33.8779 318.519 31.5146V31.0166C318.519 29.4443 318.816 28.043 319.412 26.8125C320.018 25.5723 320.857 24.6055 321.932 23.9121C323.016 23.209 324.188 22.8574 325.447 22.8574C327.508 22.8574 329.109 23.5361 330.252 24.8936C331.395 26.251 331.966 28.1943 331.966 30.7236V31.8516H321.229C321.268 33.4141 321.722 34.6787 322.591 35.6455C323.47 36.6025 324.583 37.0811 325.931 37.0811C326.888 37.0811 327.698 36.8857 328.362 36.4951C329.026 36.1045 329.607 35.5869 330.105 34.9424L331.761 36.2314C330.433 38.2725 328.44 39.293 325.784 39.293ZM325.447 25.084C324.354 25.084 323.436 25.4844 322.693 26.2852C321.951 27.0762 321.492 28.1895 321.316 29.625H329.256V29.4199C329.178 28.043 328.807 26.9785 328.143 26.2266C327.479 25.4648 326.58 25.084 325.447 25.084ZM339.179 23.1504L339.267 25.1426C340.478 23.6191 342.06 22.8574 344.013 22.8574C347.362 22.8574 349.052 24.7471 349.081 28.5264V39H346.371V28.5117C346.361 27.3691 346.098 26.5244 345.58 25.9775C345.072 25.4307 344.276 25.1572 343.192 25.1572C342.313 25.1572 341.542 25.3916 340.878 25.8604C340.214 26.3291 339.696 26.9443 339.325 27.7061V39H336.615V23.1504H339.179Z" fill="white"/>
</svg>
