                      <svg width="14" height="23" viewBox="0 0 14 23" fill="none"
                          xmlns="http://www.w3.org/2000/svg">
                          <path
                              d="M5.08301 15.4521C5.08301 14.085 5.24902 12.9961 5.58105 12.1855C5.91309 11.375 6.51855 10.5791 7.39746 9.79785C8.28613 9.00684 8.87695 8.36719 9.16992 7.87891C9.46289 7.38086 9.60938 6.8584 9.60938 6.31152C9.60938 4.66113 8.84766 3.83594 7.32422 3.83594C6.60156 3.83594 6.02051 4.06055 5.58105 4.50977C5.15137 4.94922 4.92676 5.55957 4.90723 6.34082H0.65918C0.678711 4.47559 1.2793 3.01562 2.46094 1.96094C3.65234 0.90625 5.27344 0.378906 7.32422 0.378906C9.39453 0.378906 11.001 0.881836 12.1436 1.8877C13.2861 2.88379 13.8574 4.29492 13.8574 6.12109C13.8574 6.95117 13.6719 7.7373 13.3008 8.47949C12.9297 9.21191 12.2803 10.0273 11.3525 10.9258L10.166 12.0537C9.42383 12.7666 8.99902 13.6016 8.8916 14.5586L8.83301 15.4521H5.08301ZM4.6582 19.9492C4.6582 19.2949 4.87793 18.7578 5.31738 18.3379C5.7666 17.9082 6.33789 17.6934 7.03125 17.6934C7.72461 17.6934 8.29102 17.9082 8.73047 18.3379C9.17969 18.7578 9.4043 19.2949 9.4043 19.9492C9.4043 20.5938 9.18457 21.126 8.74512 21.5459C8.31543 21.9658 7.74414 22.1758 7.03125 22.1758C6.31836 22.1758 5.74219 21.9658 5.30273 21.5459C4.87305 21.126 4.6582 20.5938 4.6582 19.9492Z"
                              fill="#FF9721" />
                      </svg>