<svg width="19" height="17" viewBox="0 0 19 17" fill="none" xmlns="http://www.w3.org/2000/svg">
<path d="M17.858 7.16635C17.7802 7.15373 17.7015 7.14791 17.6228 7.14893H4.2187L4.51098 7.01299C4.79668 6.87776 5.05659 6.69373 5.27907 6.46921L9.03792 2.71036C9.53297 2.23778 9.61615 1.47756 9.23504 0.909101C8.79148 0.303343 7.94085 0.171817 7.33505 0.615377C7.28611 0.651232 7.23959 0.690316 7.19588 0.732374L0.398679 7.52957C-0.132523 8.06018 -0.13299 8.92092 0.397616 9.45212C0.397956 9.45246 0.398339 9.45284 0.398679 9.45318L7.19588 16.2504C7.7275 16.7805 8.58824 16.7793 9.11842 16.2477C9.16014 16.2059 9.1991 16.1613 9.23504 16.1144C9.61615 15.546 9.53297 14.7858 9.03792 14.3132L5.28587 10.5475C5.08641 10.3479 4.85709 10.1804 4.60615 10.0513L4.19831 9.86781H17.548C18.2425 9.8936 18.8518 9.40849 18.9822 8.72588C19.1024 7.98477 18.5991 7.28657 17.858 7.16635Z" fill="#636466"/>
</svg>
