<svg width="207" height="30" viewBox="0 0 207 30" fill="none" xmlns="http://www.w3.org/2000/svg">
<path fill-rule="evenodd" clip-rule="evenodd" d="M11.5773 21.805C14.2753 24.4745 18.6307 24.451 21.2995 21.7537L27.6066 15.3793C30.2755 12.682 30.2534 8.32598 27.5554 5.65642C24.8585 2.98798 20.5013 3.01099 17.8325 5.70831L11.5254 12.0827C8.85654 14.78 8.88035 19.1366 11.5773 21.805Z" fill="#FF9721"/>
<path fill-rule="evenodd" clip-rule="evenodd" d="M9.36612 24.0397C13.2964 27.9285 19.6448 27.8951 23.5337 23.9647L29.8408 17.5903C33.7298 13.6598 33.6959 7.31141 29.7656 3.42262C25.8353 -0.466176 19.4869 -0.432741 15.598 3.49768L9.29082 9.87209C5.40191 13.8025 5.43581 20.1509 9.36612 24.0397ZM11.5771 21.8051C14.2751 24.4747 18.6305 24.4512 21.2993 21.7539L27.6065 15.3794C30.2753 12.6822 30.2533 8.32612 27.5552 5.65656C24.8583 2.98815 20.5012 3.01117 17.8323 5.70845L11.5252 12.0829C8.85636 14.7802 8.88017 19.1367 11.5771 21.8051Z" fill="#FF9721"/>
<path fill-rule="evenodd" clip-rule="evenodd" d="M21.5679 21.4824C24.3215 18.8472 23.9233 14.5793 21.2165 11.8963L14.9587 5.69589C12.2519 3.01392 7.8761 3.03398 5.1941 5.74084C2.51211 8.44865 2.53218 12.8235 5.23905 15.5065L11.4958 21.7059C16.3271 26.4111 16.3729 26.3433 18.4821 24.4051C19.7223 23.266 20.2561 22.738 21.5679 21.4824Z" fill="#FF9721"/>
<path fill-rule="evenodd" clip-rule="evenodd" d="M23.741 23.7498C27.7864 19.879 27.4055 13.6013 23.4287 9.66083L17.171 3.46044C13.2314 -0.442771 6.86484 -0.414118 2.96066 3.52537C-0.942546 7.46486 -0.912936 13.8324 3.02658 17.7356L9.29294 23.9456C11.6045 26.196 12.9823 27.443 13.9447 28.0178C14.9014 28.5897 15.7216 28.7768 16.4577 28.7873C17.6923 28.8055 18.9345 28.2555 20.6092 26.7164C21.8677 25.5601 22.41 25.0245 23.741 23.7498ZM21.5678 21.4793C24.3215 18.844 23.9233 14.5761 21.2165 11.8932L14.9587 5.69271C12.2518 3.0107 7.87596 3.03076 5.19395 5.73762C2.51192 8.44543 2.53198 12.8203 5.23882 15.5033L11.4957 21.7027C16.327 26.408 16.3728 26.3402 18.4819 24.4019C19.7222 23.2629 20.256 22.7348 21.5678 21.4793Z" fill="#FF9721"/>
<path fill-rule="evenodd" clip-rule="evenodd" d="M55.2827 21.805C57.9807 24.4745 62.3361 24.451 65.005 21.7537L71.3121 15.3793C73.9809 12.682 73.9588 8.32598 71.2608 5.65642C68.5639 2.98798 64.2068 3.01099 61.5379 5.70831L55.2308 12.0827C52.562 14.78 52.5858 19.1366 55.2827 21.805Z" fill="#FF9721"/>
<path fill-rule="evenodd" clip-rule="evenodd" d="M53.0719 24.0397C57.0022 27.9285 63.3506 27.8951 67.2395 23.9647L73.5467 17.5903C77.4356 13.6598 77.4017 7.31141 73.4714 3.42262C69.5411 -0.466176 63.1927 -0.432741 59.3038 3.49768L52.9966 9.87209C49.1077 13.8025 49.1416 20.1509 53.0719 24.0397ZM55.2829 21.8051C57.9809 24.4747 62.3363 24.4512 65.0052 21.7539L71.3123 15.3794C73.9811 12.6822 73.9591 8.32612 71.261 5.65656C68.5641 2.98815 64.207 3.01117 61.5381 5.70845L55.231 12.0829C52.5622 14.7802 52.586 19.1367 55.2829 21.8051Z" fill="#FF9721"/>
<path fill-rule="evenodd" clip-rule="evenodd" d="M65.2734 21.4824C68.027 18.8472 67.6288 14.5793 64.9219 11.8963L58.6642 5.69589C55.9573 3.01392 51.5815 3.03398 48.8995 5.74084C46.2176 8.44865 46.2376 12.8235 48.9445 15.5065L55.2013 21.7059C60.0326 26.4111 60.0784 26.3433 62.1875 24.4051C63.4278 23.266 63.9615 22.738 65.2734 21.4824Z" fill="#FF9721"/>
<path fill-rule="evenodd" clip-rule="evenodd" d="M67.4465 23.7498C71.492 19.879 71.1111 13.6013 67.1343 9.66083L60.8765 3.46044C56.937 -0.442771 50.5704 -0.414118 46.6662 3.52537C42.763 7.46486 42.7926 13.8324 46.7321 17.7356L52.9985 23.9456C55.3101 26.196 56.6879 27.443 57.6503 28.0178C58.607 28.5897 59.4272 28.7768 60.1633 28.7873C61.3979 28.8055 62.6401 28.2555 64.3148 26.7164C65.5732 25.5601 66.1155 25.0245 67.4465 23.7498ZM65.2734 21.4793C68.0271 18.844 67.6289 14.5761 64.922 11.8932L58.6642 5.69271C55.9574 3.0107 51.5815 3.03076 48.8995 5.73762C46.2175 8.44543 46.2375 12.8203 48.9444 15.5033L55.2012 21.7027C60.0325 26.408 60.0784 26.3402 62.1875 24.4019C63.4278 23.2629 63.9615 22.7348 65.2734 21.4793Z" fill="#FF9721"/>
<path fill-rule="evenodd" clip-rule="evenodd" d="M98.5248 22.2772C101.223 24.9467 105.578 24.9232 108.247 22.2259L114.554 15.8515C117.223 13.1542 117.201 8.79818 114.503 6.12862C111.806 3.46017 107.449 3.48319 104.78 6.18051L98.4729 12.5549C95.804 15.2522 95.8279 19.6088 98.5248 22.2772Z" fill="#FF9721"/>
<path fill-rule="evenodd" clip-rule="evenodd" d="M96.3138 24.5119C100.244 28.4007 106.592 28.3673 110.481 24.4369L116.788 18.0624C120.677 14.132 120.643 7.78361 116.713 3.89481C112.783 0.00602216 106.435 0.0394574 102.546 3.96988L96.2385 10.3443C92.3495 14.2747 92.3834 20.6231 96.3138 24.5119ZM98.5247 22.2773C101.223 24.9469 105.578 24.9234 108.247 22.2261L114.554 15.8516C117.223 13.1544 117.201 8.79832 114.503 6.12875C111.806 3.46035 107.449 3.48336 104.78 6.18064L98.4728 12.5551C95.804 15.2524 95.8278 19.6089 98.5247 22.2773Z" fill="#FF9721"/>
<path fill-rule="evenodd" clip-rule="evenodd" d="M108.515 21.9547C111.269 19.3194 110.871 15.0515 108.164 12.3685L101.906 6.16811C99.1992 3.48615 94.8234 3.50621 92.1414 6.21306C89.4594 8.92088 89.4794 13.2957 92.1863 15.9787L98.4431 22.1781C103.274 26.8833 103.32 26.8155 105.429 24.8773C106.67 23.7382 107.203 23.2102 108.515 21.9547Z" fill="#FF9721"/>
<path fill-rule="evenodd" clip-rule="evenodd" d="M110.688 24.222C114.734 20.3513 114.353 14.0735 110.376 10.1331L104.118 3.93267C100.179 0.0294581 93.8123 0.058111 89.9082 3.9976C86.005 7.93709 86.0346 14.3046 89.9741 18.2078L96.2404 24.4178C98.552 26.6682 99.9298 27.9152 100.892 28.49C101.849 29.0619 102.669 29.249 103.405 29.2596C104.64 29.2777 105.882 28.7277 107.557 27.1886C108.815 26.0323 109.357 25.4967 110.688 24.222ZM108.515 21.9515C111.269 19.3163 110.871 15.0484 108.164 12.3654L101.906 6.16493C99.1993 3.48293 94.8235 3.50299 92.1415 6.20984C89.4594 8.91766 89.4795 13.2925 92.1863 15.9755L98.4432 22.175C103.274 26.8802 103.32 26.8124 105.429 24.8742C106.67 23.7351 107.203 23.2071 108.515 21.9515Z" fill="#FF9721"/>
<path fill-rule="evenodd" clip-rule="evenodd" d="M141.525 22.2772C144.223 24.9467 148.578 24.9232 151.247 22.2259L157.554 15.8515C160.223 13.1542 160.201 8.79818 157.503 6.12862C154.806 3.46017 150.449 3.48319 147.78 6.18051L141.473 12.5549C138.804 15.2522 138.828 19.6088 141.525 22.2772Z" fill="#FF9721"/>
<path fill-rule="evenodd" clip-rule="evenodd" d="M139.314 24.5119C143.244 28.4007 149.592 28.3673 153.481 24.4369L159.788 18.0624C163.677 14.132 163.643 7.78361 159.713 3.89481C155.783 0.00602216 149.434 0.0394574 145.545 3.96988L139.238 10.3443C135.349 14.2747 135.383 20.6231 139.314 24.5119ZM141.525 22.2773C144.223 24.9469 148.578 24.9234 151.247 22.2261L157.554 15.8516C160.223 13.1544 160.201 8.79832 157.503 6.12875C154.806 3.46035 150.449 3.48336 147.78 6.18064L141.473 12.5551C138.804 15.2524 138.828 19.6089 141.525 22.2773Z" fill="#FF9721"/>
<path fill-rule="evenodd" clip-rule="evenodd" d="M151.515 21.9546C154.269 19.3194 153.871 15.0515 151.164 12.3685L144.906 6.16808C142.199 3.48612 137.823 3.50618 135.141 6.21303C132.459 8.92085 132.48 13.2957 135.186 15.9787L141.443 22.1781C146.274 26.8833 146.32 26.8155 148.429 24.8773C149.67 23.7382 150.203 23.2102 151.515 21.9546Z" fill="#FF9721"/>
<path fill-rule="evenodd" clip-rule="evenodd" d="M153.688 24.2231C157.734 20.3523 157.353 14.0745 153.376 10.1341L147.118 3.93368C143.179 0.0304652 136.812 0.0591181 132.908 3.99861C129.005 7.9381 129.035 14.3056 132.974 18.2088L139.24 24.4188C141.552 26.6692 142.93 27.9162 143.892 28.491C144.849 29.0629 145.669 29.25 146.405 29.2606C147.64 29.2787 148.882 28.7287 150.557 27.1896C151.815 26.0333 152.357 25.4977 153.688 24.2231ZM151.515 21.9525C154.269 19.3173 153.871 15.0494 151.164 12.3664L144.906 6.16594C142.199 3.48394 137.823 3.504 135.141 6.21085C132.459 8.91866 132.479 13.2935 135.186 15.9765L141.443 22.176C146.274 26.8812 146.32 26.8134 148.429 24.8752C149.67 23.7361 150.203 23.2081 151.515 21.9525Z" fill="#FF9721"/>
<path fill-rule="evenodd" clip-rule="evenodd" d="M183.314 24.5119C187.244 28.4007 193.592 28.3673 197.481 24.4369L203.788 18.0624C207.677 14.132 207.643 7.78361 203.713 3.89481C199.783 0.00602216 193.434 0.0394574 189.545 3.96988L183.238 10.3443C179.349 14.2747 179.383 20.6231 183.314 24.5119ZM185.525 22.2773C188.223 24.9469 192.578 24.9234 195.247 22.2261L201.554 15.8516C204.223 13.1544 204.201 8.79832 201.503 6.12875C198.806 3.46035 194.449 3.48336 191.78 6.18064L185.473 12.5551C182.804 15.2524 182.828 19.6089 185.525 22.2773Z" fill="#BCBBBB"/>
<path fill-rule="evenodd" clip-rule="evenodd" d="M195.515 21.9546C198.269 19.3194 197.871 15.0515 195.164 12.3685L188.906 6.16808C186.199 3.48612 181.823 3.50618 179.141 6.21303C176.459 8.92085 176.48 13.2957 179.186 15.9787L185.443 22.1781C190.274 26.8833 190.32 26.8155 192.429 24.8773C193.67 23.7382 194.203 23.2102 195.515 21.9546Z" fill="white"/>
<path fill-rule="evenodd" clip-rule="evenodd" d="M197.688 24.2231C201.734 20.3523 201.353 14.0745 197.376 10.1341L191.118 3.93368C187.179 0.0304652 180.812 0.0591181 176.908 3.99861C173.005 7.9381 173.035 14.3056 176.974 18.2088L183.24 24.4188C185.552 26.6692 186.93 27.9162 187.892 28.491C188.849 29.0629 189.669 29.25 190.405 29.2606C191.64 29.2787 192.882 28.7287 194.557 27.1896C195.815 26.0333 196.357 25.4977 197.688 24.2231ZM195.515 21.9525C198.269 19.3173 197.871 15.0494 195.164 12.3664L188.906 6.16594C186.199 3.48394 181.823 3.504 179.141 6.21085C176.459 8.91866 176.479 13.2935 179.186 15.9765L185.443 22.176C190.274 26.8812 190.32 26.8134 192.429 24.8752C193.67 23.7361 194.203 23.2081 195.515 21.9525Z" fill="#BCBBBB"/>
<path fill-rule="evenodd" clip-rule="evenodd" d="M185.525 22.2772C188.223 24.9467 192.578 24.9232 195.247 22.2259L201.554 15.8515C204.223 13.1542 204.201 8.79818 201.503 6.12862C198.806 3.46017 194.449 3.48319 191.78 6.18051L185.473 12.5549C182.804 15.2522 182.828 19.6088 185.525 22.2772Z" fill="white"/>
</svg>
