<svg width="132" height="103" viewBox="0 0 132 103" fill="none" xmlns="http://www.w3.org/2000/svg">
<path d="M34.4222 45.9745C35.6519 36.9849 43.8927 28.848 58.9668 21.7573L61.6812 20.4803L50.5526 0.66803L48.0402 1.89595C16.1632 17.4776 0 39.4982 0 67.3467C0 76.9554 3.16313 85.2542 9.40215 92.0132C15.7287 98.8663 23.4063 102.341 32.2232 102.341C40.1456 102.341 46.8634 99.6209 52.1899 94.255C57.4818 88.9235 60.165 82.3014 60.165 74.5721C60.165 67.2684 57.4547 60.7594 52.1093 55.226C47.3946 50.3451 41.4539 47.2404 34.4222 45.9745ZM48.0074 90.3945C43.7566 94.6768 38.5935 96.7583 32.2232 96.7583C25.0305 96.7583 18.9804 93.9918 13.7274 88.301C8.38605 82.515 5.78949 75.6608 5.78949 67.3464C5.78949 54.5829 9.51672 43.0596 16.867 33.0973C23.8804 23.5922 34.3995 15.2003 48.1592 8.12757L53.7343 18.0527C36.9671 26.5255 28.4717 36.7107 28.4717 48.3549V50.8482L31.0406 51.1288C37.9608 51.8842 43.4659 54.469 47.8729 59.031C52.2482 63.5604 54.3752 68.6442 54.3752 74.5718C54.3755 80.9021 52.2922 86.0774 48.0074 90.3945Z" fill="#FFEEDA"/>
<path d="M5 74.4019C5 60.4221 0.502529 43.0626 15 43.0626C29.4975 43.0626 57.5 60.4221 57.5 74.4019C57.5 88.3816 45.7475 99.7144 31.25 99.7144C16.7525 99.7144 5 88.3816 5 74.4019Z" fill="#FFEEDA"/>
<path d="M28.7502 50.2947L6.25006 45.4733L22.5001 22.5715L45.4415 4.16075L57.0596 16.6854L37.5002 29.8036L28.7502 50.2947Z" fill="#FFEEDA"/>
<path d="M104.486 45.9826C105.701 36.9856 113.874 28.8445 128.827 21.753L131.5 20.4855L120.648 0.658997L118.111 1.89351C86.0878 17.4744 69.8511 39.496 69.8511 67.3466C69.8511 76.9614 73.0547 85.2647 79.3725 92.0255C85.769 98.8702 93.4783 102.341 102.288 102.341C110.22 102.341 116.907 99.6153 122.163 94.2396C127.374 88.9102 130.016 82.2931 130.016 74.5718C130.016 67.2678 127.306 60.7588 121.961 55.2256C117.256 50.3553 111.387 47.2532 104.486 45.9826ZM117.951 90.4097C113.774 94.6817 108.651 96.7584 102.288 96.7584C95.0883 96.7584 88.9994 93.988 83.6734 88.2885C78.2678 82.5041 75.6403 75.6541 75.6403 67.3466C75.6403 54.5852 79.3845 43.0638 86.7673 33.1025C93.8119 23.5995 104.376 15.2089 118.195 8.13699L123.619 18.0468C106.972 26.5226 98.5374 36.7098 98.5374 48.3551V50.8429L101.1 51.1282C107.878 51.8825 113.315 54.4676 117.725 59.0312C122.1 63.5603 124.226 68.6436 124.226 74.572C124.227 80.9102 122.174 86.091 117.951 90.4097Z" fill="#FFEEDA"/>
<path d="M74.0002 74.4018C74.0002 60.4221 73.2528 43.0625 87.7502 43.0625C114 50.2946 126.5 60.4221 126.5 74.4018C126.5 88.3815 114.748 99.7143 100.25 99.7143C85.7528 99.7143 74.0002 88.3815 74.0002 74.4018Z" fill="#FFEEDA"/>
<path d="M97.7503 50.2947L75.2502 45.4733L91.5002 22.5714L114.442 4.16074L126.06 16.6854L109 31.0089L97.7503 50.2947Z" fill="#FFEEDA"/>
</svg>
