<svg width="137" height="139" viewBox="0 0 137 139" fill="none" xmlns="http://www.w3.org/2000/svg">
<path d="M51.525 37.1186L68.668 27.2376C70.1692 26.3732 73.7269 27.5442 73.7269 29.9667C73.7265 29.7704 73.6748 29.5776 73.577 29.4077C73.4791 29.2377 73.3385 29.0966 73.1693 28.9984C73.0001 28.9001 72.8081 28.8483 72.6127 28.848C72.4172 28.8477 72.2251 28.899 72.0556 28.9967L54.9076 38.8777C54.3456 39.2082 53.8931 39.6976 53.6066 40.285L50.2791 38.3852C50.5721 37.8571 51.0028 37.4193 51.525 37.1186Z" fill="#FF9721"/>
<path d="M53.6066 40.285C53.3623 40.7501 53.2319 41.267 53.2263 41.7928V51.6888C53.2267 51.8852 53.2784 52.0779 53.3762 52.2479C53.4741 52.4178 53.6147 52.559 53.7839 52.6572C53.9531 52.7554 54.1451 52.8073 54.3405 52.8076C54.536 52.8079 54.7281 52.7566 54.8976 52.6589C54.4031 52.9722 53.8347 53.1481 53.2504 53.1685C52.666 53.1889 52.0868 53.0532 51.5718 52.7751C51.0568 52.4971 50.6246 52.0867 50.3192 51.5859C50.0139 51.0851 49.8463 50.5119 49.8337 49.9247V40.0337C49.8342 39.4556 49.9843 38.8875 50.2691 38.3852L53.6066 40.285Z" fill="#FF9721"/>
<path opacity="0.4" d="M51.525 37.1186L68.668 27.2376C70.1692 26.3732 73.7269 27.5442 73.7269 29.9667C73.7265 29.7704 73.6748 29.5776 73.577 29.4077C73.4791 29.2377 73.3385 29.0966 73.1693 28.9984C73.0001 28.9001 72.8081 28.8483 72.6127 28.848C72.4172 28.8477 72.2251 28.899 72.0556 28.9967L54.9076 38.8777C54.3456 39.2082 53.8931 39.6976 53.6066 40.285L50.2791 38.3852C50.5721 37.8571 51.0028 37.4193 51.525 37.1186Z" fill="white"/>
<path opacity="0.2" d="M53.6066 40.285C53.3623 40.7501 53.2319 41.267 53.2263 41.7928V51.6888C53.2267 51.8852 53.2784 52.0779 53.3762 52.2479C53.4741 52.4178 53.6147 52.559 53.7839 52.6572C53.9531 52.7554 54.1451 52.8073 54.3405 52.8076C54.536 52.8079 54.7281 52.7566 54.8976 52.6589C54.4031 52.9722 53.8347 53.1481 53.2504 53.1685C52.666 53.1889 52.0868 53.0532 51.5718 52.7751C51.0568 52.4971 50.6246 52.0867 50.3192 51.5859C50.0139 51.0851 49.8463 50.5119 49.8337 49.9247V40.0337C49.8342 39.4556 49.9843 38.8875 50.2691 38.3852L53.6066 40.285Z" fill="white"/>
<path d="M72.0556 28.9966L54.9076 38.8776C54.3972 39.1724 53.9731 39.597 53.6779 40.1088C53.3828 40.6205 53.227 41.2013 53.2263 41.7926V51.6887C53.2267 51.885 53.2784 52.0778 53.3762 52.2478C53.4741 52.4177 53.6147 52.5588 53.7839 52.6571C53.9531 52.7553 54.1451 52.8071 54.3405 52.8074C54.536 52.8077 54.7281 52.7564 54.8976 52.6587L72.0406 42.823C72.5527 42.5284 72.9783 42.1032 73.2744 41.5905C73.5704 41.0778 73.7266 40.4956 73.7269 39.9029V29.9666C73.7265 29.7703 73.6748 29.5775 73.577 29.4076C73.4791 29.2376 73.3386 29.0965 73.1693 28.9983C73.0001 28.9 72.8081 28.8482 72.6127 28.8479C72.4172 28.8476 72.2252 28.8989 72.0556 28.9966Z" fill="#FF9721"/>
<path d="M49.1032 48.3162L53.2213 49.0902V43.7828L48.9581 47.8337C48.9201 47.8696 48.8929 47.9154 48.8794 47.966C48.8659 48.0166 48.8668 48.07 48.8818 48.1201C48.8969 48.1703 48.9256 48.2152 48.9647 48.2498C49.0038 48.2845 49.0518 48.3075 49.1032 48.3162Z" fill="#FF9721"/>
<path d="M69.1032 36.1436C68.6452 36.4415 68.2641 36.8441 67.991 37.3185C67.7179 37.7928 67.5606 38.3255 67.532 38.8727C67.532 39.8779 68.2425 40.2749 69.1182 39.7723C69.5736 39.4739 69.9524 39.0715 70.2237 38.5982C70.495 38.1248 70.6511 37.5937 70.6794 37.0483C70.6794 36.0431 69.9688 35.646 69.1032 36.1436Z" fill="white"/>
<path d="M63.5294 39.3804C63.0707 39.6773 62.6889 40.0797 62.4157 40.5543C62.1424 41.0289 61.9856 41.5619 61.9583 42.1095C61.9583 43.1146 62.6688 43.5117 63.5395 43.0041C63.9964 42.7067 64.3765 42.3048 64.6488 41.8313C64.9211 41.3578 65.0776 40.8261 65.1056 40.28C65.1056 39.2748 64.3951 38.8778 63.5294 39.3804Z" fill="white"/>
<path d="M57.9546 42.6121C57.4983 42.91 57.1185 43.3121 56.8463 43.7855C56.5741 44.2589 56.4172 44.7902 56.3884 45.3361C56.3884 46.3413 57.094 46.7434 57.9646 46.2358C58.4218 45.9388 58.8022 45.5369 59.0745 45.0633C59.3468 44.5897 59.5032 44.0579 59.5308 43.5117C59.5258 42.5065 58.8403 42.1045 57.9546 42.6121Z" fill="white"/>
<path d="M53.2212 43.7828L49.8336 41.8378L45.5754 45.9289C45.5427 45.9593 45.5176 45.997 45.5021 46.0389C45.4865 46.0808 45.481 46.1257 45.4858 46.1702C45.4907 46.2147 45.5059 46.2573 45.5301 46.2949C45.5543 46.3324 45.587 46.3637 45.6254 46.3862L48.998 48.281L53.2212 43.7828Z" fill="#FF9721"/>
<path opacity="0.2" d="M53.2212 43.7828L49.8336 41.8378L45.5754 45.9289C45.5427 45.9593 45.5176 45.997 45.5021 46.0389C45.4865 46.0808 45.481 46.1257 45.4858 46.1702C45.4907 46.2147 45.5059 46.2573 45.5301 46.2949C45.5543 46.3324 45.587 46.3637 45.6254 46.3862L48.998 48.281L53.2212 43.7828Z" fill="white"/>
<path d="M110.64 10.1049C111.095 10.4005 111.475 10.7999 111.747 11.2707C112.019 11.7415 112.177 12.2703 112.206 12.8139C112.206 13.8191 111.496 14.2061 110.63 13.7035C110.177 13.4079 109.801 13.0088 109.531 12.5388C109.261 12.0688 109.107 11.5413 109.079 10.9995C109.079 9.99937 109.785 9.60735 110.64 10.1049Z" fill="white"/>
<path d="M116.175 13.3065C116.63 13.6014 117.009 14.0008 117.281 14.4718C117.552 14.9428 117.708 15.4719 117.736 16.0155C117.736 17.0206 117.031 17.4076 116.165 16.905C115.712 16.6095 115.335 16.2104 115.066 15.7404C114.796 15.2703 114.641 14.7428 114.614 14.2011C114.614 13.211 115.344 12.8039 116.175 13.3065Z" fill="white"/>
<path d="M121.699 20.1217C121.246 19.8261 120.869 19.4271 120.598 18.9572C120.328 18.4873 120.172 17.9598 120.143 17.4178C120.143 16.4126 120.843 16.0206 121.709 16.5231C122.163 16.8167 122.54 17.2147 122.81 17.6841C123.08 18.1535 123.234 18.6807 123.26 19.2221C123.26 20.2222 122.565 20.6193 121.699 20.1217Z" fill="white"/>
<path d="M106.057 3.97332V13.8342C106.058 14.4217 106.213 14.9987 106.506 15.5069C106.799 16.0151 107.221 16.4367 107.728 16.7291L120.858 24.268L118.592 22.9663L119.677 26.0673C119.694 26.1119 119.728 26.1482 119.771 26.1688C119.813 26.1894 119.862 26.1926 119.908 26.1779C120.098 26.0774 120.953 25.615 121.439 25.2933H121.474C121.491 25.2845 121.506 25.2726 121.519 25.2582L121.784 24.8209L124.741 26.5197C125.232 26.8235 125.794 26.9922 126.37 27.0088C126.946 27.0254 127.516 26.8893 128.024 26.6142C128.531 26.3391 128.957 25.9347 129.259 25.4417C129.561 24.9487 129.729 24.3844 129.745 23.8057V13.9599C129.742 13.3869 129.592 12.8243 129.31 12.3264C129.02 11.8019 128.593 11.3672 128.074 11.0699L111.061 1.26434C109.585 0.404903 106.057 1.57092 106.057 3.97332ZM120.143 17.4177C120.143 16.4125 120.843 16.0205 121.709 16.5231C122.163 16.8166 122.54 17.2146 122.81 17.684C123.08 18.1534 123.234 18.6807 123.26 19.222C123.26 20.2272 122.565 20.6192 121.699 20.1217C121.246 19.8261 120.869 19.427 120.598 18.9571C120.328 18.4872 120.172 17.9597 120.143 17.4177ZM114.639 14.2061C114.639 13.2009 115.344 12.8139 116.2 13.3115C116.655 13.6064 117.034 14.0059 117.306 14.4769C117.577 14.9479 117.733 15.477 117.761 16.0205C117.761 17.0257 117.055 17.4127 116.19 16.9101C115.732 16.6174 115.351 16.2195 115.077 15.7493C114.803 15.2791 114.644 14.7501 114.614 14.2061H114.639ZM109.104 10.9996C109.104 9.99439 109.81 9.60739 110.666 10.105C111.121 10.4005 111.5 10.8 111.772 11.2708C112.044 11.7416 112.202 12.2704 112.232 12.8139C112.232 13.8191 111.521 14.2061 110.656 13.7035C110.198 13.4108 109.817 13.0129 109.542 12.5427C109.268 12.0725 109.11 11.5436 109.079 10.9996H109.104Z" fill="#FF9721"/>
<path opacity="0.2" d="M121.519 25.2331C121.506 25.2475 121.491 25.2594 121.474 25.2683H121.439C120.938 25.5899 120.098 26.0523 119.908 26.1528C119.93 26.1486 119.95 26.1397 119.968 26.1266C119.987 26.1136 120.002 26.0969 120.013 26.0775L121.069 24.3636L120.858 24.243L121.784 24.7757L121.519 25.2331Z" fill="white"/>
<path opacity="0.4" d="M126.022 14.2113C125.81 13.78 125.508 13.3995 125.137 13.0955C125.009 12.9948 124.876 12.9025 124.736 12.8191L107.723 3.01849C107.555 2.92171 107.365 2.8709 107.172 2.87113C106.978 2.87136 106.788 2.92262 106.62 3.0198C106.453 3.11698 106.313 3.25667 106.216 3.4249C106.119 3.59313 106.068 3.78401 106.067 3.97844C106.067 1.57605 109.595 0.41003 111.071 1.26947L128.084 11.0751C128.603 11.3724 129.03 11.807 129.32 12.3315L126.022 14.2113Z" fill="white"/>
<path opacity="0.2" d="M126.398 25.5297V15.709C126.406 15.5784 126.406 15.4475 126.398 15.317C126.345 14.9309 126.227 14.5569 126.047 14.2113L129.35 12.3265C129.632 12.8244 129.782 13.387 129.785 13.96V23.7806C129.769 24.3594 129.602 24.9236 129.299 25.4167C128.997 25.9097 128.571 26.3141 128.064 26.5892C127.557 26.8643 126.986 27.0004 126.41 26.9838C125.834 26.9672 125.272 26.7985 124.781 26.4947C124.949 26.582 125.135 26.625 125.323 26.6197C125.511 26.6144 125.695 26.5608 125.857 26.4642C126.019 26.3675 126.154 26.231 126.248 26.0674C126.343 25.9039 126.394 25.7188 126.398 25.5297Z" fill="white"/>
<path d="M93.2324 19.8635C93.5016 18.9068 95.4308 17.0943 97.3519 17.1306C97.5357 17.1374 97.7174 17.1728 97.8905 17.2356L135.195 38.5541C135.74 38.871 136.193 39.3251 136.51 39.8717C136.826 40.4182 136.995 41.0383 137 41.6706V122.718C137 124.781 134.629 126.755 132.402 125.802C132.353 125.786 132.304 125.766 132.257 125.742L94.9445 104.383C94.3975 104.07 93.9428 103.617 93.6265 103.071C93.3103 102.524 93.1438 101.903 93.1439 101.271V20.2551C93.1415 20.1193 93.1718 19.985 93.2324 19.8635Z" fill="#37474F"/>
<path d="M131.791 50.2367C131.791 49.9204 131.708 49.6097 131.55 49.3361C131.392 49.0624 131.164 48.8356 130.891 48.6785L96.2547 28.898C96.119 28.8202 95.9653 28.7796 95.809 28.7802C95.6527 28.7809 95.4993 28.8227 95.3642 28.9016C95.2291 28.9805 95.117 29.0937 95.0391 29.2298C94.9612 29.3658 94.9203 29.5201 94.9204 29.6771V95.0174C94.921 95.3337 95.0045 95.6442 95.1626 95.9178C95.3206 96.1913 95.5476 96.4182 95.8207 96.5757L130.457 116.401C130.593 116.478 130.746 116.519 130.903 116.518C131.059 116.518 131.212 116.476 131.348 116.397C131.483 116.318 131.595 116.205 131.673 116.069C131.751 115.933 131.791 115.778 131.791 115.621V50.2367Z" fill="#FFD5A5"/>
<path d="M121.773 54.8671C121.251 56.8739 124.097 62.3958 122.941 72.4424C121.785 82.489 110.822 81.8706 105.889 78.5259C100.957 75.1812 101.812 57.0001 103.508 53.4157C105.205 49.8312 121.773 54.8671 121.773 54.8671Z" fill="#2E2E2E"/>
<path opacity="0.2" d="M110.539 63.664C110.662 64.4132 110.731 65.1703 110.746 65.9295C114.359 65.9295 115.885 62.6669 115.885 62.6669L110.539 63.664Z" fill="black"/>
<path d="M113.492 48.6511C108.849 48.3986 107.209 50.8156 106.612 55.5928C105.858 61.5817 106.951 65.9234 112.832 64.9579C120.817 63.6642 121.213 49.0802 113.492 48.6511Z" fill="#E4897B"/>
<path d="M110.469 55.7513C110.06 56.4387 109.571 57.0743 109.011 57.6445C109.135 57.8468 109.314 58.0098 109.526 58.1148C109.738 58.2197 109.976 58.2623 110.211 58.2377L110.469 55.7513Z" fill="#DE5753"/>
<path d="M112.493 55.2835C112.493 55.6685 112.65 55.9966 112.901 56.0155C113.152 56.0345 113.385 55.7379 113.416 55.3845C113.448 55.0311 113.265 54.6714 113.008 54.6524C112.75 54.6335 112.524 54.8986 112.493 55.2835Z" fill="#263238"/>
<path d="M113.115 54.6524L112.311 54.2612C112.311 54.2612 112.7 54.9932 113.115 54.6524Z" fill="#263238"/>
<path d="M107.762 54.8289C107.73 55.2139 107.913 55.542 108.17 55.561C108.428 55.5799 108.654 55.2896 108.685 54.9299C108.717 54.5702 108.528 54.2231 108.277 54.1979C108.026 54.1726 107.793 54.4503 107.762 54.8289Z" fill="#263238"/>
<path d="M108.384 54.2043L107.579 53.813C107.579 53.813 107.937 54.5451 108.384 54.2043Z" fill="#263238"/>
<path d="M114.698 53.1001C114.663 53.1011 114.629 53.0929 114.598 53.0763C114.567 53.0596 114.541 53.0353 114.522 53.0055C114.297 52.7578 114.019 52.5641 113.709 52.4385C113.399 52.3129 113.065 52.2587 112.732 52.2797C112.704 52.2814 112.675 52.2775 112.649 52.2683C112.622 52.2591 112.598 52.2447 112.577 52.2259C112.556 52.2072 112.539 52.1844 112.526 52.159C112.514 52.1336 112.507 52.106 112.505 52.0778C112.502 52.0497 112.504 52.0213 112.512 51.9942C112.521 51.9672 112.534 51.9421 112.553 51.9207C112.571 51.8993 112.594 51.882 112.619 51.8699C112.644 51.8578 112.672 51.8512 112.7 51.8506C113.107 51.8194 113.515 51.8849 113.891 52.0417C114.268 52.1984 114.603 52.4421 114.868 52.753C114.901 52.7994 114.915 52.8569 114.907 52.9134C114.898 52.9698 114.869 53.0209 114.824 53.0559C114.787 53.0827 114.744 53.098 114.698 53.1001Z" fill="#263238"/>
<path d="M107.479 52.1785C107.43 52.1816 107.382 52.1677 107.342 52.1393C107.302 52.1109 107.273 52.0697 107.26 52.0224C107.247 51.9752 107.25 51.9248 107.269 51.8797C107.289 51.8346 107.323 51.7975 107.366 51.7746C107.666 51.5694 108.009 51.4365 108.369 51.3862C108.728 51.3358 109.095 51.3694 109.439 51.4843C109.465 51.4952 109.489 51.5114 109.509 51.5318C109.528 51.5522 109.544 51.5765 109.554 51.6031C109.564 51.6297 109.568 51.6581 109.567 51.6865C109.566 51.7149 109.558 51.7427 109.546 51.7683C109.524 51.8198 109.482 51.8605 109.431 51.8817C109.379 51.9029 109.321 51.903 109.27 51.8819C108.987 51.7964 108.689 51.7758 108.398 51.8217C108.106 51.8675 107.829 51.9787 107.586 52.1469C107.555 52.1697 107.517 52.1809 107.479 52.1785Z" fill="#263238"/>
<path d="M118.141 56.7981C118.141 56.7981 116.181 52.8476 116.671 49.9005C116.671 49.9005 107.667 45.6156 106.7 54.9491C106.7 54.9491 106.254 46.5622 114.239 46.8146C122.225 47.067 121.565 58.8049 117.249 62.0802C117.261 62.1117 119.36 59.2719 118.141 56.7981Z" fill="#263238"/>
<path d="M117.331 57.7446C117.406 57.2064 117.689 56.7198 118.12 56.3911C118.551 56.0624 119.094 55.9183 119.63 55.9902C121.056 56.23 121.584 59.2339 117.965 59.7766C117.444 59.8271 117.18 59.3096 117.331 57.7446Z" fill="#E4897B"/>
<path d="M115.433 49.4525C115.112 53.314 116.064 57.1744 118.141 60.4394C120.755 64.4089 117.752 67.8797 117.752 67.8797C117.752 67.8797 122.395 64.9137 122.558 60.4394C122.558 60.4394 126.391 49.7428 118.43 46.8588C118.43 46.8588 118.399 44.4545 113.209 44.9088C108.019 45.3632 103.841 49.8375 103.05 55.5297C102.258 61.222 105.211 67.5705 105.211 67.5705C105.211 67.5705 102.069 47.3763 115.433 49.4525Z" fill="#2E2E2E"/>
<path d="M115.735 49.5343C115.389 50.883 115.258 52.278 115.345 53.6678C115.423 55.0798 115.646 56.4798 116.011 57.8455C116.37 59.2187 116.893 60.5431 117.569 61.7897C118.232 63.05 119.123 64.1756 120.195 65.1091C119.081 64.2103 118.143 63.1102 117.431 61.8654C116.701 60.6296 116.123 59.3095 115.709 57.9338C115.29 56.5542 115.01 55.1355 114.874 53.6994C114.731 52.2412 114.818 50.7697 115.131 49.3387L115.735 49.5343Z" fill="#2E2E2E"/>
<path opacity="0.3" d="M111.652 60.1915L109.815 61.0796C109.972 61.289 110.193 61.4416 110.444 61.5144C110.694 61.5872 110.962 61.5763 111.206 61.4833C111.417 61.3525 111.577 61.1525 111.658 60.9172C111.739 60.6818 111.737 60.4255 111.652 60.1915Z" fill="black"/>
<path d="M110.567 61.544C110.781 61.5877 111.004 61.5667 111.206 61.4834C111.375 61.3886 111.511 61.2454 111.599 61.0721C111.686 60.8988 111.72 60.7033 111.696 60.5105C111.413 60.5066 111.138 60.6112 110.928 60.8031C110.719 60.995 110.589 61.2599 110.567 61.544Z" fill="#F4CFCF"/>
<path d="M136.996 41.6705V122.718C136.996 124.781 134.625 126.755 132.398 125.802C132.533 125.854 132.679 125.872 132.823 125.855C132.966 125.837 133.103 125.785 133.222 125.702C133.341 125.62 133.438 125.509 133.504 125.38C133.571 125.251 133.605 125.108 133.604 124.963V43.9109C133.602 43.205 133.392 42.5155 133.001 41.9289L136.655 40.0961C136.884 40.5886 137.001 41.1266 136.996 41.6705Z" fill="#263238"/>
<path d="M97.3559 17.1306C97.5397 17.1374 97.7214 17.1728 97.8944 17.2356L135.199 38.5541C135.821 38.9119 136.321 39.4492 136.634 40.0962L132.981 41.9289C132.674 41.4601 132.261 41.0713 131.775 40.7946L94.4742 19.476C94.3675 19.4163 94.2497 19.3793 94.1281 19.3674C94.0065 19.3555 93.8838 19.369 93.7677 19.4068C93.6515 19.4447 93.5443 19.5063 93.4529 19.5876C93.3615 19.669 93.2878 19.7684 93.2363 19.8797C93.4976 18.9068 95.4267 17.0943 97.3559 17.1306Z" fill="#455A64"/>
<path d="M108.758 32.8621C108.497 32.7087 108.28 32.8258 108.28 33.1286C108.291 33.2909 108.339 33.4485 108.422 33.5886C108.504 33.7288 108.618 33.8477 108.754 33.9359L116.073 38.1827C116.334 38.332 116.547 38.2069 116.547 37.9041C116.536 37.7421 116.488 37.5848 116.407 37.4447C116.325 37.3046 116.212 37.1854 116.077 37.0968L108.758 32.8621Z" fill="#263238"/>
<path d="M117.958 38.1948C117.692 38.0414 117.483 38.1625 117.483 38.4653C117.494 38.6272 117.542 38.7844 117.624 38.9245C117.706 39.0646 117.818 39.1838 117.954 39.2727C118.215 39.422 118.432 39.3009 118.432 38.9982C118.42 38.8365 118.371 38.6798 118.289 38.5404C118.207 38.4009 118.093 38.2827 117.958 38.1948Z" fill="#263238"/>
<path d="M113.272 32.2445C112.749 31.9377 112.327 32.1799 112.323 32.7855C112.34 33.1155 112.433 33.437 112.597 33.7239C112.76 34.0108 112.989 34.2549 113.263 34.4365C113.79 34.7393 114.224 34.493 114.224 33.8875C114.206 33.5575 114.11 33.2366 113.944 32.951C113.779 32.6654 113.548 32.4233 113.272 32.2445Z" fill="#263238"/>
<path d="M113.268 108.541C112.203 107.923 111.343 108.416 111.339 109.647C111.372 110.319 111.563 110.974 111.896 111.559C112.23 112.143 112.695 112.64 113.256 113.01C114.321 113.627 115.205 113.123 115.209 111.891C115.171 111.219 114.975 110.565 114.638 109.983C114.3 109.4 113.831 108.906 113.268 108.541Z" fill="#263238"/>
<path d="M104.992 71.3561L104.073 70.8752C103.201 70.4182 102.197 70.2325 101.205 70.3449C100.213 70.4572 99.2842 70.8619 98.5532 71.5006L90.8691 78.1965C90.8691 78.1965 87.9609 73.2295 87.4273 71.5951C87.2583 71.0781 87.5815 70.5222 87.7415 70.0024C87.9404 69.4926 88.0035 68.9449 87.9253 68.407C87.7959 67.7095 87.855 66.9928 88.0973 66.3223C88.1161 66.2649 88.1197 66.204 88.108 66.1449C88.0962 66.0859 88.0694 66.0303 88.0298 65.9831C87.9901 65.9359 87.9389 65.8983 87.8805 65.8736C87.822 65.849 87.7581 65.8379 87.6941 65.8415H87.6111C87.4039 65.8515 87.2065 65.9269 87.0508 66.0555C86.9079 66.1989 86.8059 66.3739 86.7544 66.5642C86.5943 67.0384 86.4841 67.5262 86.4253 68.0206C85.9816 67.076 85.7679 66.0505 85.7998 65.0187C85.8523 64.626 85.8453 64.2283 85.779 63.8374C85.7437 63.6422 85.6487 63.4609 85.5055 63.3153C85.3624 63.1698 85.1773 63.0663 84.9727 63.0175C84.7602 63.2986 84.6054 63.6144 84.5161 63.9486C84.3931 63.9002 84.2607 63.8767 84.1274 63.8796C83.994 63.8825 83.8629 63.9117 83.7424 63.9653C83.6347 64.0273 83.5427 64.1107 83.4731 64.2097C83.4034 64.3086 83.3577 64.4206 83.3392 64.5379C82.7226 64.5796 82.1919 65.0938 81.9399 65.6219C81.7169 66.1659 81.6365 66.7521 81.7057 67.3313C81.8345 69.2359 82.5559 71.0633 83.7809 72.5874C84.774 76.1313 85.6604 80.1255 87.0745 83.2303C87.2397 83.5845 87.4856 83.9005 87.7951 84.156C88.1045 84.4115 88.4698 84.6004 88.8655 84.7093C89.2611 84.8182 89.6774 84.8445 90.085 84.7863C90.4926 84.7281 90.8817 84.587 91.2249 84.3727C94.6723 82.2172 97.9999 79.8979 101.195 77.4238L104.992 71.3561Z" fill="#E4897B"/>
<path d="M106.198 70.2261L105.251 69.6944C104.353 69.189 103.319 68.9836 102.297 69.1079C101.276 69.2322 100.32 69.6797 99.5673 70.3859L92.7339 75.3297C93.3444 78.5199 97.0879 81.9905 97.0879 81.9905L102.297 77.8639L106.198 70.2261Z" fill="white"/>
<path d="M91.676 81.587C91.7158 80.0974 91.2344 79.2333 90.5234 78.1269L91.0638 77.9539C91.6158 78.4264 92.7712 79.501 91.676 81.587Z" fill="#B77878"/>
<path d="M86.03 71.495C85.5771 71.1075 85.3318 70.5972 85.3453 70.0706C85.3588 69.544 85.6301 69.042 86.1024 68.6692C85.7645 68.7812 85.4728 68.965 85.2599 69.2C85.0469 69.4351 84.9212 69.7122 84.8967 70.0003C84.9005 70.3062 85.0074 70.6058 85.2065 70.8685C85.4056 71.1311 85.6898 71.3473 86.03 71.495Z" fill="#B77878"/>
<path d="M101.375 95.716H122.475C122.475 95.716 122.951 101.795 123.279 112.267L100.973 99.551L101.375 95.716Z" fill="white"/>
<path d="M108.719 68.6692L106.838 68.8699C106.151 68.9416 105.489 69.1674 104.9 69.5309C104.311 69.8944 103.81 70.3862 103.435 70.9702C101.504 73.9737 100.59 78.5721 101.123 83.5505C101.771 89.751 100.978 98.844 100.978 98.844C109.139 104.851 121.481 102.12 122.776 100.815L121.94 91.2814C121.806 89.9848 121.783 88.6789 121.873 87.3783C122.086 85.4286 123.295 81.21 123.466 78.4574C123.574 76.0086 123.062 73.5722 121.976 71.3788L114.821 68.6692H108.719Z" fill="white"/>
<path d="M110.31 75.7016C114.93 74.6098 117.251 69.6783 117.251 69.6783C114.035 68.4672 115.885 63.0707 115.885 63.0707L110.539 64.0678C110.662 64.817 110.731 65.5741 110.746 66.3333C110.82 68.8709 107.806 68.669 107.806 68.669C107.404 70.4856 110.31 75.7016 110.31 75.7016Z" fill="#E4897B"/>
<path d="M122.573 83.3617L124.175 89.8675L117.958 95.6501C117.515 96.061 116.951 96.2767 116.373 96.2562C115.738 96.2094 115.101 96.251 114.475 96.3801C113.986 96.5006 113.512 96.6781 113.026 96.802C112.686 96.8982 112.336 96.9466 111.985 96.946C111.911 96.9405 111.838 96.9566 111.772 96.9927C111.706 97.0287 111.649 97.0834 111.608 97.1513C111.567 97.2192 111.543 97.2978 111.538 97.3793C111.533 97.4608 111.548 97.5423 111.58 97.6156C111.631 97.7334 111.702 97.8392 111.789 97.927C112.05 98.1525 112.364 98.2886 112.694 98.3188C113.212 98.3994 113.738 98.3687 114.246 98.2284C113.735 98.8626 113.071 99.3206 112.332 99.5476C111.632 99.8088 110.901 99.9561 110.204 100.217C109.938 100.297 109.7 100.465 109.522 100.699C109.438 100.82 109.4 100.973 109.417 101.124C109.433 101.276 109.502 101.414 109.61 101.51C109.911 101.714 110.313 101.413 110.639 101.557C110.599 101.764 110.599 101.979 110.639 102.186C110.694 102.399 110.817 102.582 110.986 102.702C111.071 102.759 111.168 102.791 111.267 102.795C111.367 102.798 111.465 102.773 111.553 102.722C111.701 102.975 111.894 103.193 112.12 103.362C112.345 103.531 112.599 103.648 112.866 103.706C113.4 103.824 113.95 103.817 114.481 103.686C116.696 103.231 118.103 101.091 119.838 99.5008C120.077 99.2798 126.201 95.4827 129.337 93.5608C129.855 93.2397 130.263 92.7369 130.497 92.131C130.731 91.5252 130.777 90.8504 130.628 90.2124L128.63 81.587L122.573 83.3617Z" fill="#E4897B"/>
<path d="M128.303 89.9126C127.627 89.5518 125.459 89.227 124.451 90.0642L124.284 89.3425C124.923 88.9414 125.65 88.7811 126.368 88.883C127.087 88.9849 127.761 89.3441 128.303 89.9126Z" fill="#B77878"/>
<path d="M110.619 65.0355C111.38 65.2945 114.035 64.8336 114.677 64.2177L114.437 64.6319C113.818 65.1224 111.59 65.6373 110.82 65.641C110.619 65.4392 110.84 65.641 110.619 65.0355Z" fill="#B77878"/>
<path d="M121.788 71.334L122.693 71.5558C123.614 71.7798 124.464 72.2191 125.172 72.8359C125.88 73.4527 126.424 74.2286 126.756 75.0967L129.883 83.2555C127.38 85.9903 122.706 85.3235 122.706 85.3235L121.65 81.1572C118.238 75.7327 121.113 72.2567 121.788 71.334Z" fill="white"/>
<path d="M107.241 77.3725L106.645 77.4312C106.093 71.7763 106.241 68.5189 108.814 68.2653L108.689 68.5906C106.91 68.766 106.652 71.341 107.241 77.3725Z" fill="#3F3D56"/>
<path d="M115.365 76.7941L115.812 76.9644C117.632 72.1378 118.368 69.4864 116.435 68.751L116.137 68.8861C117.474 69.3947 117.306 71.6461 115.365 76.7941Z" fill="#3F3D56"/>
<path d="M114.941 78.621C115.538 78.8483 116.206 78.546 116.432 77.9458C116.659 77.3456 116.358 76.6747 115.76 76.4474C115.163 76.2201 114.495 76.5224 114.268 77.1226C114.042 77.7228 114.343 78.3937 114.941 78.621Z" fill="#3F3D56"/>
<path d="M105.501 81.0985L104.914 81.1563C104.699 78.9607 105.71 77.0576 107.168 76.914L107.227 77.5266C106.094 77.6383 105.319 79.2406 105.501 81.0985Z" fill="#3F3D56"/>
<path d="M110.2 80.6355L109.612 80.6934C109.431 78.8356 108.361 77.4151 107.228 77.5268L107.168 76.9142C108.625 76.7706 109.985 78.44 110.2 80.6355Z" fill="#3F3D56"/>
<path d="M110.132 81.6472C110.588 81.6022 110.921 81.1944 110.876 80.7362C110.832 80.2781 110.426 79.9431 109.969 79.9881C109.513 80.033 109.18 80.4409 109.225 80.899C109.269 81.3572 109.675 81.6921 110.132 81.6472Z" fill="#3F3D56"/>
<path d="M105.176 82.1356C105.632 82.0907 105.966 81.6828 105.921 81.2247C105.876 80.7665 105.47 80.4316 105.014 80.4765C104.558 80.5215 104.225 80.9293 104.269 81.3875C104.314 81.8456 104.72 82.1806 105.176 82.1356Z" fill="#3F3D56"/>
<path d="M43.7651 19.9967C43.4918 19.04 41.5626 17.2275 39.6415 17.2638C39.4577 17.2705 39.276 17.306 39.103 17.3687L1.80602 38.6873C1.26125 39.0041 0.808233 39.4583 0.491745 40.0049C0.175258 40.5514 0.00626292 41.1715 0.00146484 41.8038V122.852C0.00146484 124.914 2.3687 126.888 4.59526 125.936C4.64382 125.92 4.69089 125.899 4.73592 125.875L42.0449 104.524C42.5919 104.211 43.0466 103.758 43.3629 103.212C43.6791 102.665 43.8456 102.044 43.8455 101.412V20.3883C43.8485 20.2534 43.821 20.1195 43.7651 19.9967Z" fill="#37474F"/>
<path d="M5.20533 50.3695C5.20467 50.053 5.28767 49.7419 5.44583 49.4682C5.604 49.1944 5.83167 48.9677 6.1056 48.8112L40.7419 29.0307C40.8777 28.9529 41.0314 28.9123 41.1877 28.913C41.3439 28.9136 41.4973 28.9555 41.6324 29.0344C41.7675 29.1133 41.8796 29.2264 41.9575 29.3625C42.0354 29.4986 42.0764 29.6528 42.0762 29.8098V95.1502C42.0757 95.4664 41.9921 95.777 41.8341 96.0505C41.6761 96.3241 41.4491 96.551 41.176 96.7084L6.53564 116.533C6.4 116.61 6.24671 116.65 6.09102 116.649C5.93532 116.648 5.78264 116.606 5.64813 116.527C5.51363 116.448 5.40199 116.335 5.3243 116.2C5.24662 116.064 5.20561 115.911 5.20533 115.754V50.3695Z" fill="#FFD5A5"/>
<path d="M0.000467668 41.8034V122.851C0.000467668 124.914 2.3677 126.888 4.59426 125.935C4.45924 125.987 4.31364 126.005 4.17011 125.988C4.02658 125.97 3.88946 125.918 3.77064 125.835C3.65183 125.752 3.55493 125.642 3.48834 125.513C3.42175 125.384 3.38749 125.241 3.38854 125.096V44.0438C3.38888 43.3376 3.59877 42.6476 3.9914 42.0617L0.338068 40.229C0.107161 40.721 -0.00833225 41.2596 0.000467668 41.8034Z" fill="#263238"/>
<path d="M39.6459 17.2632C39.462 17.27 39.2804 17.3054 39.1073 17.3682L1.80639 38.6868C1.18488 39.0445 0.684937 39.5818 0.371582 40.2288L4.02491 42.0616C4.33226 41.5933 4.74539 41.2047 5.23063 40.9272L42.5356 19.6086C42.6423 19.5489 42.7601 19.512 42.8817 19.5001C43.0033 19.4882 43.126 19.5016 43.2421 19.5395C43.3583 19.5774 43.4655 19.6389 43.5569 19.7203C43.6483 19.8016 43.722 19.901 43.7735 20.0123C43.4962 19.0394 41.567 17.2269 39.6459 17.2632Z" fill="#455A64"/>
<path d="M28.2385 32.9947C28.4998 32.8413 28.7168 32.9584 28.7168 33.2611C28.705 33.4238 28.6556 33.5814 28.5726 33.7216C28.4896 33.8617 28.3752 33.9805 28.2385 34.0685L20.9198 38.3153C20.6586 38.4646 20.4496 38.3395 20.4456 38.0367C20.456 37.8742 20.5043 37.7164 20.5867 37.5762C20.6691 37.4359 20.7832 37.3171 20.9198 37.2293L28.2385 32.9947Z" fill="#263238"/>
<path d="M19.0391 38.3275C19.3003 38.1741 19.5133 38.2952 19.5133 38.5979C19.5018 38.7597 19.4534 38.9167 19.3719 39.0567C19.2903 39.1967 19.1778 39.3159 19.0431 39.4053C18.7818 39.5547 18.5648 39.4336 18.5608 39.1308C18.5741 38.9691 18.6241 38.8126 18.707 38.6733C18.7899 38.5341 18.9035 38.4158 19.0391 38.3275Z" fill="#263238"/>
<path d="M23.7252 32.3773C24.2477 32.0705 24.6697 32.3127 24.6697 32.9182C24.6538 33.2484 24.5602 33.5702 24.3968 33.8571C24.2333 34.1441 24.0046 34.3881 23.7292 34.5693C23.2068 34.872 22.7727 34.6258 22.7727 34.0203C22.7903 33.6901 22.8858 33.3689 23.0515 33.0833C23.2171 32.7976 23.448 32.5556 23.7252 32.3773Z" fill="#263238"/>
<path d="M23.7251 108.674C24.7942 108.056 25.6543 108.548 25.6543 109.78C25.6216 110.452 25.4309 111.108 25.0977 111.692C24.7645 112.277 24.2983 112.774 23.7372 113.142C22.6721 113.76 21.788 113.255 21.7839 112.024C21.8237 111.352 22.02 110.699 22.3572 110.117C22.6944 109.535 23.163 109.04 23.7251 108.674Z" fill="#263238"/>
<path d="M35.6699 97.9719H12.074C12.074 97.9719 12.3593 103.781 12.074 113.364L35.7865 99.7804C35.7222 98.642 35.6699 97.9719 35.6699 97.9719Z" fill="#07ACAC"/>
<path d="M46.7184 73.3834L49.3348 75.7409L56.5691 67.9377C57.27 67.1807 57.7643 66.2546 58.0039 65.2492L58.4058 63.5174C58.5144 63.0654 58.6877 62.6316 58.9202 62.2296C59.2739 61.62 59.6517 61.0186 59.9773 60.3969C60.0568 60.1978 60.1976 60.0295 60.3792 59.9165C60.4963 59.8732 60.6236 59.8662 60.7447 59.8964C60.8658 59.9266 60.9751 59.9927 61.0584 60.086C61.2178 60.281 61.2995 60.5284 61.2875 60.7804C61.2733 61.0298 61.2288 61.2766 61.1549 61.5151L60.8534 62.6373C60.8053 62.7901 60.7809 62.9494 60.7811 63.1096C60.7825 63.189 60.8025 63.2669 60.8395 63.3371C60.8765 63.4072 60.9295 63.4676 60.9941 63.5133C61.3036 63.7031 65.7728 59.537 66.5203 57.6276C66.7213 57.1149 68.3208 57.4137 67.3523 59.4967C67.5219 59.6405 67.6562 59.8216 67.7447 60.0261C67.8332 60.2305 67.8736 60.4527 67.8627 60.6754C67.8948 61.2406 67.923 61.8098 67.9551 62.3749C68.0083 62.9324 67.9867 63.4945 67.8908 64.0462C67.6739 64.8544 67.2594 65.5954 66.6851 66.2019C65.6787 67.3316 64.4368 68.2247 63.0478 68.8177C62.0007 69.2785 61.1067 70.0308 60.4716 70.9855L53.5427 81.4813C53.1611 82.0599 52.6633 82.552 52.0814 82.9262C51.4995 83.3005 50.8462 83.5485 50.1633 83.6545C49.4804 83.7605 48.783 83.7222 48.1158 83.5419C47.4485 83.3616 46.8261 83.0434 46.2883 82.6076L42.627 79.6324L46.7184 73.3834Z" fill="#7D4A4A"/>
<path d="M34.1707 63.6023C37.7275 63.3964 38.6559 65.2655 40.9066 67.3687C43.1573 69.4719 47.3773 73.5612 47.3773 73.5612C47.2142 74.979 46.6973 76.3324 45.8745 77.4961C45.0518 78.6598 43.9499 79.596 42.671 80.2179L34.8418 74.417L34.1707 63.6023Z" fill="#129F9F"/>
<path d="M12.2264 99.6392C12.2264 99.6392 25.4894 104.512 36.2484 98.4281C36.2484 98.4281 35.5933 90.6774 35.4004 86.1642C35.2075 81.651 36.7588 72.9233 37.008 70.59C37.2572 68.2567 36.9276 64.2037 34.1947 63.5901C29.1065 62.5083 19.5411 63.5901 19.5411 63.5901L13.8341 69.928C11.4065 82.3211 11.8165 95.3197 12.2264 99.6392Z" fill="#07ACAC"/>
<path d="M38.3585 53.4859C39.4493 52.6972 40.2076 51.5278 40.4849 50.2069C40.7622 48.886 40.5385 47.5086 39.8576 46.3447C40.4695 46.0725 39.9533 45.3802 40.2595 44.7825C40.3897 44.4946 39.2996 44.5594 39.2453 44.248C39.1911 43.9365 39.4745 43.7978 39.2547 43.5714C37.7382 43.888 40.4698 42.874 40.1612 42.8116C39.8526 42.7493 39.5325 42.7819 39.2427 42.9053C39.4039 42.4384 39.4049 41.9306 39.2453 41.4631C39.0858 40.9956 38.775 40.5952 38.3625 40.3258C37.9438 40.0935 37.458 40.0141 36.9876 40.1009C36.5173 40.1877 36.0913 40.4355 35.7823 40.8021C35.7931 40.4979 35.7053 40.1985 35.532 39.9488C35.3588 39.6991 35.1095 39.5126 34.8217 39.4175C34.2296 39.2571 33.6016 39.2953 33.0332 39.5265C32.4585 39.7283 31.9159 40.0149 31.3331 40.1966C30.336 40.4529 29.3119 40.5884 28.2827 40.6003C27.2488 40.6167 26.2356 40.8943 25.3367 41.4076C24.4766 41.9688 23.7291 43.2767 24.1792 44.407C24.0352 44.2194 23.8534 44.0645 23.6456 43.9525C23.4378 43.8405 23.2087 43.7739 22.9735 43.7571C22.738 43.7496 22.5036 43.7934 22.2865 43.8854C22.0694 43.9774 22.4456 44.0734 22.2865 44.248C22.9296 44.6517 22.9775 45.1215 23.6206 45.501C22.9735 45.2103 22.0129 45.6665 21.6633 46.2882C21.3627 46.9355 21.2433 47.6528 21.3176 48.3631C21.3995 51.059 21.872 53.7285 22.7203 56.2874C23.1584 57.6115 23.7934 59.0163 25.0433 59.6299L38.3585 53.4859Z" fill="#263238"/>
<path d="M31.5541 59.864L31.2728 63.0329C31.2598 63.2783 31.426 63.3443 31.5541 63.5537C31.7287 63.8848 31.6913 64.44 31.6416 64.8114C31.5919 65.1827 31.5541 64.9665 31.2728 65.8355C30.9006 66.985 30.9006 66.7832 30.4987 67.5905C29.092 67.1868 28.2882 66.7832 27.2834 66.1776C26.3829 65.8297 25.2165 64.952 24.5368 64.2641C24.4018 64.1187 24.2967 63.9479 24.2277 63.7616C24.1588 63.5752 24.1272 63.3769 24.1349 63.1782L24.3399 55.1449L31.5541 59.864Z" fill="#7D4A4A"/>
<path d="M24.9871 55.5568L31.5623 59.8641L31.3131 62.6899C29.7819 62.3306 28.2466 61.8825 27.0368 60.9015C26.2709 60.2592 25.6808 59.4313 25.3221 58.4961C24.9635 57.5608 24.8482 56.5492 24.9871 55.5568Z" fill="#663333"/>
<path d="M38.7203 46.9545C39.2021 50.6298 38.9618 54.3644 38.0129 57.9468C37.8318 58.7367 37.5395 59.4965 37.1448 60.2034C36.7478 60.916 36.1234 61.4734 35.3724 61.7859C34.444 62.133 33.4111 61.9635 32.4344 61.7859C30.65 61.467 28.8173 61.1359 27.2699 60.1913C25.7226 59.2467 24.4887 57.5472 24.6415 55.7508C24.2002 56.0254 23.6973 56.1841 23.179 56.2123C22.6607 56.2405 22.1436 56.1374 21.6754 55.9123C21.2201 55.6586 20.8348 55.2952 20.5542 54.8548C20.2736 54.4143 20.1064 53.9107 20.0678 53.3892C19.9954 52.376 20.5822 51.2416 21.5749 51.0398C21.8824 50.9959 22.1957 51.0186 22.4938 51.1063C22.7919 51.1941 23.0678 51.3448 23.3031 51.5484C23.7698 51.9595 24.1758 52.4352 24.5088 52.9613C24.6607 53.2157 24.8649 53.4345 25.1077 53.6032C25.2291 53.6883 25.3736 53.7339 25.5216 53.7339C25.6697 53.7339 25.8142 53.6883 25.9356 53.6032C26.039 53.4793 26.1138 53.334 26.1548 53.1777C26.1958 53.0214 26.2019 52.8579 26.1727 52.6989L26.0682 50.3979C26.0616 50.2214 26.1058 50.0468 26.1956 49.8949C26.2855 49.7431 26.4171 49.6206 26.5746 49.5421C27.0474 49.2834 27.4114 48.862 27.5995 48.3553C27.7664 47.9115 27.864 47.4444 27.8889 46.9706C27.8963 46.882 27.9244 46.7962 27.9708 46.7204C28.0172 46.6446 28.0807 46.5808 28.1561 46.534C28.2316 46.4873 28.3169 46.459 28.4052 46.4514C28.4935 46.4438 28.5823 46.4571 28.6645 46.4903C31.719 47.7175 35.5532 47.774 38.7203 46.9545Z" fill="#7D4A4A"/>
<path d="M33.6844 52.5332L35.7422 56.017L33.2905 56.4772L33.6844 52.5332Z" fill="#663333"/>
<path d="M40.2972 41.4967C40.3629 43.1375 36.3225 44.6332 31.2726 44.8374C26.2228 45.0416 22.0757 43.877 22.01 42.2362C21.9442 40.5954 25.9846 39.0997 31.0345 38.8955C36.0843 38.6912 40.2314 39.8559 40.2972 41.4967Z" fill="#06ABAB"/>
<path d="M21.9723 42.1589L40.2591 41.7551L40.661 45.5901L25.7905 45.9938L23.58 46.8012L21.3695 48.6177L21.8359 44.3647L21.9723 42.1589Z" fill="#06ABAB"/>
<path d="M30.9231 57.6802L32.788 58.5885C32.6295 58.8031 32.4049 58.9591 32.149 59.0321C31.8931 59.1051 31.6204 59.0911 31.3733 58.9922C31.1599 58.8585 30.9987 58.6552 30.9168 58.4163C30.8349 58.1775 30.8371 57.9176 30.9231 57.6802Z" fill="#663333"/>
<path opacity="0.4" d="M30.9231 57.6802L32.788 58.5885C32.6295 58.8031 32.4049 58.9591 32.149 59.0321C31.8931 59.1051 31.6204 59.0911 31.3733 58.9922C31.1599 58.8585 30.9987 58.6552 30.9168 58.4163C30.8349 58.1775 30.8371 57.9176 30.9231 57.6802Z" fill="black"/>
<path d="M32.0205 59.0528C31.8037 59.0987 31.5781 59.0776 31.3734 58.9923C31.2022 58.8965 31.0633 58.7516 30.9745 58.5762C30.8857 58.4007 30.8511 58.2026 30.8751 58.0073C31.1629 58.0013 31.4421 58.1064 31.6551 58.3008C31.8682 58.4953 31.999 58.7644 32.0205 59.0528Z" fill="#663333"/>
<path d="M30.1315 52.6543C30.118 52.7932 30.1457 52.9331 30.2112 53.0562C30.2767 53.1793 30.377 53.2802 30.4995 53.3461C30.622 53.412 30.7613 53.4399 30.8996 53.4264C31.0379 53.4129 31.1691 53.3585 31.2767 53.2702C31.3843 53.1818 31.4634 53.0634 31.5041 52.9299C31.5447 52.7964 31.5451 52.6538 31.5051 52.5202C31.4652 52.3865 31.3867 52.2676 31.2795 52.1787C31.1724 52.0898 31.0415 52.0348 30.9032 52.0205C30.8111 52.011 30.718 52.0199 30.6293 52.0467C30.5406 52.0734 30.458 52.1175 30.3863 52.1764C30.3146 52.2353 30.2552 52.3078 30.2115 52.3898C30.1677 52.4718 30.1406 52.5617 30.1315 52.6543Z" fill="#263238"/>
<path d="M36.0436 53.0579C36.0301 53.1969 36.0578 53.3367 36.1233 53.4598C36.1888 53.583 36.2891 53.6838 36.4116 53.7497C36.5342 53.8156 36.6734 53.8436 36.8117 53.8301C36.95 53.8165 37.0813 53.7622 37.1888 53.6738C37.2964 53.5854 37.3755 53.467 37.4162 53.3336C37.4568 53.2001 37.4572 53.0575 37.4173 52.9238C37.3773 52.7901 37.2988 52.6713 37.1917 52.5824C37.0845 52.4934 36.9536 52.4384 36.8153 52.4241C36.7232 52.4147 36.6301 52.4236 36.5414 52.4503C36.4527 52.4771 36.3701 52.5211 36.2984 52.58C36.2267 52.6389 36.1673 52.7115 36.1236 52.7935C36.0799 52.8755 36.0527 52.9654 36.0436 53.0579Z" fill="#263238"/>
<path d="M37.0081 50.3049L38.4549 51.5443C38.5409 51.3571 38.5684 51.1482 38.534 50.945C38.4996 50.7419 38.4048 50.5539 38.262 50.4059C38.0825 50.2747 37.8704 50.1959 37.6492 50.1781C37.4279 50.1603 37.2061 50.2042 37.0081 50.3049Z" fill="#263238"/>
<path d="M31.0157 49.6107L29.3518 50.5351C29.3023 50.3363 29.3142 50.1271 29.386 49.9353C29.4578 49.7435 29.5861 49.5782 29.7537 49.4613C29.957 49.3658 30.1829 49.3291 30.4058 49.3555C30.6288 49.3819 30.84 49.4703 31.0157 49.6107Z" fill="#263238"/>
<path d="M25.9232 80.218L29.4962 88.4127L40.8822 97.8186C41.4701 98.3158 42.2201 98.5774 42.9882 98.5533C43.8349 98.4957 44.6855 98.5445 45.5202 98.6986C46.1673 98.848 46.7983 99.0619 47.4453 99.2113C47.9006 99.3233 48.3673 99.3815 48.8359 99.3849C48.9311 99.3802 49.0259 99.4 49.1114 99.4425C49.1968 99.4849 49.2699 99.5486 49.3239 99.6275C49.3779 99.7064 49.4109 99.7979 49.4197 99.8932C49.4286 99.9885 49.413 100.085 49.3745 100.172C49.305 100.314 49.2096 100.441 49.0932 100.548C48.7462 100.821 48.327 100.987 47.8874 101.024C47.1967 101.117 46.4949 101.08 45.8176 100.915C46.4165 101.698 47.4252 102.19 48.3657 102.505C49.3062 102.82 50.2707 102.994 51.1791 103.313C51.5351 103.406 51.8529 103.609 52.0874 103.894C52.1984 104.039 52.2488 104.222 52.2278 104.403C52.2067 104.585 52.116 104.751 51.9748 104.867C51.5729 105.117 51.0344 104.75 50.6003 104.923C50.6546 105.175 50.6546 105.435 50.6003 105.686C50.5268 105.942 50.3624 106.162 50.1381 106.304C50.0261 106.374 49.8978 106.413 49.7661 106.418C49.6343 106.423 49.5035 106.394 49.3866 106.332C49.1875 106.637 48.9301 106.899 48.6292 107.103C48.3284 107.307 47.9901 107.448 47.6342 107.519C46.9231 107.657 46.1914 107.648 45.484 107.491C42.534 106.946 40.6612 104.366 38.3542 102.445C38.0206 102.17 29.0742 97.2211 25.027 94.9888C23.7575 94.2879 22.7417 93.2011 22.1252 91.8844L17.7686 82.5997L25.9232 80.218Z" fill="#7D4A4A"/>
<path d="M19.5171 63.6022C23.3473 68.1477 24.7781 75.955 26.7514 80.9607C24.545 85.1671 18.3797 84.7553 18.3797 84.7553C12.745 72.9758 10.3617 64.0786 19.5171 63.6022Z" fill="#129F9F"/>
<path d="M49.335 75.741C48.5753 77.5899 49.1862 80.0564 49.1862 80.0564C48.6924 79.3287 48.3774 78.4938 48.267 77.6202C48.1566 76.7465 48.254 75.859 48.5512 75.0305L49.335 75.741Z" fill="#663333"/>
<path d="M61.3881 64.0584C61.7121 64.6725 61.7994 65.3851 61.6333 66.0598C61.4672 66.7345 61.0594 67.3241 60.4878 67.7158C60.8967 67.69 61.2884 67.5411 61.6118 67.2883C61.9351 67.0355 62.1751 66.6907 62.3004 66.2989C62.3774 65.8769 62.3324 65.4416 62.1707 65.0445C62.009 64.6474 61.7374 64.3052 61.3881 64.0584Z" fill="#663333"/>
</svg>
