<svg id="design-3" xmlns="http://www.w3.org/2000/svg" xmlns:xlink="http://www.w3.org/1999/xlink" viewBox="0 8 603 385" shape-rendering="geometricPrecision" text-rendering="geometricPrecision"><ellipse id="design-3-ellipse1" rx="132.500000" ry="301.500000" transform="matrix(0 -1 1 0 301.50000000000000 256.50000000000000)" fill="rgb(255,246,236)" stroke="none" stroke-width="1"/><path id="design-3-shadow-phone" d="M74.781200,268.883000L179.513000,327.107000C180.851000,327.761000,182.329000,328.101000,183.829000,328.101000C185.329000,328.101000,186.808000,327.761000,188.145000,327.107000L385.369000,217.458000C387.750000,216.132000,387.750000,213.982000,385.369000,212.657000L280.637000,154.433000C279.300000,153.779000,277.821000,153.438000,276.321000,153.438000C274.821000,153.438000,273.343000,153.779000,272.005000,154.433000L74.818400,264.091000C72.400100,265.407000,72.400100,267.557000,74.781200,268.883000Z" fill="rgb(224,224,224)" stroke="none" stroke-width="1"/><path id="design-3-shadow-m-lleimer" d="M474.102000,268.174000C493.375000,268.174000,509,259.488000,509,248.772000C509,238.057000,493.375000,229.370000,474.102000,229.370000C454.828000,229.370000,439.203000,238.057000,439.203000,248.772000C439.203000,259.488000,454.828000,268.174000,474.102000,268.174000Z" fill="rgb(224,224,224)" stroke="none" stroke-width="1"/><g id="design-3-phone"><path id="design-3-path1" d="M83.692500,243.476000C82.232200,244.569000,82.390300,246.163000,84.166900,247.113000L181.728000,301.342000C182.829000,301.874000,184.044000,302.152000,185.276000,302.152000C186.508000,302.152000,187.724000,301.874000,188.825000,301.342000L375.138000,197.712000C376.943000,196.709000,377.092000,195.132000,375.557000,194.040000C376.473000,194.707000,377.227000,195.558000,377.767000,196.534000C378.306000,197.510000,378.619000,198.588000,378.682000,199.692000L378.682000,204.171000C378.634000,205.363000,378.293000,206.527000,377.687000,207.567000C377.080000,208.607000,376.226000,209.494000,375.194000,210.154000L188.787000,313.739000C187.688000,314.278000,186.472000,314.559000,185.239000,314.559000C184.006000,314.559000,182.790000,314.278000,181.691000,313.739000L84.176200,259.528000C83.141100,258.882000,82.280100,258.008000,81.664000,256.978000C81.047900,255.949000,80.694400,254.794000,80.632400,253.607000L80.632400,249.084000C80.696400,247.993000,81.002700,246.927000,81.530600,245.960000C82.058500,244.993000,82.795700,244.146000,83.692500,243.476000Z" fill="rgb(38,50,56)" stroke="none" stroke-width="1"/><path id="design-3-path2" d="M84.166900,247.112000L181.728000,301.341000C182.829000,301.874000,184.044000,302.151000,185.276000,302.151000C186.509000,302.151000,187.724000,301.874000,188.825000,301.341000L375.138000,197.712000C377.092000,196.628000,377.101000,194.854000,375.138000,193.770000L277.624000,139.550000C276.523000,139.016000,275.308000,138.737000,274.076000,138.737000C272.843000,138.737000,271.628000,139.016000,270.527000,139.550000L84.166900,243.171000C82.204400,244.264000,82.204400,246.029000,84.166900,247.112000ZM255.533000,153.569000C257.208000,152.673000,258.956000,153.175000,260.631000,154.115000L349.299000,203.382000C350.974000,204.278000,350.983000,205.827000,349.299000,206.759000L204.200000,287.439000C203.256000,287.896000,202.214000,288.134000,201.158000,288.134000C200.102000,288.134000,199.060000,287.896000,198.117000,287.439000L109.457000,238.164000C107.774000,237.268000,107.774000,235.718000,109.457000,234.787000L255.533000,153.569000Z" fill="rgb(69,90,100)" stroke="none" stroke-width="1"/><path id="design-3-path3" d="M375.557000,194.030000C376.473000,194.697000,377.227000,195.549000,377.767000,196.525000C378.306000,197.501000,378.619000,198.578000,378.682000,199.683000L378.682000,204.161000C378.634000,205.355000,378.293000,206.520000,377.687000,207.562000C377.080000,208.603000,376.226000,209.492000,375.194000,210.154000L188.787000,313.739000C187.694000,314.297000,186.472000,314.580000,185.234000,314.563000L185.234000,302.148000C186.471000,302.170000,187.694000,301.889000,188.787000,301.333000L375.138000,197.712000C376.943000,196.718000,377.054000,195.132000,375.557000,194.030000Z" fill="rgb(55,71,79)" stroke="none" stroke-width="1"/><path id="design-3-path4" d="M317.024000,171.986000C315.713000,171.251000,315.713000,170.069000,317.024000,169.343000C317.762000,168.981000,318.578000,168.793000,319.405000,168.793000C320.233000,168.793000,321.049000,168.981000,321.786000,169.343000C323.098000,170.069000,323.098000,171.251000,321.786000,171.986000C321.048000,172.343000,320.232000,172.530000,319.405000,172.530000C318.578000,172.530000,317.763000,172.343000,317.024000,171.986000Z" fill="rgb(0,0,0)" stroke="none" stroke-width="1"/><path id="design-3-path5" d="M142.142000,272.857000C140.111000,272.895000,138.103000,272.432000,136.310000,271.513000C134.663000,270.617000,133.761000,269.354000,133.761000,268.019000C133.761000,266.685000,134.691000,265.431000,136.310000,264.517000C138.117000,263.633000,140.115000,263.173000,142.142000,263.173000C144.168000,263.173000,146.167000,263.633000,147.974000,264.517000C149.620000,265.413000,150.522000,266.676000,150.522000,268.019000C150.522000,269.363000,149.592000,270.599000,147.974000,271.513000C146.180000,272.432000,144.173000,272.895000,142.142000,272.857000ZM142.142000,264.060000C140.274000,264.026000,138.427000,264.448000,136.775000,265.287000C135.426000,266.040000,134.691000,267.007000,134.691000,268.019000C134.691000,269.032000,135.426000,269.990000,136.775000,270.707000C138.439000,271.517000,140.277000,271.940000,142.142000,271.940000C144.006000,271.940000,145.845000,271.517000,147.509000,270.707000C148.848000,269.954000,149.592000,268.987000,149.592000,268.019000C149.592000,267.052000,148.848000,266.040000,147.509000,265.287000C145.854000,264.455000,144.008000,264.039000,142.142000,264.078000L142.142000,264.060000Z" fill="rgb(230,230,230)" stroke="none" stroke-width="1"/><path id="design-3-path6" d="M319.387000,180.755000L301.026000,170.553000C299.938000,169.943000,299.882000,168.985000,300.905000,168.412000C301.506000,168.132000,302.167000,167.992000,302.835000,168.005000C303.502000,168.017000,304.157000,168.181000,304.746000,168.483000L323.107000,178.686000C324.205000,179.295000,324.251000,180.254000,323.228000,180.827000C322.627000,181.107000,321.966000,181.246000,321.298000,181.234000C320.631000,181.222000,319.976000,181.057000,319.387000,180.755000Z" fill="rgb(0,0,0)" stroke="none" stroke-width="1"/><path id="design-3-path7" d="M255.533000,153.569000C257.208000,152.673000,258.956000,153.175000,260.631000,154.116000L349.300000,203.382000C350.974000,204.278000,350.983000,205.827000,349.300000,206.759000L204.200000,287.439000C203.256000,287.896000,202.215000,288.134000,201.158000,288.134000C200.102000,288.134000,199.060000,287.896000,198.117000,287.439000L109.457000,238.164000C107.774000,237.268000,107.774000,235.719000,109.457000,234.787000L255.533000,153.569000Z" fill="rgb(255,213,165)" stroke="none" stroke-width="1"/><path id="design-3-path8" d="M277,163.500000C275.500000,163,260.500000,154.500000,257.500000,153L162.500000,205.500000L236.030000,246.068000C236.653000,246.352000,256.469000,258,257.166000,258L350,204.500000L277,163.500000Z" fill="rgb(255,213,165)" stroke="none" stroke-width="1"/><path id="design-3-path9" d="M108.500000,237L162.500000,205.500000L257,258L201.500000,287.500000L108.500000,237Z" fill="rgb(255,213,165)" stroke="none" stroke-width="1"/></g><g id="design-3-briefkasten" transform="matrix(0.10546356836872 0 0 0.10546356836872 188.68668501968511 206.42381286584487)" opacity="0"><path id="design-3-path10" d="M243.753000,70.010200L232.378000,63.686200C231.866000,63.408500,231.503000,63.336800,231.299000,63.444300L229.913000,64.223600C229.671000,64.349000,229.680000,64.752100,229.987000,65.361200L232.778000,70.879000L230.713000,72.670600C230.494000,72.833200,230.322000,73.047500,230.214000,73.292700C230.106000,73.537900,230.066000,73.805800,230.096000,74.070500C230.127000,74.335200,230.228000,74.587800,230.390000,74.803900C230.552000,75.019900,230.769000,75.192200,231.020000,75.304100L242.386000,81.628100L243.781000,80.857700L243.753000,70.010200Z" fill="rgb(255,151,33)" stroke="none" stroke-width="1"/><path id="design-3-path11" d="M243.753000,70.010200L232.378000,63.686200C231.866000,63.408500,231.503000,63.336800,231.299000,63.444300L229.913000,64.223600C229.671000,64.349000,229.680000,64.752100,229.987000,65.361200L232.778000,70.879000L230.713000,72.670600C230.494000,72.833200,230.322000,73.047500,230.214000,73.292700C230.106000,73.537900,230.066000,73.805800,230.096000,74.070500C230.127000,74.335200,230.228000,74.587800,230.390000,74.803900C230.552000,75.019900,230.769000,75.192200,231.020000,75.304100L242.386000,81.628100L243.781000,80.857700L243.753000,70.010200Z" opacity="0.5" fill="rgb(255,255,255)" stroke="none" stroke-width="1"/><path id="design-3-path12" d="M230.992000,64.465300C229.876000,63.838300,229.429000,64.241400,229.987000,65.361000L232.778000,70.878900L230.713000,72.670400C230.494000,72.833100,230.322000,73.047300,230.214000,73.292600C230.106000,73.537800,230.066000,73.805700,230.097000,74.070400C230.127000,74.335100,230.229000,74.587600,230.390000,74.803700C230.552000,75.019800,230.769000,75.192100,231.020000,75.303900L242.386000,81.627900L242.386000,70.780300L230.992000,64.465300Z" fill="rgb(255,151,33)" stroke="none" stroke-width="1"/><path id="design-3-path13" d="M243.697000,104.864000C243.343000,104.862000,243.004000,104.725000,242.753000,104.484000C242.502000,104.242000,242.360000,103.916000,242.358000,103.574000L242.358000,67.188700C242.358000,66.846600,242.499000,66.518500,242.750000,66.276600C243.001000,66.034700,243.342000,65.898800,243.697000,65.898800C244.053000,65.898800,244.393000,66.034700,244.644000,66.276600C244.896000,66.518500,245.037000,66.846600,245.037000,67.188700L245.037000,103.574000C245.034000,103.916000,244.892000,104.242000,244.642000,104.484000C244.391000,104.725000,244.052000,104.862000,243.697000,104.864000Z" fill="rgb(190,190,190)" stroke="none" stroke-width="1"/><path id="design-3-path14" d="M189.871000,232.831000L189.871000,230.556000L190.448000,230.556000C191.331000,229.028000,192.660000,227.782000,194.270000,226.973000C200.149000,223.703000,209.673000,223.703000,215.552000,226.973000C217.162000,227.782000,218.491000,229.028000,219.374000,230.556000L219.960000,230.556000L219.960000,232.759000C219.960000,234.936000,218.547000,237.113000,215.561000,238.779000C209.683000,242.039000,200.158000,242.039000,194.280000,238.779000C191.322000,237.140000,189.852000,234.981000,189.871000,232.831000Z" fill="rgb(131,131,131)" stroke="none" stroke-width="1"/><path id="design-3-path15" d="M204.911000,238.922000C213.223000,238.922000,219.961000,235.176000,219.961000,230.556000C219.961000,225.935000,213.223000,222.189000,204.911000,222.189000C196.600000,222.189000,189.862000,225.935000,189.862000,230.556000C189.862000,235.176000,196.600000,238.922000,204.911000,238.922000Z" fill="rgb(170,170,170)" stroke="none" stroke-width="1"/><path id="design-3-path16" d="M208.799000,117.969000L208.799000,229.544000C208.767000,229.872000,208.646000,230.186000,208.446000,230.453000C208.247000,230.721000,207.977000,230.933000,207.664000,231.067000C206.816000,231.482000,205.877000,231.698000,204.925000,231.698000C203.973000,231.698000,203.035000,231.482000,202.186000,231.067000C201.873000,230.933000,201.603000,230.721000,201.404000,230.453000C201.205000,230.186000,201.083000,229.872000,201.051000,229.544000L201.051000,117.969000L208.799000,117.969000Z" fill="rgb(198,198,198)" stroke="none" stroke-width="1"/><path id="design-3-path17" d="M201.042000,127.383000L201.042000,134.701000L208.790000,139.001000L208.790000,131.700000L201.042000,127.383000Z" fill="rgb(143,148,150)" stroke="none" stroke-width="1"/><path id="design-3-path18" d="M234.015000,113.723000L248.339000,121.695000C248.265000,121.805000,248.171000,121.899000,248.060000,121.973000L223.002000,135.902000C222.788000,136.018000,222.621000,135.902000,222.621000,135.687000L222.621000,118.300000C222.689000,114.955000,223.398000,111.651000,224.713000,108.555000L234.015000,113.723000Z" fill="rgb(55,71,79)" stroke="none" stroke-width="1"/><path id="design-3-path19" d="M248.450000,102.347000L248.450000,121.802000L224.723000,108.608000C224.744000,108.541000,224.769000,108.475000,224.797000,108.411000C227.346000,102.293000,231.634000,97.097600,236.284000,94.526800C237.896000,93.547100,239.747000,92.994100,241.651000,92.923400C245.846000,92.878600,248.450000,96.488500,248.450000,102.347000Z" fill="rgb(38,50,56)" stroke="none" stroke-width="1"/><path id="design-3-path20" d="M274.224000,143.479000L274.224000,141.760000L274.057000,141.760000L274.057000,142.001000C273.945000,141.519000,273.786000,141.048000,273.582000,140.595000C272.289000,138.075000,270.189000,136.021000,267.592000,134.737000L250.655000,125.287000C250.259000,125.090000,249.821000,124.988000,249.376000,124.988000C248.931000,124.988000,248.492000,125.090000,248.097000,125.287000L222.156000,139.699000C221.828000,139.450000,221.547000,139.146000,221.328000,138.804000L221.328000,140.595000C221.345000,140.748000,221.402000,140.895000,221.495000,141.020000C221.588000,141.146000,221.713000,141.246000,221.858000,141.312000L238.814000,150.717000C243.795000,153.287000,249.387000,154.560000,255.036000,154.408000C259.738000,154.454000,264.377000,153.367000,268.532000,151.246000C272.345000,149.132000,274.224000,146.337000,274.224000,143.479000Z" fill="rgb(192,192,192)" stroke="none" stroke-width="1"/><path id="design-3-path21" d="M273.582000,140.577000C272.289000,138.057000,270.189000,136.003000,267.592000,134.719000L250.655000,125.287000C250.259000,125.090000,249.821000,124.988000,249.376000,124.988000C248.931000,124.988000,248.492000,125.090000,248.097000,125.287000L222.156000,139.699000L238.814000,148.970000C243.795000,151.541000,249.387000,152.813000,255.036000,152.661000C259.738000,152.707000,264.377000,151.620000,268.532000,149.499000C271.955000,147.600000,273.824000,145.154000,274.168000,142.602000C274.073000,141.903000,273.876000,141.222000,273.582000,140.577000Z" fill="rgb(233,233,233)" stroke="none" stroke-width="1"/><path id="design-3-path22" d="M274.168000,142.602000C274.073000,141.904000,273.876000,141.222000,273.582000,140.577000C272.289000,138.057000,270.189000,136.004000,267.592000,134.719000L250.655000,125.287000C250.259000,125.091000,249.821000,124.988000,249.376000,124.988000C248.931000,124.988000,248.492000,125.091000,248.097000,125.287000L222.156000,139.700000L221.858000,139.538000C221.703000,139.490000,221.567000,139.396000,221.471000,139.268000C221.375000,139.141000,221.323000,138.988000,221.323000,138.831000C221.323000,138.673000,221.375000,138.520000,221.471000,138.393000C221.567000,138.266000,221.703000,138.171000,221.858000,138.123000L248.078000,123.540000C248.474000,123.344000,248.912000,123.241000,249.357000,123.241000C249.802000,123.241000,250.241000,123.344000,250.636000,123.540000L267.592000,132.964000C270.643000,134.665000,272.634000,136.708000,273.582000,138.831000C273.892000,139.515000,274.096000,140.239000,274.187000,140.981000C274.246000,141.520000,274.240000,142.064000,274.168000,142.602000Z" fill="rgb(160,160,160)" stroke="none" stroke-width="1"/><path id="design-3-path23" d="M222.425000,137.872000L248.646000,123.289000L248.069000,121.973000L223.011000,135.911000L222.425000,137.872000Z" fill="rgb(112,112,112)" stroke="none" stroke-width="1"/><path id="design-3-path24" d="M246.146000,101.146000C246.134000,100.937000,246.072000,100.733000,245.963000,100.551000C245.855000,100.369000,245.704000,100.214000,245.523000,100.098000L213.591000,82.353400C213.399000,82.256100,213.185000,82.205200,212.968000,82.205200C212.751000,82.205200,212.537000,82.256100,212.345000,82.353400L211.638000,82.738500C211.458000,82.853400,211.308000,83.007000,211.199000,83.187400C211.091000,83.367700,211.028000,83.569800,211.015000,83.777600L211.015000,107.354000C211.028000,107.562000,211.091000,107.764000,211.199000,107.944000C211.308000,108.124000,211.458000,108.278000,211.638000,108.393000L243.569000,126.138000C243.762000,126.235000,243.976000,126.286000,244.193000,126.286000C244.410000,126.286000,244.624000,126.235000,244.816000,126.138000L245.523000,125.753000C245.703000,125.637000,245.852000,125.483000,245.961000,125.303000C246.069000,125.123000,246.132000,124.921000,246.146000,124.714000L246.146000,101.146000Z" fill="rgb(255,151,33)" stroke="none" stroke-width="1"/><path id="design-3-path25" d="M246.005000,100.556000L244.238000,101.541000L211.246000,83.195900C211.351000,83.014500,211.502000,82.860700,211.683000,82.748100L212.390000,82.362900C212.582000,82.265600,212.796000,82.214800,213.013000,82.214800C213.230000,82.214800,213.444000,82.265600,213.636000,82.362900L245.558000,100.108000C245.743000,100.220000,245.896000,100.374000,246.005000,100.556000Z" opacity="0.35" fill="rgb(0,0,0)" stroke="none" stroke-width="1"/><path id="design-3-path26" d="M244.190000,101.531000L243.865000,101.719000C243.967000,101.762000,244.053000,101.833000,244.112000,101.925000C244.170000,102.016000,244.197000,102.123000,244.190000,102.230000L244.190000,125.797000C244.199000,125.874000,244.186000,125.952000,244.151000,126.021000C244.117000,126.091000,244.063000,126.150000,243.995000,126.191000C243.899000,126.227000,243.793000,126.227000,243.697000,126.191000L243.567000,126.138000L211.636000,108.384000C211.456000,108.269000,211.305000,108.115000,211.197000,107.935000C211.089000,107.755000,211.026000,107.553000,211.013000,107.345000L211.013000,83.786400C211.021000,83.574400,211.085000,83.367900,211.199000,83.186200L244.190000,101.531000Z" opacity="0.2" fill="rgb(0,0,0)" stroke="none" stroke-width="1"/><path id="design-3-path27" d="M244.190000,101.532000L229.401000,106.825000C228.890000,107.008000,228.330000,107.019000,227.812000,106.856000C227.293000,106.694000,226.847000,106.367000,226.546000,105.930000L224.174000,102.427000L211.078000,83.105900L223.681000,102.580000L210.994000,107.363000C211.009000,107.575000,211.076000,107.781000,211.189000,107.963000L223.718000,102.589000L226.509000,106.843000C226.813000,107.316000,227.285000,107.667000,227.837000,107.831000C228.389000,107.996000,228.984000,107.963000,229.513000,107.739000L231.475000,106.906000L244.004000,126.156000C244.072000,126.114000,244.126000,126.055000,244.161000,125.986000C244.195000,125.916000,244.209000,125.838000,244.200000,125.762000L244.200000,125.368000L231.531000,106.915000L244.190000,101.532000Z" opacity="0.2" fill="rgb(0,0,0)" stroke="none" stroke-width="1"/><path id="design-3-path28" d="M238.563000,105.311000C238.552000,105.103000,238.490000,104.900000,238.381000,104.720000C238.273000,104.539000,238.122000,104.386000,237.940000,104.272000L206.009000,86.518500C205.813000,86.426000,205.598000,86.377900,205.381000,86.377900C205.163000,86.377900,204.948000,86.426000,204.753000,86.518500L204.055000,86.912600C203.873000,87.025900,203.722000,87.179200,203.614000,87.359800C203.505000,87.540500,203.443000,87.743300,203.432000,87.951700L203.432000,111.519000C203.443000,111.727000,203.505000,111.930000,203.614000,112.111000C203.722000,112.291000,203.873000,112.445000,204.055000,112.558000L235.977000,130.312000C236.171000,130.405000,236.384000,130.453000,236.600000,130.453000C236.817000,130.453000,237.030000,130.405000,237.224000,130.312000L237.930000,129.918000C238.112000,129.804000,238.264000,129.651000,238.372000,129.471000C238.480000,129.290000,238.543000,129.087000,238.554000,128.879000L238.563000,105.311000Z" fill="rgb(255,151,33)" stroke="none" stroke-width="1"/><path id="design-3-path29" d="M238.406000,104.720000L236.630000,105.706000L203.638000,87.360700C203.747000,87.178600,203.900000,87.024900,204.085000,86.912800L204.791000,86.518700C204.985000,86.425700,205.198000,86.377200,205.415000,86.377200C205.631000,86.377200,205.844000,86.425700,206.038000,86.518700L237.960000,104.273000C238.146000,104.382000,238.300000,104.536000,238.406000,104.720000Z" opacity="0.35" fill="rgb(0,0,0)" stroke="none" stroke-width="1"/><path id="design-3-path30" d="M236.638000,105.706000L236.312000,105.894000C236.414000,105.936000,236.501000,106.008000,236.559000,106.099000C236.617000,106.191000,236.645000,106.297000,236.638000,106.404000L236.638000,129.972000C236.647000,130.048000,236.633000,130.126000,236.599000,130.196000C236.564000,130.265000,236.510000,130.324000,236.442000,130.366000C236.347000,130.402000,236.240000,130.402000,236.145000,130.366000L236.014000,130.312000L204.083000,112.558000C203.903000,112.443000,203.753000,112.290000,203.644000,112.109000C203.536000,111.929000,203.473000,111.727000,203.460000,111.519000L203.460000,87.960700C203.468000,87.748700,203.532000,87.542200,203.646000,87.360500L236.638000,105.706000Z" opacity="0.2" fill="rgb(0,0,0)" stroke="none" stroke-width="1"/><path id="design-3-path31" d="M236.628000,105.706000L221.821000,111.026000C221.310000,111.210000,220.749000,111.222000,220.230000,111.059000C219.712000,110.897000,219.265000,110.569000,218.965000,110.131000L216.593000,106.628000L203.525000,87.297800L216.147000,106.745000L203.460000,111.528000C203.468000,111.741000,203.535000,111.949000,203.655000,112.128000L216.184000,106.825000L218.974000,111.071000C219.281000,111.544000,219.754000,111.895000,220.308000,112.060000C220.861000,112.224000,221.458000,112.191000,221.988000,111.967000L223.951000,111.125000L236.479000,130.384000C236.545000,130.338000,236.596000,130.277000,236.629000,130.206000C236.662000,130.135000,236.674000,130.057000,236.665000,129.980000L236.665000,129.595000L224.016000,111.107000L236.628000,105.706000Z" opacity="0.2" fill="rgb(0,0,0)" stroke="none" stroke-width="1"/><path id="design-3-path32" d="M231.029000,109.513000C231.018000,109.305000,230.956000,109.102000,230.847000,108.922000C230.739000,108.741000,230.588000,108.588000,230.406000,108.474000L198.475000,90.702600C198.282000,90.607500,198.068000,90.557900,197.851000,90.557900C197.635000,90.557900,197.421000,90.607500,197.228000,90.702600L196.521000,91.096800C196.339000,91.210000,196.188000,91.363300,196.080000,91.544000C195.971000,91.724600,195.909000,91.927500,195.898000,92.135900L195.898000,115.694000C195.911000,115.902000,195.973000,116.104000,196.082000,116.285000C196.190000,116.465000,196.340000,116.619000,196.521000,116.733000L228.453000,134.487000C228.646000,134.580000,228.859000,134.629000,229.076000,134.629000C229.292000,134.629000,229.505000,134.580000,229.699000,134.487000L230.406000,134.093000C230.587000,133.979000,230.737000,133.825000,230.846000,133.645000C230.954000,133.464000,231.017000,133.262000,231.029000,133.054000L231.029000,109.513000Z" fill="rgb(255,151,33)" stroke="none" stroke-width="1"/><path id="design-3-path33" d="M230.844000,108.895000L229.076000,109.880000L196.085000,91.535000C196.188000,91.351700,196.338000,91.197300,196.522000,91.087100L197.229000,90.693000C197.421000,90.595700,197.635000,90.544900,197.852000,90.544900C198.069000,90.544900,198.283000,90.595700,198.475000,90.693000L230.406000,108.447000C230.590000,108.557000,230.741000,108.711000,230.844000,108.895000Z" opacity="0.35" fill="rgb(0,0,0)" stroke="none" stroke-width="1"/><path id="design-3-path34" d="M229.076000,109.871000L228.750000,110.059000C228.853000,110.101000,228.939000,110.173000,228.997000,110.265000C229.055000,110.356000,229.083000,110.462000,229.076000,110.570000L229.076000,134.137000C229.085000,134.214000,229.071000,134.291000,229.037000,134.361000C229.002000,134.431000,228.948000,134.489000,228.880000,134.531000C228.785000,134.567000,228.678000,134.567000,228.583000,134.531000L228.453000,134.477000L196.521000,116.732000C196.341000,116.617000,196.191000,116.464000,196.083000,116.284000C195.974000,116.103000,195.911000,115.901000,195.898000,115.693000L195.898000,92.126000C195.906000,91.914000,195.970000,91.707500,196.084000,91.525800L229.076000,109.871000Z" opacity="0.2" fill="rgb(0,0,0)" stroke="none" stroke-width="1"/><path id="design-3-path35" d="M229.076000,109.880000L214.287000,115.192000C213.778000,115.379000,213.217000,115.392000,212.699000,115.229000C212.181000,115.065000,211.737000,114.736000,211.441000,114.296000L209.059000,110.785000L195.963000,91.463100L208.585000,110.919000L195.898000,115.702000C195.914000,115.914000,195.981000,116.119000,196.093000,116.302000L208.622000,110.928000L211.413000,115.183000C211.718000,115.655000,212.189000,116.006000,212.741000,116.171000C213.293000,116.335000,213.888000,116.302000,214.417000,116.078000L216.380000,115.245000L228.908000,134.495000C228.976000,134.454000,229.030000,134.395000,229.065000,134.325000C229.099000,134.255000,229.113000,134.178000,229.104000,134.101000L229.104000,133.707000L216.445000,115.218000L229.076000,109.880000Z" opacity="0.2" fill="rgb(0,0,0)" stroke="none" stroke-width="1"/><path id="design-3-path36" d="M245.130000,92.251700C242.590000,90.970700,239.223000,91.194700,235.540000,93.245900C231.401000,95.539100,227.671000,99.686400,225.058000,104.452000C224.450000,105.552000,223.903000,106.682000,223.421000,107.838000C221.984000,111.156000,221.211000,114.706000,221.142000,118.300000L221.142000,138.177000C220.698000,138.181000,220.260000,138.080000,219.867000,137.881000L174.449000,112.576000C174.075000,112.337000,173.764000,112.016000,173.543000,111.639000C173.321000,111.263000,173.195000,110.841000,173.175000,110.409000L173.175000,91.597800C173.175000,82.174400,179.621000,70.995500,187.564000,66.516700C191.285000,64.420600,194.754000,64.250400,197.321000,65.620900L245.130000,92.251700Z" fill="rgb(233,233,233)" stroke="none" stroke-width="1"/><path id="design-3-path37" d="M223.421000,107.838000C221.984000,111.156000,221.211000,114.705000,221.142000,118.300000L221.142000,138.177000C220.986000,138.176000,220.830000,138.161000,220.677000,138.132000C220.677000,136.985000,220.677000,130.608000,220.677000,118.309000C220.677000,103.690000,232.350000,94.401300,235.559000,93.227800C231.420000,95.520900,227.690000,99.668300,225.076000,104.434000C224.462000,105.539000,223.909000,106.675000,223.421000,107.838000Z" fill="rgb(208,208,208)" stroke="none" stroke-width="1"/><path id="design-3-path38" d="M223.011000,135.902000C222.797000,136.027000,222.621000,135.902000,222.621000,135.696000L222.621000,118.300000C222.692000,114.958000,223.405000,111.656000,224.723000,108.563000C224.744000,108.496000,224.768000,108.431000,224.797000,108.366000C225.304000,107.139000,225.888000,105.942000,226.546000,104.783000C229.094000,100.251000,232.573000,96.524400,236.284000,94.473200C237.896000,93.493500,239.747000,92.940500,241.651000,92.869800C242.623000,92.864400,243.581000,93.089000,244.441000,93.523700C246.944000,94.813500,248.413000,97.930800,248.413000,102.293000L248.413000,121.319000C248.408000,121.448000,248.370000,121.574000,248.304000,121.686000C248.238000,121.798000,248.144000,121.894000,248.032000,121.964000L248.608000,123.281000L248.739000,123.200000C248.942000,123.064000,249.121000,122.898000,249.269000,122.707000C249.640000,122.264000,249.855000,121.718000,249.883000,121.149000L249.883000,102.347000C249.883000,97.303700,248.022000,93.792400,245.093000,92.305400C242.544000,91.015600,239.186000,91.239500,235.494000,93.290800C231.364000,95.583900,227.634000,99.731200,225.011000,104.497000C224.406000,105.597000,223.863000,106.727000,223.383000,107.883000C221.947000,111.201000,221.174000,114.751000,221.105000,118.345000L221.105000,138.177000L221.328000,138.177000C221.696000,138.155000,222.054000,138.058000,222.379000,137.890000L223.011000,135.902000Z" fill="rgb(143,148,150)" stroke="none" stroke-width="1"/><path id="design-3-path39" d="M185.380000,110.258000C183.575000,112.925000,180.969000,112.239000,179.564000,108.729000L180.590000,107.213000C182.053000,111.451000,182.230000,112.603000,184.582000,108.262000L187.509000,103.937000C188.748000,102.107000,188.971000,98.665800,188.007000,96.255700C187.043000,93.846600,185.254000,93.376200,184.015000,95.206300L183.217000,93.210400C185.022000,90.543600,187.628000,91.229200,189.033000,94.739900C190.438000,98.250700,190.113000,103.266000,188.308000,105.933000L185.380000,110.258000Z" fill="rgb(255,255,255)" stroke="none" stroke-width="1"/><path id="design-3-path40" d="M185.476000,110.114000C187.343000,107.512000,187.521000,102.513000,186.100000,98.956600L183.864000,93.359900C182.456000,89.836700,179.842000,89.145400,178.031000,91.817600C176.219000,94.490000,175.891000,99.520200,177.299000,103.043000L179.539000,108.649000C180.367000,110.684000,180.866000,111.823000,181.230000,112.385000C181.592000,112.944000,181.918000,113.184000,182.220000,113.275000C182.725000,113.427000,183.264000,113.132000,184.033000,112.105000C184.611000,111.333000,184.862000,110.971000,185.476000,110.114000ZM184.706000,108.078000C185.976000,106.306000,186.041000,102.892000,185.073000,100.471000L182.837000,94.874100C181.870000,92.453200,180.073000,91.978300,178.829000,93.814500C177.584000,95.651500,177.359000,99.107500,178.326000,101.529000L180.562000,107.125000C182.293000,111.381000,182.315000,111.333000,183.284000,110.039000C183.854000,109.279000,184.101000,108.922000,184.706000,108.078000Z" clip-rule="evenodd" fill="rgb(255,255,255)" fill-rule="evenodd" stroke="none" stroke-width="1"/></g><g id="design-3-m-ll"><path id="design-3-path41" d="M505.330000,190.634000L441.309000,190.634000L446.890000,245.078000C447.234000,248.562000,449.801000,251.993000,454.591000,254.653000C464.925000,260.404000,481.667000,260.404000,492.001000,254.653000C496.791000,251.966000,499.349000,248.562000,499.703000,245.078000L505.330000,190.634000Z" fill="rgb(233,233,233)" stroke="none" stroke-width="1"/><path id="design-3-path42" d="M473.324000,207.465000C491.031000,207.465000,505.386000,199.484000,505.386000,189.639000C505.386000,179.795000,491.031000,171.814000,473.324000,171.814000C455.617000,171.814000,441.263000,179.795000,441.263000,189.639000C441.263000,199.484000,455.617000,207.465000,473.324000,207.465000Z" fill="rgb(180,180,180)" stroke="none" stroke-width="1"/><path id="design-3-path43" d="M473.324000,204.921000C465.213000,204.921000,457.633000,203.192000,451.931000,200.048000C446.732000,197.155000,443.867000,193.455000,443.867000,189.639000C443.867000,185.824000,446.732000,182.124000,451.931000,179.231000C457.596000,176.087000,465.176000,174.349000,473.324000,174.349000C481.472000,174.349000,489.015000,176.087000,494.670000,179.231000C499.879000,182.124000,502.744000,185.824000,502.744000,189.639000C502.744000,193.455000,499.879000,197.155000,494.670000,200.048000C489.015000,203.192000,481.435000,204.921000,473.324000,204.921000Z" fill="rgb(55,71,79)" stroke="none" stroke-width="1"/><path id="design-3-path44" d="M495.331000,193.249000C493.731000,192.094000,490.885000,193.142000,489.750000,191.529000C489.397000,191.019000,489.332000,190.329000,488.820000,189.935000C487.332000,188.752000,485.100000,191.959000,483.518000,190.831000C482.942000,190.427000,482.793000,189.568000,482.151000,189.290000C481.677000,189.093000,481.137000,189.290000,480.626000,189.290000C480.076000,189.200000,479.562000,188.967000,479.139000,188.616000C478.716000,188.266000,478.401000,187.811000,478.226000,187.301000C477.890000,186.275000,477.392000,185.305000,476.747000,184.426000C476.192000,183.845000,475.433000,183.484000,474.617000,183.414000C472.608000,183.244000,470.962000,184.820000,469.613000,186.262000C469.399000,186.495000,469.176000,186.728000,468.962000,186.970000C468.580000,187.433000,468.109000,187.822000,467.576000,188.116000C467.295000,188.274000,466.961000,188.319000,466.646000,188.242000C466.479000,188.175000,466.327000,188.077000,466.201000,187.952000C466.074000,187.827000,465.976000,187.679000,465.911000,187.516000C465.344000,186.334000,465.474000,184.515000,464.162000,184.184000C463.809000,184.094000,463.390000,184.139000,463.111000,183.906000C462.832000,183.673000,462.842000,183.324000,462.646000,183.064000C462.506000,182.917000,462.335000,182.801000,462.144000,182.724000C461.953000,182.647000,461.746000,182.610000,461.539000,182.616000C458.842000,182.419000,456.461000,184.166000,454.368000,185.814000C453.243000,185.098000,453.122000,183.512000,453.550000,182.231000C454.629000,179.132000,458.024000,177.421000,461.205000,176.275000C462.693000,175.737000,464.209000,175.262000,465.734000,174.832000C460.876000,175.432000,456.178000,176.905000,451.885000,179.177000C446.685000,182.070000,443.821000,185.770000,443.821000,189.585000C443.821000,193.401000,446.685000,197.101000,451.885000,199.994000C457.549000,203.138000,465.130000,204.867000,473.278000,204.867000C481.426000,204.867000,488.969000,203.138000,494.624000,199.994000L494.959000,199.797000C495.275000,199.161000,495.563000,198.516000,495.815000,197.853000C496.456000,196.330000,496.717000,194.261000,495.331000,193.249000Z" opacity="0.1" fill="rgb(0,0,0)" stroke="none" stroke-width="1"/><path id="design-3-path45" d="M458.256000,250.694000C456.850000,250.176000,455.488000,249.553000,454.182000,248.831000C453.698000,248.562000,453.252000,248.293000,452.806000,248.006000C451.907000,247.182000,451.371000,246.056000,451.308000,244.862000L448.136000,208.235000C448.025000,207.008000,448.601000,206.524000,449.476000,207.088000C449.990000,207.423000,450.530000,207.745000,451.094000,208.056000C452.711000,208.953000,454.404000,209.717000,456.154000,210.340000C456.780000,210.589000,457.326000,210.996000,457.733000,211.518000C458.140000,212.039000,458.395000,212.656000,458.470000,213.305000L460.330000,249.180000C460.381000,249.436000,460.357000,249.701000,460.260000,249.944000C460.163000,250.188000,459.998000,250.400000,459.782000,250.558000C459.566000,250.715000,459.309000,250.811000,459.039000,250.835000C458.769000,250.859000,458.498000,250.810000,458.256000,250.694000Z" fill="rgb(219,219,219)" stroke="none" stroke-width="1"/><path id="design-3-path46" d="M478.254000,215.195000L477.621000,250.810000C477.607000,251.420000,477.357000,252.003000,476.920000,252.446000C476.483000,252.888000,475.891000,253.157000,475.259000,253.202000C473.975000,253.256000,472.673000,253.256000,471.380000,253.202000C470.750000,253.155000,470.160000,252.885000,469.725000,252.443000C469.290000,252.001000,469.041000,251.419000,469.027000,250.810000L468.422000,215.195000C468.413000,214.910000,468.467000,214.626000,468.580000,214.362000C468.693000,214.098000,468.863000,213.860000,469.078000,213.664000C469.293000,213.468000,469.549000,213.318000,469.829000,213.223000C470.109000,213.129000,470.406000,213.093000,470.701000,213.117000C472.458000,213.206000,474.218000,213.206000,475.975000,213.117000C476.270000,213.093000,476.567000,213.129000,476.847000,213.223000C477.127000,213.318000,477.383000,213.468000,477.598000,213.664000C477.813000,213.860000,477.983000,214.098000,478.096000,214.362000C478.209000,214.626000,478.263000,214.910000,478.254000,215.195000Z" fill="rgb(219,219,219)" stroke="none" stroke-width="1"/><path id="design-3-path47" d="M498.558000,208.235000L495.349000,244.889000C495.278000,246.086000,494.739000,247.212000,493.843000,248.043000C493.405000,248.320000,492.913000,248.598000,492.466000,248.858000C491.171000,249.567000,489.821000,250.181000,488.429000,250.694000C488.188000,250.812000,487.916000,250.863000,487.646000,250.840000C487.376000,250.818000,487.118000,250.723000,486.901000,250.566000C486.684000,250.410000,486.517000,250.198000,486.419000,249.954000C486.321000,249.711000,486.296000,249.446000,486.346000,249.189000L488.206000,213.305000C488.281000,212.657000,488.536000,212.039000,488.943000,211.518000C489.351000,210.996000,489.896000,210.590000,490.522000,210.340000C492.264000,209.715000,493.950000,208.954000,495.563000,208.065000C496.131000,207.752000,496.680000,207.420000,497.200000,207.080000C498.075000,206.506000,498.661000,206.981000,498.558000,208.235000Z" fill="rgb(219,219,219)" stroke="none" stroke-width="1"/><path id="design-3-path48" d="M445.746000,194.852000C447.402000,197,449.526000,198.774000,451.968000,200.048000C457.633000,203.192000,465.213000,204.921000,473.361000,204.921000C481.509000,204.921000,489.053000,203.192000,494.708000,200.048000C496.360000,199.150000,497.886000,198.051000,499.247000,196.778000C499.138000,196.243000,498.946000,195.727000,498.679000,195.246000C498.397000,194.727000,497.986000,194.282000,497.483000,193.951000C496.981000,193.620000,496.401000,193.413000,495.796000,193.347000C495.098000,193.347000,494.410000,193.500000,493.722000,193.464000C493.376000,193.480000,493.034000,193.388000,492.746000,193.203000C492.458000,193.017000,492.239000,192.748000,492.122000,192.434000C492.057000,192.138000,492.122000,191.825000,492.075000,191.538000C491.917000,190.759000,490.894000,190.427000,490.076000,190.571000C489.257000,190.714000,488.541000,191.171000,487.741000,191.368000C487.352000,191.504000,486.926000,191.507000,486.535000,191.376000C486.144000,191.246000,485.811000,190.990000,485.592000,190.651000C485.434000,190.275000,485.490000,189.827000,485.267000,189.478000C484.820000,188.752000,483.500000,188.913000,483.063000,188.179000C482.718000,187.597000,483.146000,186.898000,483.249000,186.244000C483.284000,185.689000,483.146000,185.137000,482.853000,184.658000C482.559000,184.179000,482.124000,183.795000,481.602000,183.557000C480.555000,183.100000,479.422000,182.856000,478.272000,182.840000C477.040000,182.599000,475.760000,182.773000,474.645000,183.333000C473.566000,184.050000,473.166000,185.366000,472.654000,186.522000C472.143000,187.677000,471.194000,188.887000,469.864000,188.878000C469.829000,188.355000,469.647000,187.851000,469.338000,187.420000C469.028000,186.989000,468.602000,186.648000,468.106000,186.432000C467.499000,186.236000,466.877000,186.086000,466.246000,185.984000C464.339000,185.483000,462.525000,183.951000,460.665000,184.444000C459.877000,184.710000,459.164000,185.148000,458.582000,185.725000L455.475000,188.349000C454.718000,188.881000,454.131000,189.608000,453.782000,190.445000C453.719000,190.816000,453.606000,191.177000,453.447000,191.520000C452.861000,192.416000,451.643000,192.058000,450.741000,192.075000C449.505000,191.992000,448.280000,192.349000,447.299000,193.079000C446.657000,193.557000,446.127000,194.162000,445.746000,194.852000Z" fill="rgb(255,151,33)" stroke="none" stroke-width="1"/><path id="design-3-path49" d="M494.670000,200.048000C496.323000,199.150000,497.848000,198.051000,499.209000,196.778000C499.167000,196.594000,499.114000,196.411000,499.051000,196.232000C497.964000,197.093000,496.685000,197.703000,495.315000,198.014000C493.944000,198.324000,492.518000,198.328000,491.145000,198.023000C490.248000,197.713000,489.307000,197.531000,488.355000,197.486000C487.872000,197.476000,487.401000,197.634000,487.030000,197.933000C486.659000,198.231000,486.413000,198.648000,486.337000,199.107000C486.370000,199.228000,486.370000,199.354000,486.337000,199.475000C486.290000,199.536000,486.230000,199.587000,486.161000,199.624000C486.092000,199.661000,486.015000,199.684000,485.937000,199.690000C483.500000,200.200000,480.728000,198.794000,478.570000,200.021000C477.878000,200.567000,477.130000,201.044000,476.338000,201.445000C475.369000,201.627000,474.365000,201.495000,473.482000,201.069000C473.217000,200.998000,472.972000,200.869000,472.766000,200.693000C472.394000,200.326000,472.403000,199.743000,472.115000,199.322000C471.852000,199.019000,471.517000,198.783000,471.138000,198.633000C469.886000,197.882000,468.436000,197.497000,466.962000,197.522000C466.083000,197.679000,465.263000,198.056000,464.582000,198.614000C463.902000,199.172000,463.385000,199.892000,463.083000,200.702000C459.651000,199.546000,457.168000,195.686000,453.550000,196.053000C453.233000,194.978000,454.563000,194.163000,455.680000,193.840000C456.796000,193.518000,458.182000,193.016000,458.228000,191.897000C458.228000,191.431000,458.005000,191.001000,458.061000,190.517000C458.144000,189.872000,458.814000,189.299000,458.609000,188.672000C458.469000,188.400000,458.284000,188.152000,458.061000,187.937000C457.752000,187.526000,457.625000,187.014000,457.707000,186.513000L455.577000,188.305000C454.820000,188.837000,454.234000,189.563000,453.884000,190.401000C453.821000,190.771000,453.708000,191.133000,453.550000,191.476000C452.964000,192.371000,451.745000,192.013000,450.843000,192.031000C449.607000,191.947000,448.382000,192.304000,447.401000,193.034000C446.750000,193.516000,446.214000,194.127000,445.829000,194.826000C447.485000,196.974000,449.609000,198.747000,452.052000,200.021000C457.717000,203.165000,465.297000,204.894000,473.445000,204.894000C481.593000,204.894000,489.015000,203.192000,494.670000,200.048000Z" opacity="0.1" fill="rgb(0,0,0)" stroke="none" stroke-width="1"/></g><path id="design-3-shadow-person" d="M382.618000,317.558000C410.220000,317.558000,432.596000,305.116000,432.596000,289.768000C432.596000,274.420000,410.220000,261.978000,382.618000,261.978000C355.015000,261.978000,332.639000,274.420000,332.639000,289.768000C332.639000,305.116000,355.015000,317.558000,382.618000,317.558000Z" transform="matrix(1 0 0 1 8.65893334499998 10.54300000000001)" opacity="0" fill="rgb(224,224,224)" stroke="none" stroke-width="1"/><g id="design-3-person" transform="matrix(1 0 0 1 7.65893334499998 10.13141320499997)" opacity="0"><path id="design-3-path50" d="M356.945000,102.010000C372.276000,89.321700,386.604000,60.421000,382.517000,51.403100C375.460000,51.053000,370.295000,53.636500,365.758000,61.676500C365.758000,61.676500,352.871000,85.820800,345.638000,92.931300C339.456000,99.244600,331.683000,103.911000,323.075000,106.476000C321.196000,106.784000,319.273000,106.747000,317.409000,106.368000C314.212000,105.426000,312.394000,106.235000,309.348000,106.090000C306.929000,105.981000,305.675000,105.221000,305.400000,105.728000C305.143000,106.348000,305.140000,107.039000,305.392000,107.662000C305.643000,108.285000,306.129000,108.793000,306.753000,109.084000C307.905000,109.683000,309.137000,110.126000,310.414000,110.400000C307.903000,111.150000,305.295000,111.557000,302.667000,111.607000C296.399000,111.788000,293.742000,113.780000,299.207000,119.418000C301.902000,122.194000,309.035000,123.884000,318.725000,121.385000C322.849000,120.097000,326.889000,118.569000,330.821000,116.810000C340.201000,113.070000,348.994000,108.088000,356.945000,102.010000Z" transform="matrix(1 0 0 1 0 0.63220822999999)" fill="rgb(255,168,167)" stroke="none" stroke-width="1"/><path id="design-3-path51" d="M406.134000,278.818000L406.134000,277.297000C405.507000,279.084000,402.637000,286.725000,398.274000,290.576000C394.802000,293.619000,390.064000,297.144000,388.860000,300.536000C387.657000,303.928000,395.454000,305.256000,398.688000,304.701000C402.449000,304.061000,407.325000,302.009000,409.970000,298.870000C411.838000,296.661000,413.016000,294.041000,414.357000,292.315000C415.699000,290.589000,418.757000,288.633000,419.472000,286.629000C419.873000,285.530000,419.397000,283.116000,418.845000,281.076000C418.293000,279.035000,417.779000,275.474000,417.115000,275.643000L417.115000,278.516000C415.555000,279.706000,413.614000,280.337000,411.625000,280.303000C410.020000,280.303000,406.122000,280.001000,406.134000,278.818000Z" fill="rgb(38,50,56)" stroke="none" stroke-width="1"/><path id="design-3-path52" d="M395.128000,293.244000L398.274000,290.552000C401.320000,287.872000,403.640000,283.309000,404.981000,280.231000C405.744000,278.463000,406.136000,276.568000,406.134000,274.653000L406.134000,268.617000L417.128000,268.617000L417.128000,278.444000L417.128000,278.710000C416.601000,280.919000,411.549000,286.774000,408.679000,290.589000C406.761000,293.148000,403.101000,296.407000,398.738000,296.963000C394.551000,297.518000,392.445000,296.263000,395.128000,293.244000Z" fill="rgb(255,168,167)" stroke="none" stroke-width="1"/><path id="design-3-path53" d="M363.225000,268.400000L363.225000,266.879000C362.611000,268.665000,359.728000,276.307000,355.366000,280.158000C351.893000,283.200000,347.168000,286.725000,345.964000,290.118000C344.761000,293.510000,352.545000,294.838000,355.792000,294.283000C359.552000,293.643000,364.429000,291.590000,367.074000,288.452000C368.929000,286.242000,370.120000,283.623000,371.449000,281.897000C372.777000,280.170000,375.848000,278.275000,376.576000,276.211000C376.964000,275.112000,376.500000,272.698000,375.949000,270.657000C375.397000,268.617000,374.883000,266.420000,374.219000,266.589000L374.219000,268.098000C372.654000,269.287000,370.709000,269.919000,368.716000,269.885000C367.124000,269.861000,363.213000,269.607000,363.225000,268.400000Z" fill="rgb(38,50,56)" stroke="none" stroke-width="1"/><path id="design-3-path54" d="M352.232000,282.802000C353.297000,281.872000,354.388000,280.967000,355.366000,280.110000C358.412000,277.430000,360.743000,272.866000,362.072000,269.788000C362.835000,268.021000,363.227000,266.125000,363.225000,264.211000L363.225000,258.175000L374.232000,258.175000L374.232000,268.001000L374.232000,268.267000C373.705000,270.476000,368.666000,276.331000,365.795000,280.146000C363.865000,282.705000,360.217000,285.965000,355.855000,286.520000C351.655000,287.075000,349.537000,285.820000,352.232000,282.802000Z" fill="rgb(255,168,167)" stroke="none" stroke-width="1"/><path id="design-3-path55" d="M414.946000,114.202000C417.266000,138.625000,420.738000,195.364000,420.738000,195.364000C421.201000,202.643000,421.364000,202.933000,421.364000,215.886000C422.618000,230.373000,421.364000,268.400000,421.364000,268.400000C419.686000,269.335000,413.698000,271.347000,411.760000,271.420000C409.823000,271.494000,403.684000,269.808000,401.935000,269.004000C401.935000,269.004000,395.667000,213.061000,393.686000,198.019000C391.969000,184.885000,388.672000,156.008000,388.672000,156.008000L384.385000,192.346000C383.758000,198.019000,384.009000,203.356000,383.131000,211.057000C382.505000,226.751000,379.998000,261.760000,379.998000,261.760000C379.998000,261.760000,368.716000,264.778000,358.061000,261.289000C358.061000,261.289000,360.092000,206.603000,359.264000,195.931000C357.873000,178.028000,362.812000,122.146000,366.221000,111.547000L414.946000,114.202000Z" fill="rgb(18,159,159)" stroke="none" stroke-width="1"/><path id="design-3-path56" d="M386.892000,170.616000L388.773000,156.733000C388.773000,156.733000,374.357000,155.526000,366.836000,152.508000C366.836000,152.508000,375.799000,157.940000,384.573000,158.544000L384.573000,168.394000L383.132000,206.832000L385.012000,188.724000L386.892000,170.616000Z" opacity="0.15" fill="rgb(0,0,0)" stroke="none" stroke-width="1"/><path id="design-3-path57" d="M405.695000,276.247000L408.202000,277.454000L411.336000,278.058000L414.470000,277.454000L417.203000,275.686000L418.231000,281.680000L411.107000,289.533000L400.103000,302.045000L392.849000,295.528000L397.691000,289.849000L400.995000,285.411000L404.442000,281.076000L405.695000,276.247000Z" fill="rgb(38,50,56)" stroke="none" stroke-width="1"/><path id="design-3-path58" d="M399.981000,51.793600C411.089000,52.888800,411.866000,60.573000,414.643000,68.987300C416.672000,75.467500,416.329000,81.242400,414.643000,87.921500L416.950000,117.832000C416.950000,117.832000,418.858000,137.201000,419.484000,149.489000C398.801000,161.562000,369.969000,156.733000,359.314000,149.489000C359.060000,147.080000,364.135000,122.883000,365.039000,110.617000C365.039000,95.213100,365.039000,88.911400,365.039000,80.321900C367.714000,65.245600,378.122000,50.534200,382.720000,51.118300L399.981000,51.793600Z" fill="rgb(7,172,172)" stroke="none" stroke-width="1"/><path id="design-3-path59" d="M405.670000,48.892200L365.795000,48.892200L365.795000,21.633300C365.795000,15.895800,368.162000,10.393300,372.375000,6.336270C376.587000,2.279250,382.301000,0.000042,388.259000,0.000042L392.258000,0.000042C398.215000,0.000042,403.929000,2.279250,408.142000,6.336270C412.354000,10.393300,414.721000,15.895800,414.721000,21.633300L414.721000,40.176100C414.721000,42.487800,413.767000,44.704700,412.070000,46.339300C410.373000,47.973900,408.071000,48.892200,405.670000,48.892200Z" fill="rgb(38,50,56)" stroke="none" stroke-width="1"/><path id="design-3-path60" d="M411.462000,2.813050L408.202000,7.931640C408.540000,8.157320,408.922000,8.314790,409.325000,8.394550C409.728000,8.474320,410.143000,8.474730,410.546000,8.395770C410.949000,8.316810,411.331000,8.160120,411.669000,7.935120C412.008000,7.710120,412.295000,7.421470,412.515000,7.086580C412.945000,6.380850,413.075000,5.542420,412.879000,4.746180C412.683000,3.949940,412.175000,3.257400,411.462000,2.813050Z" fill="rgb(38,50,56)" stroke="none" stroke-width="1"/><path id="design-3-path61" d="M416.025000,7.496830L409.832000,8.390150C409.872000,8.783920,409.994000,9.165810,410.192000,9.512650C410.389000,9.859490,410.658000,10.164100,410.982000,10.407900C411.305000,10.651700,411.677000,10.829700,412.074000,10.931100C412.471000,11.032500,412.885000,11.055200,413.292000,10.997700C414.127000,10.863800,414.877000,10.425500,415.385000,9.773710C415.894000,9.121940,416.123000,8.306680,416.025000,7.496830Z" fill="rgb(38,50,56)" stroke="none" stroke-width="1"/><path id="design-3-path62" d="M375.084000,9.536930C372.502000,11.009700,369.305000,17.263100,369.618000,30.385500C369.894000,41.516000,373.630000,44.256400,375.510000,45.053200C377.390000,45.849900,381.013000,45.355000,384.536000,44.799600L381.878000,51.705100C381.878000,51.705100,382.126000,59.828400,387.140000,67.071700C391.527000,65.260900,393.341000,62.937100,396.203000,60.640200C399.008000,58.389300,398.801000,55.326800,400.054000,52.308700L399.089000,37.097600C399.089000,37.097600,401.458000,40.151900,405.357000,37.665000C409.255000,35.178100,409.393000,29.021300,407.124000,26.800100C404.855000,24.578800,399.992000,25.291100,399.089000,28.345300C399.089000,28.345300,393.461000,28.538500,385.977000,24.578800C383.062000,23.072600,380.556000,20.925700,378.663000,18.312200C376.770000,15.698700,375.544000,12.692300,375.084000,9.536930Z" fill="rgb(255,168,167)" stroke="none" stroke-width="1"/><path id="design-3-path63" d="M383.809000,27.596600C383.783000,27.788300,383.799000,27.983000,383.855000,28.168500C383.912000,28.354000,384.008000,28.526300,384.137000,28.674400C384.266000,28.822500,384.425000,28.943300,384.605000,29.029100C384.785000,29.115000,384.981000,29.164000,385.182000,29.173200C385.382000,29.182400,385.582000,29.151600,385.770000,29.082600C385.957000,29.013500,386.128000,28.907900,386.271000,28.772300C386.414000,28.636600,386.526000,28.473900,386.601000,28.294400C386.676000,28.115000,386.711000,27.922600,386.704000,27.729400C386.720000,27.542800,386.696000,27.355200,386.636000,27.177400C386.575000,26.999600,386.478000,26.835100,386.351000,26.693600C386.224000,26.552100,386.069000,26.436300,385.895000,26.353000C385.721000,26.269700,385.532000,26.220500,385.338000,26.208300C384.944000,26.198500,384.563000,26.339000,384.276000,26.599000C383.990000,26.859100,383.822000,27.217600,383.809000,27.596600Z" fill="rgb(38,50,56)" stroke="none" stroke-width="1"/><path id="design-3-path64" d="M382.129000,37.025300L378.757000,38.063500C378.811000,38.285400,378.913000,38.494200,379.055000,38.676900C379.197000,38.859600,379.376000,39.012200,379.582000,39.125400C379.787000,39.238600,380.015000,39.309900,380.250000,39.334900C380.486000,39.359900,380.724000,39.338000,380.951000,39.270700C381.415000,39.121700,381.799000,38.802100,382.020000,38.381600C382.240000,37.961000,382.280000,37.473600,382.129000,37.025300Z" fill="rgb(242,143,143)" stroke="none" stroke-width="1"/><path id="design-3-path65" d="M371.850000,23.335300L374.796000,21.379600C374.673000,21.188500,374.510000,21.023500,374.319000,20.894900C374.127000,20.766200,373.910000,20.676600,373.681000,20.631400C373.453000,20.586200,373.217000,20.586400,372.988000,20.632000C372.759000,20.677700,372.543000,20.767700,372.351000,20.896700C371.958000,21.162900,371.686000,21.565000,371.593000,22.019200C371.499000,22.473400,371.591000,22.944800,371.850000,23.335300Z" fill="rgb(38,50,56)" stroke="none" stroke-width="1"/><path id="design-3-path66" d="M372.577000,26.582900C372.568000,26.766800,372.596000,26.950600,372.661000,27.123900C372.726000,27.297100,372.825000,27.456400,372.954000,27.592600C373.083000,27.728800,373.238000,27.839200,373.411000,27.917700C373.584000,27.996100,373.771000,28.041000,373.962000,28.049700C374.153000,28.058400,374.344000,28.030800,374.524000,27.968500C374.704000,27.906200,374.869000,27.810300,375.010000,27.686500C375.152000,27.562600,375.266000,27.413100,375.348000,27.246600C375.429000,27.080000,375.476000,26.899600,375.485000,26.715700C375.494000,26.531800,375.465000,26.348000,375.401000,26.174800C375.336000,26.001500,375.236000,25.842300,375.108000,25.706100C374.979000,25.569900,374.824000,25.459400,374.651000,25.381000C374.478000,25.302500,374.291000,25.257700,374.100000,25.248900C373.909000,25.240200,373.718000,25.267800,373.538000,25.330100C373.358000,25.392400,373.193000,25.488300,373.051000,25.612100C372.910000,25.736000,372.795000,25.885500,372.714000,26.052100C372.632000,26.218600,372.586000,26.399000,372.577000,26.582900Z" fill="rgb(38,50,56)" stroke="none" stroke-width="1"/><path id="design-3-path67" d="M379.672000,25.786000L379.446000,34.200300L374.833000,32.836200L379.672000,25.786000Z" fill="rgb(242,143,143)" stroke="none" stroke-width="1"/><path id="design-3-path68" d="M384.536000,44.799900C388.296000,44.329100,395.893000,42.216500,397.071000,39.307100C396.597000,40.773900,395.670000,42.066700,394.414000,43.013300C392.132000,44.896500,384.548000,47.021200,384.548000,47.021200L384.536000,44.799900Z" fill="rgb(242,143,143)" stroke="none" stroke-width="1"/><path id="design-3-path69" d="M434.527000,104.714000C424.599000,65.648400,417.253000,52.622600,405.194000,52.803700C401.684000,56.859900,402.687000,69.101100,408.215000,76.525400C408.215000,76.525400,420.612000,101.720000,422.593000,110.678000C424.335000,118.549000,426.354000,128.448000,426.178000,135.220000C426.141000,136.417000,425.651000,137.559000,424.799000,138.431000C422.543000,140.846000,422.530000,142.705000,421.039000,145.325000C419.885000,147.365000,418.632000,148.137000,418.983000,148.596000C419.456000,149.095000,420.109000,149.400000,420.808000,149.449000C421.508000,149.498000,422.200000,149.288000,422.743000,148.862000C423.807000,148.122000,424.761000,147.244000,425.576000,146.254000C425.183000,148.757000,424.427000,151.195000,423.333000,153.497000C420.826000,159.026000,421.402000,161.851000,429.162000,159.884000C434.013000,158.676000,437.059000,154.753000,437.786000,143.514000C438.140000,139.373000,438.182000,135.214000,437.911000,131.067000C436.858000,120.371000,436.106000,111.003000,434.527000,104.714000Z" fill="rgb(255,168,167)" stroke="none" stroke-width="1"/><rect id="design-3-rect1" width="8.773990" height="13.280600" rx="0.500000" ry="0.500000" transform="matrix(0.99885400000000 -0.04785200000000 0.05158600000000 0.99866900000000 400.68099999999998 157.81700000000001)" fill="rgb(255,255,255)" stroke="none" stroke-width="1"/><rect id="design-3-rect2" width="2.506860" height="5.090450" rx="0.100000" ry="0.100000" transform="matrix(0.99887000000000 -0.04753500000000 0.05124400000000 0.99868600000000 403.57400000000001 153.83400000000000)" fill="rgb(63,61,86)" stroke="none" stroke-width="1"/><line id="design-3-line1" x1="0" y1="-0.250000" x2="5.014160" y2="-0.250000" transform="matrix(0.99856400000000 -0.05357600000000 0.05775300000000 0.99833100000000 402.89900000000000 167.98099999999999)" fill="none" stroke="rgb(196,196,196)" stroke-width="0.500000"/><line id="design-3-line2" x1="0" y1="-0.150000" x2="3.770940" y2="-0.150000" transform="matrix(0.99856300000000 -0.05359700000000 0.05777600000000 0.99833000000000 403.77600000000001 169.67099999999999)" fill="none" stroke="rgb(196,196,196)" stroke-width="0.300000"/><ellipse id="design-3-ellipse2" rx="3.133850" ry="3.018040" transform="matrix(1 0 0 1 405.40600000000001 163.03100000000001)" fill="rgb(196,196,196)" stroke="none" stroke-width="1"/><path id="design-3-path70" d="M381.878000,51.101400C380.276000,53.140100,377.491000,55.930300,376.588000,66.371600C370.409000,71.723100,363.477000,74.001500,361.104000,71.460400C358.731000,68.919400,361.816000,62.521100,367.995000,57.169600C374.175000,51.818000,376.237000,51.705000,381.878000,51.101400Z" fill="rgb(7,172,172)" stroke="none" stroke-width="1"/><path id="design-3-path71" d="M362.448000,63.173500L373.730000,80.074500L361.195000,101.804000L353.673000,95.164700L348.032000,86.110600L362.448000,63.173500Z" fill="rgb(7,172,172)" stroke="none" stroke-width="1"/><path id="design-3-path72" d="M400.054000,51.705100C401.389000,54.030500,400.617000,62.361900,397.547000,77.056500C403.726000,82.408100,414.851000,78.152800,419.114000,73.588100C423.377000,69.023300,423.245000,61.966400,415.644000,55.632900C410.083000,52.912300,408.202000,51.705100,400.054000,51.705100Z" fill="rgb(7,172,172)" stroke="none" stroke-width="1"/><path id="design-3-path73" d="M420.738000,61.966500L406.826000,79.745200L417.604000,101.201000L425.752000,97.579300L433.273000,91.543200L427.632000,76.453000L420.738000,61.966500Z" fill="rgb(7,172,172)" stroke="none" stroke-width="1"/><path id="design-3-path74" d="M362.448000,268.397000L364.328000,269.607000L368.089000,270.210000L371.850000,269.003000L374.357000,266.589000L374.357000,273.832000L368.716000,279.868000L358.223000,291.741000L349.286000,285.299000L355.553000,279.867000L358.687000,275.641000L362.448000,268.397000Z" fill="rgb(38,50,56)" stroke="none" stroke-width="1"/><path id="design-3-path75" d="M370.672000,42.924300C376.879000,54.736000,391.591000,47.442200,394.550000,43.686700C392.614000,42.563000,388.031000,38.535000,390.250000,32.395100L376.958000,29.958500L370.100000,30.864500C369.617000,33.906900,369.162000,37.552300,370.672000,42.924300Z" fill="rgb(255,255,255)" stroke="none" stroke-width="1"/><path id="design-3-path76" d="M399.848000,36.332500L393.922000,43.901900L393.304000,43.799000L399.230000,36.229600L399.848000,36.332500Z" fill="rgb(255,255,255)" stroke="none" stroke-width="1"/><path id="design-3-path77" d="M387.572000,32.634100L398.474000,29.649100L398.902000,30.090300L388,33.075300L387.572000,32.634100Z" fill="rgb(255,255,255)" stroke="none" stroke-width="1"/><path id="design-3-path78" d="M416.201000,97.967700L406.498000,77.197500L410.593000,79.700800L416.201000,97.967700Z" fill="rgb(12,156,156)" stroke="none" stroke-width="1"/><path id="design-3-path79" d="M365.131000,94.378600L367.011000,91.964200L367.011000,98.000200L366.384000,104.640000L365.131000,113.694000L365.131000,94.378600Z" fill="rgb(12,156,156)" stroke="none" stroke-width="1"/></g><g id="design-3-brief" transform="matrix(0.85012625022850 0.52657891970002 -0.52657891970002 0.85012625022850 65.18620964140106 -127.14524817273869)" opacity="0"><path id="design-3-path80" d="M264.812000,105.944000C264.778000,105.859000,264.761000,105.768000,264.764000,105.676000C264.766000,105.585000,264.788000,105.495000,264.827000,105.412000C264.866000,105.328000,264.921000,105.253000,264.991000,105.191000C265.060000,105.128000,265.142000,105.080000,265.231000,105.048000L299.031000,91.952300C299.551000,91.826100,300.099000,91.863800,300.594000,92.059700L301.617000,92.471800C302.105000,92.659400,302.509000,93.004600,302.761000,93.448200L311.067000,114.427000C311.103000,114.512000,311.120000,114.603000,311.118000,114.695000C311.116000,114.786000,311.095000,114.877000,311.056000,114.960000C311.017000,115.044000,310.961000,115.119000,310.891000,115.182000C310.821000,115.244000,310.738000,115.292000,310.649000,115.322000L276.839000,128.418000C276.319000,128.545000,275.771000,128.507000,275.276000,128.311000L274.253000,127.899000C273.763000,127.711000,273.356000,127.366000,273.099000,126.922000L264.812000,105.944000Z" fill="rgb(255,151,33)" stroke="none" stroke-width="1"/><path id="design-3-path81" d="M264.833000,105.434000L267.409000,106.464000L302.326000,92.929200C302.114000,92.752500,301.876000,92.607500,301.619000,92.499200L300.596000,92.087200C300.102000,91.886700,299.553000,91.848900,299.034000,91.979700L265.233000,105.076000C265.058000,105.143000,264.915000,105.270000,264.833000,105.434000Z" opacity="0.4" fill="rgb(255,255,255)" stroke="none" stroke-width="1"/><path id="design-3-path82" d="M264.812000,105.944000L273.118000,126.923000C273.374000,127.366000,273.782000,127.711000,274.272000,127.899000L275.295000,128.311000L275.536000,128.392000L275.871000,128.463000C276.076000,128.480000,276.281000,128.480000,276.485000,128.463000L276.625000,128.463000L276.708000,128.463000C276.587000,128.499000,276.458000,128.499000,276.336000,128.463000C276.249000,128.432000,276.170000,128.383000,276.104000,128.320000C276.038000,128.257000,275.987000,128.180000,275.955000,128.096000L267.649000,107.126000C267.626000,107.085000,267.614000,107.039000,267.614000,106.992000C267.613000,106.945000,267.624000,106.898000,267.646000,106.856000C267.668000,106.814000,267.700000,106.778000,267.739000,106.750000C267.778000,106.722000,267.824000,106.704000,267.872000,106.696000L267.407000,106.508000L264.831000,105.478000C264.767000,105.626000,264.760000,105.792000,264.812000,105.944000Z" opacity="0.2" fill="rgb(0,0,0)" stroke="none" stroke-width="1"/><path id="design-3-path83" d="M267.407000,106.464000L287.824000,112.447000C289.284000,112.877000,290.614000,112.644000,291.088000,111.883000L292.828000,108.972000L302.445000,92.848200L293.469000,109.088000L311.077000,114.463000C311.146000,114.626000,311.146000,114.810000,311.077000,114.973000L293.479000,109.169000L291.516000,112.752000C291.070000,113.567000,289.591000,113.791000,288.056000,113.289000L285.266000,112.394000L276.336000,128.463000C276.249000,128.432000,276.170000,128.384000,276.104000,128.320000C276.038000,128.257000,275.987000,128.180000,275.955000,128.096000L275.816000,127.747000L285.210000,112.322000L267.407000,106.464000Z" opacity="0.2" fill="rgb(0,0,0)" stroke="none" stroke-width="1"/></g><path id="design-3-finger" d="M311.226000,108.951000C310.975000,109.983000,308.585000,110.327000,305.889000,109.719000C303.193000,109.111000,301.383000,107.118000,301.634000,106.086000C302.433000,104.216000,304.579000,105.477000,307.275000,106.086000C309.971000,106.694000,311.477000,107.918000,311.226000,108.951000Z" transform="matrix(1 0 0 1 8.16400146000001 10.40020956500005)" opacity="0" fill="rgb(255,168,167)" stroke="none" stroke-width="1"/><script><![CDATA[!function(t,n){"object"==typeof exports&&"undefined"!=typeof module?module.exports=n():"function"==typeof define&&define.amd?define(n):(t="undefined"!=typeof globalThis?globalThis:t||self).__SVGATOR_PLAYER__=n()}(this,(function(){"use strict";function t(n){return(t="function"==typeof Symbol&&"symbol"==typeof Symbol.iterator?function(t){return typeof t}:function(t){return t&&"function"==typeof Symbol&&t.constructor===Symbol&&t!==Symbol.prototype?"symbol":typeof t})(n)}function n(t,n){if(!(t instanceof n))throw new TypeError("Cannot call a class as a function")}function e(t,n){for(var e=0;e<n.length;e++){var r=n[e];r.enumerable=r.enumerable||!1,r.configurable=!0,"value"in r&&(r.writable=!0),Object.defineProperty(t,r.key,r)}}function r(t,n,r){return n&&e(t.prototype,n),r&&e(t,r),t}function i(t){return(i=Object.setPrototypeOf?Object.getPrototypeOf:function(t){return t.__proto__||Object.getPrototypeOf(t)})(t)}function u(t,n){return(u=Object.setPrototypeOf||function(t,n){return t.__proto__=n,t})(t,n)}function o(t,n){return!n||"object"!=typeof n&&"function"!=typeof n?function(t){if(void 0===t)throw new ReferenceError("this hasn't been initialised - super() hasn't been called");return t}(t):n}function a(t){var n=function(){if("undefined"==typeof Reflect||!Reflect.construct)return!1;if(Reflect.construct.sham)return!1;if("function"==typeof Proxy)return!0;try{return Boolean.prototype.valueOf.call(Reflect.construct(Boolean,[],(function(){}))),!0}catch(t){return!1}}();return function(){var e,r=i(t);if(n){var u=i(this).constructor;e=Reflect.construct(r,arguments,u)}else e=r.apply(this,arguments);return o(this,e)}}function l(t,n,e){return(l="undefined"!=typeof Reflect&&Reflect.get?Reflect.get:function(t,n,e){var r=function(t,n){for(;!Object.prototype.hasOwnProperty.call(t,n)&&null!==(t=i(t)););return t}(t,n);if(r){var u=Object.getOwnPropertyDescriptor(r,n);return u.get?u.get.call(e):u.value}})(t,n,e||t)}var s=Math.abs;function f(t){return t}function c(t,n,e){var r=1-e;return 3*e*r*(t*r+n*e)+e*e*e}function h(){var t=arguments.length>0&&void 0!==arguments[0]?arguments[0]:0,n=arguments.length>1&&void 0!==arguments[1]?arguments[1]:0,e=arguments.length>2&&void 0!==arguments[2]?arguments[2]:1,r=arguments.length>3&&void 0!==arguments[3]?arguments[3]:1;return t<0||t>1||e<0||e>1?null:s(t-n)<=1e-5&&s(e-r)<=1e-5?f:function(i){if(i<=0)return t>0?i*n/t:0===n&&e>0?i*r/e:0;if(i>=1)return e<1?1+(i-1)*(r-1)/(e-1):1===e&&t<1?1+(i-1)*(n-1)/(t-1):1;for(var u,o=0,a=1;o<a;){var l=c(t,e,u=(o+a)/2);if(s(i-l)<1e-5)break;l<i?o=u:a=u}return c(n,r,u)}}function v(){return 1}function d(t){return 1===t?1:0}function y(){var t=arguments.length>0&&void 0!==arguments[0]?arguments[0]:1,n=arguments.length>1&&void 0!==arguments[1]?arguments[1]:0;if(1===t){if(0===n)return d;if(1===n)return v}var e=1/t;return function(t){return t>=1?1:(t+=n*e)-t%e}}function g(t){var n=arguments.length>1&&void 0!==arguments[1]?arguments[1]:2;if(Number.isInteger(t))return t;var e=Math.pow(10,n);return Math.round(t*e)/e}var p=Math.PI/180;function m(t,n,e){return t>=.5?e:n}function b(t,n,e){return 0===t||n===e?n:t*(e-n)+n}function w(t,n,e){var r=b(t,n,e);return r<=0?0:r}function x(t,n,e){return 0===t?n:1===t?e:{x:b(t,n.x,e.x),y:b(t,n.y,e.y)}}function A(t,n,e){return 0===t?n:1===t?e:{x:w(t,n.x,e.x),y:w(t,n.y,e.y)}}function k(t,n,e){var r=function(t,n,e){return Math.round(b(t,n,e))}(t,n,e);return r<=0?0:r>=255?255:r}function _(t,n,e){return 0===t?n:1===t?e:{r:k(t,n.r,e.r),g:k(t,n.g,e.g),b:k(t,n.b,e.b),a:b(t,null==n.a?1:n.a,null==e.a?1:e.a)}}function S(t,n,e){if(0===t)return n;if(1===t)return e;var r=n.length;if(r!==e.length)return m(t,n,e);for(var i=[],u=0;u<r;u++)i.push(_(t,n[u],e[u]));return i}function M(t,n,e){var r=n.length;if(r!==e.length)return m(t,n,e);for(var i=new Array(r),u=0;u<r;u++)i[u]=b(t,n[u],e[u]);return i}function O(t,n){for(var e=[],r=0;r<t;r++)e.push(n);return e}function E(t,n){if(--n<=0)return t;var e=(t=Object.assign([],t)).length;do{for(var r=0;r<e;r++)t.push(t[r])}while(--n>0);return t}var B,I=function(){function t(e){n(this,t),this.list=e,this.length=e.length}return r(t,[{key:"setAttribute",value:function(t,n){for(var e=this.list,r=0;r<this.length;r++)e[r].setAttribute(t,n)}},{key:"removeAttribute",value:function(t){for(var n=this.list,e=0;e<this.length;e++)n[e].removeAttribute(t)}},{key:"style",value:function(t,n){for(var e=this.list,r=0;r<this.length;r++)e[r].style[t]=n}}]),t}(),j=/-./g,P=function(t,n){return n.toUpperCase()};function T(t){return"function"==typeof t?t:m}function F(t){return t?"function"==typeof t?t:Array.isArray(t)?function(t){var n=arguments.length>1&&void 0!==arguments[1]?arguments[1]:f;if(!Array.isArray(t))return n;switch(t.length){case 1:return y(t[0])||n;case 2:return y(t[0],t[1])||n;case 4:return h(t[0],t[1],t[2],t[3])||n}return n}(t,null):function(t,n){var e=arguments.length>2&&void 0!==arguments[2]?arguments[2]:f;switch(t){case"linear":return f;case"steps":return y(n.steps||1,n.jump||0)||e;case"bezier":case"cubic-bezier":return h(n.x1||0,n.y1||0,n.x2||0,n.y2||0)||e}return e}(t.type,t.value,null):null}function R(t,n,e){var r=arguments.length>3&&void 0!==arguments[3]&&arguments[3],i=n.length-1;if(t<=n[0].t)return r?[0,0,n[0].v]:n[0].v;if(t>=n[i].t)return r?[i,1,n[i].v]:n[i].v;var u,o=n[0],a=null;for(u=1;u<=i;u++){if(!(t>n[u].t)){a=n[u];break}o=n[u]}return null==a?r?[i,1,n[i].v]:n[i].v:o.t===a.t?r?[u,1,a.v]:a.v:(t=(t-o.t)/(a.t-o.t),o.e&&(t=o.e(t)),r?[u,t,e(t,o.v,a.v)]:e(t,o.v,a.v))}function C(t,n){var e=arguments.length>2&&void 0!==arguments[2]?arguments[2]:null;return t&&t.length?"function"!=typeof n?null:("function"!=typeof e&&(e=null),function(r){var i=R(r,t,n);return null!=i&&e&&(i=e(i)),i}):null}function N(t,n){return t.t-n.t}function q(n,e,r,i,u){var o,a="@"===r[0],l="#"===r[0],s=B[r],f=m;switch(a?(o=r.substr(1),r=o.replace(j,P)):l&&(r=r.substr(1)),t(s)){case"function":if(f=s(i,u,R,F,r,a,e,n),l)return f;break;case"string":f=C(i,T(s));break;case"object":if((f=C(i,T(s.i),s.f))&&"function"==typeof s.u)return s.u(e,f,r,a,n)}return f?function(t,n,e){var r=arguments.length>3&&void 0!==arguments[3]&&arguments[3];if(r)return t instanceof I?function(r){return t.style(n,e(r))}:function(r){return t.style[n]=e(r)};if(Array.isArray(n)){var i=n.length;return function(r){var u=e(r);if(null==u)for(var o=0;o<i;o++)t[o].removeAttribute(n);else for(var a=0;a<i;a++)t[a].setAttribute(n,u)}}return function(r){var i=e(r);null==i?t.removeAttribute(n):t.setAttribute(n,i)}}(e,r,f,a):null}function V(n,e,r,i){if(!i||"object"!==t(i))return null;var u=null,o=null;return Array.isArray(i)?o=function(t){if(!t||!t.length)return null;for(var n=0;n<t.length;n++)t[n].e&&(t[n].e=F(t[n].e));return t.sort(N)}(i):(o=i.keys,u=i.data||null),o?q(n,e,r,o,u):null}function L(t,n,e){if(!e)return null;var r=[];for(var i in e)if(e.hasOwnProperty(i)){var u=V(t,n,i,e[i]);u&&r.push(u)}return r.length?r:null}function z(t,n){if(!n.duration||n.duration<0)return null;var e=function(t,n){if(!n)return null;var e=[];if(Array.isArray(n))for(var r=n.length,i=0;i<r;i++){var u=n[i];if(2===u.length){var o=null;if("string"==typeof u[0])o=t.getElementById(u[0]);else if(Array.isArray(u[0])){o=[];for(var a=0;a<u[0].length;a++)if("string"==typeof u[0][a]){var l=t.getElementById(u[0][a]);l&&o.push(l)}o=o.length?1===o.length?o[0]:new I(o):null}if(o){var s=L(t,o,u[1]);s&&(e=e.concat(s))}}}else for(var f in n)if(n.hasOwnProperty(f)){var c=t.getElementById(f);if(c){var h=L(t,c,n[f]);h&&(e=e.concat(h))}}return e.length?e:null}(t,n.elements);return e?function(t,n){var e=arguments.length>2&&void 0!==arguments[2]?arguments[2]:1/0,r=arguments.length>3&&void 0!==arguments[3]?arguments[3]:1,i=arguments.length>4&&void 0!==arguments[4]&&arguments[4],u=arguments.length>5&&void 0!==arguments[5]?arguments[5]:1,o=t.length,a=r>0?n:0;i&&e%2==0&&(a=n-a);var l=null;return function(s,f){var c=s%n,h=1+(s-c)/n;f*=r,i&&h%2==0&&(f=-f);var v=!1;if(h>e)c=a,v=!0,-1===u&&(c=r>0?0:n);else if(f<0&&(c=n-c),c===l)return!1;l=c;for(var d=0;d<o;d++)t[d](c);return v}}(e,n.duration,n.iterations||1/0,n.direction||1,!!n.alternate,n.fill||1):null}var D=function(){function t(e,r){var i=arguments.length>2&&void 0!==arguments[2]?arguments[2]:{};n(this,t),this._id=0,this._running=!1,this._rollingBack=!1,this._animations=e,this.duration=r.duration,this.alternate=r.alternate,this.fill=r.fill,this.iterations=r.iterations,this.direction=i.direction||1,this.speed=i.speed||1,this.fps=i.fps||100,this.offset=i.offset||0,this.rollbackStartOffset=0}return r(t,[{key:"_rollback",value:function(){var t=this,n=1/0,e=null;this.rollbackStartOffset=this.offset,this._rollingBack||(this._rollingBack=!0,this._running=!0);this._id=window.requestAnimationFrame((function r(i){if(t._rollingBack){null==e&&(e=i);var u=i-e,o=t.rollbackStartOffset-u,a=Math.round(o*t.speed);if(a>t.duration&&n!=1/0){var l=!!t.alternate&&a/t.duration%2>1,s=a%t.duration;a=(s+=l?t.duration:0)||t.duration}var f=t.fps?1e3/t.fps:0,c=Math.max(0,a);if(c<n-f){t.offset=c,n=c;for(var h=t._animations,v=h.length,d=0;d<v;d++)h[d](c,t.direction)}var y=!1;if(t.iterations>0&&-1===t.fill){var g=t.iterations*t.duration,p=g==a;a=p?0:a,t.offset=p?0:t.offset,y=a>g}a>0&&t.offset>=a&&!y?t._id=window.requestAnimationFrame(r):t.stop()}}))}},{key:"_start",value:function(){var t=this,n=arguments.length>0&&void 0!==arguments[0]?arguments[0]:0,e=-1/0,r=null,i={},u=function u(o){t._running=!0,null==r&&(r=o);var a=Math.round((o-r+n)*t.speed),l=t.fps?1e3/t.fps:0;if(a>e+l&&!t._rollingBack){t.offset=a,e=a;for(var s=t._animations,f=s.length,c=0,h=0;h<f;h++)i[h]?c++:(i[h]=s[h](a,t.direction),i[h]&&c++);if(c===f)return void t._stop()}t._id=window.requestAnimationFrame(u)};this._id=window.requestAnimationFrame(u)}},{key:"_stop",value:function(){this._id&&window.cancelAnimationFrame(this._id),this._running=!1,this._rollingBack=!1}},{key:"play",value:function(){!this._rollingBack&&this._running||(this._rollingBack=!1,this.rollbackStartOffset>this.duration&&(this.offset=this.rollbackStartOffset-(this.rollbackStartOffset-this.offset)%this.duration,this.rollbackStartOffset=0),this._start(this.offset))}},{key:"stop",value:function(){this._stop(),this.offset=0,this.rollbackStartOffset=0;var t=this.direction,n=this._animations;window.requestAnimationFrame((function(){for(var e=0;e<n.length;e++)n[e](0,t)}))}},{key:"reachedToEnd",value:function(){return this.iterations>0&&this.offset>=this.iterations*this.duration}},{key:"restart",value:function(){this._stop(),this.offset=0,this._start()}},{key:"pause",value:function(){this._stop()}},{key:"reverse",value:function(){this.direction=-this.direction}}],[{key:"build",value:function(n,e){return(n=function(t,n){if(B=n,!t||!t.root||!Array.isArray(t.animations))return null;for(var e=document.getElementsByTagName("svg"),r=!1,i=0;i<e.length;i++)if(e[i].id===t.root&&!e[i].svgatorAnimation){(r=e[i]).svgatorAnimation=!0;break}if(!r)return null;var u=t.animations.map((function(t){return z(r,t)})).filter((function(t){return!!t}));return u.length?{element:r,animations:u,animationSettings:t.animationSettings,options:t.options||void 0}:null}(n,e))?{el:n.element,options:n.options||{},player:new t(n.animations,n.animationSettings,n.options)}:null}}]),t}();!function(){for(var t=0,n=["ms","moz","webkit","o"],e=0;e<n.length&&!window.requestAnimationFrame;++e)window.requestAnimationFrame=window[n[e]+"RequestAnimationFrame"],window.cancelAnimationFrame=window[n[e]+"CancelAnimationFrame"]||window[n[e]+"CancelRequestAnimationFrame"];window.requestAnimationFrame||(window.requestAnimationFrame=function(n){var e=Date.now(),r=Math.max(0,16-(e-t)),i=window.setTimeout((function(){n(e+r)}),r);return t=e+r,i},window.cancelAnimationFrame=window.clearTimeout)}();var U=function(t,n){var e=!1,r=null;return function(i){e&&clearTimeout(e),e=setTimeout((function(){return function(){for(var i=0,u=window.innerHeight,o=0,a=window.innerWidth,l=t.parentNode;l instanceof Element;){var s=window.getComputedStyle(l);if("visible"!==s.overflowY||"visible"!==s.overflowX){var f=l.getBoundingClientRect();"visible"!==s.overflowY&&(i=Math.max(i,f.top),u=Math.min(u,f.bottom)),"visible"!==s.overflowX&&(o=Math.max(o,f.left),a=Math.min(a,f.right))}if(l===l.parentNode)break;l=l.parentNode}e=!1;var c=t.getBoundingClientRect(),h=Math.min(c.height,Math.max(0,i-c.top)),v=Math.min(c.height,Math.max(0,c.bottom-u)),d=Math.min(c.width,Math.max(0,o-c.left)),y=Math.min(c.width,Math.max(0,c.right-a)),g=(c.height-h-v)/c.height,p=(c.width-d-y)/c.width,m=Math.round(g*p*100);null!==r&&r===m||(r=m,n(m))}()}),100)}},W=function(){function t(e,r,i){n(this,t),r=Math.max(1,r||1),r=Math.min(r,100),this.el=e,this.onTresholdChange=i&&i.call?i:function(){},this.tresholdPercent=r||1,this.currentVisibility=null,this.visibilityCalculator=U(e,this.onVisibilityUpdate.bind(this)),this.bindScrollWatchers(),this.visibilityCalculator()}return r(t,[{key:"bindScrollWatchers",value:function(){for(var t=this.el.parentNode;t&&(t.addEventListener("scroll",this.visibilityCalculator),t!==t.parentNode&&t!==document);)t=t.parentNode}},{key:"onVisibilityUpdate",value:function(t){var n=this.currentVisibility>=this.tresholdPercent,e=t>=this.tresholdPercent;if(null===this.currentVisibility||n!==e)return this.currentVisibility=t,void this.onTresholdChange(e);this.currentVisibility=t}}]),t}(),Y=/\.0+$/g;function G(t){return Number.isInteger(t)?t+"":t.toFixed(6).replace(Y,"")}function H(t){var n=arguments.length>1&&void 0!==arguments[1]?arguments[1]:" ";return t&&t.length?t.map(G).join(n):""}function Q(t){return G(t.x)+","+G(t.y)}function X(t){return t?null==t.a||t.a>=1?"rgb("+t.r+","+t.g+","+t.b+")":"rgba("+t.r+","+t.g+","+t.b+","+t.a+")":"transparent"}var $={f:null,i:A,u:function(t,n){return function(e){var r=n(e);t.setAttribute("rx",G(r.x)),t.setAttribute("ry",G(r.y))}}},Z={f:null,i:function(t,n,e){return 0===t?n:1===t?e:{width:w(t,n.width,e.width),height:w(t,n.height,e.height)}},u:function(t,n){return function(e){var r=n(e);t.setAttribute("width",G(r.width)),t.setAttribute("height",G(r.height))}}},J=Math.sin,K=Math.cos,tt=Math.acos,nt=Math.asin,et=Math.tan,rt=Math.atan2,it=Math.PI/180,ut=180/Math.PI,ot=Math.sqrt,at=function(){function t(){var e=arguments.length>0&&void 0!==arguments[0]?arguments[0]:1,r=arguments.length>1&&void 0!==arguments[1]?arguments[1]:0,i=arguments.length>2&&void 0!==arguments[2]?arguments[2]:0,u=arguments.length>3&&void 0!==arguments[3]?arguments[3]:1,o=arguments.length>4&&void 0!==arguments[4]?arguments[4]:0,a=arguments.length>5&&void 0!==arguments[5]?arguments[5]:0;n(this,t),this.m=[e,r,i,u,o,a],this.i=null,this.w=null,this.s=null}return r(t,[{key:"determinant",get:function(){var t=this.m;return t[0]*t[3]-t[1]*t[2]}},{key:"isIdentity",get:function(){if(null===this.i){var t=this.m;this.i=1===t[0]&&0===t[1]&&0===t[2]&&1===t[3]&&0===t[4]&&0===t[5]}return this.i}},{key:"point",value:function(t,n){var e=this.m;return{x:e[0]*t+e[2]*n+e[4],y:e[1]*t+e[3]*n+e[5]}}},{key:"translateSelf",value:function(){var t=arguments.length>0&&void 0!==arguments[0]?arguments[0]:0,n=arguments.length>1&&void 0!==arguments[1]?arguments[1]:0;if(!t&&!n)return this;var e=this.m;return e[4]+=e[0]*t+e[2]*n,e[5]+=e[1]*t+e[3]*n,this.w=this.s=this.i=null,this}},{key:"rotateSelf",value:function(){var t=arguments.length>0&&void 0!==arguments[0]?arguments[0]:0;if(t%=360){var n=J(t*=it),e=K(t),r=this.m,i=r[0],u=r[1];r[0]=i*e+r[2]*n,r[1]=u*e+r[3]*n,r[2]=r[2]*e-i*n,r[3]=r[3]*e-u*n,this.w=this.s=this.i=null}return this}},{key:"scaleSelf",value:function(){var t=arguments.length>0&&void 0!==arguments[0]?arguments[0]:1,n=arguments.length>1&&void 0!==arguments[1]?arguments[1]:1;if(1!==t||1!==n){var e=this.m;e[0]*=t,e[1]*=t,e[2]*=n,e[3]*=n,this.w=this.s=this.i=null}return this}},{key:"skewSelf",value:function(t,n){if(n%=360,(t%=360)||n){var e=this.m,r=e[0],i=e[1],u=e[2],o=e[3];t&&(t=et(t*it),e[2]+=r*t,e[3]+=i*t),n&&(n=et(n*it),e[0]+=u*n,e[1]+=o*n),this.w=this.s=this.i=null}return this}},{key:"resetSelf",value:function(){var t=arguments.length>0&&void 0!==arguments[0]?arguments[0]:1,n=arguments.length>1&&void 0!==arguments[1]?arguments[1]:0,e=arguments.length>2&&void 0!==arguments[2]?arguments[2]:0,r=arguments.length>3&&void 0!==arguments[3]?arguments[3]:1,i=arguments.length>4&&void 0!==arguments[4]?arguments[4]:0,u=arguments.length>5&&void 0!==arguments[5]?arguments[5]:0,o=this.m;return o[0]=t,o[1]=n,o[2]=e,o[3]=r,o[4]=i,o[5]=u,this.w=this.s=this.i=null,this}},{key:"recomposeSelf",value:function(){var t=arguments.length>0&&void 0!==arguments[0]?arguments[0]:null,n=arguments.length>1&&void 0!==arguments[1]?arguments[1]:null,e=arguments.length>2&&void 0!==arguments[2]?arguments[2]:null,r=arguments.length>3&&void 0!==arguments[3]?arguments[3]:null,i=arguments.length>4&&void 0!==arguments[4]?arguments[4]:null;return this.isIdentity||this.resetSelf(),t&&(t.x||t.y)&&this.translateSelf(t.x,t.y),n&&this.rotateSelf(n),e&&(e.x&&this.skewSelf(e.x,0),e.y&&this.skewSelf(0,e.y)),!r||1===r.x&&1===r.y||this.scaleSelf(r.x,r.y),i&&(i.x||i.y)&&this.translateSelf(i.x,i.y),this}},{key:"decompose",value:function(){var t=arguments.length>0&&void 0!==arguments[0]?arguments[0]:0,n=arguments.length>1&&void 0!==arguments[1]?arguments[1]:0,e=this.m,r=e[0]*e[0]+e[1]*e[1],i=[[e[0],e[1]],[e[2],e[3]]],u=ot(r);if(0===u)return{origin:{x:e[4],y:e[5]},translate:{x:t,y:n},scale:{x:0,y:0},skew:{x:0,y:0},rotate:0};i[0][0]/=u,i[0][1]/=u;var o=e[0]*e[3]-e[1]*e[2]<0;o&&(u=-u);var a=i[0][0]*i[1][0]+i[0][1]*i[1][1];i[1][0]-=i[0][0]*a,i[1][1]-=i[0][1]*a;var l=ot(i[1][0]*i[1][0]+i[1][1]*i[1][1]);if(0===l)return{origin:{x:e[4],y:e[5]},translate:{x:t,y:n},scale:{x:u,y:0},skew:{x:0,y:0},rotate:0};i[1][0]/=l,i[1][1]/=l,a/=l;var s=0;return i[1][1]<0?(s=tt(i[1][1])*ut,i[0][1]<0&&(s=360-s)):s=nt(i[0][1])*ut,o&&(s=-s),a=rt(a,ot(i[0][0]*i[0][0]+i[0][1]*i[0][1]))*ut,o&&(a=-a),{origin:{x:e[4],y:e[5]},translate:{x:t,y:n},scale:{x:u,y:l},skew:{x:a,y:0},rotate:s}}},{key:"toString",value:function(){return null===this.s&&(this.s="matrix("+this.m.map(st).join(" ")+")"),this.s}}]),t}(),lt=/\.0+$/;function st(t){return Number.isInteger(t)?t:t.toFixed(14).replace(lt,"")}function ft(t,n,e){return t+(n-t)*e}function ct(t,n,e){var r=arguments.length>3&&void 0!==arguments[3]&&arguments[3],i={x:ft(t.x,n.x,e),y:ft(t.y,n.y,e)};return r&&(i.a=ht(t,n)),i}function ht(t,n){return Math.atan2(n.y-t.y,n.x-t.x)}Object.freeze({M:2,L:2,Z:0,H:1,V:1,C:6,Q:4,T:2,S:4,A:7});var vt={},dt=null;function yt(n){var e=function(){if(dt)return dt;if("object"!==("undefined"==typeof document?"undefined":t(document)))return{};var n=document.createElementNS("http://www.w3.org/2000/svg","svg");return n.style.position="absolute",n.style.opacity="0.01",n.style.zIndex="-9999",n.style.left="-9999px",n.style.width="1px",n.style.height="1px",dt={svg:n}}().svg;if(!e)return function(t){return null};var r=document.createElementNS(e.namespaceURI,"path");r.setAttributeNS(null,"d",n),r.setAttributeNS(null,"fill","none"),r.setAttributeNS(null,"stroke","none"),e.appendChild(r);var i=r.getTotalLength();return function(t){var n=r.getPointAtLength(i*t);return{x:n.x,y:n.y}}}function gt(t){return vt[t]?vt[t]:vt[t]=yt(t)}function pt(t,n,e,r){if(!t||!r)return!1;var i=["M",t.x,t.y];if(n&&e&&(i.push("C"),i.push(n.x),i.push(n.y),i.push(e.x),i.push(e.y)),n?!e:e){var u=n||e;i.push("Q"),i.push(u.x),i.push(u.y)}return n||e||i.push("L"),i.push(r.x),i.push(r.y),i.join(" ")}function mt(t,n,e,r){var i=arguments.length>4&&void 0!==arguments[4]?arguments[4]:1,u=pt(t,n,e,r),o=gt(u);try{return o(i)}catch(t){return null}}function bt(t,n,e,r){var i=1-r;return i*i*t+2*i*r*n+r*r*e}function wt(t,n,e,r){return 2*(1-r)*(n-t)+2*r*(e-n)}function xt(t,n,e,r){var i=arguments.length>4&&void 0!==arguments[4]&&arguments[4],u=mt(t,n,null,e,r);return u||(u={x:bt(t.x,n.x,e.x,r),y:bt(t.y,n.y,e.y,r)}),i&&(u.a=At(t,n,e,r)),u}function At(t,n,e,r){return Math.atan2(wt(t.y,n.y,e.y,r),wt(t.x,n.x,e.x,r))}function kt(t,n,e,r,i){var u=i*i;return i*u*(r-t+3*(n-e))+3*u*(t+e-2*n)+3*i*(n-t)+t}function _t(t,n,e,r,i){var u=1-i;return 3*(u*u*(n-t)+2*u*i*(e-n)+i*i*(r-e))}function St(t,n,e,r,i){var u=arguments.length>5&&void 0!==arguments[5]&&arguments[5],o=mt(t,n,e,r,i);return o||(o={x:kt(t.x,n.x,e.x,r.x,i),y:kt(t.y,n.y,e.y,r.y,i)}),u&&(o.a=Mt(t,n,e,r,i)),o}function Mt(t,n,e,r,i){return Math.atan2(_t(t.y,n.y,e.y,r.y,i),_t(t.x,n.x,e.x,r.x,i))}function Ot(t,n,e){var r=arguments.length>3&&void 0!==arguments[3]&&arguments[3];if(Bt(n)){if(It(e))return xt(n,e.start,e,t,r)}else if(Bt(e)){if(n.end)return xt(n,n.end,e,t,r)}else{if(n.end)return e.start?St(n,n.end,e.start,e,t,r):xt(n,n.end,e,t,r);if(e.start)return xt(n,e.start,e,t,r)}return ct(n,e,t,r)}function Et(t,n,e){var r=Ot(t,n,e,!0);return r.a=function(t){var n=arguments.length>1&&void 0!==arguments[1]&&arguments[1];return n?t+Math.PI:t}(r.a)/p,r}function Bt(t){return!t.type||"corner"===t.type}function It(t){return null!=t.start&&!Bt(t)}var jt=new at;var Pt={f:function(t){return t?t.join(" "):""},i:function(n,e,r){if(0===n)return e;if(1===n)return r;var i=e.length;if(i!==r.length)return m(n,e,r);for(var u,o=new Array(i),a=0;a<i;a++){if((u=t(e[a]))!==t(r[a]))return m(n,e,r);if("number"===u)o[a]=b(n,e[a],r[a]);else{if(e[a]!==r[a])return m(n,e,r);o[a]=e[a]}}return o}},Tt={f:null,i:M,u:function(t,n){return function(e){var r=n(e);t.setAttribute("x1",G(r[0])),t.setAttribute("y1",G(r[1])),t.setAttribute("x2",G(r[2])),t.setAttribute("y2",G(r[3]))}}},Ft={f:G,i:b},Rt={f:G,i:function(t,n,e){var r=b(t,n,e);return r<=0?0:r>=1?1:r}},Ct={f:function(t){var n=arguments.length>1&&void 0!==arguments[1]?arguments[1]:" ";return t&&t.length>0&&(t=t.map((function(t){return Math.floor(1e4*t)/1e4}))),H(t,n)},i:function(t,n,e){var r,i,u,o=n.length,a=e.length;if(o!==a)if(0===o)n=O(o=a,0);else if(0===a)a=o,e=O(o,0);else{var l=(u=(r=o)*(i=a)/function(t,n){for(var e;n;)e=n,n=t%n,t=e;return t||1}(r,i))<0?-u:u;n=E(n,Math.floor(l/o)),e=E(e,Math.floor(l/a)),o=a=l}for(var s=[],f=0;f<o;f++)s.push(g(w(t,n[f],e[f]),6));return s}};function Nt(t,n,e,r,i,u,o,a){return n=function(t,n,e){for(var r,i,u,o=t.length-1,a={},l=0;l<=o;l++)(r=t[l]).e&&(r.e=n(r.e)),r.v&&"g"===(i=r.v).t&&i.r&&(u=e.getElementById(i.r))&&(a[i.r]=u.querySelectorAll("stop"));return a}(t,r,a),function(r){var i,u=e(r,t,qt);return u?"c"===u.t?X(u.v):"g"===u.t?(n[u.r]&&function(t,n){for(var e=0,r=t.length;e<r;e++)t[e].setAttribute("stop-color",X(n[e]))}(n[u.r],u.v),(i=u.r)?"url(#"+i+")":"none"):"none":"none"}}function qt(t,n,e){if(0===t)return n;if(1===t)return e;if(n&&e){var r=n.t;if(r===e.t)switch(n.t){case"c":return{t:r,v:_(t,n.v,e.v)};case"g":if(n.r===e.r)return{t:r,v:S(t,n.v,e.v),r:n.r}}}return m(t,n,e)}var Vt={blur:A,brightness:w,contrast:w,"drop-shadow":function(t,n,e){return 0===t?n:1===t?e:{blur:A(t,n.blur,e.blur),offset:x(t,n.offset,e.offset),color:_(t,n.color,e.color)}},grayscale:w,"hue-rotate":b,invert:w,opacity:w,saturate:w,sepia:w};function Lt(t,n,e){if(0===t)return n;if(1===t)return e;var r=n.length;if(r!==e.length)return m(t,n,e);for(var i,u=[],o=0;o<r;o++){if(n[o].type!==e[o].type)return n;if(!(i=Vt[n[o].type]))return m(t,n,e);u.push({type:n.type,value:i(t,n[o].value,e[o].value)})}return u}var zt={blur:function(t){return t?function(n){t.setAttribute("stdDeviation",Q(n))}:null},brightness:function(t,n,e){return(t=Ut(e,n))?function(n){n=G(n),t.map((function(t){return t.setAttribute("slope",n)}))}:null},contrast:function(t,n,e){return(t=Ut(e,n))?function(n){var e=G((1-n)/2);n=G(n),t.map((function(t){t.setAttribute("slope",n),t.setAttribute("intercept",e)}))}:null},"drop-shadow":function(t,n,e){var r=e.getElementById(n+"-blur");if(!r)return null;var i=e.getElementById(n+"-offset");if(!i)return null;var u=e.getElementById(n+"-flood");return u?function(t){r.setAttribute("stdDeviation",Q(t.blur)),i.setAttribute("dx",G(t.offset.x)),i.setAttribute("dy",G(t.offset.y)),u.setAttribute("flood-color",X(t.color))}:null},grayscale:function(t){return t?function(n){t.setAttribute("values",H(function(t){return[.2126+.7874*(t=1-t),.7152-.7152*t,.0722-.0722*t,0,0,.2126-.2126*t,.7152+.2848*t,.0722-.0722*t,0,0,.2126-.2126*t,.7152-.7152*t,.0722+.9278*t,0,0,0,0,0,1,0]}(n)))}:null},"hue-rotate":function(t){return t?function(n){return t.setAttribute("values",G(n))}:null},invert:function(t,n,e){return(t=Ut(e,n))?function(n){n=G(n)+" "+G(1-n),t.map((function(t){return t.setAttribute("tableValues",n)}))}:null},opacity:function(t,n,e){return(t=e.getElementById(n+"-A"))?function(n){return t.setAttribute("tableValues","0 "+G(n))}:null},saturate:function(t){return t?function(n){return t.setAttribute("values",G(n))}:null},sepia:function(t){return t?function(n){return t.setAttribute("values",H(function(t){return[.393+.607*(t=1-t),.769-.769*t,.189-.189*t,0,0,.349-.349*t,.686+.314*t,.168-.168*t,0,0,.272-.272*t,.534-.534*t,.131+.869*t,0,0,0,0,0,1,0]}(n)))}:null}};var Dt=["R","G","B"];function Ut(t,n){var e=Dt.map((function(e){return t.getElementById(n+"-"+e)||null}));return-1!==e.indexOf(null)?null:e}var Wt={fill:Nt,"fill-opacity":Rt,stroke:Nt,"stroke-opacity":Rt,"stroke-width":Ft,"stroke-dashoffset":{f:G,i:b},"stroke-dasharray":Ct,opacity:Rt,transform:function(n,e,r,i){if(!(n=function(n,e){if(!n||"object"!==t(n))return null;var r=!1;for(var i in n)n.hasOwnProperty(i)&&(n[i]&&n[i].length?(n[i].forEach((function(t){t.e&&(t.e=e(t.e))})),r=!0):delete n[i]);return r?n:null}(n,i)))return null;var u=function(t,i,u){var o=arguments.length>3&&void 0!==arguments[3]?arguments[3]:null;return n[t]?r(i,n[t],u):e&&e[t]?e[t]:o};return e&&e.a&&n.o?function(t){var e=r(t,n.o,Et);return jt.recomposeSelf(e,u("r",t,b,0)+e.a,u("k",t,x),u("s",t,x),u("t",t,x)).toString()}:function(t){return jt.recomposeSelf(u("o",t,Ot,null),u("r",t,b,0),u("k",t,x),u("s",t,x),u("t",t,x)).toString()}},"#filter":function(t,n,e,r,i,u,o,a){if(!n.items||!t||!t.length)return null;var l=function(t,n){var e=(t=t.map((function(t){return t&&zt[t[0]]?(n.getElementById(t[1]),zt[t[0]](n.getElementById(t[1]),t[1],n)):null}))).length;return function(n){for(var r=0;r<e;r++)t[r]&&t[r](n[r].value)}}(n.items,a);return l?(t=function(t,n){return t.map((function(t){return t.e=n(t.e),t}))}(t,r),function(n){l(e(n,t,Lt))}):null},"#line":Tt,points:{f:H,i:M},d:Pt,r:Ft,"#size":Z,"#radius":$,_:function(t,n){if(Array.isArray(t))for(var e=0;e<t.length;e++)this[t[e]]=n;else this[t]=n}};return function(t){!function(t,n){if("function"!=typeof n&&null!==n)throw new TypeError("Super expression must either be null or a function");t.prototype=Object.create(n&&n.prototype,{constructor:{value:t,writable:!0,configurable:!0}}),n&&u(t,n)}(o,t);var e=a(o);function o(){return n(this,o),e.apply(this,arguments)}return r(o,null,[{key:"build",value:function(t){var n=l(i(o),"build",this).call(this,t,Wt),e=n.el,r=n.options,u=n.player;return function(t,n,e){if("click"===e.start){return void n.addEventListener("click",(function(){switch(e.click){case"freeze":return!t._running&&t.reachedToEnd()&&(t.offset=0),t._running?t.pause():t.play();case"restart":return t.offset>0?t.restart():t.play();case"reverse":var n=!t._rollingBack&&t._running,r=t.reachedToEnd();return n||r&&1===t.fill?(t.pause(),r&&(t.offset=t.duration-1),t._rollback()):r?t.restart():t.play();case"none":default:return!t._running&&t.offset?t.restart():t.play()}}))}if("hover"===e.start)return n.addEventListener("mouseenter",(function(){return t.reachedToEnd()?t.restart():t.play()})),void n.addEventListener("mouseleave",(function(){switch(e.hover){case"freeze":return t.pause();case"reset":return t.stop();case"reverse":return t.pause(),t._rollback();case"none":default:return}}));if("scroll"===e.start)return void new W(n,e.scroll||25,(function(n){n?t.reachedToEnd()?t.restart():t.play():t.pause()}));t.play()}(u,e,r),u}}]),o}(D)}));
__SVGATOR_PLAYER__.build({"root":"design-3","animations":[{"duration":2000,"direction":1,"iterations":1,"fill":1,"alternate":false,"elements":{"design-3-briefkasten":{"transform":{"data":{"t":{"x":-223.70104217529297,"y":-152.3103141784668}},"keys":{"o":[{"t":600,"v":{"x":212.27899517529298,"y":222.48700209846677,"type":"corner"}},{"t":1200,"v":{"x":223.70104217529297,"y":152.3103141784668,"type":"corner"}}],"s":[{"t":600,"v":{"x":0.1054635683687197,"y":0.1054635683687197}},{"t":1200,"v":{"x":1,"y":1}}]}},"opacity":[{"t":600,"v":0},{"t":1000,"v":1}]},"design-3-shadow-person":{"opacity":[{"t":100,"v":0},{"t":700,"v":1}]},"design-3-person":{"opacity":[{"t":0,"v":0},{"t":400,"v":1}]},"design-3-brief":{"transform":{"data":{"t":{"x":-288.0083923339844,"y":-110.18540573120117}},"keys":{"o":[{"t":1200,"v":{"x":252.00839233398438,"y":118.18540573120117,"type":"corner"}},{"t":2000,"v":{"x":301.54619969398374,"y":120.79097689620119,"type":"corner"}}],"r":[{"t":1200,"v":31.77459629225703},{"t":2000,"v":-42.01201474328937}]}},"opacity":[{"t":1100,"v":0},{"t":1700,"v":1}]},"design-3-finger":{"opacity":[{"t":0,"v":0},{"t":400,"v":1}]}}}],"options":{"start":"click","hover":"freeze","click":"freeze","scroll":50,"font":"embed","exportedIds":"names","title":"Design 3"},"animationSettings":{"duration":2000,"direction":1,"iterations":1,"fill":1,"alternate":false}})]]></script></svg>