<svg width="21" height="20" viewBox="0 0 21 20" fill="none" xmlns="http://www.w3.org/2000/svg">
<path d="M2.81749 9.2078C2.39457 8.59564 1.57383 8.45407 0.984314 8.8916C0.394791 9.32913 0.259728 10.1801 0.682638 10.7922L2.81749 9.2078ZM19.9942 2.87893C20.4178 2.26897 20.284 1.41733 19.6951 0.97676C19.1062 0.536185 18.2853 0.673502 17.8616 1.28347L19.9942 2.87893ZM7.57154 18.4265L6.50411 19.2187C6.75067 19.5756 7.1476 19.7878 7.57056 19.7889C7.99352 19.79 8.39077 19.5798 8.63782 19.2242L7.57154 18.4265ZM0.682638 10.7922L6.50411 19.2187L8.63895 17.6343L2.81749 9.2078L0.682638 10.7922ZM8.63782 19.2242L19.9942 2.87893L17.8616 1.28347L6.50525 17.6287L8.63782 19.2242Z" fill="#FF9721"/>
</svg>
