<svg width="20" height="20" viewBox="0 0 20 20" fill="none" xmlns="http://www.w3.org/2000/svg">
<path d="M16.8912 2.51011C17.2368 2.17931 17.6967 1.99642 18.1738 2.00005C18.651 2.00368 19.1081 2.19354 19.4487 2.52957C19.7893 2.86559 19.9867 3.3215 19.9994 3.8011C20.012 4.28069 19.8388 4.74645 19.5163 5.1001L9.72714 17.4087C9.55881 17.591 9.35565 17.7373 9.1298 17.8388C8.90396 17.9404 8.66007 17.9951 8.41271 17.9997C8.16536 18.0043 7.91962 17.9587 7.69019 17.8656C7.46076 17.7726 7.25236 17.634 7.07743 17.4581L0.585654 10.9313C0.404869 10.7619 0.259866 10.5577 0.159295 10.3307C0.0587241 10.1038 0.00464558 9.85884 0.000286364 9.61044C-0.00407285 9.36204 0.0413766 9.11531 0.133923 8.88495C0.226468 8.65459 0.364215 8.44534 0.538945 8.26967C0.713676 8.09399 0.921809 7.9555 1.15093 7.86246C1.38005 7.76941 1.62547 7.72372 1.87253 7.7281C2.1196 7.73248 2.36326 7.78685 2.58897 7.88797C2.81469 7.98908 3.01783 8.13487 3.18629 8.31663L8.32377 13.4793L16.8445 2.56438C16.8599 2.54539 16.8763 2.52727 16.8936 2.51011H16.8912Z" fill="white"/>
</svg>
