<svg width="12" height="11" viewBox="0 0 12 11" fill="none" xmlns="http://www.w3.org/2000/svg">
<path d="M1.60996 5.06429C1.36829 4.7276 0.899299 4.64974 0.56243 4.89038C0.22556 5.13102 0.148381 5.59903 0.390044 5.93571L1.60996 5.06429ZM11.4252 1.58341C11.6673 1.24793 11.5908 0.779533 11.2543 0.537217C10.9178 0.294901 10.4487 0.370425 10.2066 0.705905L11.4252 1.58341ZM4.32656 10.1346L3.7166 10.5703C3.85749 10.7666 4.08431 10.8833 4.326 10.8839C4.56769 10.8845 4.79469 10.7689 4.93586 10.5733L4.32656 10.1346ZM0.390044 5.93571L3.7166 10.5703L4.93651 9.69884L1.60996 5.06429L0.390044 5.93571ZM4.93586 10.5733L11.4252 1.58341L10.2066 0.705905L3.71725 9.69581L4.93586 10.5733Z" fill="#7F7F7F"/>
</svg>
