<svg width="20" height="20" viewBox="0 0 20 20" fill="none" xmlns="http://www.w3.org/2000/svg">
<circle cx="10" cy="10" r="8.5" fill="white" stroke="#7F7F7F"/>
<path d="M6.16785 6.16785C6.22091 6.11464 6.28396 6.07243 6.35336 6.04364C6.42278 6.01483 6.49719 6 6.57234 6C6.64748 6 6.72189 6.01483 6.79129 6.04364C6.86071 6.07243 6.92375 6.11464 6.97682 6.16785L10.0002 9.19234L13.0235 6.16785C13.0767 6.11473 13.1397 6.07259 13.2091 6.04384C13.2786 6.0151 13.3529 6.00031 13.428 6.00031C13.5032 6.00031 13.5776 6.0151 13.6469 6.04384C13.7163 6.07259 13.7794 6.11473 13.8325 6.16785C13.8856 6.22097 13.9278 6.28403 13.9565 6.35342C13.9853 6.42282 14 6.49721 14 6.57233C14 6.64745 13.9853 6.72183 13.9565 6.79123C13.9278 6.86064 13.8856 6.9237 13.8325 6.97682L10.808 10.0002L13.8325 13.0235C13.8856 13.0767 13.9278 13.1397 13.9565 13.2091C13.9853 13.2784 14 13.3528 14 13.428C14 13.5031 13.9853 13.5775 13.9565 13.6469C13.9278 13.7163 13.8856 13.7794 13.8325 13.8325C13.7794 13.8856 13.7163 13.9277 13.6469 13.9565C13.5776 13.9853 13.5032 14 13.428 14C13.3529 14 13.2786 13.9853 13.2091 13.9565C13.1397 13.9277 13.0767 13.8856 13.0235 13.8325L10.0002 10.808L6.97682 13.8325C6.9237 13.8856 6.86064 13.9277 6.79124 13.9565C6.72183 13.9853 6.64745 14 6.57234 14C6.49721 14 6.42282 13.9853 6.35342 13.9565C6.28403 13.9277 6.22097 13.8856 6.16785 13.8325C6.11473 13.7794 6.07259 13.7163 6.04385 13.6469C6.0151 13.5775 6.00031 13.5031 6.00031 13.428C6.00031 13.3528 6.0151 13.2784 6.04385 13.2091C6.07259 13.1397 6.11473 13.0767 6.16785 13.0235L9.19235 10.0002L6.16785 6.97682C6.11465 6.92374 6.07243 6.8607 6.04364 6.79129C6.01483 6.72189 6 6.64748 6 6.57233C6 6.49718 6.01483 6.42278 6.04364 6.35336C6.07243 6.28396 6.11465 6.22091 6.16785 6.16785Z" fill="#7F7F7F" stroke="#7F7F7F" stroke-width="0.5"/>
</svg>
