<svg width="22" height="19" viewBox="0 0 22 19" fill="none" xmlns="http://www.w3.org/2000/svg">
<path d="M19.4317 4.11368C18.5252 2.99943 17.2937 2.1192 15.7374 1.47324C14.1811 0.827274 12.4812 0.504333 10.6377 0.504333C8.79428 0.504333 7.09436 0.827274 5.53803 1.47324C3.98171 2.1192 2.75028 2.99927 1.84365 4.11368C0.936988 5.22802 0.483734 6.44242 0.483734 7.75701C0.483734 8.8902 0.82549 9.95198 1.50928 10.9416C2.19307 11.9313 3.12788 12.7625 4.31414 13.4349C4.23095 13.737 4.13275 14.024 4.01938 14.2962C3.90606 14.5681 3.80409 14.7911 3.71343 14.9649C3.62269 15.1385 3.50004 15.3313 3.34504 15.5426C3.19028 15.7543 3.07318 15.9036 2.99384 15.9905C2.91457 16.0774 2.78426 16.2208 2.60282 16.4211C2.42162 16.6212 2.30445 16.7517 2.25162 16.8122C2.24396 16.816 2.21379 16.8498 2.16092 16.9143C2.10809 16.9785 2.08157 17.0104 2.08157 17.0104L2.01358 17.1124C1.97575 17.1687 1.95876 17.2047 1.96249 17.2197C1.96631 17.2349 1.95876 17.2727 1.93987 17.3329C1.92094 17.3935 1.92288 17.4389 1.94551 17.4691V17.4804C1.97575 17.6088 2.03613 17.7128 2.12678 17.7921C2.21744 17.8711 2.31961 17.9108 2.43282 17.9108H2.48954C2.98074 17.8502 3.41133 17.7674 3.78146 17.6616C5.76095 17.1554 7.49867 16.2413 8.9945 14.919C9.56107 14.9795 10.1088 15.0096 10.6376 15.0096C12.481 15.0096 14.1811 14.6867 15.7373 14.0406C17.2936 13.3945 18.5251 12.5146 19.4316 11.4003C20.3383 10.2861 20.7916 9.07156 20.7916 7.75697C20.7917 6.44258 20.3384 5.22802 19.4317 4.11368ZM18.1568 10.6469C17.367 11.5382 16.3018 12.2466 14.9608 12.7716C13.6198 13.2965 12.1786 13.5592 10.6374 13.5592C10.1766 13.5592 9.68559 13.529 9.1643 13.4685L8.51834 13.4007L8.03103 13.8314C7.1019 14.6474 6.06297 15.2933 4.91462 15.7692C5.26209 15.1574 5.52652 14.5076 5.70792 13.8203L6.01387 12.7322L5.02798 12.1658C4.04582 11.6064 3.28475 10.9435 2.74445 10.1766C2.20422 9.40994 1.93423 8.60326 1.93423 7.75717C1.93423 6.7221 2.32898 5.75891 3.11843 4.86741C3.90812 3.97599 4.97324 3.26767 6.31431 2.74261C7.65538 2.21752 9.09635 1.95475 10.6377 1.95475C12.1789 1.95475 13.6198 2.2174 14.9608 2.74245C16.3017 3.26755 17.367 3.97583 18.1567 4.86725C18.9462 5.75875 19.3409 6.72198 19.3409 7.75697C19.3409 8.79196 18.9462 9.75539 18.1568 10.6469Z" fill="#7F7F7F" stroke="#7F7F7F" stroke-width="0.7"/>
</svg>
