<svg width="108" height="94" viewBox="0 0 108 94" fill="none" xmlns="http://www.w3.org/2000/svg">
<path d="M76.9711 77.4313C64.2236 90.315 43.4143 90.424 30.5312 77.6773L37.7785 70.3526C51.5002 86 53.5002 90.5 69.647 70.1846L90.3212 49.2899C99.0693 40.4485 98.9969 26.17 90.1531 17.4195C81.313 8.67256 67.0308 8.74806 58.2826 17.5895L50.9587 10.3428C63.7061 -2.54063 84.5154 -2.65024 97.3984 10.0968C110.281 22.8439 110.392 43.6532 97.6451 56.5366L76.9711 77.4313Z" fill="#3685D6"/>
<path fill-rule="evenodd" clip-rule="evenodd" d="M77.6481 76.7353C90.9087 64.0474 89.6599 43.4695 76.6246 30.5533L56.1123 10.229C43.1991 -2.56521 22.3301 -2.47131 9.53267 10.4419C-3.26162 23.3551 -3.16455 44.2271 9.74872 57.0213L30.2891 77.3769C37.8662 84.7536 42.3824 88.841 45.5372 90.725C48.6732 92.6 51.3616 93.213 53.7746 93.248C57.8213 93.307 61.8931 91.504 67.3826 86.4593C71.5076 82.6692 73.2853 80.9134 77.6481 76.7353ZM70.5248 69.2928C79.5509 60.6548 78.2458 46.665 69.373 37.8706L48.8608 17.5462C39.988 8.75489 25.6444 8.82059 16.8531 17.6934C8.06172 26.5692 8.12747 40.9096 17.0002 49.704L37.5094 70.0252C53.3458 85.4484 53.4961 85.2262 60.4096 78.8729C64.4751 75.1391 66.2246 73.4083 70.5248 69.2928Z" fill="#3685D6"/>
</svg>
