<svg width="329" height="329" viewBox="0 0 329 329" fill="none" xmlns="http://www.w3.org/2000/svg">
<path d="M194.641 164.499L322.748 36.3892C331.084 28.0561 331.084 14.5828 322.748 6.24977C314.415 -2.08326 300.941 -2.08326 292.608 6.24977L164.498 134.36L36.3921 6.24977C28.0552 -2.08326 14.5857 -2.08326 6.25269 6.24977C-2.08423 14.5828 -2.08423 28.0561 6.25269 36.3892L134.359 164.499L6.25269 292.609C-2.08423 300.942 -2.08423 314.415 6.25269 322.748C10.4055 326.905 15.8659 328.993 21.3224 328.993C26.7789 328.993 32.2353 326.905 36.3921 322.748L164.498 194.639L292.608 322.748C296.765 326.905 302.221 328.993 307.678 328.993C313.134 328.993 318.591 326.905 322.748 322.748C331.084 314.415 331.084 300.942 322.748 292.609L194.641 164.499Z" fill="black"/>
</svg>
