<svg width="132" height="139" viewBox="0 0 132 139" fill="none" xmlns="http://www.w3.org/2000/svg">
<path d="M51.2436 49.0917L75.1316 76.7328L75.4651 76.4446L51.5771 48.8034L51.2436 49.0917Z" fill="#FF9721"/>
<path d="M53.6838 44.3574L89.6836 50.5768L89.7586 50.1425L53.7588 43.9231L53.6838 44.3574Z" fill="#FF9721"/>
<path d="M77.1407 26.0873L52.8092 38.4675L53.0091 38.8604L77.3406 26.4802L77.1407 26.0873Z" fill="#FF9721"/>
<path d="M125.507 54.0268C125.512 57.3485 124.437 60.5819 122.444 63.2391C121.13 64.9739 119.471 66.4169 117.57 67.4768C115.478 68.6289 113.145 69.2764 110.758 69.3675C108.371 69.4587 105.995 68.9911 103.821 68.0019C103.641 67.9282 103.462 67.8407 103.287 67.7485C102.205 67.2155 101.194 66.5519 100.274 65.7725C98.3009 64.109 96.7788 61.975 95.8484 59.5676C94.918 57.1603 94.6093 54.5574 94.9509 51.9992C95.2924 49.4411 96.2731 47.0102 97.8025 44.9313C99.3318 42.8524 101.36 41.1925 103.701 40.1048C106.041 39.0172 108.618 38.5369 111.193 38.7085C113.769 38.88 116.259 39.6977 118.434 41.0862C120.61 42.4746 122.401 44.389 123.641 46.6523C124.881 48.9157 125.53 51.4552 125.53 54.036L125.507 54.0268Z" fill="#FF9721"/>
<path d="M120.695 64.5714C126.518 58.7487 126.518 49.3081 120.695 43.4853C114.873 37.6625 105.432 37.6625 99.6092 43.4853C93.7865 49.3081 93.7865 58.7487 99.6092 64.5714C105.432 70.3942 114.873 70.3942 120.695 64.5714Z" fill="#FFD5A5"/>
<path d="M100.596 65.4383L100.596 60.0528C100.596 60.0528 101.231 59.166 101.14 58.6723C101.049 58.1785 99.729 55.4771 99.3305 55.4013C98.9319 55.3255 97.0596 56.6366 97.1282 57.2719C97.1967 57.9072 98.666 60.0805 98.8823 60.2288L98.8823 63.7224L99.7797 64.6757L100.596 65.4383Z" fill="#E4897B"/>
<path d="M105.322 62.6265L103.987 67.5966C103.811 67.5229 103.636 67.4353 103.471 67.3478C102.422 66.8273 101.442 66.1808 100.55 65.4224C100.656 65.1829 103.392 59.0061 104.415 59.0798L105.322 62.6265Z" fill="white"/>
<path opacity="0.3" d="M105.322 62.6265L103.987 67.5966C103.811 67.5229 103.636 67.4353 103.471 67.3478C102.422 66.8273 101.442 66.1808 100.55 65.4224C100.656 65.1829 103.392 59.0061 104.415 59.0798L105.322 62.6265Z" fill="white"/>
<path d="M119.224 48.8956C118.841 50.3604 120.928 54.3908 120.08 61.7238C119.233 69.0568 111.195 68.6054 107.579 66.1641C103.964 63.7228 104.59 50.4525 105.834 47.8362C107.077 45.2199 119.224 48.8956 119.224 48.8956Z" fill="#2E2E2E"/>
<path d="M121.347 60.7519C121.269 60.9684 121.204 61.1756 121.131 61.3875C121.057 61.5994 120.983 61.8067 120.914 62.0094C120.78 62.4101 120.651 62.8062 120.523 63.1885C120.265 63.9532 120.034 64.6809 119.813 65.3672C119.057 66.0229 118.232 66.5958 117.353 67.0761C115.321 68.1975 113.055 68.8286 110.736 68.9189C108.417 69.0093 106.109 68.5565 103.996 67.5966C103.821 67.5229 103.646 67.4354 103.48 67.3479C103.48 67.2005 103.48 67.0485 103.48 66.9103C103.48 66.7721 103.48 66.6201 103.48 66.4819C103.48 66.0582 103.503 65.6666 103.512 65.2935C103.512 65.0494 103.535 64.8053 103.54 64.5842C103.54 64.4644 103.54 64.3585 103.54 64.2433C103.563 63.8334 103.581 63.4649 103.609 63.1148C103.609 63.0043 103.609 62.8891 103.632 62.7832C103.632 62.4561 103.682 62.166 103.701 61.8942C103.871 60.1899 104.097 59.5174 104.244 59.2457C104.265 59.2041 104.292 59.1654 104.323 59.1305C104.364 59.0798 104.387 59.0752 104.387 59.0752L104.991 59.0246C105.985 58.937 108.049 58.7943 109.915 58.8035H110.02C110.269 58.8035 110.513 58.8035 110.762 58.8403C111.725 58.891 112.687 58.9739 113.636 59.0891L114.696 59.2364C115.078 59.2917 115.46 59.3562 115.843 59.4207L116.004 59.4529C117.414 59.6904 118.808 60.0087 120.182 60.4064C120.564 60.5124 120.946 60.6275 121.324 60.7473L121.347 60.7519Z" fill="white"/>
<path opacity="0.3" d="M121.324 60.7518C121.25 60.9591 121.177 61.1664 121.117 61.3736C121.057 61.5809 120.969 61.7928 120.9 61.9955C120.767 62.3962 120.638 62.7923 120.509 63.1747C120.251 63.9393 120.021 64.667 119.8 65.3534C119.043 66.0091 118.218 66.582 117.34 67.0623C115.308 68.1836 113.042 68.8147 110.723 68.9051C108.403 68.9954 106.095 68.5426 103.982 67.5828C103.807 67.5091 103.632 67.4215 103.466 67.334C103.466 67.1866 103.466 67.0392 103.466 66.901C103.466 66.7629 103.466 66.6109 103.466 66.4727C103.466 66.0489 103.489 65.6574 103.498 65.2843C103.498 65.0402 103.521 64.796 103.526 64.5749C103.526 64.4552 103.526 64.3492 103.526 64.2341C103.526 63.8241 103.567 63.4556 103.595 63.1056C103.595 62.995 103.595 62.8799 103.618 62.7739C103.618 62.4469 103.669 62.1567 103.687 61.8849C103.858 60.1806 104.083 59.5081 104.231 59.2364C104.252 59.1948 104.278 59.1561 104.309 59.1212C104.35 59.0706 104.373 59.0659 104.373 59.0659L104.977 59.0153C105.972 58.9278 108.035 58.785 109.901 58.7942H110.007C110.256 58.7942 110.5 58.7942 110.748 58.831C111.711 58.8817 112.674 58.9646 113.623 59.0798L114.682 59.2272C115.064 59.2824 115.447 59.3469 115.829 59.4114L115.99 59.4437C117.4 59.6811 118.795 59.9995 120.168 60.3971C120.583 60.5169 120.965 60.632 121.324 60.7518Z" fill="white"/>
<path d="M110.82 63.808C114.207 63.0111 116.598 59.6242 116.598 59.6242C113.41 59.2258 114.908 54.5887 114.908 54.5887L110.988 55.3165C111.078 55.8634 111.129 56.416 111.14 56.9701C111.617 59.0265 108.828 58.8273 108.828 58.8273C108.142 60.117 110.82 63.808 110.82 63.808Z" fill="#E4897B"/>
<path opacity="0.2" d="M110.988 55.3165C111.078 55.8634 111.129 56.416 111.14 56.9701C113.789 56.9701 114.908 54.5887 114.908 54.5887L110.988 55.3165Z" fill="black"/>
<path d="M113.153 44.3586C109.749 44.1743 108.547 45.9385 108.109 49.4253C107.556 53.7966 108.358 56.9656 112.669 56.2609C118.524 55.3166 118.814 44.6718 113.153 44.3586Z" fill="#E4897B"/>
<path d="M110.32 49.3654C110.02 49.8672 109.661 50.3311 109.251 50.7473C109.342 50.8949 109.473 51.0139 109.629 51.0905C109.784 51.1671 109.958 51.1982 110.131 51.1802L110.32 49.3654Z" fill="#DE5753"/>
<path d="M112.42 49.1996C112.42 49.4806 112.536 49.7201 112.72 49.7339C112.904 49.7477 113.074 49.5312 113.097 49.2733C113.121 49.0153 112.987 48.7528 112.798 48.739C112.609 48.7252 112.443 48.9186 112.42 49.1996Z" fill="#263238"/>
<path d="M112.877 48.739L112.287 48.4534C112.287 48.4534 112.573 48.9877 112.877 48.739Z" fill="#263238"/>
<path d="M108.952 48.868C108.929 49.1489 109.062 49.3885 109.251 49.4023C109.44 49.4161 109.606 49.2042 109.629 48.9417C109.652 48.6791 109.514 48.4258 109.33 48.4074C109.145 48.3889 108.975 48.5916 108.952 48.868Z" fill="#263238"/>
<path d="M109.408 48.4119L108.818 48.1263C108.818 48.1263 109.081 48.6606 109.408 48.4119Z" fill="#263238"/>
<path d="M114.037 47.6058C114.012 47.6065 113.986 47.6005 113.964 47.5884C113.941 47.5762 113.922 47.5584 113.908 47.5367C113.743 47.3559 113.539 47.2145 113.312 47.1229C113.085 47.0312 112.84 46.9916 112.595 47.007C112.575 47.0082 112.554 47.0054 112.535 46.9987C112.515 46.9919 112.497 46.9814 112.482 46.9677C112.467 46.954 112.454 46.9374 112.445 46.9189C112.436 46.9003 112.431 46.8802 112.43 46.8596C112.427 46.8391 112.429 46.8183 112.435 46.7986C112.441 46.7788 112.451 46.7606 112.464 46.7449C112.478 46.7293 112.494 46.7167 112.513 46.7079C112.532 46.699 112.552 46.6942 112.572 46.6938C112.87 46.671 113.17 46.7188 113.446 46.8332C113.722 46.9477 113.967 47.1255 114.162 47.3524C114.186 47.3863 114.196 47.4283 114.19 47.4695C114.184 47.5107 114.162 47.548 114.129 47.5735C114.102 47.593 114.07 47.6042 114.037 47.6058Z" fill="#263238"/>
<path d="M108.745 46.9334C108.709 46.9356 108.674 46.9255 108.644 46.9048C108.615 46.8841 108.594 46.854 108.584 46.8195C108.575 46.785 108.577 46.7482 108.591 46.7153C108.605 46.6824 108.63 46.6553 108.662 46.6386C108.882 46.4888 109.134 46.3918 109.397 46.3551C109.661 46.3183 109.929 46.3428 110.182 46.4267C110.201 46.4347 110.218 46.4465 110.233 46.4614C110.247 46.4763 110.259 46.494 110.266 46.5134C110.273 46.5328 110.276 46.5535 110.276 46.5743C110.275 46.595 110.269 46.6153 110.26 46.634C110.244 46.6715 110.214 46.7013 110.176 46.7167C110.138 46.7322 110.095 46.7323 110.058 46.7169C109.85 46.6545 109.632 46.6395 109.418 46.6729C109.205 46.7064 109.001 46.7876 108.823 46.9104C108.8 46.927 108.773 46.9351 108.745 46.9334Z" fill="#263238"/>
<path d="M116.561 50.305C116.561 50.305 115.124 47.4215 115.483 45.2705C115.483 45.2705 108.883 42.1429 108.173 48.9554C108.173 48.9554 107.846 42.8338 113.701 43.0181C119.555 43.2023 119.072 51.7698 115.907 54.1604C115.916 54.1834 117.455 52.1106 116.561 50.305Z" fill="#263238"/>
<path d="M115.967 50.996C116.022 50.6032 116.23 50.248 116.546 50.0081C116.862 49.7682 117.26 49.663 117.653 49.7155C118.698 49.8905 119.085 52.083 116.432 52.4792C116.05 52.516 115.856 52.1383 115.967 50.996Z" fill="#E4897B"/>
<path d="M114.576 44.9435C114.341 47.762 115.038 50.5797 116.562 52.9628C118.478 55.8601 116.276 58.3935 116.276 58.3935C116.276 58.3935 119.68 56.2286 119.8 52.9628C119.8 52.9628 122.609 45.1554 116.773 43.0504C116.773 43.0504 116.75 41.2955 112.946 41.6271C109.141 41.9587 106.078 45.2245 105.498 49.3793C104.917 53.534 107.082 58.1678 107.082 58.1678C107.082 58.1678 104.779 43.4281 114.576 44.9435Z" fill="#2E2E2E"/>
<path d="M114.797 45.0034C114.544 45.9878 114.448 47.006 114.512 48.0204C114.569 49.051 114.732 50.0729 115 51.0697C115.263 52.072 115.646 53.0387 116.142 53.9485C116.628 54.8685 117.281 55.69 118.068 56.3714C117.25 55.7153 116.563 54.9124 116.041 54.0038C115.506 53.1018 115.082 52.1382 114.779 51.1342C114.471 50.1272 114.266 49.0917 114.166 48.0434C114.062 46.9792 114.125 45.9051 114.355 44.8606L114.797 45.0034Z" fill="#2E2E2E"/>
<path d="M122.084 62.9628C121.423 63.8498 120.661 64.6568 119.813 65.3672C119.057 66.0229 118.232 66.5958 117.354 67.0761C117.404 66.8827 117.469 66.6846 117.538 66.4865C118.124 64.9603 118.953 63.5387 119.993 62.2765C120.409 61.7452 120.858 61.2406 121.338 60.7657C121.702 61.0651 121.932 61.8481 122.084 62.9628Z" fill="white"/>
<path opacity="0.3" d="M122.084 62.9628C121.423 63.8498 120.661 64.6568 119.813 65.3672C119.057 66.0229 118.232 66.5958 117.354 67.0761C117.404 66.8827 117.469 66.6846 117.538 66.4865C118.124 64.9603 118.953 63.5387 119.993 62.2765C120.409 61.7452 120.858 61.2406 121.338 60.7657C121.702 61.0651 121.932 61.8481 122.084 62.9628Z" fill="white"/>
<path d="M115.403 54.6436C113.61 57.2335 110.378 57.2335 108.828 55.2413C107.434 53.4482 108.031 51.0575 108.031 50.4598L115.004 51.4559C114.389 52.5796 114.935 53.2303 115.403 54.6436Z" fill="white"/>
<path d="M116.197 52.4228L115.203 54.92L115.318 54.9911L116.312 52.4939L116.197 52.4228Z" fill="white"/>
<path d="M113.712 52.1682L113.671 52.0003L113.919 51.9175L115.492 51.2552L115.545 51.4183L113.966 52.083L113.712 52.1682Z" fill="white"/>
<path d="M83.3648 111.826C92.345 111.826 99.6248 104.546 99.6248 95.5655C99.6248 86.5853 92.345 79.3055 83.3648 79.3055C74.3846 79.3055 67.1047 86.5853 67.1047 95.5655C67.1047 104.546 74.3846 111.826 83.3648 111.826Z" fill="#FF9721"/>
<path d="M99.0917 95.5656C99.0955 99.0366 97.9447 102.41 95.8205 105.155C95.2596 105.889 94.6338 106.57 93.9505 107.191C93.3239 107.767 92.6483 108.287 91.9313 108.746C91.906 108.772 91.875 108.792 91.8407 108.805C91.2817 109.172 90.6978 109.499 90.0932 109.785C86.9679 111.265 83.4416 111.673 80.0608 110.946C76.68 110.219 73.6334 108.397 71.3931 105.763C69.7512 103.834 68.5996 101.536 68.0362 99.0665C67.4729 96.5966 67.5145 94.0273 68.1576 91.5769C68.8007 89.1266 70.0261 86.8679 71.7297 84.993C73.4333 83.118 75.5645 81.6824 77.9422 80.8081C80.3199 79.9339 82.8735 79.6469 85.3859 79.9717C87.8983 80.2964 90.2951 81.2233 92.3723 82.6734C94.4495 84.1235 96.1456 86.0539 97.3165 88.3004C98.4873 90.5469 99.0981 93.043 99.097 95.5762L99.0917 95.5656Z" fill="#FFD5A5"/>
<path d="M86.6674 94.6918L88.7985 98.5171C88.8459 98.6008 88.8657 98.6973 88.8552 98.793C88.8447 98.8886 88.8043 98.9785 88.7399 99.0499L87.0883 100.957C87.0399 101.013 86.9789 101.057 86.9104 101.085C86.8418 101.113 86.7675 101.124 86.6937 101.118C86.6199 101.112 86.5486 101.088 86.4857 101.049C86.4228 101.01 86.37 100.957 86.3318 100.893L84.4244 97.7499L86.6674 94.6918Z" fill="#263238"/>
<path opacity="0.4" d="M86.5607 95.1021L88.4414 98.645L86.6513 100.749L84.728 97.6274L86.5607 95.1021Z" fill="#FF9721"/>
<path d="M91.9313 108.741C91.9313 108.821 91.9579 108.895 91.9686 108.97L91.8407 108.799C91.2817 109.166 90.6978 109.494 90.0933 109.78C90.2318 108.714 90.3863 107.723 90.5248 106.908C90.6633 106.093 90.7592 105.55 90.8445 105.118C90.9297 104.687 90.9777 104.436 90.9883 104.393C91.1733 104.429 91.3525 104.49 91.5211 104.575C92.3362 104.974 93.1194 105.928 93.9239 107.191C93.3055 107.764 92.6389 108.282 91.9313 108.741Z" fill="#05AAAA"/>
<path d="M91.9949 108.97L91.8671 108.799C91.3081 109.166 90.7242 109.494 90.1196 109.78C86.9943 111.26 83.468 111.668 80.0872 110.941C76.7064 110.214 73.6598 108.392 71.4195 105.757L71.0359 105.837L71.4141 105.752L72.2453 105.582H72.3305L72.4957 105.55C73.2149 105.411 73.9501 105.289 74.6853 105.182L75.6497 105.049C76.0759 104.99 76.5021 104.942 76.923 104.894H77.0242C77.9991 104.782 78.9741 104.692 79.9224 104.623L80.8441 104.559L82.0375 104.489L83.1883 104.436H83.6518L84.9837 104.393C86.3902 104.393 87.6476 104.393 88.6012 104.393H89.2512H90.1782L90.9987 104.425C91.0626 104.66 91.1265 104.905 91.1851 105.155C91.4568 106.221 91.7179 107.462 91.9417 108.768C91.947 108.821 91.9576 108.895 91.9949 108.97Z" fill="#07ACAC"/>
<path d="M76.8911 104.857C78.6173 106.455 84.0545 108.272 84.0545 108.272C84.0545 108.272 85.5219 105.123 84.9465 104.298C83.3909 104.037 82.6343 103.312 82.3253 102.38C82.1551 101.803 82.1008 101.198 82.1655 100.6C82.1898 100.268 82.2324 99.937 82.2934 99.6093L77.0776 95.7307C77.7435 98.288 78.5853 102.998 76.8911 104.857Z" fill="#EBB376"/>
<path opacity="0.2" d="M78.2656 98.1922C78.4734 101.336 81.0573 102.204 82.3253 102.38C82.1551 101.803 82.1008 101.198 82.1655 100.6L78.2656 98.1922Z" fill="black"/>
<path d="M87.3066 88.2613C87.3066 88.2613 88.0525 93.1521 85.4526 95.0328C82.8527 96.9135 82.858 87.8085 82.858 87.8085L87.3066 88.2613Z" fill="#263238"/>
<path d="M77.914 98.922C78.458 99.7277 79.2516 100.332 80.1727 100.643C81.0938 100.954 82.0915 100.954 83.0125 100.643C84.2132 100.264 85.2235 99.4409 85.8362 98.3413C85.9239 98.1899 86.0022 98.0334 86.0706 97.8724C87.3493 94.8836 87.7542 89.6518 84.5949 87.6966C84.0611 87.3589 83.4659 87.13 82.8435 87.0231C82.221 86.9161 81.5836 86.9332 80.9678 87.0733C80.3519 87.2134 79.7698 87.4737 79.2549 87.8394C78.74 88.2052 78.3024 88.669 77.9672 89.2043C77.5586 89.8464 77.3101 90.5773 77.2427 91.3354C76.8538 94.8144 76.4595 96.8548 77.914 98.922Z" fill="#EBB376"/>
<path d="M82.336 93.1895C82.2721 93.4665 82.3999 93.7223 82.5864 93.7542C82.7729 93.7862 82.9593 93.5784 83.0073 93.3014C83.0552 93.0243 82.9433 92.7686 82.7622 92.7313C82.5811 92.694 82.4053 92.9018 82.336 93.1895Z" fill="#263238"/>
<path d="M85.5272 93.7329C85.4632 94.01 85.5911 94.2657 85.7776 94.2977C85.964 94.3296 86.1505 94.1272 86.1984 93.8448C86.2464 93.5625 86.1345 93.3121 85.9534 93.2801C85.7722 93.2481 85.6017 93.4666 85.5272 93.7329Z" fill="#263238"/>
<path d="M84.4938 93.7009C84.6797 94.6278 84.9934 95.5243 85.4261 96.3648C85.2078 96.4674 84.9695 96.5206 84.7282 96.5206C84.4869 96.5206 84.2486 96.4674 84.0303 96.3648L84.4938 93.7009Z" fill="#D58745"/>
<path d="M81.5261 91.9855C81.5552 91.9952 81.5865 91.9968 81.6165 91.9903C81.6465 91.9837 81.6742 91.9692 81.6966 91.9482C81.8474 91.8009 82.0302 91.6906 82.2308 91.6259C82.4314 91.5612 82.6443 91.5438 82.8527 91.5752C82.8958 91.5858 82.9413 91.5789 82.9793 91.5559C83.0173 91.5329 83.0445 91.4958 83.0551 91.4527C83.0657 91.4096 83.0588 91.364 83.0358 91.3261C83.0128 91.2881 82.9757 91.2608 82.9326 91.2502C82.67 91.203 82.3998 91.2194 82.1449 91.2982C81.89 91.3771 81.6577 91.5159 81.4675 91.7031C81.452 91.7184 81.4398 91.7367 81.4314 91.7568C81.423 91.7769 81.4187 91.7985 81.4187 91.8203C81.4187 91.8421 81.423 91.8637 81.4314 91.8838C81.4398 91.9039 81.452 91.9222 81.4675 91.9375C81.485 91.9559 81.5046 91.972 81.5261 91.9855Z" fill="#263238"/>
<path d="M87.0884 92.8644C87.1196 92.8746 87.1532 92.8746 87.1843 92.8644C87.2059 92.8589 87.2262 92.8491 87.2439 92.8355C87.2616 92.822 87.2763 92.805 87.2873 92.7856C87.2982 92.7662 87.3051 92.7447 87.3076 92.7226C87.31 92.7004 87.308 92.678 87.3015 92.6567C87.2331 92.3984 87.1035 92.1604 86.9236 91.9628C86.7436 91.7653 86.5188 91.614 86.2679 91.5219C86.247 91.5153 86.2249 91.5131 86.203 91.5152C86.1811 91.5173 86.1599 91.5237 86.1405 91.5341C86.1212 91.5446 86.1041 91.5587 86.0903 91.5758C86.0765 91.593 86.0663 91.6126 86.0602 91.6338C86.0497 91.6761 86.0554 91.7208 86.0761 91.7592C86.0967 91.7976 86.131 91.8269 86.1721 91.8415C86.3687 91.9198 86.5443 92.043 86.6849 92.2011C86.8255 92.3593 86.9272 92.5481 86.9819 92.7526C86.9892 92.7785 87.0027 92.8022 87.0213 92.8217C87.0398 92.8412 87.0629 92.8559 87.0884 92.8644Z" fill="#263238"/>
<path d="M80.5246 87.4303V88.9913C80.2509 89.0842 80.0219 89.2764 79.8828 89.5299C79.7438 89.7833 79.7047 90.0797 79.7734 90.3605C80.109 91.7137 79.1287 93.6317 78.0419 94.3136C78.0419 94.3136 78.0792 93.7489 77.589 93.8235C77.0989 93.898 76.8751 96.8336 77.6263 98.3413C77.6263 98.3413 76.385 96.9082 75.9694 93.7489C75.5858 90.824 75.783 88.4532 76.5022 87.4249L80.5246 87.4303Z" fill="#263238"/>
<path d="M75.2447 93.9033C75.4925 94.753 76.0673 95.4696 76.843 95.8959C77.8766 96.4286 78.6491 95.5869 78.5799 94.4734C78.5053 93.4877 77.8926 91.98 76.7471 91.8948C76.4982 91.8773 76.2488 91.9226 76.0219 92.0265C75.7949 92.1303 75.5977 92.2895 75.4482 92.4893C75.2987 92.6892 75.2018 92.9234 75.1662 93.1704C75.1307 93.4174 75.1577 93.6694 75.2447 93.9033Z" fill="#EBB376"/>
<path d="M80.5246 88.9912C80.5246 88.9912 81.5369 89.9982 82.5225 89.2629C82.5225 89.2629 83.636 90.19 84.547 89.5293C84.6909 89.7676 84.8818 89.974 85.108 90.1361C85.3343 90.2983 85.5911 90.4126 85.863 90.4723C85.9665 90.4866 86.0719 90.4778 86.1716 90.4466C86.2713 90.4154 86.3629 90.3625 86.4398 90.2917C86.5167 90.221 86.577 90.134 86.6163 90.0372C86.6557 89.9404 86.6731 89.8361 86.6674 89.7318C86.6674 89.7318 87.9567 90.4723 88.4362 90.126C88.9157 89.7797 88.1752 88.3945 88.1752 88.3945C88.1752 88.3945 88.1358 88.1852 87.7416 87.0717C87.3473 85.9582 86.2093 86.0983 86.2093 86.0983C86.2093 86.0983 86.2337 86.2938 84.9763 85.2282C84.8441 85.0791 84.7337 84.8372 84.547 84.7673C84.3604 84.6975 84.0218 84.7416 83.8242 84.7673C83.6265 84.7931 83.5258 84.652 83.3633 84.7673C83.2007 84.8827 82.9919 85.05 82.9024 85.2281C82.9024 85.2281 81.8753 85.0097 80.3676 85.2282C78.8599 85.4466 78.7546 85.4586 78.7546 85.4586C78.7546 85.4586 78.3802 84.1626 77.6024 85.2282C76.8246 86.2937 76.449 85.6508 76.449 85.6508C76.449 85.6508 76.2198 86.3804 75.7589 87.3021C75.8442 88.4849 75.7777 88.4212 75.7777 88.4212C75.7777 88.4212 76.4502 88.9152 76.4064 89.4867C77.5305 89.9875 78.5907 88.7941 78.5907 88.7941C78.5294 88.8901 78.4903 88.9985 78.4761 89.1115C78.462 89.2245 78.4732 89.3393 78.5089 89.4474C78.5446 89.5556 78.6039 89.6544 78.6826 89.7368C78.7612 89.8191 78.8572 89.8829 78.9636 89.9236C79.7734 90.3604 80.5246 88.9912 80.5246 88.9912Z" fill="#263238"/>
<path d="M83.9556 97.4143C83.6019 97.7453 83.2725 98.1014 82.97 98.4799L82.7516 98.352C81.75 97.7713 81.4783 97.1746 81.4783 96.6844C81.4855 96.4473 81.5495 96.2153 81.6647 96.0078C81.7194 95.8925 81.7893 95.785 81.8725 95.6882C82.3312 96.3189 82.9199 96.8439 83.5987 97.2279C83.8224 97.3397 83.9556 97.4143 83.9556 97.4143Z" fill="#263238"/>
<path d="M83.6199 97.2119L83.3216 97.5156C82.3786 96.9828 81.7925 96.45 81.6647 96.0025C81.7197 95.889 81.7896 95.7833 81.8725 95.6882C82.339 96.3154 82.935 96.835 83.6199 97.2119Z" fill="white"/>
<path d="M87.0244 95.5657C87.3707 94.7985 87.6158 95.1341 88.6227 95.9066C89.0009 96.1507 89.3073 96.4911 89.5105 96.8927C89.7137 97.2944 89.8063 97.7429 89.7788 98.1922C89.7788 99.0127 89.6243 100.648 89.6243 100.648L94.6546 106.659L93.272 107.811L88.026 101.927C88.026 101.927 86.5342 100.803 86.2838 99.5401C86.0334 98.2775 87.0244 95.5657 87.0244 95.5657Z" fill="#EBB376"/>
<path d="M82.7516 98.3519C81.75 97.7712 81.4783 97.1745 81.4783 96.6844C81.8539 96.9133 82.1874 97.2053 82.4639 97.5475C82.6403 97.7796 82.7407 98.0606 82.7516 98.3519Z" fill="#DE5753"/>
<path d="M88.2082 85.3453C88.153 86.4511 85.3698 87.2106 81.9918 87.0418C78.6138 86.873 75.9202 85.8397 75.9755 84.734C76.0308 83.6282 78.814 82.8687 82.1919 83.0375C85.5699 83.2063 88.2635 84.2395 88.2082 85.3453Z" fill="#06ABAB"/>
<path d="M75.9897 84.537L88.2028 85.2282L88.4332 88.6847L78.0636 88.2239L76.681 88.9152L75.7593 90.0674L75.7593 87.3022L75.9897 84.537Z" fill="#06ABAB"/>
<path d="M85.6679 98.5935C83.8244 101.819 79.4461 101.589 77.833 98.8238C78.5192 97.6342 79.4967 96.5768 78.9852 95.3673L84.9765 94.9064L86.82 95.5978C86.5896 96.5195 86.82 96.5195 85.6679 98.5935Z" fill="#06ABAB"/>
<path d="M78.4175 93.7543L78.2938 93.8113L78.9681 95.4042L79.0918 95.3472L78.4175 93.7543Z" fill="#06ABAB"/>
<path d="M77.2426 95.9748L77.1168 96.0233L78.0638 98.7148L78.1896 98.6664L77.2426 95.9748Z" fill="#06ABAB"/>
<path d="M91.5901 29.4498C99.7224 29.4498 106.315 22.8572 106.315 14.7249C106.315 6.59256 99.7224 0 91.5901 0C83.4578 0 76.8652 6.59256 76.8652 14.7249C76.8652 22.8572 83.4578 29.4498 91.5901 29.4498Z" fill="#FF9721"/>
<path d="M105.8 14.7249C105.802 17.9947 104.667 21.1636 102.59 23.6894C101.981 24.4368 101.297 25.1206 100.55 25.7303C100.315 25.9241 100.07 26.1129 99.8149 26.2915C99.122 26.7924 98.3841 27.228 97.6108 27.5925C95.5275 28.579 93.2349 29.0421 90.932 28.9416C88.6291 28.8411 86.3856 28.1801 84.3961 27.016C83.8621 26.7035 83.3507 26.354 82.8655 25.9701L82.7889 25.9037C82.2114 25.4579 81.6737 24.9628 81.1818 24.4241C79.6014 22.7309 78.459 20.677 77.8538 18.4414C77.2487 16.2057 77.1992 13.856 77.7097 11.5969C78.2201 9.33773 79.2751 7.23761 80.7827 5.47936C82.2903 3.7211 84.2049 2.35803 86.3597 1.5088C88.5145 0.659572 90.8442 0.349941 93.146 0.606865C95.4479 0.863788 97.652 1.67948 99.5665 2.98291C101.481 4.28635 103.048 6.03801 104.131 8.08541C105.214 10.1328 105.78 12.4139 105.779 14.73L105.8 14.7249Z" fill="#FFD5A5"/>
<path d="M100.591 25.715C100.356 25.9089 100.111 26.0976 99.8558 26.2762C99.1629 26.7771 98.425 27.2127 97.6517 27.5773C95.5683 28.5637 93.2758 29.0268 90.9729 28.9263C88.67 28.8259 86.4265 28.1649 84.437 27.0007C83.903 26.6882 83.3916 26.3387 82.9064 25.9548L82.8298 25.8884V25.7915C82.9523 25.3323 83.0696 24.8527 83.1768 24.3527C83.3298 23.6792 83.4676 22.9802 83.5901 22.2506C83.9272 20.2657 84.0707 18.2528 84.0186 16.2402C83.7686 8.71451 85.136 5.95422 88.2126 4.47969C88.3504 4.41337 88.4932 4.34194 88.6463 4.28072C89.3316 3.99716 90.0808 3.90374 90.8147 4.0103C93.4475 4.36745 95.7332 6.82161 95.7332 6.82161C96.1807 7.47366 96.583 8.15554 96.9374 8.86248C98.9705 12.9098 100.173 17.3231 100.473 21.8424C100.578 23.1304 100.617 24.423 100.591 25.715Z" fill="#263238"/>
<path d="M100.483 21.8374C100.044 21.4831 99.5398 21.2194 98.9984 21.0618C98.9984 21.0618 95.9983 20.771 93.386 20.7914L92.5237 20.8323C91.187 20.9037 89.8502 21.0414 88.5287 21.2404C88.141 21.2965 87.7532 21.3578 87.3705 21.4292C86.0972 21.6388 84.8353 21.9129 83.5898 22.2507C82.9929 22.4088 82.401 22.5823 81.8092 22.7609C81.5072 23.2669 81.2998 23.8236 81.1969 24.4038C81.6888 24.9425 82.2266 25.4376 82.8041 25.8834L82.8806 25.9497C83.3658 26.3337 83.8773 26.6832 84.4113 26.9957C86.4008 28.1598 88.6443 28.8208 90.9472 28.9213C93.25 29.0218 95.5426 28.5587 97.6259 27.5722C98.3993 27.2076 99.1372 26.7721 99.83 26.2712C100.085 26.0926 100.34 25.9038 100.565 25.7099C101.312 25.1003 101.996 24.4165 102.606 23.6691C101.943 23.0084 101.234 22.3963 100.483 21.8374Z" fill="#3F97FF"/>
<path opacity="0.2" d="M100.512 21.8933C100.074 21.539 99.5689 21.2753 99.0274 21.1178C99.0274 21.1178 96.0274 20.8269 93.4151 20.8473L92.5528 20.8882C91.216 20.9596 89.8792 21.0973 88.5578 21.2963C88.17 21.3525 87.7822 21.4137 87.3996 21.4851C86.1262 21.6947 84.8644 21.9689 83.6189 22.3066C83.0219 22.4647 82.4301 22.6382 81.8382 22.8168C81.5363 23.3228 81.3288 23.8795 81.226 24.4597C81.7179 24.9984 82.2556 25.4935 82.8331 25.9393L82.9097 26.0056C83.3949 26.3896 83.9063 26.7391 84.4403 27.0516C86.4298 28.2157 88.6733 28.8767 90.9762 28.9772C93.2791 29.0777 95.5717 28.6146 97.655 27.6281C98.4283 27.2636 99.1662 26.828 99.8591 26.3271C100.114 26.1485 100.369 25.9597 100.594 25.7658C101.341 25.1562 102.025 24.4724 102.635 23.725C101.972 23.0643 101.263 22.4522 100.512 21.8933Z" fill="#3F97FF"/>
<path d="M93.228 25.8069C89.9218 25.3834 87.4052 21.5083 87.4052 21.5083C88.9499 20.6256 89.0952 18.7607 88.7534 17.5923C88.6477 17.221 88.5111 16.8592 88.3452 16.5106L92.3198 17.2555C92.229 17.809 92.1779 18.3683 92.1667 18.929C92.1567 19.3419 92.1943 19.7545 92.279 20.1587C92.7015 21.0669 94.2463 20.8463 94.2463 20.8463C94.9351 22.1524 93.228 25.8069 93.228 25.8069Z" fill="#EEC1BB"/>
<path opacity="0.2" d="M92.167 18.9292C92.1569 19.342 92.1946 19.7546 92.2792 20.1588C90.7027 19.9496 89.5037 18.6894 88.7536 17.6077C88.6479 17.2364 88.5114 16.8746 88.3455 16.526L92.3201 17.2709C92.23 17.8194 92.1788 18.3735 92.167 18.9292Z" fill="black"/>
<path d="M91.5136 6.2247C94.9728 6.35226 96.0137 8.26557 96.1361 11.8371C96.2892 16.3015 95.182 19.4291 90.8911 18.3169C85.0695 16.8066 85.7532 6.02572 91.5136 6.2247Z" fill="#EEC1BB"/>
<path d="M90.3454 9.45434C90.3024 9.45673 90.2602 9.44207 90.228 9.41353C90.195 9.37928 90.1765 9.33355 90.1765 9.28597C90.1765 9.23838 90.195 9.19265 90.228 9.15841C90.45 8.94723 90.7185 8.79105 91.0118 8.70244C91.3051 8.61382 91.6151 8.59524 91.9168 8.64817C91.9635 8.6557 92.0052 8.68141 92.033 8.71966C92.0607 8.75791 92.0722 8.80559 92.0648 8.85226C92.0618 8.87619 92.0539 8.89922 92.0415 8.9199C92.0291 8.94059 92.0125 8.95847 91.9928 8.9724C91.9732 8.98632 91.9508 8.99599 91.9272 9.00078C91.9035 9.00558 91.8792 9.00539 91.8556 9.00024C91.6141 8.96345 91.3674 8.98101 91.1335 9.05162C90.8996 9.12223 90.6844 9.24412 90.5035 9.40842C90.4826 9.42786 90.4574 9.44213 90.4299 9.4501C90.4024 9.45808 90.3735 9.45952 90.3454 9.45434Z" fill="#263238"/>
<path d="M95.7433 9.2861C95.7054 9.28631 95.6683 9.27569 95.6362 9.25549C95.4706 9.11674 95.2761 9.01679 95.0668 8.96294C94.8576 8.90908 94.639 8.90268 94.427 8.94423C94.3817 8.95599 94.3336 8.95049 94.2921 8.9288C94.2506 8.90712 94.2187 8.8708 94.2025 8.82689C94.188 8.78087 94.1921 8.73099 94.2141 8.68802C94.2361 8.64506 94.274 8.61246 94.3198 8.59728C94.5857 8.53718 94.8618 8.53859 95.1271 8.60137C95.3923 8.66415 95.6397 8.78664 95.8505 8.95954C95.8884 8.98891 95.9138 9.03164 95.9214 9.07904C95.9289 9.12643 95.9182 9.17491 95.8913 9.21466C95.8736 9.23695 95.8511 9.25495 95.8255 9.26732C95.7999 9.27969 95.7718 9.28612 95.7433 9.2861Z" fill="#263238"/>
<path d="M87.5136 11.929C87.5136 11.929 89.2381 9.14829 89.0748 6.94415C89.0748 6.94415 96.0342 4.39305 96.1107 11.3677C96.1107 11.3677 97.0138 5.21451 91.0698 4.85736C85.1257 4.50021 84.8349 13.1994 87.7942 15.9189C87.7942 15.9189 86.4472 13.6688 87.5136 11.929Z" fill="#263238"/>
<path d="M88.0545 12.6789C88.032 12.2792 87.8539 11.9042 87.5582 11.6343C87.2626 11.3644 86.8729 11.221 86.4728 11.235C85.3963 11.3115 84.8044 13.4953 87.4473 14.1229C87.83 14.2096 88.0596 13.8473 88.0545 12.6789Z" fill="#EEC1BB"/>
<path d="M89.5697 3.95419C91.4422 3.44397 96.427 3.36744 97.6056 8.54615L96.9117 8.89311C95.7421 8.29584 94.4759 7.91061 93.1718 7.75532C92.8932 7.26318 92.5686 6.79851 92.2024 6.36753C92.2383 6.80558 92.2383 7.24583 92.2024 7.68388C92.2024 7.68388 88.9472 8.1635 87.4931 9.48497C85.2073 11.5667 85.0645 12.883 85.0645 12.883C85.0645 12.883 83.4828 5.64811 89.5697 3.95419Z" fill="#263238"/>
<path d="M98.0905 8.47981C98.0644 8.47909 98.0392 8.47038 98.0182 8.45487C97.9972 8.43936 97.9815 8.41779 97.9732 8.39307C97.7511 7.60144 97.3695 6.86359 96.8518 6.22484C96.3342 5.58609 95.6913 5.05993 94.9629 4.6787C92.4118 3.41337 89.3505 4.444 89.3505 4.4542C89.3351 4.45956 89.3188 4.46184 89.3025 4.4609C89.2862 4.45995 89.2702 4.4558 89.2556 4.44869C89.2409 4.44158 89.2277 4.43165 89.2169 4.41947C89.206 4.40728 89.1977 4.39308 89.1923 4.37767C89.187 4.36226 89.1847 4.34594 89.1856 4.32965C89.1866 4.31337 89.1907 4.29743 89.1978 4.28274C89.2049 4.26805 89.2149 4.25491 89.2271 4.24406C89.2392 4.23321 89.2534 4.22487 89.2689 4.21951C89.2995 4.21951 92.4322 3.14805 95.0904 4.4542C95.8486 4.85008 96.5177 5.39699 97.0564 6.06124C97.5952 6.72549 97.9923 7.49302 98.2232 8.31654C98.2329 8.34699 98.2304 8.38005 98.2161 8.40865C98.2018 8.43726 98.1769 8.45913 98.1466 8.4696L98.0905 8.47981Z" fill="#263238"/>
<path d="M90.8553 11.2043C90.8553 11.2043 91.6666 10.5155 92.0492 11.439C91.6784 11.2586 91.2669 11.1777 90.8553 11.2043Z" fill="#263238"/>
<path d="M94.6976 11.7146C94.6976 11.7146 95.1466 10.7758 95.7181 11.4391C95.3614 11.4523 95.0125 11.5465 94.6976 11.7146Z" fill="#263238"/>
<path d="M94.0256 11.5777C94.1456 11.9553 94.2938 12.3097 94.467 12.6336C94.4177 12.7339 94.3514 12.811 94.2756 12.8563C94.1998 12.9016 94.1173 12.9134 94.0374 12.8902L94.0256 11.5777Z" fill="#D4827D"/>
<path d="M95.5707 16.4326C94.4673 19.7428 89.3916 19.0808 87.8468 15.9912C88.524 14.6603 89.0286 14.0245 88.5088 12.681L94.2466 12.4603L96.2327 13.5637C96.2327 13.7844 96.2327 14.6672 95.5707 16.4326Z" fill="#A4CEFF"/>
<path d="M87.491 11.5778L87.4055 11.6959L88.7158 12.9529L88.8012 12.8349L87.491 11.5778Z" fill="#A4CEFF"/>
<path d="M87.0834 13.7844L86.9642 13.86L88.2425 16.642L88.3617 16.5664L87.0834 13.7844Z" fill="#A4CEFF"/>
<path d="M40.722 51.9047C40.722 51.9047 44.222 48.4047 45.3461 45.9142C45.3461 45.9142 44.9053 44.5168 45.3196 43.7983C45.734 43.0798 48.0526 41.0036 48.6741 41.4444C49.2957 41.8852 50.1949 43.622 49.8246 44.3493C49.4544 45.0766 47.1798 46.5533 47.1798 46.5533C47.1798 46.5533 44.3454 52.2397 42.591 53.518C40.8367 54.7964 40.722 51.9047 40.722 51.9047Z" fill="#EBB376"/>
<path d="M31.8708 41.3828C33.9073 41.6472 36.2347 51.5212 37.8613 52.4602C39.4879 53.3991 40.811 51.8444 40.811 51.8444L43.2895 52.7977C43.2895 52.7977 40.239 56.4202 37.9511 56.2296C35.7471 55.5155 31.4917 48.8456 31.4917 48.8456L31.8708 41.3828Z" fill="#EBB376"/>
<path d="M37.3791 49.7472C36.0445 47.8406 33.9073 41.6472 31.8708 41.3828L31.4917 48.8456C31.4917 48.8456 33.5659 54.323 35.4725 55.8483L37.3791 49.7472Z" fill="#FF9721"/>
<path d="M44.2395 132.537L41.5638 133.013L40.4662 129.358L39.4612 126.008L42.5512 124.933L43.4461 128.957L44.2395 132.537Z" fill="#EBB376"/>
<path d="M40.9601 132.942C40.916 132.642 44.5835 132.237 44.5835 132.237C44.5835 132.237 47.2283 134.11 49.472 134.238C51.7157 134.366 50.746 135.878 48.326 136.305L42.331 137.363C40.6119 137.668 41.4274 136.015 40.9601 132.942Z" fill="#263238"/>
<path d="M26.3651 133.687H23.6453L23.2001 129.901L22.7946 126.427L26.0256 125.902L26.2064 130.024L26.3651 133.687Z" fill="#EBB376"/>
<path d="M23.0634 133.511C23.0634 133.211 26.7529 133.445 26.7529 133.445C26.7529 133.445 29.0186 135.75 31.2227 136.27C33.4267 136.79 32.1924 138.108 29.7328 138.108H23.6452C21.8997 138.108 22.9929 136.618 23.0634 133.511Z" fill="#263238"/>
<path d="M45.196 130.015L39.2856 131.54C34.8728 120.289 31.7976 108.144 29.5825 100.349C28.3873 96.1443 27.4593 92.4014 26.7413 89.0844L26.9558 101.335L27.6554 131.54L21.9356 132.112C13.2255 87.9072 19.3604 64.3813 19.3604 64.3813L32.2792 62.14C32.7886 64.5711 33.1497 67.0323 33.3605 69.5093L33.9427 73.8797L38.9946 100.582L45.196 130.015Z" fill="#FF9721"/>
<path d="M31.0202 35.9784C31.0015 35.9842 30.9815 35.9842 30.9629 35.9784C29.3054 34.9778 27.8243 31.2971 27.7626 31.1296C27.757 31.1163 27.7541 31.102 27.7542 31.0876C27.7542 31.0732 27.7572 31.0589 27.763 31.0457C27.7688 31.0325 27.7772 31.0206 27.7878 31.0108C27.7983 31.001 27.8107 30.9934 27.8243 30.9885C27.8519 30.9782 27.8823 30.9788 27.9094 30.9903C27.9365 31.0018 27.9581 31.0232 27.9698 31.0502C27.9698 31.0855 29.4817 34.8191 31.0554 35.7801C31.0807 35.7956 31.099 35.8204 31.1064 35.8492C31.1138 35.878 31.1098 35.9085 31.0951 35.9343C31.0766 35.958 31.0498 35.9737 31.0202 35.9784Z" fill="#263238"/>
<path d="M17.6768 26.3073C17.6768 26.3073 18.3248 24.1032 22.6447 23.733C26.9646 23.3627 29.1113 27.612 28.093 30.7858C28.093 30.7858 29.0011 35.0881 30.7378 36.3532C30.7378 36.3532 22.4243 40.1089 18.2278 40.1309C17.2933 40.1309 15.3009 35.498 15.0408 32.1567C14.8028 28.9301 15.7726 26.4086 17.6768 26.3073Z" fill="#263238"/>
<path d="M25.2277 44.0452C21.9614 43.6044 20.9784 42.229 20.9784 42.229C23.0502 40.2719 21.3266 36.8777 21.3266 36.8777L25.263 37.6138C25.1742 38.1622 25.1227 38.7159 25.1087 39.2713C25.0823 41.6604 26.1622 41.6824 26.1622 41.6824C26.8323 42.9784 25.2277 44.0452 25.2277 44.0452Z" fill="#EBB376"/>
<path opacity="0.2" d="M25.2628 37.6138C25.174 38.1622 25.1225 38.7159 25.1085 39.2713C22.4637 39.2713 21.3264 36.8777 21.3264 36.8777L25.2628 37.6138Z" fill="black"/>
<path d="M22.2479 26.5982C25.5892 25.84 27.0703 27.3872 28.093 30.777C29.3757 35.0087 29.1112 38.2707 24.7252 38.3103C18.77 38.3456 16.6938 27.8545 22.2479 26.5982Z" fill="#EBB376"/>
<path d="M28.6088 36.4011C26.8928 40.2142 22.317 38.117 21.3637 36.9731C21.9357 36.5916 23.2703 35.257 22.5077 33.3505L26.5115 32.3971L28.6088 32.5878C28.7994 33.5411 28.9901 34.685 28.6088 36.4011Z" fill="white"/>
<path d="M19.6476 34.7262L21.5574 37.0324L21.7437 36.9913L19.8339 34.6852L19.6476 34.7262Z" fill="white"/>
<path d="M23.3248 33.3888L19.9689 32.5982L19.8451 32.7434L23.201 33.5339L23.3248 33.3888Z" fill="white"/>
<path d="M25.7488 31.2532C25.9748 31.543 26.2308 31.8019 26.5114 32.0246C26.4713 32.1277 26.4069 32.2167 26.325 32.2823C26.2432 32.3479 26.147 32.3876 26.0465 32.3972L25.7488 31.2532Z" fill="#D58745"/>
<path d="M23.7818 31.2663C23.8523 31.5396 23.7597 31.7997 23.579 31.8437C23.3983 31.8878 23.1911 31.7071 23.1382 31.4338C23.0853 31.1605 23.1382 30.9004 23.341 30.8563C23.5438 30.8123 23.7157 30.993 23.7818 31.2663Z" fill="#263238"/>
<path d="M23.2573 30.8873L23.7907 30.5082C23.7907 30.5082 23.6232 31.0812 23.2573 30.8873Z" fill="#263238"/>
<path d="M27.1629 30.3582C27.2334 30.6315 27.1408 30.8871 26.9601 30.9356C26.7794 30.9841 26.5722 30.7946 26.5193 30.5213C26.4664 30.248 26.5413 29.9923 26.7221 29.9482C26.9028 29.9041 27.0968 30.0849 27.1629 30.3582Z" fill="#263238"/>
<path d="M26.6383 29.9791L27.1717 29.5956C27.1717 29.5956 27.0042 30.1642 26.6383 29.9791Z" fill="#263238"/>
<path d="M21.8909 29.9615C21.8677 29.9671 21.8435 29.9671 21.8204 29.9615C21.7831 29.9426 21.7549 29.9098 21.7417 29.8702C21.7285 29.8306 21.7314 29.7874 21.7498 29.7499C21.9046 29.4921 22.1176 29.2741 22.3717 29.1134C22.6258 28.9526 22.9141 28.8536 23.2133 28.8243C23.2552 28.8218 23.2964 28.8355 23.3284 28.8626C23.3604 28.8897 23.3808 28.928 23.3852 28.9697C23.3877 28.9906 23.386 29.0117 23.3802 29.0319C23.3744 29.0521 23.3647 29.071 23.3515 29.0874C23.3384 29.1038 23.3222 29.1174 23.3037 29.1275C23.2853 29.1375 23.2651 29.1439 23.2442 29.146C22.9996 29.1709 22.7639 29.2508 22.5547 29.3799C22.3456 29.5089 22.1683 29.6836 22.0364 29.891C22.0203 29.9144 21.9985 29.9332 21.973 29.9456C21.9475 29.9579 21.9192 29.9634 21.8909 29.9615Z" fill="#263238"/>
<path d="M25.6247 28.4362C25.598 28.4362 25.5719 28.4293 25.5487 28.4162C25.5255 28.4031 25.5061 28.3841 25.4924 28.3613C25.4701 28.3259 25.4622 28.2833 25.4705 28.2423C25.4787 28.2013 25.5023 28.165 25.5365 28.1409C25.7733 28.0184 26.0347 27.9512 26.3011 27.9444C26.5676 27.9375 26.8321 27.9911 27.0749 28.1012C27.0955 28.1078 27.1146 28.1186 27.1309 28.1328C27.1472 28.147 27.1604 28.1645 27.1697 28.184C27.1791 28.2035 27.1843 28.2248 27.1851 28.2464C27.1859 28.268 27.1823 28.2896 27.1745 28.3098C27.1667 28.33 27.1548 28.3483 27.1396 28.3638C27.1244 28.3792 27.1062 28.3913 27.0861 28.3994C27.0661 28.4076 27.0445 28.4115 27.0229 28.411C27.0013 28.4105 26.98 28.4056 26.9603 28.3966C26.7656 28.3031 26.5525 28.2546 26.3366 28.2546C26.1206 28.2546 25.9075 28.3031 25.7128 28.3966C25.6883 28.4186 25.6575 28.4325 25.6247 28.4362Z" fill="#263238"/>
<path d="M19.8676 33.056C19.8676 33.056 20.8109 29.9703 20.0924 27.8942C20.0924 27.8942 26.105 23.6845 27.9519 30.3362C27.9519 30.3362 27.2466 24.2179 21.4721 25.386C15.6976 26.5541 17.6239 34.9558 21.1591 36.7852C21.1591 36.7764 19.2901 35.0131 19.8676 33.056Z" fill="#263238"/>
<path d="M20.5772 33.6378C20.4567 33.2589 20.1909 32.9432 19.8382 32.7598C19.4854 32.5764 19.0743 32.5402 18.6949 32.6592C17.6855 33.003 17.6723 35.2423 20.3612 35.1718C20.7491 35.1586 20.8769 34.753 20.5772 33.6378Z" fill="#EBB376"/>
<path d="M20.0923 27.8941C20.0923 27.8941 23.557 26.6158 25.5054 27.5767C25.5054 27.5767 23.4071 25.6901 19.8455 27.4665L20.0923 27.8941Z" fill="#263238"/>
<path d="M18.1224 42.8835C18.1224 42.8835 21.9427 47.3383 25.4999 47.2677C29.057 47.1971 30.3246 41.8381 30.3246 41.8381C30.3246 41.8381 22.6983 40.0236 18.1224 42.8835Z" fill="#EBB376"/>
<path opacity="0.2" d="M29.4771 99.7232C28.2738 95.5884 27.3393 91.9077 26.6163 88.6458C26.679 84.7818 26.204 85.4195 26.7022 81.5873C26.7022 81.5873 28.2274 88.4511 29.4771 99.7232Z" fill="black"/>
<path d="M17.3596 79.49L25.9393 79.8713L34.9003 78.7274L35.0909 79.8713L25.9393 80.8246H17.3596V79.49Z" fill="#CC791A"/>
<path d="M7.20325 49.4935C7.20325 49.4935 4.55843 45.2971 4.02947 42.617C4.02947 42.617 4.75679 41.3519 4.52757 40.5628C4.29836 39.7738 2.48665 37.2304 1.78578 37.5213C1.0849 37.8122 -0.184614 39.2845 0.0225632 40.0956C0.229741 40.9067 2.12079 42.8506 2.12079 42.8506C2.12079 42.8506 3.61511 49.0219 5.03891 50.6617C6.4627 52.3014 7.20325 49.4935 7.20325 49.4935Z" fill="#EBB376"/>
<path d="M35.6628 79.1087L26.1299 80.2526H16.2156C16.5114 76.2488 18.1222 59.5055 18.1222 56.9922C17.9282 55.758 18.2143 54.2102 17.8264 52.6717C17.5267 51.4683 17.152 50.1283 16.6759 48.5943C16.6539 48.5106 16.6274 48.4268 16.601 48.3431C16.3277 47.4614 14.397 48.1359 14.2074 47.0823C13.4404 42.3922 17.9315 42.5022 19.6475 42.1208C20.2195 42.1208 23.842 46.3153 24.9859 46.6967C25.7486 46.1247 27.256 41.9838 27.6552 41.3582C30.2339 41.3362 31.8837 41.3827 31.8837 41.3827C31.8837 41.3827 32.3245 41.4841 32.5713 44.2215C32.8005 46.787 33.1433 61.1867 35.6628 79.1087Z" fill="#FF9721"/>
<path d="M14.3663 44.7857C15.6887 44.6006 18.404 47.2102 17.9941 49.4671C15.2625 52.0351 14.6905 56.4202 10.8839 57.5779C8.58938 57.9455 4.20422 49.1752 4.20422 49.1752L6.30147 48.2219C6.30147 48.2219 9.8348 53.3197 10.8839 53.1258C11.933 52.9318 14.3663 44.7857 14.3663 44.7857Z" fill="#EBB376"/>
<path d="M44.3145 43.3883L48.5374 38.2397C48.5724 38.1979 48.6156 38.1636 48.6643 38.1391C48.713 38.1145 48.7663 38.1001 48.8207 38.0968C48.8752 38.0935 48.9298 38.1013 48.9811 38.1199C49.0324 38.1384 49.0794 38.1672 49.1193 38.2045L51.0015 39.9677C51.0753 40.0366 51.12 40.1311 51.1265 40.2318C51.1331 40.3325 51.101 40.432 51.0368 40.5099L46.7477 45.7731C46.7124 45.817 46.6681 45.8529 46.6179 45.8784C46.5676 45.9039 46.5125 45.9183 46.4562 45.9208C46.3999 45.9233 46.3437 45.9138 46.2913 45.8929C46.239 45.872 46.1917 45.8402 46.1526 45.7995L44.3321 43.9041C44.269 43.8339 44.2326 43.7438 44.2294 43.6494C44.2261 43.5551 44.2563 43.4626 44.3145 43.3883Z" fill="#FF9721"/>
<path opacity="0.3" d="M44.3145 43.3883L48.5374 38.2397C48.5724 38.1979 48.6156 38.1636 48.6643 38.1391C48.713 38.1145 48.7663 38.1001 48.8207 38.0968C48.8752 38.0935 48.9298 38.1013 48.9811 38.1199C49.0324 38.1384 49.0794 38.1672 49.1193 38.2045L51.0015 39.9677C51.0753 40.0366 51.12 40.1311 51.1265 40.2318C51.1331 40.3325 51.101 40.432 51.0368 40.5099L46.7477 45.7731C46.7124 45.817 46.6681 45.8529 46.6179 45.8784C46.5676 45.9039 46.5125 45.9183 46.4562 45.9208C46.3999 45.9233 46.3437 45.9138 46.2913 45.8929C46.239 45.872 46.1917 45.8402 46.1526 45.7995L44.3321 43.9041C44.269 43.8339 44.2326 43.7438 44.2294 43.6494C44.2261 43.5551 44.2563 43.4626 44.3145 43.3883Z" fill="black"/>
<path d="M44.1427 43.1856L48.37 38.037C48.405 37.9952 48.4482 37.9609 48.4969 37.9364C48.5456 37.9118 48.5989 37.8974 48.6533 37.8941C48.7078 37.8908 48.7624 37.8987 48.8137 37.9172C48.865 37.9357 48.912 37.9645 48.9518 38.0018L50.8341 39.765C50.9069 39.8345 50.951 39.9288 50.9575 40.0292C50.964 40.1296 50.9326 40.2289 50.8693 40.3072L46.5803 45.5968C46.5427 45.6392 46.4965 45.673 46.4449 45.6962C46.3932 45.7194 46.3372 45.7314 46.2806 45.7314C46.2239 45.7314 46.168 45.7194 46.1163 45.6962C46.0646 45.673 46.0185 45.6392 45.9808 45.5968L44.1647 43.7014C44.1001 43.6322 44.0624 43.5422 44.0583 43.4476C44.0543 43.353 44.0842 43.2601 44.1427 43.1856Z" fill="#FF9721"/>
<path opacity="0.6" d="M48.5376 38.2442L50.627 40.2675L46.5408 45.2926L44.5087 43.1592L48.5376 38.2442Z" fill="white"/>
<path d="M17.9941 49.4671C18.404 47.2102 15.6887 44.6006 14.3663 44.7857C14.3663 44.7857 13.1652 47.0779 12.0212 50.5098L15.2624 54.7043C18.5037 51.0818 17.5841 51.724 17.9941 49.4671Z" fill="#FF9721"/>
<path d="M20.8686 50.5143L20.3388 50.7192C18.4034 45.7129 17.7152 42.7107 20.0031 41.8262L19.9714 42.154C18.3889 42.7658 18.8044 45.1747 20.8686 50.5143Z" fill="#3F3D56"/>
<path d="M29.2089 48.6321H29.6631C29.6631 43.757 29.4289 41.1675 27.4676 41.1675L27.2481 41.3871C28.6047 41.3871 29.2089 43.4323 29.2089 48.6321Z" fill="#3F3D56"/>
<path d="M29.4434 50.3885C30.0497 50.3885 30.5412 49.897 30.5412 49.2907C30.5412 48.6845 30.0497 48.193 29.4434 48.193C28.8372 48.193 28.3457 48.6845 28.3457 49.2907C28.3457 49.897 28.8372 50.3885 29.4434 50.3885Z" fill="#3F3D56"/>
<path d="M20.2202 54.3473L19.6979 54.5492C18.9465 52.6055 19.3894 50.6166 20.6852 50.1157L20.8949 50.658C19.887 51.0476 19.5844 52.7026 20.2202 54.3473Z" fill="#3F3D56"/>
<path d="M24.3981 52.7322L23.8758 52.9341C23.24 51.2894 21.9028 50.2683 20.895 50.658L20.6853 50.1157C21.9811 49.6147 23.6467 50.7885 24.3981 52.7322Z" fill="#3F3D56"/>
<path d="M24.5917 53.6703C24.9973 53.5135 25.199 53.0576 25.0422 52.652C24.8854 52.2465 24.4295 52.0448 24.0239 52.2016C23.6183 52.3584 23.4167 52.8143 23.5735 53.2199C23.7303 53.6254 24.1862 53.8271 24.5917 53.6703Z" fill="#3F3D56"/>
<path d="M20.1856 55.3736C20.5912 55.2169 20.7929 54.7609 20.6361 54.3554C20.4793 53.9498 20.0234 53.7481 19.6178 53.9049C19.2122 54.0617 19.0105 54.5176 19.1673 54.9232C19.3241 55.3288 19.78 55.5304 20.1856 55.3736Z" fill="#3F3D56"/>
<path d="M1.56696 14.5848L7.16639 13.5054C7.99812 13.345 8.80208 13.8893 8.96209 14.7211L10.0393 20.321C10.1994 21.1528 9.65483 21.957 8.82311 22.1174L3.22368 23.1969C2.39195 23.3572 1.58799 22.8129 1.42798 21.9811L0.35072 16.3813C0.190707 15.5495 0.735239 14.7452 1.56696 14.5848Z" fill="#FF9721"/>
<path opacity="0.6" d="M2.49693 17.11C2.91427 16.0088 4.14991 16.1633 4.89852 16.816C5.35125 15.9323 6.4413 15.3351 7.23705 16.1993C8.58506 17.6646 6.77098 19.6253 5.88852 20.411L5.63589 20.6404L5.31665 20.5224C4.20373 20.111 1.79432 18.9743 2.49693 17.11Z" fill="white"/>
<path d="M4.96899 22.1678C4.96899 22.1678 6.59727 24.5334 9.28426 24.8535C9.28426 24.8535 7.72925 24.3165 7.3193 21.6041L4.96899 22.1678Z" fill="#FF9721"/>
<path d="M17.3155 68.3343C17.3404 68.0686 17.5695 67.8693 17.836 67.8814L21.0771 68.0288C21.3442 68.0409 21.5544 68.2609 21.5544 68.5283V73.8006C21.5544 74.0925 21.3055 74.3223 21.0146 74.299L17.2932 74.0013C17.0153 73.9791 16.8093 73.7338 16.8353 73.4562L17.3155 68.3343Z" fill="#FCB667"/>
<path d="M17.3597 67.4784L21.5542 67.6691V68.241L17.3597 68.0504V67.4784Z" fill="#E1841B"/>
<path d="M34.3859 67.9378C34.3535 67.6786 34.1269 67.488 33.8659 67.5004L30.8008 67.6464C30.5342 67.6591 30.3246 67.8789 30.3246 68.1458V73.4192C30.3246 73.7111 30.5735 73.9409 30.8645 73.9176L34.57 73.6212C34.8539 73.5985 35.0616 73.3434 35.0262 73.0608L34.3859 67.9378Z" fill="#FCB667"/>
<path d="M34.3286 67.0972L30.3248 67.2878V67.8598L34.3286 67.6691V67.0972Z" fill="#E1841B"/>
<rect x="30.2222" y="80.8935" width="2.66923" height="4.1945" rx="0.5" transform="rotate(-2.84788 30.2222 80.8935)" fill="white"/>
<rect x="31.1021" y="79.6354" width="0.762637" height="1.60775" rx="0.1" transform="rotate(-2.82896 31.1021 79.6354)" fill="#3F3D56"/>
<line x1="30.8827" y1="83.8543" x2="32.4056" y2="83.7695" stroke="#C4C4C4" stroke-width="0.5"/>
<line x1="31.155" y1="84.488" x2="32.3003" y2="84.4242" stroke="#C4C4C4" stroke-width="0.3"/>
<circle cx="31.6592" cy="82.5406" r="0.953296" fill="#C4C4C4"/>
</svg>
