<svg width="116" height="116" viewBox="0 0 116 116" fill="none" xmlns="http://www.w3.org/2000/svg">
<path d="M39.875 39.875C40.8364 39.875 41.7584 40.2569 42.4383 40.9367C43.1181 41.6166 43.5 42.5386 43.5 43.5V87C43.5 87.9614 43.1181 88.8834 42.4383 89.5633C41.7584 90.2431 40.8364 90.625 39.875 90.625C38.9136 90.625 37.9916 90.2431 37.3117 89.5633C36.6319 88.8834 36.25 87.9614 36.25 87V43.5C36.25 42.5386 36.6319 41.6166 37.3117 40.9367C37.9916 40.2569 38.9136 39.875 39.875 39.875V39.875ZM58 39.875C58.9614 39.875 59.8834 40.2569 60.5633 40.9367C61.2431 41.6166 61.625 42.5386 61.625 43.5V87C61.625 87.9614 61.2431 88.8834 60.5633 89.5633C59.8834 90.2431 58.9614 90.625 58 90.625C57.0386 90.625 56.1166 90.2431 55.4367 89.5633C54.7569 88.8834 54.375 87.9614 54.375 87V43.5C54.375 42.5386 54.7569 41.6166 55.4367 40.9367C56.1166 40.2569 57.0386 39.875 58 39.875V39.875ZM79.75 43.5C79.75 42.5386 79.3681 41.6166 78.6883 40.9367C78.0084 40.2569 77.0864 39.875 76.125 39.875C75.1636 39.875 74.2416 40.2569 73.5617 40.9367C72.8819 41.6166 72.5 42.5386 72.5 43.5V87C72.5 87.9614 72.8819 88.8834 73.5617 89.5633C74.2416 90.2431 75.1636 90.625 76.125 90.625C77.0864 90.625 78.0084 90.2431 78.6883 89.5633C79.3681 88.8834 79.75 87.9614 79.75 87V43.5Z" fill="#666666"/>
<path fill-rule="evenodd" clip-rule="evenodd" d="M105.125 21.75C105.125 23.6728 104.361 25.5169 103.002 26.8765C101.642 28.2362 99.7978 29 97.875 29H94.25V94.25C94.25 98.0956 92.7223 101.784 90.003 104.503C87.2838 107.222 83.5956 108.75 79.75 108.75H36.25C32.4044 108.75 28.7162 107.222 25.997 104.503C23.2777 101.784 21.75 98.0956 21.75 94.25V29H18.125C16.2022 29 14.3581 28.2362 12.9985 26.8765C11.6388 25.5169 10.875 23.6728 10.875 21.75V14.5C10.875 12.5772 11.6388 10.7331 12.9985 9.37348C14.3581 8.01384 16.2022 7.25 18.125 7.25H43.5C43.5 5.32718 44.2638 3.48311 45.6235 2.12348C46.9831 0.763837 48.8272 0 50.75 0L65.25 0C67.1728 0 69.0169 0.763837 70.3765 2.12348C71.7362 3.48311 72.5 5.32718 72.5 7.25H97.875C99.7978 7.25 101.642 8.01384 103.002 9.37348C104.361 10.7331 105.125 12.5772 105.125 14.5V21.75ZM29.8555 29L29 29.4278V94.25C29 96.1728 29.7638 98.0169 31.1235 99.3765C32.4831 100.736 34.3272 101.5 36.25 101.5H79.75C81.6728 101.5 83.5169 100.736 84.8765 99.3765C86.2362 98.0169 87 96.1728 87 94.25V29.4278L86.1445 29H29.8555ZM18.125 21.75V14.5H97.875V21.75H18.125Z" fill="#666666"/>
</svg>
