<svg width="146" height="133" viewBox="0 0 146 133" fill="none" xmlns="http://www.w3.org/2000/svg">
<path d="M14.4151 110.611L51.4161 131.971C52.0011 132.309 52.6623 132.493 53.3377 132.505C54.0131 132.517 54.6806 132.358 55.2776 132.042L129.771 89.04C130.946 88.3629 131.895 86.8449 131.898 85.6392C131.901 84.4334 130.946 82.9309 129.771 82.2538L92.9062 60.977C92.248 60.6432 91.5203 60.4692 90.7823 60.4692C90.0442 60.4692 89.3165 60.6432 88.6583 60.977L14.4151 103.84C13.2403 104.52 12.2881 106.035 12.2881 107.225C12.2881 108.415 13.2403 109.933 14.4151 110.611Z" fill="#E6E6E6"/>
<path d="M51.4152 131.97L14.4142 110.61C13.2393 109.933 12.2871 108.418 12.2871 107.225C12.2871 106.031 13.2393 104.52 14.4142 103.839L53.4278 81.3105V132.499C52.7216 132.507 52.0262 132.325 51.4152 131.97Z" fill="#E6E6E6"/>
<path d="M52.2965 128.164C52.8777 128.457 53.5193 128.61 54.1701 128.61C54.8208 128.61 55.4625 128.457 56.0436 128.164L129.78 85.5923C131.366 84.6648 131.366 83.1777 129.78 82.2626L92.9086 60.9765C92.2503 60.6427 91.5227 60.4688 90.7846 60.4688C90.0466 60.4688 89.3189 60.6427 88.6606 60.9765L14.4175 103.839C13.2489 104.516 13.2489 105.62 14.4175 106.294L52.2965 128.164Z" fill="#F0F0F0"/>
<path d="M55.8766 123.876C56.502 124.195 57.1938 124.361 57.8955 124.361C58.5972 124.361 59.289 124.195 59.9144 123.876L123.358 87.2431C124.474 86.6 124.474 85.555 123.358 84.912L88.6792 64.8904C88.0534 64.5734 87.3618 64.4082 86.6603 64.4082C85.9588 64.4082 85.2672 64.5734 84.6415 64.8904L21.1913 101.52C20.0814 102.163 20.0814 103.212 21.1913 103.855L55.8766 123.876Z" fill="#E6E6E6"/>
<path d="M86.7803 64.4146C87.4423 64.4172 88.0937 64.5806 88.6785 64.8907L123.358 84.9123C124.474 85.5553 124.474 86.6003 123.358 87.2434L116.488 91.2038L86.7803 72.2334V64.4146Z" fill="#E6E6E6"/>
<path d="M84.617 66.4055C85.2428 66.0885 85.9344 65.9233 86.6359 65.9233C87.3373 65.9233 88.029 66.0885 88.6547 66.4055L123.34 86.4271C123.538 86.5388 123.717 86.6818 123.869 86.8507C123.722 87.0072 123.552 87.1398 123.365 87.2433L59.9146 123.876C59.2893 124.195 58.5975 124.361 57.8958 124.361C57.194 124.361 56.5023 124.195 55.8769 123.876L21.1916 103.855C20.9946 103.744 20.817 103.602 20.666 103.434C20.811 103.277 20.98 103.143 21.1669 103.039L84.617 66.4055Z" fill="white"/>
<path d="M110.682 75.5475L104.536 71.9983C104.168 71.785 104.149 71.4542 104.493 71.2563C104.694 71.1583 104.916 71.1092 105.14 71.113C105.364 71.1168 105.584 71.1733 105.782 71.2779L111.919 74.8179C112.287 75.0312 112.305 75.362 111.959 75.563C111.76 75.6596 111.54 75.7086 111.319 75.7059C111.097 75.7032 110.879 75.649 110.682 75.5475V75.5475Z" fill="#E6E6E6"/>
<path d="M100.131 69.4631C100.056 69.4376 99.9901 69.3891 99.9438 69.3245C99.8975 69.2599 99.8726 69.1824 99.8726 69.1029C99.8726 69.0234 99.8975 68.9459 99.9438 68.8813C99.9901 68.8167 100.056 68.7682 100.131 68.7427C100.323 68.6467 100.535 68.5967 100.749 68.5967C100.964 68.5967 101.176 68.6467 101.368 68.7427C101.443 68.7682 101.508 68.8167 101.555 68.8813C101.601 68.9459 101.626 69.0234 101.626 69.1029C101.626 69.1824 101.601 69.2599 101.555 69.3245C101.508 69.3891 101.443 69.4376 101.368 69.4631C101.176 69.5591 100.964 69.6091 100.749 69.6091C100.535 69.6091 100.323 69.5591 100.131 69.4631V69.4631Z" fill="#E6E6E6"/>
<path d="M97.6387 68.0163C97.5634 67.9908 97.498 67.9423 97.4516 67.8777C97.4053 67.8131 97.3804 67.7356 97.3804 67.6561C97.3804 67.5766 97.4053 67.4991 97.4516 67.4345C97.498 67.3699 97.5634 67.3214 97.6387 67.2959C97.8306 67.1999 98.0423 67.1499 98.257 67.1499C98.4717 67.1499 98.6834 67.1999 98.8753 67.2959C98.9506 67.3214 99.016 67.3699 99.0624 67.4345C99.1087 67.4991 99.1336 67.5766 99.1336 67.6561C99.1336 67.7356 99.1087 67.8131 99.0624 67.8777C99.016 67.9423 98.9506 67.9908 98.8753 68.0163C98.6834 68.1123 98.4717 68.1623 98.257 68.1623C98.0423 68.1623 97.8306 68.1123 97.6387 68.0163V68.0163Z" fill="#E6E6E6"/>
<path d="M117.573 79.5324C117.498 79.5069 117.433 79.4585 117.386 79.3938C117.34 79.3292 117.315 79.2517 117.315 79.1722C117.315 79.0927 117.34 79.0152 117.386 78.9506C117.433 78.886 117.498 78.8376 117.573 78.8121C117.765 78.716 117.977 78.666 118.192 78.666C118.406 78.666 118.618 78.716 118.81 78.8121C118.885 78.8376 118.951 78.886 118.997 78.9506C119.043 79.0152 119.068 79.0927 119.068 79.1722C119.068 79.2517 119.043 79.3292 118.997 79.3938C118.951 79.4585 118.885 79.5069 118.81 79.5324C118.618 79.6285 118.406 79.6785 118.192 79.6785C117.977 79.6785 117.765 79.6285 117.573 79.5324V79.5324Z" fill="#E6E6E6"/>
<path d="M115.081 78.092C115.006 78.0665 114.94 78.018 114.894 77.9534C114.848 77.8888 114.823 77.8113 114.823 77.7318C114.823 77.6523 114.848 77.5748 114.894 77.5102C114.94 77.4456 115.006 77.3971 115.081 77.3716C115.273 77.2756 115.485 77.2256 115.699 77.2256C115.914 77.2256 116.126 77.2756 116.318 77.3716C116.393 77.3971 116.458 77.4456 116.505 77.5102C116.551 77.5748 116.576 77.6523 116.576 77.7318C116.576 77.8113 116.551 77.8888 116.505 77.9534C116.458 78.018 116.393 78.0665 116.318 78.092C116.126 78.188 115.914 78.238 115.699 78.238C115.485 78.238 115.273 78.188 115.081 78.092V78.092Z" fill="#E6E6E6"/>
<path d="M54.3286 113.646V113.773C54.3343 113.89 54.3675 114.004 54.4255 114.105C54.4835 114.207 54.5647 114.293 54.6625 114.357L61.8815 118.525C61.9863 118.577 62.1016 118.604 62.2185 118.604C62.3354 118.604 62.4507 118.577 62.5555 118.525L74.511 111.63C74.6084 111.566 74.6893 111.479 74.7473 111.378C74.8053 111.276 74.8387 111.163 74.8449 111.046V110.913C74.8392 110.796 74.806 110.682 74.748 110.581C74.69 110.479 74.6087 110.393 74.511 110.329L67.2919 106.161C67.1872 106.109 67.0718 106.083 66.955 106.083C66.8381 106.083 66.7228 106.109 66.618 106.161L54.6625 113.062C54.5647 113.126 54.4835 113.212 54.4255 113.314C54.3675 113.416 54.3343 113.529 54.3286 113.646V113.646Z" fill="#FF9721"/>
<path d="M54.3286 113.646V113.773C54.3343 113.89 54.3675 114.004 54.4255 114.105C54.4835 114.207 54.5647 114.293 54.6625 114.357L61.8815 118.525C61.9863 118.577 62.1016 118.604 62.2185 118.604C62.3354 118.604 62.4507 118.577 62.5555 118.525L74.511 111.63C74.6084 111.566 74.6893 111.479 74.7473 111.378C74.8053 111.276 74.8387 111.163 74.8449 111.046V110.913C74.8392 110.796 74.806 110.682 74.748 110.581C74.69 110.479 74.6087 110.393 74.511 110.329L67.2919 106.161C67.1872 106.109 67.0718 106.083 66.955 106.083C66.8381 106.083 66.7228 106.109 66.618 106.161L54.6625 113.062C54.5647 113.126 54.4835 113.212 54.4255 113.314C54.3675 113.416 54.3343 113.529 54.3286 113.646V113.646Z" fill="#FF9721"/>
<path opacity="0.3" d="M74.5105 110.329L67.2915 106.161C67.1867 106.109 67.0714 106.083 66.9545 106.083C66.8376 106.083 66.7223 106.109 66.6175 106.161L62.2212 108.703V118.596C62.3385 118.598 62.4543 118.57 62.5582 118.516L74.5105 111.63C74.608 111.566 74.6889 111.479 74.7469 111.378C74.8049 111.276 74.8383 111.163 74.8444 111.046V110.913C74.8388 110.796 74.8056 110.682 74.7475 110.581C74.6895 110.479 74.6083 110.393 74.5105 110.329V110.329Z" fill="white"/>
<path d="M74.5105 110.329L67.2915 106.161C67.1867 106.109 67.0714 106.083 66.9545 106.083C66.8376 106.083 66.7223 106.109 66.6175 106.161L62.2212 108.703V118.596C62.3385 118.598 62.4543 118.57 62.5582 118.516L74.5105 111.63C74.608 111.566 74.6889 111.479 74.7469 111.378C74.8049 111.276 74.8383 111.163 74.8444 111.046V110.913C74.8388 110.796 74.8056 110.682 74.7475 110.581C74.6895 110.479 74.6083 110.393 74.5105 110.329Z" fill="#E6E6E6"/>
<path opacity="0.3" d="M62.2185 108.703L54.6625 113.062C54.5647 113.126 54.4835 113.212 54.4255 113.314C54.3675 113.416 54.3343 113.529 54.3286 113.646V113.773C54.3343 113.89 54.3675 114.004 54.4255 114.105C54.4835 114.207 54.5647 114.293 54.6625 114.357L61.8815 118.525C61.9853 118.58 62.1012 118.607 62.2185 118.605V118.605V108.703Z" fill="white"/>
<path d="M62.2185 108.703L54.6625 113.062C54.5647 113.126 54.4835 113.212 54.4255 113.314C54.3675 113.416 54.3343 113.529 54.3286 113.646V113.773C54.3343 113.89 54.3675 114.004 54.4255 114.105C54.4835 114.207 54.5647 114.293 54.6625 114.357L61.8815 118.525C61.9853 118.58 62.1012 118.607 62.2185 118.605V118.605V108.703Z" fill="#E6E6E6"/>
<path d="M60.7253 116.951L54.6625 113.464C54.6225 113.449 54.5879 113.423 54.5634 113.388C54.539 113.353 54.5259 113.311 54.5259 113.269C54.5259 113.226 54.539 113.185 54.5634 113.15C54.5879 113.115 54.6225 113.089 54.6625 113.074L66.6149 106.173C66.7197 106.122 66.835 106.095 66.9519 106.095C67.0688 106.095 67.1841 106.122 67.2889 106.173L74.511 110.329C74.551 110.343 74.5856 110.37 74.6101 110.404C74.6345 110.439 74.6476 110.481 74.6476 110.523C74.6476 110.566 74.6345 110.608 74.6101 110.642C74.5856 110.677 74.551 110.704 74.511 110.718L72.5261 111.862L71.8336 112.264L62.5586 117.619C62.4543 117.672 62.3388 117.7 62.2216 117.7C62.1044 117.7 61.9889 117.672 61.8846 117.619L61.2972 117.279L60.7253 116.951Z" fill="#FF9721"/>
<path d="M60.7253 116.951L54.6625 113.464C54.6225 113.449 54.5879 113.423 54.5634 113.388C54.539 113.353 54.5259 113.311 54.5259 113.269C54.5259 113.226 54.539 113.185 54.5634 113.15C54.5879 113.115 54.6225 113.089 54.6625 113.074L66.6149 106.173C66.7197 106.122 66.835 106.095 66.9519 106.095C67.0688 106.095 67.1841 106.122 67.2889 106.173L74.511 110.329C74.551 110.343 74.5856 110.37 74.6101 110.404C74.6345 110.439 74.6476 110.481 74.6476 110.523C74.6476 110.566 74.6345 110.608 74.6101 110.642C74.5856 110.677 74.551 110.704 74.511 110.718L72.5261 111.862L71.8336 112.264L62.5586 117.619C62.4543 117.672 62.3388 117.7 62.2216 117.7C62.1044 117.7 61.9889 117.672 61.8846 117.619L61.2972 117.279L60.7253 116.951Z" fill="#F0F0F0"/>
<path opacity="0.15" d="M66.2291 111.135L74.5117 110.329L66.3064 110.792L67.2926 106.155C67.1786 106.098 67.052 106.072 66.9247 106.077L65.3789 112.338L54.5303 113.235C54.5304 113.279 54.5434 113.322 54.5675 113.36C54.5916 113.397 54.6259 113.427 54.6663 113.445L63.4281 112.938L62.2223 117.693L63.7682 112.916L65.2645 112.83C65.4474 112.819 65.621 112.746 65.7561 112.623C65.8826 112.508 65.9702 112.357 66.0065 112.19L66.2291 111.135Z" fill="black"/>
<path opacity="0.3" d="M57.1141 113.027L65.375 112.344L65.6842 111.163L65.848 110.505L66.9394 106.083C66.8318 106.086 66.7261 106.112 66.6302 106.161L60.654 109.611L54.6624 113.061C54.6272 113.078 54.5965 113.103 54.5728 113.135C54.5492 113.166 54.5332 113.202 54.5264 113.241L56.1835 113.105L57.1141 113.027Z" fill="white"/>
<path d="M65.5858 105.175C66.0093 104.96 66.4774 104.848 66.9523 104.848C67.4272 104.848 67.8953 104.96 68.3188 105.175C69.0732 105.611 69.0732 106.316 68.3188 106.752C67.8953 106.967 67.4272 107.078 66.9523 107.078C66.4774 107.078 66.0093 106.967 65.5858 106.752C64.8314 106.316 64.8314 105.611 65.5858 105.175Z" fill="#F28F8F"/>
<path d="M65.9964 106.223C65.9767 106.221 65.9577 106.214 65.9408 106.204C65.9349 106.199 65.9304 106.193 65.9277 106.186C65.925 106.179 65.9242 106.171 65.9253 106.164L66.0397 105.669C66.0397 105.669 66.0397 105.641 66.0397 105.623C66.0468 105.604 66.0613 105.588 66.0799 105.58L66.3581 105.419C66.376 105.409 66.3963 105.403 66.4169 105.403C66.4385 105.403 66.4599 105.408 66.4787 105.419L67.9442 106.263C67.9518 106.265 67.9585 106.27 67.9633 106.276C67.9681 106.283 67.9707 106.29 67.9707 106.298C67.9707 106.306 67.9681 106.314 67.9633 106.321C67.9585 106.327 67.9518 106.332 67.9442 106.334L67.635 106.507C67.6147 106.512 67.5935 106.512 67.5732 106.507C67.5529 106.512 67.5316 106.512 67.5113 106.507L66.522 105.935L66.4571 106.207C66.4571 106.223 66.4416 106.232 66.4231 106.241C66.4019 106.248 66.3793 106.248 66.3581 106.241L65.9964 106.223Z" fill="#FAFAFA"/>
<path d="M79.4566 108.378L71.3379 103.691C71.1524 103.583 71.1524 103.409 71.3379 103.304L100.808 86.3002C100.911 86.2482 101.026 86.2212 101.141 86.2212C101.257 86.2212 101.372 86.2482 101.475 86.3002L109.597 90.9902C109.783 91.0954 109.783 91.2685 109.597 91.3767L80.1274 108.381C80.0235 108.434 79.9083 108.461 79.7916 108.461C79.6749 108.46 79.5601 108.432 79.4566 108.378Z" fill="#F0F0F0"/>
<path d="M77.9098 103.082C77.8844 103.097 77.8556 103.104 77.8263 103.103H77.7614L76.0733 102.912L77.0719 103.49C77.0793 103.493 77.0855 103.498 77.0899 103.505C77.0943 103.511 77.0967 103.519 77.0967 103.527C77.0967 103.535 77.0943 103.543 77.0899 103.549C77.0855 103.556 77.0793 103.561 77.0719 103.564L76.8741 103.679C76.8529 103.685 76.8303 103.685 76.8091 103.679C76.788 103.685 76.7654 103.685 76.7442 103.679L75.1767 102.776C75.1582 102.776 75.1489 102.751 75.1489 102.736C75.1499 102.727 75.153 102.72 75.1579 102.713C75.1627 102.707 75.1693 102.702 75.1767 102.698L75.3468 102.6C75.3722 102.585 75.401 102.578 75.4303 102.578H75.4983L77.1863 102.77L76.1846 102.191C76.1773 102.188 76.171 102.183 76.1666 102.177C76.1622 102.17 76.1599 102.162 76.1599 102.154C76.1599 102.146 76.1622 102.139 76.1666 102.132C76.171 102.125 76.1773 102.12 76.1846 102.117L76.3825 102.003C76.4026 101.993 76.4249 101.987 76.4474 101.987C76.4701 101.987 76.4925 101.992 76.5123 102.003L78.0798 102.909C78.0897 102.909 78.0991 102.913 78.1061 102.92C78.113 102.927 78.1169 102.936 78.1169 102.946C78.1169 102.956 78.113 102.965 78.1061 102.972C78.0991 102.979 78.0897 102.983 78.0798 102.983L77.9098 103.082Z" fill="#CCCCCC"/>
<path d="M77.8019 102.41C77.7217 102.366 77.6496 102.309 77.5885 102.24C77.5403 102.188 77.509 102.122 77.4989 102.052C77.4939 101.984 77.5113 101.917 77.5483 101.86C77.5977 101.788 77.6647 101.729 77.7431 101.69C77.8348 101.637 77.9338 101.599 78.0368 101.576C78.1435 101.553 78.2524 101.543 78.3615 101.545C78.4657 101.549 78.5693 101.563 78.6706 101.588C78.7681 101.613 78.8617 101.652 78.9489 101.702L79.0571 101.764C79.0644 101.767 79.0707 101.772 79.0751 101.779C79.0795 101.786 79.0818 101.793 79.0818 101.801C79.0818 101.809 79.0795 101.817 79.0751 101.824C79.0707 101.83 79.0644 101.835 79.0571 101.838L78.2471 102.308C78.2855 102.33 78.3274 102.344 78.3707 102.352C78.4149 102.356 78.4595 102.356 78.5037 102.352C78.5486 102.345 78.593 102.336 78.6366 102.324C78.6776 102.311 78.717 102.293 78.7541 102.271C78.7949 102.25 78.8324 102.223 78.8654 102.191C78.8849 102.171 78.8988 102.147 78.9056 102.12C78.9087 102.105 78.915 102.091 78.9241 102.08C78.9346 102.067 78.9471 102.057 78.9612 102.049L79.156 101.937C79.1761 101.927 79.1984 101.922 79.2209 101.922C79.2437 101.92 79.2666 101.925 79.2859 101.937C79.311 101.954 79.3288 101.979 79.3353 102.008C79.3477 102.048 79.3477 102.09 79.3353 102.129C79.3184 102.185 79.2888 102.237 79.2488 102.28C79.1914 102.345 79.1234 102.399 79.0478 102.441C78.9553 102.492 78.8566 102.53 78.7541 102.556C78.6474 102.578 78.5385 102.589 78.4295 102.587C78.3248 102.58 78.2212 102.563 78.1203 102.534C78.0096 102.506 77.9027 102.464 77.8019 102.41V102.41ZM78.0337 101.857C77.9961 101.877 77.9626 101.905 77.9348 101.937C77.9171 101.961 77.9064 101.989 77.9039 102.018C77.9034 102.043 77.911 102.068 77.9255 102.089C77.9379 102.112 77.956 102.133 77.9781 102.148L78.5253 101.838C78.4953 101.825 78.4643 101.813 78.4326 101.804C78.3944 101.793 78.3549 101.787 78.3151 101.786C78.2704 101.787 78.2258 101.792 78.1821 101.801C78.1308 101.814 78.081 101.833 78.0337 101.857Z" fill="#CCCCCC"/>
<path d="M80.576 100.951L80.1029 100.423C80.0939 100.413 80.0875 100.402 80.0844 100.389C80.0844 100.389 80.0844 100.364 80.1122 100.352L80.2946 100.243C80.3158 100.233 80.3391 100.228 80.3626 100.228C80.3852 100.228 80.4075 100.233 80.4276 100.243V100.243L81.1819 101.1C81.1905 101.111 81.1968 101.124 81.2005 101.137C81.2005 101.137 81.2005 101.162 81.1727 101.177L80.9872 101.282C80.9667 101.295 80.9429 101.3 80.9192 101.298H80.8542L79.9731 101.06L80.3843 101.57C80.3929 101.581 80.3992 101.593 80.4028 101.607C80.4028 101.607 80.4028 101.632 80.375 101.644L80.1926 101.752C80.1721 101.764 80.1483 101.77 80.1246 101.768C80.1031 101.771 80.0812 101.771 80.0597 101.768L78.5757 101.335C78.5757 101.335 78.5757 101.335 78.5571 101.335C78.5473 101.335 78.5378 101.331 78.5309 101.324C78.5239 101.317 78.52 101.308 78.52 101.298C78.52 101.288 78.5239 101.278 78.5309 101.272C78.5378 101.265 78.5473 101.261 78.5571 101.261L78.7395 101.152C78.76 101.14 78.7838 101.135 78.8075 101.137H78.8663L79.7783 101.409L79.3177 100.874C79.3154 100.869 79.3142 100.863 79.3142 100.857C79.3142 100.851 79.3154 100.846 79.3177 100.84C79.3172 100.832 79.3194 100.824 79.3238 100.818C79.3283 100.811 79.3348 100.806 79.3424 100.803L79.5279 100.695C79.5492 100.69 79.5715 100.69 79.5928 100.695C79.6133 100.691 79.6342 100.691 79.6547 100.695L80.576 100.951Z" fill="#CCCCCC"/>
<path d="M81.6725 100.169C81.5922 100.124 81.5201 100.065 81.4592 99.9959C81.4104 99.9439 81.3791 99.878 81.3695 99.8073C81.3607 99.7409 81.3772 99.6735 81.4159 99.6187C81.4666 99.5468 81.5333 99.4876 81.6107 99.4456C81.7075 99.3924 81.8117 99.3538 81.9198 99.3312C82.0217 99.311 82.1252 99.3007 82.229 99.3003C82.3335 99.3041 82.4372 99.3196 82.5382 99.3467C82.636 99.3697 82.7297 99.4072 82.8164 99.458L82.9246 99.5198C82.9432 99.5322 82.9525 99.5445 82.9525 99.5569C82.9525 99.5724 82.9525 99.5847 82.9246 99.5971L82.1146 100.064C82.1516 100.086 82.1926 100.101 82.2352 100.107C82.2794 100.112 82.3239 100.112 82.3681 100.107C82.4145 100.104 82.4602 100.095 82.5042 100.079C82.5456 100.068 82.5852 100.05 82.6216 100.027C82.6631 100.007 82.7008 99.9795 82.733 99.9464C82.7513 99.9271 82.7651 99.9039 82.7731 99.8784C82.7754 99.8631 82.7806 99.8484 82.7886 99.8352C82.7992 99.8223 82.8131 99.8127 82.8288 99.8073L83.0236 99.6929C83.0437 99.6829 83.066 99.6776 83.0885 99.6776C83.111 99.6776 83.1333 99.6829 83.1534 99.6929C83.1771 99.712 83.1944 99.7379 83.2029 99.7671C83.2152 99.8064 83.2152 99.8485 83.2029 99.8877C83.1828 99.9427 83.1535 99.9939 83.1163 100.039C83.0575 100.103 82.9886 100.156 82.9123 100.197C82.8206 100.249 82.7216 100.288 82.6186 100.311C82.5172 100.335 82.4133 100.345 82.3094 100.342C82.1984 100.339 82.0883 100.321 81.9817 100.29C81.8737 100.263 81.7698 100.223 81.6725 100.169V100.169ZM81.9044 99.6156C81.8655 99.6342 81.8316 99.6618 81.8055 99.696C81.7861 99.7184 81.7751 99.7468 81.7745 99.7764C81.773 99.8015 81.7795 99.8264 81.7931 99.8475C81.8082 99.8682 81.8259 99.8869 81.8456 99.9032L82.396 99.594C82.3651 99.5798 82.333 99.5685 82.3001 99.56C82.2628 99.5499 82.2244 99.5447 82.1857 99.5445C82.1409 99.5422 82.0959 99.5474 82.0528 99.56C81.9997 99.5721 81.9493 99.5941 81.9044 99.6249V99.6156Z" fill="#CCCCCC"/>
<path d="M82.9345 98.8618C82.9274 98.8108 82.9395 98.759 82.9685 98.7164C83.002 98.6657 83.0477 98.6243 83.1014 98.5959C83.1965 98.5394 83.3014 98.5017 83.4106 98.4846C83.5131 98.4698 83.6172 98.4698 83.7198 98.4846C83.7137 98.454 83.7137 98.4224 83.7198 98.3918C83.725 98.358 83.7366 98.3255 83.7538 98.296C83.7717 98.2637 83.7947 98.2345 83.8218 98.2094C83.8513 98.1826 83.8834 98.1587 83.9176 98.1383C84.0028 98.0881 84.0958 98.0526 84.1928 98.0332C84.2824 98.0158 84.3739 98.0106 84.4648 98.0177C84.5546 98.0263 84.6428 98.046 84.7276 98.0765C84.81 98.1067 84.8897 98.1439 84.9657 98.1878L85.6211 98.565C85.6283 98.5686 85.6343 98.5741 85.6385 98.5809C85.6427 98.5877 85.6449 98.5956 85.6449 98.6036C85.6449 98.6116 85.6427 98.6195 85.6385 98.6263C85.6343 98.6331 85.6283 98.6386 85.6211 98.6422L85.4356 98.7474C85.4155 98.7576 85.3933 98.7629 85.3707 98.7628C85.3471 98.7631 85.3238 98.7578 85.3027 98.7474L84.6627 98.3764C84.5739 98.3214 84.4732 98.2885 84.369 98.2805C84.2843 98.2805 84.2011 98.3029 84.1279 98.3454C84.1008 98.3569 84.0772 98.3752 84.0593 98.3985C84.0414 98.4218 84.0299 98.4493 84.0258 98.4784C84.0258 98.5279 84.0691 98.5866 84.1711 98.6484L84.8235 99.0256C84.8333 99.0256 84.8428 99.0295 84.8497 99.0365C84.8567 99.0434 84.8606 99.0529 84.8606 99.0627C84.8606 99.0726 84.8567 99.082 84.8497 99.0889C84.8428 99.0959 84.8333 99.0998 84.8235 99.0998L84.638 99.208C84.6181 99.2189 84.5957 99.2242 84.5731 99.2235C84.5505 99.2235 84.5282 99.2183 84.5081 99.208L83.8682 98.837C83.7804 98.7797 83.6791 98.7466 83.5744 98.7412C83.4893 98.7377 83.4052 98.7604 83.3333 98.8061C83.3053 98.8174 83.2808 98.8359 83.2623 98.8599C83.2438 98.8838 83.232 98.9122 83.2282 98.9421C83.2282 98.9947 83.2776 99.0534 83.3889 99.1153L84.0289 99.4832C84.0359 99.4875 84.0418 99.4934 84.046 99.5003C84.0503 99.5073 84.0529 99.5152 84.0537 99.5234C84.053 99.5311 84.0504 99.5386 84.046 99.5451C84.0417 99.5516 84.0358 99.5569 84.0289 99.5605L83.8434 99.6656C83.8233 99.6757 83.801 99.6809 83.7785 99.6809C83.756 99.6809 83.7337 99.6757 83.7136 99.6656L82.582 99.0132C82.5722 99.0132 82.5627 99.0093 82.5558 99.0024C82.5488 98.9954 82.5449 98.986 82.5449 98.9761C82.5449 98.9663 82.5488 98.9569 82.5558 98.9499C82.5627 98.943 82.5722 98.939 82.582 98.939L82.7675 98.8308C82.7874 98.82 82.8098 98.8146 82.8325 98.8154C82.855 98.8153 82.8773 98.8206 82.8974 98.8308L82.9345 98.8618Z" fill="#CCCCCC"/>
<path d="M85.0397 97.8657C85.012 97.8407 84.9899 97.8102 84.9747 97.7761C84.9622 97.7368 84.9622 97.6947 84.9747 97.6555C84.9861 97.6038 85.0106 97.5559 85.0458 97.5164C85.098 97.4568 85.161 97.4075 85.2313 97.3711C85.3128 97.3251 85.3988 97.2878 85.488 97.2597C85.5748 97.2361 85.6639 97.2216 85.7538 97.2165C85.8445 97.213 85.9353 97.2234 86.0228 97.2474C86.1136 97.2695 86.201 97.3038 86.2825 97.3494L86.9967 97.7606C87.0037 97.7649 87.0095 97.7708 87.0138 97.7778C87.0181 97.7847 87.0207 97.7926 87.0214 97.8008C87.021 97.8086 87.0186 97.8162 87.0142 97.8228C87.0098 97.8293 87.0038 97.8345 86.9967 97.8379L86.8112 97.943C86.7916 97.9547 86.769 97.9601 86.7463 97.9585C86.7235 97.9607 86.7006 97.9553 86.6813 97.943L86.6009 97.8966C86.6123 97.9498 86.6023 98.0053 86.5731 98.0512C86.5244 98.1242 86.4572 98.1828 86.3784 98.2213C86.3114 98.261 86.2397 98.2922 86.165 98.314C86.0945 98.3341 86.0219 98.3455 85.9486 98.348C85.8791 98.3483 85.8098 98.342 85.7415 98.3295C85.6776 98.3147 85.6161 98.2907 85.5591 98.2584C85.4478 98.1934 85.4014 98.1192 85.4168 98.0388C85.4473 97.9328 85.514 97.8409 85.6054 97.7791L85.9332 97.5133C85.8714 97.4749 85.798 97.4596 85.726 97.47C85.6542 97.479 85.5848 97.5021 85.522 97.538C85.4921 97.5542 85.4658 97.5763 85.4447 97.6029C85.4343 97.6231 85.428 97.6452 85.4261 97.6678C85.4279 97.6812 85.4279 97.6947 85.4261 97.708C85.4168 97.7187 85.4051 97.7271 85.3921 97.7328L85.1664 97.8657C85.1482 97.8707 85.129 97.8707 85.1108 97.8657C85.1004 97.873 85.0879 97.877 85.0752 97.877C85.0625 97.877 85.0501 97.873 85.0397 97.8657V97.8657ZM86.1279 98.0265C86.1743 98.0006 86.2161 97.9672 86.2516 97.9275C86.2768 97.9001 86.293 97.8656 86.298 97.8286C86.3005 97.7982 86.2928 97.7677 86.2763 97.742C86.2568 97.7124 86.2302 97.6879 86.199 97.6709L86.1743 97.6555L85.9022 97.8812C85.8606 97.9079 85.8283 97.9467 85.8095 97.9925C85.8095 98.0203 85.8095 98.0481 85.8528 98.0698C85.8938 98.0844 85.9385 98.0844 85.9795 98.0698C86.0309 98.063 86.081 98.0484 86.1279 98.0265V98.0265Z" fill="#CCCCCC"/>
<path d="M85.9147 96.4592C85.9348 96.4491 85.957 96.4438 85.9796 96.4438C86.0021 96.4438 86.0243 96.4491 86.0445 96.4592L86.2331 96.5674C86.2406 96.5706 86.2471 96.5757 86.252 96.5822C86.2569 96.5887 86.2599 96.5964 86.2609 96.6045C86.2609 96.6199 86.2609 96.6323 86.2331 96.6447L86.026 96.7652C86.0058 96.7755 85.9836 96.7808 85.961 96.7807C85.9375 96.781 85.9141 96.7757 85.893 96.7652L85.7044 96.6539C85.6971 96.6509 85.6908 96.6457 85.6864 96.6391C85.682 96.6325 85.6797 96.6248 85.6797 96.6168C85.6797 96.6089 85.682 96.6011 85.6864 96.5945C85.6908 96.5879 85.6971 96.5828 85.7044 96.5797L85.9147 96.4592ZM87.6243 97.3867C87.6429 97.3867 87.6522 97.4114 87.6522 97.4269C87.6522 97.4423 87.6522 97.4516 87.6243 97.464L87.4388 97.5691C87.4189 97.5797 87.3965 97.585 87.3739 97.5845C87.3512 97.5861 87.3285 97.5807 87.309 97.5691L86.1774 96.9167C86.1703 96.9134 86.1643 96.9081 86.1599 96.9016C86.1556 96.8951 86.1531 96.8875 86.1527 96.8796C86.1523 96.8716 86.1544 96.8636 86.1589 96.8569C86.1633 96.8503 86.1699 96.8452 86.1774 96.8425L86.3629 96.7343C86.3831 96.7241 86.4053 96.7188 86.4279 96.7189C86.4505 96.7181 86.4729 96.7235 86.4928 96.7343L87.6243 97.3867Z" fill="#CCCCCC"/>
<path d="M88.2731 97.019C88.2804 97.022 88.2867 97.0272 88.2911 97.0338C88.2955 97.0404 88.2978 97.0481 88.2978 97.0561C88.2978 97.064 88.2955 97.0717 88.2911 97.0783C88.2867 97.0849 88.2804 97.0901 88.2731 97.0932L88.0907 97.2014C88.0706 97.2116 88.0483 97.2169 88.0258 97.2168C88.0022 97.2171 87.9789 97.2118 87.9578 97.2014L86.3656 96.2739C86.3586 96.2696 86.3527 96.2637 86.3484 96.2567C86.3441 96.2497 86.3415 96.2418 86.3408 96.2337C86.3415 96.2259 86.3441 96.2184 86.3484 96.212C86.3528 96.2055 86.3587 96.2002 86.3656 96.1966L86.5511 96.0915C86.5722 96.085 86.5948 96.085 86.616 96.0915C86.6382 96.0847 86.6618 96.0847 86.684 96.0915L88.2731 97.019Z" fill="#CCCCCC"/>
<path d="M78.6497 104.387L102.697 90.505C102.842 90.4204 103.004 90.3711 103.172 90.3609C103.339 90.3507 103.507 90.3799 103.661 90.4463C103.899 90.5823 103.853 90.8327 103.559 91.0028L79.5123 104.887C79.3667 104.972 79.2034 105.021 79.0354 105.031C78.8674 105.041 78.6994 105.012 78.5446 104.946C78.3065 104.807 78.356 104.56 78.6497 104.387Z" fill="#CCCCCC"/>
<path d="M80.3374 105.363L104.384 91.4815C104.529 91.3967 104.692 91.3469 104.859 91.3362C105.027 91.3255 105.194 91.3541 105.349 91.4197C105.59 91.5588 105.541 91.8062 105.247 91.9793L81.2 105.861C81.0546 105.946 80.8914 105.995 80.7234 106.006C80.5554 106.017 80.3873 105.988 80.2323 105.923C79.9973 105.784 80.0437 105.533 80.3374 105.363Z" fill="#CCCCCC"/>
<path d="M44.6374 114.373L32.0791 107.123L88.335 74.6416L101.15 81.7462L44.6374 114.373Z" fill="#E0E0E0"/>
<path d="M41.2397 69.1692L94.744 38.2773L96.8834 39.514C97.176 39.7057 97.4195 39.9633 97.5946 40.2661C97.7696 40.5689 97.8712 40.9085 97.8913 41.2577V80.7258C97.8717 81.0751 97.7703 81.4149 97.5952 81.7178C97.4201 82.0207 97.1763 82.2782 96.8834 82.4695L45.3949 112.199C45.0828 112.356 44.7381 112.438 44.3886 112.438C44.0391 112.438 43.6945 112.356 43.3823 112.199L42.2476 111.544C41.9551 111.352 41.7115 111.094 41.5365 110.791C41.3615 110.489 41.2598 110.149 41.2397 109.8V69.1692Z" fill="#FF9721"/>
<path opacity="0.2" d="M41.2397 69.1692L94.744 38.2773L96.8834 39.514C97.176 39.7057 97.4195 39.9633 97.5946 40.2661C97.7696 40.5689 97.8712 40.9085 97.8913 41.2577V80.7258C97.8717 81.0751 97.7703 81.4149 97.5952 81.7178C97.4201 82.0207 97.1763 82.2782 96.8834 82.4695L45.3949 112.199C45.0828 112.356 44.7381 112.438 44.3886 112.438C44.0391 112.438 43.6945 112.356 43.3823 112.199L42.2476 111.544C41.9551 111.352 41.7115 111.094 41.5365 110.791C41.3615 110.489 41.2598 110.149 41.2397 109.8V69.1692Z" fill="black"/>
<path d="M94.4472 34.8092L94.6667 34.6917L93.8351 34.2063C93.7648 34.1647 93.6914 34.1285 93.6156 34.0981L70.0695 25.3765C69.7458 25.2709 69.3971 25.2697 69.0726 25.3728C68.7481 25.476 68.4642 25.6784 68.2609 25.9516L41.9199 64.418C41.5096 65.0797 41.2755 65.8353 41.2397 66.6131V69.1699L42.0559 69.6429L94.744 38.278V35.7243C94.7342 35.3972 94.6312 35.0797 94.4472 34.8092V34.8092Z" fill="#FF9721"/>
<path opacity="0.1" d="M69.349 26.1368C69.2452 26.2205 69.1536 26.3183 69.0769 26.4274L42.736 64.8907C42.5188 65.231 42.3541 65.602 42.2475 65.9914L41.4282 65.5183C41.4867 65.3202 41.558 65.126 41.6415 64.9371C41.6411 64.9309 41.6411 64.9247 41.6415 64.9185C41.6786 64.8382 41.7157 64.764 41.7559 64.6867C41.7609 64.6737 41.7671 64.6613 41.7745 64.6496C41.8163 64.5696 41.8627 64.4922 41.9136 64.4177L68.2607 25.9698C68.2998 25.913 68.3432 25.8592 68.3906 25.8091C68.437 25.7658 68.4833 25.7194 68.5328 25.6792L69.349 26.1368Z" fill="#FC9521"/>
<path opacity="0.35" d="M94.6568 34.6848C94.5853 34.6413 94.5097 34.605 94.4311 34.5765L70.8819 25.8488C70.621 25.7612 70.3422 25.7417 70.0717 25.792C69.8012 25.8423 69.548 25.9608 69.3361 26.1363L68.5322 25.6602C68.7448 25.486 68.998 25.3683 69.2682 25.3181C69.5385 25.2678 69.817 25.2866 70.0781 25.3727L93.6149 34.1004C93.6912 34.1296 93.7647 34.1658 93.8344 34.2086L94.6568 34.6848Z" fill="white"/>
<path d="M41.7808 64.6494C41.8221 64.5691 41.8686 64.4917 41.9199 64.4175C41.8686 64.4917 41.8221 64.5691 41.7808 64.6494Z" fill="#FF9721"/>
<path d="M68.3936 25.7943C68.4372 25.7476 68.484 25.7039 68.5336 25.6636C68.484 25.7039 68.4372 25.7476 68.3936 25.7943V25.7943Z" fill="#FF9721"/>
<path d="M41.4282 65.5179C41.4883 65.3189 41.5605 65.1237 41.6446 64.9336C41.5605 65.1237 41.4883 65.3189 41.4282 65.5179Z" fill="#FF9721"/>
<path d="M41.6479 64.9247C41.682 64.8444 41.7221 64.7671 41.7592 64.6929C41.7376 64.7609 41.682 64.8382 41.6479 64.9247Z" fill="#FF9721"/>
<path opacity="0.2" d="M41.7588 64.6868C41.7649 64.6737 41.7722 64.6612 41.7806 64.6494C41.7722 64.6612 41.7649 64.6737 41.7588 64.6868Z" fill="black"/>
<path opacity="0.2" d="M68.2603 25.9516C68.2993 25.8949 68.3439 25.842 68.3932 25.7939C68.3439 25.842 68.2993 25.8949 68.2603 25.9516V25.9516Z" fill="black"/>
<path d="M69.0773 26.4273L42.7363 64.8906C42.3232 65.5528 42.0859 66.3094 42.0469 67.0888V69.6425L95.5511 38.7507V36.1969C95.5346 35.8481 95.42 35.5109 95.2203 35.2243C95.0207 34.9377 94.7442 34.7133 94.4227 34.5769L70.8859 25.8523C70.5623 25.7453 70.2131 25.7432 69.8883 25.8465C69.5635 25.9498 69.2796 26.1531 69.0773 26.4273Z" fill="#FFB664"/>
<path opacity="0.05" d="M95.5604 36.197C95.55 35.8763 95.4504 35.5647 95.2729 35.2974L42.2478 65.9914C42.1296 66.3459 42.0619 66.7154 42.0469 67.0889V69.6426L95.5511 38.7507L95.5604 36.197Z" fill="black"/>
<path d="M93.2757 25.3516C93.2862 25.2446 93.2686 25.1368 93.2247 25.0386C93.1808 24.9405 93.112 24.8555 93.0252 24.7921L91.3898 23.8646C91.2904 23.8194 91.1809 23.8013 91.0723 23.8122C90.9637 23.823 90.8599 23.8624 90.7714 23.9264L46.8698 49.278C46.617 49.4431 46.4066 49.6655 46.2556 49.9271C46.1047 50.1886 46.0175 50.4821 46.0011 50.7836V103.342C45.9904 103.45 46.0081 103.558 46.0526 103.657C46.0971 103.756 46.1668 103.841 46.2546 103.905L47.8839 104.832C47.983 104.878 48.0924 104.896 48.201 104.886C48.3096 104.876 48.4135 104.837 48.5022 104.773L92.4038 79.4371C92.6599 79.2701 92.8726 79.0444 93.0242 78.7788C93.1758 78.5132 93.262 78.2154 93.2757 77.9099V25.3516Z" fill="#FF9721"/>
<path opacity="0.95" d="M93.2757 25.3516C93.2862 25.2446 93.2686 25.1368 93.2247 25.0386C93.1808 24.9405 93.112 24.8555 93.0252 24.7921L91.3898 23.8646C91.2904 23.8194 91.1809 23.8013 91.0723 23.8122C90.9637 23.823 90.8599 23.8624 90.7714 23.9264L46.8698 49.278C46.617 49.4431 46.4066 49.6655 46.2556 49.9271C46.1047 50.1886 46.0175 50.4821 46.0011 50.7836V103.342C45.9904 103.45 46.0081 103.558 46.0526 103.657C46.0971 103.756 46.1668 103.841 46.2546 103.905L47.8839 104.832C47.983 104.878 48.0924 104.896 48.201 104.886C48.3096 104.876 48.4135 104.837 48.5022 104.773L92.4038 79.4371C92.6599 79.2701 92.8726 79.0444 93.0242 78.7788C93.1758 78.5132 93.262 78.2154 93.2757 77.9099V25.3516Z" fill="white"/>
<path d="M48.5211 104.754L92.4227 79.4181C92.6729 79.2508 92.8804 79.0272 93.0286 78.7651C93.1768 78.5031 93.2615 78.21 93.276 77.9094V25.3511C93.276 24.7977 92.8864 24.5751 92.4072 24.8503L48.5211 50.2019C48.2684 50.3672 48.0581 50.5896 47.9072 50.8512C47.7563 51.1127 47.669 51.4061 47.6523 51.7076V104.266C47.6523 104.807 48.0419 105.029 48.5211 104.754Z" fill="#FF9721"/>
<path opacity="0.85" d="M48.5211 104.754L92.4227 79.4181C92.6729 79.2508 92.8804 79.0272 93.0286 78.7651C93.1768 78.5031 93.2615 78.21 93.276 77.9094V25.3511C93.276 24.7977 92.8864 24.5751 92.4072 24.8503L48.5211 50.2019C48.2684 50.3672 48.0581 50.5896 47.9072 50.8512C47.7563 51.1127 47.669 51.4061 47.6523 51.7076V104.266C47.6523 104.807 48.0419 105.029 48.5211 104.754Z" fill="white"/>
<path d="M47.6524 104.251C47.644 104.349 47.658 104.448 47.6933 104.54C47.7287 104.632 47.7844 104.715 47.8564 104.782C47.5627 104.615 46.425 103.954 46.2797 103.873C46.1903 103.812 46.1193 103.728 46.0741 103.629C46.0289 103.531 46.0113 103.422 46.0231 103.314V50.7556C46.033 50.4537 46.1214 50.1596 46.2797 49.9023L47.909 50.8298C47.751 51.0895 47.6626 51.3855 47.6524 51.6893V104.251Z" fill="#FF9721"/>
<path opacity="0.7" d="M47.6524 104.251C47.644 104.349 47.658 104.448 47.6933 104.54C47.7287 104.632 47.7844 104.715 47.8564 104.782C47.5627 104.615 46.425 103.954 46.2797 103.873C46.1903 103.812 46.1193 103.728 46.0741 103.629C46.0289 103.531 46.0113 103.422 46.0231 103.314V50.7556C46.033 50.4537 46.1214 50.1596 46.2797 49.9023L47.909 50.8298C47.751 51.0895 47.6626 51.3855 47.6524 51.6893V104.251Z" fill="white"/>
<path opacity="0.05" d="M47.6524 104.251C47.644 104.349 47.658 104.448 47.6933 104.54C47.7287 104.632 47.7844 104.715 47.8564 104.782C47.5627 104.615 46.425 103.954 46.2797 103.873C46.1903 103.812 46.1193 103.728 46.0741 103.629C46.0289 103.531 46.0113 103.422 46.0231 103.314V50.7556C46.033 50.4537 46.1214 50.1596 46.2797 49.9023L47.909 50.8298C47.751 51.0895 47.6626 51.3855 47.6524 51.6893V104.251Z" fill="black"/>
<path d="M69.0853 59.0391C69.6158 57.7959 70.2249 56.5862 70.909 55.4168C71.3803 54.6142 71.8094 53.7888 72.1948 52.9436C72.4601 52.3639 72.6015 51.7374 72.6102 51.1025C72.6102 50.2482 72.3478 49.7228 71.823 49.5178C71.2982 49.3128 70.6072 49.4623 69.7369 49.945C68.8764 50.4381 68.1231 51.0912 67.5196 51.8671C66.8456 52.7267 66.2952 53.6724 65.8839 54.6778L62.6694 54.0328C63.3885 52.1777 64.4073 50.4472 65.6871 48.907C66.9394 47.3954 68.4665 46.1226 70.1917 45.1523C72.2327 44.0132 73.8669 43.6573 75.0943 44.0844C76.3218 44.5116 76.937 45.7332 76.9399 47.7494C76.9457 48.6595 76.825 49.5662 76.5813 50.4447C76.3656 51.2404 76.0727 52.0142 75.7066 52.7556C75.3611 53.4476 74.9107 54.272 74.364 55.2288C73.834 56.1118 73.355 57.023 72.9295 57.9584C72.6362 58.6337 72.4874 59.3605 72.4922 60.0941L68.4817 62.358C68.4656 61.2243 68.6704 60.098 69.0853 59.0391V59.0391ZM68.6479 70.0297C68.1625 69.6922 67.9175 69.0857 67.9175 68.2058C67.9281 67.2934 68.1749 66.3985 68.6348 65.6044C69.0522 64.8119 69.6866 64.1479 70.4673 63.6865C71.2151 63.2593 71.823 63.2166 72.3041 63.537C72.7852 63.8573 73.0213 64.4554 73.0213 65.331C73.0066 66.258 72.7556 67.1667 72.291 67.9751C71.8832 68.7782 71.2509 69.452 70.4673 69.9186C69.7631 70.3287 69.1596 70.3629 68.6698 70.0297H68.6479Z" fill="#FF9721"/>
<path d="M96.5348 81.2517C96.5194 81.2806 96.5008 81.3076 96.4791 81.3321L74.1821 74.2615C73.3351 73.887 72.3814 73.8309 71.4964 74.1035C70.6114 74.3762 69.8546 74.9593 69.3653 75.7455L45.5286 111.173L44.6474 111.683C44.5495 111.752 44.4358 111.794 44.3169 111.807C44.198 111.82 44.0778 111.803 43.9673 111.757L68.4811 75.2416C68.9714 74.4555 69.7285 73.8726 70.6138 73.5994C71.499 73.3263 72.453 73.3814 73.301 73.7545L96.5348 81.2517Z" fill="#FF9721"/>
<path opacity="0.4" d="M67.17 79.2233L67.2257 79.1739L45.5284 111.173L44.6442 111.683C44.5454 111.751 44.4314 111.793 44.3122 111.807C44.1931 111.82 44.0724 111.804 43.9609 111.76L66.3167 78.707L67.17 79.2233Z" fill="white"/>
<path opacity="0.4" d="M96.5342 81.2545C96.5181 81.283 96.4995 81.3099 96.4785 81.3349L74.1815 74.2612C73.3343 73.8852 72.3796 73.8283 71.4938 74.101C70.6079 74.3738 69.8506 74.9578 69.3616 75.7452L68.4805 75.232C68.9716 74.4486 69.7282 73.8681 70.6122 73.5967C71.4961 73.3254 72.4481 73.3813 73.2942 73.7542L96.5342 81.2545Z" fill="white"/>
<path d="M97.8731 41.0043C97.8236 40.7168 97.6721 40.6364 97.4742 40.7724C97.3752 40.847 97.2887 40.9367 97.2176 41.0383L97.1063 41.1929L75.103 74.6447L71.8196 79.2203C71.6078 79.4873 71.3271 79.6914 71.0079 79.8107C70.6887 79.93 70.3429 79.96 70.0079 79.8974L67.1729 79.2234L45.5313 71.2562C45.3865 71.2211 45.2363 71.2148 45.0892 71.2377C45.0331 71.2505 44.9783 71.2681 44.9253 71.2902L45.7415 70.8203L66.4958 78.4258L69.2288 79.4027C69.5637 79.4665 69.9096 79.4367 70.2287 79.3167C70.5478 79.1968 70.8276 78.9912 71.0375 78.7226L74.3239 74.15L96.4324 40.5437C96.5011 40.4526 96.5859 40.3751 96.6828 40.3149L94.769 39.2111L95.5729 38.7505L96.8961 39.5141C97.1496 39.6853 97.3666 39.9052 97.5343 40.1611C97.702 40.4169 97.8172 40.7035 97.8731 41.0043V41.0043Z" fill="#FF9721"/>
<path opacity="0.4" d="M75.0995 74.6413L71.8131 79.2201C71.6015 79.4865 71.3214 79.6903 71.0028 79.8096C70.6841 79.9289 70.339 79.9591 70.0045 79.8971L67.1694 79.2232L67.2251 79.1737L67.3611 78.9573L69.2161 79.3994C69.5507 79.4635 69.8965 79.4342 70.2155 79.3148C70.5345 79.1953 70.8145 78.9904 71.0247 78.7223L74.2803 74.1992L75.0995 74.6413Z" fill="white"/>
<path opacity="0.1" d="M96.8841 39.511L95.5608 38.7505L94.7601 39.2111L96.6707 40.3149C96.5739 40.3751 96.489 40.4526 96.4203 40.5437L74.3088 74.15L74.2778 74.1933L75.0971 74.6385L97.0974 41.1898L97.2118 41.0321C97.281 40.93 97.3679 40.841 97.4684 40.7693C97.6632 40.6333 97.8177 40.7106 97.8641 41.0012C97.8087 40.6999 97.6934 40.4128 97.5251 40.1568C97.3567 39.9009 97.1387 39.6813 96.8841 39.511Z" fill="#FF9721"/>
<path d="M45.9602 71.8963L41.2393 69.1694V109.8C41.2593 110.149 41.361 110.489 41.536 110.792C41.711 111.094 41.9546 111.352 42.2471 111.544L43.3818 112.199C43.694 112.356 44.0386 112.438 44.3881 112.438C44.7376 112.438 45.0823 112.356 45.3944 112.199L45.9602 111.871V71.8963Z" fill="#FF9721"/>
<path d="M45.9602 71.8963L41.2393 69.1694V109.8C41.2593 110.149 41.361 110.489 41.536 110.792C41.711 111.094 41.9546 111.352 42.2471 111.544L43.3818 112.199C43.694 112.356 44.0386 112.438 44.3881 112.438C44.7376 112.438 45.0823 112.356 45.3944 112.199L45.9602 111.871V71.8963Z" fill="#FC9521"/>
<path d="M97.892 41.2578V80.7259C97.8805 81.0863 97.7738 81.4372 97.5828 81.7431C97.4332 82.0024 97.2323 82.2286 96.9923 82.4078L96.9521 82.4263L96.8903 82.4696L45.3956 112.196C45.2971 112.266 45.1826 112.31 45.0627 112.324C44.9428 112.338 44.8212 112.321 44.7093 112.276C44.6227 112.227 44.5493 112.157 44.4955 112.073C44.4416 111.989 44.4089 111.893 44.4001 111.794C44.3953 111.734 44.3953 111.674 44.4001 111.615V72.1465C44.3913 72.0052 44.4169 71.8638 44.4748 71.7346C44.5326 71.6053 44.621 71.4921 44.7323 71.4045C44.8436 71.3169 44.9745 71.2577 45.1137 71.2318C45.2529 71.206 45.3964 71.2143 45.5317 71.2561L67.1733 79.2234L70.0083 79.8973C70.3433 79.9599 70.6891 79.93 71.0083 79.8107C71.3275 79.6914 71.6082 79.4872 71.82 79.2203L75.1034 74.6446L97.1067 41.1928L97.218 41.0383C97.589 40.5189 97.892 40.6178 97.892 41.2578Z" fill="#FFB664"/>
<path d="M96.887 82.47C96.9096 82.4582 96.9313 82.4447 96.952 82.4298L96.9891 82.4051C97.2291 82.2286 97.4302 82.0044 97.5796 81.7466C97.7668 81.4447 97.8733 81.0998 97.8887 80.7449L75.1001 74.645L90.3605 86.2357L96.887 82.47Z" fill="#FF9721"/>
<path opacity="0.2" d="M96.887 82.47C96.9096 82.4582 96.9313 82.4447 96.952 82.4298L96.989 82.4051C97.2291 82.2286 97.4302 82.0044 97.5796 81.7466C97.7668 81.4447 97.8733 81.0998 97.8887 80.7449L75.1001 74.645L90.3605 86.2357L96.887 82.47Z" fill="#FF9721"/>
<path d="M44.3864 111.608C44.3708 111.737 44.3915 111.867 44.4462 111.984C44.5008 112.101 44.5872 112.2 44.6956 112.27C44.8072 112.316 44.9287 112.333 45.0486 112.319C45.1686 112.306 45.2832 112.262 45.3819 112.193V112.193L63.1095 101.959L67.1596 79.2202L44.3895 110.959L44.3864 111.608Z" fill="#FF9721"/>
<path d="M69.3553 75.7455L44.7024 112.277C44.5941 112.206 44.5077 112.107 44.453 111.99C44.3984 111.873 44.3776 111.743 44.3932 111.615V110.959L68.4742 75.2446L69.3553 75.7455Z" fill="#FF9721"/>
<path d="M97.5795 81.7465C97.4301 82.0043 97.229 82.2285 96.989 82.405L96.9519 82.4297L45.3953 112.196C45.2967 112.266 45.1821 112.309 45.0621 112.323C44.9421 112.336 44.8206 112.319 44.709 112.274L69.3588 75.7456C69.8511 74.9558 70.6115 74.3698 71.5007 74.095C72.3898 73.8202 73.3482 73.8749 74.2003 74.2492L97.5795 81.7465Z" fill="#FFB664"/>
<path d="M41.4285 65.5181L42.2478 65.9911C42.129 66.3455 42.0613 66.7151 42.0468 67.0886V69.6392L41.2275 69.1662V66.6125C41.2423 66.24 41.31 65.8715 41.4285 65.5181V65.5181Z" fill="#FC9521"/>
<path d="M45.7321 70.8202L44.9159 71.2901L44.0874 70.814L42.0562 69.6423L42.8445 69.1724L45.7321 70.8202Z" fill="#FF9721"/>
<path opacity="0.1" d="M45.7569 70.8357L42.8352 69.1724L42.0469 69.6423L44.0781 70.814L44.9067 71.2901C44.9559 71.2672 45.0078 71.2506 45.0612 71.2407C45.2071 71.2152 45.3566 71.2205 45.5003 71.2561L47.145 71.8745L66.0443 78.8338L66.3535 78.3948L45.7569 70.8357Z" fill="#FF9721"/>
<path d="M127.129 59.8211L138.068 52.8154L142.884 54.3613L127.129 59.8211Z" fill="#FF9721"/>
<path d="M127.129 59.8209L136.584 51.9372L134.481 49.5103L127.129 59.8209Z" fill="#FF9721"/>
<path d="M136.584 51.937V53.7642L127.129 59.8207L136.584 51.937Z" fill="#FF9721"/>
<path opacity="0.25" d="M136.584 51.937V53.7642L127.129 59.8207L136.584 51.937Z" fill="black"/>
<path d="M138.815 50.8768C138.77 50.8771 138.726 50.8679 138.686 50.8498C138.645 50.8317 138.609 50.805 138.58 50.7716C138.553 50.7407 138.532 50.7047 138.519 50.6658C138.507 50.6269 138.502 50.5859 138.505 50.545C138.508 50.5042 138.519 50.4644 138.538 50.4279C138.557 50.3914 138.582 50.359 138.614 50.3326C138.802 50.1688 138.991 49.9987 139.173 49.8256C139.233 49.7759 139.31 49.7509 139.388 49.7554C139.466 49.76 139.539 49.7938 139.593 49.8501C139.647 49.9065 139.678 49.9811 139.679 50.0592C139.68 50.1372 139.652 50.2128 139.6 50.2708C139.408 50.4532 139.217 50.6294 139.016 50.8026C138.96 50.8504 138.888 50.8768 138.815 50.8768V50.8768Z" fill="#E0E0E0"/>
<path d="M140.451 49.2566C140.376 49.2565 140.303 49.229 140.247 49.1793C140.185 49.1252 140.148 49.0488 140.143 48.9671C140.137 48.8854 140.165 48.8049 140.219 48.7434C140.528 48.3724 140.859 47.9797 141.146 47.5747C141.17 47.5421 141.201 47.5145 141.236 47.4935C141.27 47.4726 141.309 47.4587 141.349 47.4526C141.389 47.4466 141.43 47.4486 141.47 47.4584C141.509 47.4682 141.546 47.4857 141.579 47.5098C141.612 47.534 141.639 47.5643 141.66 47.5992C141.681 47.634 141.695 47.6726 141.701 47.7128C141.707 47.753 141.705 47.794 141.696 47.8334C141.686 47.8728 141.668 47.91 141.644 47.9427C141.335 48.3631 141.007 48.7681 140.673 49.1515C140.645 49.1833 140.611 49.2091 140.573 49.2272C140.535 49.2452 140.493 49.2553 140.451 49.2566V49.2566ZM142.262 46.808C142.206 46.8076 142.15 46.7916 142.102 46.7616C142.067 46.7402 142.037 46.7121 142.013 46.679C141.99 46.6459 141.973 46.6085 141.964 46.5688C141.954 46.5292 141.953 46.4882 141.96 46.448C141.967 46.4079 141.981 46.3695 142.003 46.335C142.262 45.9176 142.516 45.4786 142.751 45.0334C142.79 44.9628 142.855 44.9104 142.933 44.8873C143.01 44.8642 143.093 44.8723 143.165 44.9099C143.236 44.9474 143.29 45.0115 143.315 45.0883C143.34 45.1651 143.334 45.2486 143.298 45.3209C143.054 45.7816 142.794 46.233 142.525 46.6627C142.497 46.7073 142.459 46.744 142.413 46.7694C142.367 46.7948 142.315 46.8081 142.262 46.808V46.808ZM143.688 44.1152C143.645 44.1152 143.603 44.1057 143.564 44.0873C143.527 44.0709 143.493 44.0473 143.465 44.0179C143.437 43.9885 143.415 43.9539 143.401 43.916C143.386 43.8781 143.379 43.8377 143.38 43.797C143.381 43.7564 143.39 43.7164 143.406 43.6792C143.604 43.2248 143.796 42.7518 143.966 42.2849C143.995 42.21 144.053 42.1496 144.126 42.1165C144.2 42.0834 144.283 42.0801 144.359 42.1075C144.434 42.1349 144.496 42.1907 144.532 42.2631C144.567 42.3355 144.572 42.4187 144.547 42.4951C144.371 42.9805 144.176 43.4628 143.969 43.9297C143.945 43.9845 143.906 44.0312 143.856 44.0641C143.806 44.0971 143.747 44.1148 143.688 44.1152V44.1152ZM144.733 41.2492C144.704 41.2537 144.675 41.2537 144.646 41.2492C144.567 41.2262 144.501 41.173 144.462 41.1011C144.422 41.0292 144.413 40.9446 144.436 40.8658C144.575 40.3897 144.702 39.8981 144.813 39.4097C144.822 39.3691 144.839 39.3306 144.863 39.2965C144.886 39.2624 144.917 39.2334 144.952 39.211C144.987 39.1886 145.026 39.1733 145.067 39.166C145.108 39.1587 145.15 39.1596 145.19 39.1685C145.231 39.1774 145.269 39.1943 145.303 39.2181C145.337 39.2419 145.367 39.2721 145.389 39.3072C145.411 39.3422 145.427 39.3813 145.434 39.4222C145.441 39.4631 145.44 39.5051 145.431 39.5457C145.317 40.0465 145.187 40.5505 145.045 41.039C145.023 41.1035 144.981 41.1591 144.924 41.1971C144.868 41.2351 144.801 41.2534 144.733 41.2492V41.2492ZM145.404 38.275H145.354C145.314 38.2686 145.275 38.2544 145.241 38.233C145.206 38.2117 145.176 38.1837 145.152 38.1506C145.128 38.1176 145.111 38.0801 145.102 38.0405C145.092 38.0008 145.091 37.9597 145.097 37.9195C145.175 37.4279 145.24 36.9271 145.286 36.4262C145.294 36.3442 145.334 36.2687 145.397 36.2162C145.461 36.1637 145.543 36.1386 145.625 36.1464C145.707 36.1542 145.782 36.1943 145.835 36.2577C145.887 36.3212 145.912 36.403 145.904 36.485C145.855 36.9982 145.787 37.5145 145.707 38.0308C145.692 38.1 145.653 38.1621 145.598 38.2066C145.543 38.251 145.474 38.2752 145.404 38.275V38.275ZM145.691 35.239C145.609 35.239 145.53 35.2064 145.472 35.1485C145.414 35.0905 145.382 35.0118 145.382 34.9299C145.382 34.6918 145.382 34.4537 145.382 34.2157C145.382 33.9776 145.382 33.6901 145.382 33.4242C145.382 33.3422 145.414 33.2636 145.472 33.2056C145.53 33.1476 145.609 33.115 145.691 33.115C145.773 33.115 145.852 33.1476 145.91 33.2056C145.968 33.2636 146 33.3422 146 33.4242C146 33.6963 146 33.9653 146 34.2373C146 34.5094 146 34.7258 146 34.97C145.992 35.046 145.956 35.1162 145.898 35.167C145.841 35.2178 145.767 35.2457 145.691 35.2452V35.239ZM145.583 32.1937C145.506 32.1941 145.432 32.1658 145.374 32.1144C145.317 32.0629 145.281 31.992 145.274 31.9155C145.221 31.4146 145.153 30.9138 145.067 30.4253C145.053 30.3433 145.072 30.2591 145.12 30.1913C145.168 30.1235 145.241 30.0775 145.323 30.0636C145.405 30.0496 145.489 30.0688 145.557 30.117C145.625 30.1651 145.671 30.2382 145.685 30.3202C145.775 30.821 145.846 31.3373 145.898 31.866C145.902 31.9064 145.899 31.9473 145.887 31.9862C145.876 32.0252 145.857 32.0615 145.831 32.0931C145.806 32.1247 145.774 32.1509 145.738 32.1703C145.703 32.1897 145.663 32.2019 145.623 32.2061L145.583 32.1937ZM145.054 29.1886C144.984 29.1909 144.915 29.1691 144.859 29.127C144.803 29.0848 144.763 29.0248 144.745 28.9568C144.621 28.4683 144.479 27.986 144.321 27.516C144.305 27.4769 144.297 27.4349 144.298 27.3925C144.298 27.3502 144.308 27.3084 144.325 27.2698C144.343 27.2312 144.368 27.1966 144.399 27.1682C144.431 27.1398 144.468 27.1181 144.508 27.1045C144.548 27.0909 144.59 27.0857 144.633 27.0892C144.675 27.0927 144.716 27.1049 144.753 27.1249C144.79 27.145 144.823 27.1725 144.85 27.2057C144.876 27.2389 144.895 27.2772 144.906 27.3182C145.07 27.8036 145.215 28.3013 145.345 28.8053C145.356 28.8516 145.357 28.8999 145.347 28.9464C145.336 28.993 145.315 29.0366 145.285 29.0737C145.255 29.1108 145.217 29.1405 145.174 29.1604C145.131 29.1804 145.083 29.19 145.036 29.1886H145.054ZM144.071 26.301C144.011 26.3012 143.952 26.2838 143.901 26.2508C143.851 26.2179 143.811 26.1708 143.787 26.1155C143.589 25.6549 143.369 25.188 143.134 24.7676C143.093 24.6954 143.083 24.6099 143.105 24.5299C143.127 24.4499 143.18 24.3819 143.252 24.3409C143.324 24.2999 143.409 24.2893 143.489 24.3113C143.569 24.3333 143.637 24.3862 143.678 24.4584C143.923 24.9098 144.148 25.3859 144.355 25.8558C144.387 25.9313 144.388 26.0163 144.357 26.0922C144.327 26.1682 144.267 26.2288 144.192 26.2608C144.155 26.2833 144.114 26.297 144.071 26.301ZM142.627 23.6206C142.576 23.6208 142.525 23.6082 142.48 23.5839C142.434 23.5596 142.396 23.5244 142.368 23.4814C142.098 23.06 141.807 22.6524 141.496 22.2602C141.47 22.2284 141.451 22.1919 141.44 22.1527C141.429 22.1135 141.425 22.0725 141.43 22.032C141.434 21.9915 141.447 21.9522 141.467 21.9166C141.486 21.881 141.513 21.8496 141.545 21.8243C141.609 21.7738 141.691 21.7506 141.772 21.7598C141.853 21.7691 141.927 21.8101 141.978 21.8738C142.287 22.2726 142.596 22.6962 142.905 23.129C142.936 23.1755 142.954 23.2294 142.956 23.285C142.959 23.3406 142.946 23.3959 142.92 23.445C142.894 23.4941 142.854 23.5351 142.807 23.5639C142.759 23.5926 142.705 23.6079 142.649 23.6082L142.627 23.6206ZM140.723 21.24C140.681 21.2398 140.64 21.2312 140.602 21.2148C140.563 21.1983 140.529 21.1743 140.5 21.1441C140.16 20.7886 139.798 20.4361 139.421 20.0992C139.36 20.0438 139.323 19.9665 139.319 19.8841C139.315 19.8018 139.344 19.7212 139.4 19.6601C139.455 19.5991 139.532 19.5625 139.615 19.5584C139.697 19.5543 139.777 19.5832 139.839 19.6385C140.225 19.9879 140.599 20.3527 140.948 20.7175C140.99 20.7614 141.018 20.8167 141.029 20.8764C141.04 20.9362 141.033 20.9977 141.008 21.0534C140.984 21.1091 140.945 21.1565 140.894 21.1897C140.843 21.2229 140.783 21.2404 140.723 21.24V21.24ZM138.463 19.1933C138.394 19.1926 138.326 19.1699 138.271 19.1284C137.885 18.8192 137.477 18.51 137.062 18.2318C137.025 18.2107 136.992 18.1821 136.966 18.1477C136.94 18.1133 136.922 18.0739 136.912 18.0321C136.903 17.9902 136.902 17.9468 136.91 17.9045C136.918 17.8623 136.935 17.8222 136.959 17.7868C136.983 17.7514 137.015 17.7215 137.052 17.699C137.088 17.6764 137.129 17.6618 137.172 17.6559C137.214 17.6501 137.258 17.6532 137.299 17.665C137.34 17.6769 137.379 17.6972 137.412 17.7248C137.841 18.0339 138.259 18.3431 138.648 18.6523C138.712 18.7028 138.754 18.7767 138.764 18.8578C138.774 18.9389 138.751 19.0206 138.701 19.0851C138.672 19.1182 138.637 19.145 138.598 19.1637C138.559 19.1823 138.516 19.1924 138.472 19.1933H138.463ZM135.959 17.4558C135.902 17.4554 135.846 17.4394 135.798 17.4094C135.374 17.1528 134.935 16.8993 134.49 16.6581C134.424 16.6166 134.375 16.5514 134.355 16.4757C134.335 16.4 134.344 16.3195 134.381 16.2504C134.418 16.1813 134.48 16.1288 134.554 16.1035C134.628 16.0782 134.709 16.0819 134.781 16.114C135.238 16.3613 135.69 16.6179 136.119 16.8838C136.176 16.9192 136.22 16.972 136.245 17.0345C136.269 17.097 136.272 17.1657 136.254 17.2303C136.236 17.2948 136.197 17.3517 136.144 17.3924C136.091 17.4331 136.026 17.4553 135.959 17.4558ZM133.275 16.0058C133.229 16.0055 133.183 15.995 133.142 15.9749C132.691 15.7616 132.215 15.5544 131.763 15.3565C131.726 15.3409 131.691 15.318 131.663 15.2892C131.634 15.2604 131.611 15.2262 131.596 15.1886C131.58 15.151 131.572 15.1107 131.572 15.07C131.572 15.0294 131.581 14.9891 131.596 14.9515C131.612 14.914 131.635 14.8799 131.663 14.8512C131.692 14.8224 131.726 14.7997 131.764 14.7842C131.802 14.7687 131.842 14.7607 131.883 14.7608C131.923 14.7609 131.964 14.769 132.001 14.7846C132.474 14.9825 132.947 15.1958 133.408 15.4029C133.471 15.4334 133.521 15.4842 133.552 15.5471C133.582 15.61 133.59 15.6813 133.575 15.7494C133.559 15.8175 133.521 15.8784 133.467 15.9222C133.412 15.9659 133.345 15.9899 133.275 15.9903V16.0058ZM102.049 15.2391C101.975 15.2404 101.903 15.2152 101.846 15.1679C101.789 15.1207 101.751 15.0545 101.739 14.9815C101.726 14.9086 101.741 14.8336 101.779 14.7702C101.817 14.7068 101.877 14.6593 101.947 14.6362C102.429 14.4631 102.918 14.2992 103.4 14.1446C103.44 14.129 103.482 14.1216 103.524 14.123C103.566 14.1243 103.608 14.1344 103.646 14.1525C103.685 14.1705 103.719 14.1963 103.747 14.2281C103.775 14.26 103.796 14.2972 103.809 14.3375C103.822 14.3778 103.826 14.4204 103.822 14.4625C103.818 14.5046 103.805 14.5455 103.784 14.5825C103.764 14.6194 103.736 14.6518 103.702 14.6775C103.668 14.7033 103.63 14.7218 103.589 14.732C103.116 14.8835 102.634 15.0412 102.154 15.2205C102.126 15.2311 102.095 15.2374 102.065 15.2391H102.049ZM130.468 14.8402C130.432 14.8405 130.396 14.8331 130.363 14.8186C129.899 14.6486 129.417 14.4847 128.931 14.3301C128.889 14.3208 128.85 14.3029 128.815 14.2775C128.781 14.2521 128.752 14.2199 128.731 14.1827C128.709 14.1456 128.696 14.1044 128.691 14.0618C128.686 14.0192 128.691 13.9761 128.704 13.9352C128.716 13.8944 128.738 13.8566 128.766 13.8244C128.794 13.7922 128.829 13.7662 128.868 13.7481C128.907 13.73 128.949 13.7202 128.992 13.7193C129.034 13.7183 129.077 13.7263 129.117 13.7427C129.611 13.9004 130.103 14.0673 130.576 14.2405C130.653 14.2653 130.717 14.3194 130.755 14.3911C130.792 14.4628 130.8 14.5463 130.777 14.6238C130.756 14.689 130.715 14.7455 130.659 14.7847C130.603 14.8238 130.536 14.8434 130.468 14.8402ZM104.968 14.3147C104.927 14.3203 104.886 14.318 104.846 14.3077C104.806 14.2974 104.769 14.2794 104.736 14.2547C104.704 14.23 104.676 14.1991 104.655 14.1638C104.635 14.1285 104.621 14.0894 104.615 14.0488C104.61 14.0082 104.612 13.9669 104.622 13.9272C104.633 13.8875 104.651 13.8502 104.675 13.8175C104.7 13.7848 104.731 13.7572 104.766 13.7364C104.801 13.7156 104.841 13.702 104.881 13.6963C105.367 13.5572 105.867 13.4243 106.365 13.2975C106.443 13.2813 106.525 13.2961 106.593 13.3387C106.66 13.3813 106.709 13.4484 106.728 13.526C106.747 13.6036 106.735 13.6856 106.695 13.7548C106.656 13.824 106.59 13.8751 106.514 13.8973C106.022 14.021 105.53 14.1539 105.051 14.2899C105.025 14.2982 104.998 14.3024 104.971 14.3023L104.968 14.3147ZM127.565 13.9127C127.538 13.916 127.511 13.916 127.484 13.9127C127.005 13.7829 126.513 13.6592 126.016 13.5448C125.934 13.5268 125.862 13.4769 125.817 13.4062C125.772 13.3355 125.757 13.2497 125.775 13.1677C125.793 13.0857 125.842 13.0142 125.913 12.969C125.984 12.9237 126.07 12.9085 126.152 12.9265C126.659 13.044 127.16 13.1677 127.645 13.3006C127.727 13.3113 127.801 13.3541 127.852 13.4196C127.902 13.4851 127.925 13.568 127.914 13.65C127.903 13.732 127.861 13.8064 127.795 13.8568C127.73 13.9072 127.647 13.9296 127.565 13.9189V13.9127ZM107.93 13.5603C107.848 13.5689 107.765 13.5446 107.701 13.4927C107.637 13.4408 107.596 13.3656 107.588 13.2836C107.579 13.2016 107.604 13.1195 107.655 13.0555C107.707 12.9914 107.783 12.9506 107.865 12.942C108.362 12.8338 108.869 12.7348 109.367 12.6328C109.408 12.6255 109.449 12.6262 109.49 12.635C109.53 12.6438 109.568 12.6605 109.602 12.684C109.636 12.7075 109.665 12.7375 109.687 12.7722C109.709 12.807 109.725 12.8457 109.732 12.8863C109.739 12.9269 109.739 12.9686 109.73 13.0089C109.721 13.0492 109.704 13.0874 109.681 13.1212C109.657 13.1551 109.627 13.184 109.593 13.2063C109.558 13.2286 109.519 13.2438 109.478 13.2511C108.987 13.3408 108.486 13.4397 107.994 13.5603H107.93ZM124.594 13.2264H124.535C124.049 13.1336 123.545 13.0502 123.042 12.9791C123.001 12.973 122.963 12.9591 122.928 12.9381C122.893 12.9171 122.863 12.8895 122.839 12.8567C122.814 12.824 122.797 12.7868 122.787 12.7473C122.778 12.7078 122.776 12.6668 122.782 12.6266C122.794 12.546 122.838 12.4735 122.903 12.4249C122.969 12.3762 123.05 12.3554 123.131 12.3669C123.644 12.4411 124.155 12.5246 124.649 12.6173C124.731 12.6247 124.807 12.6644 124.86 12.7276C124.912 12.7908 124.938 12.8723 124.931 12.9543C124.923 13.0363 124.884 13.112 124.82 13.1648C124.757 13.2176 124.676 13.2431 124.594 13.2357V13.2264ZM110.928 13.0162C110.846 13.0223 110.765 12.9956 110.703 12.942C110.641 12.8884 110.602 12.8122 110.596 12.7302C110.59 12.6482 110.617 12.5671 110.67 12.5048C110.724 12.4425 110.8 12.404 110.882 12.3978C111.389 12.3236 111.902 12.2587 112.406 12.2031C112.447 12.1986 112.488 12.2022 112.527 12.2136C112.566 12.225 112.603 12.244 112.635 12.2696C112.667 12.2951 112.693 12.3267 112.713 12.3625C112.733 12.3983 112.745 12.4376 112.749 12.4782C112.754 12.5188 112.75 12.5599 112.739 12.5991C112.727 12.6383 112.708 12.6749 112.683 12.7068C112.657 12.7387 112.626 12.7652 112.59 12.7848C112.554 12.8045 112.515 12.8169 112.474 12.8214C111.976 12.877 111.473 12.942 110.972 13.0162H110.928ZM121.57 12.7874H121.539C121.044 12.7348 120.537 12.6915 120.03 12.6575C119.99 12.6548 119.95 12.644 119.913 12.6259C119.877 12.6078 119.844 12.5826 119.818 12.5519C119.791 12.5211 119.771 12.4854 119.758 12.4468C119.745 12.4081 119.74 12.3673 119.743 12.3267C119.745 12.2861 119.756 12.2464 119.774 12.2099C119.793 12.1735 119.818 12.1409 119.848 12.1142C119.879 12.0875 119.915 12.0671 119.953 12.0542C119.992 12.0414 120.033 12.0363 120.074 12.0392C120.59 12.0763 121.103 12.1196 121.604 12.1752C121.644 12.1795 121.684 12.1916 121.719 12.211C121.755 12.2304 121.786 12.2567 121.812 12.2882C121.838 12.3198 121.857 12.3561 121.868 12.3951C121.88 12.4341 121.883 12.4749 121.879 12.5153C121.87 12.5907 121.833 12.6601 121.776 12.7103C121.719 12.7605 121.646 12.7879 121.57 12.7874V12.7874ZM113.955 12.6761C113.877 12.6763 113.802 12.6472 113.745 12.5944C113.688 12.5417 113.652 12.4693 113.646 12.3916C113.643 12.351 113.647 12.3101 113.66 12.2713C113.672 12.2325 113.692 12.1966 113.719 12.1655C113.745 12.1345 113.777 12.109 113.814 12.0905C113.85 12.072 113.89 12.0609 113.93 12.0577C114.444 12.0206 114.957 11.9897 115.476 11.9681C115.558 11.9681 115.637 12.0007 115.695 12.0586C115.753 12.1166 115.785 12.1953 115.785 12.2773C115.785 12.3593 115.753 12.4379 115.695 12.4959C115.637 12.5538 115.558 12.5864 115.476 12.5864C114.979 12.6081 114.468 12.639 113.964 12.6761H113.955ZM118.528 12.5741C118.086 12.5741 117.64 12.5524 117.205 12.5524H117.013C116.931 12.5524 116.852 12.5198 116.794 12.4619C116.736 12.4039 116.704 12.3252 116.704 12.2432C116.704 12.1613 116.736 12.0826 116.794 12.0246C116.852 11.9667 116.931 11.9341 117.013 11.9341H117.208C117.65 11.9341 118.101 11.9341 118.549 11.9557C118.631 11.9557 118.71 11.9883 118.768 12.0463C118.826 12.1043 118.859 12.1829 118.859 12.2649C118.859 12.3469 118.826 12.4255 118.768 12.4835C118.71 12.5415 118.631 12.5741 118.549 12.5741H118.528Z" fill="#E0E0E0"/>
<path d="M99.8944 16.0767C99.8234 16.0759 99.7549 16.0506 99.7004 16.0053C99.6458 15.9599 99.6085 15.8972 99.5947 15.8276C99.581 15.758 99.5916 15.6857 99.6247 15.623C99.6579 15.5603 99.7116 15.5109 99.7769 15.4831L100.497 15.1739C100.535 15.159 100.576 15.1516 100.617 15.1524C100.657 15.1532 100.698 15.162 100.735 15.1784C100.772 15.1947 100.806 15.2184 100.834 15.2478C100.862 15.2773 100.884 15.3121 100.899 15.3502C100.914 15.3881 100.921 15.4286 100.921 15.4694C100.92 15.5102 100.911 15.5504 100.895 15.5878C100.878 15.6252 100.855 15.6589 100.825 15.6871C100.796 15.7153 100.761 15.7374 100.723 15.7521L100.012 16.0396C99.9754 16.0593 99.9355 16.0719 99.8944 16.0767V16.0767Z" fill="#E0E0E0"/>
<path d="M31.0527 44.2601L45.2713 37.2915L35.0193 47.0426L31.0527 44.2601Z" fill="#FF9721"/>
<path d="M45.271 37.2915L29.5932 42.4484L25.6328 39.6659L45.271 37.2915Z" fill="#FF9721"/>
<path d="M29.5938 42.4484L30.2152 46.4304L31.053 44.2601L45.2716 37.2915L29.5938 42.4484Z" fill="#FF9721"/>
<path opacity="0.25" d="M29.5938 42.4484L30.2152 46.4304L31.053 44.2601L45.2716 37.2915L29.5938 42.4484Z" fill="black"/>
<path d="M30.2148 46.4306L32.3759 45.1878L31.0527 44.2603L30.2148 46.4306Z" fill="#FF9721"/>
<path opacity="0.25" d="M31.0527 44.2603L32.376 45.1878L32.0297 45.3856L31.0527 44.2603Z" fill="black"/>
<path d="M32.1223 85.9883C32.0864 85.9883 32.0509 85.982 32.0172 85.9698C31.5163 85.7905 31.0279 85.605 30.561 85.4226C30.4848 85.3922 30.4237 85.3328 30.3912 85.2575C30.3587 85.1821 30.3575 85.0969 30.3879 85.0207C30.4182 84.9444 30.4776 84.8833 30.553 84.8509C30.6284 84.8184 30.7135 84.8172 30.7898 84.8475C31.2474 85.0268 31.7173 85.2092 32.2274 85.3886C32.2957 85.4134 32.3531 85.4614 32.3895 85.5243C32.4259 85.5872 32.439 85.661 32.4265 85.7325C32.4139 85.8041 32.3765 85.869 32.3209 85.9158C32.2653 85.9626 32.195 85.9883 32.1223 85.9883ZM29.2501 84.8475C29.2077 84.8479 29.1656 84.8394 29.1265 84.8228C28.6442 84.6095 28.1712 84.39 27.7136 84.1674C27.6398 84.1313 27.5834 84.0674 27.5567 83.9897C27.53 83.912 27.5353 83.8269 27.5714 83.7531C27.6075 83.6793 27.6714 83.6228 27.7491 83.5962C27.8268 83.5695 27.9119 83.5748 27.9857 83.6109C28.4339 83.8304 28.9132 84.0468 29.3769 84.257C29.441 84.2862 29.4933 84.3365 29.5249 84.3995C29.5566 84.4624 29.5658 84.5343 29.551 84.6033C29.5362 84.6722 29.4983 84.7339 29.4436 84.7784C29.3889 84.8228 29.3206 84.8472 29.2501 84.8475ZM26.4677 83.4872C26.4159 83.4875 26.3648 83.4747 26.3193 83.4501C25.8586 83.1966 25.3918 82.9338 24.9682 82.6648C24.9122 82.6178 24.8747 82.5525 24.8623 82.4804C24.8499 82.4084 24.8634 82.3343 24.9005 82.2713C24.9376 82.2082 24.9958 82.1604 25.0647 82.1362C25.1337 82.1121 25.2091 82.1131 25.2774 82.1392C25.704 82.402 26.1492 82.6586 26.6006 82.906C26.6613 82.9387 26.7093 82.9908 26.7369 83.054C26.7646 83.1171 26.7704 83.1877 26.7533 83.2545C26.7363 83.3213 26.6974 83.3805 26.6428 83.4227C26.5882 83.4648 26.5211 83.4875 26.4522 83.4872H26.4677ZM23.8397 81.8641C23.7767 81.8639 23.7152 81.8445 23.6635 81.8084C23.2307 81.4992 22.8102 81.1901 22.4083 80.8809C22.3423 80.828 22.3 80.7511 22.2907 80.667C22.2814 80.583 22.3059 80.4986 22.3588 80.4326C22.4117 80.3666 22.4887 80.3243 22.5727 80.3151C22.6568 80.3058 22.7411 80.3303 22.8071 80.3832C23.1967 80.6923 23.6079 81.0015 24.0438 81.2921C24.0977 81.3297 24.1382 81.3835 24.1594 81.4458C24.1807 81.508 24.1815 81.5753 24.1619 81.638C24.1422 81.7008 24.1031 81.7556 24.0502 81.7946C23.9973 81.8335 23.9333 81.8546 23.8676 81.8548L23.8397 81.8641ZM21.4252 79.9411C21.3485 79.9409 21.2747 79.9122 21.218 79.8607C20.8285 79.5051 20.4544 79.1372 20.1019 78.76C20.0525 78.6995 20.0278 78.6225 20.0328 78.5445C20.0378 78.4665 20.0722 78.3933 20.129 78.3397C20.1858 78.286 20.2608 78.2558 20.339 78.2552C20.4171 78.2546 20.4926 78.2837 20.5502 78.3365C20.8934 78.7013 21.2582 79.0599 21.6354 79.4031C21.6817 79.4452 21.7142 79.5004 21.7285 79.5613C21.7427 79.6223 21.7382 79.6861 21.7154 79.7444C21.6926 79.8027 21.6527 79.8528 21.6008 79.8879C21.549 79.923 21.4878 79.9415 21.4252 79.9411V79.9411ZM19.3105 77.6965C19.264 77.6963 19.2182 77.6856 19.1765 77.6653C19.1347 77.6449 19.0981 77.6155 19.0693 77.579C18.7416 77.174 18.4293 76.7505 18.1418 76.3176C18.1191 76.2839 18.1032 76.2461 18.0951 76.2063C18.087 76.1664 18.0868 76.1254 18.0945 76.0855C18.1023 76.0456 18.1178 76.0076 18.1403 75.9737C18.1627 75.9398 18.1916 75.9106 18.2253 75.8879C18.259 75.8652 18.2968 75.8493 18.3367 75.8412C18.3765 75.8331 18.4175 75.8329 18.4574 75.8406C18.4973 75.8484 18.5353 75.8639 18.5692 75.8863C18.6031 75.9088 18.6323 75.9377 18.655 75.9714C18.9364 76.3887 19.2424 76.7999 19.5578 77.208C19.6087 77.2717 19.6324 77.3529 19.6237 77.434C19.615 77.5151 19.5747 77.5894 19.5114 77.6409C19.4563 77.6794 19.3901 77.699 19.3228 77.6965H19.3105ZM17.5791 75.1428C17.5243 75.1427 17.4706 75.1281 17.4233 75.1004C17.376 75.0726 17.337 75.0329 17.3102 74.9851C17.0566 74.5337 16.8155 74.0576 16.596 73.5877C16.5789 73.5507 16.5693 73.5108 16.5677 73.4701C16.5661 73.4295 16.5725 73.3889 16.5866 73.3507C16.6006 73.3125 16.6221 73.2775 16.6497 73.2476C16.6773 73.2177 16.7105 73.1936 16.7475 73.1765C16.7844 73.1595 16.8244 73.1498 16.865 73.1482C16.9057 73.1466 16.9463 73.153 16.9844 73.1671C17.0616 73.1955 17.1242 73.2534 17.1587 73.328C17.3689 73.7886 17.6039 74.2555 17.8481 74.6791C17.8684 74.7145 17.8815 74.7537 17.8866 74.7942C17.8917 74.8348 17.8887 74.876 17.8777 74.9153C17.8668 74.9547 17.8482 74.9916 17.8229 75.0237C17.7977 75.0559 17.7663 75.0827 17.7306 75.1026C17.6879 75.1263 17.6403 75.14 17.5915 75.1428H17.5791ZM16.2992 72.3448C16.236 72.3451 16.1743 72.3259 16.1223 72.29C16.0704 72.254 16.0307 72.2031 16.0086 72.1439C15.8292 71.6616 15.6654 71.1607 15.5201 70.6537C15.5064 70.614 15.501 70.572 15.5041 70.5301C15.5072 70.4883 15.5188 70.4475 15.5382 70.4102C15.5576 70.373 15.5843 70.3401 15.6168 70.3136C15.6493 70.287 15.6869 70.2674 15.7273 70.2558C15.7676 70.2443 15.8099 70.241 15.8515 70.2464C15.8932 70.2517 15.9333 70.2654 15.9694 70.2867C16.0056 70.308 16.037 70.3365 16.0618 70.3703C16.0866 70.4042 16.1043 70.4428 16.1137 70.4837C16.2559 70.9752 16.4228 71.4606 16.5867 71.9306C16.6147 72.0072 16.6112 72.0919 16.5771 72.166C16.5429 72.2402 16.4808 72.2978 16.4043 72.3263C16.3706 72.3385 16.335 72.3448 16.2992 72.3448ZM15.4366 69.3799C15.3647 69.3815 15.2945 69.358 15.2381 69.3135C15.1816 69.2689 15.1425 69.206 15.1274 69.1357C15.0192 68.6379 14.9203 68.1216 14.8399 67.5899C14.8275 67.5091 14.8474 67.4268 14.8955 67.3607C14.9436 67.2947 15.0159 67.2504 15.0965 67.2374C15.1367 67.2308 15.1779 67.2322 15.2175 67.2415C15.2572 67.2509 15.2946 67.2679 15.3277 67.2918C15.3607 67.3156 15.3887 67.3458 15.41 67.3805C15.4314 67.4152 15.4457 67.4538 15.4521 67.494C15.5294 68.0042 15.6252 68.5081 15.7303 68.9966C15.7478 69.0765 15.7329 69.1601 15.6889 69.2291C15.6448 69.2981 15.5752 69.3467 15.4953 69.3645C15.4762 69.3699 15.4565 69.373 15.4366 69.3738V69.3799ZM14.9543 66.3285C14.8774 66.3289 14.8031 66.3006 14.7459 66.2491C14.6888 66.1977 14.6528 66.1268 14.6451 66.0502C14.5926 65.5525 14.5493 65.03 14.5184 64.5044C14.5142 64.4229 14.5423 64.343 14.5968 64.2822C14.6512 64.2214 14.7275 64.1846 14.809 64.1798C14.8496 64.1773 14.8903 64.1828 14.9288 64.196C14.9673 64.2093 15.0028 64.23 15.0332 64.257C15.0636 64.284 15.0885 64.3168 15.1062 64.3534C15.124 64.39 15.1344 64.4298 15.1367 64.4704C15.1676 64.9929 15.2078 65.5061 15.2604 65.9977C15.2682 66.0788 15.2436 66.1596 15.1921 66.2227C15.1406 66.2859 15.0662 66.3261 14.9852 66.3347L14.9543 66.3285ZM14.7935 63.2368C14.7115 63.2368 14.6329 63.2042 14.5749 63.1463C14.5169 63.0883 14.4844 63.0096 14.4844 62.9276C14.4844 62.4082 14.5246 61.8796 14.5771 61.3602C14.581 61.3195 14.5929 61.28 14.6121 61.2439C14.6313 61.2079 14.6575 61.176 14.6891 61.1501C14.7208 61.1242 14.7572 61.1049 14.7963 61.0932C14.8355 61.0815 14.8766 61.0777 14.9172 61.0819C14.9576 61.0862 14.9968 61.0983 15.0325 61.1177C15.0682 61.1371 15.0997 61.1634 15.1253 61.1949C15.1508 61.2265 15.1699 61.2628 15.1814 61.3018C15.1929 61.3408 15.1967 61.3816 15.1924 61.422C15.1429 61.9259 15.112 62.4361 15.1027 62.94C15.0995 63.0198 15.0655 63.0953 15.0079 63.1507C14.9503 63.206 14.8734 63.2369 14.7935 63.2368V63.2368ZM15.1027 60.1637H15.0471C14.9668 60.1487 14.8958 60.1025 14.8495 60.0354C14.8032 59.9682 14.7853 59.8854 14.7997 59.8051C14.8925 59.2919 15.01 58.7786 15.1429 58.2592C15.1536 58.22 15.172 58.1834 15.1969 58.1513C15.2218 58.1192 15.2528 58.0923 15.2882 58.0722C15.3235 58.0521 15.3624 58.0392 15.4027 58.0341C15.4431 58.0291 15.484 58.032 15.5232 58.0428C15.6016 58.0645 15.6684 58.1163 15.7089 58.1869C15.7494 58.2576 15.7604 58.3413 15.7396 58.42C15.6097 58.9085 15.4984 59.4093 15.4057 59.904C15.394 59.9761 15.3572 60.0417 15.3017 60.0893C15.2462 60.1368 15.1757 60.1632 15.1027 60.1637V60.1637ZM15.9004 57.1957C15.8655 57.1953 15.8311 57.189 15.7983 57.1772C15.7599 57.1637 15.7245 57.1427 15.6942 57.1154C15.6639 57.0882 15.6393 57.0553 15.6218 57.0185C15.6042 56.9817 15.5942 56.9418 15.5921 56.9012C15.59 56.8605 15.596 56.8198 15.6097 56.7814C15.7829 56.2929 15.9776 55.8014 16.191 55.3222C16.2059 55.2827 16.2288 55.2467 16.2581 55.2164C16.2875 55.1861 16.3228 55.1621 16.3618 55.1459C16.4008 55.1298 16.4426 55.1218 16.4848 55.1224C16.527 55.1231 16.5687 55.1323 16.6071 55.1497C16.6456 55.167 16.6801 55.192 16.7086 55.2232C16.737 55.2544 16.7588 55.2911 16.7725 55.331C16.7862 55.3709 16.7916 55.4132 16.7884 55.4553C16.7852 55.4974 16.7733 55.5383 16.7537 55.5757C16.5496 56.0363 16.3579 56.5032 16.191 56.9886C16.1699 57.0489 16.1306 57.1012 16.0786 57.1383C16.0265 57.1754 15.9643 57.1955 15.9004 57.1957ZM17.1556 54.373C17.1021 54.3726 17.0496 54.3584 17.0033 54.3317C16.957 54.3049 16.9184 54.2666 16.8913 54.2205C16.8642 54.1744 16.8495 54.1221 16.8487 54.0686C16.8479 54.0151 16.8609 53.9624 16.8866 53.9155C17.1339 53.4579 17.406 52.988 17.6904 52.5675C17.7379 52.5056 17.8069 52.464 17.8837 52.4509C17.9605 52.4377 18.0395 52.4541 18.1047 52.4967C18.17 52.5393 18.2168 52.605 18.2357 52.6806C18.2546 52.7562 18.2443 52.8362 18.2067 52.9045C17.9316 53.328 17.6688 53.7671 17.4276 54.2123C17.399 54.2582 17.3588 54.2958 17.311 54.3213C17.2633 54.3468 17.2097 54.3593 17.1556 54.3576V54.373ZM18.8591 51.7698C18.8014 51.7697 18.7449 51.7534 18.696 51.7229C18.6471 51.6923 18.6077 51.6487 18.5823 51.5969C18.5569 51.5451 18.5464 51.4872 18.5522 51.4298C18.5579 51.3724 18.5796 51.3178 18.6148 51.2721C18.924 50.8578 19.2734 50.4528 19.6227 50.0694C19.6501 50.0394 19.6832 50.015 19.72 49.9978C19.7568 49.9805 19.7967 49.9706 19.8373 49.9688C19.8779 49.9669 19.9185 49.9731 19.9567 49.9869C19.995 50.0007 20.0301 50.0219 20.0602 50.0493C20.0902 50.0767 20.1146 50.1098 20.1319 50.1466C20.1491 50.1834 20.159 50.2233 20.1608 50.2639C20.1627 50.3045 20.1565 50.3451 20.1427 50.3834C20.1289 50.4216 20.1077 50.4568 20.0803 50.4868C19.7433 50.8578 19.4125 51.2504 19.1033 51.6493C19.0745 51.6867 19.0375 51.717 18.9952 51.7379C18.9529 51.7588 18.9063 51.7697 18.8591 51.7698ZM20.9398 49.4882C20.8778 49.488 20.8174 49.4692 20.7663 49.4342C20.7152 49.3993 20.6757 49.3498 20.6531 49.2921C20.6304 49.2345 20.6256 49.1714 20.6392 49.111C20.6529 49.0506 20.6843 48.9957 20.7295 48.9533C21.1098 48.5947 21.5117 48.2515 21.9198 47.93C21.9839 47.8795 22.0653 47.8563 22.1464 47.8656C22.2275 47.8748 22.3016 47.9158 22.3527 47.9795C22.3782 48.0113 22.3971 48.0478 22.4084 48.087C22.4198 48.1262 22.4232 48.1672 22.4186 48.2077C22.414 48.2482 22.4015 48.2875 22.3817 48.3231C22.3618 48.3587 22.3352 48.3901 22.3032 48.4154C21.9075 48.7246 21.521 49.0585 21.15 49.4047C21.1199 49.433 21.0844 49.455 21.0456 49.4693C21.0068 49.4837 20.9656 49.4901 20.9243 49.4882H20.9398ZM23.3636 47.5745C23.2921 47.5821 23.2201 47.5645 23.1602 47.5247C23.1002 47.485 23.056 47.4256 23.0351 47.3567C23.0143 47.2879 23.0181 47.2139 23.0458 47.1476C23.0736 47.0812 23.1237 47.0266 23.1874 46.9932C23.6202 46.7057 24.0716 46.4336 24.5292 46.1801C24.5647 46.1598 24.6039 46.1467 24.6445 46.1416C24.6851 46.1364 24.7263 46.1393 24.7657 46.1501C24.8052 46.1608 24.8422 46.1793 24.8745 46.2043C24.9069 46.2294 24.934 46.2605 24.9543 46.2961C24.9746 46.3316 24.9877 46.3708 24.9928 46.4114C24.998 46.4519 24.9951 46.4931 24.9844 46.5326C24.9736 46.5721 24.9552 46.6091 24.9301 46.6414C24.9051 46.6738 24.8739 46.7009 24.8383 46.7212C24.3962 46.9654 23.9572 47.2313 23.5398 47.5095C23.485 47.5521 23.4175 47.5749 23.3482 47.5745H23.3636ZM26.0472 46.0657C25.9767 46.0654 25.9084 46.041 25.8537 45.9966C25.799 45.9522 25.7611 45.8904 25.7463 45.8215C25.7315 45.7525 25.7407 45.6806 25.7724 45.6177C25.8041 45.5547 25.8563 45.5044 25.9204 45.4752C26.3935 45.2619 26.8819 45.0609 27.3735 44.8847C27.4499 44.8595 27.5332 44.8651 27.6056 44.9003C27.678 44.9354 27.7338 44.9975 27.7611 45.0732C27.7885 45.1488 27.7853 45.2322 27.7522 45.3056C27.719 45.3789 27.6586 45.4364 27.5837 45.4659C27.1076 45.6391 26.6346 45.8308 26.1739 46.0379C26.1341 46.056 26.0909 46.0655 26.0472 46.0657V46.0657Z" fill="#E0E0E0"/>
</svg>
