<svg width="138" height="138" viewBox="0 0 138 138" fill="none" xmlns="http://www.w3.org/2000/svg">
<path d="M59.4116 129.211L72.8164 121.459C74.1955 120.664 74.8851 119.618 74.8851 118.572C74.8851 117.527 74.8851 116.708 74.8851 116.708L62.2722 109.551C61.8846 109.297 61.5621 108.956 61.3304 108.554C61.0988 108.153 60.9646 107.703 60.9385 107.24V90.6943L37.5579 104.224V120.747C37.5829 121.21 37.717 121.661 37.9495 122.063C38.1819 122.465 38.506 122.806 38.8953 123.058L49.4054 129.211C52.1675 130.787 56.6496 130.787 59.4116 129.211Z" fill="#37474F"/>
<path d="M43.1577 123.672V125.529L38.8688 123.058C38.4806 122.805 38.1576 122.464 37.9259 122.062C37.6942 121.66 37.5603 121.21 37.5352 120.747V104.224L41.9946 101.652C42.0855 102.788 42.1878 103.955 42.2787 105.096L39.153 106.903V119.815C39.1763 120.278 39.3094 120.73 39.5413 121.131C39.7732 121.533 40.0972 121.874 40.4866 122.126L43.1577 123.672Z" fill="#263238"/>
<path d="M39.1536 119.819C39.1787 120.282 39.3126 120.732 39.5443 121.134C39.776 121.535 40.099 121.877 40.4872 122.13L49.406 127.317C52.1681 128.912 56.6464 128.912 59.4123 127.317L72.8208 119.569C75.5829 117.974 75.5829 115.401 72.8208 113.795L63.8982 108.6C63.5089 108.348 63.1848 108.007 62.9524 107.605C62.7199 107.203 62.5857 106.752 62.5608 106.289V93.3769L39.1536 106.907V119.819Z" fill="#455A64"/>
<path opacity="0.15" d="M66.6148 110.173L63.8982 108.604C63.5089 108.351 63.1848 108.01 62.9524 107.609C62.7199 107.207 62.5857 106.756 62.5608 106.293V93.3769L39.1536 106.907V119.819C39.1787 120.282 39.3126 120.732 39.5443 121.134C39.776 121.535 40.099 121.877 40.4872 122.13L43.1583 123.668L66.6148 110.173Z" fill="black"/>
<path d="M74.8891 116.708V118.572C74.8891 119.622 74.1957 120.66 72.8166 121.463L59.4118 129.207C57.9436 129.993 56.303 130.401 54.6379 130.393V128.537C56.303 128.544 57.9436 128.136 59.4118 127.351L72.8166 119.599C74.1957 118.785 74.8891 117.739 74.8891 116.708Z" fill="#37474F"/>
<path d="M1.56477 137.645C2.07065 137.889 2.6266 138.01 3.18791 137.999C3.74921 137.989 4.30022 137.847 4.79662 137.585L95.3489 85.2991C95.8344 84.9831 96.2385 84.5569 96.5282 84.0552C96.8179 83.5535 96.985 82.9905 97.0159 82.412V3.1845C96.9955 2.62358 96.8431 2.07537 96.5713 1.58431C96.2994 1.09325 95.9157 0.673148 95.4512 0.358054C94.9458 0.113152 94.3899 -0.00932045 93.8285 0.000552957C93.267 0.0104264 92.7157 0.152368 92.2193 0.414886L1.66707 52.7003C1.18193 53.0167 0.778172 53.443 0.488535 53.9446C0.198899 54.4462 0.0315324 55.009 0 55.5873V134.815C0.0204828 135.376 0.172798 135.925 0.444633 136.417C0.716467 136.908 1.10019 137.329 1.56477 137.645Z" fill="#455A64"/>
<path d="M4.79667 137.581L95.3489 85.3142C95.8341 84.9978 96.2378 84.5715 96.5275 84.0699C96.8171 83.5683 96.9845 83.0055 97.016 82.4272V3.18448C97.016 2.11983 96.2582 1.68791 95.3489 2.22213L4.81562 54.5075C4.33048 54.824 3.92672 55.2503 3.63708 55.7519C3.34745 56.2535 3.18008 56.8162 3.14855 57.3946V136.618C3.1296 137.683 3.87599 138.115 4.79667 137.581Z" fill="#37474F"/>
<path d="M6.25903 126.15V58.4138C6.27656 58.0678 6.3752 57.7309 6.54698 57.4301C6.71876 57.1293 6.95887 56.8731 7.24791 56.6823L92.8747 7.25743C93.4241 6.93917 93.875 7.1968 93.875 7.83332V75.5732C93.8571 75.9204 93.7571 76.2583 93.5832 76.5593C93.4093 76.8603 93.1665 77.1158 92.8747 77.3047L7.24791 126.73C6.70611 127.048 6.25903 126.79 6.25903 126.15Z" fill="#FF9721"/>
<path opacity="0.7" d="M6.25903 126.15V58.4138C6.27656 58.0678 6.3752 57.7309 6.54698 57.4301C6.71876 57.1293 6.95887 56.8731 7.24791 56.6823L92.8747 7.25743C93.4241 6.93917 93.875 7.1968 93.875 7.83332V75.5732C93.8571 75.9204 93.7571 76.2583 93.5832 76.5593C93.4093 76.8603 93.1665 77.1158 92.8747 77.3047L7.24791 126.73C6.70611 127.048 6.25903 126.79 6.25903 126.15Z" fill="white"/>
<path d="M49.8905 108.24C49.7153 108.243 49.5427 108.198 49.3904 108.111C49.2013 107.982 49.0502 107.805 48.9529 107.598C48.8556 107.391 48.8157 107.161 48.8372 106.933C48.8642 106.357 49.0289 105.795 49.3177 105.295C49.6064 104.796 50.0107 104.372 50.4967 104.061C50.6752 103.912 50.8952 103.821 51.1269 103.801C51.3587 103.781 51.591 103.832 51.7926 103.949C51.9942 104.065 52.1553 104.24 52.2542 104.45C52.3531 104.661 52.385 104.897 52.3456 105.126C52.319 105.703 52.1544 106.265 51.8656 106.765C51.5769 107.266 51.1724 107.69 50.6862 108.002C50.4464 108.149 50.172 108.232 49.8905 108.24ZM51.2886 104.205C51.0748 104.215 50.8673 104.281 50.6862 104.395C50.2585 104.674 49.9026 105.05 49.6473 105.492C49.3919 105.934 49.2442 106.431 49.2161 106.941C49.165 107.105 49.1713 107.282 49.234 107.442C49.2967 107.602 49.412 107.736 49.561 107.822C49.71 107.908 49.8838 107.941 50.0539 107.915C50.2239 107.889 50.3801 107.806 50.4967 107.679C50.9245 107.4 51.2806 107.024 51.536 106.582C51.7914 106.14 51.939 105.643 51.9668 105.133C51.9838 104.971 51.9577 104.807 51.8912 104.658C51.8247 104.509 51.7201 104.38 51.5879 104.285C51.4965 104.233 51.3935 104.206 51.2886 104.205Z" fill="#FF9721"/>
<path d="M103.502 11.6124L15.3333 62.4732V127.44C15.3363 127.636 15.39 127.828 15.4893 127.997C15.5885 128.166 15.7299 128.307 15.8996 128.406C16.0694 128.504 16.2617 128.557 16.4579 128.559C16.6541 128.561 16.8475 128.512 17.0193 128.417L18.5916 127.512L101.858 79.5C102.337 79.1879 102.735 78.7673 103.021 78.2722C103.307 77.7771 103.472 77.2216 103.502 76.6509V11.6124Z" fill="#F0F0F0"/>
<path d="M103.123 12.2678V76.6508C103.092 77.1546 102.944 77.6441 102.691 78.0811C102.439 78.5182 102.089 78.891 101.669 79.1704L18.4022 127.182L16.8298 128.088C16.7152 128.156 16.5842 128.191 16.4509 128.19C16.2572 128.188 16.0714 128.112 15.9319 127.978C15.8591 127.908 15.8013 127.825 15.7622 127.732C15.7231 127.64 15.7034 127.54 15.7046 127.44V62.6778L103.116 12.2868L103.123 12.2678ZM103.495 11.6313L15.3333 62.4732V127.44C15.3333 127.741 15.453 128.03 15.6662 128.243C15.8793 128.457 16.1684 128.576 16.4699 128.576C16.667 128.577 16.8608 128.525 17.0306 128.425L18.603 127.519L101.858 79.5C102.337 79.1879 102.735 78.7673 103.021 78.2722C103.307 77.7771 103.472 77.2216 103.502 76.6508V11.6124L103.495 11.6313Z" fill="#E0E0E0"/>
<path opacity="0.8" d="M101.411 10.4074L13.2346 61.2455L15.3336 62.4579L103.503 11.6122L101.411 10.4074Z" fill="#455A64"/>
<path d="M15.9245 128.432C15.7463 128.335 15.5974 128.191 15.4935 128.017C15.3895 127.842 15.3343 127.643 15.3335 127.44V62.4732L13.2345 61.2607V125.871C13.2288 125.951 13.2288 126.03 13.2345 126.11C13.2706 126.373 13.3666 126.625 13.515 126.846C13.6634 127.066 13.8603 127.25 14.0907 127.383L15.8222 128.387L15.9094 128.432H15.9245Z" fill="#EBEBEB"/>
<path d="M13.2358 61.2759V56.8923C13.2512 56.6074 13.3332 56.33 13.4754 56.0826C13.6175 55.8351 13.8158 55.6245 14.0542 55.4677L100.594 5.57683C100.848 5.44805 101.128 5.38092 101.413 5.38092C101.697 5.38092 101.977 5.44805 102.231 5.57683L102.682 5.83826C102.921 5.9936 103.12 6.20326 103.263 6.45016C103.406 6.69706 103.488 6.97422 103.504 7.25906V11.6465L15.3348 62.4732L13.2358 61.2759Z" fill="#FF9721"/>
<path opacity="0.2" d="M13.2358 61.2759V56.8923C13.2512 56.6074 13.3332 56.33 13.4754 56.0826C13.6175 55.8351 13.8158 55.6245 14.0542 55.4677L100.594 5.57683C100.848 5.44805 101.128 5.38092 101.413 5.38092C101.697 5.38092 101.977 5.44805 102.231 5.57683L102.682 5.83826C102.921 5.9936 103.12 6.20326 103.263 6.45016C103.406 6.69706 103.488 6.97422 103.504 7.25906V11.6465L15.3348 62.4732L13.2358 61.2759Z" fill="black"/>
<path d="M15.3333 58.1008C15.3483 57.8158 15.4302 57.5383 15.5724 57.2908C15.7146 57.0433 15.913 56.8328 16.1516 56.6762L102.684 6.77776C103.135 6.51254 103.502 6.72472 103.502 7.24757V11.6464L15.3333 62.4731V58.1008Z" fill="#FF9721"/>
<path d="M15.5722 57.2901C15.4254 57.5359 15.3433 57.8148 15.3335 58.1009V62.4732L13.2383 61.2646V56.8885C13.248 56.6036 13.3302 56.3259 13.477 56.0815L15.5722 57.2901Z" fill="#FF9721"/>
<path opacity="0.4" d="M15.5722 57.2901C15.4254 57.5359 15.3433 57.8148 15.3335 58.1009V62.4732L13.2383 61.2646V56.8885C13.248 56.6036 13.3302 56.3259 13.477 56.0815L15.5722 57.2901Z" fill="black"/>
<path d="M99.6533 11.4494C99.6533 11.9382 99.9981 12.139 100.411 11.8927C100.633 11.7455 100.818 11.5481 100.949 11.3164C101.081 11.0847 101.156 10.8252 101.169 10.5591C101.169 10.0703 100.824 9.8695 100.411 10.1158C100.189 10.2632 100.005 10.4607 99.8734 10.6924C99.7417 10.924 99.6664 11.1833 99.6533 11.4494Z" fill="#FAFAFA"/>
<path d="M96.5767 13.2188C96.5767 13.7075 96.9214 13.9083 97.3344 13.6621C97.5563 13.5146 97.7405 13.3171 97.8721 13.0855C98.0038 12.8538 98.0791 12.5945 98.0922 12.3284C98.0922 11.8397 97.7474 11.6389 97.3344 11.8851C97.1125 12.0326 96.9283 12.2301 96.7967 12.4617C96.6651 12.6933 96.5897 12.9527 96.5767 13.2188Z" fill="#FAFAFA"/>
<path d="M93.4963 15.0034C93.4963 15.4921 93.8411 15.6929 94.2541 15.4467C94.476 15.2992 94.6602 15.1017 94.7918 14.8701C94.9234 14.6385 94.9988 14.3791 95.0119 14.113C95.0119 13.6243 94.6671 13.4235 94.2541 13.6697C94.032 13.8169 93.8476 14.0144 93.716 14.2461C93.5843 14.4778 93.5091 14.7372 93.4963 15.0034Z" fill="#FAFAFA"/>
<path d="M15.3333 62.4732V127.44C15.3363 127.636 15.39 127.828 15.4893 127.997C15.5885 128.166 15.7299 128.307 15.8996 128.406C16.0694 128.504 16.2617 128.557 16.4579 128.559C16.6541 128.561 16.8475 128.512 17.0193 128.417L18.5916 127.512L37.8577 116.399V49.4966L15.3333 62.4732Z" fill="#FAFAFA"/>
<path d="M39.396 50.5953V113.683L101.654 77.7382V14.6509L39.396 50.5953Z" fill="#FAFAFA"/>
<path d="M88.271 68.8143L88.3776 66.4196L89.7997 64.9159L91.1453 65.7577L91.1424 65.829L91.037 68.1564L89.615 69.6601L88.2694 68.8184L88.271 68.8143ZM88.4422 66.5332L88.3461 68.7201L89.5954 69.5016L90.9709 68.0469L91.067 65.86L89.8177 65.0785L88.4422 66.5332Z" fill="black"/>
<path d="M89.5444 71.8173L89.6405 69.6304L91.016 68.1757L92.2653 68.9572L92.2653 68.9799C92.2741 68.9577 92.2914 68.9408 92.3051 68.9216C92.3187 68.9024 92.3291 68.8913 92.3412 68.8761L92.3476 68.8599L90.9972 68.0152L89.576 69.5244L89.4734 71.8485L89.4706 71.9199" fill="black"/>
<path d="M86.771 72.5843L86.8764 70.1889L88.2997 68.6859L89.6452 69.5276L89.5386 71.9223L88.1166 73.426L86.771 72.5843ZM86.9438 70.2991L86.8477 72.486L88.097 73.2675L89.4713 71.8121L89.5686 69.6259L88.3193 68.8444L86.9438 70.2991Z" fill="black"/>
<path d="M84.0742 73.2528L84.1808 70.8581L85.6036 69.3524L86.9492 70.1941L86.8422 72.5936L85.4181 74.0986L84.0726 73.2568L84.0742 73.2528ZM84.2473 70.9704L84.1501 73.1565L85.3993 73.938L86.774 72.4854L86.8709 70.2965L85.6216 69.515L84.2473 70.9704Z" fill="black"/>
<path d="M85.3022 74.0207L85.3078 74.0065C85.3446 73.9843 85.3821 73.9688 85.4194 73.9603L85.4386 73.9573L84.1039 73.1223L82.681 74.628L82.5748 77.0179L82.6571 76.9357L82.6463 76.9289L82.7444 74.7408L84.1179 73.2874L85.3022 74.0207Z" fill="black"/>
<path d="M84.2527 70.8626L84.237 70.8528C84.2217 70.8912 84.1973 70.9263 84.176 70.9609L84.0763 73.1455L82.7008 74.6002L81.4551 73.821L81.4555 73.7859C81.4373 73.8195 81.4154 73.8487 81.3913 73.8718L81.3804 73.8802L81.3784 73.9192L82.724 74.761L84.1461 73.2573L84.2527 70.8626Z" fill="black"/>
<path d="M89.9652 69.8006C89.9175 69.9204 89.8498 70.0242 89.7704 70.099C89.6911 70.1738 89.6038 70.2162 89.5196 70.2208C89.4354 70.2254 89.358 70.1919 89.2973 70.1248C89.2366 70.0576 89.1952 69.9596 89.1784 69.8433C89.1616 69.727 89.1702 69.5976 89.203 69.4713C89.2358 69.3451 89.2914 69.2278 89.3628 69.1342C89.4342 69.0406 89.5181 68.9749 89.604 68.9455C89.6898 68.9161 89.7738 68.9242 89.8452 68.9689C89.941 69.0288 90.0074 69.1501 90.0299 69.306C90.0524 69.462 90.0291 69.6399 89.9652 69.8006Z" fill="#FF9721"/>
<path d="M91.3644 68.3205C91.3167 68.4403 91.2489 68.5442 91.1696 68.619C91.0903 68.6938 91.003 68.7362 90.9188 68.7407C90.8346 68.7453 90.7572 68.7119 90.6965 68.6447C90.6357 68.5775 90.5943 68.4796 90.5776 68.3633C90.5608 68.247 90.5693 68.1175 90.6022 67.9913C90.635 67.8651 90.6906 67.7477 90.762 67.6542C90.8334 67.5606 90.9173 67.4949 91.0031 67.4655C91.089 67.4361 91.173 67.4442 91.2444 67.4889C91.3401 67.5488 91.4066 67.67 91.4291 67.826C91.4516 67.982 91.4283 68.1598 91.3644 68.3205Z" fill="#FF9721"/>
<path d="M87.1674 72.759C87.1197 72.8788 87.0519 72.9827 86.9726 73.0575C86.8933 73.1323 86.806 73.1746 86.7218 73.1792C86.6376 73.1838 86.5602 73.1504 86.4994 73.0832C86.4387 73.016 86.3973 72.9181 86.3805 72.8018C86.3638 72.6855 86.3723 72.556 86.4051 72.4298C86.438 72.3036 86.4936 72.1862 86.565 72.0926C86.6363 71.999 86.7203 71.9334 86.8061 71.904C86.892 71.8745 86.9759 71.8827 87.0473 71.9273C87.1431 71.9872 87.2095 72.1085 87.2321 72.2645C87.2546 72.4204 87.2313 72.5983 87.1674 72.759Z" fill="#FF9721"/>
<path d="M84.4708 73.4276C84.4232 73.5474 84.3554 73.6513 84.2761 73.7261C84.1967 73.8009 84.1095 73.8432 84.0252 73.8478C83.941 73.8524 83.8636 73.819 83.8029 73.7518C83.7422 73.6846 83.7008 73.5866 83.684 73.4703C83.6672 73.354 83.6758 73.2246 83.7086 73.0984C83.7414 72.9721 83.7971 72.8548 83.8684 72.7612C83.9398 72.6676 84.0237 72.6019 84.1096 72.5725C84.1955 72.5431 84.2794 72.5513 84.3508 72.5959C84.4466 72.6558 84.513 72.7771 84.5355 72.9331C84.558 73.089 84.5348 73.2669 84.4708 73.4276Z" fill="#FF9721"/>
<path d="M84.5751 71.1373C84.5274 71.2571 84.4596 71.361 84.3803 71.4358C84.301 71.5106 84.2137 71.5529 84.1295 71.5575C84.0453 71.5621 83.9679 71.5287 83.9072 71.4615C83.8464 71.3943 83.805 71.2964 83.7883 71.1801C83.7715 71.0637 83.78 70.9343 83.8129 70.8081C83.8457 70.6818 83.9013 70.5645 83.9727 70.4709C84.044 70.3773 84.128 70.3117 84.2138 70.2822C84.2997 70.2528 84.3836 70.261 84.4551 70.3056C84.5508 70.3655 84.6173 70.4868 84.6398 70.6428C84.6623 70.7987 84.639 70.9766 84.5751 71.1373Z" fill="#FF9721"/>
<path d="M89.968 65.0941C89.947 65.1468 89.9172 65.1925 89.8823 65.2254C89.8474 65.2583 89.809 65.277 89.772 65.279C89.7349 65.281 89.7009 65.2663 89.6741 65.2367C89.6474 65.2072 89.6292 65.1641 89.6218 65.1129C89.6144 65.0617 89.6182 65.0048 89.6326 64.9492C89.6471 64.8937 89.6716 64.8421 89.703 64.8009C89.7344 64.7597 89.7713 64.7308 89.8091 64.7179C89.8469 64.7049 89.8838 64.7085 89.9152 64.7282C89.9574 64.7545 89.9866 64.8079 89.9965 64.8765C90.0064 64.9451 89.9962 65.0234 89.968 65.0941Z" fill="#FF9721"/>
<path d="M91.2651 65.9057C91.2442 65.9584 91.2143 66.0041 91.1794 66.037C91.1445 66.0699 91.1061 66.0886 91.0691 66.0906C91.032 66.0926 90.998 66.0779 90.9713 66.0483C90.9445 66.0188 90.9263 65.9757 90.9189 65.9245C90.9116 65.8733 90.9153 65.8164 90.9298 65.7608C90.9442 65.7053 90.9687 65.6537 91.0001 65.6125C91.0315 65.5713 91.0684 65.5424 91.1062 65.5295C91.144 65.5165 91.1809 65.5201 91.2123 65.5398C91.2333 65.5526 91.2514 65.5722 91.2655 65.5977C91.2795 65.6231 91.2893 65.6537 91.2942 65.6877C91.2991 65.7218 91.2991 65.7586 91.2941 65.796C91.2891 65.8334 91.2793 65.8707 91.2651 65.9057Z" fill="#FF9721"/>
<path d="M88.5694 66.5721C88.5486 66.6251 88.5189 66.6711 88.4841 66.7044C88.4492 66.7376 88.4108 66.7566 88.3736 66.759C88.3365 66.7613 88.3023 66.7469 88.2754 66.7175C88.2485 66.6881 88.2301 66.6451 88.2226 66.5939C88.215 66.5428 88.2187 66.4857 88.233 66.4301C88.2474 66.3744 88.2718 66.3227 88.3033 66.2813C88.3347 66.24 88.3716 66.211 88.4095 66.198C88.4473 66.185 88.4843 66.1885 88.5158 66.2082C88.5577 66.2344 88.5869 66.2874 88.5969 66.3556C88.607 66.4237 88.5971 66.5016 88.5694 66.5721Z" fill="#FF9721"/>
<path d="M88.4678 68.8639C88.4468 68.9166 88.417 68.9623 88.3821 68.9953C88.3472 69.0282 88.3088 69.0468 88.2717 69.0488C88.2347 69.0508 88.2006 69.0361 88.1739 69.0066C88.1472 68.977 88.129 68.9339 88.1216 68.8827C88.1142 68.8316 88.118 68.7746 88.1324 68.7191C88.1468 68.6635 88.1713 68.6119 88.2027 68.5707C88.2341 68.5295 88.2711 68.5007 88.3088 68.4877C88.3466 68.4748 88.3836 68.4783 88.415 68.498C88.4571 68.5244 88.4863 68.5777 88.4962 68.6463C88.5061 68.715 88.4959 68.7932 88.4678 68.8639Z" fill="#FF9721"/>
<path d="M92.462 69.0069C92.4412 69.0599 92.4115 69.1059 92.3767 69.1392C92.3418 69.1724 92.3034 69.1914 92.2662 69.1938C92.229 69.1961 92.1948 69.1817 92.1679 69.1523C92.141 69.1229 92.1227 69.0799 92.1151 69.0287C92.1076 68.9776 92.1112 68.9205 92.1256 68.8649C92.14 68.8092 92.1644 68.7575 92.1958 68.7161C92.2272 68.6748 92.2642 68.6458 92.3021 68.6328C92.3399 68.6198 92.3769 68.6233 92.4084 68.643C92.4503 68.6692 92.4795 68.7222 92.4895 68.7904C92.4995 68.8585 92.4897 68.9364 92.462 69.0069Z" fill="#FF9721"/>
<path d="M89.6633 71.9674C89.6424 72.0201 89.6125 72.0658 89.5776 72.0987C89.5427 72.1316 89.5043 72.1503 89.4673 72.1523C89.4302 72.1543 89.3962 72.1396 89.3695 72.11C89.3427 72.0805 89.3245 72.0374 89.3171 71.9862C89.3098 71.935 89.3135 71.8781 89.328 71.8225C89.3424 71.767 89.3669 71.7154 89.3983 71.6742C89.4297 71.633 89.4666 71.6041 89.5044 71.5912C89.5422 71.5782 89.5791 71.5818 89.6105 71.6015C89.6527 71.6278 89.6819 71.6812 89.6918 71.7498C89.7017 71.8184 89.6915 71.8967 89.6633 71.9674Z" fill="#FF9721"/>
<path d="M88.265 73.4457C88.2442 73.4987 88.2145 73.5447 88.1796 73.578C88.1448 73.6112 88.1063 73.6302 88.0692 73.6326C88.032 73.6349 87.9978 73.6205 87.9709 73.5911C87.944 73.5617 87.9256 73.5187 87.9181 73.4675C87.9106 73.4164 87.9142 73.3593 87.9286 73.3037C87.943 73.248 87.9674 73.1962 87.9988 73.1549C88.0302 73.1136 88.0672 73.0846 88.105 73.0716C88.1429 73.0586 88.1799 73.0621 88.2114 73.0818C88.2533 73.108 88.2824 73.161 88.2925 73.2292C88.3025 73.2973 88.2926 73.3752 88.265 73.4457Z" fill="#FF9721"/>
<path d="M87.0684 70.3443C87.0474 70.397 87.0176 70.4427 86.9827 70.4756C86.9478 70.5085 86.9094 70.5272 86.8723 70.5292C86.8352 70.5312 86.8012 70.5165 86.7745 70.4869C86.7478 70.4574 86.7296 70.4143 86.7222 70.3631C86.7148 70.3119 86.7185 70.255 86.733 70.1994C86.7474 70.1439 86.7719 70.0923 86.8033 70.0511C86.8347 70.0099 86.8716 69.981 86.9094 69.9681C86.9472 69.9551 86.9841 69.9587 87.0156 69.9783C87.0577 70.0047 87.0869 70.0581 87.0968 70.1267C87.1067 70.1953 87.0965 70.2736 87.0684 70.3443Z" fill="#FF9721"/>
<path d="M85.7716 69.5306C85.7507 69.5836 85.721 69.6297 85.6861 69.663C85.6511 69.6962 85.6126 69.7152 85.5754 69.7174C85.5382 69.7197 85.504 69.7051 85.4771 69.6755C85.4503 69.6459 85.432 69.6027 85.4246 69.5514C85.4171 69.5 85.421 69.4429 85.4355 69.3872C85.4501 69.3315 85.4747 69.2798 85.5063 69.2386C85.5379 69.1974 85.575 69.1687 85.6129 69.156C85.6508 69.1433 85.6878 69.1473 85.7191 69.1674C85.7607 69.194 85.7894 69.247 85.7992 69.315C85.809 69.3829 85.7991 69.4604 85.7716 69.5306Z" fill="#FF9721"/>
<path d="M85.5684 74.1142C85.5474 74.167 85.5175 74.2128 85.4825 74.2457C85.4475 74.2786 85.4091 74.2972 85.3719 74.2992C85.3348 74.3011 85.3008 74.2862 85.2741 74.2565C85.2474 74.2267 85.2293 74.1834 85.222 74.1321C85.2148 74.0807 85.2187 74.0236 85.2333 73.968C85.248 73.9125 85.2726 73.8609 85.3042 73.8198C85.3358 73.7788 85.3728 73.7502 85.4107 73.7376C85.4485 73.725 85.4854 73.729 85.5168 73.7491C85.5376 73.7621 85.5554 73.7819 85.5693 73.8073C85.5832 73.8327 85.5928 73.8633 85.5976 73.8973C85.6024 73.9312 85.6022 73.9679 85.5972 74.0051C85.5922 74.0423 85.5824 74.0794 85.5684 74.1142Z" fill="#FF9721"/>
<path d="M82.7708 77.0726C82.7497 77.1254 82.7199 77.1712 82.6849 77.2041C82.6499 77.237 82.6114 77.2556 82.5743 77.2575C82.5372 77.2594 82.5032 77.2446 82.4765 77.2148C82.4498 77.1851 82.4317 77.1418 82.4244 77.0904C82.4172 77.0391 82.4211 76.982 82.4357 76.9264C82.4504 76.8708 82.475 76.8193 82.5066 76.7782C82.5382 76.7372 82.5752 76.7086 82.6131 76.696C82.6509 76.6834 82.6878 76.6874 82.7192 76.7074C82.74 76.7205 82.7578 76.7403 82.7717 76.7657C82.7855 76.7911 82.7952 76.8217 82.8 76.8556C82.8048 76.8896 82.8046 76.9262 82.7996 76.9635C82.7946 77.0007 82.7848 77.0378 82.7708 77.0726Z" fill="#FF9721"/>
<path d="M81.575 73.9692C81.5539 74.022 81.5241 74.0678 81.4891 74.1007C81.4541 74.1336 81.4156 74.1522 81.3785 74.1541C81.3414 74.156 81.3074 74.1412 81.2807 74.1114C81.254 74.0817 81.2359 74.0384 81.2286 73.987C81.2214 73.9357 81.2253 73.8786 81.2399 73.823C81.2546 73.7674 81.2792 73.7159 81.3108 73.6748C81.3424 73.6338 81.3794 73.6052 81.4173 73.5926C81.4551 73.58 81.492 73.584 81.5234 73.604C81.5651 73.6308 81.5939 73.6842 81.6036 73.7526C81.6132 73.821 81.6029 73.8989 81.575 73.9692Z" fill="#FF9721"/>
<path d="M82.8723 74.7809C82.8513 74.8336 82.8215 74.8793 82.7866 74.9123C82.7517 74.9452 82.7133 74.9638 82.6763 74.9658C82.6392 74.9678 82.6052 74.9531 82.5784 74.9236C82.5517 74.894 82.5335 74.8509 82.5261 74.7997C82.5187 74.7486 82.5225 74.6916 82.5369 74.6361C82.5514 74.5805 82.5759 74.5289 82.6073 74.4877C82.6387 74.4465 82.6756 74.4176 82.7134 74.4047C82.7512 74.3918 82.7881 74.3953 82.8195 74.415C82.8616 74.4414 82.8909 74.4947 82.9008 74.5633C82.9107 74.632 82.9005 74.7102 82.8723 74.7809Z" fill="#FF9721"/>
<path d="M52.5922 61.3391L52.2179 57.7766C52.1326 57.0903 52.5339 56.2759 53.4329 55.502C55.2237 53.9731 58.3101 53.183 60.3246 53.7365C61.3425 54.0162 61.8927 54.5853 61.9551 55.2768L62.3313 58.8254C62.4122 59.511 62.0502 60.6851 61.1476 61.4528C59.3546 62.9814 56.2704 63.7718 54.2555 63.2211C53.2507 62.9433 52.6535 62.0219 52.5892 61.3443L52.5922 61.3391Z" fill="#263238"/>
<path d="M56.5439 51.4928L64.1401 54.7702L57.6329 61.6601L50.0363 58.3855L56.5439 51.4928Z" fill="#455A64"/>
<path d="M64.1394 54.7702L64.1781 55.1326L57.6705 62.0252L57.6321 61.6601L64.1394 54.7702Z" fill="#37474F"/>
<path d="M50.0359 58.3856L50.0746 58.748L57.6709 62.0254L57.6325 61.6603L50.0359 58.3856Z" fill="#263238"/>
<path opacity="0.1" d="M61.6232 57.84L57.7298 62.569L53.0716 60.0405L57.6706 62.0253L61.6232 57.84Z" fill="black"/>
<path d="M53.6061 59.0726L56.493 55.9713C56.5225 55.9339 56.5618 55.9118 56.6022 55.9099C56.6426 55.908 56.6808 55.9265 56.7085 55.9613C56.7361 55.9961 56.7509 56.0443 56.7496 56.0954C56.7483 56.1464 56.7309 56.1961 56.7014 56.2336L56.6818 56.2619L53.7945 59.366" fill="#E0E0E0"/>
<path d="M53.7194 64.7383C53.7986 64.7671 53.8835 64.7709 53.9669 64.7494C54.0503 64.7279 54.1297 64.6817 54.1986 64.6148L54.9286 67.6792C54.9911 68.2772 53.7493 68.5967 53.6847 67.9984L53.7194 64.7383Z" fill="#FF9721"/>
<path opacity="0.15" d="M53.8918 66.5446L53.9952 68.3067C53.967 68.3026 53.9387 68.2985 53.9126 68.2948L53.8918 66.5446Z" fill="black"/>
<path opacity="0.15" d="M54.6658 68.1483L54.1963 65.3706L54.744 68.0831L54.6658 68.1483Z" fill="black"/>
<path opacity="0.15" d="M54.3922 68.2758L54.3161 68.296L54.1143 66.0468L54.3922 68.2758Z" fill="black"/>
<path d="M53.9648 64.6377C54.005 64.6267 54.0413 64.5963 54.0658 64.5532C54.0903 64.5101 54.101 64.4577 54.0955 64.4073L53.6144 59.9232C53.6039 59.8219 53.615 59.7169 53.6467 59.619C53.6783 59.5211 53.7293 59.4338 53.7946 59.3658L53.6148 59.0737C53.5068 59.1876 53.4227 59.3334 53.3708 59.4965C53.3188 59.6595 53.301 59.8341 53.3191 60.0024L53.7976 64.489C53.8043 64.537 53.8251 64.5789 53.8561 64.6064C53.887 64.6339 53.9257 64.645 53.9648 64.6377Z" fill="#E0E0E0"/>
<path d="M54.2795 64.3604C54.2708 64.2771 54.2426 64.2007 54.1983 64.1407C54.1541 64.0808 54.0958 64.0401 54.0309 64.0236C53.966 64.0072 53.8973 64.0159 53.8336 64.0485C53.7699 64.0811 53.7139 64.1362 53.6728 64.2069C53.6317 64.2776 53.6073 64.3606 53.6026 64.4456C53.598 64.5305 53.6133 64.6136 53.6467 64.6842C53.68 64.7549 53.7299 64.81 53.7901 64.8426C53.8503 64.8751 53.918 64.8837 53.9847 64.8673C54.0742 64.8444 54.1555 64.7784 54.2107 64.6834C54.2659 64.5885 54.2906 64.4724 54.2795 64.3604Z" fill="#FF9721"/>
<path opacity="0.15" d="M53.6126 64.556C53.6317 64.5953 53.6576 64.6284 53.6885 64.6529C53.7194 64.6775 53.7546 64.693 53.7917 64.6983C53.8289 64.7037 53.867 64.6987 53.9036 64.6839C53.9402 64.6691 53.9744 64.6447 54.0038 64.6123C54.0421 64.5715 54.072 64.5194 54.0907 64.4614C54.1093 64.4033 54.116 64.3411 54.1102 64.281C54.1043 64.2208 54.0861 64.1647 54.0572 64.118C54.0284 64.0714 53.99 64.0359 53.9456 64.0149C54.0267 64.0072 54.1052 64.0365 54.1669 64.0974C54.2285 64.1582 54.2693 64.2466 54.2817 64.3465C54.2875 64.402 54.2844 64.4592 54.2727 64.5147C54.261 64.5703 54.2409 64.6231 54.2135 64.6702C54.1861 64.7173 54.152 64.7577 54.1131 64.7892C54.0742 64.8206 54.0313 64.8424 53.9868 64.8534C53.9029 64.8754 53.8177 64.8569 53.7483 64.8017C53.6789 64.7466 53.6304 64.6588 53.6126 64.556Z" fill="black"/>
<path d="M56.573 87.2784L66.1105 78.7518L59.4897 89.8841L56.573 87.2784Z" fill="#FF9721"/>
<path d="M66.1108 78.7518L55.4565 85.4859L52.5371 82.8802L66.1108 78.7518Z" fill="#FF9721"/>
<path d="M55.4558 85.4859L56.1034 89.6351L56.5725 87.2784L66.1101 78.7518L55.4558 85.4859Z" fill="#E47C07"/>
<path d="M56.1038 89.635L57.5443 88.1454L56.573 87.2783L56.1038 89.635Z" fill="#F3A143"/>
<path opacity="0.2" d="M56.573 87.2783L57.5443 88.1454L57.3138 88.3819L56.573 87.2783Z" fill="black"/>
<path d="M54.0787 88.3694C54.0485 88.369 54.0193 88.3539 53.9952 88.3263C53.9712 88.2987 53.9537 88.26 53.9454 88.2162C53.937 88.1723 53.9383 88.1256 53.949 88.0829C53.9597 88.0402 53.9792 88.0039 54.0046 87.9793L54.3668 87.6474C54.3827 87.6332 54.4002 87.6239 54.4185 87.62C54.4367 87.6161 54.4553 87.6177 54.4731 87.6246C54.4909 87.6315 54.5077 87.6437 54.5224 87.6604C54.5371 87.6772 54.5495 87.6981 54.5589 87.7221C54.5683 87.7461 54.5744 87.7726 54.577 87.8002C54.5796 87.8277 54.5786 87.8558 54.574 87.8828C54.5694 87.9098 54.5613 87.9351 54.5503 87.9574C54.5392 87.9796 54.5254 87.9984 54.5095 88.0125L54.1528 88.3362C54.1304 88.3566 54.1049 88.368 54.0787 88.3694Z" fill="#E0E0E0"/>
<path d="M48.7873 101.781C48.7488 101.781 48.7121 101.772 48.685 101.757C48.4998 101.65 48.3146 101.533 48.1321 101.415C48.1203 101.408 48.1115 101.399 48.106 101.389C48.1006 101.38 48.0988 101.369 48.1006 101.359C48.1024 101.349 48.1078 101.34 48.1165 101.331C48.1253 101.322 48.1371 101.314 48.1515 101.308C48.1658 101.302 48.1823 101.297 48.2001 101.294C48.2179 101.291 48.2365 101.29 48.255 101.291C48.2735 101.292 48.2914 101.295 48.3078 101.299C48.3242 101.304 48.3387 101.311 48.3505 101.318C48.5274 101.436 48.7071 101.548 48.8868 101.653C48.9132 101.667 48.9279 101.686 48.9279 101.707C48.9279 101.727 48.9132 101.746 48.8868 101.76C48.8598 101.774 48.8242 101.781 48.7873 101.781ZM47.4299 100.841C47.4064 100.841 47.3833 100.837 47.3626 100.831C47.3419 100.825 47.3242 100.817 47.3111 100.806C47.159 100.681 47.0125 100.552 46.8743 100.423C46.8633 100.414 46.8558 100.404 46.8521 100.394C46.8485 100.384 46.8488 100.373 46.8531 100.363C46.8574 100.352 46.8655 100.343 46.877 100.334C46.8885 100.326 46.9031 100.319 46.9199 100.314C46.9367 100.308 46.9553 100.305 46.9746 100.304C46.9939 100.303 47.0134 100.304 47.032 100.307C47.0505 100.31 47.0677 100.315 47.0824 100.322C47.0972 100.329 47.1091 100.337 47.1176 100.346C47.253 100.473 47.394 100.6 47.5488 100.723C47.5688 100.74 47.5757 100.76 47.568 100.78C47.5602 100.8 47.5385 100.817 47.5073 100.829C47.4839 100.836 47.4572 100.84 47.4299 100.841ZM46.3601 99.7955C46.3346 99.7962 46.3092 99.7931 46.2867 99.7865C46.2643 99.7799 46.2457 99.7701 46.2329 99.7581C46.1168 99.6223 46.0062 99.4819 45.9039 99.3431C45.8972 99.3333 45.8942 99.3228 45.8949 99.3124C45.8956 99.302 45.9002 99.2917 45.9083 99.2822C45.9164 99.2727 45.9278 99.2642 45.942 99.2571C45.9562 99.2499 45.9729 99.2444 45.991 99.2408C46.0277 99.2335 46.0682 99.2343 46.1037 99.2431C46.1213 99.2475 46.1372 99.2537 46.1503 99.2614C46.1635 99.269 46.1737 99.278 46.1804 99.2878C46.2799 99.4237 46.3877 99.5611 46.5011 99.6954C46.5089 99.7044 46.5133 99.7142 46.5141 99.7241C46.5149 99.7341 46.5119 99.744 46.5055 99.7533C46.4991 99.7626 46.4892 99.7711 46.4766 99.7784C46.464 99.7856 46.4488 99.7914 46.432 99.7955C46.4092 99.8006 46.384 99.8017 46.3601 99.7984V99.7955ZM45.5943 98.6787C45.5637 98.6787 45.5339 98.6733 45.5095 98.6633C45.485 98.6533 45.4673 98.6393 45.4589 98.6234C45.3815 98.4741 45.3124 98.3323 45.2515 98.186C45.2431 98.1662 45.2496 98.1454 45.2695 98.1282C45.2895 98.111 45.3213 98.0987 45.358 98.0942C45.3946 98.0896 45.4331 98.0931 45.465 98.1039C45.4969 98.1147 45.5195 98.1318 45.528 98.1516C45.586 98.3009 45.6551 98.4398 45.7298 98.5816C45.7393 98.601 45.7345 98.6216 45.7165 98.6392C45.6984 98.6567 45.6685 98.6698 45.633 98.6757L45.5943 98.6787ZM45.1548 97.5186C45.1206 97.5184 45.0877 97.5114 45.0622 97.4991C45.0368 97.4867 45.0206 97.4698 45.0166 97.4514C44.9834 97.3021 44.9557 97.1528 44.9391 97.0035C44.9376 96.9935 44.9399 96.9834 44.9458 96.9738C44.9518 96.9642 44.9612 96.9554 44.9736 96.9479C44.986 96.9404 45.0011 96.9343 45.018 96.93C45.0349 96.9257 45.0532 96.9233 45.0718 96.9229C45.0903 96.9219 45.109 96.9229 45.1266 96.9259C45.1443 96.9289 45.1607 96.9339 45.1747 96.9405C45.1887 96.9471 45.2 96.9551 45.208 96.9642C45.216 96.9732 45.2205 96.9831 45.2211 96.9931C45.2377 97.1424 45.2626 97.2917 45.2958 97.4335C45.2997 97.4537 45.2889 97.4738 45.2656 97.4897C45.2424 97.5056 45.2086 97.516 45.1714 97.5186H45.1548ZM45.0635 96.3242C45.0452 96.324 45.027 96.3218 45.0102 96.3178C44.9934 96.3138 44.9782 96.308 44.9656 96.3008C44.953 96.2935 44.9432 96.285 44.9367 96.2757C44.9303 96.2664 44.9274 96.2565 44.9281 96.2466C44.9281 96.0973 44.9557 95.948 44.9806 95.7987C44.9834 95.7789 45.0002 95.7604 45.0274 95.7471C45.0547 95.7337 45.0904 95.7266 45.1271 95.727C45.1641 95.7289 45.1981 95.7386 45.2219 95.7539C45.2457 95.7693 45.2574 95.7891 45.2543 95.8091C45.2267 95.9584 45.2101 96.1077 45.199 96.257C45.1962 96.2754 45.1807 96.2925 45.1556 96.3049C45.1305 96.3174 45.0976 96.3243 45.0635 96.3242ZM45.3041 95.1402H45.2792C45.2609 95.1386 45.2434 95.135 45.2277 95.1297C45.212 95.1244 45.1985 95.1174 45.188 95.1092C45.1774 95.1009 45.17 95.0917 45.1662 95.0819C45.1624 95.0721 45.1623 95.062 45.1658 95.0522C45.2128 94.9029 45.2709 94.7535 45.3317 94.6042C45.3401 94.5844 45.3628 94.5673 45.3947 94.5565C45.4266 94.5457 45.4651 94.5422 45.5017 94.5468C45.5384 94.5513 45.5702 94.5636 45.5901 94.5808C45.6101 94.598 45.6166 94.6188 45.6082 94.6386C45.5473 94.7879 45.492 94.9282 45.445 95.0731C45.4409 95.0915 45.4242 95.1085 45.3981 95.1206C45.372 95.1328 45.3385 95.1393 45.3041 95.1387V95.1402ZM45.8321 93.9832C45.8184 93.9846 45.8043 93.9846 45.7906 93.9832C45.7728 93.9803 45.7563 93.9755 45.742 93.9691C45.7277 93.9627 45.7159 93.9548 45.7074 93.9459C45.6989 93.9369 45.6938 93.9272 45.6924 93.9172C45.691 93.9072 45.6934 93.8971 45.6994 93.8876C45.7823 93.7383 45.8763 93.6024 45.9758 93.4621C45.989 93.4423 46.0162 93.4261 46.0515 93.4172C46.069 93.4127 46.0879 93.4102 46.1071 93.4097C46.1264 93.4092 46.1457 93.4108 46.1638 93.4143C46.182 93.4178 46.1986 93.4233 46.2129 93.4303C46.2272 93.4373 46.2388 93.4458 46.247 93.4552C46.2552 93.4646 46.2599 93.4748 46.2608 93.4852C46.2617 93.4956 46.2588 93.506 46.2523 93.5158C46.1583 93.6532 46.0671 93.7935 45.9758 93.9339C45.965 93.9493 45.945 93.9624 45.919 93.971C45.893 93.9796 45.8624 93.9834 45.8321 93.9817V93.9832ZM46.6476 92.8768C46.6266 92.8767 46.6058 92.8741 46.5868 92.8694C46.5531 92.8607 46.5271 92.8451 46.5147 92.826C46.5022 92.807 46.5043 92.7861 46.5204 92.7678C46.6393 92.6335 46.7665 92.4991 46.9019 92.3662C46.9106 92.3574 46.9225 92.3496 46.9368 92.3433C46.9512 92.3369 46.9678 92.3323 46.9856 92.3295C47.0034 92.3267 47.022 92.3259 47.0404 92.327C47.0588 92.3282 47.0766 92.3314 47.0927 92.3364C47.1247 92.3464 47.1483 92.3627 47.1586 92.3819C47.1689 92.4011 47.1651 92.4217 47.148 92.4394C47.0153 92.5693 46.8909 92.7022 46.7748 92.8335C46.7626 92.8461 46.7444 92.8567 46.722 92.864C46.6996 92.8714 46.6738 92.8753 46.6476 92.8753V92.8768ZM47.7368 91.8452C47.709 91.8453 47.6819 91.8406 47.6594 91.8317C47.6438 91.8264 47.6303 91.8195 47.6197 91.8113C47.6092 91.8032 47.6017 91.7939 47.5979 91.7842C47.594 91.7745 47.5938 91.7644 47.5972 91.7546C47.6007 91.7448 47.6077 91.7355 47.6179 91.7272C47.77 91.6033 47.9303 91.4794 48.0962 91.3569C48.1183 91.3408 48.1513 91.33 48.1881 91.3269C48.2248 91.3238 48.2623 91.3287 48.2925 91.3405C48.3076 91.3463 48.3204 91.3537 48.3302 91.3622C48.3399 91.3707 48.3464 91.3802 48.3492 91.39C48.3521 91.3999 48.3512 91.41 48.3467 91.4197C48.3421 91.4294 48.334 91.4385 48.3229 91.4465C48.1598 91.566 48.0022 91.6884 47.8529 91.8108C47.8402 91.8212 47.823 91.8298 47.8028 91.8358C47.7825 91.8418 47.7599 91.845 47.7368 91.8452ZM49.0693 90.8956C49.036 90.8953 49.0039 90.889 48.978 90.8777C48.9641 90.8711 48.9526 90.8631 48.9443 90.8542C48.9361 90.8452 48.9312 90.8355 48.9299 90.8255C48.9286 90.8155 48.931 90.8055 48.9369 90.796C48.9427 90.7865 48.952 90.7777 48.9642 90.7702C49.1439 90.6582 49.3319 90.5462 49.5171 90.4358C49.5439 90.4219 49.5795 90.4141 49.6166 90.4141C49.6537 90.4141 49.6894 90.4219 49.7162 90.4358C49.7425 90.45 49.7573 90.4694 49.7573 90.4895C49.7573 90.5097 49.7425 90.529 49.7162 90.5433C49.5282 90.6522 49.343 90.7627 49.1633 90.8732C49.1365 90.8845 49.1032 90.8903 49.0693 90.8896V90.8956ZM50.6118 90.0416C50.5922 90.0418 50.5727 90.0398 50.5547 90.0356C50.5366 90.0315 50.5203 90.0254 50.5068 90.0177C50.4811 90.0033 50.4668 89.984 50.4668 89.964C50.4668 89.9439 50.4811 89.9247 50.5068 89.9102C50.7114 89.8087 50.9215 89.7102 51.1343 89.6116C51.1483 89.6049 51.1647 89.5999 51.1824 89.5967C51.2001 89.5935 51.2188 89.5923 51.2374 89.5931C51.256 89.594 51.2741 89.5968 51.2906 89.6016C51.3071 89.6063 51.3216 89.6127 51.3334 89.6206C51.3568 89.6359 51.3681 89.6556 51.365 89.6754C51.3619 89.6952 51.3446 89.7136 51.3168 89.7266C51.1067 89.8236 50.8994 89.9207 50.6975 90.0252C50.6718 90.0336 50.6418 90.0373 50.6118 90.0356V90.0416ZM52.3148 89.2772C52.2856 89.277 52.2573 89.2719 52.2337 89.2627C52.2102 89.2534 52.1925 89.2405 52.1831 89.2256C52.1737 89.2107 52.173 89.1946 52.1813 89.1795C52.1895 89.1644 52.2062 89.1511 52.2291 89.1413C52.453 89.0517 52.6769 88.9651 52.9064 88.8785C52.9216 88.8729 52.9388 88.8689 52.9569 88.8668C52.975 88.8646 52.9937 88.8645 53.0119 88.8663C53.0302 88.8681 53.0476 88.8718 53.0631 88.8773C53.0787 88.8827 53.0921 88.8897 53.1026 88.898C53.1132 88.9062 53.1206 88.9155 53.1245 88.9252C53.1284 88.935 53.1287 88.9451 53.1253 88.955C53.122 88.9648 53.1151 88.9742 53.105 88.9826C53.095 88.991 53.082 88.9983 53.0667 89.004C52.84 89.0891 52.6161 89.1757 52.3977 89.2623C52.3739 89.272 52.3447 89.2773 52.3148 89.2772Z" fill="#E0E0E0"/>
<path d="M50.1275 126.708C50.1054 126.708 50.0836 126.7 50.0644 126.683C49.9337 126.582 49.8089 126.464 49.6912 126.331C49.6763 126.314 49.6636 126.294 49.6539 126.27C49.6443 126.246 49.6378 126.22 49.6348 126.192C49.6319 126.165 49.6326 126.136 49.6369 126.109C49.6411 126.082 49.6489 126.057 49.6597 126.034C49.6705 126.011 49.6842 125.992 49.6999 125.978C49.7156 125.963 49.733 125.953 49.7513 125.949C49.7695 125.944 49.7881 125.945 49.806 125.952C49.824 125.958 49.8409 125.97 49.8559 125.986C49.9605 126.107 50.0715 126.213 50.1879 126.306C50.2045 126.318 50.2193 126.335 50.2315 126.355C50.2437 126.376 50.253 126.4 50.2589 126.427C50.2648 126.453 50.2671 126.481 50.2658 126.508C50.2644 126.536 50.2594 126.563 50.251 126.588C50.2401 126.624 50.2227 126.654 50.2008 126.675C50.1789 126.696 50.1535 126.708 50.1275 126.708Z" fill="#E0E0E0"/>
<path d="M84.7262 49.1315C84.7292 49.3347 84.7802 49.5202 84.8727 49.6644C84.9652 49.8086 85.095 49.905 85.2456 49.9413C85.3961 49.9777 85.5608 49.9524 85.7185 49.8686C85.8762 49.7848 86.0199 49.6463 86.1314 49.4708C86.2428 49.2952 86.317 49.0905 86.3444 48.8826C86.3719 48.6747 86.3514 48.473 86.2855 48.3031C86.2197 48.1333 86.1114 48.003 85.9746 47.9287C85.8377 47.8544 85.6784 47.8395 85.5169 47.886C85.3023 47.9476 85.099 48.113 84.9509 48.3462C84.8029 48.5794 84.7221 48.8616 84.7262 49.1315Z" fill="#37474F"/>
<path d="M86.5111 48.6975C87.0389 48.1578 87.0275 47.5269 86.4821 47.2889C86.1771 47.1814 85.842 47.1748 85.5042 47.2699C85.1663 47.365 84.8353 47.5589 84.5379 47.836C84.0073 48.3777 84.0206 49.0092 84.5642 49.2465C84.8696 49.3546 85.2052 49.3612 85.5436 49.2657C85.882 49.1703 86.2135 48.9756 86.5111 48.6975Z" fill="#455A64"/>
<path d="M86.5326 48.3222C87.0784 47.7658 87.0656 47.1145 86.5044 46.8685C86.1907 46.7586 85.8463 46.7523 85.499 46.8501C85.1518 46.9478 84.8115 47.1469 84.5056 47.4311C83.9598 47.9875 83.9708 48.6381 84.5319 48.8842C84.8459 48.9941 85.1906 49.0005 85.5381 48.9029C85.8857 48.8053 86.2263 48.6063 86.5326 48.3222Z" fill="#37474F"/>
<path d="M86.552 47.9484C87.1139 47.3748 87.0981 46.714 86.5246 46.4496C86.2008 46.3347 85.845 46.3271 85.4861 46.4273C85.1272 46.5276 84.7753 46.733 84.4592 47.0267C83.8972 47.6003 83.913 48.2611 84.4865 48.5255C84.8103 48.6404 85.1661 48.648 85.525 48.5478C85.8839 48.4475 86.2358 48.2421 86.552 47.9484Z" fill="#455A64"/>
<path d="M86.5801 47.5349C87.16 46.9446 87.1463 46.2534 86.5518 45.9903C86.2178 45.8729 85.851 45.8656 85.4812 45.969C85.1113 46.0724 84.7487 46.2836 84.4225 46.5856C83.8427 47.1759 83.8555 47.8697 84.4528 48.1308C84.7864 48.2488 85.1529 48.2564 85.5226 48.1528C85.8922 48.0493 86.2546 47.8376 86.5801 47.5349Z" fill="#37474F"/>
<path d="M86.597 47.1124C87.1876 46.5087 87.1745 45.8035 86.567 45.5361C86.2264 45.4156 85.8523 45.4078 85.4749 45.5131C85.0976 45.6185 84.7276 45.8341 84.3949 46.1425C83.8043 46.7462 83.8175 47.4514 84.4249 47.7188C84.7655 47.8392 85.1396 47.8471 85.517 47.7418C85.8944 47.6364 86.2644 47.4208 86.597 47.1124Z" fill="#455A64"/>
<path d="M85.2846 35.5587C86.3081 35.2757 87.2985 35.5139 88.0391 36.221C88.7798 36.9282 89.2104 38.0468 89.2368 39.3322C89.3098 43.1844 86.7931 44.5314 86.8235 46.0823C86.8152 46.2329 86.7757 46.3859 86.7091 46.5255C86.6425 46.6651 86.5511 46.7862 86.4444 46.8765C86.1561 47.1442 85.8352 47.3313 85.5079 47.4225C85.1807 47.5138 84.8563 47.5066 84.5611 47.4015C84.4523 47.3722 84.3575 47.3036 84.2865 47.2028C84.2155 47.102 84.1711 46.9727 84.1577 46.8285C84.13 45.2756 81.5883 45.343 81.5144 41.4934C81.4921 40.2065 81.8763 38.8595 82.5829 37.7472C83.2895 36.635 84.2609 35.848 85.2846 35.5587Z" fill="#FF9721"/>
<path d="M86.207 46.7312C86.5933 46.3366 86.5857 45.8773 86.1875 45.7032C85.9654 45.6252 85.7215 45.6204 85.4756 45.6892C85.2297 45.758 84.9885 45.8985 84.7717 46.0994C84.3854 46.494 84.393 46.9533 84.7912 47.1274C85.0133 47.2055 85.2572 47.2103 85.5031 47.1414C85.7491 47.0726 85.9902 46.9321 86.207 46.7312Z" fill="#E47C07"/>
<path d="M84.9719 46.4392C85.0061 46.4293 85.0387 46.4032 85.0626 46.3663C85.0866 46.3294 85.1001 46.2846 85.1004 46.2413C85.0799 45.3074 84.9708 44.4019 84.7756 43.5441C84.7207 43.296 84.6516 43.0566 84.5688 42.8274C84.6842 42.7402 84.7947 42.6396 84.8985 42.5273C85.0864 42.3268 85.2555 42.0971 85.4002 41.8454C85.5529 42.0146 85.7289 42.1486 85.9226 42.2429C86.0294 42.2975 86.1427 42.3357 86.2607 42.357C86.1877 42.6302 86.1284 42.906 86.0831 43.1823C85.9251 44.135 85.8542 45.0864 85.8719 46.0165C85.8736 46.0599 85.889 46.0973 85.9148 46.1204C85.9406 46.1434 85.9747 46.1503 86.0094 46.1395C86.0442 46.1286 86.0769 46.101 86.1002 46.0626C86.1236 46.0241 86.1358 45.9782 86.1341 45.9347C86.1216 45.0263 86.193 44.0983 86.3469 43.1692C86.392 42.8939 86.4523 42.6193 86.5273 42.3476C86.6582 42.3444 86.7928 42.2994 86.9195 42.2165C87.0461 42.1336 87.1608 42.0154 87.2537 41.872C87.3244 41.7656 87.3675 41.6371 87.3754 41.5097C87.3833 41.3822 87.3554 41.2643 87.2968 41.1772C87.2573 41.1161 87.2022 41.0753 87.1382 41.0597C87.0742 41.0442 87.0043 41.0547 86.9372 41.09C86.7316 41.1993 86.5362 41.5221 86.3711 42.0055C86.2635 41.9879 86.1606 41.9532 86.0644 41.902C85.8779 41.8109 85.71 41.6786 85.5669 41.51C85.6435 41.3576 85.6983 41.1927 85.7281 41.0249C85.7578 40.8571 85.7619 40.6898 85.7401 40.5329C85.7151 40.445 85.6668 40.3754 85.6023 40.3345C85.5379 40.2935 85.4607 40.2833 85.382 40.3052C85.3033 40.3272 85.2273 40.3802 85.165 40.4565C85.1027 40.5328 85.0575 40.6284 85.0359 40.7294C85.0156 40.8994 85.0226 41.0661 85.0563 41.2191C85.09 41.372 85.1498 41.508 85.2319 41.6183C85.0968 41.8664 84.9346 42.0916 84.7518 42.2848C84.6593 42.3871 84.5598 42.4773 84.4553 42.5537C84.2752 42.1666 84.0678 41.9576 83.8599 41.964C83.7922 41.9667 83.7227 41.9953 83.6601 42.0464C83.5974 42.0974 83.5445 42.1686 83.5079 42.251C83.4537 42.37 83.4309 42.5019 83.4433 42.6235C83.4558 42.745 83.5028 42.8484 83.576 42.9152C83.6734 43.0047 83.7913 43.0572 83.9196 43.0684C84.0478 43.0795 84.1824 43.0488 84.3118 42.9791C84.4001 43.2072 84.4732 43.4472 84.5306 43.697C84.7186 44.528 84.8242 45.4045 84.8452 46.3084C84.8451 46.3304 84.8485 46.3512 84.8551 46.3698C84.8617 46.3884 84.8715 46.4044 84.8838 46.4167C84.8961 46.429 84.9107 46.4376 84.9268 46.4417C84.9429 46.4459 84.9601 46.4457 84.9775 46.441L84.9719 46.4392ZM87.0076 41.406C87.0234 41.403 87.0387 41.4051 87.0521 41.4121C87.0656 41.4191 87.0768 41.4308 87.0846 41.4461C87.15 41.5391 87.0761 41.6788 87.0522 41.7189C86.9984 41.8019 86.933 41.8717 86.8607 41.9234C86.7885 41.9751 86.7112 42.0073 86.6345 42.0178C86.698 41.7835 86.8232 41.5711 86.986 41.4214L87.0076 41.406ZM84.189 42.6965C84.1133 42.7283 84.0363 42.7394 83.9634 42.729C83.8905 42.7186 83.8234 42.687 83.7668 42.6363C83.7406 42.6104 83.6641 42.5137 83.7254 42.3868C83.7605 42.3135 83.7914 42.3013 83.818 42.3017C83.9059 42.2973 84.0442 42.4121 84.189 42.6965ZM85.3807 40.6528C85.3918 40.6471 85.4032 40.6442 85.4143 40.6441C85.4254 40.6441 85.436 40.6469 85.4454 40.6525C85.4548 40.658 85.4629 40.6662 85.4692 40.6765C85.4754 40.6868 85.4798 40.699 85.482 40.7125C85.5058 40.8963 85.4742 41.0984 85.393 41.2811C85.3064 41.1454 85.2669 40.9641 85.2816 40.7697C85.2852 40.7401 85.2976 40.7112 85.3161 40.6893C85.3347 40.6674 85.3579 40.6543 85.3807 40.6528Z" fill="white"/>
<path d="M85.2225 33.7164C85.2446 33.7183 85.2674 33.7165 85.2902 33.7109C85.3571 33.6919 85.4207 33.6407 85.4671 33.5682C85.5135 33.4957 85.539 33.4078 85.5382 33.3235L85.5138 31.6697C85.5127 31.5857 85.485 31.5125 85.4371 31.4659C85.3891 31.4194 85.3246 31.4035 85.2579 31.4216C85.1912 31.4397 85.1277 31.4905 85.0814 31.5626C85.035 31.6348 85.0096 31.7225 85.0108 31.8064L85.0334 33.4596C85.0339 33.5295 85.0527 33.5925 85.0869 33.639C85.1211 33.6854 85.1688 33.7127 85.2225 33.7164Z" fill="#E0E0E0"/>
<path d="M88.0417 33.9015C88.0956 33.9044 88.1524 33.884 88.2033 33.8433C88.2541 33.8026 88.2964 33.7438 88.3236 33.6759L88.9621 32.0641C88.9824 32.0222 88.9963 31.9769 89.0029 31.9311C89.0095 31.8854 89.0087 31.8402 89.0005 31.7986C88.9923 31.757 88.9768 31.7198 88.9552 31.6896C88.9336 31.6594 88.9062 31.6367 88.875 31.6232C88.8437 31.6096 88.8092 31.6054 88.7737 31.6109C88.7383 31.6164 88.7027 31.6313 88.6692 31.6549C88.6357 31.6784 88.6052 31.71 88.5796 31.7475C88.5539 31.785 88.5338 31.8276 88.5204 31.8726L87.8819 33.4844C87.8658 33.5248 87.8555 33.5674 87.8516 33.6098C87.8478 33.6521 87.8504 33.6934 87.8595 33.7313C87.8685 33.7691 87.8837 33.8028 87.9042 33.8303C87.9248 33.8579 87.9502 33.8787 87.9791 33.8917C87.9989 33.8989 88.02 33.9022 88.0417 33.9015Z" fill="#E0E0E0"/>
<path d="M90.1367 35.9273C90.2014 35.9315 90.27 35.9016 90.3273 35.8441L91.456 34.7069C91.4911 34.6825 91.523 34.6494 91.5495 34.6097C91.576 34.5701 91.5964 34.5251 91.6093 34.4777C91.6221 34.4304 91.6271 34.3821 91.6238 34.3361C91.6205 34.2901 91.6091 34.2476 91.5903 34.2117C91.5716 34.1758 91.546 34.1474 91.5153 34.1284C91.4846 34.1094 91.4497 34.1004 91.413 34.102C91.3763 34.1035 91.3386 34.1157 91.3029 34.1375C91.2671 34.1593 91.234 34.1903 91.2059 34.2282L90.0772 35.3653C90.02 35.4235 89.9788 35.5046 89.9629 35.5907C89.9469 35.6768 89.9575 35.761 89.9922 35.8246C90.0248 35.8841 90.0764 35.9207 90.1367 35.9273Z" fill="#E0E0E0"/>
<path d="M90.9358 39.2558C90.9576 39.2571 90.9801 39.2541 91.0025 39.2471L92.3258 38.8935C92.393 38.874 92.4565 38.8218 92.5025 38.7485C92.5485 38.6751 92.5731 38.5866 92.571 38.5024C92.5688 38.4181 92.5401 38.345 92.4911 38.2992C92.4421 38.2534 92.3768 38.2387 92.3097 38.2581L90.9938 38.6143C90.9318 38.6296 90.872 38.6732 90.8256 38.7367C90.7793 38.8002 90.7496 38.8792 90.7424 38.9587C90.7351 39.0382 90.7507 39.1127 90.7862 39.1679C90.8217 39.2232 90.8746 39.2554 90.9349 39.2584L90.9358 39.2558Z" fill="#E0E0E0"/>
<path d="M79.3795 46.7656C79.4118 46.7681 79.4455 46.7621 79.4785 46.7479C79.5115 46.7337 79.5433 46.7117 79.572 46.683L80.7007 45.5458C80.7545 45.4869 80.7925 45.4075 80.8066 45.3241C80.8208 45.2408 80.8101 45.1598 80.7769 45.0979C80.7436 45.036 80.6902 44.998 80.6278 44.9917C80.5653 44.9854 80.4986 45.0113 80.4414 45.064L79.3127 46.2011C79.2558 46.2593 79.2148 46.34 79.1985 46.4257C79.1823 46.5115 79.1921 46.5956 79.2259 46.6598C79.26 46.7231 79.3152 46.7612 79.3795 46.7656Z" fill="#E0E0E0"/>
<path d="M78.3956 42.66C78.4177 42.6619 78.4405 42.6601 78.4633 42.6545L79.7774 42.2977C79.8424 42.2767 79.9035 42.2251 79.9478 42.1537C79.9922 42.0824 80.0164 41.9968 80.0154 41.9148C80.0143 41.8328 79.9882 41.7607 79.9424 41.7137C79.8966 41.6667 79.8346 41.6482 79.7695 41.6623L78.4536 42.0185C78.3929 42.0358 78.3349 42.08 78.2902 42.143C78.2455 42.2059 78.217 42.2834 78.2099 42.3612C78.2029 42.4391 78.2178 42.5121 78.2519 42.567C78.286 42.6218 78.337 42.6548 78.3956 42.66Z" fill="#E0E0E0"/>
<path d="M80.4143 38.5687C80.4733 38.5716 80.5355 38.5464 80.5893 38.4976C80.6432 38.4488 80.6851 38.3797 80.7075 38.3029C80.73 38.2261 80.7313 38.1467 80.7114 38.0793C80.6915 38.0119 80.6516 37.961 80.599 37.9358L79.4486 37.4172C79.4195 37.4013 79.3869 37.3941 79.3529 37.3958C79.3189 37.3976 79.2842 37.4085 79.2509 37.4276C79.2175 37.4468 79.1863 37.4739 79.1591 37.5074C79.1319 37.5408 79.1093 37.5798 79.0927 37.622C79.0761 37.6642 79.0658 37.7087 79.0625 37.7527C79.0591 37.7968 79.0628 37.8395 79.0733 37.8783C79.0838 37.917 79.1009 37.951 79.1236 37.9781C79.1462 38.0052 79.1739 38.0248 79.2049 38.0358L80.3553 38.5544C80.3737 38.5631 80.3936 38.5679 80.4143 38.5687Z" fill="#E0E0E0"/>
<path d="M82.4338 35.4258C82.4991 35.4295 82.568 35.3999 82.6263 35.3432C82.6833 35.285 82.7243 35.2044 82.7405 35.1186C82.7568 35.0328 82.747 34.9487 82.7132 34.8845L82.0349 33.6314C81.9993 33.5678 81.9424 33.5304 81.8767 33.5274C81.8109 33.5244 81.7417 33.556 81.6844 33.6152C81.627 33.6745 81.5861 33.7566 81.5707 33.8435C81.5552 33.9303 81.5666 34.0148 81.6022 34.0784L82.2804 35.3315C82.3161 35.3902 82.371 35.424 82.4338 35.4258Z" fill="#E0E0E0"/>
<path d="M134.851 118.115C135.075 118.206 135.12 118.631 135.135 119.476C135.135 120.116 135.257 121.237 134.507 121.442C133.756 121.647 132.658 121.51 132.192 120.896C131.608 120.139 131.218 119.46 130.384 118.521C129.661 117.71 128.869 116.948 128.6 115.827C128.354 114.812 128.6 114.38 129.286 114.099C130.24 113.72 131.695 115.069 132.434 115.293C133.067 115.486 134.62 118.024 134.851 118.115Z" fill="#263238"/>
<path d="M134.87 117.335L134.847 118.369C134.452 118.609 133.999 118.735 133.536 118.735C133.074 118.735 132.621 118.609 132.226 118.369C132.18 118.271 131.987 116.88 131.987 116.88L134.87 117.335Z" fill="#EEC1BB"/>
<path d="M126.319 123.905C126.319 123.905 126.595 124.814 126.739 125.606C126.853 126.235 127.012 127.288 126.781 127.754C126.55 128.22 125.686 128.512 124.36 128.466C123.5 128.44 122.147 128.993 121.215 129.486C120.283 129.978 118.279 130.16 117.279 130.02C116.1 129.853 114.892 129.141 114.714 128.648C114.536 128.156 114.797 127.652 117.608 126.527C117.635 126.527 121.511 125.352 122.89 123.897L126.319 123.905Z" fill="#263238"/>
<path d="M126.345 122.783C126.345 122.783 126.323 123.541 126.315 123.992C126.308 124.443 125.777 125.075 124.421 124.996C123.477 124.943 122.822 124.674 122.879 123.897L122.905 122.76L126.345 122.783Z" fill="#EEC1BB"/>
<path d="M135.946 103.203C135.847 100.547 135.946 101.308 135.855 97.8985C135.855 97.8985 135.855 93.6401 135.855 89.1843C136.154 84.418 136.09 81.8642 135.15 74.9762C135.15 74.9762 120.529 73.6615 120.131 79.1741C119.734 84.6868 119.525 98.8798 119.654 101.308C119.783 103.737 120.014 105.703 120.427 109.644C120.84 113.584 121.336 122.715 121.336 122.715C121.864 122.996 124.04 123.204 124.638 123.204C125.236 123.204 126.939 123.484 127.466 123.204C127.466 123.204 127.682 111.765 127.633 108.969C127.592 106.894 127.466 105.15 127.466 102.635C127.466 102.635 127.466 98.8457 127.466 94.3445C127.845 90.3966 128.13 88.4984 128.224 86.7669L128.558 86.6116C128.558 86.6116 128.743 93.4314 128.872 95.8714C129.001 98.3114 129.331 100.634 129.929 105.15C130.263 109.833 131.02 117.032 131.02 117.032C132.759 118.021 136.325 117.35 136.325 117.35C136.325 117.35 136.072 106.613 135.946 103.203Z" fill="#599EF0"/>
<path d="M128.558 89.1841C128.558 89.1841 131.968 89.1841 134.431 88.6158C134.431 88.6158 132.536 89.563 129.695 90.1313C129.695 90.1313 129.119 97.8794 129.126 97.7089L128.748 94.299L128.558 89.1841Z" fill="#3076C9"/>
<path d="M125.588 55.3312L126.156 60.3779L130.922 60.1392L130.396 54.2476L125.588 55.3312Z" fill="#EEC1BB"/>
<path d="M132.839 57.1782C134.531 57.1207 135.392 57.3065 136.155 58.3642C136.918 59.4218 137.211 62.5817 137.479 64.2126C137.746 65.8436 137.808 66.9902 136.882 67.1578C135.956 67.3253 132.347 67.3986 132.347 67.3986L132.839 57.1782Z" fill="#599EF0"/>
<path d="M135.594 60.0782C135.34 58.53 133.477 56.8987 131.736 57.2066L130.556 57.4272C130.348 58.3594 128.018 58.942 125.792 58.3677C125.12 58.5633 122.913 59.0169 122.351 59.2209C120.754 59.8035 120.075 61.5306 119.844 67.2528C119.844 67.2528 118.772 86.2251 118.707 88.8053C124.58 89.5631 124.959 89.7525 130.074 88.9948C135.189 88.6159 137.083 88.0476 137.083 88.0476L135.719 74.9762C135.719 74.9762 136.178 63.5906 135.594 60.0782Z" fill="#64ABFF"/>
<path d="M111.22 51.5803L101.767 56.5171L106.465 69.3574L115.286 64.4168L111.22 51.5803Z" fill="#999999"/>
<path d="M110.788 52.8381L102.855 56.9793L107.015 68.0198L114.414 63.8749L110.788 52.8381Z" fill="#F5F5F5"/>
<path opacity="0.15" d="M109.114 54.0317C109.114 54.0317 109.046 53.8536 108.959 53.6528C108.871 53.452 108.201 53.5657 107.485 53.9408L106.091 54.6644C105.359 55.0433 104.836 55.5207 104.924 55.7367L105.075 56.1156L109.114 54.0317Z" fill="black"/>
<path d="M108.959 52.4593C108.909 52.3229 108.621 52.3456 108.318 52.5086L107.773 52.8041C107.773 52.8041 107.435 51.9554 106.178 52.5427C104.92 53.1299 105.208 54.115 105.208 54.115L104.628 54.4333C104.306 54.6113 104.079 54.8652 104.116 55.0016L104.188 55.2517L109.057 52.7132L108.959 52.4593Z" fill="#7B7B7B"/>
<path d="M108.435 53.0276C107.981 53.2512 107.803 53.361 107.932 53.6944C108.06 54.0279 108.22 54.3499 108.22 54.3499L106.067 55.4865C106.067 55.4865 105.889 55.0016 105.81 54.8159C105.73 54.6303 105.571 54.5393 105.23 54.7174L105.101 54.581L108.511 52.8495L108.435 53.0276Z" fill="#455A64"/>
<path d="M109.205 54.0506L109.053 53.6717C108.966 53.452 108.295 53.5808 107.579 53.9597L106.181 54.6795C105.454 55.0584 104.931 55.5358 105.014 55.7556L105.17 56.1344L109.205 54.0506Z" fill="#7B7B7B"/>
<path d="M122.496 59.0974C120.314 59.2868 119.386 59.6846 117.749 62.6361C115.968 65.8452 112.551 71.6458 112.119 72.3809C111.516 73.4001 111.403 74.9497 111.922 75.8855C112.407 76.7607 113.949 77.1585 115.71 75.1846C117.79 72.8355 121.659 67.0993 121.659 67.0993C121.659 67.0993 124.925 62.7649 122.496 59.0974Z" fill="#EEC1BB"/>
<path d="M112.819 76.5561C111.145 76.3553 107.239 71.0548 106.128 69.3233C105.251 67.9171 104.099 66.702 102.741 65.7505C100.972 64.4433 101.226 62.4315 102.002 60.5901C102.268 59.9536 103.177 60.3666 103.177 60.3666L103.495 61.2418L104.048 62.7573C104.427 63.1059 104.639 63.2196 104.662 63.1173C104.711 62.9202 104.389 62.1056 104.397 61.257C104.397 60.2378 105.121 60.9084 105.333 61.257C105.627 61.7992 105.881 62.3628 106.091 62.943C106.447 63.8561 106.303 64.7805 106.735 65.4019C107.167 66.0233 112.997 71.6117 112.997 71.6117L112.819 76.5561Z" fill="#EEC1BB"/>
<path d="M118.768 60.7606C119.999 59.1618 121.587 58.9496 122.909 58.9799C124.621 61.6359 123.034 65.3261 123.034 65.3261C123.034 65.3261 120.439 70.4449 118.139 73.6502L113.782 68.7248C113.782 68.7248 117.536 62.3595 118.768 60.7606Z" fill="#599EF0"/>
<path d="M122.227 49.1517C122.227 49.1517 121.037 50.9552 121.173 51.1333C121.31 51.3114 122.185 51.4705 122.185 51.4705L122.227 49.1517Z" fill="#D9ABA4"/>
<path d="M122.784 50.311C122.502 50.311 122.228 50.2276 121.994 50.0713C121.76 49.915 121.578 49.6929 121.471 49.4331C121.363 49.1732 121.335 48.8873 121.39 48.6116C121.446 48.3359 121.581 48.0828 121.78 47.8842C121.979 47.6857 122.233 47.5507 122.509 47.4963C122.785 47.4419 123.07 47.4705 123.33 47.5787C123.589 47.6868 123.811 47.8695 123.967 48.1036C124.122 48.3378 124.205 48.6128 124.204 48.894C124.203 49.2702 124.053 49.6306 123.787 49.8962C123.521 50.1619 123.16 50.311 122.784 50.311ZM122.784 47.7877C122.565 47.7869 122.35 47.8512 122.168 47.9723C121.985 48.0934 121.843 48.2659 121.759 48.468C121.674 48.6701 121.652 48.8927 121.694 49.1075C121.737 49.3224 121.842 49.5199 121.996 49.675C122.151 49.8301 122.348 49.9358 122.563 49.9788C122.777 50.0218 123 50.0001 123.202 49.9165C123.405 49.8329 123.578 49.6911 123.699 49.509C123.821 49.327 123.886 49.113 123.886 48.894C123.886 48.6013 123.77 48.3204 123.563 48.1131C123.357 47.9057 123.076 47.7887 122.784 47.7877Z" fill="#263238"/>
<path d="M125.527 44.1543C123.118 44.662 122.42 45.7229 122.193 49.5458C121.958 53.5467 122.367 54.8008 122.89 55.3388C123.246 55.7177 125.217 55.7708 126.209 55.4942C127.456 55.1532 130.267 54.1567 131.582 52.1449C133.131 49.7807 133.537 46.5716 131.881 45.2568C129.555 43.4041 126.512 43.9459 125.527 44.1543Z" fill="#EEC1BB"/>
<path d="M125.618 55.6078L125.504 54.8728C124.748 55.2786 123.895 55.4711 123.038 55.4298C123.496 55.6533 124.694 55.7215 125.618 55.6078Z" fill="#D9ABA4"/>
<path d="M121.499 48.5948L125.781 49.1517L125.61 49.4511L121.499 48.9168V48.5948Z" fill="#263238"/>
<path d="M121.791 45.7001C121.974 45.7249 122.159 45.7133 122.337 45.666C122.268 45.8421 122.259 46.0361 122.312 46.2177C122.364 46.3994 122.476 46.5584 122.629 46.67C122.785 46.7761 122.964 46.8443 123.152 46.8692C123.339 46.8942 123.53 46.8753 123.708 46.814C123.574 47.0424 123.532 47.3135 123.591 47.5718C123.661 47.8438 123.824 48.0828 124.052 48.2475C124.279 48.4122 124.557 48.4921 124.837 48.4735C124.864 49.0343 124.872 49.5798 125.466 49.8337C125.466 49.8337 125.845 48.3561 127.096 48.5417C128.346 48.7274 128.516 50.3262 127.728 51.3C126.94 52.2737 126.213 51.9024 126.213 51.8986C126.285 51.9327 126.311 52.4063 126.334 52.4934C126.415 52.7735 126.523 53.045 126.656 53.3042C126.929 53.8247 127.318 54.2757 127.793 54.6227C128.102 54.8882 128.466 55.0822 128.859 55.1909C129.252 55.2996 129.664 55.3204 130.066 55.2517C130.422 55.1686 130.755 55.0067 131.04 54.7779C131.326 54.549 131.556 54.2591 131.714 53.9294C131.77 53.7529 131.86 53.5893 131.979 53.4482C132.163 53.3174 132.372 53.227 132.593 53.183C132.84 53.0999 133.067 52.9641 133.256 52.7851C133.446 52.606 133.595 52.3879 133.692 52.1459C133.789 51.9039 133.833 51.6436 133.82 51.3831C133.807 51.1226 133.737 50.868 133.616 50.6369C133.913 50.5605 134.182 50.4033 134.395 50.1828C134.608 49.9623 134.755 49.6872 134.82 49.388C134.886 49.0888 134.867 48.7773 134.766 48.4881C134.665 48.1988 134.486 47.9433 134.249 47.7499C134.598 47.5249 134.867 47.1965 135.02 46.8106C135.173 46.4247 135.201 46.0006 135.101 45.5978C135 45.2676 134.816 44.9689 134.567 44.7301C134.317 44.4913 134.011 44.3204 133.677 44.2338C133.188 44.0937 133.377 44.0179 133.226 43.5405C133.124 43.2131 132.929 42.9223 132.665 42.7032C132.435 42.5206 132.164 42.3971 131.875 42.3436C131.587 42.2901 131.289 42.3082 131.009 42.3963C130.948 42.0904 130.803 41.8076 130.59 41.5794C130.377 41.3513 130.105 41.1868 129.805 41.1043C129.53 41.0174 129.237 41.0056 128.956 41.0702C128.755 41.1195 128.346 41.3051 128.27 41.4983C128.016 41.2483 127.933 40.9187 127.626 40.6951C127.417 40.5395 127.178 40.4302 126.924 40.3746C126.669 40.3189 126.406 40.3181 126.151 40.3722C125.897 40.4264 125.657 40.5342 125.447 40.6886C125.238 40.8429 125.063 41.0402 124.936 41.2672C124.721 41.0385 124.459 40.8576 124.17 40.7362C123.88 40.6148 123.568 40.5556 123.254 40.5625C122.939 40.574 122.633 40.6661 122.364 40.83C122.096 40.9939 122.466 41.3051 122.312 41.5794C122.166 41.8582 121.516 42.0934 121.553 42.4058C121.59 42.7181 121.721 43.012 121.928 43.2488C121.533 43.3998 121.203 43.6839 120.996 44.052C120.891 44.2512 120.847 44.4771 120.871 44.7011C120.894 44.925 120.984 45.1369 121.128 45.3099C121.245 45.473 121.409 45.5961 121.598 45.6622C121.662 45.679 121.726 45.6917 121.791 45.7001Z" fill="#263238"/>
<path d="M125.444 50.6635L125.485 48.9888C125.263 48.9833 125.048 49.0662 124.887 49.2194C124.726 49.3725 124.633 49.5833 124.627 49.8053C124.622 50.0274 124.705 50.2426 124.858 50.4035C125.011 50.5644 125.222 50.658 125.444 50.6635Z" fill="#263238"/>
<path d="M123.822 40.4982L135.635 46.0996L134.809 49.9701L131.492 49.0952L127.131 47.1129L121.359 43.7983L121.548 42.0137L122.306 40.877L123.822 40.4982Z" fill="#64ABFF"/>
<path d="M135.567 46.1814C135.144 47.2098 132.259 46.1175 128.725 44.6651C125.191 43.2126 121.884 41.9054 122.306 40.877C124.011 39.7404 127.99 40.1192 130.256 40.9409C133.79 42.3933 135.99 45.153 135.567 46.1814Z" fill="#64ABFF"/>
<path d="M18.8971 79.5271C18.8971 79.1687 19.089 78.8376 19.4001 78.6594L33.505 70.5788C34.1725 70.1964 35.0038 70.6795 35.0021 71.4488L35.0009 71.9837C35 72.3404 34.8093 72.6697 34.5003 72.8478L20.3966 80.9782C19.7299 81.3625 18.8972 80.8814 18.8972 80.1119L18.8971 79.5271Z" fill="#EBEBEB"/>
<path d="M18.8888 86.1115C18.8888 86.004 18.9464 85.9047 19.0397 85.8512L29.5543 79.8274C29.7543 79.7129 30.0035 79.8573 30.0035 80.0878L30.0035 80.3428C30.0035 80.4506 29.9457 80.55 29.8521 80.6034L19.3375 86.6028C19.1375 86.717 18.8888 86.5725 18.8888 86.3423L18.8888 86.1115Z" fill="#EBEBEB"/>
<path d="M18.8036 89.5211C18.8036 89.4136 18.8612 89.3143 18.9545 89.2608L29.4691 83.2371C29.6691 83.1225 29.9183 83.2669 29.9183 83.4974L29.9183 83.7524C29.9183 83.8602 29.8605 83.9596 29.7669 84.013L19.2523 90.0124C19.0523 90.1266 18.8036 89.9821 18.8036 89.7519L18.8036 89.5211Z" fill="#EBEBEB"/>
<path d="M18.8971 105.291C18.8971 104.933 19.089 104.602 19.4001 104.423L33.505 96.3427C34.1725 95.9603 35.0038 96.4434 35.0021 97.2127L35.0009 97.7477C35 98.1043 34.8093 98.4336 34.5003 98.6117L20.3966 106.742C19.7299 107.126 18.8972 106.645 18.8972 105.876L18.8971 105.291Z" fill="#EBEBEB"/>
<path d="M18.8888 111.875C18.8888 111.768 18.9464 111.669 19.0397 111.615L29.5543 105.591C29.7543 105.477 30.0035 105.621 30.0035 105.852L30.0035 106.107C30.0035 106.214 29.9457 106.314 29.8521 106.367L19.3375 112.367C19.1375 112.481 18.8888 112.336 18.8888 112.106L18.8888 111.875Z" fill="#EBEBEB"/>
<path d="M18.8036 115.285C18.8036 115.177 18.8612 115.078 18.9545 115.025L29.4691 109.001C29.6691 108.886 29.9183 109.031 29.9183 109.261L29.9183 109.516C29.9183 109.624 29.8605 109.723 29.7669 109.777L19.2523 115.776C19.0523 115.89 18.8036 115.746 18.8036 115.516L18.8036 115.285Z" fill="#EBEBEB"/>
<path d="M49.9655 74.5413C49.9655 74.1828 50.1574 73.8518 50.4684 73.6736L64.5733 65.593C65.2409 65.2105 66.0722 65.6936 66.0704 66.4629L66.0692 66.9979C66.0684 67.3546 65.8777 67.6838 65.5687 67.862L51.4649 75.9924C50.7983 76.3767 49.9655 75.8955 49.9655 75.126L49.9655 74.5413Z" fill="#EBEBEB"/>
<path d="M53.7543 97.653C53.7543 97.2945 53.9462 96.9635 54.2572 96.7853L68.3622 88.7047C69.0297 88.3222 69.861 88.8053 69.8593 89.5746L69.858 90.1096C69.8572 90.4663 69.6665 90.7955 69.3575 90.9737L55.2538 99.1041C54.5871 99.4884 53.7543 99.0072 53.7543 98.2377L53.7543 97.653Z" fill="#EBEBEB"/>
<path d="M78.7602 83.2555C78.7602 82.897 78.9521 82.566 79.2631 82.3878L93.368 74.3072C94.0356 73.9248 94.8669 74.4079 94.8651 75.1772L94.8639 75.7121C94.8631 76.0688 94.6723 76.3981 94.3633 76.5762L80.2596 84.7066C79.593 85.0909 78.7602 84.6098 78.7602 83.8403L78.7602 83.2555Z" fill="#EBEBEB"/>
<path d="M78.7602 58.2495C78.7602 57.891 78.9521 57.56 79.2631 57.3818L93.368 49.3012C94.0356 48.9187 94.8669 49.4018 94.8651 50.1711L94.8639 50.7061C94.8631 51.0628 94.6723 51.392 94.3633 51.5702L80.2596 59.7006C79.593 60.0849 78.7602 59.6037 78.7602 58.8342L78.7602 58.2495Z" fill="#EBEBEB"/>
</svg>
