<svg width="30" height="21" viewBox="0 0 30 21" fill="none" xmlns="http://www.w3.org/2000/svg">
<path d="M29.0005 10.625L29.0883 10.6729L29.1144 10.625L29.0883 10.5771L29.0005 10.625ZM29.0005 10.625C29.0883 10.6729 29.0882 10.673 29.0882 10.6731L29.088 10.6734L29.0872 10.6749L29.0842 10.6803L29.0724 10.7015C29.062 10.72 29.0466 10.7474 29.0261 10.783C28.9851 10.8542 28.924 10.9583 28.8432 11.0907C28.6816 11.3554 28.4412 11.7331 28.1255 12.1861C27.4941 13.0919 26.5607 14.2999 25.3524 15.5082C22.9376 17.9231 19.4135 20.35 15.0005 20.35C10.5874 20.35 7.06339 17.9231 4.64853 15.5082C3.44023 14.2999 2.50683 13.0919 1.87548 12.1861C1.55974 11.7331 1.31938 11.3554 1.15781 11.0907C1.07702 10.9583 1.01591 10.8542 0.974922 10.783C0.954426 10.7474 0.938958 10.72 0.928569 10.7015L0.916804 10.6803L0.913791 10.6749L0.913005 10.6734L0.912792 10.6731C0.912735 10.673 0.912699 10.6729 1.00049 10.625M29.0005 10.625C29.0883 10.5771 29.0882 10.577 29.0882 10.5769L29.088 10.5766L29.0872 10.5751L29.0842 10.5697L29.0724 10.5485C29.062 10.53 29.0466 10.5026 29.0261 10.467C28.9851 10.3958 28.924 10.2917 28.8432 10.1593C28.6816 9.89462 28.4412 9.51693 28.1255 9.06391C27.4941 8.15806 26.5607 6.95008 25.3524 5.74179C22.9376 3.32693 19.4135 0.9 15.0005 0.9C10.5874 0.9 7.06339 3.32693 4.64853 5.74179C3.44023 6.95008 2.50683 8.15806 1.87548 9.06391C1.55974 9.51693 1.31938 9.89462 1.15781 10.1593C1.07702 10.2917 1.01591 10.3958 0.974922 10.467C0.954426 10.5026 0.938958 10.53 0.928569 10.5485L0.916804 10.5697L0.913791 10.5751L0.913005 10.5766L0.912792 10.5769C0.912735 10.577 0.912699 10.5771 1.00049 10.625M1.00049 10.625L0.912699 10.5771L0.88658 10.625L0.912699 10.6729L1.00049 10.625ZM6.0272 14.1295C4.96223 13.0588 4.00591 11.8854 3.17218 10.6263C4.00634 9.36624 4.9633 8.19183 6.02907 7.12034C8.2726 4.87335 11.3285 2.85 15.0005 2.85C18.6724 2.85 21.7266 4.87331 23.9737 7.12036C25.039 8.19139 25.9956 9.36525 26.8295 10.6247C26.7379 10.762 26.6381 10.9109 26.5261 11.0719C25.9423 11.9084 25.0798 13.0235 23.9738 14.1295C21.7267 16.3766 18.6707 18.4 15.0005 18.4C11.3285 18.4 8.27429 16.3766 6.0272 14.1295Z" fill="#7F7F7F" stroke="#7F7F7F" stroke-width="0.2"/>
<path d="M11.9776 7.60212C12.7793 6.8004 13.8667 6.35 15.0005 6.35C16.1343 6.35 17.2217 6.8004 18.0234 7.60212C18.8251 8.40384 19.2755 9.4912 19.2755 10.625C19.2755 11.7588 18.8251 12.8462 18.0234 13.6479C17.2217 14.4496 16.1343 14.9 15.0005 14.9C13.8667 14.9 12.7793 14.4496 11.9776 13.6479C11.1759 12.8462 10.7255 11.7588 10.7255 10.625C10.7255 9.4912 11.1759 8.40384 11.9776 7.60212ZM10.5987 6.22326C9.43133 7.39067 8.77549 8.97403 8.77549 10.625C8.77549 12.276 9.43133 13.8593 10.5987 15.0267C11.7662 16.1942 13.3495 16.85 15.0005 16.85C16.6515 16.85 18.2348 16.1942 19.4022 15.0267C20.5696 13.8593 21.2255 12.276 21.2255 10.625C21.2255 8.97403 20.5696 7.39067 19.4022 6.22326C18.2348 5.05585 16.6515 4.4 15.0005 4.4C13.3495 4.4 11.7662 5.05585 10.5987 6.22326Z" fill="#7F7F7F" stroke="#7F7F7F" stroke-width="0.2"/>
</svg>
