<svg width="30" height="30" viewBox="0 0 30 30" fill="none" xmlns="http://www.w3.org/2000/svg">
<path d="M26.4844 0H3.51562C1.57711 0 0 1.57711 0 3.51562V26.4844C0 28.4229 1.57711 30 3.51562 30H26.4844C28.4229 30 30 28.4229 30 26.4844V3.51562C30 1.57711 28.4229 0 26.4844 0ZM27.6562 26.4844C27.6562 27.1305 27.1305 27.6562 26.4844 27.6562H19.8047V18.1055H23.4252L24.0234 14.4727H19.8047V11.9531C19.8047 10.9585 20.5679 10.1953 21.5625 10.1953H23.9648V6.5625H21.5625C18.5787 6.5625 16.1732 8.97949 16.1732 11.9633V14.4727H12.6562V18.1055H16.1732V27.6562H3.51562C2.86945 27.6562 2.34375 27.1305 2.34375 26.4844V3.51562C2.34375 2.86945 2.86945 2.34375 3.51562 2.34375H26.4844C27.1305 2.34375 27.6562 2.86945 27.6562 3.51562V26.4844Z" fill="#FF9721"/>
</svg>
