<svg width="21" height="21" viewBox="0 0 21 21" fill="none" xmlns="http://www.w3.org/2000/svg">
<g clip-path="url(#clip0)">
<path id="path" d="M20.4333 9.13399C20.4328 9.13351 20.4323 9.13303 20.4319 9.13255L11.8655 0.566528C11.5004 0.201233 11.0149 0 10.4985 0C9.98216 0 9.4967 0.201073 9.13141 0.566368L0.569556 9.12806C0.566672 9.13094 0.563788 9.13399 0.560904 9.13687C-0.188913 9.89101 -0.187631 11.1146 0.564589 11.8668C0.908255 12.2106 1.36215 12.4098 1.84745 12.4306C1.86716 12.4325 1.88702 12.4335 1.90705 12.4335H2.24847V18.7376C2.24847 19.985 3.26345 21 4.51122 21H7.86265C8.20231 21 8.47788 20.7246 8.47788 20.3848V15.4424C8.47788 14.8731 8.94091 14.4101 9.51016 14.4101H11.4869C12.0562 14.4101 12.5192 14.8731 12.5192 15.4424V20.3848C12.5192 20.7246 12.7946 21 13.1344 21H16.4859C17.7336 21 18.7486 19.985 18.7486 18.7376V12.4335H19.0652C19.5814 12.4335 20.0669 12.2324 20.4323 11.8671C21.1854 11.1136 21.1857 9.88797 20.4333 9.13399Z" fill="#FFF"/>
</g>
<defs>
<clipPath id="clip0">
<rect width="21" height="21" fill="white"/>
</clipPath>
</defs>
</svg>
