<svg width="278" height="231" viewBox="0 0 278 231" fill="none" xmlns="http://www.w3.org/2000/svg">
<path d="M268.54 0H8.12661C5.9713 0 3.90426 0.856194 2.38023 2.38023C0.856194 3.90426 0 5.9713 0 8.12661V192.065C0 194.221 0.856194 196.288 2.38023 197.812C3.90426 199.336 5.9713 200.192 8.12661 200.192H108.074C108.074 200.192 114.43 219.851 94.7236 230.021H188.174C188.174 230.021 165.926 222.398 171.642 200.192H268.54C270.695 200.192 272.762 199.336 274.286 197.812C275.81 196.288 276.666 194.221 276.666 192.065V8.12661C276.666 5.9713 275.81 3.90426 274.286 2.38023C272.762 0.856194 270.695 0 268.54 0Z" fill="#263238"/>
<path d="M141.807 180.847C145.361 185.911 139.805 191.455 134.741 187.913C134.572 187.793 134.426 187.645 134.308 187.475C130.754 182.416 136.31 176.878 141.375 180.414C141.544 180.531 141.691 180.677 141.807 180.847Z" fill="#455A64"/>
<path d="M268.314 11.0289H7.81267C6.74296 11.0289 5.87579 11.8961 5.87579 12.9658V165.908C5.87579 166.978 6.74296 167.845 7.81267 167.845H268.314C269.384 167.845 270.251 166.978 270.251 165.908V12.9658C270.251 11.8961 269.384 11.0289 268.314 11.0289Z" fill="#E0E0E0"/>
<path d="M270 29H6V168H270V29Z" fill="white"/>
<path d="M27.5547 20.0825C27.5558 20.5013 27.4327 20.9109 27.2008 21.2596C26.9689 21.6082 26.6387 21.8802 26.252 22.0409C25.8654 22.2017 25.4397 22.2441 25.029 22.1627C24.6183 22.0813 24.2409 21.8798 23.9449 21.5837C23.6488 21.2876 23.4472 20.9103 23.3658 20.4995C23.2844 20.0888 23.3268 19.6631 23.4876 19.2765C23.6484 18.8899 23.9203 18.5597 24.269 18.3278C24.6176 18.0959 25.0273 17.9727 25.446 17.9739C26.0053 17.9739 26.5416 18.196 26.9371 18.5915C27.3325 18.9869 27.5547 19.5233 27.5547 20.0825Z" fill="#455A64"/>
<path d="M14.7606 20.0825C14.7618 20.501 14.6387 20.9104 14.4071 21.2589C14.1755 21.6075 13.8456 21.8794 13.4593 22.0404C13.073 22.2013 12.6477 22.2441 12.2371 22.1631C11.8265 22.0822 11.4492 21.8813 11.1529 21.5858C10.8566 21.2903 10.6546 20.9135 10.5725 20.5032C10.4904 20.0928 10.532 19.6674 10.6918 19.2806C10.8517 18.8939 11.1227 18.5633 11.4706 18.3307C11.8185 18.0981 12.2275 17.9739 12.646 17.9739C12.9234 17.9731 13.1983 18.0271 13.4548 18.1327C13.7113 18.2383 13.9444 18.3935 14.1409 18.5894C14.3373 18.7853 14.4932 19.018 14.5995 19.2742C14.7058 19.5304 14.7606 19.8051 14.7606 20.0825Z" fill="#455A64"/>
<path d="M20.8852 20.0825C20.8864 20.501 20.7634 20.9104 20.5317 21.2589C20.3001 21.6075 19.9702 21.8794 19.584 22.0404C19.1977 22.2013 18.7723 22.2441 18.3618 22.1631C17.9512 22.0822 17.5738 21.8813 17.2775 21.5858C16.9812 21.2903 16.7792 20.9135 16.6971 20.5032C16.6151 20.0928 16.6566 19.6674 16.8165 19.2806C16.9763 18.8939 17.2474 18.5633 17.5952 18.3307C17.9431 18.0981 18.3522 17.9739 18.7706 17.9739C19.048 17.9731 19.3229 18.0271 19.5794 18.1327C19.8359 18.2383 20.0691 18.3935 20.2655 18.5894C20.4619 18.7853 20.6178 19.018 20.7241 19.2742C20.8305 19.5304 20.8852 19.8051 20.8852 20.0825Z" fill="#455A64"/>
<path d="M188.559 9.64294H89.3217V175.439H188.559V9.64294Z" fill="#F5F5F5"/>
<path d="M115.65 107.275L116.71 109.425L119.091 109.774L117.368 111.451L117.777 113.82L115.65 112.7L113.518 113.82L113.926 111.451L112.209 109.774L114.584 109.425L115.65 107.275Z" fill="#3685D6"/>
<path d="M127.461 107.275L128.527 109.425L130.902 109.774L129.185 111.451L129.587 113.82L127.461 112.7L125.335 113.82L125.743 111.451L124.02 109.774L126.401 109.425L127.461 107.275Z" fill="#3685D6"/>
<path d="M139.278 107.275L140.344 109.425L142.719 109.774L141.001 111.451L141.404 113.82L139.278 112.7L137.151 113.82L137.56 111.451L135.836 109.774L138.217 109.425L139.278 107.275Z" fill="#3685D6"/>
<path d="M151.095 107.275L152.161 109.425L154.536 109.774L152.818 111.451L153.221 113.82L151.095 112.7L148.968 113.82L149.377 111.451L147.653 109.774L150.028 109.425L151.095 107.275Z" fill="#3685D6"/>
<path d="M162.911 107.275L163.972 109.425L166.353 109.774L164.629 111.451L165.038 113.82L162.911 112.7L160.785 113.82L161.188 111.451L159.47 109.774L161.845 109.425L162.911 107.275Z" fill="#3685D6"/>
<path d="M134.889 126.709C134.889 126.792 127.354 126.863 118.061 126.863C108.767 126.863 101.233 126.792 101.233 126.709C101.233 126.626 108.767 126.555 118.061 126.555C127.354 126.555 134.889 126.62 134.889 126.709Z" fill="#3685D6"/>
<path d="M177.174 134.012C177.174 134.101 160.37 134.166 139.651 134.166C118.932 134.166 102.122 134.101 102.122 134.012C102.122 133.923 118.92 133.858 139.651 133.858C160.382 133.858 177.174 133.929 177.174 134.012Z" fill="#263238"/>
<path d="M177.174 140.291C177.174 140.374 160.37 140.445 139.651 140.445C118.932 140.445 102.122 140.374 102.122 140.291C102.122 140.208 118.92 140.137 139.651 140.137C160.382 140.137 177.174 140.208 177.174 140.291Z" fill="#263238"/>
<path d="M177.174 146.569C177.174 146.652 160.37 146.723 139.651 146.723C118.932 146.723 102.122 146.652 102.122 146.569C102.122 146.486 118.92 146.415 139.651 146.415C160.382 146.415 177.174 146.48 177.174 146.569Z" fill="#263238"/>
<path d="M177.174 152.848C177.174 152.931 160.37 153.002 139.651 153.002C118.932 153.002 102.122 152.931 102.122 152.848C102.122 152.765 118.92 152.694 139.651 152.694C160.382 152.694 177.174 152.759 177.174 152.848Z" fill="#263238"/>
<path d="M177.174 159.12C177.174 159.209 160.37 159.274 139.651 159.274C118.932 159.274 102.122 159.209 102.122 159.12C102.122 159.032 118.92 158.966 139.651 158.966C160.382 158.966 177.174 159.038 177.174 159.12Z" fill="#263238"/>
<path d="M181.332 18.0598H95.8489V100.126H181.332V18.0598Z" fill="#E0E0E0"/>
<path d="M165.221 80.8776C165.221 80.8776 171.134 74.9644 173.033 70.7566C173.033 70.7566 172.289 68.3958 172.989 67.1819C173.689 65.968 177.606 62.4603 178.656 63.205C179.706 63.9498 181.225 66.884 180.6 68.1128C179.974 69.3416 176.131 71.8365 176.131 71.8365C176.131 71.8365 171.343 81.4435 168.379 83.6033C165.415 85.763 165.221 80.8776 165.221 80.8776Z" fill="#EBB376"/>
<path d="M150.267 63.1008C153.707 63.5477 157.64 80.2297 160.388 81.816C163.136 83.4023 165.371 80.7757 165.371 80.7757L169.559 82.3863C169.559 82.3863 164.405 88.5065 160.539 88.1844C156.816 86.9779 149.626 75.7092 149.626 75.7092L150.267 63.1008Z" fill="#EBB376"/>
<path d="M159.573 77.2324C157.318 74.0113 153.707 63.5477 150.267 63.1008L149.626 75.7092C149.626 75.7092 153.131 84.9632 156.352 87.5402L159.573 77.2324Z" fill="#3685D6"/>
<path d="M148.829 53.9703C148.798 53.9801 148.764 53.9801 148.733 53.9703C145.932 52.2798 143.43 46.0613 143.326 45.7783C143.316 45.7559 143.311 45.7317 143.312 45.7074C143.312 45.683 143.317 45.6589 143.327 45.6366C143.336 45.6143 143.351 45.5942 143.368 45.5776C143.386 45.561 143.407 45.5482 143.43 45.54C143.477 45.5225 143.528 45.5236 143.574 45.543C143.62 45.5624 143.656 45.5986 143.676 45.6442C143.676 45.7038 146.23 52.0117 148.889 53.6352C148.932 53.6615 148.963 53.7033 148.975 53.752C148.988 53.8006 148.981 53.8522 148.956 53.8958C148.925 53.9358 148.879 53.9624 148.829 53.9703Z" fill="#263238"/>
<path d="M126.286 37.6309C126.286 37.6309 127.381 33.9072 134.679 33.2817C141.978 32.6561 145.605 39.8353 143.884 45.1974C143.884 45.1974 145.419 52.466 148.353 54.6034C148.353 54.6034 134.307 60.9485 127.217 60.9858C125.638 60.9858 122.272 53.1586 121.833 47.5135C121.431 42.0621 123.069 37.8022 126.286 37.6309Z" fill="#263238"/>
<path d="M139.044 67.599C133.525 66.8543 131.865 64.5307 131.865 64.5307C135.365 61.2241 132.453 55.4896 132.453 55.4896L139.103 56.7333C138.953 57.6598 138.866 58.5953 138.843 59.5335C138.798 63.57 140.623 63.6072 140.623 63.6072C141.755 65.7967 139.044 67.599 139.044 67.599Z" fill="#EBB376"/>
<path opacity="0.2" d="M139.103 56.7333C138.953 57.6598 138.866 58.5953 138.842 59.5336C134.374 59.5336 132.453 55.4896 132.453 55.4896L139.103 56.7333Z" fill="black"/>
<path d="M134.009 38.1225C139.654 36.8416 142.157 39.4556 143.884 45.1826C146.052 52.332 145.605 57.843 138.195 57.9101C128.133 57.9696 124.626 40.245 134.009 38.1225Z" fill="#EBB376"/>
<path d="M144.756 54.6843C141.857 61.1266 134.126 57.5833 132.515 55.6506C133.482 55.0062 135.737 52.7514 134.448 49.5303L141.213 47.9197L144.756 48.2418C145.078 49.8524 145.4 51.7851 144.756 54.6843Z" fill="white"/>
<path d="M129.616 51.8546L132.843 55.7509L133.157 55.6815L129.931 51.7852L129.616 51.8546Z" fill="white"/>
<path d="M135.829 49.595L130.159 48.2594L129.95 48.5046L135.62 49.8403L135.829 49.595Z" fill="white"/>
<path d="M139.924 45.9872C140.306 46.4768 140.738 46.9142 141.212 47.2904C141.144 47.4645 141.036 47.6149 140.897 47.7258C140.759 47.8366 140.597 47.9036 140.427 47.9199L139.924 45.9872Z" fill="#D58745"/>
<path d="M136.601 46.0092C136.72 46.4709 136.564 46.9103 136.258 46.9848C135.953 47.0592 135.603 46.7539 135.514 46.2922C135.424 45.8305 135.514 45.3911 135.856 45.3166C136.199 45.2421 136.489 45.5475 136.601 46.0092Z" fill="#263238"/>
<path d="M135.715 45.3687L136.616 44.7283C136.616 44.7283 136.333 45.6964 135.715 45.3687Z" fill="#263238"/>
<path d="M142.313 44.475C142.432 44.9368 142.276 45.3687 141.971 45.4506C141.665 45.5326 141.315 45.2123 141.226 44.7506C141.136 44.2888 141.263 43.8569 141.568 43.7824C141.874 43.7079 142.201 44.0133 142.313 44.475Z" fill="#263238"/>
<path d="M141.427 43.8346L142.328 43.1866C142.328 43.1866 142.045 44.1474 141.427 43.8346Z" fill="#263238"/>
<path d="M133.406 43.8048C133.367 43.8143 133.326 43.8143 133.287 43.8048C133.224 43.7729 133.176 43.7175 133.154 43.6505C133.132 43.5836 133.137 43.5106 133.168 43.4473C133.429 43.0118 133.789 42.6435 134.218 42.3719C134.648 42.1003 135.135 41.933 135.64 41.8834C135.711 41.8792 135.781 41.9024 135.835 41.9481C135.889 41.9939 135.923 42.0587 135.931 42.1292C135.935 42.1644 135.932 42.2001 135.922 42.2343C135.912 42.2684 135.896 42.3002 135.874 42.3279C135.852 42.3556 135.824 42.3787 135.793 42.3957C135.762 42.4127 135.728 42.4234 135.692 42.4271C135.279 42.4691 134.881 42.6041 134.528 42.8221C134.174 43.0401 133.875 43.3353 133.652 43.6857C133.625 43.7252 133.588 43.7569 133.545 43.7778C133.502 43.7987 133.454 43.808 133.406 43.8048Z" fill="#263238"/>
<path d="M139.714 41.228C139.669 41.228 139.625 41.2163 139.586 41.1941C139.546 41.1719 139.514 41.14 139.49 41.1014C139.453 41.0416 139.439 40.9696 139.453 40.9003C139.467 40.831 139.507 40.7697 139.565 40.729C139.965 40.5221 140.407 40.4086 140.857 40.397C141.307 40.3854 141.754 40.476 142.164 40.662C142.199 40.6731 142.231 40.6913 142.259 40.7153C142.286 40.7394 142.309 40.7688 142.324 40.8018C142.34 40.8348 142.349 40.8707 142.35 40.9072C142.352 40.9438 142.346 40.9802 142.332 41.0143C142.319 41.0484 142.299 41.0795 142.273 41.1055C142.248 41.1316 142.217 41.1521 142.183 41.1658C142.149 41.1796 142.113 41.1862 142.076 41.1854C142.04 41.1845 142.004 41.1762 141.97 41.161C141.642 41.0031 141.281 40.9212 140.917 40.9212C140.552 40.9212 140.192 41.0031 139.863 41.161C139.821 41.1983 139.769 41.2217 139.714 41.228Z" fill="#263238"/>
<path d="M129.988 49.0328C129.988 49.0328 131.581 43.8197 130.368 40.312C130.368 40.312 140.526 33.1998 143.646 44.4378C143.646 44.4378 142.455 34.1009 132.699 36.0745C122.943 38.048 126.197 52.2426 132.17 55.3333C132.17 55.3184 129.012 52.3394 129.988 49.0328Z" fill="#263238"/>
<path d="M131.187 50.0158C130.983 49.3757 130.534 48.8423 129.938 48.5324C129.342 48.2226 128.647 48.1615 128.007 48.3625C126.301 48.9434 126.279 52.7266 130.822 52.6074C131.477 52.5851 131.693 51.9 131.187 50.0158Z" fill="#EBB376"/>
<path d="M130.367 40.3119C130.367 40.3119 136.221 38.1522 139.513 39.7757C139.513 39.7757 135.968 36.5882 129.95 39.5895L130.367 40.3119Z" fill="#263238"/>
<path d="M127.039 65.6362C127.039 65.6362 133.494 73.1627 139.503 73.0434C145.513 72.9241 147.655 63.8701 147.655 63.8701C147.655 63.8701 134.77 60.8044 127.039 65.6362Z" fill="#EBB376"/>
<path d="M108.591 76.8039C108.591 76.8039 104.123 69.714 103.229 65.186C103.229 65.186 104.458 63.0487 104.071 61.7156C103.684 60.3825 100.623 56.0854 99.4387 56.5769C98.2546 57.0684 96.1097 59.5559 96.4598 60.9262C96.8098 62.2965 100.005 65.5807 100.005 65.5807C100.005 65.5807 102.529 76.007 104.935 78.7774C107.34 81.5478 108.591 76.8039 108.591 76.8039Z" fill="#EBB376"/>
<path d="M153.436 103.465H138.635H126.539C127.039 96.7003 127.039 93.719 127.039 89.4728C126.712 87.3876 127.195 84.7726 126.539 82.1734C126.033 80.1403 125.4 77.8763 124.596 75.2847C124.559 75.1432 124.514 75.0017 124.469 74.8602C124.007 73.3707 120.745 74.5101 120.425 72.7302C119.129 64.8062 126.717 64.992 129.616 64.3478C130.582 64.3478 136.703 71.4344 138.635 72.0786C139.924 71.1122 142.471 64.1163 143.145 63.0593C147.502 63.0221 150.289 63.1008 150.289 63.1008C150.289 63.1008 151.034 63.2721 151.451 67.8969C151.838 72.2312 149.249 86.3926 153.436 103.465Z" fill="#3685D6"/>
<path d="M120.693 68.8502C122.928 68.5374 127.515 72.9462 126.823 76.7593C122.208 81.0979 121.241 88.5065 114.81 90.4624C110.933 91.0835 103.525 76.2662 103.525 76.2662L107.068 74.6555C107.068 74.6555 113.038 83.2682 114.81 82.9406C116.583 82.6129 120.693 68.8502 120.693 68.8502Z" fill="#EBB376"/>
<path d="M126.822 76.7593C127.515 72.9462 122.928 68.5374 120.693 68.8502C120.693 68.8502 118.664 72.7228 116.731 78.5209L122.207 85.6075C127.683 79.4873 126.13 80.5723 126.822 76.7593Z" fill="#3685D6"/>
<path d="M131.679 78.5284L130.783 78.8745C127.514 70.4165 126.351 65.3442 130.216 63.8499L130.163 64.4037C127.489 65.4373 128.191 69.5072 131.679 78.5284Z" fill="#3F3D56"/>
<path d="M145.769 75.3485H146.537C146.537 67.112 146.141 62.7372 142.828 62.7372L142.457 63.1081C144.749 63.1081 145.769 66.5635 145.769 75.3485Z" fill="#3F3D56"/>
<path d="M146.166 78.3159C147.19 78.3159 148.02 77.4856 148.02 76.4613C148.02 75.437 147.19 74.6067 146.166 74.6067C145.142 74.6067 144.311 75.437 144.311 76.4613C144.311 77.4856 145.142 78.3159 146.166 78.3159Z" fill="#3F3D56"/>
<path d="M130.583 85.0043L129.701 85.3454C128.431 82.0615 129.18 78.7013 131.369 77.855L131.723 78.7712C130.02 79.4295 129.509 82.2257 130.583 85.0043Z" fill="#3F3D56"/>
<path d="M137.642 82.2756L136.759 82.6167C135.685 79.838 133.426 78.1129 131.723 78.7712L131.369 77.855C133.558 77.0086 136.372 78.9917 137.642 82.2756Z" fill="#3F3D56"/>
<path d="M137.969 83.8605C138.654 83.5956 138.995 82.8253 138.73 82.1401C138.465 81.4548 137.695 81.1141 137.01 81.379C136.325 81.6439 135.984 82.4141 136.249 83.0994C136.514 83.7846 137.284 84.1254 137.969 83.8605Z" fill="#3F3D56"/>
<path d="M130.525 86.7384C131.21 86.4735 131.551 85.7032 131.286 85.018C131.021 84.3328 130.251 83.992 129.565 84.2569C128.88 84.5218 128.539 85.2921 128.804 85.9773C129.069 86.6625 129.84 87.0033 130.525 86.7384Z" fill="#3F3D56"/>
<path d="M261.578 24.6114C258.13 27.5915 257.031 26.4422 255.225 24.6828L255.668 24.2429C257.591 26.4017 258.553 26.2765 260.834 23.4905L263.438 20.724C264.673 19.5124 264.67 17.5486 263.43 16.3408C262.191 15.1335 260.181 15.1368 258.946 16.3484L257.919 15.3482C259.719 13.5826 262.647 13.5779 264.453 15.3373C266.259 17.0968 266.265 19.9587 264.465 21.7242L261.578 24.6114Z" fill="white"/>
<path fill-rule="evenodd" clip-rule="evenodd" d="M261.525 24.6803C263.327 22.9172 263.168 20.0468 261.409 18.2393L258.64 15.3952C256.898 13.6047 254.071 13.6079 252.332 15.4027C250.593 17.1975 250.595 20.1083 252.338 21.8987L255.11 24.7473C256.133 25.7796 256.742 26.3518 257.169 26.616C257.593 26.879 257.956 26.9658 258.283 26.9718C258.831 26.982 259.384 26.7325 260.129 26.0315C260.69 25.5049 260.932 25.2609 261.525 24.6803ZM260.563 23.639C261.79 22.4386 261.62 20.487 260.423 19.2563L257.655 16.4122C256.457 15.1819 254.515 15.1842 253.32 16.4174C252.125 17.6511 252.126 19.651 253.324 20.8817L256.092 23.7254C258.229 25.8839 258.249 25.853 259.189 24.9702C259.741 24.4514 259.979 24.2109 260.563 23.639Z" fill="white"/>
<path d="M84.6211 45H15V161.32H84.6211V45Z" fill="#F5F5F5"/>
<path d="M33.4685 113.496L34.2148 115.006L35.8852 115.249L34.6768 116.422L34.9611 118.086L33.4685 117.304L31.9758 118.086L32.2661 116.422L31.0577 115.249L32.7222 115.006L33.4685 113.496Z" fill="#3685D6"/>
<path d="M41.761 113.496L42.5073 115.006L44.1777 115.249L42.9693 116.422L43.2537 118.086L41.761 117.304L40.2684 118.086L40.5527 116.422L39.3444 115.249L41.0147 115.006L41.761 113.496Z" fill="#3685D6"/>
<path d="M50.0475 113.496L50.7938 115.006L52.4641 115.249L51.2558 116.422L51.5401 118.086L50.0475 117.304L48.5607 118.086L48.845 116.422L47.6367 115.249L49.3011 115.006L50.0475 113.496Z" fill="#3685D6"/>
<path d="M58.34 113.496L59.0863 115.006L60.7566 115.249L59.5483 116.422L59.8326 118.086L58.34 117.304L56.8474 118.086L57.1317 116.422L55.9233 115.249L57.5937 115.006L58.34 113.496Z" fill="#3685D6"/>
<path d="M66.6264 113.496L67.3727 115.006L69.0431 115.249L67.8348 116.422L68.1191 118.086L66.6264 117.304L65.1338 118.086L65.424 116.422L64.2157 115.249L65.886 115.006L66.6264 113.496Z" fill="#3685D6"/>
<path d="M46.9674 127.155C46.9674 127.238 41.6839 127.309 35.1625 127.309C28.6411 127.309 23.3694 127.214 23.3694 127.155C23.3694 127.095 28.6588 127.001 35.1744 127.001C41.6899 127.001 46.9674 127.042 46.9674 127.155Z" fill="#3685D6"/>
<path d="M76.6367 132.254C76.6367 132.337 64.8495 132.408 50.3081 132.408C35.7667 132.408 23.9796 132.337 23.9796 132.254C23.9796 132.172 35.7667 132.1 50.3081 132.1C64.8495 132.1 76.6367 132.172 76.6367 132.254Z" fill="#263238"/>
<path d="M76.6367 136.661C76.6367 136.744 64.8495 136.815 50.3081 136.815C35.7667 136.815 23.9796 136.744 23.9796 136.661C23.9796 136.578 35.7667 136.501 50.3081 136.501C64.8495 136.501 76.6367 136.572 76.6367 136.661Z" fill="#263238"/>
<path d="M76.6367 141.062C76.6367 141.145 64.8495 141.216 50.3081 141.216C35.7667 141.216 23.9796 141.145 23.9796 141.062C23.9796 140.979 35.7667 140.908 50.3081 140.908C64.8495 140.908 76.6367 140.979 76.6367 141.062Z" fill="#263238"/>
<path d="M76.6367 145.469C76.6367 145.552 64.8495 145.623 50.3081 145.623C35.7667 145.623 23.9796 145.552 23.9796 145.469C23.9796 145.386 35.7667 145.315 50.3081 145.315C64.8495 145.315 76.6367 145.38 76.6367 145.469Z" fill="#263238"/>
<path d="M76.6366 149.87C76.6366 149.959 64.8495 150.024 50.3081 150.024C35.7666 150.024 23.9617 149.959 23.9617 149.87C23.9617 149.781 35.7489 149.716 50.2903 149.716C64.8317 149.716 76.6366 149.787 76.6366 149.87Z" fill="#263238"/>
<path d="M79.4442 50.9054H19.4719V108.479H79.4442V50.9054Z" fill="#E0E0E0"/>
<path d="M32.6159 108.607L32.246 94.3994C32.246 94.3994 33.4106 92.7748 33.2433 91.8703C33.0761 90.9657 30.6585 86.0165 29.9284 85.8777C29.1983 85.7388 25.7682 88.1409 25.8938 89.3047C26.0194 90.4686 28.7111 94.4502 29.1074 94.7218L29.2248 108.607L30.9203 108.607L32.6159 108.607Z" fill="#E4897B"/>
<path d="M40.9059 99.1144L38.4586 108.22C38.138 108.085 37.8173 107.924 37.5135 107.764C35.5932 106.81 34.249 106.04 32.6159 104.651C32.81 104.212 37.3701 92.4816 39.2435 92.6166L40.9059 99.1144Z" fill="white"/>
<path d="M40.9059 99.1145L39.3982 108.607C39.0775 108.472 38.0064 109.898 37.7026 109.738C35.7823 108.784 34.249 109.997 32.6159 108.607C31.4855 102.39 37.3701 92.4817 39.2435 92.6167L40.9059 99.1145Z" fill="#07ACAC"/>
<path d="M66.3735 73.9588C65.6731 76.6423 69.4958 84.0261 67.9431 97.4604C66.3904 110.895 51.665 110.068 45.0407 105.595C38.4163 101.123 39.564 76.8111 41.8424 72.0179C44.1209 67.2248 66.3735 73.9588 66.3735 73.9588Z" fill="#2E2E2E"/>
<path d="M70.2216 95.68C70.0866 96.0597 69.9516 96.4395 69.8419 96.8192C69.7322 97.1989 69.5718 97.5871 69.4452 97.9584C69.2005 98.6926 68.9643 99.4183 68.728 100.119C68.2554 101.52 67.8335 102.853 67.4284 104.11C66.0423 105.311 64.5316 106.361 62.9222 107.241C59.1994 109.295 55.048 110.451 50.7991 110.617C46.5503 110.783 42.3215 109.953 38.4501 108.195C38.1295 108.059 37.8088 107.899 37.505 107.739C37.505 107.469 37.505 107.199 37.505 106.946C37.505 106.692 37.505 106.414 37.505 106.161C37.505 105.384 37.5472 104.667 37.5641 103.984C37.5641 103.536 37.6062 103.089 37.6147 102.684C37.6147 102.465 37.6147 102.271 37.6147 102.06C37.6147 101.309 37.6907 100.633 37.7413 99.9921C37.7413 99.7896 37.7413 99.5786 37.7835 99.3846C37.7835 98.7854 37.8763 98.2538 37.91 97.7559C38.2223 94.6336 38.6358 93.4015 38.9058 92.9037C38.9444 92.8275 38.9926 92.7566 39.0493 92.6927C39.1252 92.5999 39.1674 92.5914 39.1674 92.5914L40.2729 92.4986C42.0956 92.3383 45.8761 92.0767 49.2938 92.0936H49.4879C49.9435 92.0936 50.3908 92.0935 50.8465 92.161C52.6102 92.2539 54.3738 92.4058 56.1122 92.6167L58.0531 92.8868C58.7535 92.988 59.4539 93.1062 60.1543 93.2243L60.4497 93.2834C63.0323 93.7184 65.5878 94.3016 68.1035 95.0302C68.863 95.2496 69.5634 95.4606 70.2216 95.68Z" fill="#07ACAC"/>
<path d="M50.9782 101.279C57.1831 99.8191 61.563 93.6142 61.563 93.6142C55.7231 92.8842 58.4666 84.389 58.4666 84.389L51.2853 85.7223C51.4507 86.7242 51.5438 87.7366 51.5638 88.7518C52.4382 92.5192 47.3283 92.1542 47.3283 92.1542C46.0709 94.517 50.9782 101.279 50.9782 101.279Z" fill="#E4897B"/>
<path opacity="0.2" d="M51.2854 85.7223C51.4508 86.7242 51.5439 87.7366 51.5639 88.7518C56.4161 88.7518 58.4667 84.389 58.4667 84.389L51.2854 85.7223Z" fill="black"/>
<path d="M55.2515 65.6468C49.0153 65.3092 46.8128 68.5412 46.0112 74.9293C44.9985 82.9375 46.4669 88.7433 54.3654 87.4522C65.091 85.7223 65.6226 66.2206 55.2515 65.6468Z" fill="#E4897B"/>
<path d="M50.0618 74.8196C49.5129 75.7388 48.8556 76.5887 48.104 77.3512C48.2707 77.6217 48.5105 77.8397 48.7956 77.98C49.0808 78.1203 49.3997 78.1773 49.7158 78.1444L50.0618 74.8196Z" fill="#DE5753"/>
<path d="M53.9098 74.5159C53.9098 75.0307 54.1207 75.4695 54.4583 75.4948C54.7958 75.5201 55.108 75.1235 55.1502 74.6509C55.1924 74.1784 54.9477 73.6974 54.6017 73.6721C54.2557 73.6467 53.952 74.0012 53.9098 74.5159Z" fill="#263238"/>
<path d="M54.7452 73.6719L53.665 73.1487C53.665 73.1487 54.1882 74.1276 54.7452 73.6719Z" fill="#263238"/>
<path d="M47.5555 73.9082C47.5133 74.423 47.758 74.8618 48.104 74.8871C48.45 74.9124 48.7537 74.5242 48.7959 74.0433C48.8381 73.5623 48.5849 73.0981 48.2474 73.0644C47.9099 73.0306 47.5977 73.4019 47.5555 73.9082Z" fill="#263238"/>
<path d="M48.391 73.0727L47.3108 72.5496C47.3108 72.5496 47.7918 73.5284 48.391 73.0727Z" fill="#263238"/>
<path d="M56.8717 71.5959C56.8247 71.5972 56.7782 71.5862 56.7367 71.564C56.6953 71.5418 56.6603 71.5092 56.6354 71.4693C56.3324 71.1382 55.9592 70.8791 55.543 70.7112C55.1268 70.5433 54.6783 70.4707 54.2303 70.4989C54.1927 70.5011 54.1549 70.496 54.1192 70.4836C54.0835 70.4713 54.0506 70.452 54.0224 70.4269C53.9942 70.4018 53.9712 70.3714 53.9547 70.3374C53.9383 70.3034 53.9287 70.2665 53.9266 70.2288C53.9218 70.1913 53.925 70.1533 53.9359 70.1171C53.9468 70.0809 53.9652 70.0474 53.9898 70.0188C54.0145 69.9902 54.0449 69.967 54.079 69.9509C54.1132 69.9347 54.1504 69.9259 54.1882 69.925C54.7341 69.8833 55.2822 69.9709 55.788 70.1805C56.2939 70.3902 56.7432 70.7161 57.0995 71.1318C57.1439 71.1938 57.1625 71.2707 57.1515 71.3462C57.1405 71.4217 57.1007 71.49 57.0405 71.5368C56.9912 71.5726 56.9325 71.5931 56.8717 71.5959Z" fill="#263238"/>
<path d="M47.1758 70.3639C47.1103 70.368 47.0454 70.3495 46.9919 70.3115C46.9383 70.2736 46.8994 70.2184 46.8817 70.1552C46.8639 70.092 46.8684 70.0247 46.8942 69.9644C46.9201 69.9041 46.9659 69.8545 47.0239 69.8238C47.4271 69.5495 47.888 69.3718 48.3709 69.3044C48.8539 69.2371 49.3459 69.282 49.8087 69.4356C49.8438 69.4502 49.8756 69.4718 49.902 69.4991C49.9285 69.5265 49.9491 69.5589 49.9625 69.5945C49.976 69.6301 49.982 69.668 49.9802 69.706C49.9784 69.744 49.9688 69.7812 49.9521 69.8154C49.9223 69.8842 49.8668 69.9386 49.7974 69.967C49.728 69.9954 49.6503 69.9955 49.5808 69.9673C49.2014 69.8529 48.8011 69.8254 48.4096 69.8868C48.0182 69.9481 47.6455 70.0968 47.3193 70.3217C47.2779 70.3521 47.2271 70.3671 47.1758 70.3639Z" fill="#263238"/>
<path d="M61.4961 76.541C61.4961 76.541 58.8632 71.2584 59.5215 67.3176C59.5215 67.3176 47.4289 61.5877 46.1293 74.0685C46.1293 74.0685 45.5302 62.8535 56.2557 63.1911C66.9812 63.5286 66.0951 79.2245 60.2978 83.6041C60.3147 83.6463 63.1332 79.8489 61.4961 76.541Z" fill="#263238"/>
<path d="M60.4075 77.8068C60.5081 77.0871 60.8894 76.4365 61.468 75.997C62.0467 75.5574 62.7758 75.3647 63.4961 75.4608C65.4117 75.7815 66.1205 79.7983 61.2598 80.524C60.5594 80.5915 60.205 79.8996 60.4075 77.8068Z" fill="#E4897B"/>
<path d="M57.859 66.7185C57.4277 71.882 58.7056 77.0442 61.4961 81.4102C65.0066 86.7181 60.9729 91.3593 60.9729 91.3593C60.9729 91.3593 67.209 87.3932 67.4284 81.4102C67.4284 81.4102 72.576 67.1067 61.8843 63.2502C61.8843 63.2502 61.8421 60.0351 54.8718 60.6427C47.9014 61.2503 42.2898 67.2333 41.2265 74.8449C40.1632 82.4566 44.1294 90.9458 44.1294 90.9458C44.1294 90.9458 39.9101 63.9422 57.859 66.7185Z" fill="#2E2E2E"/>
<path d="M58.2642 66.8281C57.8005 68.6316 57.6239 70.4969 57.741 72.3554C57.8452 74.2435 58.1449 76.1156 58.6355 77.9418C59.1171 79.7781 59.8199 81.5491 60.7283 83.216C61.6189 84.9013 62.815 86.4064 64.2556 87.6547C62.7586 86.4528 61.4993 84.9817 60.5426 83.3172C59.5622 81.6647 58.7858 79.8994 58.2304 78.0599C57.6665 76.2151 57.2905 74.3181 57.1081 72.3976C56.9167 70.4478 57.0334 68.48 57.4541 66.5665L58.2642 66.8281Z" fill="#2E2E2E"/>
<path d="M71.614 99.7304C70.4032 101.355 69.007 102.834 67.4537 104.135C66.0676 105.337 64.5569 106.386 62.9475 107.266C63.0403 106.912 63.1585 106.549 63.2851 106.186C64.3597 103.39 65.8785 100.785 67.7828 98.4731C68.5454 97.4998 69.3684 96.5753 70.2469 95.7052C70.9136 96.2537 71.3355 97.6883 71.614 99.7304Z" fill="white"/>
<path d="M73.3095 109.173C72.0987 110.798 68.6457 107.871 67.0925 109.173C65.7063 110.374 60.7892 108.293 59.1798 109.173C59.2726 108.818 63.1585 106.549 63.2851 106.186C64.3597 103.39 65.8785 100.785 67.7828 98.4731C68.5454 97.4998 69.3684 96.5753 70.2469 95.7052C71.614 96.7384 73.0311 107.13 73.3095 109.173Z" fill="#07ACAC"/>
<path d="M59.3731 84.4894C56.0881 89.2344 50.1672 89.2344 47.3284 85.5844C44.7734 82.2995 45.8684 77.9196 45.8684 76.8246L58.6431 78.6496C57.5159 80.7081 58.5158 81.9002 59.3731 84.4894Z" fill="#07ACAC"/>
<path d="M60.8282 80.4211L59.0081 84.996L59.2183 85.1262L61.0385 80.5514L60.8282 80.4211Z" fill="#07ACAC"/>
<path d="M56.2761 79.9545L56.2007 79.6468L56.6546 79.4952L59.5363 78.2818L59.6346 78.5807L56.7416 79.7983L56.2761 79.9545Z" fill="#07ACAC"/>
<rect x="28" y="108.5" width="48" height="4" fill="#F5F5F5"/>
<rect x="125.811" y="100.162" width="29.3899" height="4.52152" fill="#F5F5F5"/>
<path d="M262.03 44.2744H192.409V160.594H262.03V44.2744Z" fill="#F5F5F5"/>
<path d="M210.877 112.77L211.624 114.281L213.294 114.529L212.086 115.702L212.37 117.367L210.877 116.579L209.385 117.367L209.675 115.702L208.467 114.529L210.131 114.281L210.877 112.77Z" fill="#3685D6"/>
<path d="M219.17 112.77L219.916 114.281L221.586 114.529L220.378 115.702L220.662 117.367L219.17 116.579L217.677 117.367L217.961 115.702L216.753 114.529L218.423 114.281L219.17 112.77Z" fill="#3685D6"/>
<path d="M227.456 112.77L228.203 114.281L229.873 114.529L228.665 115.702L228.949 117.367L227.456 116.579L225.97 117.367L226.254 115.702L225.046 114.529L226.71 114.281L227.456 112.77Z" fill="#3685D6"/>
<path d="M235.749 112.77L236.495 114.281L238.165 114.529L236.957 115.702L237.241 117.367L235.749 116.579L234.256 117.367L234.54 115.702L233.332 114.529L235.002 114.281L235.749 112.77Z" fill="#3685D6"/>
<path d="M244.035 112.77L244.782 114.281L246.452 114.529L245.244 115.702L245.528 117.367L244.035 116.579L242.549 117.367L242.833 115.702L241.625 114.529L243.295 114.281L244.035 112.77Z" fill="#3685D6"/>
<path d="M224.376 126.405C224.376 126.494 219.093 126.559 212.571 126.559C206.05 126.559 200.766 126.494 200.766 126.405C200.766 126.316 206.05 126.251 212.571 126.251C219.093 126.251 224.376 126.322 224.376 126.405Z" fill="#3685D6"/>
<path d="M254.045 131.564C254.045 131.647 242.258 131.718 227.717 131.718C213.175 131.718 201.388 131.647 201.388 131.564C201.388 131.481 213.175 131.41 227.717 131.41C242.258 131.41 254.045 131.446 254.045 131.564Z" fill="#263238"/>
<path d="M254.045 135.936C254.045 136.019 242.258 136.09 227.717 136.09C213.175 136.09 201.388 136.019 201.388 135.936C201.388 135.853 213.175 135.782 227.717 135.782C242.258 135.782 254.045 135.853 254.045 135.936Z" fill="#263238"/>
<path d="M254.045 140.343C254.045 140.426 242.258 140.497 227.717 140.497C213.175 140.497 201.388 140.426 201.388 140.343C201.388 140.26 213.175 140.189 227.717 140.189C242.258 140.189 254.045 140.254 254.045 140.343Z" fill="#263238"/>
<path d="M254.045 144.743C254.045 144.832 242.258 144.897 227.717 144.897C213.175 144.897 201.388 144.832 201.388 144.743C201.388 144.655 213.175 144.589 227.717 144.589C242.258 144.589 254.045 144.661 254.045 144.743Z" fill="#263238"/>
<path d="M254.045 149.15C254.045 149.233 242.258 149.304 227.717 149.304C213.175 149.304 201.388 149.233 201.388 149.15C201.388 149.067 213.175 148.996 227.717 148.996C242.258 148.996 254.045 149.061 254.045 149.15Z" fill="#263238"/>
<path d="M256.96 50.1798H196.987V107.753H256.96V50.1798Z" fill="#E0E0E0"/>
<path d="M245.066 95.415C245.632 96.5454 250.029 108.471 249.588 109.197C249.237 109.76 243.771 108.465 243.371 108.98C241.713 111.276 239.418 106.712 237.154 108.414C236.64 108.814 235.44 108.612 234.893 108.98C232.688 110.413 231.151 108.416 228.639 109.197C222.014 111.226 214.876 110.771 208.562 107.916C208.105 107.703 203.691 109.773 203.242 109.545C203.823 104.986 207.199 96.5454 209.949 93.7552C212.891 92.915 215.892 92.2603 218.927 91.8781H219.074C223.442 91.5283 227.827 91.4357 232.206 91.6006C235.258 91.6781 238.3 91.9836 241.306 92.5147C242.819 93.1462 244.501 94.2846 245.066 95.415Z" fill="white"/>
<path d="M232.255 91.6985C231.015 93.0336 229.523 94.1088 227.864 94.8612C226.205 95.6137 224.412 96.0284 222.591 96.0812C217.099 96.3261 218.935 92.0005 218.935 92.0005C220.951 91.4699 222.069 90.5314 222.632 89.3806C223.342 87.8952 223.138 86.067 222.681 84.2714L222.583 83.896L230.614 76.7465C229.872 80.9905 229.202 88.8582 232.255 91.6985Z" fill="#9F5B53"/>
<path opacity="0.2" d="M229.292 82.9982C228.868 85.7568 225.513 88.4665 222.632 89.3234C223.342 87.838 223.138 86.0098 222.681 84.2143L229.333 79.1215C229.564 80.4047 229.55 81.7201 229.292 82.9982Z" fill="black"/>
<path d="M224.093 67.4096C225.995 69.5561 224.273 71.9393 217.997 74.755C216.585 71.4904 217.597 66.0466 219.629 65.1407C221.661 64.2347 222.428 65.5814 224.093 67.4096Z" fill="#263238"/>
<path d="M232.908 74.2245C231.218 79.7989 230.508 83.1369 226.974 85.3651C221.653 88.7031 215.287 84.4673 215.279 78.5012C215.279 73.1472 218.029 64.9366 224.093 64.0062C226.171 63.677 228.295 64.1856 229.998 65.4205C231.701 66.6553 232.844 68.5155 233.177 70.5926C233.366 71.8079 233.274 73.0504 232.908 74.2245Z" fill="#9F5B53"/>
<path d="M224.101 73.7429C223.995 74.1999 223.661 74.5182 223.359 74.4448C223.057 74.3713 222.91 73.9469 223.016 73.4899C223.122 73.0328 223.448 72.6737 223.75 72.7798C224.052 72.8859 224.175 73.3185 224.101 73.7429Z" fill="#263238"/>
<path d="M218.87 72.5431C218.764 73.0002 218.429 73.3593 218.127 73.2451C217.825 73.1308 217.67 72.7472 217.776 72.282C217.883 71.8168 218.225 71.5066 218.519 71.5801C218.813 71.6535 218.984 72.1106 218.87 72.5431Z" fill="#263238"/>
<path d="M220.759 73.3137C220.164 74.145 219.451 74.8918 218.641 75.5324C218.819 75.7265 219.038 75.8812 219.283 75.9857C219.529 76.0901 219.796 76.142 220.064 76.1375L220.759 73.3137Z" fill="#892B29"/>
<path d="M225.922 72.4698C225.98 72.4862 226.042 72.4862 226.101 72.4698C226.168 72.4394 226.221 72.3842 226.248 72.3157C226.276 72.2473 226.276 72.1709 226.248 72.1025C226.08 71.6954 225.816 71.3347 225.48 71.0506C225.143 70.7666 224.743 70.5675 224.314 70.4702C224.245 70.4556 224.172 70.4688 224.113 70.507C224.053 70.5451 224.011 70.6052 223.995 70.6742C223.986 70.7464 224.004 70.8196 224.047 70.8787C224.089 70.9379 224.152 70.9786 224.224 70.9925C224.562 71.0735 224.875 71.2344 225.138 71.4616C225.401 71.6889 225.605 71.9758 225.734 72.2984C225.751 72.3386 225.777 72.3747 225.809 72.4042C225.842 72.4338 225.88 72.4561 225.922 72.4698Z" fill="#263238"/>
<path d="M216.911 70.2173C216.963 70.2284 217.017 70.2251 217.067 70.2078C217.118 70.1906 217.162 70.16 217.197 70.1194C217.409 69.8451 217.683 69.6246 217.996 69.4757C218.31 69.3269 218.654 69.2538 219 69.2624C219.075 69.2693 219.149 69.2466 219.207 69.1993C219.265 69.152 219.302 69.0838 219.311 69.0094C219.317 68.937 219.296 68.8648 219.25 68.8083C219.204 68.7519 219.138 68.7156 219.066 68.7074C218.624 68.6884 218.185 68.7756 217.785 68.9616C217.384 69.1477 217.034 69.4272 216.764 69.7766C216.739 69.8016 216.718 69.8315 216.705 69.8644C216.691 69.8973 216.684 69.9327 216.684 69.9684C216.684 70.0041 216.691 70.0394 216.705 70.0723C216.718 70.1053 216.739 70.1351 216.764 70.1602C216.806 70.1934 216.857 70.2133 216.911 70.2173Z" fill="#263238"/>
<path d="M231.83 68.691C228.974 68.9685 228.623 71.8904 231.316 78.2156C234.581 76.7628 237.535 72.0944 236.662 70.054C235.789 68.0136 234.336 68.4462 231.83 68.691Z" fill="#263238"/>
<path d="M234.524 79.3827C234.17 80.016 233.695 80.5729 233.124 81.0212C232.554 81.4696 231.901 81.8003 231.202 81.9943C229.333 82.5004 228.411 80.8273 228.941 79.0725C229.423 77.4892 230.973 75.3182 232.842 75.5875C233.253 75.6464 233.642 75.8086 233.973 76.0591C234.304 76.3096 234.566 76.6401 234.734 77.0195C234.902 77.399 234.971 77.8149 234.934 78.2283C234.897 78.6416 234.756 79.0389 234.524 79.3827Z" fill="#9F5B53"/>
<path d="M226.354 66.3323C226.354 66.3323 225.758 72.1923 231.096 73.9307C236.434 75.6691 238.441 72.6167 238.441 72.6167C237.983 72.5697 237.527 72.4934 237.078 72.3882C237.737 71.6755 238.208 70.8095 238.448 69.8688C238.687 68.9282 238.688 67.9425 238.449 67.0015C237.544 63.9491 232.826 59.8112 228.452 60.2029C227.304 59.4792 226.02 58.9992 224.679 58.7928C223.338 58.5864 221.969 58.658 220.657 59.0032C216.34 60.2274 215.76 65.1652 215.76 65.1652C215.76 65.1652 216.323 62.227 218.29 61.9005C218.29 61.9005 214.593 67.3035 217.474 69.7193C217.499 69.6622 219.319 63.9491 226.354 66.3323Z" fill="#263238"/>
<path d="M215.464 110.027C223.23 111.086 225.348 110.38 230.29 108.615C230.29 104.379 233.467 94.1412 233.467 91.6702C229.584 92.7292 228.378 95.3778 225.701 94.8473C224.484 94.6922 218.994 92.7292 217.582 92.0232C216.523 95.9063 216.876 101.201 215.464 110.027Z" fill="#92E7F2"/>
<path d="M228.879 83.9041C226.76 85.6691 226.054 87.7872 218.641 86.0221C214.405 82.139 214.758 77.9029 215.464 75.0788L220.053 74.7258L228.879 77.5499C227.7 79.4066 227.982 81.5688 228.879 83.9041Z" fill="white"/>
<path d="M229.874 81.7861L226.407 85.4685L226.576 85.6373L230.043 81.9549L229.874 81.7861Z" fill="white"/>
<path d="M228.681 77.5845L228.59 77.3618L228.922 77.2142L231.003 76.0907L231.11 76.3051L229.021 77.4327L228.681 77.5845Z" fill="white"/>
<path d="M220.759 90.9646L225.507 94.1415L224.289 95.9066L217.582 92.0235L220.759 90.9646Z" fill="#92E7F2"/>
<path d="M217.496 92.1798L225.73 96.5861L225.538 96.9365L217.551 92.432L217.496 92.1798Z" fill="#7EC5CE"/>
<path d="M233.573 91.4884L225.631 96.4818L225.91 96.9318L233.492 92.0637L233.573 91.4884Z" fill="#7EC5CE"/>
<path d="M231.349 90.2584L225.701 94.1415L226.407 96.2596L233.82 91.6705L231.349 90.2584Z" fill="#92E7F2"/>
<path d="M225.294 94.2472C225.435 94.0753 225.709 94.1125 225.799 94.3161L226.803 96.5711C226.878 96.7406 226.783 96.9373 226.604 96.9836L225.189 97.3483C225.11 97.3686 225.027 97.3562 224.958 97.3141L223.793 96.6051C223.637 96.5101 223.602 96.2989 223.718 96.158L225.294 94.2472Z" fill="#5592DB"/>
<path d="M224.119 96.2426L226.343 96.6063L226.407 109.674L223.583 110.355L220.854 110.355L224.119 96.2426Z" fill="#5592DB"/>
<path d="M215.275 110.08L212.998 94.3343L217.587 91.8475L215.275 110.08Z" fill="#E7E7E7"/>
<path d="M215.275 110.08L212.998 94.3343L217.587 91.8475L215.275 110.08Z" fill="#E7E7E7"/>
<path d="M215.417 110.084L213.346 94.4945L217.582 92.0233L215.417 110.084Z" fill="white"/>
<path d="M215.417 110.084L213.346 94.4945L217.582 92.0233L215.417 110.084Z" fill="white"/>
<path d="M230.643 108.615L237.105 94.6952L233.467 91.3174L230.643 108.615Z" fill="#E7E7E7"/>
<path d="M230.643 108.615L237.105 94.6952L233.467 91.3174L230.643 108.615Z" fill="#E7E7E7"/>
<path d="M230.29 108.615L236.725 94.7455L233.468 91.6704L230.29 108.615Z" fill="white"/>
<path d="M230.29 108.615L236.725 94.7455L233.468 91.6704L230.29 108.615Z" fill="white"/>
<rect x="202.677" y="107.793" width="48.6063" height="3.39114" fill="#F5F5F5"/>
<path d="M275.294 98.4438C276.402 93.7813 273.521 89.1031 268.858 87.9949C264.195 86.8867 259.517 89.7681 258.409 94.4307C257.301 99.0932 260.182 103.771 264.845 104.879C269.507 105.988 274.185 103.106 275.294 98.4438Z" fill="#E0E0E0"/>
<path d="M265.513 100.126C265.879 99.7096 266.286 99.3307 266.727 98.9942C267.509 98.3308 268.599 97.4246 269.819 96.4354V96.6723L269.76 96.619C268.575 95.5765 267.485 94.6229 266.715 93.918C266.284 93.5608 265.888 93.1642 265.53 92.7334C266.005 93.0335 266.453 93.3744 266.869 93.7522C267.675 94.4156 268.77 95.3455 269.973 96.388L270.032 96.4354L270.174 96.5598L270.026 96.6723C268.812 97.6615 267.698 98.544 266.887 99.166C266.457 99.5242 265.997 99.8452 265.513 100.126Z" fill="#263238"/>
<path d="M19.845 98.7672C20.9473 94.1186 18.0724 89.4566 13.4237 88.3543C8.77507 87.252 4.11303 90.127 3.01077 94.7756C1.90851 99.4243 4.78344 104.086 9.4321 105.189C14.0808 106.291 18.7428 103.416 19.845 98.7672Z" fill="#E0E0E0"/>
<path d="M13.185 92.7334C12.8118 93.1433 12.4035 93.5199 11.9648 93.8588C11.1829 94.5281 10.099 95.4344 8.87882 96.4235V96.1866L8.94398 96.2399C10.1286 97.2824 11.2185 98.236 11.9826 98.9409C12.4139 99.2976 12.8105 99.6942 13.1672 100.126C12.6889 99.8254 12.2388 99.4825 11.8226 99.1008C11.0171 98.4433 9.92131 97.5134 8.72482 96.4709L8.65967 96.4176L8.52344 96.2992L8.66559 96.1807C9.88576 95.1974 10.9993 94.3149 11.8108 93.693C12.2363 93.3288 12.6966 93.0074 13.185 92.7334Z" fill="#263238"/>
<path d="M106.505 11.5028C94.8765 17.681 85.3412 27.1682 79.1044 38.7652C72.8676 50.3621 70.2095 63.5479 71.466 76.6555C72.7226 89.763 77.8374 102.204 86.1638 112.405C94.4902 122.605 105.654 130.108 118.245 133.965C128.482 137.096 139.323 137.711 149.848 135.756C160.373 133.802 170.272 129.337 178.703 122.74L234.813 192.93L243.396 186.089L186.811 115.307C193.519 108.014 198.506 99.311 201.406 89.837C202.112 87.5361 202.693 85.199 203.148 82.8358C205.511 70.5004 204.337 57.7482 199.762 46.0514C195.188 34.3546 187.398 24.1901 177.293 16.7314C167.188 9.27273 155.179 4.824 142.654 3.89883C130.128 2.97366 117.596 5.60977 106.505 11.5028ZM154.015 17.1476C166.315 20.9125 176.93 28.826 184.05 39.5397C191.169 50.2534 194.354 63.1045 193.061 75.9031C191.768 88.7017 186.077 100.656 176.958 109.729C167.839 118.802 155.856 124.432 143.051 125.661C130.246 126.889 117.411 123.64 106.734 116.466C96.0563 109.292 88.1966 98.6373 84.4939 86.318C80.7912 73.9986 81.4747 60.7765 86.4279 48.9046C91.3812 37.0327 100.298 27.2456 111.658 21.2109C118.099 17.7667 125.159 15.6342 132.429 14.9367C139.7 14.2393 147.037 14.9907 154.015 17.1476Z" fill="#455A64"/>
</svg>
