<svg width="23" height="20" viewBox="0 0 23 20" fill="none" xmlns="http://www.w3.org/2000/svg">
<ellipse cx="11" cy="10" rx="11" ry="10" fill="#FF9721"/>
<path d="M8.32495 6.30512C8.32495 6.68142 8.21704 6.97195 8.00122 7.1767C7.79093 7.38145 7.52531 7.48383 7.20435 7.48383C6.88892 7.48383 6.62606 7.38145 6.41577 7.1767C6.21102 6.97195 6.10864 6.68142 6.10864 6.30512C6.10864 5.94542 6.21102 5.66042 6.41577 5.45014C6.62052 5.23985 6.88338 5.13471 7.20435 5.13471C7.52531 5.13471 7.79093 5.23708 8.00122 5.44184C8.21704 5.64659 8.32495 5.93435 8.32495 6.30512ZM15.3723 6.30512C15.3723 6.68142 15.2644 6.97195 15.0486 7.1767C14.8383 7.38145 14.5727 7.48383 14.2517 7.48383C13.9363 7.48383 13.6734 7.38145 13.4631 7.1767C13.2584 6.97195 13.156 6.68142 13.156 6.30512C13.156 5.94542 13.2584 5.66042 13.4631 5.45014C13.6679 5.23985 13.9307 5.13471 14.2517 5.13471C14.5727 5.13471 14.8383 5.23708 15.0486 5.44184C15.2644 5.64659 15.3723 5.93435 15.3723 6.30512ZM10.9812 15.8736C9.75269 15.8736 8.56567 15.7048 7.42017 15.3672C6.28019 15.0297 5.24259 14.5178 4.30737 13.8316C3.36662 13.1454 2.71639 12.4288 2.35669 11.6817L3.47729 11.2833C4.11922 12.1133 5.09871 12.7691 6.41577 13.2505C7.73836 13.7375 9.24634 13.981 10.9397 13.981H11.1306C12.669 13.981 14.0691 13.7707 15.3308 13.3502C16.5981 12.9296 17.6135 12.3264 18.3772 11.5406L18.6096 11.2833L19.7385 11.6817C19.3954 12.39 18.7867 13.0762 17.9124 13.7403C17.038 14.4044 16.0585 14.9135 14.9739 15.2676C13.8948 15.6218 12.7797 15.821 11.6287 15.8653L10.9812 15.8736Z" fill="#23180C"/>
</svg>
