<svg width="19" height="24" viewBox="0 0 19 24" fill="none" xmlns="http://www.w3.org/2000/svg">
<path d="M18.9326 19.2316L17.3014 16.5126C16.5481 15.2576 16.15 13.8202 16.15 12.3571V9.97539C16.15 6.96852 14.1435 4.42529 11.3998 3.60539V1.90009C11.3998 0.852183 10.5476 0 9.49968 0C8.45178 0 7.59959 0.852183 7.59959 1.90009V3.60539C4.85591 4.42529 2.84944 6.96852 2.84944 9.97539V12.3571C2.84944 13.8202 2.45136 15.2566 1.69893 16.5117L0.0677271 19.2307C-0.0206263 19.378 -0.0225412 19.5604 0.062027 19.7095C0.146595 19.8586 0.303351 19.9508 0.474358 19.9508H18.525C18.6961 19.9508 18.8537 19.8587 18.9383 19.7105C19.0229 19.5622 19.02 19.3779 18.9326 19.2316Z" fill="white"/>
<path d="M6.04565 20.7273C6.70029 22.1511 8.08618 23.1447 9.70069 23.1447C11.3152 23.1447 12.7011 22.1511 13.3558 20.7273H6.04565Z" fill="white"/>
</svg>
