<svg width="27" height="26" viewBox="0 0 27 26" fill="none" xmlns="http://www.w3.org/2000/svg">
<path d="M3.73482 12.7361C3.4648 12.5621 3.10956 12.6389 2.93552 12.9089C2.76149 13.1789 2.83829 13.5342 3.10831 13.7082C3.37834 13.8822 3.73358 13.8054 3.90761 13.5354C4.08804 13.295 4.00485 12.9101 3.73482 12.7361Z" fill="#7F7F7F" stroke="#7F7F7F" stroke-width="0.5"/>
<path d="M24.7877 13.871C24.8601 13.561 24.8077 13.2469 24.6253 12.9765L21.2216 7.62335C21.0571 7.36452 20.7987 7.17249 20.4887 7.10006C20.1787 7.02764 19.8646 7.08004 19.5942 7.26245L18.2588 8.10889C18 8.2733 17.8079 8.53172 17.7355 8.84175C17.7083 9.00257 17.6991 9.17499 17.7375 9.35261C16.973 9.47139 16.1701 9.41255 15.4356 9.1685L14.3963 8.80441C13.7275 8.57716 13.0054 8.74875 12.5133 9.19598L11.632 9.06113C11.0724 8.9807 10.4739 9.07909 9.96141 9.3603L9.61376 9.54391C9.34853 9.67871 9.05769 9.6951 8.77087 9.58668L8.19081 9.34023C8.22962 9.16141 8.25043 8.97099 8.21203 8.79337C8.14804 8.49733 7.96563 8.22689 7.6956 8.05286L6.36349 7.19431C5.82344 6.84625 5.08335 7.00624 4.73529 7.54629L1.28949 12.8928C1.11546 13.1628 1.06104 13.4844 1.12503 13.7804C1.18903 14.0765 1.37144 14.3469 1.64146 14.521L2.97358 15.3795C3.1716 15.5071 3.38642 15.5691 3.61804 15.5656C4.00409 15.5596 4.38134 15.3696 4.60178 15.0275L4.62498 14.9915L5.38745 15.5084C4.97898 15.9841 5.00776 16.6905 5.44859 17.153C5.6658 17.3694 5.95903 17.5075 6.26787 17.5027C6.28426 17.7935 6.39586 18.0947 6.61307 18.3112C6.84829 18.5392 7.13512 18.6476 7.43235 18.6609C7.44874 18.9517 7.56034 19.2529 7.77756 19.4694C8.01278 19.6974 8.2996 19.8058 8.59684 19.819C8.60163 20.1279 8.72483 20.4111 8.94205 20.6275C9.17726 20.8556 9.50009 20.9872 9.80893 20.9824C10.1178 20.9776 10.437 20.8776 10.6766 20.6244L11.0567 20.2324L11.6079 20.9189C11.6259 20.9305 11.6259 20.9305 11.6323 20.9601C11.91 21.2409 12.2868 21.4074 12.6908 21.413C13.0949 21.4186 13.4605 21.2466 13.7414 20.969C13.981 20.7157 14.1306 20.4045 14.1787 20.0533C14.6315 20.1413 15.1464 20.0145 15.4916 19.6765C15.5032 19.6585 15.5032 19.6585 15.5148 19.6405C15.7725 19.3989 15.9157 19.058 15.9521 18.7248C16.423 18.8244 16.9494 18.6796 17.3063 18.3236C17.5639 18.082 17.7072 17.7412 17.7372 17.3783C17.8504 17.4003 17.9636 17.4223 18.082 17.3967C18.4977 17.3844 18.8633 17.2123 19.1441 16.9347C19.331 16.7239 19.4574 16.4487 19.5066 16.1747L21.3197 15.101C21.5561 15.4062 21.9033 15.5791 22.2598 15.5795C22.4798 15.5939 22.6986 15.5311 22.8866 15.3975L24.222 14.5511C24.5233 14.4395 24.7153 14.181 24.7877 13.871ZM3.40285 14.7134L2.07074 13.8549C1.98073 13.7969 1.93193 13.7145 1.89473 13.6141C1.87553 13.5252 1.89753 13.412 1.95554 13.322L5.40135 7.97556C5.51737 7.79555 5.7542 7.74435 5.93421 7.86037L7.26633 8.71892C7.35634 8.77693 7.40514 8.85934 7.44234 8.95975C7.46154 9.04857 7.43953 9.16178 7.38152 9.25179L3.93572 14.5983C3.8377 14.7899 3.60087 14.8411 3.40285 14.7134ZM7.6225 15.5985L6.62794 16.5882C6.47592 16.745 6.16709 16.7498 6.02188 16.5798C5.84706 16.4161 5.84867 16.1369 6.0303 15.9737L7.02485 14.984C7.10086 14.9056 7.21288 14.8504 7.33769 14.8544C7.44451 14.8468 7.56412 14.8984 7.64252 14.9744C7.80573 15.1561 7.80412 15.4353 7.6225 15.5985ZM9.00981 16.5691L7.79883 17.776C7.6352 17.9508 7.35597 17.9492 7.19276 17.7675C7.01795 17.6039 7.01956 17.3247 7.20119 17.1615L8.19574 16.1718L8.40057 15.9726C8.47658 15.8942 8.5886 15.839 8.71341 15.843C8.83822 15.847 8.93983 15.887 9.01824 15.963C9.09665 16.039 9.15185 16.151 9.14784 16.2759C9.13744 16.3711 9.08583 16.4907 9.00981 16.5691ZM9.95787 17.9445L8.96332 18.9341C8.79969 19.109 8.52046 19.1073 8.35725 18.9257C8.18243 18.7621 8.18404 18.4829 8.36567 18.3197L9.36022 17.33C9.43624 17.2516 9.54825 17.1964 9.67306 17.2004C9.77988 17.1928 9.89949 17.2444 9.97789 17.3204C10.0563 17.3964 10.1115 17.5084 10.1075 17.6332C10.0855 17.7465 10.0339 17.8661 9.95787 17.9445ZM10.9239 19.3315L10.1342 20.1219C9.98218 20.2787 9.67334 20.2835 9.52813 20.1135C9.44973 20.0375 9.39452 19.9255 9.39853 19.8007C9.40254 19.6758 9.44254 19.5742 9.51856 19.4958L10.3083 18.7054C10.3843 18.627 10.4963 18.5718 10.6211 18.5758C10.7459 18.5798 10.8475 18.6198 10.9259 18.6958C11.0892 18.8774 11.0875 19.1567 10.9239 19.3315ZM18.5785 16.4683C18.4677 16.6007 18.2849 16.6867 18.0944 16.6659C18.0944 16.6659 18.0944 16.6659 18.0648 16.6723C17.8628 16.6694 17.6596 16.5894 17.5028 16.4374L17.346 16.2854L16.3383 15.2792C16.1815 15.1272 15.9319 15.1192 15.7798 15.276C15.6278 15.4328 15.6198 15.6824 15.7766 15.8345L16.7843 16.8406C16.9051 16.9694 16.9731 17.1407 16.9639 17.3131C16.9727 17.4971 16.8863 17.6707 16.7458 17.8095C16.4766 18.0691 16.0133 18.0763 15.7537 17.8071L14.7821 16.8241C14.6252 16.6721 14.3756 16.6641 14.2236 16.8209C14.0716 16.9777 14.0636 17.2274 14.2204 17.3794L14.9748 18.1459C15.2344 18.4151 15.2352 18.8488 14.984 19.12L14.9724 19.138C14.7031 19.3976 14.2399 19.4048 13.9803 19.1356L13.2862 18.4335C13.1294 18.2814 12.8798 18.2734 12.7278 18.4302C12.5757 18.5871 12.5677 18.8367 12.7245 18.9887L13.2194 19.486C13.3402 19.6148 13.4082 19.786 13.399 19.9584C13.4078 20.1425 13.3214 20.3161 13.1809 20.4549C12.9117 20.7145 12.4664 20.7333 12.2068 20.464L11.5952 19.7131C11.9264 19.2387 11.8925 18.5798 11.458 18.147C11.2832 17.9833 11.0672 17.8441 10.8292 17.8181C10.846 17.7525 10.8512 17.7049 10.8384 17.6457C10.8452 17.3188 10.7156 17.006 10.4804 16.778C10.3172 16.5963 10.0779 16.4931 9.85151 16.4491C9.86832 16.3835 9.87352 16.3359 9.86072 16.2767C9.86754 15.9498 9.73793 15.637 9.50272 15.409C9.2675 15.1809 8.97427 15.0429 8.63583 15.0541C8.57662 15.0669 8.52902 15.0617 8.45181 15.0629C8.40061 14.8261 8.30821 14.6136 8.1154 14.4384C7.63856 13.9527 6.86647 13.9647 6.3924 14.4235L5.96073 14.9352L5.07226 14.3371L7.83354 10.0527L8.4972 10.3276C8.99365 10.5456 9.52771 10.5076 9.99898 10.2508L10.3466 10.0672C10.7059 9.86559 11.1267 9.8056 11.5256 9.85882L11.99 9.92885C11.7412 10.3545 11.5527 10.8445 11.4415 11.3334C11.3031 11.9831 11.6639 12.6487 12.3147 12.8644L12.3327 12.876C12.8756 13.022 13.4485 12.8052 13.7501 12.3372L14.0866 11.8151L14.547 12.01C15.6891 12.4913 16.7048 13.2478 17.4861 14.21L18.5397 15.5005C18.5577 15.5121 18.5577 15.5121 18.5641 15.5417C18.7029 15.6822 18.7709 15.8534 18.7797 16.0374C18.7641 16.1802 18.6893 16.3358 18.5785 16.4683ZM19.3994 15.3922C19.3198 15.2389 19.2402 15.0857 19.1194 14.9569L18.0838 13.6779C17.2177 12.6102 16.1056 11.766 14.8323 11.2511L14.1326 10.953C13.9114 10.8614 13.6514 10.9486 13.5237 11.1466L13.0481 11.8847C12.932 12.0647 12.7196 12.1571 12.5228 12.1067C12.272 12.0215 12.1076 11.7627 12.1748 11.5002C12.2912 10.9638 12.5093 10.4673 12.7993 10.0173L12.8457 9.94528C13.101 9.54925 13.6326 9.35685 14.1047 9.53369L15.144 9.89777C16.0997 10.2334 17.1046 10.2951 18.0815 10.0839L20.8828 14.5137L19.3994 15.3922ZM23.8264 13.9394L22.491 14.7858C22.3146 14.9014 22.0702 14.8458 21.9546 14.6694L18.5624 9.29824C18.5136 9.21583 18.488 9.09741 18.5164 9.0138C18.5384 8.90059 18.6028 8.84019 18.6968 8.77338L20.0322 7.92694C20.085 7.88454 20.1738 7.86534 20.251 7.86414C20.2806 7.85774 20.2986 7.86934 20.3462 7.87455C20.4595 7.89655 20.5199 7.96096 20.5867 8.05498L23.9788 13.4261C24.0276 13.5085 24.0532 13.6269 24.0248 13.7106C23.9964 13.7942 23.9204 13.8726 23.8264 13.9394Z" fill="#7F7F7F" stroke="#7F7F7F" stroke-width="0.5"/>
<path d="M22.986 12.9902C22.8036 12.7198 22.446 12.6422 22.1871 12.8066C21.9167 12.989 21.8391 13.3466 22.0035 13.6054C22.1859 13.8759 22.5435 13.9535 22.8023 13.7891C23.0792 13.6363 23.1684 13.2607 22.986 12.9902Z" fill="#7F7F7F" stroke="#7F7F7F" stroke-width="0.5"/>
</svg>
