<svg width="15" height="24" viewBox="0 0 15 24" fill="none" xmlns="http://www.w3.org/2000/svg">
<path d="M1.1665 3.29331L2.3915 4.91498M13.4048 3.29331L12.1682 4.91498M6.99984 1.33331V3.78331" stroke="#7F7F7F" stroke-width="2" stroke-linecap="round" stroke-linejoin="round"/>
<path d="M8.47029 22.9166H5.53029C5.27225 22.9088 5.02641 22.7693 4.8439 22.5272C4.66138 22.2851 4.55623 21.9589 4.55029 21.6166V18.3666H9.45029V21.6166C9.44436 21.9589 9.3392 22.2851 9.15669 22.5272C8.97417 22.7693 8.72834 22.9088 8.47029 22.9166V22.9166Z" stroke="#7F7F7F" stroke-width="2" stroke-linecap="round" stroke-linejoin="round"/>
<path d="M4.58508 18.3083L4.54992 19.5333C4.5625 18.9074 4.50296 18.2606 4.30508 17.6667C4.19941 17.3522 4.03732 17.0597 3.82674 16.8034C3.63009 16.5191 3.40321 16.257 3.15008 16.0217C2.90722 15.8099 2.681 15.5798 2.47341 15.3333C2.05559 14.8251 1.72806 14.249 1.50508 13.63C1.27041 12.9956 1.15569 12.323 1.16674 11.6467C1.17962 10.7203 1.41298 9.81024 1.8475 8.99195C2.28203 8.17366 2.90522 7.47065 3.66547 6.9411C4.42573 6.41156 5.30119 6.07072 6.21937 5.94681C7.13755 5.8229 8.07204 5.91948 8.94548 6.22856C9.81891 6.53764 10.6062 7.05031 11.242 7.72415C11.8779 8.39799 12.3442 9.2136 12.6021 10.1035C12.8601 10.9933 12.9024 11.9318 12.7256 12.8413C12.5487 13.7508 12.1578 14.605 11.5851 15.3333C11.2711 15.7212 10.9194 16.0768 10.5351 16.395C10.3998 16.5087 10.2784 16.6379 10.1734 16.78C9.99573 17.042 9.85811 17.3291 9.76508 17.6317C9.56724 18.2377 9.43743 18.896 9.44992 19.5333L9.48508 18.3083" stroke="#7F7F7F" stroke-width="2" stroke-linecap="round" stroke-linejoin="round"/>
</svg>
