<svg width="28" height="28" viewBox="0 0 28 28" fill="none" xmlns="http://www.w3.org/2000/svg">
<circle cx="20.5249" cy="7.00001" r="2.50001" stroke="#988F86" stroke-width="2"/>
<ellipse cx="17.1999" cy="7.00001" rx="2.80001" ry="3.50001" fill="#F6F6F6"/>
<circle cx="15.2752" cy="7.00001" r="2.50001" stroke="#988F86" stroke-width="2"/>
<line x1="4.32495" y1="10.2" x2="4.32495" y2="18.25" stroke="#988F86" stroke-width="2"/>
<line x1="0.25" y1="14" x2="8.30003" y2="14" stroke="#988F86" stroke-width="2"/>
<path d="M25.594 15.7419C25.9602 16.5119 26.1516 17.2942 26.2502 17.9H24.3752H23.3752V18.9V23.4999H17.6752V18.9V17.9H16.6752H14.6538C14.7682 17.2969 14.9787 16.5227 15.3602 15.7596C15.753 14.9739 16.3149 14.2238 17.1195 13.6694C17.9154 13.1209 19.0046 12.7248 20.5252 12.7249C22.0458 12.7249 23.1209 13.121 23.8969 13.6649C24.6818 14.215 25.2219 14.9596 25.594 15.7419Z" stroke="#988F86" stroke-width="2"/>
<path d="M13 18.9663C13 18.9663 13.1241 10.85 17.962 10.8501C22.8 10.8502 22.8 18.5167 22.8 18.5167H20.6912V24.5001H15.2329V18.9663H13Z" fill="#F6F6F6"/>
<path d="M20.344 15.7419C20.7102 16.5119 20.9016 17.2942 21.0002 17.9H19.1252H18.1252V18.9V23.4999H12.4252V18.9V17.9H11.4252H9.40377C9.51822 17.2969 9.72868 16.5227 10.1102 15.7596C10.503 14.9739 11.0649 14.2238 11.8695 13.6694C12.6654 13.1209 13.7546 12.7248 15.2752 12.7249C16.7958 12.7249 17.8709 13.121 18.6469 13.6649C19.4318 14.215 19.9719 14.9596 20.344 15.7419Z" stroke="#988F86" stroke-width="2"/>
</svg>
