<svg width="14" height="14" viewBox="0 0 14 14" fill="none" xmlns="http://www.w3.org/2000/svg">
<path d="M7 1C7.19891 1 7.38968 1.07902 7.53033 1.21967C7.67098 1.36032 7.75 1.55109 7.75 1.75V6.25H12.25C12.4489 6.25 12.6397 6.32902 12.7803 6.46967C12.921 6.61032 13 6.80109 13 7C13 7.19891 12.921 7.38968 12.7803 7.53033C12.6397 7.67098 12.4489 7.75 12.25 7.75H7.75V12.25C7.75 12.4489 7.67098 12.6397 7.53033 12.7803C7.38968 12.921 7.19891 13 7 13C6.80109 13 6.61032 12.921 6.46967 12.7803C6.32902 12.6397 6.25 12.4489 6.25 12.25V7.75H1.75C1.55109 7.75 1.36032 7.67098 1.21967 7.53033C1.07902 7.38968 1 7.19891 1 7C1 6.80109 1.07902 6.61032 1.21967 6.46967C1.36032 6.32902 1.55109 6.25 1.75 6.25H6.25V1.75C6.25 1.55109 6.32902 1.36032 6.46967 1.21967C6.61032 1.07902 6.80109 1 7 1V1Z" fill="#3685D6" stroke="#3685D6" stroke-width="0.5"/>
</svg>
