<svg width="142" height="138" viewBox="0 0 142 138" fill="none" xmlns="http://www.w3.org/2000/svg">
<path d="M1.31778 106.284C0.688932 106.771 0.757025 107.483 1.52206 107.906L43.535 132.101C44.0091 132.339 44.5324 132.462 45.063 132.462C45.5936 132.462 46.1169 132.339 46.5911 132.101L126.824 85.8658C127.601 85.4182 127.665 84.7149 127.004 84.2273C127.398 84.5249 127.723 84.9046 127.956 85.3401C128.188 85.7756 128.322 86.2564 128.35 86.7491V88.7473C128.329 89.2792 128.182 89.7985 127.921 90.2627C127.66 90.7268 127.292 91.1224 126.848 91.4169L46.5751 137.632C46.1017 137.873 45.5781 137.998 45.047 137.998C44.5159 137.998 43.9923 137.873 43.5189 137.632L1.52607 113.445C1.08032 113.157 0.709555 112.767 0.444254 112.308C0.178952 111.849 0.0266951 111.333 0 110.804V108.786C0.0275734 108.299 0.159475 107.824 0.386805 107.392C0.614134 106.96 0.931601 106.583 1.31778 106.284Z" fill="#263238"/>
<path d="M1.52204 107.906L43.5349 132.101C44.0091 132.338 44.5324 132.462 45.063 132.462C45.5936 132.462 46.1169 132.338 46.5911 132.101L126.824 85.8656C127.665 85.382 127.669 84.5907 126.824 84.1071L84.8308 59.9165C84.3569 59.678 83.8336 59.5537 83.3028 59.5537C82.772 59.5537 82.2486 59.678 81.7747 59.9165L1.52204 106.148C0.676898 106.635 0.676898 107.423 1.52204 107.906ZM75.318 66.171C76.0389 65.7713 76.792 65.9951 77.5129 66.4148L115.697 88.3954C116.418 88.795 116.422 89.4864 115.697 89.902L53.212 125.898C52.8056 126.102 52.3571 126.208 51.9022 126.208C51.4474 126.208 50.9989 126.102 50.5925 125.898L12.4128 103.914C11.6878 103.514 11.6878 102.823 12.4128 102.407L75.318 66.171Z" fill="#455A64"/>
<path d="M127.004 84.2231C127.398 84.5207 127.723 84.9005 127.955 85.336C128.188 85.7715 128.322 86.2523 128.35 86.7449V88.7432C128.329 89.2756 128.182 89.7955 127.921 90.2603C127.66 90.725 127.292 91.1214 126.848 91.4168L46.575 137.632C46.1041 137.881 45.5778 138.007 45.0449 138V132.461C45.5776 132.47 46.104 132.345 46.575 132.097L126.824 85.8657C127.601 85.4221 127.649 84.7147 127.004 84.2231Z" fill="#37474F"/>
<path d="M101.798 74.3878C101.233 74.0601 101.233 73.5325 101.798 73.2088C102.115 73.0474 102.467 72.9633 102.823 72.9633C103.179 72.9633 103.531 73.0474 103.848 73.2088C104.413 73.5325 104.413 74.0601 103.848 74.3878C103.53 74.5474 103.179 74.6305 102.823 74.6305C102.467 74.6305 102.116 74.5474 101.798 74.3878Z" fill="black"/>
<path d="M26.4878 119.392C25.6131 119.409 24.7486 119.203 23.9764 118.793C23.2674 118.393 22.8789 117.829 22.8789 117.234C22.8789 116.638 23.2794 116.079 23.9764 115.671C24.7546 115.277 25.615 115.072 26.4878 115.072C27.3606 115.072 28.221 115.277 28.9992 115.671C29.7082 116.071 30.0967 116.634 30.0967 117.234C30.0967 117.833 29.6961 118.385 28.9992 118.793C28.227 119.203 27.3625 119.409 26.4878 119.392ZM26.4878 115.468C25.6834 115.452 24.8883 115.641 24.1767 116.015C23.5959 116.351 23.2794 116.782 23.2794 117.234C23.2794 117.686 23.5959 118.113 24.1767 118.433C24.8931 118.795 25.6848 118.983 26.4878 118.983C27.2908 118.983 28.0825 118.795 28.7989 118.433C29.3757 118.097 29.6961 117.666 29.6961 117.234C29.6961 116.802 29.3757 116.351 28.7989 116.015C28.0865 115.643 27.2915 115.458 26.4878 115.476V115.468Z" fill="#E6E6E6"/>
<path d="M102.815 78.3004L94.9084 73.7484C94.4397 73.4766 94.4157 73.049 94.8563 72.7932C95.1151 72.6683 95.3998 72.6061 95.6873 72.6116C95.9747 72.6172 96.2568 72.6903 96.5105 72.8252L104.417 77.3772C104.89 77.6489 104.91 78.0766 104.469 78.3323C104.211 78.4573 103.926 78.5195 103.638 78.514C103.351 78.5084 103.069 78.4352 102.815 78.3004Z" fill="black"/>
<path d="M75.3178 66.1711C76.0388 65.7714 76.7918 65.9952 77.5128 66.4149L115.696 88.3955C116.417 88.7951 116.421 89.4865 115.696 89.9021L53.2119 125.898C52.8055 126.102 52.3569 126.208 51.9021 126.208C51.4472 126.208 50.9987 126.102 50.5923 125.898L12.4126 103.914C11.6877 103.514 11.6877 102.823 12.4126 102.407L75.3178 66.1711Z" fill="#FFD5A5"/>
<path d="M55.6738 30.4196L50.7752 27.5981C50.5549 27.4742 50.3987 27.4422 50.3106 27.4902L49.7137 27.8379C49.6096 27.8938 49.6136 28.0737 49.7458 28.3454L50.9474 30.8073L50.0582 31.6066C49.9639 31.6791 49.8899 31.7747 49.8434 31.8841C49.7969 31.9936 49.7795 32.1131 49.7928 32.2312C49.8061 32.3493 49.8496 32.462 49.9193 32.5584C49.9889 32.6548 50.0823 32.7316 50.1904 32.7815L55.085 35.603L55.6858 35.2593L55.6738 30.4196Z" fill="#FF9721"/>
<path opacity="0.5" d="M55.6738 30.4196L50.7752 27.5981C50.5549 27.4742 50.3987 27.4422 50.3106 27.4902L49.7137 27.8379C49.6096 27.8938 49.6136 28.0737 49.7458 28.3454L50.9474 30.8073L50.0582 31.6066C49.9639 31.6791 49.8899 31.7747 49.8434 31.8841C49.7969 31.9936 49.7795 32.1131 49.7928 32.2312C49.8061 32.3493 49.8496 32.462 49.9193 32.5584C49.9889 32.6548 50.0823 32.7316 50.1904 32.7815L55.085 35.603L55.6858 35.2593L55.6738 30.4196Z" fill="white"/>
<path d="M50.1781 27.9465C49.6975 27.6668 49.5052 27.8466 49.7456 28.3462L50.9472 30.808L50.058 31.6073C49.9637 31.6799 49.8897 31.7755 49.8432 31.8849C49.7967 31.9943 49.7792 32.1138 49.7925 32.2319C49.8058 32.35 49.8494 32.4627 49.919 32.5591C49.9887 32.6555 50.0821 32.7324 50.1902 32.7823L55.0848 35.6038V30.764L50.1781 27.9465Z" fill="#FF9721"/>
<path d="M55.6495 45.97C55.4969 45.9689 55.3508 45.908 55.2428 45.8003C55.1349 45.6926 55.0738 45.5468 55.0728 45.3945V29.1608C55.0728 29.0082 55.1335 28.8618 55.2417 28.7539C55.3499 28.646 55.4966 28.5853 55.6495 28.5853C55.8025 28.5853 55.9492 28.646 56.0574 28.7539C56.1655 28.8618 56.2263 29.0082 56.2263 29.1608V45.3945C56.2253 45.5468 56.1642 45.6926 56.0562 45.8003C55.9483 45.908 55.8022 45.9689 55.6495 45.97Z" fill="#BEBEBE"/>
<path d="M32.4703 103.063V102.048H32.7186C33.0992 101.367 33.6715 100.811 34.3649 100.45C36.8963 98.991 40.9978 98.991 43.5293 100.45C44.2227 100.811 44.795 101.367 45.1755 102.048H45.4278V103.031C45.4278 104.003 44.819 104.974 43.5333 105.717C41.0018 107.172 36.9003 107.172 34.3689 105.717C33.0951 104.986 32.4623 104.023 32.4703 103.063Z" fill="#838383"/>
<path d="M38.9471 105.781C42.5263 105.781 45.4279 104.11 45.4279 102.048C45.4279 99.9868 42.5263 98.3156 38.9471 98.3156C35.3679 98.3156 32.4663 99.9868 32.4663 102.048C32.4663 104.11 35.3679 105.781 38.9471 105.781Z" fill="#AAAAAA"/>
<path d="M40.6214 51.8168V101.597C40.6078 101.743 40.5554 101.883 40.4695 102.003C40.3836 102.122 40.2674 102.216 40.1328 102.276C39.7673 102.462 39.3631 102.558 38.9532 102.558C38.5432 102.558 38.139 102.462 37.7736 102.276C37.639 102.216 37.5228 102.122 37.4369 102.003C37.351 101.883 37.2985 101.743 37.2849 101.597V51.8168H40.6214Z" fill="#C6C6C6"/>
<path d="M37.2808 56.0169V59.282L40.6173 61.2003V57.9432L37.2808 56.0169Z" fill="#8F9496"/>
<path d="M51.4799 49.9225L57.6482 53.4793C57.6167 53.5281 57.5759 53.5702 57.5281 53.6032L46.7375 59.8178C46.6453 59.8697 46.5732 59.8177 46.5732 59.7218V51.9647C46.6026 50.4723 46.9081 48.9981 47.4745 47.6165L51.4799 49.9225Z" fill="#37474F"/>
<path d="M57.6964 44.8468V53.5271L47.4785 47.6403C47.4875 47.6104 47.4982 47.5811 47.5106 47.5524C48.608 44.8228 50.4545 42.5049 52.4573 41.3579C53.1512 40.9208 53.9484 40.6741 54.7684 40.6425C56.5748 40.6225 57.6964 42.2331 57.6964 44.8468Z" fill="#263238"/>
<path d="M68.7957 63.1985V62.4312H68.7236V62.5391C68.6756 62.3239 68.6072 62.1138 68.5193 61.9116C67.9623 60.7872 67.0581 59.871 65.9398 59.2979L58.6459 55.0817C58.4756 54.994 58.2868 54.9483 58.0952 54.9483C57.9036 54.9483 57.7148 54.994 57.5445 55.0817L46.3733 61.512C46.232 61.4005 46.1114 61.2653 46.0168 61.1123V61.9116C46.0241 61.98 46.049 62.0454 46.0889 62.1014C46.1289 62.1574 46.1827 62.2021 46.2452 62.2313L53.547 66.4276C55.6919 67.5744 58.1 68.142 60.5325 68.0742C62.5574 68.0947 64.5553 67.6098 66.3444 66.6634C67.9866 65.7202 68.7957 64.4734 68.7957 63.1985Z" fill="#C0C0C0"/>
<path d="M68.519 61.9036C67.962 60.7792 67.0578 59.863 65.9395 59.2899L58.6457 55.0817C58.4754 54.994 58.2865 54.9483 58.0949 54.9483C57.9033 54.9483 57.7145 54.994 57.5442 55.0817L46.373 61.512L53.5468 65.6483C55.6917 66.7951 58.0997 67.3627 60.5322 67.2949C62.5571 67.3154 64.555 66.8305 66.3441 65.8841C67.8181 65.0369 68.6232 63.9458 68.7714 62.8068C68.7304 62.4954 68.6455 62.1913 68.519 61.9036Z" fill="#E9E9E9"/>
<path d="M68.7714 62.807C68.7305 62.4956 68.6455 62.1915 68.5191 61.9038C67.962 60.7794 67.0578 59.8632 65.9396 59.2901L58.6457 55.0818C58.4754 54.9942 58.2866 54.9485 58.0949 54.9485C57.9033 54.9485 57.7145 54.9942 57.5442 55.0818L46.3731 61.5122L46.2449 61.4402C46.1779 61.4187 46.1196 61.3765 46.0781 61.3198C46.0367 61.2631 46.0144 61.1947 46.0144 61.1245C46.0144 61.0543 46.0367 60.9859 46.0781 60.9292C46.1196 60.8725 46.1779 60.8303 46.2449 60.8088L57.5362 54.3025C57.7065 54.2149 57.8953 54.1692 58.0869 54.1692C58.2785 54.1692 58.4674 54.2149 58.6377 54.3025L65.9396 58.5068C67.2533 59.2661 68.1105 60.1773 68.5191 61.1245C68.6525 61.4297 68.7403 61.7529 68.7794 62.0837C68.8048 62.3243 68.8021 62.567 68.7714 62.807Z" fill="#A0A0A0"/>
<path d="M46.4895 60.6968L57.7808 54.1906L57.5325 53.6031L46.7418 59.8216L46.4895 60.6968Z" fill="#707070"/>
<path d="M56.7034 44.3113C56.6984 44.2179 56.6715 44.1269 56.6249 44.0457C56.5783 43.9645 56.5133 43.8953 56.4351 43.8437L42.6845 35.9267C42.6017 35.8833 42.5096 35.8606 42.4161 35.8606C42.3226 35.8606 42.2305 35.8833 42.1477 35.9267L41.8433 36.0985C41.7656 36.1498 41.701 36.2183 41.6544 36.2988C41.6078 36.3792 41.5806 36.4694 41.575 36.5621V47.0808C41.5806 47.1736 41.6078 47.2637 41.6544 47.3442C41.701 47.4246 41.7656 47.4932 41.8433 47.5444L55.5939 55.4614C55.6767 55.5048 55.7688 55.5275 55.8623 55.5275C55.9558 55.5275 56.0479 55.5048 56.1307 55.4614L56.4351 55.2896C56.5125 55.2381 56.5771 55.1695 56.6236 55.0891C56.6701 55.0087 56.6975 54.9187 56.7034 54.826V44.3113Z" fill="#FF9721"/>
<path opacity="0.35" d="M56.6426 44.0476L55.8816 44.4872L41.6743 36.3024C41.7198 36.2215 41.7844 36.1529 41.8626 36.1026L42.167 35.9308C42.2497 35.8874 42.3418 35.8647 42.4353 35.8647C42.5288 35.8647 42.6209 35.8874 42.7037 35.9308L56.4503 43.8478C56.5298 43.8978 56.5958 43.9664 56.6426 44.0476Z" fill="black"/>
<path opacity="0.2" d="M55.8621 44.484L55.7219 44.568C55.7659 44.5868 55.8031 44.6189 55.8282 44.6597C55.8533 44.7004 55.8651 44.748 55.8621 44.7958V55.3105C55.866 55.3447 55.8601 55.3793 55.8453 55.4104C55.8304 55.4415 55.8071 55.4678 55.7779 55.4863C55.7367 55.5024 55.691 55.5024 55.6498 55.4863L55.5937 55.4623L41.8431 47.5413C41.7654 47.4901 41.7007 47.4215 41.6541 47.3411C41.6076 47.2606 41.5804 47.1705 41.5747 47.0777V36.567C41.5783 36.4724 41.6058 36.3803 41.6548 36.2993L55.8621 44.484Z" fill="black"/>
<path opacity="0.2" d="M55.8618 44.4841L49.4931 46.846C49.273 46.9274 49.0318 46.9323 48.8086 46.8597C48.5854 46.7872 48.3933 46.6415 48.2635 46.4464L47.2421 44.8838L41.6025 36.2634L47.0298 44.9517L41.5664 47.0858C41.5727 47.1805 41.6015 47.2723 41.6505 47.3536L47.0458 44.9557L48.2475 46.854C48.3788 47.0649 48.5819 47.2214 48.8196 47.2948C49.0572 47.3682 49.3135 47.3536 49.5412 47.2537L50.3864 46.882L55.7817 55.4704C55.8108 55.4519 55.8341 55.4256 55.849 55.3945C55.8639 55.3634 55.8697 55.3288 55.8658 55.2946V55.1187L50.4104 46.886L55.8618 44.4841Z" fill="black"/>
<path d="M53.4388 46.1701C53.4341 46.0771 53.4073 45.9866 53.3606 45.906C53.3139 45.8254 53.2488 45.757 53.1704 45.7065L39.4198 37.7855C39.3357 37.7442 39.2432 37.7228 39.1494 37.7228C39.0557 37.7228 38.9632 37.7442 38.8791 37.7855L38.5787 37.9613C38.5003 38.0119 38.4351 38.0803 38.3885 38.1609C38.3418 38.2415 38.315 38.332 38.3103 38.4249V48.9397C38.315 49.0326 38.3418 49.1231 38.3885 49.2037C38.4351 49.2843 38.5003 49.3527 38.5787 49.4032L52.3253 57.3242C52.4086 57.3658 52.5005 57.3874 52.5936 57.3874C52.6868 57.3874 52.7787 57.3658 52.862 57.3242L53.1664 57.1484C53.2448 57.0979 53.3099 57.0295 53.3566 56.9489C53.4033 56.8683 53.4301 56.7778 53.4348 56.6848L53.4388 46.1701Z" fill="#FF9721"/>
<path opacity="0.35" d="M53.3697 45.9059L52.6047 46.3455L38.3975 38.1608C38.4443 38.0795 38.5103 38.0109 38.5897 37.961L38.8941 37.7851C38.9775 37.7436 39.0693 37.722 39.1625 37.722C39.2556 37.722 39.3475 37.7436 39.4309 37.7851L53.1775 45.7061C53.2578 45.755 53.324 45.8239 53.3697 45.9059Z" fill="black"/>
<path opacity="0.2" d="M52.6096 46.3464L52.4694 46.4303C52.5135 46.4492 52.5506 46.4812 52.5757 46.522C52.6008 46.5628 52.6127 46.6104 52.6096 46.6581V57.1728C52.6135 57.2071 52.6077 57.2417 52.5928 57.2728C52.578 57.3039 52.5546 57.3302 52.5255 57.3487C52.4843 57.3647 52.4385 57.3647 52.3973 57.3487L52.3412 57.3247L38.5906 49.4037C38.513 49.3525 38.4483 49.2839 38.4017 49.2034C38.3551 49.123 38.3279 49.0328 38.3223 48.9401V38.4294C38.3258 38.3348 38.3534 38.2427 38.4024 38.1616L52.6096 46.3464Z" fill="black"/>
<path opacity="0.2" d="M52.6056 46.3464L46.229 48.7203C46.0089 48.8024 45.7675 48.8076 45.5441 48.735C45.3207 48.6624 45.1286 48.5163 44.9993 48.3206L43.9779 46.758L38.3503 38.1336L43.7857 46.8099L38.3223 48.9441C38.3256 49.0393 38.3546 49.1318 38.4064 49.2118L43.8017 46.8459L45.0033 48.7402C45.1353 48.9514 45.3392 49.108 45.5775 49.1814C45.8159 49.2548 46.0727 49.2401 46.3011 49.1399L47.1462 48.7642L52.5415 57.3566C52.5696 57.3364 52.5918 57.3091 52.6059 57.2775C52.6199 57.2459 52.6254 57.2112 52.6216 57.1768V57.0049L47.1743 48.7562L52.6056 46.3464Z" fill="black"/>
<path d="M50.1946 48.0434C50.1899 47.9504 50.1631 47.8599 50.1165 47.7793C50.0698 47.6987 50.0046 47.6303 49.9263 47.5798L36.1757 39.6508C36.0926 39.6084 36.0006 39.5862 35.9073 39.5862C35.814 39.5862 35.722 39.6084 35.6389 39.6508L35.3345 39.8267C35.2562 39.8772 35.191 39.9456 35.1443 40.0262C35.0977 40.1068 35.0709 40.1973 35.0662 40.2902V50.801C35.0715 50.8938 35.0986 50.984 35.1452 51.0645C35.1918 51.1451 35.2566 51.2135 35.3345 51.2646L49.0851 59.1856C49.1685 59.2271 49.2604 59.2487 49.3535 59.2487C49.4467 59.2487 49.5385 59.2271 49.6219 59.1856L49.9263 59.0097C50.0042 58.9587 50.069 58.8902 50.1156 58.8097C50.1622 58.7292 50.1893 58.6389 50.1946 58.5461V48.0434Z" fill="#FF9721"/>
<path opacity="0.35" d="M50.1133 47.7683L49.3523 48.2079L35.145 40.0232C35.1893 39.9414 35.2542 39.8725 35.3333 39.8234L35.6377 39.6475C35.7204 39.6041 35.8125 39.5814 35.9061 39.5814C35.9996 39.5814 36.0916 39.6041 36.1744 39.6475L49.925 47.5685C50.0041 47.6177 50.069 47.6866 50.1133 47.7683Z" fill="black"/>
<path opacity="0.2" d="M49.3535 48.2049L49.2133 48.2888C49.2574 48.3077 49.2945 48.3397 49.3196 48.3805C49.3447 48.4213 49.3566 48.4688 49.3535 48.5166V59.0313C49.3574 59.0655 49.3516 59.1002 49.3367 59.1313C49.3218 59.1623 49.2985 59.1886 49.2694 59.2071C49.2282 59.2232 49.1824 59.2232 49.1412 59.2071L49.0851 59.1832L35.3345 51.2661C35.2568 51.2149 35.1922 51.1464 35.1456 51.0659C35.099 50.9855 35.0718 50.8953 35.0662 50.8026V40.2878C35.0697 40.1933 35.0973 40.1011 35.1463 40.0201L49.3535 48.2049Z" fill="black"/>
<path opacity="0.2" d="M49.3535 48.2088L42.9849 50.5787C42.7656 50.6621 42.5243 50.6679 42.3012 50.5952C42.0782 50.5224 41.8868 50.3756 41.7592 50.1791L40.7338 48.6124L35.0942 39.9921L40.5296 48.6724L35.0662 50.8065C35.0732 50.901 35.1019 50.9927 35.1503 51.0743L40.5456 48.6764L41.7472 50.5747C41.8785 50.7856 42.0817 50.9421 42.3193 51.0155C42.557 51.0889 42.8132 51.0743 43.041 50.9744L43.8861 50.6027L49.2814 59.1911C49.3105 59.1726 49.3339 59.1463 49.3487 59.1152C49.3636 59.0841 49.3694 59.0495 49.3655 59.0153V58.8394L43.9141 50.5907L49.3535 48.2088Z" fill="black"/>
<path d="M56.2665 40.3429C55.173 39.7714 53.723 39.8713 52.1369 40.7865C50.3545 41.8096 48.7483 43.66 47.6228 45.7861C47.3611 46.2768 47.1258 46.7811 46.9178 47.2968C46.2993 48.7773 45.9664 50.3609 45.9365 51.9646V60.8328C45.7455 60.8347 45.5569 60.7894 45.3877 60.7009L25.8293 49.4109C25.668 49.3042 25.5342 49.1609 25.4388 48.9929C25.3435 48.8248 25.2892 48.6367 25.2805 48.4437V40.0512C25.2805 35.8469 28.0563 30.8593 31.4769 28.861C33.0791 27.9259 34.5731 27.8499 35.6786 28.4614L56.2665 40.3429Z" fill="#E9E9E9"/>
<path d="M46.9179 47.2966C46.2994 48.7771 45.9665 50.3608 45.9366 51.9645V60.8327C45.8694 60.8322 45.8023 60.8255 45.7363 60.8127C45.7363 60.3011 45.7363 57.4557 45.7363 51.9685C45.7363 45.4463 50.7631 41.3019 52.145 40.7784C50.3626 41.8015 48.7564 43.6518 47.6309 45.778C47.3662 46.2711 47.1282 46.7781 46.9179 47.2966Z" fill="#D0D0D0"/>
<path d="M46.7418 59.8177C46.6496 59.8737 46.5735 59.8177 46.5735 59.7258V51.9646C46.6044 50.4733 46.9113 49.0005 47.4788 47.6205C47.4877 47.5906 47.4984 47.5612 47.5108 47.5326C47.7291 46.985 47.9806 46.4511 48.2638 45.934C49.3613 43.9118 50.8593 42.2492 52.4575 41.334C53.1514 40.897 53.9486 40.6502 54.7686 40.6187C55.1871 40.6163 55.5997 40.7165 55.9703 40.9104C57.0477 41.4859 57.6806 42.8767 57.6806 44.823V53.3115C57.6783 53.369 57.6622 53.4252 57.6336 53.4753C57.6051 53.5254 57.5648 53.5679 57.5164 53.5992L57.7647 54.1867L57.8208 54.1507C57.9083 54.0902 57.9854 54.016 58.0491 53.9309C58.2088 53.7329 58.3014 53.4894 58.3134 53.2355V44.8469C58.3134 42.5969 57.5124 41.0303 56.2506 40.3669C55.1532 39.7914 53.7072 39.8913 52.117 40.8065C50.3386 41.8296 48.7325 43.68 47.6029 45.8061C47.3425 46.2969 47.1086 46.8011 46.902 47.3168C46.2835 48.7973 45.9506 50.3809 45.9207 51.9846V60.8328H46.0168C46.1751 60.8232 46.3295 60.7796 46.4694 60.7049L46.7418 59.8177Z" fill="#8F9496"/>
<path d="M105.94 45.5124C112.542 39.8516 118.712 26.9573 116.952 22.9339C113.913 22.7777 111.689 23.9303 109.735 27.5175C109.735 27.5175 104.186 38.2896 101.071 41.462C98.4084 44.2787 95.0611 46.3606 91.3541 47.5052C90.545 47.6427 89.7172 47.6262 88.9142 47.4567C87.5377 47.0366 86.7549 47.3975 85.4432 47.3329C84.4013 47.2844 83.8615 46.9451 83.7428 47.1713C83.6324 47.4482 83.6312 47.7565 83.7393 48.0343C83.8475 48.312 84.057 48.5387 84.3258 48.6686C84.8216 48.9358 85.352 49.1334 85.902 49.2557C84.8209 49.5906 83.6978 49.7719 82.566 49.7943C79.8669 49.8751 78.7225 50.7638 81.0761 53.2791C82.2367 54.5179 85.3082 55.2719 89.481 54.157C91.2571 53.582 92.9966 52.9003 94.6902 52.1157C98.7294 50.4469 102.516 48.2244 105.94 45.5124Z" fill="#FFA8A7"/>
<path d="M127.122 124.397V123.718C126.852 124.515 125.616 127.925 123.738 129.643C122.242 131 120.202 132.573 119.684 134.086C119.166 135.6 122.523 136.192 123.916 135.945C125.535 135.659 127.635 134.744 128.774 133.343C129.579 132.357 130.086 131.189 130.664 130.418C131.241 129.648 132.558 128.776 132.866 127.882C133.039 127.392 132.834 126.314 132.596 125.404C132.359 124.494 132.137 122.905 131.851 122.98V124.262C131.179 124.793 130.344 125.075 129.487 125.059C128.796 125.059 127.117 124.925 127.122 124.397Z" fill="#263238"/>
<path d="M122.383 130.833L123.738 129.632C125.049 128.437 126.048 126.401 126.626 125.027C126.954 124.239 127.123 123.393 127.122 122.539V119.846H131.857V124.23V124.348C131.63 125.334 129.454 127.946 128.218 129.648C127.392 130.79 125.816 132.244 123.937 132.492C122.134 132.74 121.228 132.18 122.383 130.833Z" fill="#FFA8A7"/>
<path d="M108.644 119.749V119.07C108.38 119.867 107.138 123.277 105.26 124.995C103.764 126.352 101.729 127.925 101.211 129.438C100.693 130.952 104.045 131.544 105.443 131.296C107.063 131.011 109.163 130.095 110.302 128.695C111.101 127.709 111.613 126.54 112.186 125.77C112.758 125 114.08 124.154 114.393 123.233C114.561 122.743 114.361 121.666 114.124 120.756C113.886 119.846 113.665 118.865 113.379 118.941V119.614C112.705 120.145 111.867 120.426 111.009 120.411C110.323 120.4 108.639 120.287 108.644 119.749Z" fill="#263238"/>
<path d="M103.91 126.174C104.369 125.76 104.839 125.356 105.26 124.973C106.571 123.777 107.576 121.742 108.148 120.368C108.476 119.579 108.645 118.734 108.644 117.88V115.187H113.384V119.571V119.689C113.157 120.675 110.987 123.287 109.751 124.989C108.92 126.131 107.349 127.585 105.47 127.833C103.662 128.081 102.75 127.521 103.91 126.174Z" fill="#FFA8A7"/>
<path d="M130.917 50.9523C131.916 61.8484 133.411 87.163 133.411 87.163C133.611 90.4109 133.681 90.5401 133.681 96.3193C134.221 102.783 133.681 119.749 133.681 119.749C132.958 120.166 130.379 121.063 129.545 121.096C128.711 121.129 126.067 120.377 125.314 120.018C125.314 120.018 122.615 95.0589 121.762 88.3478C121.022 82.4878 119.603 69.6043 119.603 69.6043L117.756 85.8165C117.486 88.3478 117.594 90.7287 117.216 94.1649C116.947 101.167 115.867 116.786 115.867 116.786C115.867 116.786 111.009 118.133 106.42 116.576C106.42 116.576 107.295 92.1773 106.938 87.416C106.339 79.4285 108.466 54.4963 109.934 49.7673L130.917 50.9523Z" fill="#129F9F"/>
<path opacity="0.15" d="M118.836 76.1215L119.646 69.9275C119.646 69.9275 113.438 69.3889 110.199 68.0424C110.199 68.0424 114.059 70.4661 117.837 70.7354V75.1303L117.217 92.2797L118.026 84.2006L118.836 76.1215Z" fill="black"/>
<path d="M126.933 123.25L128.013 123.788L129.362 124.058L130.712 123.788L131.889 122.999L132.331 125.674L129.264 129.177L124.525 134.76L121.401 131.852L123.486 129.318L124.909 127.338L126.394 125.404L126.933 123.25Z" fill="#263238"/>
<path d="M124.472 23.1081C129.256 23.5967 129.591 27.0251 130.786 30.7792C131.66 33.6704 131.512 36.2469 130.786 39.2268L131.78 52.5716C131.78 52.5716 132.601 61.2131 132.871 66.6958C123.964 72.0819 111.548 69.9274 106.96 66.6958C106.85 65.6209 109.036 54.825 109.425 49.3526C109.425 42.48 109.425 39.6685 109.425 35.8362C110.577 29.1098 115.059 22.5462 117.039 22.8068L124.472 23.1081Z" fill="#07ACAC"/>
<path d="M126.923 21.8136L109.751 21.8136V9.65183C109.751 7.092 110.77 4.63701 112.584 2.82694C114.399 1.01686 116.859 -2.28882e-05 119.425 -2.28882e-05H121.147C123.712 -2.28882e-05 126.173 1.01686 127.987 2.82694C129.801 4.63701 130.82 7.092 130.82 9.65183V17.9248C130.82 18.9562 130.409 19.9453 129.679 20.6746C128.948 21.4039 127.956 21.8136 126.923 21.8136Z" fill="#263238"/>
<path d="M129.416 1.25507L128.013 3.53877C128.158 3.63945 128.323 3.70971 128.496 3.7453C128.669 3.78089 128.848 3.78107 129.022 3.74584C129.195 3.71061 129.36 3.64071 129.506 3.54032C129.651 3.43993 129.775 3.31115 129.87 3.16173C130.055 2.84687 130.111 2.4728 130.027 2.11755C129.942 1.7623 129.724 1.45332 129.416 1.25507Z" fill="#263238"/>
<path d="M131.382 3.34473L128.715 3.74329C128.732 3.91898 128.785 4.08936 128.87 4.2441C128.955 4.39885 129.071 4.53474 129.21 4.64353C129.349 4.75232 129.509 4.83173 129.68 4.87697C129.851 4.9222 130.03 4.93232 130.205 4.90669C130.564 4.84691 130.887 4.65136 131.106 4.36057C131.325 4.06979 131.424 3.70605 131.382 3.34473Z" fill="#263238"/>
<path d="M113.751 4.255C112.639 4.91211 111.263 7.70209 111.398 13.5568C111.516 18.5227 113.125 19.7454 113.935 20.1009C114.744 20.4563 116.305 20.2355 117.821 19.9877L116.677 23.0687C116.677 23.0687 116.784 26.6929 118.943 29.9246C120.832 29.1167 121.613 28.0799 122.846 27.0551C124.054 26.0509 123.964 24.6845 124.504 23.338L124.089 16.5514C124.089 16.5514 125.109 17.9141 126.788 16.8046C128.467 15.695 128.526 12.9481 127.549 11.9571C126.572 10.9661 124.477 11.2838 124.089 12.6465C124.089 12.6465 121.665 12.7327 118.442 10.9661C117.187 10.2941 116.108 9.33617 115.293 8.17014C114.477 7.00411 113.949 5.66279 113.751 4.255Z" fill="#FFA8A7"/>
<path d="M117.508 12.3124C117.497 12.3979 117.504 12.4848 117.528 12.5676C117.553 12.6503 117.594 12.7272 117.65 12.7932C117.705 12.8593 117.774 12.9132 117.851 12.9515C117.929 12.9898 118.013 13.0117 118.1 13.0158C118.186 13.0199 118.272 13.0061 118.353 12.9753C118.434 12.9446 118.507 12.8974 118.569 12.8369C118.63 12.7764 118.679 12.7038 118.711 12.6237C118.743 12.5436 118.758 12.4578 118.755 12.3716C118.762 12.2884 118.752 12.2047 118.726 12.1253C118.7 12.046 118.658 11.9726 118.603 11.9095C118.549 11.8464 118.482 11.7947 118.407 11.7575C118.332 11.7204 118.25 11.6984 118.167 11.693C117.997 11.6886 117.833 11.7513 117.71 11.8673C117.586 11.9833 117.514 12.1433 117.508 12.3124Z" fill="#263238"/>
<path d="M116.785 16.519L115.333 16.9822C115.356 17.0813 115.4 17.1744 115.461 17.2559C115.522 17.3374 115.599 17.4055 115.688 17.456C115.777 17.5065 115.875 17.5383 115.976 17.5495C116.077 17.5606 116.18 17.5509 116.277 17.5209C116.477 17.4544 116.643 17.3118 116.738 17.1242C116.833 16.9365 116.85 16.719 116.785 16.519Z" fill="#F28F8F"/>
<path d="M112.358 10.4113L113.627 9.53872C113.574 9.45344 113.504 9.37985 113.422 9.32244C113.339 9.26504 113.246 9.22503 113.147 9.20487C113.049 9.1847 112.947 9.18481 112.849 9.20516C112.75 9.22552 112.657 9.26571 112.574 9.32327C112.405 9.44203 112.288 9.6214 112.248 9.82406C112.208 10.0267 112.247 10.237 112.358 10.4113Z" fill="#263238"/>
<path d="M112.672 11.8601C112.668 11.9422 112.68 12.0242 112.708 12.1015C112.736 12.1788 112.779 12.2498 112.834 12.3106C112.889 12.3714 112.956 12.4207 113.031 12.4557C113.105 12.4906 113.186 12.5107 113.268 12.5146C113.35 12.5184 113.433 12.5061 113.51 12.4783C113.587 12.4505 113.659 12.4078 113.72 12.3525C113.78 12.2972 113.83 12.2305 113.865 12.1562C113.9 12.0819 113.92 12.0014 113.924 11.9194C113.928 11.8373 113.916 11.7553 113.888 11.678C113.86 11.6007 113.817 11.5297 113.762 11.4689C113.706 11.4082 113.639 11.3589 113.565 11.3239C113.49 11.2889 113.41 11.2689 113.327 11.265C113.245 11.2611 113.163 11.2734 113.086 11.3012C113.008 11.329 112.937 11.3718 112.876 11.427C112.815 11.4823 112.766 11.549 112.731 11.6233C112.696 11.6976 112.676 11.7781 112.672 11.8601Z" fill="#263238"/>
<path d="M115.727 11.5046L115.63 15.2587L113.643 14.6501L115.727 11.5046Z" fill="#F28F8F"/>
<path d="M117.821 19.9877C119.441 19.7777 122.712 18.8351 123.219 17.537C123.015 18.1915 122.616 18.7683 122.075 19.1906C121.093 20.0308 117.827 20.9788 117.827 20.9788L117.821 19.9877Z" fill="#F28F8F"/>
<path d="M139.349 46.7189C135.074 29.2895 131.91 23.478 126.717 23.5588C125.206 25.3685 125.638 30.83 128.018 34.1424C128.018 34.1424 133.357 45.3831 134.21 49.3796C134.96 52.8913 135.829 57.3079 135.754 60.3295C135.738 60.8634 135.527 61.373 135.16 61.7622C134.188 62.8394 134.183 63.6689 133.541 64.8377C133.044 65.7479 132.504 66.0926 132.655 66.2973C132.859 66.5196 133.14 66.6558 133.441 66.6778C133.742 66.6999 134.041 66.6061 134.275 66.4158C134.733 66.0856 135.143 65.6942 135.495 65.2524C135.325 66.3693 135 67.457 134.528 68.484C133.449 70.9509 133.697 72.2112 137.039 71.3333C139.128 70.7947 140.439 69.0442 140.752 64.0298C140.905 62.1825 140.923 60.3266 140.806 58.4767C140.353 53.7046 140.029 49.525 139.349 46.7189Z" fill="#FFA8A7"/>
<rect width="3.77868" height="5.92472" rx="0.5" transform="matrix(0.99877 -0.0495736 0.0497954 0.998759 124.774 70.4112)" fill="white"/>
<rect x="126.02" y="68.6342" width="1.07962" height="2.27094" rx="0.1" transform="rotate(-2.82896 126.02 68.6342)" fill="#3F3D56"/>
<line y1="-0.25" x2="2.15926" y2="-0.25" transform="matrix(0.998459 -0.0555014 0.0557495 0.998445 125.729 74.9459)" stroke="#C4C4C4" stroke-width="0.5"/>
<line y1="-0.15" x2="1.62389" y2="-0.15" transform="matrix(0.998457 -0.0555233 0.0557715 0.998444 126.107 75.7)" stroke="#C4C4C4" stroke-width="0.3"/>
<ellipse cx="126.808" cy="72.7376" rx="1.34954" ry="1.34652" fill="#C4C4C4"/>
<path d="M116.677 22.7993C115.987 23.7089 114.788 24.9537 114.399 29.6122C111.738 31.9998 108.753 33.0163 107.731 31.8826C106.709 30.7489 108.038 27.8943 110.699 25.5066C113.36 23.119 114.248 23.0686 116.677 22.7993Z" fill="#07ACAC"/>
<path d="M108.31 28.1854L113.168 35.7259L107.77 45.4208L104.531 42.4585L102.102 38.4189L108.31 28.1854Z" fill="#07ACAC"/>
<path d="M124.504 23.0685C125.079 24.106 124.746 27.8231 123.424 34.3792C126.085 36.7669 130.876 34.8683 132.712 32.8317C134.547 30.7951 134.491 27.6466 131.217 24.8209C128.823 23.6071 128.013 23.0685 124.504 23.0685Z" fill="#07ACAC"/>
<path d="M133.411 27.6468L127.42 35.5789L132.062 45.1515L135.57 43.5357L138.809 40.8427L136.38 34.1101L133.411 27.6468Z" fill="#07ACAC"/>
<path d="M108.31 119.748L109.12 120.287L110.739 120.556L112.358 120.018L113.438 118.941L113.438 122.172L111.009 124.865L106.49 130.162L102.642 127.288L105.341 124.865L106.69 122.979L108.31 119.748Z" fill="#263238"/>
<path d="M111.851 19.151C114.524 24.4208 120.859 21.1667 122.134 19.4911C121.3 18.9898 119.326 17.1926 120.282 14.4533L114.558 13.3662L111.604 13.7704C111.396 15.1278 111.201 16.7542 111.851 19.151Z" fill="white"/>
<path d="M124.415 16.2099L121.864 19.5871L121.597 19.5412L124.149 16.164L124.415 16.2099Z" fill="white"/>
<path d="M119.129 14.5638L123.823 13.2281L124.007 13.4251L119.314 14.7608L119.129 14.5638Z" fill="white"/>
<path d="M131.457 43.709L127.279 34.4423L129.042 35.5591L131.457 43.709Z" fill="#0C9C9C"/>
<path d="M109.465 42.1077L110.275 41.0305V43.7235L110.005 46.6858L109.465 50.7254V42.1077Z" fill="#0C9C9C"/>
<path d="M66.3272 47.7479C66.3125 47.7099 66.3054 47.6693 66.3065 47.6286C66.3076 47.5878 66.3168 47.5477 66.3336 47.5105C66.3503 47.4733 66.3743 47.4398 66.4042 47.412C66.4341 47.3841 66.4692 47.3625 66.5075 47.3483L81.0632 41.5054C81.2868 41.4491 81.5227 41.4659 81.7361 41.5534L82.1767 41.7372C82.3866 41.8209 82.5608 41.975 82.6693 42.1728L86.2462 51.5326C86.2615 51.5705 86.269 51.6112 86.2682 51.6521C86.2674 51.6931 86.2583 51.7334 86.2414 51.7707C86.2246 51.8081 86.2004 51.8416 86.1702 51.8694C86.1401 51.8971 86.1046 51.9185 86.0659 51.9322L71.5062 57.7751C71.2826 57.8314 71.0467 57.8146 70.8333 57.7271L70.3927 57.5433C70.1818 57.4595 70.0064 57.3056 69.8961 57.1077L66.3272 47.7479Z" fill="#FF9721"/>
<path opacity="0.4" d="M66.3379 47.5211L67.4474 47.9806L82.4837 41.942C82.3925 41.8632 82.2899 41.7985 82.1793 41.7502L81.7387 41.5663C81.5258 41.4769 81.2893 41.46 81.0658 41.5184L66.5101 47.3612C66.4347 47.3911 66.3732 47.4481 66.3379 47.5211Z" fill="white"/>
<path opacity="0.2" d="M66.3271 47.748L69.904 57.1077C70.0143 57.3057 70.1897 57.4595 70.4006 57.5433L70.8412 57.7272L70.9454 57.7631L71.0896 57.7951C71.1775 57.8028 71.266 57.8028 71.3539 57.7951H71.414H71.45C71.3978 57.8111 71.342 57.8111 71.2898 57.7951C71.2522 57.7813 71.218 57.7595 71.1896 57.7312C71.1613 57.7029 71.1394 57.6688 71.1256 57.6313L67.5488 48.2755C67.539 48.257 67.5337 48.2364 67.5335 48.2154C67.5332 48.1944 67.538 48.1737 67.5474 48.155C67.5568 48.1362 67.5706 48.1199 67.5875 48.1076C67.6045 48.0952 67.6241 48.087 67.6449 48.0837L67.4446 47.9998L66.3351 47.5402C66.3077 47.6063 66.3048 47.68 66.3271 47.748Z" fill="black"/>
<path opacity="0.2" d="M67.4448 47.9808L76.2367 50.6504C76.8656 50.8422 77.4384 50.7383 77.6426 50.3986L78.3916 49.0998L82.5332 41.9061L78.668 49.1517L86.2503 51.5496C86.2803 51.6226 86.2803 51.7044 86.2503 51.7774L78.672 49.1877L77.8269 50.7863C77.6346 51.15 76.9978 51.2499 76.3369 51.0261L75.1352 50.6264L71.29 57.7961C71.2524 57.7823 71.2182 57.7605 71.1898 57.7322C71.1615 57.7039 71.1396 57.6698 71.1258 57.6322L71.0657 57.4764L75.1112 50.5945L67.4448 47.9808Z" fill="black"/>
<path d="M86.8971 48.7366C86.789 49.1972 85.76 49.3507 84.5989 49.0793C83.4378 48.8079 82.6583 47.919 82.7665 47.4583C83.1105 46.6242 84.0345 47.1869 85.1956 47.4582C86.3567 47.7296 87.0053 48.2759 86.8971 48.7366Z" fill="#FFA8A7"/>
</svg>
