<svg width="29" height="15" viewBox="0 0 29 15" fill="none" xmlns="http://www.w3.org/2000/svg">
<path d="M6.34363 14.2813C5.20842 14.281 4.09407 13.9551 3.11683 13.3376C2.13959 12.7201 1.33526 11.8336 0.787758 10.7706C0.240252 9.70752 -0.0303708 8.50691 0.00411939 7.29397C0.0386096 6.08103 0.376949 4.90021 0.983843 3.87468C1.59074 2.84915 2.44395 2.0165 3.45447 1.46358C4.46499 0.910659 5.5958 0.657733 6.72893 0.731186C7.86206 0.80464 8.95599 1.20178 9.8966 1.88118C10.8372 2.56058 11.5901 3.49734 12.0766 4.59375H25.3749L28.0936 7.5L25.3749 10.4063L23.5624 8.46875L21.7499 10.4063L19.9374 8.46875L18.1249 10.4063L16.3124 8.46875L14.4999 10.4063H12.0766C11.562 11.5659 10.7501 12.5456 9.73526 13.2316C8.72043 13.9175 7.54432 14.2815 6.34363 14.2813V14.2813ZM4.53113 9.4375C5.01184 9.4375 5.47285 9.23337 5.81276 8.87002C6.15267 8.50667 6.34363 8.01386 6.34363 7.5C6.34363 6.98614 6.15267 6.49333 5.81276 6.12998C5.47285 5.76663 5.01184 5.5625 4.53113 5.5625C4.05043 5.5625 3.58941 5.76663 3.2495 6.12998C2.90959 6.49333 2.71863 6.98614 2.71863 7.5C2.71863 8.01386 2.90959 8.50667 3.2495 8.87002C3.58941 9.23337 4.05043 9.4375 4.53113 9.4375V9.4375Z" fill="white"/>
</svg>
