<svg width="15" height="15" viewBox="0 0 15 15" fill="none" xmlns="http://www.w3.org/2000/svg">
<path d="M13.9775 10.932C14.1727 10.7368 14.1727 10.4202 13.9775 10.2249L10.7955 7.04293C10.6002 6.84766 10.2836 6.84766 10.0884 7.04293C9.89312 7.23819 9.89312 7.55477 10.0884 7.75003L12.9168 10.5785L10.0884 13.4069C9.89311 13.6021 9.89311 13.9187 10.0884 14.114C10.2836 14.3093 10.6002 14.3093 10.7955 14.114L13.9775 10.932ZM1.35146 10.5784L0.851464 10.5784C0.851464 10.711 0.904142 10.8382 0.99791 10.932C1.09168 11.0258 1.21885 11.0784 1.35146 11.0784L1.35146 10.5784ZM0.851501 0.497557L0.851464 10.5784L1.85146 10.5784L1.8515 0.49756L0.851501 0.497557ZM1.35146 11.0784L13.6239 11.0785L13.6239 10.0785L1.35146 10.0784L1.35146 11.0784Z" fill="#BCBBBB"/>
</svg>
