<svg width="20" height="17" viewBox="0 0 20 17" fill="none" xmlns="http://www.w3.org/2000/svg">
<path d="M18.2323 10.932C18.4276 10.7368 18.4276 10.4202 18.2323 10.2249L15.0504 7.04293C14.8551 6.84766 14.5385 6.84766 14.3433 7.04293C14.148 7.23819 14.148 7.55477 14.3433 7.75003L17.1717 10.5785L14.3433 13.4069C14.148 13.6021 14.148 13.9187 14.3433 14.114C14.5385 14.3093 14.8551 14.3093 15.0504 14.114L18.2323 10.932ZM5.60635 10.5784L5.10635 10.5784C5.10635 10.711 5.15902 10.8382 5.25279 10.932C5.34656 11.0258 5.47374 11.0784 5.60635 11.0784L5.60635 10.5784ZM5.10638 0.497557L5.10635 10.5784L6.10635 10.5784L6.10638 0.49756L5.10638 0.497557ZM5.60635 11.0784L17.8788 11.0785L17.8788 10.0785L5.60635 10.0784L5.60635 11.0784Z" fill="#BCBBBB"/>
</svg>
