<svg width="21" height="18" viewBox="0 0 21 18" fill="none" xmlns="http://www.w3.org/2000/svg">
<path fill-rule="evenodd" clip-rule="evenodd" d="M7.83926 13.528C9.49837 15.162 12.1767 15.1476 13.8179 13.4966L17.6964 9.59487C19.3376 7.94385 19.324 5.27755 17.6649 3.64352C16.0064 2.01017 13.327 2.02426 11.6859 3.67528L7.80735 7.57704C6.16616 9.22806 6.18081 11.8947 7.83926 13.528Z" fill="white"/>
<path fill-rule="evenodd" clip-rule="evenodd" d="M6.47934 14.8959C8.89625 17.2762 12.8001 17.2557 15.1916 14.85L19.0702 10.9482C21.4616 8.54239 21.4408 4.65656 19.0239 2.27624C16.607 -0.104077 12.7031 -0.0836113 10.3116 2.32218L6.43304 6.22394C4.04157 8.62974 4.06242 12.5156 6.47934 14.8959ZM7.83897 13.5281C9.49811 15.1622 12.1764 15.1477 13.8176 13.4967L17.6961 9.59497C19.3373 7.94398 19.3238 5.27766 17.6646 3.64363C16.0062 2.01031 13.3268 2.02439 11.6856 3.67539L7.80706 7.57717C6.16587 9.22816 6.18051 11.8948 7.83897 13.5281Z" fill="#7F7F7F"/>
<path fill-rule="evenodd" clip-rule="evenodd" d="M13.9828 13.3306C15.6761 11.7176 15.4312 9.1052 13.7667 7.46297L9.91855 3.66771C8.25401 2.02608 5.56319 2.03836 3.91393 3.69522C2.26468 5.35266 2.27702 8.0305 3.94157 9.67274L7.78909 13.4674C10.76 16.3474 10.7882 16.3059 12.0852 15.1195C12.8479 14.4223 13.1761 14.0991 13.9828 13.3306Z" fill="white"/>
<path fill-rule="evenodd" clip-rule="evenodd" d="M15.3193 14.7211C17.8071 12.3518 17.5728 8.50919 15.1273 6.09725L11.2792 2.30201C8.85661 -0.0871294 4.94154 -0.069591 2.5407 2.34176C0.140462 4.75311 0.158671 8.65066 2.58123 11.0398L6.43467 14.8409C7.85614 16.2184 8.70341 16.9816 9.29524 17.3335C9.88356 17.6835 10.3879 17.7981 10.8406 17.8045C11.5998 17.8156 12.3637 17.479 13.3935 16.5369C14.1674 15.8291 14.5009 15.5013 15.3193 14.7211ZM13.983 13.3313C15.6763 11.7183 15.4315 9.1059 13.7669 7.46366L9.91876 3.66837C8.25421 2.02673 5.56331 2.03901 3.91404 3.69586C2.26475 5.35331 2.27708 8.03115 3.94163 9.67338L7.78921 13.4681C10.7602 16.3481 10.7884 16.3066 12.0853 15.1202C12.8481 14.423 13.1763 14.0998 13.983 13.3313Z" fill="#7F7F7F"/>
</svg>
