<svg width="108" height="94" viewBox="0 0 108 94" fill="none" xmlns="http://www.w3.org/2000/svg">
<path fill-rule="evenodd" clip-rule="evenodd" d="M37.7784 70.352C46.6223 79.1025 60.8988 79.0254 69.6469 70.184L90.321 49.2893C99.0691 40.4479 98.9967 26.1694 90.1529 17.4189C81.3128 8.67199 67.0306 8.74749 58.2825 17.5889L37.6084 38.4836C28.8603 47.325 28.9383 61.6052 37.7784 70.352Z" fill="white"/>
<path fill-rule="evenodd" clip-rule="evenodd" d="M30.5309 77.6773C43.4139 90.424 64.2232 90.315 76.9707 77.4313L97.6448 56.5366C110.392 43.6532 110.281 22.8439 97.398 10.0968C84.515 -2.65023 63.7057 -2.54063 50.9583 10.3428L30.2842 31.2375C17.5367 44.1209 17.6479 64.9302 30.5309 77.6773ZM37.7782 70.3526C46.6221 79.1031 60.8986 79.026 69.6467 70.1846L90.3208 49.2899C99.0689 40.4485 98.9965 26.17 90.1527 17.4195C81.3126 8.67257 67.0304 8.74807 58.2823 17.5895L37.6082 38.4842C28.8601 47.3256 28.9381 61.6058 37.7782 70.3526Z" fill="#FF9721"/>
<path fill-rule="evenodd" clip-rule="evenodd" d="M70.5251 69.2915C79.5511 60.6535 78.246 46.6638 69.3732 37.8694L48.861 17.5451C39.9883 8.75377 25.6448 8.81957 16.8536 17.6924C8.06231 26.5683 8.12812 40.9086 17.0009 49.703L37.5099 70.0241C53.3463 85.4472 53.4965 85.225 60.41 78.8716C64.4755 75.1379 66.2249 73.4071 70.5251 69.2915Z" fill="white"/>
<path fill-rule="evenodd" clip-rule="evenodd" d="M77.6482 76.7353C90.9088 64.0474 89.66 43.4695 76.6247 30.5533L56.1124 10.229C43.1992 -2.56521 22.3302 -2.47131 9.53274 10.4419C-3.26155 23.3551 -3.16448 44.2271 9.74879 57.0213L30.2892 77.3769C37.8663 84.7536 42.3825 88.841 45.5373 90.725C48.6733 92.6 51.3617 93.213 53.7747 93.248C57.8214 93.307 61.8932 91.504 67.3827 86.4593C71.5077 82.6692 73.2854 80.9134 77.6482 76.7353ZM70.5249 69.2928C79.551 60.6548 78.2459 46.665 69.3731 37.8706L48.8609 17.5462C39.9881 8.75489 25.6445 8.82059 16.8532 17.6934C8.06179 26.5692 8.12754 40.9096 17.0003 49.704L37.5095 70.0252C53.3459 85.4484 53.4962 85.2262 60.4097 78.8729C64.4752 75.1391 66.2247 73.4083 70.5249 69.2928Z" fill="#FF9721"/>
</svg>
