<svg width="66" height="57" viewBox="0 0 66 57" fill="none" xmlns="http://www.w3.org/2000/svg">
<path d="M47 48C32.0065 61.5732 27.4045 55.4521 19.5 47.5L23.4466 43.5107C31.8657 53.2725 33.0928 56.0798 42.9998 43.4059L55.6846 30.3706C61.0521 24.8548 61.0077 15.9471 55.5815 10.488C50.1576 5.03119 41.3946 5.0783 36.0271 10.5941L31.5334 6.07318C39.3547 -1.96424 52.1224 -2.03262 60.0269 5.91971C67.9314 13.8721 67.9995 26.8541 60.1783 34.8915L47 48Z" fill="#FF9721"/>
<path fill-rule="evenodd" clip-rule="evenodd" d="M48.1867 46.8297C56.4159 39.0159 55.6409 26.3429 47.5515 18.3884L34.8221 5.87165C26.8084 -2.0077 13.8576 -1.94987 5.91576 6.00276C-2.02409 13.9554 -1.96385 26.8095 6.04983 34.6888L18.7968 47.2249C23.4989 51.7678 26.3016 54.2851 28.2594 55.4453C30.2055 56.6001 31.8739 56.9776 33.3713 56.9991C35.8826 57.0355 38.4095 55.9251 41.8161 52.8183C44.376 50.4842 45.4792 49.4028 48.1867 46.8297ZM43.7661 42.2463C49.3675 36.9265 48.5576 28.3109 43.0513 22.8948L30.3219 10.378C24.8157 4.96381 15.9144 5.00428 10.4587 10.4686C5.00292 15.9348 5.04372 24.7664 10.55 30.1824L23.2775 42.6973C33.1052 52.1957 33.1985 52.0589 37.4889 48.1462C40.0118 45.8467 41.0975 44.7808 43.7661 42.2463Z" fill="#FF9721"/>
</svg>
