<svg width="197" height="34" viewBox="0 0 197 34" fill="none" xmlns="http://www.w3.org/2000/svg">
<path d="M57.4737 24.1936C57.4737 24.3398 57.4686 24.4678 57.4596 24.5774C57.4506 24.687 57.4319 24.783 57.4048 24.8652C57.3862 24.9475 57.3585 25.0206 57.3218 25.0845C57.2851 25.1485 57.2207 25.2262 57.1286 25.3175C57.0371 25.4089 56.8439 25.5505 56.5495 25.7424C56.2552 25.9252 55.8874 26.1079 55.4462 26.2907C55.0141 26.4643 54.513 26.6105 53.943 26.7293C53.382 26.8572 52.7657 26.9211 52.0946 26.9211C50.936 26.9211 49.888 26.7293 48.9503 26.3455C48.0216 25.9617 47.2262 25.3952 46.5641 24.6459C45.9113 23.8967 45.4056 22.9738 45.047 21.8773C44.6977 20.7716 44.5229 19.5016 44.5229 18.067C44.5229 16.5959 44.7115 15.2847 45.0884 14.1333C45.4746 12.982 46.0125 12.0089 46.702 11.2139C47.3917 10.4098 48.2148 9.79761 49.1706 9.37728C50.136 8.95696 51.2026 8.74683 52.3703 8.74683C52.8855 8.74683 53.3865 8.79707 53.8741 8.89756C54.361 8.98896 54.8118 9.10775 55.2253 9.25394C55.6394 9.40013 56.0072 9.56917 56.3286 9.76106C56.6507 9.95295 56.8715 10.1128 56.9907 10.2408C57.1195 10.3596 57.202 10.451 57.2393 10.5149C57.276 10.5789 57.3037 10.6566 57.3218 10.7479C57.3495 10.8301 57.3675 10.9307 57.3771 11.0494C57.3952 11.1682 57.4048 11.3099 57.4048 11.4743C57.4048 11.6571 57.3952 11.8124 57.3771 11.9404C57.3585 12.0683 57.3308 12.1779 57.2941 12.2693C57.2574 12.3515 57.2116 12.4155 57.1563 12.4612C57.1105 12.4977 57.0506 12.516 56.9772 12.516C56.8484 12.516 56.6687 12.4292 56.4393 12.2556C56.2094 12.0729 55.9106 11.8764 55.5428 11.6662C55.1841 11.4469 54.7429 11.2505 54.2187 11.0769C53.7035 10.8941 53.0832 10.8027 52.3567 10.8027C51.5658 10.8027 50.8444 10.9626 50.1914 11.2825C49.548 11.5931 48.996 12.0546 48.5362 12.6668C48.0769 13.279 47.7182 14.0282 47.4606 14.9146C47.2126 15.7918 47.0883 16.7969 47.0883 17.9299C47.0883 19.0539 47.2075 20.0498 47.447 20.9179C47.695 21.7768 48.0447 22.4986 48.495 23.0834C48.9548 23.6591 49.5158 24.0977 50.1778 24.3992C50.8393 24.6916 51.589 24.8378 52.4256 24.8378C53.1335 24.8378 53.7498 24.751 54.274 24.5774C54.8073 24.4038 55.2575 24.2119 55.6253 24.0017C56.0021 23.7824 56.3105 23.586 56.5495 23.4124C56.7885 23.2388 56.9772 23.152 57.115 23.152C57.1794 23.152 57.2342 23.1657 57.2805 23.1931C57.3263 23.2205 57.363 23.2753 57.3907 23.3576C57.4184 23.4307 57.437 23.5358 57.4461 23.6728C57.4641 23.8098 57.4737 23.9835 57.4737 24.1936ZM72.4015 26.3592C72.4015 26.4323 72.3835 26.4963 72.3467 26.5511C72.3191 26.5968 72.2637 26.6379 72.1812 26.6745C72.0982 26.711 71.988 26.7384 71.8502 26.7567C71.7214 26.775 71.5604 26.7841 71.3672 26.7841C71.1559 26.7841 70.9814 26.775 70.8435 26.7567C70.7147 26.7384 70.6091 26.711 70.526 26.6745C70.4526 26.6379 70.4018 26.5968 70.3746 26.5511C70.347 26.4963 70.3328 26.4323 70.3328 26.3592V24.7282C69.625 25.5048 68.9262 26.0714 68.2364 26.4277C67.5473 26.7841 66.8485 26.9623 66.1401 26.9623C65.313 26.9623 64.6142 26.8252 64.0437 26.5511C63.4833 26.277 63.028 25.9069 62.6783 25.4409C62.3292 24.9658 62.0761 24.4175 61.9202 23.7961C61.7727 23.1657 61.6993 22.4027 61.6993 21.5072V14.0237C61.6993 13.9506 61.7128 13.8912 61.7405 13.8455C61.7772 13.7907 61.8416 13.745 61.9337 13.7085C62.0258 13.6628 62.145 13.6354 62.2924 13.6262C62.4393 13.6079 62.6235 13.5988 62.8438 13.5988C63.0647 13.5988 63.2488 13.6079 63.3957 13.6262C63.5426 13.6354 63.6578 13.6628 63.7403 13.7085C63.8324 13.745 63.8968 13.7907 63.9335 13.8455C63.9702 13.8912 63.9889 13.9506 63.9889 14.0237V21.2057C63.9889 21.9276 64.0391 22.5078 64.1403 22.9463C64.251 23.3758 64.412 23.7459 64.6233 24.0566C64.8436 24.3581 65.1198 24.5957 65.4509 24.7693C65.7819 24.9338 66.1677 25.016 66.6089 25.016C67.1795 25.016 67.745 24.815 68.3054 24.413C68.8759 24.0109 69.4781 23.4215 70.1125 22.6448V14.0237C70.1125 13.9506 70.1261 13.8912 70.1538 13.8455C70.1905 13.7907 70.2549 13.745 70.347 13.7085C70.4385 13.6628 70.5537 13.6354 70.6916 13.6262C70.8384 13.6079 71.0271 13.5988 71.257 13.5988C71.4779 13.5988 71.6615 13.6079 71.8089 13.6262C71.9558 13.6354 72.0705 13.6628 72.1535 13.7085C72.236 13.745 72.2959 13.7907 72.3326 13.8455C72.379 13.8912 72.4015 13.9506 72.4015 14.0237V26.3592ZM85.2748 14.8323C85.2748 15.0334 85.2702 15.2024 85.2612 15.3394C85.2522 15.4765 85.2335 15.5862 85.2058 15.6684C85.1787 15.7415 85.1414 15.8009 85.0957 15.8466C85.059 15.8832 85.0036 15.9014 84.9302 15.9014C84.8567 15.9014 84.7647 15.8832 84.6545 15.8466C84.5534 15.8009 84.4336 15.7598 84.2958 15.7232C84.167 15.6776 84.0201 15.6364 83.8546 15.5999C83.6891 15.5633 83.5094 15.5451 83.3168 15.5451C83.0869 15.5451 82.8615 15.5907 82.6406 15.6821C82.4203 15.7735 82.1858 15.9243 81.9373 16.1344C81.6983 16.3446 81.4458 16.6233 81.1791 16.9705C80.9125 17.3177 80.6182 17.7426 80.2962 18.2452V26.3592C80.2962 26.4323 80.2775 26.4963 80.2408 26.5511C80.2041 26.5968 80.1442 26.6379 80.0618 26.6745C79.9787 26.711 79.864 26.7384 79.7172 26.7567C79.5697 26.775 79.3816 26.7841 79.1517 26.7841C78.9308 26.7841 78.7466 26.775 78.5998 26.7567C78.4529 26.7384 78.3331 26.711 78.241 26.6745C78.1586 26.6379 78.0987 26.5968 78.062 26.5511C78.0343 26.4963 78.0207 26.4323 78.0207 26.3592V14.0237C78.0207 13.9506 78.0343 13.8912 78.062 13.8455C78.0896 13.7907 78.1444 13.745 78.2275 13.7085C78.31 13.6628 78.4162 13.6354 78.5444 13.6262C78.6732 13.6079 78.8432 13.5988 79.0551 13.5988C79.2573 13.5988 79.4228 13.6079 79.5516 13.6262C79.6895 13.6354 79.7951 13.6628 79.8686 13.7085C79.942 13.745 79.9928 13.7907 80.0205 13.8455C80.0572 13.8912 80.0753 13.9506 80.0753 14.0237V15.8192C80.416 15.3257 80.7329 14.9237 81.0272 14.613C81.3305 14.3024 81.6158 14.0602 81.8825 13.8866C82.1491 13.7039 82.4107 13.5805 82.6683 13.5166C82.9349 13.4435 83.2015 13.4069 83.4682 13.4069C83.5879 13.4069 83.7213 13.416 83.8681 13.4343C84.0246 13.4435 84.1856 13.4663 84.3511 13.5029C84.5167 13.5394 84.6635 13.5805 84.7923 13.6262C84.9302 13.6719 85.0268 13.7175 85.0821 13.7632C85.1369 13.8089 85.1736 13.8546 85.1923 13.9003C85.2109 13.9369 85.2245 13.9871 85.2335 14.0511C85.2522 14.1151 85.2612 14.211 85.2612 14.3389C85.2702 14.4577 85.2748 14.6222 85.2748 14.8323ZM98.052 26.3729C98.052 26.4826 98.0152 26.5648 97.9412 26.6196C97.8678 26.6745 97.7667 26.7156 97.6379 26.743C97.5091 26.7704 97.321 26.7841 97.0724 26.7841C96.8334 26.7841 96.6402 26.7704 96.4934 26.743C96.3555 26.7156 96.2544 26.6745 96.19 26.6196C96.1256 26.5648 96.0934 26.4826 96.0934 26.3729V25.1394C95.5511 25.715 94.9438 26.1627 94.2727 26.4826C93.6106 26.8023 92.9073 26.9623 92.1627 26.9623C91.5097 26.9623 90.9165 26.8754 90.3833 26.7019C89.8596 26.5374 89.4088 26.2952 89.032 25.9755C88.6642 25.6556 88.3744 25.2627 88.1632 24.7967C87.9609 24.3307 87.8598 23.8007 87.8598 23.2068C87.8598 22.5123 88.0022 21.9093 88.2874 21.3976C88.5722 20.8859 88.9812 20.461 89.5144 20.1229C90.0477 19.7848 90.7007 19.5335 91.473 19.3691C92.2452 19.1954 93.114 19.1087 94.0795 19.1087H95.79V18.1492C95.79 17.6741 95.7392 17.2538 95.6381 16.8882C95.537 16.5228 95.3714 16.2212 95.1415 15.9837C94.9212 15.737 94.6314 15.5542 94.2727 15.4354C93.914 15.3075 93.4728 15.2435 92.9485 15.2435C92.3881 15.2435 91.882 15.312 91.4317 15.4491C90.9905 15.577 90.5996 15.7232 90.2596 15.8877C89.9285 16.0431 89.6477 16.1892 89.4178 16.3263C89.1975 16.4542 89.032 16.5182 88.9218 16.5182C88.8478 16.5182 88.7834 16.4999 88.7286 16.4634C88.6733 16.4268 88.623 16.372 88.5767 16.2989C88.54 16.2258 88.5123 16.1344 88.4942 16.0247C88.4756 15.906 88.4665 15.7781 88.4665 15.641C88.4665 15.4126 88.4801 15.2344 88.5078 15.1065C88.5445 14.9694 88.623 14.8415 88.7422 14.7227C88.871 14.6039 89.0874 14.4669 89.3907 14.3115C89.6941 14.147 90.0432 14.0008 90.4386 13.8729C90.8341 13.7359 91.2662 13.6262 91.7351 13.544C92.204 13.4526 92.6774 13.4069 93.1559 13.4069C94.0473 13.4069 94.806 13.5074 95.4313 13.7085C96.0567 13.9094 96.5623 14.2064 96.9487 14.5993C97.3345 14.9831 97.6153 15.4628 97.7898 16.0385C97.9644 16.6141 98.052 17.2857 98.052 18.0533V26.3729ZM95.79 20.7397H93.8451C93.2203 20.7397 92.6774 20.7945 92.2181 20.9042C91.7583 21.0047 91.3764 21.16 91.073 21.3702C90.7697 21.5712 90.5443 21.8179 90.3974 22.1103C90.2596 22.3935 90.1906 22.7225 90.1906 23.0971C90.1906 23.7367 90.3929 24.2485 90.7973 24.6322C91.2109 25.0069 91.7859 25.1942 92.5215 25.1942C93.1191 25.1942 93.6705 25.0434 94.1761 24.7419C94.6913 24.4404 95.2291 23.9789 95.79 23.3576V20.7397Z" fill="white"/>
<path d="M57.4046 24.8652L57.1362 24.7764L57.1317 24.7902L57.1283 24.8043L57.4046 24.8652ZM57.3215 25.0844L57.0763 24.9452L57.3215 25.0844ZM56.5493 25.7424L56.699 25.9804L56.7041 25.977L56.5493 25.7424ZM55.446 26.2906L55.5516 26.5509L55.5544 26.5497L55.446 26.2906ZM53.9427 26.7292L53.8845 26.4544L53.8794 26.4556L53.9427 26.7292ZM48.95 26.3454L48.8416 26.6046L48.8421 26.605L48.95 26.3454ZM46.5639 24.6459L46.3504 24.8296L46.3517 24.8311L46.5639 24.6459ZM45.0468 21.8772L44.7773 21.9614L44.7781 21.964L45.0468 21.8772ZM45.0882 14.1333L44.8202 14.0445L44.8196 14.0464L45.0882 14.1333ZM46.7018 11.2139L46.9158 11.3972L46.9169 11.3959L46.7018 11.2139ZM49.1703 9.37722L49.0574 9.1201L49.0562 9.12055L49.1703 9.37722ZM53.8738 8.8975L53.8162 9.17242L53.8213 9.17338L53.8738 8.8975ZM56.9905 10.2407L56.7837 10.4317L56.7905 10.4393L56.7984 10.4464L56.9905 10.2407ZM57.3215 10.7478L57.0447 10.8029L57.0481 10.82L57.0537 10.8366L57.3215 10.7478ZM57.3769 11.0494L57.095 11.0709L57.0961 11.0815L57.0978 11.0921L57.3769 11.0494ZM57.2938 12.2692L57.552 12.3833L57.5543 12.3784L57.556 12.3735L57.2938 12.2692ZM57.156 12.4611L57.3328 12.6804L57.3368 12.6768L57.156 12.4611ZM56.4391 12.2555L56.2622 12.4748L56.2679 12.479L56.4391 12.2555ZM55.5425 11.6662L55.3945 11.9052L55.3979 11.9074L55.4013 11.9095L55.5425 11.6662ZM54.2184 11.0768L54.1235 11.3412L54.1291 11.3431L54.2184 11.0768ZM50.1911 11.2824L50.3143 11.5349L50.316 11.5341L50.1911 11.2824ZM48.5359 12.6667L48.7625 12.8346L48.5359 12.6667ZM47.4603 14.9145L47.1892 14.8366L47.1886 14.8385L47.4603 14.9145ZM47.4468 20.9178L47.1739 20.9919L47.1751 20.9953L47.4468 20.9178ZM48.4947 23.0834L48.2704 23.2541L48.2733 23.2579L48.4947 23.0834ZM50.1776 24.3991L50.0595 24.6544L50.0629 24.6557L50.1776 24.3991ZM54.2738 24.5773L54.1856 24.3106L54.1839 24.3111L54.2738 24.5773ZM55.625 24.0017L55.7657 24.245L55.768 24.2439L55.625 24.0017ZM57.2803 23.193L57.4255 22.9524L57.2803 23.193ZM57.3904 23.3575L57.1227 23.4463L57.1244 23.4512L57.1261 23.456L57.3904 23.3575ZM57.4458 23.6727L57.1639 23.6914L57.1645 23.7006L57.1656 23.7099L57.4458 23.6727ZM57.191 24.1936C57.191 24.3344 57.1865 24.4542 57.178 24.554L57.7407 24.6006C57.7508 24.4812 57.7559 24.3452 57.7559 24.1936H57.191ZM57.178 24.554C57.1701 24.6471 57.1554 24.7202 57.1362 24.7764L57.6723 24.9539C57.7085 24.8457 57.7305 24.7269 57.7407 24.6006L57.178 24.554ZM57.1283 24.8043C57.1153 24.8629 57.0972 24.9089 57.0763 24.9452L57.5667 25.2237C57.6192 25.1321 57.6565 25.0319 57.6802 24.9261L57.1283 24.8043ZM57.0763 24.9452C57.0577 24.9771 57.0142 25.0341 56.9289 25.119L57.3283 25.5159C57.4266 25.4181 57.5113 25.3197 57.5667 25.2237L57.0763 24.9452ZM56.9289 25.119C56.86 25.1871 56.6905 25.3143 56.3944 25.5077L56.7041 25.977C56.9961 25.7867 57.2131 25.6306 57.3283 25.5159L56.9289 25.119ZM56.3995 25.5043C56.1221 25.6766 55.7691 25.8526 55.3369 26.0315L55.5544 26.5497C56.0052 26.3631 56.3877 26.1737 56.699 25.9804L56.3995 25.5043ZM55.3397 26.0304C54.9268 26.1964 54.4421 26.3383 53.8845 26.4545L54.0003 27.0039C54.5828 26.8826 55.1008 26.732 55.5516 26.5508L55.3397 26.0304ZM53.8794 26.4556C53.3422 26.5781 52.7479 26.6404 52.0943 26.6404V27.2018C52.7835 27.2018 53.4207 27.1362 54.0054 27.0028L53.8794 26.4556ZM52.0943 26.6404C50.9673 26.6404 49.9567 26.4538 49.0574 26.0859L48.8421 26.605C49.8189 27.0046 50.9041 27.2018 52.0943 27.2018V26.6404ZM49.0585 26.0863C48.1693 25.7189 47.4095 25.1776 46.7761 24.4607L46.3517 24.8311C47.0423 25.6126 47.8733 26.2045 48.8416 26.6046L49.0585 26.0863ZM46.7774 24.4621C46.153 23.7454 45.6642 22.8571 45.3154 21.7905L44.7781 21.964C45.1465 23.0904 45.6691 24.0478 46.3504 24.8296L46.7774 24.4621ZM45.3163 21.7931C44.9772 20.7203 44.8051 19.4795 44.8051 18.0669H44.2402C44.2402 19.5235 44.4176 20.8229 44.7773 21.9614L45.3163 21.7931ZM44.8051 18.0669C44.8051 16.6192 44.9907 15.3381 45.3568 14.2201L44.8196 14.0464C44.4317 15.231 44.2402 16.5725 44.2402 18.0669H44.8051ZM45.3561 14.222C45.7325 13.1001 46.2536 12.1604 46.9158 11.3972L46.4879 11.0306C45.7708 11.8572 45.2162 12.8638 44.8202 14.0445L45.3561 14.222ZM46.9169 11.3959C47.5795 10.6234 48.3682 10.0369 49.285 9.63395L49.0562 9.12055C48.0608 9.55816 47.2033 10.1961 46.4868 11.0318L46.9169 11.3959ZM49.2839 9.63435C50.2098 9.2312 51.2374 9.02747 52.37 9.02747V8.46606C51.1679 8.46606 50.0618 8.68265 49.0574 9.1201L49.2839 9.63435ZM52.37 9.02747C52.8666 9.02747 53.3484 9.07586 53.8162 9.17237L53.9309 8.6227C53.4241 8.51816 52.9038 8.46606 52.37 8.46606V9.02747ZM53.8213 9.17338C54.2958 9.26236 54.7319 9.37762 55.1307 9.51836L55.32 8.9894C54.8906 8.83777 54.4257 8.71544 53.9258 8.62169L53.8213 9.17338ZM55.1307 9.51836C55.5296 9.65933 55.8798 9.82084 56.1832 10.0017L56.4735 9.52032C56.1334 9.31738 55.7482 9.14082 55.32 8.9894L55.1307 9.51836ZM56.1832 10.0017C56.5018 10.1918 56.6928 10.3348 56.7837 10.4317L57.1978 10.0497C57.0492 9.89079 56.799 9.71401 56.4735 9.52032L56.1832 10.0017ZM56.7984 10.4464C56.9272 10.5651 56.9803 10.6311 56.9933 10.6541L57.4842 10.3756C57.4238 10.2707 57.3113 10.1539 57.1825 10.035L56.7984 10.4464ZM56.9933 10.6541C57.0119 10.686 57.0306 10.7336 57.0447 10.8029L57.5983 10.6928C57.5757 10.5793 57.539 10.4716 57.4842 10.3756L56.9933 10.6541ZM57.0537 10.8366C57.0718 10.8907 57.0871 10.9671 57.095 11.0709L57.6582 11.0279C57.648 10.8941 57.6266 10.7695 57.5893 10.6591L57.0537 10.8366ZM57.0978 11.0921C57.1131 11.1926 57.1221 11.3193 57.1221 11.4743H57.687C57.687 11.3003 57.6768 11.1437 57.6559 11.0067L57.0978 11.0921ZM57.1221 11.4743C57.1221 11.6487 57.1131 11.79 57.0972 11.9006L57.6565 11.98C57.6774 11.8348 57.687 11.6653 57.687 11.4743H57.1221ZM57.0972 11.9006C57.0809 12.0128 57.0583 12.0996 57.0317 12.165L57.556 12.3735C57.6034 12.256 57.6356 12.1236 57.6565 11.98L57.0972 11.9006ZM57.0357 12.1552C57.0119 12.2082 56.9893 12.2336 56.9752 12.2455L57.3368 12.6768C57.4328 12.5973 57.5023 12.4948 57.552 12.3833L57.0357 12.1552ZM56.9797 12.242C56.9826 12.2396 56.9854 12.2377 56.9882 12.2362C56.991 12.2348 56.9927 12.2341 56.9939 12.2339C56.995 12.2335 56.9905 12.2352 56.9769 12.2352V12.7966C57.0978 12.7966 57.2249 12.7658 57.3322 12.6803L56.9797 12.242ZM56.9769 12.2352C56.9724 12.2352 56.9396 12.2325 56.8696 12.1985C56.8018 12.1658 56.7159 12.1122 56.6097 12.032L56.2679 12.479C56.3916 12.5725 56.5103 12.649 56.6222 12.7032C56.7312 12.756 56.8526 12.7966 56.9769 12.7966V12.2352ZM56.6154 12.0363C56.3707 11.8417 56.0583 11.6373 55.6832 11.4228L55.4013 11.9095C55.7617 12.1154 56.0476 12.3039 56.2622 12.4747L56.6154 12.0363ZM55.6906 11.4271C55.3087 11.1936 54.8466 10.989 54.3077 10.8105L54.1291 11.3431C54.6387 11.5119 55.059 11.7001 55.3945 11.9052L55.6906 11.4271ZM54.3133 10.8125C53.7597 10.616 53.105 10.522 52.3564 10.522V11.0834C53.0603 11.0834 53.6473 11.1721 54.1235 11.3411L54.3133 10.8125ZM52.3564 10.522C51.526 10.522 50.7611 10.6902 50.0663 11.0306L50.316 11.5341C50.9267 11.235 51.6051 11.0834 52.3564 11.0834V10.522ZM50.068 11.0299C49.3805 11.3616 48.7947 11.8534 48.31 12.4989L48.7625 12.8346C49.1975 12.2557 49.7144 11.8245 50.3143 11.5349L50.068 11.0299ZM48.31 12.4989C47.8258 13.1431 47.4541 13.9244 47.1892 14.8366L47.7315 14.9924C47.9818 14.1319 48.3269 13.4147 48.7625 12.8346L48.31 12.4989ZM47.1886 14.8385C46.9316 15.7456 46.8055 16.7771 46.8055 17.9299H47.3705C47.3705 16.8165 47.4926 15.8379 47.7321 14.9905L47.1886 14.8385ZM46.8055 17.9299C46.8055 19.0729 46.9271 20.0946 47.1739 20.9919L47.7191 20.8437C47.488 20.0049 47.3705 19.0347 47.3705 17.9299H46.8055ZM47.1751 20.9953C47.431 21.8809 47.7942 22.6361 48.2704 23.254L48.719 22.9127C48.2942 22.361 47.9586 21.6725 47.7179 20.8403L47.1751 20.9953ZM48.2733 23.2579C48.7602 23.8676 49.3568 24.3341 50.0595 24.6544L50.2951 24.144C49.6742 23.8612 49.1483 23.4505 48.7161 22.9089L48.2733 23.2579ZM50.0629 24.6557C50.7657 24.9663 51.5554 25.1185 52.4254 25.1185V24.5571C51.6221 24.5571 50.9125 24.4168 50.2923 24.1426L50.0629 24.6557ZM52.4254 25.1185C53.1558 25.1185 53.8032 25.029 54.363 24.8437L54.1839 24.3111C53.6959 24.4729 53.1112 24.5571 52.4254 24.5571V25.1185ZM54.3613 24.8441C54.9076 24.6663 55.377 24.4672 55.7657 24.245L55.4844 23.7584C55.1375 23.9564 54.7059 24.1412 54.1856 24.3106L54.3613 24.8441ZM55.768 24.2439C56.1493 24.0219 56.4662 23.8201 56.7159 23.6389L56.3826 23.1857C56.1538 23.3517 55.8544 23.5429 55.4827 23.7594L55.768 24.2439ZM56.7159 23.6389C56.9509 23.4681 57.0752 23.4326 57.1148 23.4326V22.8712C56.8786 22.8712 56.6255 23.0094 56.3826 23.1857L56.7159 23.6389ZM57.1148 23.4326C57.1266 23.4326 57.1334 23.4339 57.1357 23.4345C57.1379 23.435 57.1374 23.4351 57.1351 23.4337L57.4255 22.9524C57.3277 22.8939 57.2198 22.8712 57.1148 22.8712V23.4326ZM57.1351 23.4337C57.1148 23.4216 57.1068 23.4096 57.1074 23.4104C57.1074 23.4107 57.1091 23.4135 57.1119 23.4197C57.1148 23.4258 57.1187 23.4345 57.1227 23.4463L57.6582 23.2688C57.622 23.1602 57.556 23.0301 57.4255 22.9524L57.1351 23.4337ZM57.1261 23.456C57.139 23.4911 57.1554 23.5643 57.1639 23.6914L57.7277 23.6541C57.7175 23.5071 57.6972 23.37 57.6548 23.2589L57.1261 23.456ZM57.1656 23.7099C57.182 23.8301 57.191 23.9902 57.191 24.1936H57.7559C57.7559 23.9767 57.7463 23.7896 57.7254 23.6356L57.1656 23.7099ZM72.3465 26.551L72.1115 26.3953L72.1075 26.4009L72.1041 26.4066L72.3465 26.551ZM71.8499 26.7566L71.8126 26.4784L71.8098 26.4788L71.8499 26.7566ZM70.8433 26.7566L70.8031 27.0345L70.806 27.0349L70.8433 26.7566ZM70.5258 26.6744L70.3992 26.9255L70.4054 26.9283L70.4111 26.9309L70.5258 26.6744ZM70.3744 26.551L70.1213 26.6766L70.1264 26.6862L70.132 26.6955L70.3744 26.551ZM70.3326 24.7281H70.615V24.0002L70.1236 24.5397L70.3326 24.7281ZM64.0434 26.551L63.9191 26.8029L63.9208 26.8037L64.0434 26.551ZM62.678 25.4408L62.4504 25.6064L62.452 25.6085L62.678 25.4408ZM61.9199 23.7961L61.6448 23.8595L61.6459 23.8642L61.9199 23.7961ZM61.7403 13.8454L61.5053 13.6898L61.5019 13.6953L61.4985 13.701L61.7403 13.8454ZM61.9335 13.7084L62.0385 13.969L62.0493 13.9647L62.06 13.9595L61.9335 13.7084ZM62.2922 13.6261L62.3097 13.9063L62.3187 13.9057L62.3272 13.9047L62.2922 13.6261ZM63.3955 13.6261L63.3604 13.9047L63.3689 13.9057L63.3779 13.9063L63.3955 13.6261ZM63.74 13.7084L63.6033 13.9537L63.6186 13.9624L63.6355 13.969L63.74 13.7084ZM63.9333 13.8454L63.6982 14.0012L63.705 14.0113L63.7129 14.0208L63.9333 13.8454ZM64.14 22.9463L63.8649 23.0091L63.8666 23.0157L64.14 22.9463ZM64.623 24.0565L64.3891 24.2138L64.3914 24.2178L64.3942 24.2216L64.623 24.0565ZM65.4506 24.7692L65.3184 25.0175L65.3241 25.0203L65.4506 24.7692ZM68.3051 24.4129L68.1418 24.184L68.1402 24.1852L68.3051 24.4129ZM70.1123 22.6448L70.3314 22.8217L70.3947 22.7444V22.6448H70.1123ZM70.1535 13.8454L69.9185 13.6898L69.9145 13.6953L69.9111 13.701L70.1535 13.8454ZM70.3467 13.7084L70.4512 13.969L70.4625 13.9647L70.4727 13.9595L70.3467 13.7084ZM70.6913 13.6261L70.7099 13.9062L70.7184 13.9057L70.7263 13.9047L70.6913 13.6261ZM71.8087 13.6261L71.7737 13.9047L71.7821 13.9057L71.7906 13.9063L71.8087 13.6261ZM72.1533 13.7084L72.016 13.9537L72.0273 13.9598L72.0386 13.9649L72.1533 13.7084ZM72.3324 13.8454L72.0974 14.0012L72.1132 14.0243L72.133 14.0439L72.3324 13.8454ZM72.1188 26.3591C72.1188 26.3831 72.1137 26.3916 72.1115 26.3953L72.5815 26.7067C72.6527 26.6008 72.6837 26.4813 72.6837 26.3591H72.1188ZM72.1041 26.4066C72.1137 26.3908 72.1211 26.3869 72.1149 26.3916C72.1087 26.3962 72.094 26.4057 72.0663 26.4179L72.2956 26.9309C72.3985 26.8854 72.5165 26.8143 72.5883 26.6955L72.1041 26.4066ZM72.0663 26.4179C72.0177 26.4394 71.9364 26.462 71.8126 26.4784L71.8872 27.0349C72.0392 27.0147 72.1787 26.9825 72.2956 26.9309L72.0663 26.4179ZM71.8098 26.4788C71.6991 26.4945 71.5528 26.5033 71.3669 26.5033V27.0647C71.568 27.0647 71.7432 27.0553 71.89 27.0345L71.8098 26.4788ZM71.3669 26.5033C71.1624 26.5033 71.0014 26.4944 70.8805 26.4784L70.806 27.0349C70.9608 27.0554 71.1489 27.0647 71.3669 27.0647V26.5033ZM70.8828 26.4788C70.7698 26.4627 70.6919 26.4404 70.6405 26.4179L70.4111 26.9309C70.5258 26.9814 70.6585 27.014 70.8031 27.0345L70.8828 26.4788ZM70.6523 26.4233C70.6297 26.4121 70.6173 26.4034 70.6116 26.3989C70.606 26.3945 70.6099 26.3964 70.6162 26.4066L70.132 26.6955C70.1981 26.8052 70.3015 26.8768 70.3992 26.9255L70.6523 26.4233ZM70.6269 26.4255C70.6224 26.4165 70.615 26.397 70.615 26.3591H70.0501C70.0501 26.4675 70.071 26.5759 70.1213 26.6766L70.6269 26.4255ZM70.615 26.3591V24.7281H70.0501V26.3591H70.615ZM70.1236 24.5397C69.4304 25.2999 68.7576 25.8421 68.1063 26.1786L68.3667 26.6767C69.0943 26.3006 69.8191 25.7097 70.5422 24.9166L70.1236 24.5397ZM68.1063 26.1786C67.4527 26.5163 66.7985 26.6815 66.1398 26.6815V27.2429C66.8979 27.2429 67.6408 27.0518 68.3667 26.6767L68.1063 26.1786ZM66.1398 26.6815C65.3427 26.6815 64.6885 26.5493 64.1666 26.2984L63.9208 26.8037C64.5388 27.101 65.2823 27.2429 66.1398 27.2429V26.6815ZM64.1682 26.2992C63.6446 26.0433 63.2254 25.701 62.9045 25.2731L62.452 25.6085C62.83 26.1127 63.3209 26.5105 63.9191 26.8029L64.1682 26.2992ZM62.9062 25.2752C62.5803 24.8318 62.3419 24.3173 62.1939 23.728L61.6459 23.8642C61.8103 24.5175 62.0775 25.0996 62.4504 25.6064L62.9062 25.2752ZM62.195 23.7327C62.0543 23.1292 61.9815 22.3888 61.9815 21.5072H61.4166C61.4166 22.4165 61.4911 23.202 61.6448 23.8595L62.195 23.7327ZM61.9815 21.5072V14.0236H61.4166V21.5072H61.9815ZM61.9815 14.0236C61.9815 14.0043 61.9832 13.9927 61.9849 13.9874C61.986 13.9822 61.986 13.9842 61.9826 13.9899L61.4985 13.701C61.4363 13.8037 61.4166 13.9178 61.4166 14.0236H61.9815ZM61.9753 14.0012C61.9719 14.0069 61.9707 14.0053 61.9803 13.9985C61.9905 13.9915 62.0086 13.981 62.0385 13.969L61.8284 13.4477C61.7081 13.4956 61.586 13.5696 61.5053 13.6898L61.9753 14.0012ZM62.06 13.9595C62.1063 13.9362 62.1854 13.914 62.3097 13.9063L62.2747 13.346C62.1046 13.3565 61.9442 13.3891 61.8075 13.4573L62.06 13.9595ZM62.3272 13.9047C62.4583 13.8884 62.63 13.8795 62.8435 13.8795V13.3181C62.6164 13.3181 62.4198 13.3274 62.2572 13.3476L62.3272 13.9047ZM62.8435 13.8795C63.0576 13.8795 63.2288 13.8884 63.3604 13.9047L63.4305 13.3476C63.2678 13.3274 63.0712 13.3181 62.8435 13.3181V13.8795ZM63.3779 13.9063C63.5039 13.9141 63.5717 13.9365 63.6033 13.9537L63.8773 13.463C63.7429 13.3888 63.5813 13.3565 63.413 13.346L63.3779 13.9063ZM63.6355 13.969C63.6655 13.981 63.6836 13.9915 63.6932 13.9985C63.7028 14.0053 63.7022 14.0069 63.6982 14.0012L64.1682 13.6898C64.088 13.5696 63.9654 13.4956 63.8451 13.4477L63.6355 13.969ZM63.7129 14.0208C63.7107 14.0178 63.7084 14.0149 63.7073 14.0121C63.7056 14.0094 63.705 14.0075 63.705 14.0068C63.7045 14.0055 63.7062 14.0103 63.7062 14.0236H64.2711C64.2711 13.903 64.24 13.7769 64.1541 13.6701L63.7129 14.0208ZM63.7062 14.0236V21.2057H64.2711V14.0236H63.7062ZM63.7062 21.2057C63.7062 21.9376 63.757 22.5413 63.8649 23.009L64.4157 22.8836C64.3213 22.4741 64.2711 21.9174 64.2711 21.2057H63.7062ZM63.8666 23.0157C63.9835 23.471 64.1564 23.872 64.3891 24.2138L64.8569 23.8992C64.6665 23.6197 64.5174 23.2805 64.414 22.8769L63.8666 23.0157ZM64.3942 24.2216C64.6405 24.5577 64.9495 24.8238 65.3184 25.0175L65.5822 24.521C65.2896 24.3674 65.0467 24.1584 64.8512 23.8914L64.3942 24.2216ZM65.3241 25.0203C65.7014 25.2077 66.1319 25.2967 66.6087 25.2967V24.7353C66.2031 24.7353 65.8619 24.6597 65.5766 24.5182L65.3241 25.0203ZM66.6087 25.2967C67.2499 25.2967 67.8718 25.0696 68.4706 24.6405L68.1402 24.1852C67.617 24.5603 67.1081 24.7353 66.6087 24.7353V25.2967ZM68.4689 24.6418C69.0666 24.2201 69.6874 23.6103 70.3314 22.8217L69.8925 22.4679C69.2683 23.2327 68.6842 23.8015 68.1418 24.184L68.4689 24.6418ZM70.3947 22.6448V14.0236H69.8298V22.6448H70.3947ZM70.3947 14.0236C70.3947 14.0043 70.3964 13.9927 70.3975 13.9874C70.3987 13.9822 70.3992 13.9842 70.3958 13.9899L69.9111 13.701C69.849 13.8037 69.8298 13.9178 69.8298 14.0236H70.3947ZM70.3885 14.0012C70.3845 14.0069 70.384 14.0053 70.3936 13.9985C70.4032 13.9915 70.4213 13.981 70.4512 13.969L70.2416 13.4477C70.1213 13.4956 69.9993 13.5696 69.9185 13.6898L70.3885 14.0012ZM70.4727 13.9595C70.5218 13.9351 70.5975 13.9137 70.7099 13.9062L70.6727 13.3461C70.5094 13.3568 70.3552 13.3903 70.2202 13.4573L70.4727 13.9595ZM70.7263 13.9047C70.8574 13.8884 71.0331 13.8795 71.2568 13.8795V13.3181C71.0206 13.3181 70.8195 13.3273 70.6563 13.3476L70.7263 13.9047ZM71.2568 13.8795C71.4709 13.8795 71.642 13.8884 71.7737 13.9047L71.8437 13.3476C71.6805 13.3274 71.4839 13.3181 71.2568 13.3181V13.8795ZM71.7906 13.9063C71.9172 13.9141 71.9849 13.9365 72.016 13.9537L72.2906 13.463C72.1561 13.3888 71.994 13.3565 71.8262 13.346L71.7906 13.9063ZM72.0386 13.9649C72.0895 13.9875 72.0996 14.004 72.0974 14.0012L72.5674 13.6898C72.4922 13.5773 72.3821 13.5024 72.268 13.4519L72.0386 13.9649ZM72.133 14.0439C72.1307 14.042 72.1284 14.0392 72.1262 14.0356C72.1239 14.032 72.1217 14.0283 72.1205 14.025C72.1183 14.0181 72.1188 14.0164 72.1188 14.0236H72.6837C72.6837 13.8868 72.6385 13.7524 72.5323 13.647L72.133 14.0439ZM72.1188 14.0236V26.3591H72.6837V14.0236H72.1188ZM85.2056 15.6684L85.4705 15.7669L85.4722 15.7621L85.4739 15.7571L85.2056 15.6684ZM84.6542 15.8466L84.5373 16.1021L84.5509 16.1082L84.565 16.1128L84.6542 15.8466ZM84.2955 15.7232L84.2006 15.9875L84.2113 15.9914L84.2226 15.9944L84.2955 15.7232ZM81.937 16.1344L81.754 15.9207L81.75 15.9241L81.937 16.1344ZM80.2959 18.2451L80.0575 18.0944L80.0135 18.1634V18.2451H80.2959ZM80.2406 26.551L80.4615 26.7264L80.4688 26.7168L80.4756 26.7067L80.2406 26.551ZM78.2408 26.6744L78.1261 26.9309L78.1312 26.933L78.1363 26.935L78.2408 26.6744ZM78.0617 26.551L77.8092 26.6766L77.8222 26.7031L77.8408 26.7264L78.0617 26.551ZM78.0617 13.8454L78.3041 13.9899L78.3097 13.9806L78.3142 13.971L78.0617 13.8454ZM78.2272 13.7084L78.3419 13.9649L78.3532 13.9598L78.3645 13.9537L78.2272 13.7084ZM78.5441 13.6261L78.5645 13.9061L78.5746 13.9054L78.5842 13.904L78.5441 13.6261ZM79.5514 13.6261L79.5113 13.904L79.522 13.9055L79.5322 13.9062L79.5514 13.6261ZM79.8683 13.7084L79.7186 13.9464L79.7299 13.9535L79.7423 13.9595L79.8683 13.7084ZM80.0203 13.8454L79.7677 13.971L79.7807 13.9976L79.7994 14.0208L80.0203 13.8454ZM80.0751 15.8191H79.7926V16.7254L80.3084 15.9778L80.0751 15.8191ZM81.0269 14.613L80.8241 14.4174L80.8213 14.4206L81.0269 14.613ZM81.8822 13.8866L82.037 14.1214L82.0421 14.1177L81.8822 13.8866ZM82.668 13.5165L82.7369 13.7889L82.7431 13.7871L82.668 13.5165ZM83.8679 13.4343L83.8328 13.7128L83.8425 13.714L83.8515 13.7145L83.8679 13.4343ZM84.7921 13.6261L84.6972 13.8906L84.7028 13.8924L84.7921 13.6261ZM85.192 13.9003L84.9299 14.0045L84.9339 14.0154L84.9395 14.0258L85.192 13.9003ZM85.2333 14.051L84.9536 14.0907L84.9565 14.1097L84.9615 14.1282L85.2333 14.051ZM85.2609 14.3389H84.9785V14.3496L84.9796 14.3604L85.2609 14.3389ZM84.992 14.8323C84.992 15.0297 84.9875 15.192 84.9791 15.3207L85.5428 15.3581C85.5524 15.2127 85.557 15.037 85.557 14.8323H84.992ZM84.9791 15.3207C84.9706 15.4461 84.9548 15.5293 84.9378 15.5796L85.4739 15.7571C85.5123 15.643 85.5327 15.5069 85.5428 15.3581L84.9791 15.3207ZM84.9412 15.5698C84.9248 15.6131 84.9079 15.636 84.896 15.648L85.2954 16.045C85.3751 15.9657 85.4315 15.8699 85.4705 15.7669L84.9412 15.5698ZM84.896 15.648C84.9118 15.632 84.9282 15.6244 84.9373 15.6214C84.9452 15.6188 84.944 15.6206 84.9299 15.6206V16.1821C85.0468 16.1821 85.1869 16.1528 85.2954 16.045L84.896 15.648ZM84.9299 15.6206C84.8994 15.6206 84.8395 15.6121 84.7435 15.5802L84.565 16.1128C84.6893 16.154 84.8135 16.1821 84.9299 16.1821V15.6206ZM84.7712 15.591C84.6525 15.5374 84.5175 15.4915 84.3684 15.4519L84.2226 15.9944C84.3497 16.028 84.4537 16.0643 84.5373 16.1021L84.7712 15.591ZM84.3904 15.4588C84.2486 15.4084 84.0899 15.3643 83.9153 15.3258L83.7927 15.8738C83.9498 15.9084 84.0854 15.9465 84.2006 15.9875L84.3904 15.4588ZM83.9153 15.3258C83.7272 15.2843 83.5272 15.2643 83.3165 15.2643V15.8257C83.4916 15.8257 83.6504 15.8423 83.7927 15.8738L83.9153 15.3258ZM83.3165 15.2643C83.0476 15.2643 82.7855 15.3179 82.5319 15.423L82.7493 15.9412C82.9369 15.8635 83.125 15.8257 83.3165 15.8257V15.2643ZM82.5319 15.423C82.2765 15.5288 82.0172 15.698 81.754 15.9207L82.1206 16.3481C82.3539 16.1504 82.5635 16.0181 82.7493 15.9412L82.5319 15.423ZM81.75 15.9241C81.493 16.1499 81.228 16.4434 80.9541 16.8002L81.4032 17.1408C81.6625 16.803 81.9031 16.5392 82.1246 16.3446L81.75 15.9241ZM80.9541 16.8002C80.6812 17.1555 80.3824 17.5874 80.0575 18.0944L80.5343 18.3958C80.8529 17.8978 81.1427 17.4798 81.4032 17.1408L80.9541 16.8002ZM80.0135 18.2451V26.3591H80.5784V18.2451H80.0135ZM80.0135 26.3591C80.0135 26.3831 80.0084 26.3916 80.0056 26.3953L80.4756 26.7067C80.5468 26.6008 80.5784 26.4813 80.5784 26.3591H80.0135ZM80.0203 26.3757C80.0225 26.373 80.0203 26.3768 80.0078 26.3853C79.9954 26.3938 79.9756 26.4051 79.9468 26.4179L80.1762 26.9309C80.2801 26.885 80.3852 26.821 80.4615 26.7264L80.0203 26.3757ZM79.9468 26.4179C79.9005 26.4384 79.8163 26.4613 79.6819 26.4781L79.7519 27.0352C79.9112 27.0153 80.057 26.9835 80.1762 26.9309L79.9468 26.4179ZM79.6819 26.4781C79.5508 26.4944 79.3751 26.5033 79.1514 26.5033V27.0647C79.387 27.0647 79.5887 27.0554 79.7519 27.0352L79.6819 26.4781ZM79.1514 26.5033C78.9373 26.5033 78.7662 26.4944 78.6345 26.4781L78.5645 27.0352C78.7272 27.0554 78.9238 27.0647 79.1514 27.0647V26.5033ZM78.6345 26.4781C78.5006 26.4615 78.4074 26.4382 78.3459 26.4137L78.1363 26.935C78.2583 26.9837 78.404 27.0152 78.5645 27.0352L78.6345 26.4781ZM78.3555 26.4179C78.3266 26.4051 78.3074 26.3938 78.295 26.3853C78.2826 26.3768 78.2798 26.373 78.282 26.3757L77.8408 26.7264C77.9171 26.821 78.0222 26.885 78.1261 26.9309L78.3555 26.4179ZM78.3142 26.4255C78.3097 26.4165 78.3029 26.397 78.3029 26.3591H77.738C77.738 26.4675 77.7583 26.5759 77.8092 26.6766L78.3142 26.4255ZM78.3029 26.3591V14.0236H77.738V26.3591H78.3029ZM78.3029 14.0236C78.3029 14.0043 78.3046 13.9927 78.3057 13.9874C78.3069 13.9822 78.3074 13.9842 78.3041 13.9899L77.8194 13.701C77.7572 13.8037 77.738 13.9178 77.738 14.0236H78.3029ZM78.3142 13.971C78.308 13.9834 78.3018 13.9878 78.3046 13.9857C78.3074 13.9831 78.3182 13.9752 78.3419 13.9649L78.1125 13.4519C77.9967 13.5029 77.877 13.585 77.8092 13.7199L78.3142 13.971ZM78.3645 13.9537C78.4007 13.9338 78.4628 13.9134 78.5645 13.9061L78.5244 13.3462C78.3685 13.3572 78.2193 13.3916 78.0899 13.463L78.3645 13.9537ZM78.5842 13.904C78.6944 13.8884 78.8492 13.8795 79.0548 13.8795V13.3181C78.8368 13.3181 78.652 13.3273 78.5046 13.3483L78.5842 13.904ZM79.0548 13.8795C79.2503 13.8795 79.4011 13.8884 79.5113 13.904L79.5909 13.3483C79.444 13.3274 79.2638 13.3181 79.0548 13.3181V13.8795ZM79.5322 13.9062C79.6485 13.9139 79.7011 13.9356 79.7186 13.9464L80.018 13.4704C79.8881 13.3897 79.7293 13.3566 79.57 13.3461L79.5322 13.9062ZM79.7423 13.9595C79.7604 13.9685 79.7689 13.9753 79.7717 13.9778C79.774 13.9798 79.7711 13.9778 79.7677 13.971L80.2728 13.7199C80.2101 13.5952 80.105 13.512 79.9948 13.4573L79.7423 13.9595ZM79.7994 14.0208C79.7971 14.0178 79.7954 14.0149 79.7937 14.0121C79.7926 14.0094 79.7915 14.0075 79.7915 14.0068C79.7909 14.0055 79.7926 14.0103 79.7926 14.0236H80.3575C80.3575 13.903 80.3264 13.7769 80.2406 13.6701L79.7994 14.0208ZM79.7926 14.0236V15.8191H80.3575V14.0236H79.7926ZM80.3084 15.9778C80.6434 15.4919 80.9512 15.1022 81.2326 14.8054L80.8213 14.4206C80.514 14.745 80.1875 15.1595 79.8423 15.6605L80.3084 15.9778ZM81.2297 14.8085C81.5235 14.5076 81.7924 14.2804 82.037 14.1214L81.7274 13.6517C81.4382 13.8399 81.1371 14.097 80.8241 14.4175L81.2297 14.8085ZM82.0421 14.1177C82.2872 13.9499 82.5183 13.843 82.7364 13.7888L82.5996 13.2442C82.3031 13.3179 82.0104 13.4577 81.7218 13.6555L82.0421 14.1177ZM82.7431 13.7871C82.9866 13.7205 83.2278 13.6876 83.4679 13.6876V13.1262C83.1753 13.1262 82.8832 13.1664 82.5929 13.2459L82.7431 13.7871ZM83.4679 13.6876C83.5736 13.6876 83.695 13.6957 83.8328 13.7128L83.9029 13.1557C83.747 13.1363 83.6018 13.1262 83.4679 13.1262V13.6876ZM83.8515 13.7145C83.9916 13.7227 84.1373 13.7433 84.2893 13.7768L84.4119 13.2288C84.2328 13.1892 84.0571 13.1641 83.8848 13.1541L83.8515 13.7145ZM84.2893 13.7768C84.4463 13.8114 84.5814 13.8495 84.6972 13.8905L84.887 13.3618C84.7452 13.3114 84.5864 13.2672 84.4119 13.2288L84.2893 13.7768ZM84.7028 13.8924C84.8344 13.936 84.8881 13.9685 84.9011 13.9788L85.2626 13.5476C85.1649 13.4665 85.0254 13.4076 84.8813 13.3598L84.7028 13.8924ZM84.9011 13.9788C84.9169 13.9921 84.926 14.0017 84.9299 14.0071C84.9344 14.0123 84.9327 14.0116 84.9299 14.0045L85.4542 13.796C85.4123 13.6919 85.3383 13.6105 85.2626 13.5476L84.9011 13.9788ZM84.9395 14.0258C84.9384 14.0237 84.9406 14.0273 84.9435 14.0392C84.9469 14.0508 84.9502 14.0676 84.9536 14.0907L85.5129 14.0113C85.5016 13.9327 85.4824 13.8493 85.4445 13.7748L84.9395 14.0258ZM84.9615 14.1282C84.9689 14.1535 84.9785 14.2177 84.9785 14.3389H85.5434C85.5434 14.2042 85.5344 14.0765 85.505 13.9739L84.9615 14.1282ZM84.9796 14.3604C84.9875 14.4686 84.992 14.6248 84.992 14.8323H85.557C85.557 14.6194 85.5524 14.4467 85.5428 14.3173L84.9796 14.3604ZM96.4931 26.7429L96.4377 27.0182L96.4411 27.0188L96.4931 26.7429ZM96.0931 25.1393H96.3756V24.4289L95.887 24.9474L96.0931 25.1393ZM94.2724 26.4825L94.1504 26.2294L94.1493 26.23L94.2724 26.4825ZM90.383 26.7018L90.4711 26.435L90.4683 26.4341L90.383 26.7018ZM89.0317 25.9754L88.8459 26.1867L88.8481 26.1888L89.0317 25.9754ZM88.1629 24.7966L87.9036 24.9078L87.9053 24.912L88.1629 24.7966ZM91.4727 19.369L91.532 19.6435L91.5349 19.6428L91.4727 19.369ZM95.7898 19.1086V19.3893H96.0722V19.1086H95.7898ZM95.6378 16.8882L95.3655 16.9626L95.6378 16.8882ZM95.1413 15.9836L94.9305 16.1701L94.9339 16.1742L94.9379 16.1782L95.1413 15.9836ZM94.2724 15.4353L94.177 15.6996L94.1832 15.7017L94.2724 15.4353ZM91.4315 15.4491L91.5106 15.7186L91.514 15.7175L91.4315 15.4491ZM90.2593 15.8877L90.3796 16.1415L90.3824 16.1401L90.2593 15.8877ZM89.4176 16.3263L89.5599 16.5687L89.5633 16.5669L89.4176 16.3263ZM88.5764 16.2988L88.3239 16.4244L88.3301 16.4363L88.3369 16.4476L88.5764 16.2988ZM88.4939 16.0247L88.2149 16.0674L88.2154 16.0708L88.4939 16.0247ZM88.5075 15.1064L88.2346 15.0341L88.2329 15.0408L88.2313 15.0476L88.5075 15.1064ZM88.7419 14.7226L88.5499 14.5169L88.5459 14.5205L88.5425 14.5242L88.7419 14.7226ZM89.3905 14.3115L89.5198 14.5611L89.5255 14.5579L89.3905 14.3115ZM90.4384 13.8728L90.5259 14.1398L90.5316 14.1379L90.4384 13.8728ZM91.7348 13.5439L91.784 13.8204L91.7891 13.8194L91.7348 13.5439ZM95.4311 13.7084L95.3441 13.9755L95.4311 13.7084ZM96.9484 14.5993L96.7462 14.7954L96.7484 14.7977L96.9484 14.5993ZM95.7898 20.7396H96.0722V20.4589H95.7898V20.7396ZM92.2178 20.9041L92.2783 21.1783L92.2834 21.177L92.2178 20.9041ZM91.0728 21.3701L91.2298 21.6037L91.2343 21.6004L91.0728 21.3701ZM90.3971 22.1102L90.1446 21.9847L90.1429 21.988L90.3971 22.1102ZM90.7971 24.6322L90.6022 24.8353L90.6067 24.8397L90.7971 24.6322ZM94.1758 24.7418L94.0323 24.5L94.0306 24.5011L94.1758 24.7418ZM95.7898 23.3575L95.9999 23.5449L96.0722 23.465V23.3575H95.7898ZM97.7692 26.3729C97.7692 26.3968 97.7653 26.4045 97.7658 26.4027C97.7664 26.4019 97.767 26.4 97.7687 26.398C97.7704 26.3958 97.7721 26.3949 97.7715 26.395L98.1104 26.8441C98.2697 26.7254 98.3342 26.551 98.3342 26.3729H97.7692ZM97.7715 26.395C97.7416 26.4173 97.6834 26.4461 97.5783 26.4684L97.6969 27.0174C97.8495 26.9849 97.9935 26.9315 98.1104 26.8441L97.7715 26.395ZM97.5783 26.4684C97.4794 26.4895 97.315 26.5033 97.0721 26.5033V27.0647C97.3263 27.0647 97.5388 27.0511 97.6969 27.0174L97.5783 26.4684ZM97.0721 26.5033C96.8416 26.5033 96.6682 26.4899 96.5451 26.467L96.4411 27.0188C96.6123 27.0507 96.8247 27.0647 97.0721 27.0647V26.5033ZM96.5485 26.4677C96.4304 26.4442 96.3841 26.4157 96.3733 26.4064L96.0056 26.8327C96.1236 26.9331 96.2801 26.9868 96.4377 27.0181L96.5485 26.4677ZM96.3733 26.4064C96.375 26.408 96.3773 26.41 96.379 26.4123C96.3801 26.4146 96.3807 26.4158 96.3807 26.415C96.3796 26.4132 96.3756 26.401 96.3756 26.3729H95.8107C95.8107 26.538 95.861 26.7094 96.0056 26.8327L96.3733 26.4064ZM96.3756 26.3729V25.1393H95.8107V26.3729H96.3756ZM95.887 24.9474C95.3667 25.4994 94.7882 25.9256 94.1504 26.2294L94.3944 26.7356C95.0995 26.3998 95.7344 25.9305 96.2993 25.3312L95.887 24.9474ZM94.1493 26.23C93.5262 26.531 92.8647 26.6815 92.1625 26.6815V27.2429C92.9494 27.2429 93.6951 27.0736 94.3961 26.735L94.1493 26.23ZM92.1625 26.6815C91.5349 26.6815 90.9716 26.598 90.4711 26.435L90.2954 26.9686C90.8609 27.1528 91.4846 27.2429 92.1625 27.2429V26.6815ZM90.4683 26.4341C89.9763 26.2797 89.5605 26.0547 89.2153 25.7619L88.8481 26.1888C89.2571 26.5356 89.7418 26.7949 90.2983 26.9695L90.4683 26.4341ZM89.2176 25.7641C88.882 25.4722 88.616 25.1126 88.4205 24.6813L87.9053 24.912C88.1324 25.4128 88.4459 25.8389 88.8459 26.1866L89.2176 25.7641ZM88.4222 24.6855C88.2375 24.26 88.142 23.7689 88.142 23.2067H87.5771C87.5771 23.8325 87.6833 24.4012 87.9036 24.9078L88.4222 24.6855ZM88.142 23.2067C88.142 22.5509 88.2759 21.9964 88.534 21.5335L88.0398 21.2616C87.7274 21.822 87.5771 22.4736 87.5771 23.2067H88.142ZM88.534 21.5335C88.7945 21.0658 89.1696 20.6743 89.6661 20.3595L89.3622 19.8862C88.7928 20.2475 88.3493 20.7059 88.0398 21.2616L88.534 21.5335ZM89.6661 20.3595C90.165 20.0433 90.7847 19.8026 91.532 19.6435L91.4134 19.0946C90.6163 19.2643 89.93 19.5263 89.3622 19.8862L89.6661 20.3595ZM91.5349 19.6428C92.2834 19.4747 93.1307 19.3893 94.0792 19.3893V18.8279C93.0974 18.8279 92.2071 18.9161 91.4106 19.0952L91.5349 19.6428ZM94.0792 19.3893H95.7898V18.8279H94.0792V19.3893ZM96.0722 19.1086V18.1492H95.5073V19.1086H96.0722ZM96.0722 18.1492C96.0722 17.6549 96.0197 17.2087 95.9101 16.8138L95.3655 16.9626C95.4587 17.2987 95.5073 17.6931 95.5073 18.1492H96.0722ZM95.9101 16.8138C95.7988 16.41 95.6124 16.0651 95.3452 15.789L94.9379 16.1782C95.1305 16.3773 95.2752 16.6354 95.3655 16.9626L95.9101 16.8138ZM95.3525 15.7971C95.0949 15.5088 94.7611 15.3012 94.3617 15.1691L94.1832 15.7017C94.5012 15.8071 94.747 15.965 94.9305 16.1701L95.3525 15.7971ZM94.3679 15.1711C93.9696 15.029 93.494 14.9627 92.9483 14.9627V15.5241C93.4516 15.5241 93.8583 15.5858 94.177 15.6995L94.3679 15.1711ZM92.9483 14.9627C92.3647 14.9627 91.8309 15.034 91.349 15.1807L91.514 15.7175C91.9331 15.5899 92.4105 15.5241 92.9483 15.5241V14.9627ZM91.3524 15.1796C90.8988 15.311 90.4926 15.4626 90.1356 15.6352L90.3824 16.1401C90.7061 15.9838 91.0812 15.8429 91.5106 15.7186L91.3524 15.1796ZM90.1384 15.6338C89.8017 15.7918 89.5125 15.9423 89.2724 16.0855L89.5633 16.5669C89.7825 16.436 90.0542 16.2942 90.3796 16.1415L90.1384 15.6338ZM89.2758 16.0838C89.173 16.1433 89.0905 16.1837 89.0261 16.2085C88.9583 16.2347 88.9267 16.2375 88.9216 16.2375V16.7989C89.0261 16.7989 89.1329 16.7696 89.2306 16.7318C89.3317 16.6927 89.4419 16.6372 89.5599 16.5687L89.2758 16.0838ZM88.9216 16.2375C88.8973 16.2375 88.8888 16.2322 88.8849 16.2298L88.5713 16.6969C88.6781 16.7675 88.7984 16.7989 88.9216 16.7989V16.2375ZM88.8849 16.2298C88.8719 16.221 88.847 16.1993 88.8159 16.1501L88.3369 16.4476C88.3979 16.5445 88.4742 16.6325 88.5713 16.6969L88.8849 16.2298ZM88.8289 16.1733C88.8086 16.1324 88.7877 16.0698 88.7724 15.9785L88.2154 16.0708C88.2369 16.1989 88.2708 16.3191 88.3239 16.4244L88.8289 16.1733ZM88.773 15.982C88.7572 15.8792 88.7487 15.7657 88.7487 15.641H88.1838C88.1838 15.7904 88.194 15.9327 88.2149 16.0674L88.773 15.982ZM88.7487 15.641C88.7487 15.42 88.7623 15.2647 88.7837 15.1652L88.2313 15.0476C88.1979 15.204 88.1838 15.405 88.1838 15.641H88.7487ZM88.7804 15.1787C88.8024 15.0975 88.851 15.0115 88.9419 14.9211L88.5425 14.5242C88.394 14.6714 88.2866 14.8412 88.2346 15.0341L88.7804 15.1787ZM88.934 14.9283C89.034 14.8364 89.2215 14.7134 89.5198 14.561L89.2611 14.0619C88.9521 14.2201 88.7075 14.3713 88.5499 14.5169L88.934 14.9283ZM89.5255 14.5579C89.8108 14.4031 90.1441 14.2634 90.5259 14.1398L90.3508 13.6059C89.9424 13.7381 89.5763 13.8908 89.2549 14.065L89.5255 14.5579ZM90.5316 14.1379C90.9106 14.0064 91.3281 13.9003 91.784 13.8203L91.6857 13.2675C91.2038 13.352 90.757 13.4652 90.3452 13.6078L90.5316 14.1379ZM91.7891 13.8194C92.2404 13.7315 92.6958 13.6876 93.1556 13.6876V13.1262C92.659 13.1262 92.1676 13.1736 91.6806 13.2684L91.7891 13.8194ZM93.1556 13.6876C94.0278 13.6876 94.7549 13.786 95.3441 13.9755L95.5181 13.4413C94.8566 13.2287 94.0668 13.1262 93.1556 13.1262V13.6876ZM95.3441 13.9755C95.9338 14.1651 96.3976 14.4407 96.7462 14.7954L97.1501 14.4031C96.7264 13.972 96.1784 13.6537 95.5181 13.4413L95.3441 13.9755ZM96.7484 14.7977C97.0981 15.1454 97.3563 15.5833 97.519 16.1195L98.0602 15.9574C97.8732 15.3422 97.5704 14.8207 97.1478 14.4008L96.7484 14.7977ZM97.519 16.1195C97.6839 16.6627 97.7692 17.3059 97.7692 18.0532H98.3342C98.3342 17.2654 98.2443 16.5654 98.0602 15.9574L97.519 16.1195ZM97.7692 18.0532V26.3729H98.3342V18.0532H97.7692ZM95.7898 20.4589H93.8448V21.0203H95.7898V20.4589ZM93.8448 20.4589C93.2042 20.4589 92.6387 20.515 92.1518 20.6312L92.2834 21.177C92.7161 21.0739 93.2353 21.0203 93.8448 21.0203V20.4589ZM92.1568 20.6299C91.6704 20.7363 91.2524 20.9037 90.9112 21.1398L91.2343 21.6004C91.5004 21.4162 91.845 21.2729 92.2783 21.1783L92.1568 20.6299ZM90.9163 21.1365C90.5762 21.3617 90.3158 21.644 90.1446 21.9847L90.6496 22.2358C90.7722 21.9917 90.9626 21.7806 91.2298 21.6037L90.9163 21.1365ZM90.1429 21.988C89.9831 22.3159 89.9079 22.6881 89.9079 23.0971H90.4728C90.4728 22.7568 90.535 22.4711 90.6513 22.2325L90.1429 21.988ZM89.9079 23.0971C89.9079 23.8008 90.1328 24.3903 90.6022 24.8352L90.992 24.4291C90.6519 24.1064 90.4728 23.6726 90.4728 23.0971H89.9079ZM90.6067 24.8397C91.0869 25.2747 91.7377 25.4748 92.5212 25.4748V24.9134C91.8331 24.9134 91.3343 24.739 90.9875 24.4247L90.6067 24.8397ZM92.5212 25.4748C93.1692 25.4748 93.7714 25.3106 94.3216 24.9825L94.0306 24.5011C93.5697 24.7761 93.068 24.9134 92.5212 24.9134V25.4748ZM94.3193 24.9837C94.8673 24.6629 95.4271 24.1797 95.9999 23.5449L95.5796 23.1701C95.0305 23.778 94.5148 24.2176 94.0323 24.5L94.3193 24.9837ZM96.0722 23.3575V20.7396H95.5073V23.3575H96.0722Z" fill="white"/>
<path d="M119.803 13.9962C119.803 14.0419 119.793 14.0967 119.775 14.1607C119.765 14.2155 119.752 14.2795 119.734 14.3526L115.872 26.4277C115.853 26.5008 115.817 26.5602 115.761 26.6059C115.715 26.6516 115.651 26.6881 115.568 26.7155C115.486 26.7429 115.375 26.7612 115.238 26.7704C115.109 26.7795 114.952 26.7841 114.768 26.7841C114.575 26.7841 114.41 26.7749 114.272 26.7567C114.134 26.7475 114.019 26.7292 113.927 26.7018C113.844 26.6744 113.776 26.6379 113.72 26.5922C113.674 26.5465 113.642 26.4917 113.624 26.4277L110.727 16.6415L110.7 16.5319L110.672 16.6415L107.969 26.4277C107.951 26.5008 107.914 26.5602 107.859 26.6059C107.803 26.6516 107.725 26.6881 107.624 26.7155C107.532 26.7429 107.417 26.7612 107.28 26.7704C107.141 26.7795 106.985 26.7841 106.811 26.7841C106.627 26.7841 106.47 26.7749 106.341 26.7567C106.213 26.7475 106.102 26.7292 106.011 26.7018C105.928 26.6744 105.863 26.6379 105.818 26.5922C105.771 26.5465 105.739 26.4917 105.721 26.4277L101.887 14.3526C101.859 14.2886 101.836 14.2247 101.818 14.1607C101.808 14.0967 101.804 14.0419 101.804 13.9962C101.804 13.9322 101.818 13.8775 101.845 13.8318C101.873 13.7861 101.919 13.7541 101.984 13.7358C102.048 13.7084 102.13 13.6901 102.232 13.681C102.333 13.6719 102.457 13.6673 102.604 13.6673C102.797 13.6673 102.954 13.6764 103.073 13.6947C103.193 13.7038 103.28 13.7221 103.335 13.7495C103.399 13.7769 103.446 13.8135 103.473 13.8592C103.5 13.9048 103.524 13.9597 103.542 14.0236L106.838 24.8515L106.866 24.9474L106.893 24.8515L109.886 14.0236C109.904 13.9597 109.927 13.9048 109.955 13.8592C109.992 13.8135 110.038 13.7769 110.093 13.7495C110.157 13.7221 110.24 13.7038 110.341 13.6947C110.452 13.6764 110.589 13.6673 110.755 13.6673C110.911 13.6673 111.04 13.6764 111.141 13.6947C111.243 13.7038 111.325 13.7221 111.389 13.7495C111.454 13.7769 111.5 13.8135 111.527 13.8592C111.555 13.9048 111.578 13.9597 111.596 14.0236L114.823 24.8515L114.851 24.9474L114.865 24.8515L118.147 14.0236C118.166 13.9597 118.189 13.9048 118.216 13.8592C118.253 13.8135 118.304 13.7769 118.368 13.7495C118.432 13.7221 118.52 13.7038 118.63 13.6947C118.75 13.6764 118.902 13.6673 119.085 13.6673C119.232 13.6673 119.352 13.6719 119.444 13.681C119.536 13.6901 119.609 13.7084 119.664 13.7358C119.72 13.7632 119.756 13.7998 119.775 13.8455C119.793 13.882 119.803 13.9322 119.803 13.9962ZM135.172 20.0954C135.172 21.0823 135.043 21.9915 134.786 22.823C134.528 23.6545 134.142 24.3763 133.627 24.9885C133.122 25.6007 132.487 26.0805 131.724 26.4277C130.961 26.7658 130.074 26.9348 129.062 26.9348C128.088 26.9348 127.232 26.7841 126.497 26.4825C125.77 26.1719 125.159 25.7332 124.663 25.1667C124.175 24.5911 123.807 23.8967 123.559 23.0834C123.32 22.2702 123.201 21.3519 123.201 20.3285C123.201 19.3416 123.325 18.4325 123.573 17.601C123.83 16.7694 124.212 16.0522 124.718 15.4491C125.233 14.8369 125.871 14.3617 126.635 14.0236C127.398 13.6856 128.29 13.5165 129.311 13.5165C130.285 13.5165 131.135 13.6673 131.862 13.9688C132.597 14.2703 133.209 14.7089 133.696 15.2846C134.184 15.8511 134.551 16.541 134.799 17.3542C135.048 18.1675 135.172 19.0812 135.172 20.0954ZM133.434 20.2462C133.434 19.5426 133.365 18.871 133.227 18.2314C133.089 17.5918 132.859 17.0298 132.538 16.5456C132.216 16.0522 131.784 15.6638 131.242 15.3806C130.699 15.0882 130.023 14.9419 129.214 14.9419C128.469 14.9419 127.826 15.0744 127.283 15.3394C126.741 15.6044 126.295 15.9745 125.945 16.4496C125.605 16.9157 125.352 17.4685 125.187 18.1081C125.021 18.7477 124.938 19.4375 124.938 20.1777C124.938 20.8904 125.007 21.5712 125.146 22.2199C125.283 22.8595 125.513 23.4215 125.835 23.9057C126.157 24.3901 126.589 24.7738 127.131 25.0571C127.674 25.3404 128.35 25.4819 129.159 25.4819C129.903 25.4819 130.547 25.3495 131.09 25.0845C131.632 24.8195 132.074 24.454 132.414 23.988C132.763 23.522 133.02 22.9692 133.186 22.3295C133.351 21.6899 133.434 20.9955 133.434 20.2462ZM147.19 14.6541C147.19 14.7912 147.186 14.91 147.177 15.0105C147.167 15.1019 147.149 15.1795 147.121 15.2435C147.103 15.2983 147.075 15.344 147.038 15.3806C147.011 15.408 146.969 15.4216 146.914 15.4216C146.831 15.4216 146.735 15.4034 146.625 15.3669C146.515 15.3212 146.386 15.2755 146.238 15.2298C146.091 15.1841 145.93 15.143 145.756 15.1064C145.581 15.0607 145.388 15.0379 145.177 15.0379C144.928 15.0379 144.685 15.0927 144.446 15.2024C144.206 15.3029 143.954 15.4719 143.687 15.7095C143.43 15.9379 143.154 16.244 142.86 16.6278C142.574 17.0116 142.257 17.4822 141.908 18.0395V26.4277C141.908 26.4825 141.894 26.5328 141.866 26.5785C141.839 26.6242 141.793 26.6607 141.729 26.6881C141.673 26.7155 141.591 26.7384 141.481 26.7567C141.379 26.7749 141.246 26.7841 141.081 26.7841C140.924 26.7841 140.791 26.7749 140.681 26.7567C140.58 26.7384 140.496 26.7155 140.432 26.6881C140.368 26.6607 140.322 26.6242 140.294 26.5785C140.276 26.5328 140.267 26.4825 140.267 26.4277V14.0236C140.267 13.9688 140.276 13.9185 140.294 13.8728C140.322 13.8272 140.368 13.7907 140.432 13.7632C140.496 13.7267 140.574 13.7038 140.667 13.6947C140.768 13.6764 140.896 13.6673 141.053 13.6673C141.209 13.6673 141.338 13.6764 141.439 13.6947C141.54 13.7038 141.618 13.7267 141.673 13.7632C141.729 13.7907 141.765 13.8272 141.784 13.8728C141.812 13.9185 141.825 13.9688 141.825 14.0236V15.9836C142.184 15.4628 142.515 15.0425 142.818 14.7226C143.122 14.4028 143.411 14.1561 143.687 13.9825C143.963 13.7998 144.229 13.6764 144.487 13.6125C144.754 13.5485 145.025 13.5165 145.301 13.5165C145.42 13.5165 145.558 13.5256 145.715 13.5439C145.87 13.5531 146.036 13.5759 146.211 13.6125C146.395 13.649 146.556 13.6947 146.694 13.7495C146.841 13.7952 146.942 13.8409 146.997 13.8866C147.052 13.9232 147.089 13.9597 147.108 13.9962C147.126 14.0236 147.14 14.0647 147.149 14.1196C147.167 14.1653 147.177 14.2338 147.177 14.3252C147.186 14.4074 147.19 14.5171 147.19 14.6541ZM160.932 26.4003C160.932 26.4642 160.919 26.5191 160.891 26.5648C160.863 26.6104 160.818 26.6516 160.753 26.6881C160.689 26.7155 160.601 26.7384 160.491 26.7567C160.381 26.7749 160.238 26.7841 160.063 26.7841C159.88 26.7841 159.728 26.7749 159.608 26.7567C159.489 26.7475 159.383 26.7292 159.291 26.7018C159.208 26.6744 159.135 26.6379 159.07 26.5922C159.015 26.5465 158.96 26.4917 158.905 26.4277L153.057 19.3827V26.4277C153.057 26.4825 153.043 26.5328 153.016 26.5785C152.988 26.6242 152.942 26.6607 152.878 26.6881C152.823 26.7155 152.74 26.7384 152.63 26.7567C152.529 26.7749 152.395 26.7841 152.23 26.7841C152.073 26.7841 151.94 26.7749 151.83 26.7567C151.729 26.7384 151.646 26.7155 151.581 26.6881C151.517 26.6607 151.471 26.6242 151.443 26.5785C151.425 26.5328 151.416 26.4825 151.416 26.4277V7.95184C151.416 7.89699 151.425 7.84674 151.443 7.80105C151.471 7.75535 151.517 7.7188 151.581 7.6914C151.646 7.65486 151.729 7.63201 151.83 7.62286C151.94 7.60461 152.073 7.59546 152.23 7.59546C152.395 7.59546 152.529 7.60461 152.63 7.62286C152.74 7.63201 152.823 7.65486 152.878 7.6914C152.942 7.7188 152.988 7.75535 153.016 7.80105C153.043 7.84674 153.057 7.89699 153.057 7.95184V19.3553L158.312 14.0784C158.386 13.9962 158.459 13.9322 158.532 13.8866C158.615 13.8318 158.702 13.7907 158.795 13.7632C158.887 13.7267 158.992 13.7038 159.112 13.6947C159.231 13.6764 159.369 13.6673 159.526 13.6673C159.682 13.6673 159.815 13.6719 159.926 13.681C160.045 13.6901 160.141 13.7084 160.215 13.7358C160.289 13.7632 160.344 13.7998 160.381 13.8455C160.418 13.882 160.436 13.9322 160.436 13.9962C160.436 14.0876 160.408 14.179 160.353 14.2703C160.298 14.3526 160.201 14.4622 160.063 14.5993L155.071 19.2868L160.615 25.8657C160.734 26.0028 160.818 26.1079 160.863 26.181C160.91 26.2541 160.932 26.3272 160.932 26.4003Z" fill="white"/>
<path d="M26.551 28.9474C18.0809 36.5674 15.4812 33.131 11.0159 28.6667L13.2454 26.4271C18.0014 31.9074 18.6946 33.4834 24.2912 26.3682L31.457 19.0502C34.4892 15.9536 34.4641 10.9528 31.3987 7.888C28.3347 4.82453 23.3844 4.85098 20.3522 7.94757L17.8137 5.4095C22.232 0.897269 29.4447 0.85888 33.91 5.32335C38.3754 9.78785 38.4138 17.076 33.9955 21.5882L26.551 28.9474Z" fill="#FF9721"/>
<path fill-rule="evenodd" clip-rule="evenodd" d="M27.2213 28.2904C31.87 23.9037 31.4322 16.789 26.8624 12.3233L19.6714 5.29636C15.1444 0.87287 7.82833 0.905336 3.34189 5.36997C-1.14343 9.83461 -1.1094 17.0509 3.41762 21.4744L10.6185 28.5122C13.2748 31.0626 14.8581 32.4758 15.9641 33.1272C17.0635 33.7755 18.006 33.9874 18.8519 33.9995C20.2705 34.0199 21.698 33.3965 23.6224 31.6524C25.0685 30.342 25.6918 29.7349 27.2213 28.2904ZM24.724 25.7172C27.8883 22.7307 27.4308 17.8938 24.3202 14.8532L17.1292 7.82625C14.0187 4.7867 8.99024 4.80942 5.90825 7.87711C2.82621 10.9459 2.84926 15.9039 5.95983 18.9445L13.1497 25.9704C18.7015 31.3028 18.7542 31.226 21.1779 29.0294C22.6032 27.7385 23.2165 27.1401 24.724 25.7172Z" fill="#FF9721"/>
<path d="M170.018 7.89453C170.018 8.88281 169.799 9.66797 169.361 10.25C168.924 10.8281 168.336 11.1172 167.598 11.1172C166.715 11.1172 166.047 10.7891 165.594 10.1328L165.564 11H164.908V2H165.605V5.58008C166.051 4.88867 166.711 4.54297 167.586 4.54297C168.336 4.54297 168.928 4.83008 169.361 5.4043C169.799 5.97461 170.018 6.76953 170.018 7.78906V7.89453ZM169.314 7.77148C169.314 6.93555 169.152 6.29102 168.828 5.83789C168.504 5.38086 168.047 5.15234 167.457 5.15234C167.008 5.15234 166.627 5.26367 166.314 5.48633C166.002 5.70508 165.766 6.02734 165.605 6.45312V9.3125C165.957 10.1094 166.578 10.5078 167.469 10.5078C168.047 10.5078 168.498 10.2793 168.822 9.82227C169.15 9.36523 169.314 8.68164 169.314 7.77148ZM174.205 11.1172C173.666 11.1172 173.178 10.9844 172.741 10.7188C172.307 10.4531 171.969 10.084 171.727 9.61133C171.485 9.13477 171.364 8.60156 171.364 8.01172V7.75977C171.364 7.15039 171.481 6.60156 171.715 6.11328C171.953 5.625 172.284 5.24219 172.705 4.96484C173.127 4.68359 173.584 4.54297 174.076 4.54297C174.846 4.54297 175.455 4.80664 175.905 5.33398C176.358 5.85742 176.584 6.57422 176.584 7.48438V7.87695H172.061V8.01172C172.061 8.73047 172.266 9.33008 172.676 9.81055C173.09 10.2871 173.61 10.5254 174.235 10.5254C174.61 10.5254 174.94 10.457 175.225 10.3203C175.514 10.1836 175.776 9.96484 176.01 9.66406L176.45 9.99805C175.934 10.7441 175.186 11.1172 174.205 11.1172ZM174.076 5.14062C173.549 5.14062 173.104 5.33398 172.741 5.7207C172.381 6.10742 172.162 6.62695 172.084 7.2793H175.887V7.20312C175.867 6.59375 175.694 6.09766 175.366 5.71484C175.037 5.33203 174.608 5.14062 174.076 5.14062ZM179.219 3.03711V4.66016H180.532V5.23438H179.219V9.45898C179.219 9.81055 179.282 10.0723 179.407 10.2441C179.536 10.416 179.749 10.502 180.046 10.502C180.163 10.502 180.352 10.4824 180.614 10.4434L180.643 11.0176C180.46 11.084 180.21 11.1172 179.893 11.1172C179.413 11.1172 179.063 10.9785 178.844 10.7012C178.626 10.4199 178.516 10.0078 178.516 9.46484V5.23438H177.35V4.66016H178.516V3.03711H179.219ZM186.167 11C186.097 10.8008 186.052 10.5059 186.032 10.1152C185.786 10.4355 185.472 10.6836 185.089 10.8594C184.71 11.0312 184.308 11.1172 183.882 11.1172C183.272 11.1172 182.778 10.9473 182.399 10.6074C182.024 10.2676 181.837 9.83789 181.837 9.31836C181.837 8.70117 182.093 8.21289 182.604 7.85352C183.12 7.49414 183.837 7.31445 184.755 7.31445H186.026V6.59375C186.026 6.14062 185.886 5.78516 185.604 5.52734C185.327 5.26562 184.921 5.13477 184.386 5.13477C183.897 5.13477 183.493 5.25977 183.173 5.50977C182.853 5.75977 182.692 6.06055 182.692 6.41211L181.989 6.40625C181.989 5.90234 182.224 5.4668 182.692 5.09961C183.161 4.72852 183.737 4.54297 184.421 4.54297C185.128 4.54297 185.685 4.7207 186.091 5.07617C186.501 5.42773 186.712 5.91992 186.724 6.55273V9.55273C186.724 10.166 186.788 10.625 186.917 10.9297V11H186.167ZM183.964 10.4961C184.433 10.4961 184.851 10.3828 185.218 10.1562C185.589 9.92969 185.858 9.62695 186.026 9.24805V7.85352H184.772C184.073 7.86133 183.526 7.99023 183.132 8.24023C182.737 8.48633 182.54 8.82617 182.54 9.25977C182.54 9.61523 182.671 9.91016 182.933 10.1445C183.198 10.3789 183.542 10.4961 183.964 10.4961Z" fill="#F6F6F6"/>
</svg>
