<svg width="19" height="18" viewBox="0 0 19 18" fill="none" xmlns="http://www.w3.org/2000/svg">
<path d="M12.6285 10.6814C14.8324 7.63022 14.0953 3.40526 10.9832 1.24504C7.87108 -0.915187 3.56169 -0.193047 1.3583 2.85863C-0.845097 5.90978 -0.108526 10.1342 3.00413 12.2945C5.22542 13.8363 8.16223 13.955 10.5051 12.5985L15.5959 17.5595C16.1455 18.1268 17.06 18.1495 17.6387 17.6106C18.2173 17.0722 18.2405 16.1756 17.6913 15.6083C17.6739 15.5903 17.6571 15.5738 17.6387 15.5567L12.6285 10.6814ZM6.98919 11.1439C4.52992 11.1444 2.53607 9.19116 2.53449 6.78007C2.53397 4.36898 4.52624 2.41419 6.98603 2.41316C9.44215 2.41213 11.4349 4.36227 11.4397 6.77026C11.4439 9.18187 9.45268 11.1398 6.99235 11.1439C6.9913 11.1439 6.99077 11.1439 6.98919 11.1439Z" fill="#BCBBBB"/>
</svg>
