<svg width="19" height="18" viewBox="0 0 19 18" fill="none" xmlns="http://www.w3.org/2000/svg">
<path d="M10.0978 2.2509L17.527 6.0788L10.052 9.58019C9.68832 9.75052 9.26773 9.75014 8.90441 9.57913L1.46739 6.07882L8.85879 2.2521C9.24721 2.05101 9.70899 2.05056 10.0978 2.2509Z" stroke="#988F86" stroke-width="1.3" stroke-linecap="round" stroke-linejoin="round"/>
<path d="M10.3925 9.60868L15.1025 7.42308V14.1471C11.7727 15.8842 6.8656 15.8842 3.53584 14.1471V7.42308L8.24581 9.60868C8.92652 9.92456 9.71182 9.92456 10.3925 9.60868Z" stroke="#988F86" stroke-width="1.1"/>
<path d="M17.4166 6.32373V10.0107" stroke="#988F86"/>
<path d="M18.6 10.8482C18.6 11.3791 18.1325 11.8533 17.5 11.8533C16.8675 11.8533 16.4 11.3791 16.4 10.8482C16.4 10.3173 16.8675 9.84312 17.5 9.84312C18.1325 9.84312 18.6 10.3173 18.6 10.8482Z" fill="white" fill-opacity="0.5" stroke="#988F86" stroke-width="0.8"/>
</svg>
