<svg width="23" height="23" viewBox="0 0 23 23" fill="none" xmlns="http://www.w3.org/2000/svg">
<path d="M13.9643 9.79643H20.9464C21.8872 9.79643 22.65 10.5592 22.65 11.5C22.65 12.4408 21.8872 13.2036 20.9464 13.2036H13.9643C13.5442 13.2036 13.2036 13.5442 13.2036 13.9643V20.9464C13.2036 21.8872 12.4408 22.65 11.5 22.65C10.5592 22.65 9.79643 21.8872 9.79643 20.9464V13.9643C9.79643 13.5442 9.45583 13.2036 9.03571 13.2036H2.05357C1.11279 13.2036 0.35 12.4408 0.35 11.5C0.35 10.5592 1.11279 9.79643 2.05357 9.79643H9.03571C9.45583 9.79643 9.79643 9.45583 9.79643 9.03571V2.05357C9.79643 1.11279 10.5592 0.35 11.5 0.35C12.4408 0.35 13.2036 1.11279 13.2036 2.05357V9.03571C13.2036 9.45583 13.5442 9.79643 13.9643 9.79643Z" fill="#FF9721" stroke="white" stroke-width="0.7"/>
</svg>
