<svg width="19" height="20" viewBox="0 0 19 20" fill="none" xmlns="http://www.w3.org/2000/svg">
<path fill-rule="evenodd" clip-rule="evenodd" d="M1.96101 11.2806C2.25645 12.9055 3.16347 14.683 5.00319 16.4743L3.81945 17.69C1.77335 15.6977 0.660788 13.6149 0.291557 11.5841C-0.077683 9.55319 0.308394 7.63811 1.15246 6.00625C2.8125 2.79686 6.30727 0.58219 9.53945 0.690315C12.8358 0.696811 16.2813 2.832 17.8989 6.01131C18.7187 7.62268 19.0743 9.51168 18.699 11.5299C18.3241 13.5457 17.231 15.6345 15.2452 17.674L14.0295 16.4903C15.8273 14.6439 16.7282 12.8469 17.0308 11.2197C17.3329 9.59489 17.0495 8.08376 16.3865 6.78075C15.041 4.13612 12.1545 2.38713 9.52437 2.38713H9.50923L9.49409 2.38659C7.00398 2.29765 4.06477 4.06919 2.65961 6.78582C1.96978 8.11949 1.66559 9.65567 1.96101 11.2806Z" fill="#988F86"/>
<path fill-rule="evenodd" clip-rule="evenodd" d="M5.63314 8.58196C5.01642 10.0986 5.23077 12.0673 7.21552 13.7814L6.10644 15.0656C3.5918 12.8939 3.16029 10.1586 4.0613 7.9428C4.93705 5.7891 7.06803 4.16724 9.52422 4.16724C11.9435 4.16724 14.1228 5.78344 15.0347 7.93076C15.9797 10.1562 15.5577 12.9051 12.9278 15.0776L11.8471 13.7694C13.9212 12.0561 14.1128 10.101 13.4728 8.594C12.7997 7.00886 11.1953 5.86406 9.52422 5.86406C7.82545 5.86406 6.27511 7.0032 5.63314 8.58196Z" fill="#988F86"/>
<path d="M11.7738 10.1284C11.7738 11.3708 10.7666 12.3781 9.52412 12.3781C8.28164 12.3781 7.27441 11.3708 7.27441 10.1284C7.27441 8.88589 8.28164 7.87866 9.52412 7.87866C10.7666 7.87866 11.7738 8.88589 11.7738 10.1284Z" fill="#988F86"/>
<path fill-rule="evenodd" clip-rule="evenodd" d="M9.52412 11.9067C10.5063 11.9067 11.3025 11.1105 11.3025 10.1284C11.3025 9.1462 10.5063 8.35 9.52412 8.35C8.54195 8.35 7.74575 9.1462 7.74575 10.1284C7.74575 11.1105 8.54195 11.9067 9.52412 11.9067ZM9.52412 12.3781C10.7666 12.3781 11.7738 11.3708 11.7738 10.1284C11.7738 8.88589 10.7666 7.87866 9.52412 7.87866C8.28164 7.87866 7.27441 8.88589 7.27441 10.1284C7.27441 11.3708 8.28164 12.3781 9.52412 12.3781Z" fill="white"/>
<path d="M5.0249 18.4846C5.0249 16.3546 6.75158 14.6279 8.88154 14.6279H10.1671C12.297 14.6279 14.0237 16.3546 14.0237 18.4846V18.4846C14.0237 18.8396 13.7359 19.1273 13.3809 19.1273H5.66768C5.31268 19.1273 5.0249 18.8396 5.0249 18.4846V18.4846Z" fill="#988F86"/>
<path fill-rule="evenodd" clip-rule="evenodd" d="M10.1671 15.0993H8.88154C7.01189 15.0993 5.49624 16.6149 5.49624 18.4846C5.49624 18.5792 5.573 18.656 5.66768 18.656H13.3809C13.4756 18.656 13.5524 18.5792 13.5524 18.4846C13.5524 16.6149 12.0367 15.0993 10.1671 15.0993ZM8.88154 14.6279C6.75158 14.6279 5.0249 16.3546 5.0249 18.4846C5.0249 18.8396 5.31268 19.1273 5.66768 19.1273H13.3809C13.7359 19.1273 14.0237 18.8396 14.0237 18.4846C14.0237 16.3546 12.297 14.6279 10.1671 14.6279H8.88154Z" fill="white"/>
</svg>
