<svg width="19" height="19" viewBox="0 0 19 19" fill="none" xmlns="http://www.w3.org/2000/svg">
<path d="M10.025 2.26273L17.6453 6.37998L9.9852 10.1425C9.66475 10.2999 9.28938 10.2995 8.96923 10.1415L1.34775 6.38001L8.92967 2.26383C9.27116 2.07844 9.68316 2.07802 10.025 2.26273Z" stroke="#988F86" stroke-width="1.7" stroke-linecap="round" stroke-linejoin="round"/>
<path d="M10.5005 9.87008L15.1263 7.74255V14.159C11.7515 15.8313 6.86772 15.8313 3.49294 14.159V7.74255L8.11873 9.87008C8.87459 10.2177 9.74463 10.2177 10.5005 9.87008Z" stroke="#988F86" stroke-width="1.7"/>
<path d="M17.5919 6.54126V10.3879" stroke="#988F86" stroke-width="1.2"/>
<path d="M18.4873 11.5897C18.4873 12.1261 18.0709 12.5322 17.5921 12.5322C17.1134 12.5322 16.697 12.1261 16.697 11.5897C16.697 11.0533 17.1134 10.6472 17.5921 10.6472C18.0709 10.6472 18.4873 11.0533 18.4873 11.5897Z" fill="white" fill-opacity="0.5" stroke="#988F86"/>
</svg>
