<svg width="19" height="20" viewBox="0 0 19 20" fill="none" xmlns="http://www.w3.org/2000/svg">
<path d="M4.86201 16.4759L3.81777 17.5484C1.82946 15.5893 0.75053 13.5495 0.389944 11.5662C0.025056 9.55924 0.406301 7.66649 1.24128 6.0522C2.88619 2.87205 6.34784 0.683603 9.53611 0.790259L9.53611 0.790309L9.53926 0.790315C12.7962 0.796733 16.2083 2.90909 17.8097 6.05665C18.6203 7.64986 18.9717 9.51659 18.6007 11.5116C18.2345 13.4809 17.1737 15.5272 15.2431 17.5324L14.1707 16.4882C15.9334 14.6555 16.8262 12.8668 17.1291 11.238C17.4356 9.59 17.1478 8.0566 16.4756 6.7354C15.1139 4.05895 12.194 2.28713 9.52437 2.28713H9.51101L9.49766 2.28665C6.96364 2.19614 3.99116 3.99384 2.57079 6.73988C1.87186 8.09113 1.56286 9.64964 1.86263 11.2984C2.15853 12.926 3.05786 14.6963 4.86201 16.4759Z" fill="#988F86" stroke="white" stroke-width="0.2"/>
<path d="M5.54051 8.54429C4.91502 10.0825 5.12856 12.0654 7.0749 13.7912L6.09648 14.9241C3.67996 12.7903 3.27871 10.1329 4.15393 7.98047C5.01594 5.86057 7.11275 4.26724 9.52422 4.26724C11.8994 4.26724 14.0448 5.85558 14.9426 7.96985C15.8605 10.1312 15.4693 12.8014 12.9409 14.9364L11.9875 13.7823C12.9898 12.9327 13.5472 12.0216 13.7746 11.129C14.0078 10.2142 13.8924 9.32625 13.5649 8.55492C12.8776 6.93653 11.2393 5.76406 9.52422 5.76406C7.78093 5.76406 6.1963 6.93153 5.54051 8.54429Z" fill="#988F86" stroke="white" stroke-width="0.2"/>
<path d="M11.7738 10.1284C11.7738 11.3708 10.7666 12.3781 9.52412 12.3781C8.28164 12.3781 7.27441 11.3708 7.27441 10.1284C7.27441 8.88589 8.28164 7.87866 9.52412 7.87866C10.7666 7.87866 11.7738 8.88589 11.7738 10.1284Z" fill="#988F86"/>
<path fill-rule="evenodd" clip-rule="evenodd" d="M9.52412 11.9067C10.5063 11.9067 11.3025 11.1105 11.3025 10.1284C11.3025 9.1462 10.5063 8.35 9.52412 8.35C8.54195 8.35 7.74575 9.1462 7.74575 10.1284C7.74575 11.1105 8.54195 11.9067 9.52412 11.9067ZM9.52412 12.3781C10.7666 12.3781 11.7738 11.3708 11.7738 10.1284C11.7738 8.88589 10.7666 7.87866 9.52412 7.87866C8.28164 7.87866 7.27441 8.88589 7.27441 10.1284C7.27441 11.3708 8.28164 12.3781 9.52412 12.3781Z" fill="white"/>
<path d="M8.88154 15.0279H10.1671C12.0761 15.0279 13.6237 16.5755 13.6237 18.4846C13.6237 18.6186 13.515 18.7273 13.3809 18.7273H5.66768C5.5336 18.7273 5.4249 18.6186 5.4249 18.4846C5.4249 16.5755 6.97249 15.0279 8.88154 15.0279Z" fill="#988F86" stroke="white" stroke-width="0.8"/>
</svg>
