<svg width="19" height="19" viewBox="0 0 19 19" fill="none" xmlns="http://www.w3.org/2000/svg">
<path d="M8.94878 1.62879L1.82474 8.15097C1.61783 8.3404 1.5 8.60803 1.5 8.88855V16C1.5 16.5523 1.94772 17 2.5 17H5.92373C6.47601 17 6.92373 16.5523 6.92373 16V12.7586C6.92373 12.2063 7.37145 11.7586 7.92373 11.7586H11.3475C11.8997 11.7586 12.3475 12.2063 12.3475 12.7586V16C12.3475 16.5523 12.7952 17 13.3475 17H16.5C17.0523 17 17.5 16.5523 17.5 16V8.8785C17.5 8.60385 17.387 8.3413 17.1876 8.15244L10.3117 1.64031C9.93075 1.27953 9.33576 1.2745 8.94878 1.62879Z" stroke="#988F86" stroke-width="1.3"/>
<line x1="9.58325" y1="6.19434" x2="9.58325" y2="9.13878" stroke="#988F86" stroke-width="1.5" stroke-linecap="round"/>
<line x1="8.02783" y1="7.53882" x2="10.9723" y2="7.53882" stroke="#988F86" stroke-width="1.5" stroke-linecap="round"/>
</svg>
