<svg width="29" height="21" viewBox="0 0 29 21" fill="none" xmlns="http://www.w3.org/2000/svg">
<path d="M8.79784 0C5.87909 0 3.50455 2.34703 3.50455 5.2319C3.50455 8.11676 5.87909 10.4638 8.79784 10.4638C11.7166 10.4638 14.0912 8.11676 14.0912 5.2319C14.0912 2.34703 11.7166 0 8.79784 0Z" fill="#FF9721"/>
<path d="M20.8323 0.747711C20.8204 0.747711 20.8083 0.747764 20.7963 0.747817C19.5714 0.757268 18.4273 1.2394 17.5747 2.1055C16.7371 2.9563 16.2817 4.0787 16.2921 5.26589C16.3027 6.45308 16.7779 7.5683 17.6304 8.40616C18.4897 9.25051 19.6279 9.71421 20.8392 9.71421C20.8514 9.71421 20.8635 9.71416 20.8758 9.71411C22.1007 9.70466 23.2448 9.22247 24.0974 8.35642C24.935 7.50563 25.3904 6.38322 25.38 5.19598C25.3582 2.73574 23.3216 0.747711 20.8323 0.747711Z" fill="#FF9721"/>
<path d="M21.0556 10.5717H20.6161C18.5691 10.5717 16.7011 11.2972 15.2907 12.4863C15.6436 12.7387 15.9795 13.0138 16.2978 13.3105C17.2369 14.186 17.9743 15.2061 18.4898 16.3424C18.9542 17.3657 19.2193 18.4439 19.281 19.5543H29V17.9771C29 13.894 25.4362 10.5717 21.0556 10.5717Z" fill="#FF9721"/>
<path d="M17.5784 19.5543C17.4181 17.1471 16.1092 15.0297 14.1556 13.6727C12.7345 12.6853 10.9719 12.1008 9.0625 12.1008H8.53348C3.82041 12.1009 0 15.6623 0 20.0559V21H17.5954V20.0559C17.5954 19.8875 17.5897 19.7201 17.5784 19.5543Z" fill="#FF9721"/>
</svg>
