<svg width="27" height="25" viewBox="0 0 27 25" fill="none"
                          xmlns="http://www.w3.org/2000/svg">
                          <rect x="2.41748" y="4.04654" width="17.9365" height="18.5752" rx="2.5"
                              stroke="#FF9721" stroke-width="3" />
                          <rect x="14.8174" y="2.492" width="7.81865" height="9.84769" fill="white" />
                          <rect x="1.25714" y="0.109937" width="16.1266" height="1.81166"
                              transform="matrix(0.756425 -0.654081 0.631413 0.775447 8.5283 14.6101)"
                              stroke="#FF9721" stroke-width="1.81166" />
                          <mask id="path-4-inside-1" fill="white">
                              <path
                                  d="M25.1036 1.6196C24.4719 0.843723 23.3462 0.745282 22.5893 1.39972L21.7851 2.09516L24.0729 4.90485L24.8771 4.20941C25.634 3.55497 25.7354 2.39547 25.1036 1.6196Z" />
                          </mask>
                          <path
                              d="M25.1036 1.6196C24.4719 0.843723 23.3462 0.745282 22.5893 1.39972L21.7851 2.09516L24.0729 4.90485L24.8771 4.20941C25.634 3.55497 25.7354 2.39547 25.1036 1.6196Z"
                              fill="#FF9721" />
                          <path
                              d="M21.7851 2.09516L19.5158 4.05741L17.6216 1.73107L19.8908 -0.231177L21.7851 2.09516ZM24.0729 4.90485L25.9671 7.2312L23.6979 9.19344L21.8036 6.8671L24.0729 4.90485ZM24.4836 3.72606L23.6793 4.4215L19.8908 -0.231177L20.6951 -0.926617L24.4836 3.72606ZM24.0544 0.132921L26.3422 2.94261L21.8036 6.8671L19.5158 4.05741L24.0544 0.132921ZM22.1786 2.57851L22.9829 1.88307L26.7714 6.53576L25.9671 7.2312L22.1786 2.57851ZM22.9829 1.88307C22.4865 2.31235 22.42 3.07291 22.8343 3.58184L27.3729 -0.342645C29.0508 1.71803 28.7815 4.7976 26.7714 6.53576L22.9829 1.88307ZM20.6951 -0.926617C22.7052 -2.66478 25.695 -2.40332 27.3729 -0.342645L22.8343 3.58184C23.2487 4.09077 23.9871 4.15534 24.4836 3.72606L20.6951 -0.926617Z"
                              fill="#FF9721" mask="url(#path-4-inside-1)" />
                          <path d="M5.82714 18.2883L8.29359 13.7652L10.5779 16.5707L5.82714 18.2883Z"
                              fill="#FF9721" />
                      </svg>