<svg width="201" height="135" viewBox="0 0 201 135" fill="none" xmlns="http://www.w3.org/2000/svg">
<path d="M6.47168 41.6897L172.28 79.9431L192.892 104.561L6.47168 41.6897Z" fill="#3685D6"/>
<path opacity="0.6" d="M6.47168 41.6897L172.28 79.9431L192.892 104.561L6.47168 41.6897Z" fill="white"/>
<path d="M6.47168 41.6897L172.279 79.9431L161.731 112.154L6.47168 41.6897Z" fill="#3685D6"/>
<path opacity="0.2" d="M6.47168 41.6897L172.279 79.9431L161.731 112.154L6.47168 41.6897Z" fill="black"/>
<path d="M166.268 16.7893L172.176 63.2528C172.329 64.466 171.995 65.6904 171.246 66.6575C170.498 67.6246 169.397 68.2554 168.184 68.4115L79.6931 79.6658C78.4802 79.8171 77.2568 79.4822 76.2902 78.7342C75.3235 77.9862 74.6923 76.886 74.5343 75.674L68.619 29.2099C68.4679 27.996 68.804 26.7717 69.5535 25.805C70.303 24.8383 71.405 24.2079 72.6182 24.0518L161.109 12.7974C162.323 12.6464 163.547 12.9824 164.514 13.7319C165.48 14.4815 166.111 15.5834 166.267 16.7967L166.268 16.7893Z" fill="#3685D6"/>
<path opacity="0.4" d="M166.268 16.7893L172.176 63.2528C172.329 64.466 171.995 65.6904 171.246 66.6575C170.498 67.6246 169.397 68.2554 168.184 68.4115L79.6931 79.6658C78.4802 79.8171 77.2568 79.4822 76.2902 78.7342C75.3235 77.9862 74.6923 76.886 74.5343 75.674L68.619 29.2099C68.4679 27.996 68.804 26.7717 69.5535 25.805C70.303 24.8383 71.405 24.2079 72.6182 24.0518L161.109 12.7974C162.323 12.6464 163.547 12.9824 164.514 13.7319C165.48 14.4815 166.111 15.5834 166.267 16.7967L166.268 16.7893Z" fill="black"/>
<path d="M164.376 13.6202L132.339 46.8371C129.368 49.9167 125.434 51.8898 121.189 52.4299C116.944 52.9701 112.642 52.045 108.994 49.8076L69.6575 25.6714C70.4021 24.7727 71.4609 24.1909 72.6189 24.0443L161.109 12.7899C162.264 12.6437 163.431 12.9404 164.376 13.6202Z" fill="#3685D6"/>
<path d="M6.47168 41.6897L142.141 86.2134L161.731 112.154L6.47168 41.6897Z" fill="#3685D6"/>
<path opacity="0.6" d="M6.47168 41.6897L142.141 86.2134L161.731 112.154L6.47168 41.6897Z" fill="white"/>
<path d="M54.3058 77.6418L53.8804 78.2458L68.5279 88.5628L68.9533 87.9588L54.3058 77.6418Z" fill="#3685D6"/>
<path d="M75.4206 92.5082L74.9951 93.1122L80.2622 96.822L80.6876 96.218L75.4206 92.5082Z" fill="#3685D6"/>
<path d="M6.47168 41.6897L142.141 86.2134L112.51 116.385L6.47168 41.6897Z" fill="#3685D6"/>
<path d="M185.16 134.317C184.973 134.302 184.791 134.251 184.623 134.168L162.829 123.353C162.481 123.177 162.216 122.871 162.093 122.501C161.969 122.131 161.997 121.727 162.17 121.377C162.344 121.027 162.648 120.76 163.017 120.635C163.387 120.509 163.791 120.534 164.142 120.705L185.943 131.521C186.251 131.674 186.497 131.93 186.637 132.244C186.777 132.559 186.803 132.912 186.71 133.244C186.617 133.575 186.411 133.864 186.128 134.06C185.845 134.256 185.503 134.347 185.16 134.317Z" fill="#3685D6"/>
<path opacity="0.3" d="M185.16 134.317C184.973 134.302 184.791 134.251 184.623 134.168L162.829 123.353C162.481 123.177 162.216 122.871 162.093 122.501C161.969 122.131 161.997 121.727 162.17 121.377C162.344 121.027 162.648 120.76 163.017 120.635C163.387 120.509 163.791 120.534 164.142 120.705L185.943 131.521C186.251 131.674 186.497 131.93 186.637 132.244C186.777 132.559 186.803 132.912 186.71 133.244C186.617 133.575 186.411 133.864 186.128 134.06C185.845 134.256 185.503 134.347 185.16 134.317Z" fill="black"/>
<path d="M184.913 121.277C184.729 121.261 184.549 121.208 184.385 121.122L172.679 115.283C172.504 115.197 172.347 115.078 172.218 114.932C172.089 114.786 171.991 114.616 171.928 114.431C171.865 114.247 171.839 114.052 171.852 113.857C171.865 113.663 171.916 113.473 172.002 113.298C172.089 113.124 172.209 112.968 172.356 112.84C172.503 112.712 172.674 112.614 172.859 112.553C173.044 112.491 173.239 112.466 173.433 112.481C173.628 112.495 173.817 112.547 173.991 112.635L185.699 118.452C186.05 118.625 186.318 118.93 186.444 119.301C186.57 119.672 186.544 120.077 186.371 120.428C186.244 120.702 186.036 120.929 185.775 121.081C185.515 121.233 185.214 121.301 184.913 121.277Z" fill="#3685D6"/>
<path opacity="0.5" d="M184.913 121.277C184.729 121.261 184.549 121.208 184.385 121.122L172.679 115.283C172.504 115.197 172.347 115.078 172.218 114.932C172.089 114.786 171.991 114.616 171.928 114.431C171.865 114.247 171.839 114.052 171.852 113.857C171.865 113.663 171.916 113.473 172.002 113.298C172.089 113.124 172.209 112.968 172.356 112.84C172.503 112.712 172.674 112.614 172.859 112.553C173.044 112.491 173.239 112.466 173.433 112.481C173.628 112.495 173.817 112.547 173.991 112.635L185.699 118.452C186.05 118.625 186.318 118.93 186.444 119.301C186.57 119.672 186.544 120.077 186.371 120.428C186.244 120.702 186.036 120.929 185.775 121.081C185.515 121.233 185.214 121.301 184.913 121.277Z" fill="white"/>
<path d="M158.525 131.888C158.341 131.87 158.162 131.82 157.996 131.74L136.738 121.162C136.563 121.077 136.406 120.957 136.277 120.811C136.149 120.665 136.05 120.495 135.987 120.311C135.924 120.126 135.898 119.931 135.911 119.737C135.924 119.542 135.975 119.352 136.061 119.178C136.148 119.003 136.268 118.847 136.415 118.719C136.562 118.591 136.733 118.494 136.918 118.432C137.103 118.37 137.298 118.346 137.492 118.36C137.687 118.374 137.876 118.426 138.05 118.514L159.311 129.063C159.619 129.215 159.864 129.471 160.004 129.786C160.144 130.1 160.17 130.454 160.077 130.785C159.984 131.117 159.779 131.405 159.496 131.601C159.213 131.797 158.87 131.888 158.527 131.859L158.525 131.888Z" fill="#3685D6"/>
<path opacity="0.3" d="M158.525 131.888C158.341 131.87 158.162 131.82 157.996 131.74L136.738 121.162C136.563 121.077 136.406 120.957 136.277 120.811C136.149 120.665 136.05 120.495 135.987 120.311C135.924 120.126 135.898 119.931 135.911 119.737C135.924 119.542 135.975 119.352 136.061 119.178C136.148 119.003 136.268 118.847 136.415 118.719C136.562 118.591 136.733 118.494 136.918 118.432C137.103 118.37 137.298 118.346 137.492 118.36C137.687 118.374 137.876 118.426 138.05 118.514L159.311 129.063C159.619 129.215 159.864 129.471 160.004 129.786C160.144 130.1 160.17 130.454 160.077 130.785C159.984 131.117 159.779 131.405 159.496 131.601C159.213 131.797 158.87 131.888 158.527 131.859L158.525 131.888Z" fill="black"/>
</svg>
