<svg width="235" height="229" viewBox="0 0 235 229" fill="none" xmlns="http://www.w3.org/2000/svg">
<path d="M149.591 51.457H86.4275C84.9881 51.4587 83.6082 52.0313 82.5904 53.0491C81.5726 54.0669 81 55.4468 80.9983 56.8862V197.269L80.2744 197.489L64.7793 202.235C64.0449 202.458 63.2517 202.382 62.5738 202.021C61.8959 201.661 61.3887 201.047 61.1635 200.313L15.0726 49.7594C14.8483 49.025 14.9248 48.2317 15.2852 47.5536C15.6456 46.8756 16.2604 46.3684 16.9946 46.1435L40.8725 38.8321L110.095 17.6436L133.973 10.3322C134.337 10.2204 134.718 10.1813 135.097 10.2172C135.475 10.2531 135.843 10.3633 136.179 10.5415C136.515 10.7197 136.812 10.9623 137.054 11.2556C137.296 11.5488 137.478 11.8869 137.589 12.2505L149.371 50.7331L149.591 51.457Z" fill="#F2F2F2"/>
<path d="M162.595 50.733L148.396 4.3527C148.16 3.57992 147.774 2.86126 147.26 2.23779C146.745 1.61432 146.114 1.09827 145.4 0.71911C144.686 0.339952 143.905 0.10512 143.101 0.0280432C142.296 -0.0490336 141.484 0.0331546 140.712 0.269903L107.141 10.5457L37.9217 31.7379L4.35087 42.0172C2.79134 42.4961 1.48553 43.5742 0.720058 45.0149C-0.0454162 46.4555 -0.208014 48.141 0.267963 49.7014L48.7983 208.21C49.1849 209.47 49.9651 210.572 51.0243 211.356C52.0836 212.14 53.3661 212.563 54.6837 212.565C55.2935 212.565 55.8999 212.473 56.4825 212.293L79.4953 205.25L80.2192 205.025V204.269L79.4953 204.489L56.269 211.602C54.8924 212.021 53.4056 211.878 52.1347 211.203C50.8638 210.528 49.9126 209.376 49.4896 208L0.963055 49.4879C0.753519 48.8063 0.68049 48.0901 0.748147 47.3802C0.815805 46.6704 1.02282 45.9809 1.35734 45.3511C1.69186 44.7214 2.14732 44.1639 2.69763 43.7104C3.24794 43.257 3.88228 42.9165 4.56435 42.7086L38.1352 32.4292L107.355 11.2406L140.926 0.961235C141.443 0.803352 141.981 0.72285 142.522 0.722346C143.682 0.724953 144.812 1.09919 145.745 1.79025C146.677 2.48131 147.364 3.45288 147.705 4.56264L161.839 50.733L162.063 51.4569H162.816L162.595 50.733Z" fill="#23180C"/>
<path d="M44.4022 46.2618C43.7046 46.2613 43.0255 46.0373 42.4645 45.6225C41.9036 45.2078 41.4903 44.6242 41.2853 43.9574L36.6233 28.7295C36.498 28.3205 36.4545 27.8907 36.4953 27.4649C36.5361 27.039 36.6605 26.6254 36.8612 26.2476C37.0619 25.8698 37.335 25.5352 37.665 25.263C37.9951 24.9908 38.3755 24.7863 38.7845 24.6611L102.466 5.1651C103.292 4.91301 104.184 4.99899 104.947 5.40416C105.71 5.80932 106.281 6.50057 106.534 7.3262L111.196 22.5543C111.448 23.3804 111.362 24.2727 110.957 25.0354C110.552 25.7982 109.861 26.369 109.035 26.6228L45.3539 46.1188C45.0455 46.2135 44.7248 46.2617 44.4022 46.2618Z" fill="#D6D6D6"/>
<path d="M68.824 16.2684C72.822 16.2684 76.063 13.0273 76.063 9.02935C76.063 5.03136 72.822 1.79035 68.824 1.79035C64.826 1.79035 61.585 5.03136 61.585 9.02935C61.585 13.0273 64.826 16.2684 68.824 16.2684Z" fill="#D6D6D6"/>
<path d="M68.8237 13.6133C71.3554 13.6133 73.4077 11.561 73.4077 9.02938C73.4077 6.49773 71.3554 4.44542 68.8237 4.44542C66.2921 4.44542 64.2397 6.49773 64.2397 9.02938C64.2397 11.561 66.2921 13.6133 68.8237 13.6133Z" fill="white"/>
<path d="M218.122 213.83H95.7831C94.9674 213.829 94.1854 213.505 93.6087 212.928C93.0319 212.351 92.7075 211.569 92.7065 210.753V64.1637C92.7075 63.348 93.0319 62.566 93.6087 61.9892C94.1854 61.4124 94.9674 61.088 95.7831 61.0871H218.122C218.938 61.088 219.72 61.4125 220.297 61.9892C220.873 62.566 221.198 63.348 221.199 64.1637V210.753C221.198 211.569 220.873 212.351 220.297 212.928C219.72 213.505 218.938 213.829 218.122 213.83Z" fill="#F2F1F1"/>
<path d="M161.839 50.733H85.6488C84.0175 50.7353 82.4538 51.3843 81.3004 52.5378C80.1469 53.6912 79.4979 55.255 79.4956 56.8862V204.489L80.2195 204.269V130.577V56.8862C80.2213 55.4468 80.7938 54.0668 81.8116 53.049C82.8294 52.0312 84.2094 51.4587 85.6488 51.4569H162.064L161.839 50.733ZM228.257 50.733H85.6488C84.0175 50.7353 82.4538 51.3843 81.3004 52.5378C80.1469 53.6912 79.4979 55.255 79.4956 56.8862V222.659C79.4979 224.291 80.1469 225.854 81.3004 227.008C82.4538 228.161 84.0175 228.81 85.6488 228.812H228.257C229.888 228.81 231.452 228.161 232.605 227.008C233.759 225.854 234.408 224.291 234.41 222.659V56.8862C234.408 55.255 233.759 53.6912 232.605 52.5378C231.452 51.3843 229.888 50.7353 228.257 50.733ZM233.686 222.659C233.685 224.099 233.112 225.479 232.094 226.496C231.076 227.514 229.697 228.087 228.257 228.089H85.6488C84.2094 228.087 82.8294 227.514 81.8116 226.496C80.7938 225.479 80.2213 224.099 80.2195 222.659V56.8862C80.2213 55.4468 80.7938 54.0668 81.8116 53.049C82.8294 52.0312 84.2094 51.4587 85.6488 51.4569H228.257C229.697 51.4587 231.076 52.0312 232.094 53.049C233.112 54.0668 233.685 55.4468 233.686 56.8862V222.659Z" fill="#23180C"/>
<path d="M190.252 66.6588H123.653C122.789 66.6579 121.961 66.3144 121.351 65.7037C120.74 65.093 120.396 64.265 120.396 63.4013V47.4755C120.396 46.6118 120.74 45.7838 121.351 45.1731C121.961 44.5624 122.789 44.2189 123.653 44.2179H190.252C191.116 44.2189 191.944 44.5624 192.554 45.1731C193.165 45.7838 193.508 46.6118 193.509 47.4755V63.4013C193.508 64.265 193.165 65.093 192.554 65.7037C191.944 66.3144 191.116 66.6579 190.252 66.6588Z" fill="#D6D6D6"/>
<path d="M156.953 45.3038C160.951 45.3038 164.192 42.0628 164.192 38.0648C164.192 34.0668 160.951 30.8258 156.953 30.8258C152.955 30.8258 149.714 34.0668 149.714 38.0648C149.714 42.0628 152.955 45.3038 156.953 45.3038Z" fill="#D6D6D6"/>
<path d="M156.953 42.4739C159.388 42.4739 161.362 40.4999 161.362 38.0647C161.362 35.6296 159.388 33.6555 156.953 33.6555C154.518 33.6555 152.543 35.6296 152.543 38.0647C152.543 40.4999 154.518 42.4739 156.953 42.4739Z" fill="white"/>
</svg>
