<svg width="17" height="21" viewBox="0 0 17 21" fill="none" xmlns="http://www.w3.org/2000/svg">
<path d="M16.9397 17.4496L15.4802 14.9825C14.8062 13.8438 14.45 12.5396 14.45 11.2121V9.05104C14.45 6.3228 12.6547 4.01523 10.1998 3.27131V1.72402C10.1998 0.773218 9.43731 0 8.49971 0C7.56211 0 6.79963 0.773218 6.79963 1.72402V3.27131C4.34477 4.01523 2.5495 6.3228 2.5495 9.05104V11.2121C2.5495 12.5396 2.19332 13.8429 1.52009 14.9817L0.0605979 17.4487C-0.0184551 17.5823 -0.0201684 17.7478 0.0554978 17.8832C0.131164 18.0185 0.271419 18.1021 0.424425 18.1021H16.575C16.728 18.1021 16.8691 18.0185 16.9448 17.8841C17.0205 17.7495 17.0179 17.5823 16.9397 17.4496Z" fill="#7F7F7F"/>
<path d="M5.40918 18.8066C5.99491 20.0985 7.23491 21 8.67947 21C10.124 21 11.3641 20.0985 11.9498 18.8066H5.40918Z" fill="#7F7F7F"/>
</svg>
