<svg width="329" height="222" viewBox="0 0 329 222" fill="none" xmlns="http://www.w3.org/2000/svg">
<path d="M8.2334 145.088H52.947C53.9795 145.088 55.0019 145.291 55.9559 145.687C56.9098 146.082 57.7766 146.661 58.5067 147.391C59.2368 148.121 59.8159 148.988 60.211 149.942C60.6062 150.896 60.8096 151.918 60.8096 152.951V193.143C60.8096 195.228 59.9812 197.228 58.5067 198.702C57.0321 200.177 55.0323 201.005 52.947 201.005H8.2334V145.113V145.088Z" fill="#F0F0F0"/>
<path d="M8.60359 145.088H7.86256C3.52019 145.088 0 148.608 0 152.951V193.117C0 197.46 3.52019 200.98 7.86256 200.98H8.60359C12.946 200.98 16.4661 197.46 16.4661 193.117V152.951C16.4661 148.608 12.946 145.088 8.60359 145.088Z" fill="#F5F5F5"/>
<path d="M14.2181 200.98H72.5781V165.705H14.2181L14.2181 200.98Z" fill="#F0F0F0"/>
<path d="M9.42604 202.745H114.61C115.037 202.743 115.446 202.572 115.747 202.27C116.048 201.967 116.217 201.558 116.217 201.131V200.98H52.9716L7.81836 201.131C7.81836 201.558 7.98754 201.967 8.28886 202.27C8.59018 202.572 8.99908 202.743 9.42604 202.745Z" fill="#E0E0E0"/>
<path d="M55.4965 121.902H109.793C111.198 121.876 112.592 122.149 113.882 122.704C115.173 123.259 116.33 124.083 117.277 125.121C118.223 126.159 118.938 127.386 119.373 128.722C119.807 130.058 119.952 131.471 119.797 132.867L116.218 173.687H39.9912L43.5645 132.867C43.8682 129.896 45.2502 127.14 47.449 125.12C49.6477 123.099 52.5108 121.954 55.4965 121.902Z" fill="#E0E0E0"/>
<path d="M46.9182 121.902H102.276C103.612 121.88 104.938 122.143 106.164 122.672C107.391 123.201 108.491 123.986 109.392 124.973C110.292 125.96 110.972 127.127 111.387 128.397C111.802 129.668 111.941 131.011 111.797 132.34L108.173 173.681H31.9404L35.564 132.34C35.8524 129.512 37.1671 126.889 39.2595 124.965C41.3518 123.042 44.0766 121.952 46.9182 121.902Z" fill="#F5F5F5"/>
<path d="M18.8962 162.484H65.1233C66.4358 162.484 67.6945 163.005 68.6225 163.933C69.5506 164.861 70.072 166.12 70.072 167.432V171.897C70.0728 172.548 69.9454 173.192 69.6971 173.793C69.4488 174.394 69.0844 174.94 68.6248 175.401C68.1652 175.861 67.6193 176.226 67.0185 176.475C66.4177 176.724 65.7737 176.852 65.1233 176.852H18.8962C16.9908 176.852 15.1635 176.095 13.8162 174.748C12.4688 173.401 11.7119 171.573 11.7119 169.668C11.7119 167.763 12.4688 165.935 13.8162 164.588C15.1635 163.241 16.9908 162.484 18.8962 162.484Z" fill="#E0E0E0"/>
<path d="M72.8354 145.088H117.549C119.634 145.088 121.634 145.916 123.109 147.391C124.583 148.865 125.412 150.865 125.412 152.951V193.143C125.412 195.228 124.583 197.228 123.109 198.702C121.634 200.177 119.634 201.005 117.549 201.005H72.8354V145.113V145.088Z" fill="#F0F0F0"/>
<path d="M73.2061 145.088H72.4651C68.1227 145.088 64.6025 148.608 64.6025 152.951V193.117C64.6025 197.46 68.1227 200.98 72.4651 200.98H73.2061C77.5485 200.98 81.0687 197.46 81.0687 193.117V152.951C81.0687 148.608 77.5485 145.088 73.2061 145.088Z" fill="#F5F5F5"/>
<path d="M278.987 115.901H236V204.279H278.987V115.901Z" fill="#F0F0F0"/>
<path d="M242.431 197.396V122.783H241.438V197.396H242.431Z" fill="#E6E6E6"/>
<path d="M272.65 122.783H241.438V124.039H272.65V122.783Z" fill="#E6E6E6"/>
<path d="M322.965 115.901H279.979V204.279H322.965V115.901Z" fill="#F0F0F0"/>
<path d="M322.971 204.279H328.661V115.901H322.971V204.279Z" fill="#E0E0E0"/>
<path d="M286.409 197.396V122.783H285.417V197.396H286.409Z" fill="#E6E6E6"/>
<path d="M279.985 204.279V116.905H278.993V204.279H279.985Z" fill="#E6E6E6"/>
<path d="M316.629 122.783H285.417V124.039H316.629V122.783Z" fill="#E6E6E6"/>
<path d="M277.103 135.45H274.968V154.981H277.103V135.45Z" fill="#E0E0E0"/>
<path d="M283.998 135.45H281.863V154.981H283.998V135.45Z" fill="#E0E0E0"/>
<path d="M283.194 7.90051H64.0098V86.0802H283.194V7.90051Z" fill="#E0E0E0"/>
<path d="M281.185 7.90051H62V86.0802H281.185V7.90051Z" fill="#F0F0F0"/>
<path d="M274.609 79.5051V14.4757L68.5751 14.4757V79.5051L274.609 79.5051Z" fill="#FAFAFA"/>
<path d="M102.022 79.5051L115.675 14.4757H145.813L132.16 79.5051H102.022Z" fill="white"/>
<path d="M144.877 79.5051L158.53 14.4757H173.602L159.943 79.5051H144.877Z" fill="white"/>
<path d="M236.892 79.5051L250.544 14.4757H265.616L251.957 79.5051H236.892Z" fill="white"/>
<path d="M177 221.408C244.248 221.408 298.763 218.225 298.763 214.299C298.763 210.373 244.248 207.19 177 207.19C109.752 207.19 55.2373 210.373 55.2373 214.299C55.2373 218.225 109.752 221.408 177 221.408Z" fill="#F5F5F5"/>
<path d="M124.248 25.5224C125.83 21.8989 111.813 18.6144 107.574 29.7803C103.731 39.9099 97.3504 42.4973 100.352 49.512C103.599 57.1045 121.968 58.0151 129.944 49.5999C136.412 42.7736 129.391 39.8973 130.295 33.4792C131.2 27.061 129.303 24.9698 124.248 25.5224Z" fill="#263238"/>
<path d="M98.7132 47.2639C97.9848 43.3075 99.4543 41.6747 101.313 39.6085C103.825 37.0596 105.546 33.8382 106.268 30.333C106.643 28.4188 107.6 26.6671 109.008 25.318C110.417 23.969 112.208 23.0884 114.137 22.797C118.282 22.0308 122.671 23.3873 123.833 25.108C124.018 25.3505 124.124 25.6442 124.135 25.949C124.146 26.2538 124.063 26.5545 123.896 26.8099L123.369 26.4708C123.47 26.319 123.52 26.1382 123.509 25.9558C123.499 25.7734 123.43 25.5993 123.312 25.4597C122.282 23.9274 118.1 22.7028 114.256 23.4187C111.512 23.9274 107.976 25.5602 106.884 30.4711C106.139 34.0812 104.366 37.3987 101.778 40.023C99.9692 42.0326 98.6379 43.4896 99.335 47.1445L98.7132 47.2639Z" fill="#263238"/>
<path d="M90.0783 44.2556L89.6889 42.9996C89.4201 42.1461 88.9331 41.3776 88.2759 40.7702L87.0199 39.6273C86.6228 39.26 86.1096 39.0432 85.5693 39.0145C85.0291 38.9858 84.4959 39.1471 84.0621 39.4703L82.7181 40.4751C82.4725 40.6586 82.2658 40.8892 82.1099 41.1532C81.954 41.4173 81.852 41.7097 81.81 42.0134C81.7679 42.3172 81.7866 42.6263 81.8648 42.9228C81.9431 43.2193 82.0795 43.4973 82.266 43.7407L83.1326 44.8711C83.1326 44.8711 85.1673 48.3125 88.1126 49.5057L88.7909 48.928C89.4398 48.361 89.9077 47.6159 90.1366 46.7852C90.3655 45.9545 90.3452 45.0749 90.0783 44.2556Z" fill="#FFC3BD"/>
<path d="M114.488 66.0598L114.087 66.3675L113.76 66.6061L113.132 67.0457C112.711 67.3221 112.284 67.5795 111.876 67.8307C111.022 68.3219 110.141 68.7663 109.238 69.1621C107.382 69.9808 105.431 70.5631 103.429 70.8954C101.316 71.2505 99.1598 71.2632 97.0426 70.9331C95.9592 70.7627 94.895 70.4872 93.865 70.1104C93.6075 70.0288 93.35 69.922 93.0988 69.8152L92.722 69.6582L92.5336 69.5766L92.3264 69.4887L92.0626 69.3631C91.5145 69.0823 91.0091 68.7249 90.5617 68.3017C90.24 68.0024 89.9438 67.6768 89.6762 67.3284C88.9657 66.3649 88.3909 65.3083 87.968 64.1884C87.5912 63.2589 87.3024 62.3671 87.0449 61.4942C86.5764 59.8051 86.197 58.0924 85.9082 56.3635C85.3345 53.0221 85.0133 49.6423 84.9473 46.2527C84.8696 45.6181 85.0368 44.9779 85.4147 44.4623C85.7926 43.9467 86.3529 43.5946 86.9814 43.4777C87.6099 43.3608 88.2593 43.4879 88.7973 43.8331C89.3354 44.1784 89.7215 44.7158 89.8772 45.3358V45.4049C90.9699 48.413 92.0186 51.4965 93.1239 54.423C93.6954 55.8799 94.248 57.3306 94.876 58.6494C95.1775 59.3088 95.504 59.9368 95.8118 60.4831C96.0213 60.8835 96.2902 61.2498 96.6093 61.5696C96.6093 61.5696 96.6093 61.5696 96.5654 61.4817C96.4207 61.3315 96.2506 61.2082 96.063 61.1174L95.9436 61.0546C95.906 61.0546 95.8306 61.0107 95.8746 61.0232H95.975L96.1697 61.0735C96.2993 61.1137 96.4315 61.1452 96.5654 61.1677C97.0955 61.2734 97.633 61.3385 98.173 61.3624C99.3037 61.397 100.434 61.2787 101.533 61.0107C102.739 60.7065 103.912 60.2859 105.037 59.7547C105.621 59.4909 106.199 59.1832 106.764 58.8755C107.047 58.7185 107.323 58.5489 107.587 58.3856L108.215 57.9837L108.705 57.676C109.808 56.9745 111.14 56.7278 112.422 56.9878C113.703 57.2478 114.834 57.9942 115.577 59.0702C116.32 60.1463 116.617 61.4684 116.406 62.7588C116.195 64.0492 115.492 65.2076 114.445 65.9907L114.488 66.0598Z" fill="#FFC3BD"/>
<path d="M138.108 203.184C138.108 203.184 139.037 197.105 139.665 187.911C136.506 189.011 133.228 189.736 129.9 190.071C131.256 198.097 132.224 203.209 132.224 203.209C134.127 203.893 136.211 203.884 138.108 203.184Z" fill="#FFC3BD"/>
<path d="M121 212.401C121.618 211.783 132.172 208.117 131.5 203.401C138.56 202.4 139 202.401 139 202.401C139.188 209.018 139 205.401 139.188 209.018C139.5 210.901 139.916 212.246 138.56 212.403C136.952 212.597 136.497 212.618 134.5 212.901C132.164 213.208 127.666 214.401 123 214.401C120.482 214.401 120 213.401 121 212.401Z" fill="#263238"/>
<path d="M137.593 142.94C138.051 110.761 135.081 93.2208 135.081 93.2208L111.273 94.4077C111.273 94.4077 115.5 123.401 119.5 145.401C121.17 157.037 126.894 184.181 129.5 197.401C133.5 197.401 137.28 198.006 141 196.901C141.911 185.289 141.574 159.512 137.593 142.94Z" fill="#FF9721"/>
<path d="M111.587 56.5708C108.058 57.1988 102.676 60.1818 102.676 60.1818C102.676 60.1818 99.8438 66.9642 103.235 71.8501C106.576 72.6413 108.259 71.9945 108.259 71.9945L111.587 56.5708Z" fill="#FF9721"/>
<path opacity="0.2" d="M103.235 71.85C106.576 72.6413 108.259 71.9944 108.259 71.9944L108.14 62.8445C105.872 65.8966 103.982 68.9235 103.235 71.85Z" fill="black"/>
<path opacity="0.2" d="M137.467 123.955C134.805 117.443 131.941 112.08 130.842 107.181C128.958 120.501 130.44 132.753 137.605 141.533C137.687 135.052 137.618 129.186 137.467 123.955Z" fill="black"/>
<path d="M173.86 175.024L164.358 181.781C156.602 171.677 144.972 156.241 142.158 149.521C135.012 132.471 120.643 94.885 120.643 94.885L139.295 90.5518C139.295 90.5518 151.063 101.479 158.656 142.713C165.011 151.744 170.362 165.033 173.86 175.024Z" fill="#FF9721"/>
<path d="M173.313 207.052C175.681 202.424 175.712 197.324 173.156 193.305C172.057 191.584 177.64 188.187 177.64 188.187C179.612 194.348 181.22 194.706 182.589 195.66C183.958 196.615 185 196.901 182.941 199.365C180.5 202.901 181.305 201.679 180.5 202.901C179.068 204.785 177.565 206.82 175.511 208.434C174.199 209.457 172.271 209.081 173.313 207.052Z" fill="#263238"/>
<path d="M178.676 191.013C178.676 191.013 177.037 185.248 173.822 176.613C171.394 178.913 168.707 180.923 165.815 182.604C170.355 189.361 173.678 194.216 173.678 194.216C175.608 193.631 177.338 192.522 178.676 191.013Z" fill="#FFC3BD"/>
<path d="M162.305 179.966C162.933 180.883 164.616 183.176 165.539 183.822C165.593 183.861 165.655 183.886 165.72 183.897C165.785 183.908 165.852 183.904 165.916 183.885C170.186 182.566 173.86 179.923 175.204 178.434C175.241 178.394 175.27 178.347 175.287 178.295C175.305 178.242 175.31 178.187 175.304 178.133C175.216 176.72 174.224 174.088 173.791 172.989C173.767 172.931 173.731 172.879 173.684 172.837C173.638 172.794 173.582 172.763 173.522 172.745C173.462 172.727 173.398 172.722 173.336 172.732C173.274 172.742 173.215 172.765 173.163 172.801C169.736 175.192 166.171 177.379 162.487 179.351C162.431 179.376 162.381 179.412 162.341 179.458C162.3 179.504 162.27 179.558 162.253 179.617C162.236 179.675 162.231 179.737 162.24 179.797C162.249 179.858 162.271 179.915 162.305 179.966Z" fill="#263238"/>
<path d="M106.199 65.9405C107.053 71.4983 103.744 75.8064 108.837 78.3686C107.989 82.595 109.245 91.0354 111.261 94.3826C114.093 95.9212 127.947 93.6478 139.27 90.5455C139.106 85.7099 135.131 76.1957 136.236 60.3576C136.296 59.4912 136.173 58.6219 135.875 57.8062C135.577 56.9905 135.111 56.2464 134.507 55.6224C133.903 54.9983 133.174 54.5081 132.369 54.1836C131.563 53.859 130.699 53.7074 129.831 53.7385C128.851 53.7385 127.809 53.8327 126.754 53.9269C123.044 54.165 119.357 54.6687 115.72 55.4341C114.545 55.7104 113.333 56.0244 112.184 56.3509C110.186 56.9408 108.474 58.2424 107.371 60.0095C106.268 61.7766 105.851 63.8867 106.199 65.9405Z" fill="#FF9721"/>
<path d="M125.391 41.4799C124.995 45.1537 124.933 51.0569 126.754 53.9519C126.754 53.9519 122.652 60.8673 117 63.9005C115.223 59.7871 115.305 55.5533 115.305 55.5533C117.999 54.5234 117.974 51.0757 117.61 48.4381L125.391 41.4799Z" fill="#FFC3BD"/>
<path opacity="0.2" d="M117.623 48.4382L122.019 44.4818C122.166 45.2202 122.119 45.9843 121.88 46.6987C121.119 48.7569 119.656 50.4805 117.748 51.5657C117.817 50.5217 117.775 49.4733 117.623 48.4382Z" fill="black"/>
<path d="M126.81 34.6535C126.182 40.6195 126.088 43.1504 123.01 46.102C118.376 50.5419 111.323 48.5072 110.161 42.491C109.113 37.0713 110.262 28.2291 116.09 26.0751C121.918 23.921 127.388 28.6938 126.81 34.6535Z" fill="#FFC3BD"/>
<path d="M125.504 39.0182C124.583 38.1367 124.045 36.9291 124.005 35.6549C123.965 34.3808 124.426 33.1419 125.29 32.2044C126.86 30.6156 129.058 33.9063 129.058 33.9063L125.504 39.0182Z" fill="#263238"/>
<path d="M118.225 36.3051C118.225 36.795 117.93 37.1781 117.597 37.1655C117.264 37.1529 117.038 36.7447 117.057 36.2612C117.076 35.7776 117.352 35.3882 117.685 35.4008C118.018 35.4134 118.244 35.7965 118.225 36.3051Z" fill="#263238"/>
<path d="M112.234 36.1607C112.234 36.6443 111.945 37.0274 111.606 37.0148C111.267 37.0022 111.047 36.6003 111.066 36.1105C111.085 35.6206 111.355 35.2438 111.694 35.2564C112.033 35.269 112.253 35.6709 112.234 36.1607Z" fill="#263238"/>
<path d="M111.832 35.2878L110.677 34.9048C110.677 34.9048 111.242 35.8405 111.832 35.2878Z" fill="#263238"/>
<rect x="121" y="118.499" width="5.35301" height="8.41187" rx="0.5" transform="rotate(-2.84788 121 118.499)" fill="white"/>
<rect x="122.765" y="115.976" width="1.52943" height="3.22426" rx="0.1" transform="rotate(-2.82896 122.765 115.976)" fill="#3F3D56"/>
<line x1="122.339" y1="124.688" x2="125.393" y2="124.518" stroke="#C4C4C4" stroke-width="0.5"/>
<line x1="122.879" y1="125.858" x2="125.176" y2="125.73" stroke="#C4C4C4" stroke-width="0.3"/>
<circle cx="123.882" cy="121.802" r="1.91179" fill="#C4C4C4"/>
<path d="M113.71 36.3491C113.224 37.4441 112.59 38.4669 111.826 39.3886C112.067 39.5746 112.346 39.7058 112.643 39.773C112.94 39.8403 113.249 39.842 113.546 39.778L113.71 36.3491Z" fill="#ED847E"/>
<path d="M116.304 41.6871C116.031 41.7256 115.756 41.7382 115.481 41.7248C115.444 41.7232 115.409 41.7072 115.383 41.6803C115.357 41.6534 115.343 41.6176 115.343 41.5803C115.344 41.5614 115.348 41.5427 115.356 41.5255C115.364 41.5083 115.375 41.4928 115.389 41.48C115.403 41.4672 115.42 41.4572 115.438 41.4507C115.456 41.4442 115.475 41.4413 115.493 41.4422C116.098 41.4783 116.703 41.3721 117.259 41.1322C117.815 40.8922 118.308 40.5252 118.696 40.0606C118.706 40.0451 118.72 40.0318 118.735 40.0215C118.75 40.0112 118.768 40.0041 118.786 40.0006C118.804 39.9971 118.822 39.9972 118.841 40.0011C118.859 40.0049 118.876 40.0123 118.891 40.0229C118.907 40.0336 118.92 40.0473 118.93 40.0632C118.941 40.0791 118.948 40.0969 118.951 40.1156C118.955 40.1342 118.955 40.1534 118.951 40.172C118.947 40.1906 118.939 40.2082 118.929 40.2239C118.278 41.0348 117.336 41.5597 116.304 41.6871Z" fill="#263238"/>
<path d="M127.802 39.6524C127.569 40.1457 127.233 40.5835 126.818 40.9366C126.402 41.2897 125.915 41.5498 125.391 41.6997C124.053 42.0325 123.431 40.563 123.846 39.0935C124.216 37.7684 125.366 36.0037 126.684 36.324C128.003 36.6443 128.449 38.365 127.802 39.6524Z" fill="#FFC3BD"/>
<path d="M123.72 26.1692C119.493 28.8067 114.746 30.501 109.804 31.1367C109.804 26.8474 118.194 22.0307 123.72 26.1692Z" fill="#263238"/>
<path d="M120.48 26.6904C119.506 30.4584 129.272 37.3664 127.388 44.0107C130.578 39.0432 128.279 27.8648 128.279 27.8648C128.279 27.8648 120.053 22.6587 120.48 26.6904Z" fill="#263238"/>
<path d="M119.475 33.1024C119.437 33.097 119.4 33.0836 119.368 33.0631C119.335 33.0425 119.308 33.0152 119.287 32.983C119.093 32.6803 118.83 32.4275 118.52 32.2453C118.21 32.0631 117.862 31.9565 117.503 31.9343C117.466 31.936 117.428 31.9301 117.393 31.917C117.358 31.9038 117.326 31.8837 117.299 31.8579C117.272 31.8321 117.251 31.801 117.236 31.7667C117.222 31.7323 117.214 31.6953 117.214 31.658C117.212 31.6198 117.219 31.5817 117.232 31.5459C117.245 31.5102 117.266 31.4775 117.292 31.45C117.319 31.4224 117.35 31.4004 117.386 31.3854C117.421 31.3705 117.459 31.3628 117.497 31.3628C117.95 31.3825 118.392 31.5109 118.786 31.7371C119.179 31.9633 119.512 32.2808 119.758 32.6628C119.779 32.6936 119.794 32.7283 119.802 32.765C119.809 32.8017 119.81 32.8395 119.803 32.8764C119.796 32.9132 119.781 32.9482 119.761 32.9795C119.74 33.0107 119.713 33.0376 119.682 33.0584C119.652 33.079 119.619 33.0935 119.583 33.101C119.547 33.1086 119.511 33.109 119.475 33.1024Z" fill="#263238"/>
<rect x="119" y="88.9005" width="14" height="9" fill="#FF9721"/>
<path d="M113 105.901L117.5 114.4L113.499 114.401L113 105.901Z" fill="#FF9721"/>
<path d="M109.584 32.8951C109.51 32.89 109.441 32.8588 109.389 32.8072C109.362 32.7809 109.341 32.7496 109.327 32.7151C109.313 32.6806 109.305 32.6436 109.305 32.6062C109.305 32.5688 109.313 32.5318 109.327 32.4973C109.341 32.4628 109.362 32.4315 109.389 32.4053C109.702 32.0762 110.09 31.8269 110.519 31.6783C110.949 31.5297 111.407 31.4861 111.857 31.5512C111.931 31.5677 111.995 31.6125 112.036 31.6759C112.077 31.7393 112.092 31.8163 112.077 31.8903C112.069 31.9272 112.055 31.9622 112.034 31.9934C112.012 32.0245 111.985 32.0511 111.954 32.0716C111.922 32.092 111.887 32.106 111.85 32.1126C111.813 32.1192 111.775 32.1184 111.738 32.1101C111.381 32.0646 111.019 32.1041 110.681 32.2252C110.342 32.3464 110.038 32.5458 109.791 32.8072C109.736 32.8627 109.662 32.8943 109.584 32.8951Z" fill="#263238"/>
<path d="M117.824 35.4322L116.668 35.0554C116.668 35.0554 117.227 35.9911 117.824 35.4322Z" fill="#263238"/>
<path opacity="0.2" d="M136.086 63.4285C135.973 66.7815 136.084 70.1383 136.418 73.4765C133.278 70.1607 129.335 63.8995 129.077 60.7595L136.086 63.4285Z" fill="black"/>
<path d="M156.59 51.6346L157.274 47.6469L163.473 50.0395C163.473 50.0395 162.035 53.751 159.391 55.3901L158.656 54.9254C158.08 54.5748 157.593 54.0949 157.235 53.5238C156.876 52.9526 156.655 52.3059 156.59 51.6346Z" fill="#FFC3BD"/>
<path d="M161.143 45.4238L163.184 46.5353C163.63 46.7773 163.962 47.1858 164.108 47.6717C164.254 48.1576 164.201 48.6814 163.963 49.129L163.479 50.0396L157.281 47.6469L158.757 45.8822C159.041 45.5436 159.434 45.3132 159.868 45.2297C160.303 45.1462 160.753 45.2147 161.143 45.4238Z" fill="#FFC3BD"/>
<path d="M134.98 56.1876L135.771 57.004L136.632 57.877C137.216 58.4484 137.8 59.0325 138.403 59.5851C139.596 60.7092 140.827 61.7517 142.064 62.7251C143.231 63.6402 144.47 64.4592 145.769 65.1743C146.763 65.733 147.843 66.1194 148.966 66.3173L147.276 66.6313C146.862 66.8322 146.887 66.9202 146.975 66.8511C147.145 66.7375 147.3 66.6047 147.44 66.4554C147.899 65.9773 148.319 65.4628 148.696 64.9168C149.55 63.7048 150.416 62.3295 151.208 60.9039C151.999 59.4784 152.84 58.0151 153.651 56.5079L156.068 52.0366V51.9989C156.352 51.466 156.816 51.0514 157.377 50.829C157.938 50.6067 158.56 50.5911 159.131 50.7852C159.703 50.9792 160.187 51.3702 160.497 51.8882C160.806 52.4062 160.922 53.0175 160.822 53.6128C160.533 55.4215 160.138 57.1296 159.698 58.8692C159.259 60.6088 158.788 62.3295 158.16 64.0565C157.544 65.8372 156.814 67.5762 155.974 69.2626C155.487 70.212 154.935 71.1268 154.323 72.0007C153.936 72.5397 153.503 73.044 153.029 73.5079C152.326 74.2082 151.497 74.7686 150.586 75.1595C150.139 75.3501 149.659 75.4545 149.173 75.4672H148.897C146.415 75.4817 143.959 74.9657 141.693 73.9538C140.693 73.5262 139.716 73.0462 138.767 72.5156C137.858 71.9797 136.981 71.425 136.136 70.8514C134.492 69.7007 132.927 68.4419 131.451 67.0834C130.729 66.4178 130.013 65.7458 129.328 65.0362C128.989 64.6845 128.644 64.3328 128.311 63.9623C127.978 63.5918 127.683 63.2526 127.275 62.7816C126.372 61.7823 125.903 60.4653 125.971 59.1203C126.04 57.7754 126.639 56.5126 127.639 55.6099C128.638 54.7071 129.955 54.2384 131.3 54.3067C132.645 54.375 133.908 54.9748 134.811 55.9741L134.98 56.1876Z" fill="#FFC3BD"/>
<path d="M130.107 53.7699C134.71 53.9081 139.288 59.4219 139.288 59.4219C139.288 59.4219 137.517 66.7381 132.475 69.8907C129.636 67.6801 127.231 65.9091 127.231 65.9091C123.218 60.0248 124.555 56.1186 130.107 53.7699Z" fill="#FF9721"/>
<path d="M114.5 115.9C114.468 115.889 114.513 115.415 114.5 115.4L114.5 114.4C120.051 114.419 125.874 115.171 130.5 114.9L146.5 112.401V113.4L130.5 116.4C114.825 115.9 115.675 116.007 115 115.9C114.955 115.893 114.531 115.912 114.5 115.9Z" fill="#CC791A"/>
<path d="M111.971 97.3904C111.941 97.1253 112.124 96.8834 112.388 96.8408L118.239 95.8944C118.503 95.8518 118.754 96.0242 118.809 96.2859L120.707 105.383C120.767 105.669 120.57 105.945 120.281 105.981L113.545 106.834C113.269 106.869 113.017 106.671 112.986 106.394L111.971 97.3904Z" fill="#FCB667"/>
<path d="M111.79 96.3051L118.583 95.2064L118.775 96.1241L111.981 97.2228L111.79 96.3051Z" fill="#E1841B"/>
<path d="M141.677 93.6366C141.568 93.4909 141.388 93.4162 141.208 93.4414L136.326 94.1245C136.051 94.163 135.86 94.4178 135.901 94.6923L137.247 103.87C137.289 104.156 137.564 104.346 137.846 104.286L146.123 102.517C146.444 102.449 146.613 102.096 146.466 101.803L144.5 97.9005L143 95.4005L141.677 93.6366Z" fill="#FCB667"/>
<path d="M140.838 92.4241L135.727 93.5774L135.863 94.505L141.499 93.4005L140.838 92.4241Z" fill="#E1841B"/>
<path d="M109.925 45.1778C112.833 51.6048 120.569 48.0795 122.179 46.154C121.211 45.5104 118.952 43.2597 120.238 40.049L113.465 38.4361L109.918 38.7537C109.597 40.3593 109.277 42.2862 109.925 45.1778Z" fill="white"/>
<path d="M126.489 41.9959L122.309 46.2526L122 46.1572L126.181 41.9005L126.489 41.9959Z" fill="white"/>
<path d="M119.001 40.3778L124.067 36.9005L124.284 37.0163L119.217 40.4936L119.001 40.3778Z" fill="white"/>
<path d="M236.202 195.566H153.519C151.99 195.58 150.474 195.278 149.067 194.677C147.661 194.077 146.394 193.193 145.345 192.079C144.297 190.965 143.491 189.647 142.977 188.207C142.463 186.766 142.253 185.235 142.36 183.709L152.408 11.8571C152.637 8.66727 154.054 5.67946 156.38 3.48413C158.705 1.28881 161.77 0.0457045 164.968 0.000472518H247.669C249.198 -0.0136479 250.714 0.288846 252.12 0.88893C253.527 1.48901 254.794 2.3737 255.843 3.48735C256.891 4.60099 257.697 5.91949 258.211 7.35991C258.725 8.80033 258.935 10.3315 258.828 11.8571L248.749 183.709C248.52 186.897 247.104 189.883 244.781 192.078C242.458 194.273 239.397 195.518 236.202 195.566Z" fill="#FF9721"/>
<path d="M236.202 195.566H153.519C151.99 195.58 150.474 195.278 149.067 194.677C147.661 194.077 146.394 193.193 145.345 192.079C144.297 190.965 143.491 189.647 142.977 188.207C142.463 186.766 142.253 185.235 142.36 183.709L152.408 11.8571C152.637 8.66727 154.054 5.67946 156.38 3.48413C158.705 1.28881 161.77 0.0457045 164.968 0.000472518H247.669C249.198 -0.0136479 250.714 0.288846 252.12 0.88893C253.527 1.48901 254.794 2.3737 255.843 3.48735C256.891 4.60099 257.697 5.91949 258.211 7.35991C258.725 8.80033 258.935 10.3315 258.828 11.8571L248.749 183.709C248.52 186.897 247.104 189.883 244.781 192.078C242.458 194.273 239.397 195.518 236.202 195.566Z" fill="#FFD19F"/>
<path d="M235.711 192.125H155.327C154.253 192.135 153.188 191.923 152.199 191.502C151.211 191.08 150.32 190.459 149.584 189.677C148.847 188.895 148.28 187.969 147.919 186.957C147.557 185.945 147.409 184.869 147.484 183.797L157.532 12.6924C157.693 10.4566 158.684 8.36197 160.311 6.81995C161.938 5.27793 164.082 4.40006 166.324 4.35883H246.708C247.782 4.34931 248.847 4.5622 249.836 4.98411C250.824 5.40603 251.715 6.02784 252.452 6.81049C253.188 7.59313 253.755 8.51969 254.116 9.53192C254.478 10.5442 254.626 11.6202 254.551 12.6924L244.503 183.797C244.342 186.032 243.351 188.126 241.724 189.667C240.097 191.208 237.952 192.085 235.711 192.125Z" fill="#FFB460"/>
<path d="M234.845 191.208H154.461C153.386 191.217 152.321 191.004 151.333 190.582C150.344 190.161 149.454 189.539 148.717 188.756C147.98 187.973 147.414 187.047 147.052 186.035C146.691 185.022 146.543 183.946 146.617 182.874L156.665 11.7693C156.826 9.53355 157.818 7.43888 159.445 5.89686C161.072 4.35484 163.216 3.47696 165.457 3.43573H245.841C246.916 3.42621 247.981 3.6391 248.97 4.06102C249.958 4.48293 250.849 5.10475 251.585 5.88739C252.322 6.67004 252.889 7.59659 253.25 8.60883C253.612 9.62106 253.76 10.6971 253.685 11.7693L243.637 182.874C243.476 185.11 242.485 187.205 240.858 188.747C239.231 190.289 237.086 191.167 234.845 191.208Z" fill="white"/>
<path opacity="0.1" d="M232.496 184.846H157.532C156.868 184.852 156.21 184.72 155.599 184.46C154.988 184.199 154.437 183.815 153.982 183.331C153.527 182.848 153.176 182.275 152.953 181.65C152.73 181.024 152.638 180.359 152.684 179.696L156.904 108.324C157.003 106.939 157.618 105.642 158.627 104.688C159.636 103.735 160.967 103.195 162.355 103.175H237.288C237.952 103.169 238.61 103.3 239.221 103.561C239.832 103.822 240.383 104.206 240.838 104.689C241.293 105.173 241.644 105.746 241.867 106.371C242.09 106.997 242.182 107.662 242.136 108.324L237.947 179.696C237.848 181.081 237.234 182.379 236.224 183.332C235.215 184.286 233.885 184.826 232.496 184.846Z" fill="#FF9721"/>
<path opacity="0.1" d="M215.848 16.1276H194C193.763 16.1299 193.527 16.083 193.309 15.9899C193.091 15.8969 192.894 15.7596 192.731 15.5868C192.568 15.4139 192.443 15.2093 192.363 14.9857C192.283 14.7621 192.25 14.5244 192.267 14.2875C192.301 13.7909 192.521 13.3254 192.883 12.9834C193.245 12.6414 193.722 12.4479 194.22 12.4412H216.062C216.302 12.4353 216.541 12.4797 216.762 12.5716C216.984 12.6635 217.184 12.8008 217.35 12.9747C217.516 13.1486 217.643 13.3553 217.724 13.5814C217.805 13.8075 217.838 14.048 217.82 14.2875C217.785 14.7868 217.562 15.2542 217.196 15.5957C216.83 15.9371 216.349 16.1272 215.848 16.1276Z" fill="#FF9721"/>
<path opacity="0.1" d="M224.54 85.0119C237.994 71.9471 238.912 51.071 226.592 38.3837C214.271 25.6965 193.377 26.0026 179.923 39.0674C166.47 52.1322 165.551 73.0083 177.872 85.6956C190.192 98.3828 211.087 98.0767 224.54 85.0119Z" fill="#FF9721"/>
<path d="M179.135 83.8825C176.386 80.9558 174.272 77.4927 172.924 73.7103C171.576 69.928 171.025 65.908 171.304 61.9025H171.932C171.66 65.8219 172.2 69.7553 173.518 73.4564C174.837 77.1575 176.905 80.5466 179.594 83.4115L179.135 83.8825Z" fill="#FF9721"/>
<path d="M233.156 62.1725L232.528 62.1348C232.699 59.3684 232.488 56.5915 231.9 53.8829L232.528 53.7448C233.128 56.5111 233.34 59.3477 233.156 62.1725Z" fill="#FF9721"/>
<path d="M230.078 48.4193C228.541 45.0094 226.343 41.9384 223.61 39.3846C220.877 36.8308 217.665 34.8449 214.159 33.542L214.378 32.9517C217.965 34.2813 221.25 36.3116 224.044 38.924C226.838 41.5365 229.083 44.6789 230.65 48.1681L230.078 48.4193Z" fill="#FF9721"/>
<path d="M221.67 82.0565C233.394 70.671 234.196 52.4794 223.46 41.4244C212.725 30.3694 194.518 30.6373 182.793 42.0228C171.069 53.4083 170.267 71.5999 181.003 82.6549C191.738 93.7099 209.946 93.442 221.67 82.0565Z" fill="#FF9721"/>
<path d="M199.037 65.9405C200.418 65.6328 201.065 64.4522 201.36 63.1083C201.392 62.9638 201.417 62.8257 201.442 62.6875V62.5619C201.517 62.0018 201.559 61.4377 201.568 60.8726C200.23 60.7402 198.988 60.1205 198.078 59.1315C197.167 58.1426 196.653 56.8534 196.632 55.5095C196.562 52.8445 197.153 50.2038 198.352 47.8228C198.044 47.8631 197.751 47.9845 197.504 48.1744C197.481 48.1926 197.453 48.2054 197.424 48.2119C197.395 48.2184 197.364 48.2185 197.335 48.2121C197.28 48.2027 197.231 48.1737 197.197 48.1305C197.163 48.0833 197.149 48.0251 197.157 47.9679C197.166 47.9106 197.195 47.8587 197.241 47.8228C197.631 47.5276 198.108 47.3688 198.597 47.3706C198.691 47.2199 198.779 47.0629 198.873 46.9184C198.472 46.9184 198.082 46.9184 197.705 46.9184C198.12 44.0171 203.703 41.5804 207.508 43.7784C209.204 44.1176 212.005 46.5416 212.005 46.5416C212.061 48.0857 212.017 49.6317 211.873 51.17C211.622 53.795 211 56.8785 209.487 58.5992C209.863 57.719 210.002 56.7553 209.889 55.8046C209.526 56.1633 209.075 56.421 208.582 56.552C208.403 56.9368 208.193 57.3065 207.954 57.6572C207.364 60.3514 206.943 63.9372 207.841 66.0034C208.651 66.0536 209.436 66.1289 210.184 66.2106L210.366 66.242C210.859 65.9523 211.333 65.6314 211.785 65.2811C217.437 60.8851 211.44 55.723 212.853 50.9942C214.266 46.2653 213.073 44.4692 209.21 44.3185C210.812 41.7626 200.638 37.6806 196.167 45.6122C192.116 52.8028 190.81 56.395 192.267 62.0156C192.815 63.8526 194.056 65.4044 195.727 66.3425C196.012 66.2646 196.301 66.2059 196.594 66.1666C197.391 66.0913 198.22 66.0033 199.037 65.9405Z" fill="#263238"/>
<path d="M190.251 76.9933C190.02 76.5856 189.811 76.1663 189.623 75.7373C189.196 76.9933 188.775 78.2493 188.367 79.5053C187.978 80.6357 187.607 81.7661 187.218 82.8463L186.634 84.3723L186.382 85.0003C186.295 85.1699 186.382 85.0694 186.382 85.1196C186.115 85.4314 185.818 85.7174 185.497 85.9737C185.428 86.0428 185.34 86.1056 185.265 86.1684C187.002 87.3404 188.872 88.3037 190.835 89.0383C190.879 86.1684 191.231 83.1854 191.607 82.3878C189.347 80.8178 189.686 79.1285 190.251 76.9933Z" fill="#FFC3BD"/>
<path d="M192.449 68.5216L192.292 68.7414C192.342 68.666 192.399 68.597 192.455 68.5279L192.449 68.5216Z" fill="#263238"/>
<path d="M190.998 72.7292C190.989 71.3468 191.408 69.9954 192.198 68.8607C190.994 70.7549 190.004 72.7768 189.246 74.8895C189.246 74.8895 189.359 75.2224 189.598 75.7436C189.786 76.1726 189.995 76.5918 190.226 76.9996C190.674 75.6172 190.933 74.1809 190.998 72.7292Z" fill="#263238"/>
<path d="M212.89 81.8415C212.146 80.7476 211.484 79.5993 210.912 78.4064C210.724 78.5068 210.529 78.6073 210.328 78.6952C208.444 76.7045 206.836 75.0968 206.836 75.0968C204.488 70.1984 205.938 67.4101 210.391 66.2734C211.082 66.4156 211.741 66.6815 212.338 67.0584C211.75 66.6455 211.075 66.3746 210.366 66.2671L210.183 66.2357C209.436 66.1541 208.651 66.0787 207.841 66.0285C208.017 66.4869 203.985 72.3085 201.454 73.2316C200.418 70.6192 197.51 70.4433 197.51 70.4433C197.51 70.4433 194.797 69.8844 193.956 71.5926C194.509 68.0632 197.906 66.2043 199.036 65.9406C198.22 66.0096 197.391 66.0976 196.594 66.198C196.301 66.2373 196.012 66.296 195.727 66.3739C194.435 66.7284 193.289 67.485 192.455 68.5342C192.399 68.6033 192.342 68.6724 192.292 68.7477L192.198 68.867C191.408 70.0017 190.989 71.3531 190.998 72.7355C190.941 74.1839 190.69 75.6181 190.251 76.9996C189.686 79.1097 189.346 80.8242 191.563 82.3942C191.186 83.1917 190.835 86.1622 190.791 89.0447C193.912 90.2017 197.215 90.7888 200.544 90.778C204.806 90.7715 209.016 89.8484 212.89 88.0713C212.782 85.7337 212.801 83.392 212.947 81.0565C212.928 81.3077 212.903 81.584 212.89 81.8415Z" fill="#263238"/>
<path d="M197.511 70.4433C197.511 70.4433 200.418 70.6191 201.455 73.2316C203.967 72.277 208.017 66.4869 207.841 66.0284C207.841 66.0284 202.12 68.8042 197.511 70.4433Z" fill="white"/>
<path d="M199.049 65.9406C197.919 66.2106 194.521 68.0695 193.969 71.5926C194.81 69.8844 197.523 70.4433 197.523 70.4433C196.644 67.14 199.049 65.9406 199.049 65.9406Z" fill="white"/>
<path d="M207.954 57.6824C207.408 58.4742 206.718 59.156 205.919 59.692C205.583 59.9336 205.226 60.1438 204.852 60.32C204.029 61.6404 202.802 62.6601 201.354 63.2276V63.1208C201.059 64.4648 200.412 65.6329 199.03 65.9531C199.03 65.9531 196.625 67.1589 197.492 70.4622C202.107 68.8231 207.822 66.0662 207.822 66.0662C206.943 63.9686 207.364 60.3765 207.954 57.6824Z" fill="#FFC3BD"/>
<path d="M201.373 63.1019C201.404 62.9575 201.429 62.8193 201.454 62.6812C201.429 62.8005 201.404 62.9575 201.373 63.1019Z" fill="#263238"/>
<path opacity="0.2" d="M201.373 63.1019C201.404 62.9575 201.429 62.8193 201.454 62.6812C201.429 62.8005 201.404 62.9575 201.373 63.1019Z" fill="black"/>
<path d="M201.599 60.8662C201.59 61.4313 201.548 61.9954 201.473 62.5555C201.551 61.9957 201.593 61.4314 201.599 60.8662Z" fill="#263238"/>
<path opacity="0.2" d="M201.599 60.8662C201.59 61.4313 201.548 61.9954 201.473 62.5555C201.551 61.9957 201.593 61.4314 201.599 60.8662Z" fill="black"/>
<path d="M204.852 60.2886C203.84 60.7732 202.715 60.9688 201.599 60.8538C201.593 61.419 201.551 61.9833 201.473 62.5431V62.6687C201.473 62.8069 201.423 62.945 201.392 63.0895V63.1962C202.826 62.6218 204.039 61.6028 204.852 60.2886Z" fill="#FFC3BD"/>
<path opacity="0.2" d="M204.852 60.2886C203.84 60.7732 202.715 60.9688 201.599 60.8538C201.593 61.419 201.551 61.9833 201.473 62.5431V62.6687C201.473 62.8069 201.423 62.945 201.392 63.0895V63.1962C202.826 62.6218 204.039 61.6028 204.852 60.2886Z" fill="black"/>
<path d="M204.851 60.2885C205.226 60.1124 205.583 59.9021 205.919 59.6605C206.718 59.1245 207.408 58.4427 207.954 57.6509C208.193 57.3001 208.403 56.9305 208.582 56.5456C208.462 56.5456 208.343 56.6084 208.23 56.621C207.181 56.7152 206.886 55.5345 207.363 54.4795C207.525 54.1228 207.736 53.7908 207.991 53.4935C207.717 52.597 207.785 51.6307 208.18 50.7806C207.225 48.8212 206.214 47.0126 206.12 45.7001C203.77 46.4264 201.332 46.8258 198.873 46.887C198.779 47.0314 198.691 47.1884 198.597 47.3392C198.81 47.3383 199.021 47.3701 199.225 47.4333C199.251 47.4431 199.275 47.458 199.296 47.4773C199.317 47.4965 199.333 47.5196 199.345 47.5453C199.357 47.571 199.363 47.5988 199.364 47.627C199.365 47.6552 199.36 47.6833 199.35 47.7097C199.33 47.7633 199.29 47.807 199.239 47.8316C199.187 47.8563 199.128 47.8598 199.074 47.8415C198.848 47.7731 198.61 47.7559 198.377 47.7913C197.194 50.1744 196.618 52.8126 196.7 55.4717C196.721 56.8157 197.236 58.1049 198.146 59.0938C199.056 60.0828 200.299 60.7025 201.636 60.8349C202.738 60.9487 203.849 60.7598 204.851 60.2885ZM203.451 47.9546C203.793 48.0218 204.114 48.1713 204.385 48.3902C204.656 48.609 204.87 48.8906 205.008 49.2106C205.033 49.2633 205.036 49.3233 205.017 49.3783C204.999 49.4332 204.959 49.4789 204.908 49.5058C204.856 49.5274 204.797 49.5274 204.745 49.5058C204.716 49.498 204.69 49.4837 204.669 49.4641C204.647 49.4445 204.63 49.42 204.619 49.3927C204.505 49.1391 204.331 48.9169 204.112 48.7452C203.894 48.5735 203.637 48.4574 203.363 48.4068C203.307 48.3975 203.256 48.367 203.221 48.3215C203.186 48.276 203.169 48.2189 203.175 48.1618C203.177 48.1297 203.187 48.0985 203.203 48.0705C203.219 48.0424 203.241 48.0183 203.267 47.9997C203.294 47.9811 203.324 47.9686 203.356 47.9629C203.387 47.9573 203.42 47.9588 203.451 47.9672V47.9546ZM203.231 51.0569C203.336 51.1356 203.414 51.2452 203.453 51.3702C203.492 51.4952 203.492 51.6294 203.451 51.754C203.382 52.1182 203.131 52.382 202.892 52.3255C202.653 52.269 202.515 51.9487 202.584 51.5844C202.619 51.3998 202.714 51.2319 202.854 51.1072C202.659 51.0035 202.505 50.8347 202.421 50.6299L203.231 51.0569ZM198.082 50.7932C198.115 50.6114 198.208 50.4459 198.345 50.3222C198.153 50.2134 198.002 50.0431 197.918 49.8386L198.741 50.2593C198.842 50.3409 198.917 50.4506 198.956 50.5747C198.995 50.6987 198.997 50.8315 198.961 50.9564C198.885 51.3207 198.641 51.5844 198.402 51.5342C198.163 51.4839 198.013 51.1699 198.082 50.8057V50.7932ZM199.539 53.8452C199.306 53.859 199.073 53.8217 198.856 53.736C198.639 53.6503 198.443 53.5183 198.283 53.3491C198.955 52.7399 199.542 52.0428 200.028 51.2767L199.539 53.8452ZM200.751 55.5283C200.723 55.5208 200.699 55.5031 200.684 55.4785C200.668 55.454 200.663 55.4246 200.669 55.3964C200.675 55.369 200.692 55.3451 200.715 55.3298C200.739 55.3146 200.767 55.3091 200.795 55.3147C201.248 55.4124 201.718 55.4018 202.166 55.284C202.615 55.1662 203.029 54.9443 203.376 54.6365C203.386 54.6262 203.397 54.6179 203.411 54.6122C203.424 54.6065 203.438 54.6034 203.452 54.6031C203.466 54.6028 203.48 54.6053 203.494 54.6105C203.507 54.6157 203.519 54.6235 203.53 54.6334C203.54 54.6433 203.548 54.6551 203.554 54.6682C203.56 54.6813 203.563 54.6954 203.563 54.7097C203.563 54.7239 203.561 54.7381 203.556 54.7515C203.55 54.7648 203.543 54.7769 203.533 54.7872C202.949 55.3248 202.178 55.6132 201.385 55.5911C201.173 55.5892 200.961 55.5724 200.751 55.5408V55.5283Z" fill="#FFC3BD"/>
<path d="M209.028 52.7525C208.764 52.1245 208.463 51.4526 208.155 50.8246C207.76 51.6747 207.693 52.641 207.967 53.5375C208.245 53.187 208.611 52.9162 209.028 52.7525Z" fill="#263238"/>
<path d="M202.843 51.126C202.702 51.2508 202.607 51.4187 202.572 51.6033C202.503 51.9676 202.642 52.3004 202.88 52.3444C203.119 52.3883 203.37 52.1371 203.439 51.7729C203.48 51.6483 203.481 51.5141 203.441 51.3891C203.402 51.2641 203.324 51.1545 203.219 51.0758C203.166 51.1162 203.104 51.1421 203.038 51.151C202.972 51.1598 202.904 51.1512 202.843 51.126Z" fill="#263238"/>
<path d="M198.98 50.9753C199.016 50.8504 199.015 50.7175 198.976 50.5935C198.937 50.4695 198.862 50.3598 198.76 50.2782C198.706 50.3181 198.643 50.3441 198.576 50.3539C198.509 50.3638 198.441 50.3572 198.377 50.3347C198.24 50.4585 198.147 50.624 198.114 50.8057C198.044 51.17 198.183 51.5028 198.421 51.553C198.66 51.6033 198.873 51.3395 198.98 50.9753Z" fill="#263238"/>
<path d="M198.729 50.2782L197.906 49.8574C197.99 50.0619 198.141 50.2323 198.333 50.341C198.399 50.3648 198.47 50.3716 198.539 50.3606C198.608 50.3496 198.674 50.3213 198.729 50.2782Z" fill="#263238"/>
<path d="M198.289 53.3805C198.45 53.5497 198.645 53.6818 198.862 53.7675C199.079 53.8532 199.312 53.8904 199.545 53.8766L200.041 51.3081C199.553 52.0746 198.964 52.7717 198.289 53.3805Z" fill="#ED847E"/>
<path d="M203.52 54.6366C203.499 54.6162 203.471 54.6049 203.442 54.6049C203.413 54.6049 203.384 54.6162 203.363 54.6366C203.018 54.9425 202.606 55.1632 202.16 55.281C201.714 55.3988 201.246 55.4104 200.795 55.3148C200.767 55.3092 200.739 55.3146 200.715 55.3299C200.692 55.3452 200.675 55.3691 200.669 55.3965C200.664 55.4247 200.669 55.4541 200.684 55.4786C200.699 55.5031 200.723 55.5209 200.751 55.5283C200.959 55.5638 201.168 55.5848 201.379 55.5911C202.172 55.6132 202.943 55.3248 203.527 54.7873C203.544 54.7658 203.554 54.7385 203.552 54.7107C203.551 54.6829 203.54 54.6565 203.52 54.6366Z" fill="#263238"/>
<path d="M209.028 52.7526C208.612 52.9163 208.245 53.1871 207.967 53.5376C207.712 53.8348 207.5 54.1668 207.339 54.5235C206.862 55.5786 207.157 56.7592 208.206 56.665C208.319 56.665 208.438 56.6148 208.557 56.5897C209.05 56.4587 209.501 56.2011 209.863 55.8423C209.732 54.7782 209.451 53.738 209.028 52.7526Z" fill="#FFC3BD"/>
<path d="M206.239 44.7895C206.277 43.8852 206.792 43.6654 207.495 43.8036C203.69 41.5804 198.107 44.0171 197.692 46.9435C198.069 46.9435 198.459 46.9435 198.86 46.9435C201.319 46.8824 203.758 46.483 206.108 45.7566C206.071 45.4283 206.116 45.0961 206.239 44.7895Z" fill="#263238"/>
<path d="M206.24 44.7894C206.121 45.0882 206.075 45.4113 206.108 45.7314C206.202 47.0627 207.213 48.8714 208.168 50.8119C208.475 51.4399 208.796 52.0679 209.041 52.7399C209.463 53.7253 209.744 54.7655 209.876 55.8296C209.989 56.7803 209.85 57.744 209.474 58.6242C210.987 56.9035 211.609 53.82 211.86 51.195C212.004 49.6567 212.048 48.1106 211.992 46.5666C211.992 46.5666 209.191 44.1425 207.496 43.8034C206.792 43.6653 206.277 43.8851 206.24 44.7894Z" fill="#263238"/>
<path d="M203.376 48.4005C203.649 48.4511 203.906 48.5673 204.125 48.739C204.344 48.9107 204.518 49.1329 204.632 49.3865C204.642 49.4138 204.659 49.4382 204.681 49.4578C204.703 49.4775 204.729 49.4917 204.757 49.4995C204.81 49.5211 204.868 49.5211 204.921 49.4995C204.972 49.4726 205.011 49.427 205.03 49.372C205.049 49.3171 205.046 49.257 205.021 49.2043C204.883 48.8843 204.669 48.6027 204.398 48.3839C204.126 48.1651 203.806 48.0156 203.464 47.9483C203.406 47.9412 203.348 47.957 203.303 47.9922C203.257 48.0275 203.227 48.0794 203.219 48.1367C203.207 48.1924 203.217 48.2505 203.246 48.2993C203.275 48.3482 203.321 48.3844 203.376 48.4005Z" fill="#263238"/>
<path d="M199.036 47.8729C199.091 47.8912 199.15 47.8876 199.201 47.863C199.253 47.8384 199.293 47.7946 199.313 47.741C199.323 47.7147 199.328 47.6865 199.327 47.6583C199.326 47.6301 199.319 47.6024 199.308 47.5767C199.296 47.551 199.279 47.5278 199.259 47.5086C199.238 47.4894 199.214 47.4745 199.187 47.4647C198.984 47.4014 198.772 47.3697 198.559 47.3705C198.07 47.3687 197.593 47.5275 197.203 47.8227C197.157 47.8586 197.128 47.9105 197.119 47.9678C197.111 48.025 197.125 48.0832 197.159 48.1304C197.193 48.1736 197.242 48.2026 197.297 48.212C197.326 48.2184 197.357 48.2183 197.386 48.2118C197.415 48.2053 197.443 48.1925 197.466 48.1743C197.713 47.9844 198.006 47.8631 198.314 47.8227C198.556 47.7834 198.803 47.8006 199.036 47.8729Z" fill="#263238"/>
<path d="M202.842 51.126C202.904 51.1512 202.971 51.1598 203.037 51.151C203.104 51.1421 203.166 51.1162 203.219 51.0758L202.396 50.655C202.485 50.8596 202.643 51.0263 202.842 51.126Z" fill="#263238"/>
<path d="M212.89 81.8415C212.89 81.584 212.928 81.3077 212.941 81.0439C212.589 80.485 212.231 79.9198 211.86 79.3609L211.138 78.287L210.912 78.4063C211.485 79.5993 212.146 80.7475 212.89 81.8415Z" fill="#263238"/>
<path opacity="0.2" d="M212.89 81.8415C212.89 81.584 212.928 81.3077 212.941 81.0439C212.589 80.485 212.231 79.9198 211.86 79.3609L211.138 78.287L210.912 78.4063C211.485 79.5993 212.146 80.7475 212.89 81.8415Z" fill="black"/>
<path d="M214.756 87.0413V87.1418C217.26 85.7883 219.568 84.0979 221.613 82.1178C221.27 81.1047 220.868 80.1129 220.408 79.1474C219.798 77.8341 219.121 76.5534 218.379 75.3103C217.751 74.2301 217.086 73.2002 216.401 72.1703C215.773 73.4828 213.99 76.6416 211.157 78.2682L211.879 79.342C212.25 79.901 212.608 80.4662 212.96 81.0251C213.267 81.5149 213.588 82.011 213.845 82.5009C214.329 83.3487 214.781 84.2027 215.101 85.0129L215.038 85.4399C214.963 85.9612 214.869 86.495 214.756 87.0413Z" fill="#FFC3BD"/>
<path d="M206.836 75.0967C206.836 75.0967 208.444 76.7044 210.328 78.6952C210.529 78.6072 210.724 78.5068 210.912 78.4063L211.138 78.287C213.97 76.6604 215.741 73.5016 216.382 72.1891C216.564 71.8186 216.658 71.5925 216.658 71.5925C216.658 71.5925 214.837 68.5781 212.338 67.0583C211.741 66.6815 211.082 66.4155 210.391 66.2733C205.938 67.41 204.488 70.1983 206.836 75.0967Z" fill="#263238"/>
<path d="M236.949 12.1021H245.797C246.039 12.098 246.27 12.0035 246.446 11.8373C246.622 11.6711 246.728 11.4452 246.746 11.2041C246.753 11.0892 246.737 10.9739 246.699 10.8656C246.66 10.7572 246.599 10.658 246.52 10.5743C246.441 10.4905 246.345 10.424 246.239 10.3789C246.133 10.3339 246.019 10.3112 245.904 10.3123H237.049C236.809 10.3163 236.578 10.4098 236.403 10.5748C236.227 10.7397 236.12 10.9641 236.101 11.2041C236.092 11.32 236.108 11.4364 236.147 11.546C236.185 11.6556 236.247 11.7558 236.327 11.8404C236.406 11.9249 236.503 11.9918 236.61 12.0369C236.717 12.082 236.833 12.1042 236.949 12.1021Z" fill="#FF9721"/>
<path d="M236.767 15.1855H245.615C245.857 15.1814 246.088 15.087 246.264 14.9208C246.439 14.7545 246.546 14.5286 246.564 14.2875C246.572 14.1721 246.557 14.0562 246.518 13.947C246.48 13.8379 246.419 13.738 246.34 13.6535C246.261 13.5691 246.165 13.502 246.059 13.4566C245.952 13.4111 245.838 13.3883 245.722 13.3894H236.874C236.631 13.392 236.398 13.4858 236.221 13.6521C236.044 13.8185 235.936 14.0453 235.919 14.2875C235.912 14.403 235.929 14.5186 235.968 14.6274C236.008 14.7361 236.069 14.8356 236.149 14.9197C236.228 15.0038 236.324 15.0708 236.43 15.1165C236.537 15.1623 236.651 15.1857 236.767 15.1855Z" fill="#FF9721"/>
<path d="M165.181 15.1855H174.03C174.272 15.1816 174.504 15.0873 174.681 14.9212C174.857 14.7551 174.966 14.5292 174.984 14.2875C174.992 14.1718 174.976 14.0557 174.937 13.9466C174.898 13.8374 174.836 13.7376 174.757 13.6532C174.677 13.5689 174.581 13.502 174.474 13.4566C174.367 13.4112 174.253 13.3883 174.137 13.3894H165.288C165.046 13.3921 164.814 13.4861 164.638 13.6526C164.462 13.8191 164.356 14.0458 164.34 14.2875C164.332 14.4027 164.348 14.5182 164.387 14.6269C164.426 14.7356 164.486 14.8352 164.565 14.9194C164.644 15.0036 164.74 15.0707 164.846 15.1165C164.952 15.1623 165.066 15.1858 165.181 15.1855Z" fill="#FF9721"/>
<path d="M236.585 18.2628H245.452C245.695 18.2602 245.928 18.1665 246.105 18.0001C246.282 17.8337 246.39 17.6069 246.407 17.3647C246.414 17.2492 246.397 17.1336 246.357 17.0248C246.318 16.9161 246.257 16.8166 246.177 16.7325C246.098 16.6484 246.002 16.5814 245.896 16.5357C245.789 16.4899 245.675 16.4665 245.559 16.4667H236.692C236.449 16.4706 236.217 16.5649 236.041 16.731C235.864 16.8971 235.756 17.1231 235.737 17.3647C235.729 17.4804 235.746 17.5965 235.785 17.7056C235.824 17.8148 235.885 17.9146 235.965 17.999C236.045 18.0833 236.141 18.1502 236.247 18.1956C236.354 18.241 236.469 18.2639 236.585 18.2628Z" fill="#FF9721"/>
<path d="M224.954 130.932H171.423C170.423 130.942 169.433 130.744 168.513 130.352C167.593 129.96 166.765 129.381 166.079 128.654C165.394 127.926 164.867 127.064 164.53 126.122C164.194 125.181 164.057 124.18 164.126 123.183C164.276 121.098 165.203 119.146 166.723 117.711C168.242 116.277 170.244 115.464 172.334 115.433H225.865C226.864 115.424 227.855 115.621 228.775 116.014C229.694 116.406 230.523 116.984 231.208 117.712C231.894 118.44 232.421 119.301 232.757 120.243C233.094 121.184 233.231 122.185 233.162 123.183C233.011 125.267 232.085 127.219 230.565 128.654C229.046 130.089 227.044 130.901 224.954 130.932Z" fill="white"/>
<path d="M223.736 151.763H170.199C169.199 151.77 168.209 151.571 167.29 151.178C166.37 150.785 165.542 150.206 164.857 149.478C164.172 148.75 163.645 147.888 163.308 146.947C162.972 146.005 162.833 145.005 162.902 144.007C163.057 141.926 163.985 139.979 165.504 138.548C167.024 137.117 169.023 136.307 171.11 136.276H224.647C225.646 136.267 226.637 136.465 227.557 136.857C228.477 137.249 229.305 137.827 229.99 138.555C230.676 139.283 231.203 140.145 231.539 141.086C231.876 142.028 232.013 143.029 231.944 144.026C231.789 146.108 230.861 148.056 229.342 149.488C227.823 150.919 225.823 151.731 223.736 151.763Z" fill="white"/>
<path d="M222.511 172.587H168.98C167.981 172.597 166.99 172.399 166.07 172.007C165.151 171.615 164.322 171.037 163.637 170.309C162.951 169.581 162.424 168.719 162.088 167.778C161.751 166.836 161.614 165.835 161.683 164.838C161.834 162.753 162.76 160.8 164.279 159.364C165.799 157.929 167.801 157.114 169.891 157.082H223.422C224.422 157.074 225.413 157.272 226.332 157.665C227.252 158.058 228.08 158.637 228.766 159.365C229.451 160.093 229.978 160.955 230.314 161.897C230.651 162.839 230.788 163.84 230.719 164.838C230.568 166.922 229.642 168.875 228.122 170.309C226.603 171.744 224.601 172.557 222.511 172.587Z" fill="white"/>
<path d="M175.582 125.96C177.212 124.377 177.325 121.85 175.834 120.315C174.343 118.779 171.813 118.818 170.183 120.401C168.554 121.983 168.441 124.511 169.932 126.046C171.423 127.581 173.952 127.543 175.582 125.96Z" fill="#FF9721"/>
<path d="M172.409 140.233L172.937 142.224C172.967 142.333 173.033 142.429 173.124 142.497C173.215 142.566 173.326 142.602 173.439 142.6H175.53C175.648 142.601 175.763 142.641 175.856 142.713C175.949 142.786 176.016 142.886 176.047 143C176.078 143.114 176.07 143.235 176.026 143.344C175.981 143.453 175.902 143.545 175.8 143.605L174.036 144.861C173.936 144.928 173.859 145.024 173.816 145.137C173.773 145.25 173.767 145.373 173.797 145.489L174.325 147.48C174.356 147.594 174.351 147.715 174.311 147.827C174.272 147.939 174.198 148.035 174.102 148.104C174.005 148.172 173.89 148.209 173.771 148.21C173.653 148.211 173.537 148.175 173.439 148.108L171.819 146.852C171.727 146.787 171.617 146.753 171.505 146.753C171.393 146.753 171.283 146.787 171.191 146.852L169.426 148.108C169.334 148.182 169.219 148.222 169.101 148.223C168.983 148.223 168.868 148.185 168.775 148.112C168.681 148.04 168.615 147.938 168.586 147.823C168.557 147.709 168.568 147.588 168.616 147.48L169.376 145.489C169.423 145.381 169.432 145.261 169.402 145.147C169.373 145.033 169.306 144.933 169.213 144.861L167.593 143.605C167.503 143.529 167.44 143.426 167.411 143.312C167.382 143.198 167.389 143.078 167.431 142.968C167.473 142.858 167.548 142.764 167.645 142.698C167.743 142.632 167.858 142.598 167.976 142.6H170.067C170.185 142.6 170.301 142.564 170.399 142.497C170.496 142.43 170.571 142.334 170.613 142.224L171.348 140.233C171.381 140.118 171.451 140.017 171.547 139.945C171.643 139.873 171.759 139.834 171.879 139.834C171.998 139.834 172.115 139.873 172.21 139.945C172.306 140.017 172.376 140.118 172.409 140.233Z" fill="#FF9721"/>
<path d="M173.86 162.728L173.527 168.317C173.512 168.551 173.408 168.771 173.236 168.932C173.065 169.093 172.839 169.183 172.604 169.184H167.712C167.604 169.177 167.498 169.149 167.401 169.101C167.304 169.054 167.217 168.987 167.146 168.905C167.076 168.823 167.022 168.727 166.989 168.624C166.955 168.521 166.943 168.412 166.952 168.304L167.36 161.346C167.375 161.112 167.477 160.891 167.647 160.729C167.817 160.568 168.043 160.476 168.277 160.473H171.794L173.86 162.728Z" fill="#FF9721"/>
<path d="M171.762 160.486L173.879 162.728H172.503C172.392 162.729 172.281 162.707 172.178 162.663C172.075 162.619 171.982 162.555 171.906 162.473C171.829 162.392 171.77 162.296 171.732 162.19C171.695 162.085 171.679 161.973 171.687 161.861L171.762 160.486ZM171.203 158.947L171.116 160.448L171.034 161.824C171.023 162.024 171.053 162.224 171.12 162.413C171.188 162.602 171.294 162.775 171.43 162.923C171.568 163.068 171.734 163.184 171.919 163.263C172.104 163.342 172.303 163.382 172.503 163.381H175.38L174.35 162.282L172.24 160.04L171.203 158.947Z" fill="white"/>
<path opacity="0.2" d="M223.158 122.36H183.098C182.936 122.361 182.775 122.329 182.626 122.265C182.477 122.202 182.343 122.108 182.231 121.99C182.12 121.873 182.034 121.733 181.979 121.581C181.924 121.428 181.901 121.266 181.911 121.104C181.938 120.766 182.089 120.449 182.337 120.217C182.584 119.985 182.909 119.853 183.249 119.848H223.303C223.465 119.847 223.625 119.879 223.774 119.943C223.924 120.006 224.058 120.1 224.169 120.218C224.281 120.336 224.367 120.475 224.422 120.628C224.477 120.78 224.5 120.942 224.489 121.104C224.464 121.442 224.314 121.758 224.068 121.99C223.821 122.223 223.497 122.355 223.158 122.36Z" fill="#FF9721"/>
<path opacity="0.2" d="M215.566 126.53H182.859C182.697 126.531 182.536 126.499 182.387 126.435C182.237 126.372 182.102 126.278 181.99 126.161C181.879 126.043 181.792 125.903 181.736 125.751C181.681 125.598 181.657 125.436 181.666 125.274C181.693 124.936 181.844 124.619 182.092 124.387C182.339 124.155 182.664 124.023 183.004 124.018H215.71C215.873 124.016 216.034 124.047 216.184 124.111C216.334 124.174 216.469 124.267 216.581 124.385C216.693 124.503 216.779 124.643 216.835 124.796C216.89 124.949 216.914 125.112 216.903 125.274C216.875 125.612 216.723 125.927 216.476 126.159C216.229 126.391 215.904 126.523 215.566 126.53Z" fill="#FF9721"/>
<path opacity="0.2" d="M221.839 144.83H210.786C210.447 144.834 210.121 144.965 209.873 145.197C209.625 145.43 209.474 145.747 209.449 146.086C209.438 146.248 209.461 146.41 209.517 146.562C209.572 146.715 209.657 146.854 209.769 146.972C209.88 147.09 210.015 147.184 210.164 147.247C210.313 147.311 210.473 147.343 210.636 147.342H221.688C222.028 147.338 222.354 147.207 222.602 146.974C222.849 146.742 223.001 146.425 223.026 146.086C223.036 145.924 223.013 145.762 222.958 145.609C222.903 145.457 222.817 145.317 222.706 145.2C222.595 145.082 222.46 144.988 222.311 144.924C222.162 144.861 222.001 144.829 221.839 144.83Z" fill="#FF9721"/>
<path opacity="0.2" d="M204.324 144.83H181.785C181.446 144.834 181.12 144.965 180.872 145.197C180.624 145.43 180.473 145.747 180.448 146.086C180.436 146.248 180.459 146.41 180.514 146.563C180.568 146.716 180.654 146.856 180.766 146.974C180.877 147.092 181.012 147.186 181.162 147.249C181.311 147.312 181.472 147.344 181.635 147.342H204.18C204.519 147.337 204.844 147.205 205.092 146.973C205.339 146.74 205.491 146.424 205.517 146.086C205.528 145.923 205.505 145.761 205.449 145.608C205.394 145.455 205.307 145.315 205.195 145.197C205.083 145.079 204.948 144.986 204.798 144.923C204.648 144.859 204.487 144.828 204.324 144.83Z" fill="#FF9721"/>
<path opacity="0.2" d="M214.736 140.672H182.024C181.684 140.676 181.358 140.807 181.11 141.04C180.863 141.273 180.711 141.59 180.686 141.928C180.676 142.09 180.699 142.252 180.754 142.405C180.809 142.557 180.895 142.697 181.006 142.815C181.117 142.933 181.252 143.026 181.401 143.09C181.55 143.153 181.711 143.186 181.873 143.184H214.579C214.918 143.179 215.244 143.048 215.491 142.815C215.738 142.583 215.89 142.267 215.917 141.928C215.927 141.767 215.904 141.606 215.849 141.454C215.795 141.301 215.709 141.162 215.599 141.045C215.488 140.927 215.354 140.833 215.206 140.769C215.058 140.705 214.898 140.672 214.736 140.672Z" fill="#FF9721"/>
<path opacity="0.2" d="M220.615 165.654H180.561C180.222 165.661 179.897 165.793 179.65 166.025C179.403 166.257 179.251 166.573 179.223 166.91C179.213 167.073 179.236 167.235 179.291 167.388C179.347 167.541 179.433 167.681 179.545 167.799C179.657 167.917 179.793 168.01 179.942 168.074C180.092 168.137 180.254 168.168 180.416 168.166H220.47C220.809 168.161 221.133 168.029 221.38 167.797C221.626 167.564 221.776 167.248 221.802 166.91C221.812 166.749 221.789 166.586 221.734 166.434C221.679 166.281 221.593 166.142 221.481 166.024C221.37 165.906 221.236 165.813 221.086 165.749C220.937 165.685 220.777 165.653 220.615 165.654Z" fill="#FF9721"/>
<path opacity="0.2" d="M213.512 161.491H180.806C180.467 161.496 180.141 161.628 179.894 161.86C179.647 162.092 179.495 162.408 179.468 162.747C179.458 162.909 179.481 163.071 179.536 163.223C179.591 163.376 179.677 163.515 179.788 163.633C179.9 163.751 180.034 163.845 180.183 163.908C180.332 163.972 180.493 164.004 180.655 164.003H213.368C213.706 163.997 214.031 163.866 214.277 163.633C214.524 163.401 214.674 163.085 214.699 162.747C214.709 162.585 214.686 162.423 214.631 162.27C214.576 162.118 214.49 161.978 214.379 161.86C214.268 161.743 214.133 161.649 213.984 161.585C213.835 161.522 213.674 161.49 213.512 161.491Z" fill="#FF9721"/>
<path d="M114.45 66.7418L113.637 66.8023C113.065 59.1196 113.37 54.7091 116.882 54.4476L116.701 54.8846C114.273 55.0655 113.84 58.5475 114.45 66.7418Z" fill="#3F3D56"/>
<path d="M125.498 64.426L126.122 64.6557C128.666 58.0881 129.695 54.4813 127.001 53.4896L126.585 53.6743C128.449 54.3603 128.211 57.4211 125.498 64.426Z" fill="#3F3D56"/>
<path d="M124.904 66.9108C125.737 67.2173 126.669 66.8038 126.985 65.987C127.301 65.1703 126.883 64.2597 126.05 63.9531C125.217 63.6466 124.286 64.0602 123.969 64.8769C123.653 65.6936 124.072 66.6042 124.904 66.9108Z" fill="#3F3D56"/>
<path d="M111.963 71.7366L111.161 71.7963C110.939 68.8134 112.376 66.2661 114.365 66.118L114.427 66.9503C112.88 67.0655 111.775 69.2126 111.963 71.7366Z" fill="#3F3D56"/>
<path d="M118.375 71.2591L117.573 71.3188C117.385 68.7948 115.974 66.8351 114.427 66.9503L114.365 66.118C116.354 65.9699 118.152 68.2762 118.375 71.2591Z" fill="#3F3D56"/>
<path d="M118.249 72.6282C118.871 72.5819 119.338 72.0397 119.292 71.4173C119.246 70.7948 118.704 70.3278 118.081 70.3742C117.459 70.4206 116.992 70.9627 117.038 71.5851C117.084 72.2076 117.627 72.6746 118.249 72.6282Z" fill="#3F3D56"/>
<path d="M111.487 73.132C112.11 73.0857 112.577 72.5435 112.53 71.9211C112.484 71.2986 111.942 70.8316 111.319 70.878C110.697 70.9243 110.23 71.4665 110.276 72.0889C110.323 72.7114 110.865 73.1784 111.487 73.132Z" fill="#3F3D56"/>
</svg>
