<svg width="19" height="22" viewBox="0 0 19 22" fill="none" xmlns="http://www.w3.org/2000/svg">
<path d="M4.44703 14.8887C4.44703 13.6126 4.60198 12.5964 4.91187 11.8398C5.22177 11.0833 5.78687 10.3405 6.60719 9.61133C7.43661 8.87305 7.98805 8.27604 8.26148 7.82031C8.53492 7.35547 8.67164 6.86784 8.67164 6.35742C8.67164 4.81706 7.9607 4.04688 6.53883 4.04688C5.86435 4.04688 5.32203 4.25651 4.91187 4.67578C4.51083 5.08594 4.3012 5.6556 4.28297 6.38477H0.318125C0.336354 4.64388 0.896901 3.28125 1.99977 2.29688C3.11174 1.3125 4.62477 0.820312 6.53883 0.820312C8.47112 0.820312 9.97047 1.28971 11.0369 2.22852C12.1033 3.1582 12.6365 4.47526 12.6365 6.17969C12.6365 6.95443 12.4633 7.68815 12.117 8.38086C11.7706 9.06445 11.1645 9.82552 10.2986 10.6641L9.19117 11.7168C8.49846 12.3822 8.10198 13.1615 8.00172 14.0547L7.94703 14.8887H4.44703ZM4.05055 19.0859C4.05055 18.4753 4.25562 17.974 4.66578 17.582C5.08505 17.181 5.61825 16.9805 6.26539 16.9805C6.91253 16.9805 7.44117 17.181 7.85133 17.582C8.2706 17.974 8.48023 18.4753 8.48023 19.0859C8.48023 19.6875 8.27516 20.1842 7.865 20.5762C7.46396 20.9681 6.93075 21.1641 6.26539 21.1641C5.60003 21.1641 5.06227 20.9681 4.65211 20.5762C4.25107 20.1842 4.05055 19.6875 4.05055 19.0859ZM18.2053 14.8887H14.9241L14.4592 1.09375H18.6702L18.2053 14.8887ZM16.5647 17.0488C17.2301 17.0488 17.7633 17.2448 18.1643 17.6367C18.5745 18.0286 18.7795 18.5299 18.7795 19.1406C18.7795 19.7422 18.5745 20.2389 18.1643 20.6309C17.7633 21.0228 17.2301 21.2188 16.5647 21.2188C15.9084 21.2188 15.3752 21.0228 14.9651 20.6309C14.564 20.2389 14.3635 19.7422 14.3635 19.1406C14.3635 18.5391 14.564 18.0423 14.9651 17.6504C15.3752 17.2493 15.9084 17.0488 16.5647 17.0488Z" fill="white"/>
</svg>
