<svg width="60" height="60" viewBox="0 0 60 60" fill="none" xmlns="http://www.w3.org/2000/svg">
<g filter="url(#filter0_d_4196:2)">
<circle cx="29.5308" cy="29.5154" r="25" transform="rotate(11.5972 29.5308 29.5154)" fill="#FFC583"/>
</g>
<path d="M26.6871 34.3552C26.9656 32.998 27.356 31.951 27.8581 31.214C28.3603 30.4769 29.2047 29.7304 30.3913 28.9744C31.5902 28.2102 32.3642 27.6513 32.7133 27.2975C33.2492 26.7589 33.5915 26.1273 33.7402 25.4028C33.937 24.4436 33.8469 23.6648 33.47 23.0664C33.1053 22.4599 32.4638 22.0624 31.5454 21.8739C30.6678 21.6938 29.9074 21.7983 29.2639 22.1873C28.6328 22.5682 28.2304 23.1821 28.0565 24.029L24.3372 23.2658C24.7282 21.4638 25.6337 20.1609 27.0534 19.357C28.4834 18.5552 30.1933 18.3584 32.183 18.7668C34.234 19.1877 35.7242 20.0358 36.6534 21.3112C37.5929 22.5886 37.871 24.161 37.4878 26.0283C37.1465 27.6916 36.0349 29.1702 34.153 30.4641L31.8903 31.9298C31.0598 32.5569 30.4835 33.603 30.1616 35.0682L26.6871 34.3552ZM25.45 39.0619C25.5736 38.4599 25.8618 38.014 26.3148 37.7241C26.7698 37.424 27.3187 37.34 27.9616 37.4719C28.6146 37.6059 29.0901 37.9055 29.3881 38.3708C29.6882 38.8258 29.7785 39.3441 29.6592 39.9257C29.544 40.487 29.264 40.9187 28.8192 41.2208C28.3744 41.523 27.8152 41.605 27.1418 41.4668C26.4683 41.3285 25.9866 41.033 25.6968 40.58C25.4171 40.1292 25.3349 39.6232 25.45 39.0619Z" fill="#23180C"/>
<defs>
<filter id="filter0_d_4196:2" x="1.52588" y="1.5105" width="56.0098" height="56.0098" filterUnits="userSpaceOnUse" color-interpolation-filters="sRGB">
<feFlood flood-opacity="0" result="BackgroundImageFix"/>
<feColorMatrix in="SourceAlpha" type="matrix" values="0 0 0 0 0 0 0 0 0 0 0 0 0 0 0 0 0 0 127 0" result="hardAlpha"/>
<feMorphology radius="1" operator="dilate" in="SourceAlpha" result="effect1_dropShadow_4196:2"/>
<feOffset/>
<feGaussianBlur stdDeviation="1"/>
<feColorMatrix type="matrix" values="0 0 0 0 0 0 0 0 0 0 0 0 0 0 0 0 0 0 0.15 0"/>
<feBlend mode="normal" in2="BackgroundImageFix" result="effect1_dropShadow_4196:2"/>
<feBlend mode="normal" in="SourceGraphic" in2="effect1_dropShadow_4196:2" result="shape"/>
</filter>
</defs>
</svg>
