<svg width="304" height="88" viewBox="0 0 304 88" fill="none" xmlns="http://www.w3.org/2000/svg">
<path d="M118.739 54.5322C118.739 54.7926 118.73 55.0205 118.714 55.2158C118.698 55.4111 118.665 55.582 118.617 55.7285C118.584 55.875 118.535 56.0052 118.47 56.1191C118.405 56.2331 118.291 56.3714 118.128 56.5342C117.966 56.6969 117.624 56.9492 117.103 57.291C116.582 57.6165 115.931 57.9421 115.15 58.2676C114.385 58.5768 113.498 58.8372 112.489 59.0488C111.496 59.2767 110.405 59.3906 109.217 59.3906C107.166 59.3906 105.311 59.0488 103.651 58.3652C102.007 57.6816 100.599 56.6725 99.4271 55.3379C98.2715 54.0033 97.3763 52.3594 96.7415 50.4062C96.1231 48.4368 95.8138 46.1745 95.8138 43.6191C95.8138 40.9987 96.1475 38.6631 96.8148 36.6123C97.4984 34.5615 98.4505 32.8281 99.6712 31.4121C100.892 29.9798 102.349 28.8893 104.041 28.1406C105.75 27.3919 107.638 27.0176 109.705 27.0176C110.617 27.0176 111.504 27.1071 112.367 27.2861C113.229 27.4489 114.027 27.6605 114.759 27.9209C115.492 28.1813 116.143 28.4824 116.712 28.8242C117.282 29.166 117.673 29.4508 117.884 29.6787C118.112 29.8903 118.258 30.0531 118.324 30.167C118.389 30.2809 118.438 30.4193 118.47 30.582C118.519 30.7285 118.551 30.9076 118.568 31.1191C118.6 31.3307 118.617 31.583 118.617 31.876C118.617 32.2015 118.6 32.4782 118.568 32.7061C118.535 32.9339 118.486 33.1292 118.421 33.292C118.356 33.4385 118.275 33.5524 118.177 33.6338C118.096 33.6989 117.99 33.7314 117.86 33.7314C117.632 33.7314 117.314 33.5768 116.908 33.2676C116.501 32.9421 115.972 32.5921 115.321 32.2178C114.686 31.8271 113.905 31.4772 112.977 31.168C112.065 30.8424 110.967 30.6797 109.681 30.6797C108.281 30.6797 107.004 30.9645 105.848 31.5342C104.709 32.0876 103.732 32.9095 102.918 34C102.105 35.0905 101.47 36.4251 101.014 38.0039C100.575 39.5664 100.355 41.3568 100.355 43.375C100.355 45.377 100.566 47.151 100.99 48.6973C101.429 50.2272 102.048 51.513 102.845 52.5547C103.659 53.5801 104.652 54.3613 105.824 54.8984C106.995 55.4193 108.322 55.6797 109.803 55.6797C111.056 55.6797 112.147 55.5251 113.075 55.2158C114.019 54.9066 114.816 54.5648 115.467 54.1904C116.134 53.7998 116.68 53.4499 117.103 53.1406C117.526 52.8314 117.86 52.6768 118.104 52.6768C118.218 52.6768 118.315 52.7012 118.397 52.75C118.478 52.7988 118.543 52.8965 118.592 53.043C118.641 53.1732 118.674 53.3604 118.69 53.6045C118.722 53.8486 118.739 54.1579 118.739 54.5322ZM145.164 58.3896C145.164 58.5199 145.132 58.6338 145.067 58.7314C145.018 58.8128 144.92 58.8861 144.774 58.9512C144.627 59.0163 144.432 59.0651 144.188 59.0977C143.96 59.1302 143.675 59.1465 143.333 59.1465C142.959 59.1465 142.65 59.1302 142.406 59.0977C142.178 59.0651 141.991 59.0163 141.844 58.9512C141.714 58.8861 141.624 58.8128 141.576 58.7314C141.527 58.6338 141.502 58.5199 141.502 58.3896V55.4844C140.249 56.8678 139.012 57.877 137.791 58.5117C136.571 59.1465 135.334 59.4639 134.08 59.4639C132.616 59.4639 131.379 59.2197 130.369 58.7314C129.377 58.2432 128.571 57.584 127.952 56.7539C127.334 55.9076 126.886 54.931 126.61 53.8242C126.349 52.7012 126.219 51.3421 126.219 49.7471V36.417C126.219 36.2868 126.243 36.181 126.292 36.0996C126.357 36.002 126.471 35.9206 126.634 35.8555C126.797 35.7741 127.008 35.7253 127.269 35.709C127.529 35.6764 127.855 35.6602 128.245 35.6602C128.636 35.6602 128.962 35.6764 129.222 35.709C129.482 35.7253 129.686 35.7741 129.832 35.8555C129.995 35.9206 130.109 36.002 130.174 36.0996C130.239 36.181 130.272 36.2868 130.272 36.417V49.21C130.272 50.4958 130.361 51.5293 130.54 52.3105C130.736 53.0755 131.021 53.7347 131.395 54.2881C131.785 54.8252 132.274 55.2484 132.86 55.5576C133.446 55.8506 134.129 55.9971 134.91 55.9971C135.92 55.9971 136.921 55.639 137.913 54.9229C138.923 54.2067 139.989 53.1569 141.112 51.7734V36.417C141.112 36.2868 141.136 36.181 141.185 36.0996C141.25 36.002 141.364 35.9206 141.527 35.8555C141.689 35.7741 141.893 35.7253 142.137 35.709C142.397 35.6764 142.731 35.6602 143.138 35.6602C143.529 35.6602 143.854 35.6764 144.115 35.709C144.375 35.7253 144.578 35.7741 144.725 35.8555C144.871 35.9206 144.977 36.002 145.042 36.0996C145.124 36.181 145.164 36.2868 145.164 36.417V58.3896ZM167.952 37.8574C167.952 38.2155 167.944 38.5166 167.928 38.7607C167.912 39.0049 167.879 39.2002 167.83 39.3467C167.782 39.4769 167.716 39.5827 167.635 39.6641C167.57 39.7292 167.472 39.7617 167.342 39.7617C167.212 39.7617 167.049 39.7292 166.854 39.6641C166.675 39.5827 166.463 39.5094 166.219 39.4443C165.991 39.363 165.731 39.2897 165.438 39.2246C165.145 39.1595 164.827 39.127 164.486 39.127C164.079 39.127 163.68 39.2083 163.289 39.3711C162.899 39.5339 162.484 39.8024 162.044 40.1768C161.621 40.5511 161.174 41.0475 160.702 41.666C160.23 42.2845 159.709 43.0413 159.139 43.9365V58.3896C159.139 58.5199 159.106 58.6338 159.041 58.7314C158.976 58.8128 158.87 58.8861 158.724 58.9512C158.577 59.0163 158.374 59.0651 158.114 59.0977C157.853 59.1302 157.52 59.1465 157.113 59.1465C156.722 59.1465 156.396 59.1302 156.136 59.0977C155.876 59.0651 155.664 59.0163 155.501 58.9512C155.355 58.8861 155.249 58.8128 155.184 58.7314C155.135 58.6338 155.111 58.5199 155.111 58.3896V36.417C155.111 36.2868 155.135 36.181 155.184 36.0996C155.233 36.002 155.33 35.9206 155.477 35.8555C155.623 35.7741 155.811 35.7253 156.038 35.709C156.266 35.6764 156.567 35.6602 156.942 35.6602C157.3 35.6602 157.593 35.6764 157.821 35.709C158.065 35.7253 158.252 35.7741 158.382 35.8555C158.512 35.9206 158.602 36.002 158.651 36.0996C158.716 36.181 158.748 36.2868 158.748 36.417V39.6152C159.351 38.7363 159.912 38.0202 160.433 37.4668C160.97 36.9134 161.475 36.4821 161.947 36.1729C162.419 35.8473 162.882 35.6276 163.338 35.5137C163.81 35.3835 164.282 35.3184 164.754 35.3184C164.966 35.3184 165.202 35.3346 165.462 35.3672C165.739 35.3835 166.024 35.4242 166.317 35.4893C166.61 35.5544 166.87 35.6276 167.098 35.709C167.342 35.7904 167.513 35.8717 167.611 35.9531C167.708 36.0345 167.773 36.1159 167.806 36.1973C167.839 36.2624 167.863 36.3519 167.879 36.4658C167.912 36.5798 167.928 36.7507 167.928 36.9785C167.944 37.1901 167.952 37.4831 167.952 37.8574ZM190.57 58.4141C190.57 58.6094 190.505 58.7559 190.374 58.8535C190.244 58.9512 190.065 59.0244 189.837 59.0732C189.609 59.1221 189.276 59.1465 188.836 59.1465C188.413 59.1465 188.071 59.1221 187.811 59.0732C187.567 59.0244 187.388 58.9512 187.274 58.8535C187.16 58.7559 187.103 58.6094 187.103 58.4141V56.2168C186.143 57.2422 185.068 58.0397 183.88 58.6094C182.708 59.179 181.463 59.4639 180.145 59.4639C178.989 59.4639 177.939 59.3092 176.995 59C176.068 58.707 175.27 58.2757 174.603 57.7061C173.952 57.1364 173.439 56.4365 173.065 55.6064C172.707 54.7764 172.528 53.8324 172.528 52.7744C172.528 51.5374 172.78 50.4632 173.285 49.5518C173.789 48.6403 174.513 47.8835 175.457 47.2812C176.401 46.679 177.557 46.2314 178.924 45.9385C180.291 45.6292 181.829 45.4746 183.538 45.4746H186.566V43.7656C186.566 42.9193 186.476 42.1706 186.297 41.5195C186.118 40.8685 185.825 40.3314 185.418 39.9082C185.028 39.4688 184.515 39.1432 183.88 38.9316C183.245 38.7038 182.464 38.5898 181.536 38.5898C180.544 38.5898 179.648 38.7119 178.851 38.9561C178.07 39.1839 177.378 39.4443 176.776 39.7373C176.19 40.014 175.693 40.2744 175.286 40.5186C174.896 40.7464 174.603 40.8604 174.408 40.8604C174.277 40.8604 174.163 40.8278 174.066 40.7627C173.968 40.6976 173.879 40.5999 173.797 40.4697C173.732 40.3395 173.683 40.1768 173.651 39.9814C173.618 39.7699 173.602 39.542 173.602 39.2979C173.602 38.891 173.626 38.5736 173.675 38.3457C173.74 38.1016 173.879 37.8737 174.09 37.6621C174.318 37.4505 174.701 37.2064 175.238 36.9297C175.775 36.6367 176.393 36.3763 177.093 36.1484C177.793 35.9043 178.558 35.709 179.388 35.5625C180.218 35.3997 181.056 35.3184 181.903 35.3184C183.481 35.3184 184.824 35.4974 185.931 35.8555C187.038 36.2135 187.933 36.7425 188.617 37.4424C189.3 38.126 189.797 38.9805 190.106 40.0059C190.415 41.0312 190.57 42.2275 190.57 43.5947V58.4141ZM186.566 48.3799H183.123C182.017 48.3799 181.056 48.4775 180.243 48.6729C179.429 48.8519 178.753 49.1286 178.216 49.5029C177.679 49.861 177.28 50.3005 177.02 50.8213C176.776 51.3258 176.654 51.9118 176.654 52.5791C176.654 53.7184 177.012 54.6299 177.728 55.3135C178.46 55.9808 179.478 56.3145 180.78 56.3145C181.838 56.3145 182.814 56.0459 183.709 55.5088C184.621 54.9717 185.573 54.1497 186.566 53.043V48.3799Z" fill="black"/>
<path d="M118.617 55.7285L118.142 55.5704L118.134 55.5949L118.128 55.6201L118.617 55.7285ZM118.47 56.1191L118.036 55.8711L118.47 56.1191ZM117.103 57.291L117.368 57.7151L117.377 57.709L117.103 57.291ZM115.15 58.2676L115.337 58.7312L115.342 58.7291L115.15 58.2676ZM112.489 59.0488L112.386 58.5594L112.377 58.5615L112.489 59.0488ZM103.651 58.3652L103.459 58.8269L103.46 58.8276L103.651 58.3652ZM99.4271 55.3379L99.0491 55.6652L99.0514 55.6678L99.4271 55.3379ZM96.7415 50.4062L96.2645 50.5561L96.266 50.5608L96.7415 50.4062ZM96.8148 36.6123L96.3404 36.4542L96.3393 36.4576L96.8148 36.6123ZM99.6712 31.4121L100.05 31.7386L100.052 31.7364L99.6712 31.4121ZM104.041 28.1406L103.841 27.6826L103.839 27.6834L104.041 28.1406ZM112.367 27.2861L112.265 27.7758L112.274 27.7775L112.367 27.2861ZM117.884 29.6787L117.518 30.0189L117.53 30.0325L117.544 30.0451L117.884 29.6787ZM118.47 30.582L117.98 30.6801L117.986 30.7106L117.996 30.7401L118.47 30.582ZM118.568 31.1191L118.069 31.1575L118.071 31.1764L118.074 31.1952L118.568 31.1191ZM118.421 33.292L118.878 33.4951L118.882 33.4864L118.885 33.4777L118.421 33.292ZM118.177 33.6338L118.49 34.0243L118.497 34.0179L118.177 33.6338ZM116.908 33.2676L116.595 33.6581L116.605 33.6657L116.908 33.2676ZM115.321 32.2178L115.059 32.6436L115.065 32.6475L115.071 32.6512L115.321 32.2178ZM112.977 31.168L112.809 31.6389L112.819 31.6423L112.977 31.168ZM105.848 31.5342L106.066 31.9839L106.069 31.9826L105.848 31.5342ZM102.918 34L103.319 34.299L102.918 34ZM101.014 38.0039L100.534 37.8652L100.533 37.8685L101.014 38.0039ZM100.99 48.6973L100.507 48.8293L100.509 48.8353L100.99 48.6973ZM102.845 52.5547L102.448 52.8587L102.453 52.8655L102.845 52.5547ZM105.824 54.8984L105.615 55.353L105.621 55.3553L105.824 54.8984ZM113.075 55.2158L112.919 54.7407L112.916 54.7415L113.075 55.2158ZM115.467 54.1904L115.716 54.6239L115.72 54.6219L115.467 54.1904ZM118.397 52.75L118.654 52.3213L118.397 52.75ZM118.592 53.043L118.118 53.2011L118.121 53.2099L118.124 53.2185L118.592 53.043ZM118.69 53.6045L118.191 53.6378L118.192 53.6542L118.194 53.6706L118.69 53.6045ZM118.239 54.5322C118.239 54.783 118.231 54.9964 118.216 55.1743L119.212 55.2573C119.23 55.0446 119.239 54.8023 119.239 54.5322H118.239ZM118.216 55.1743C118.202 55.34 118.176 55.4702 118.142 55.5704L119.091 55.8866C119.155 55.6939 119.194 55.4823 119.212 55.2573L118.216 55.1743ZM118.128 55.6201C118.105 55.7245 118.073 55.8064 118.036 55.8711L118.904 56.3672C118.997 56.204 119.063 56.0255 119.105 55.837L118.128 55.6201ZM118.036 55.8711C118.003 55.9279 117.926 56.0295 117.775 56.1806L118.482 56.8877C118.656 56.7134 118.806 56.5382 118.904 56.3672L118.036 55.8711ZM117.775 56.1806C117.653 56.302 117.353 56.5286 116.829 56.873L117.377 57.709C117.894 57.3699 118.278 57.0919 118.482 56.8877L117.775 56.1806ZM116.838 56.867C116.347 57.1738 115.722 57.4874 114.957 57.806L115.342 58.7291C116.14 58.3967 116.817 58.0593 117.368 57.715L116.838 56.867ZM114.962 57.804C114.231 58.0998 113.373 58.3525 112.386 58.5595L112.591 59.5382C113.622 59.322 114.539 59.0538 115.337 58.7311L114.962 57.804ZM112.377 58.5615C111.426 58.7797 110.374 58.8906 109.217 58.8906V59.8906C110.437 59.8906 111.565 59.7737 112.6 59.5362L112.377 58.5615ZM109.217 58.8906C107.222 58.8906 105.433 58.5583 103.841 57.9029L103.46 58.8276C105.189 59.5393 107.11 59.8906 109.217 59.8906V58.8906ZM103.843 57.9036C102.269 57.2492 100.924 56.2851 99.8028 55.008L99.0514 55.6678C100.274 57.0599 101.745 58.1141 103.459 58.8269L103.843 57.9036ZM99.8051 55.0106C98.6998 53.734 97.8345 52.1516 97.2171 50.2517L96.266 50.5608C96.9181 52.5672 97.8432 54.2725 99.0491 55.6652L99.8051 55.0106ZM97.2186 50.2564C96.6184 48.3454 96.3138 46.1352 96.3138 43.6191H95.3138C95.3138 46.2137 95.6277 48.5282 96.2645 50.5561L97.2186 50.2564ZM96.3138 43.6191C96.3138 41.0403 96.6422 38.7584 97.2903 36.767L96.3393 36.4576C95.6527 38.5677 95.3138 40.9571 95.3138 43.6191H96.3138ZM97.2891 36.7704C97.9553 34.7719 98.8779 33.0981 100.05 31.7386L99.2925 31.0856C98.0232 32.5581 97.0415 34.3511 96.3404 36.4542L97.2891 36.7704ZM100.052 31.7364C101.225 30.3603 102.621 29.3157 104.244 28.5979L103.839 27.6834C102.077 28.4629 100.559 29.5993 99.2907 31.0878L100.052 31.7364ZM104.242 28.5986C105.881 27.8805 107.7 27.5176 109.705 27.5176V26.5176C107.577 26.5176 105.619 26.9034 103.841 27.6826L104.242 28.5986ZM109.705 27.5176C110.584 27.5176 111.437 27.6038 112.265 27.7757L112.468 26.7966C111.571 26.6104 110.65 26.5176 109.705 26.5176V27.5176ZM112.274 27.7775C113.114 27.936 113.886 28.1413 114.592 28.392L114.927 27.4498C114.167 27.1797 113.344 26.9618 112.459 26.7948L112.274 27.7775ZM114.592 28.392C115.298 28.6431 115.918 28.9308 116.455 29.253L116.969 28.3955C116.367 28.034 115.685 27.7195 114.927 27.4498L114.592 28.392ZM116.455 29.253C117.019 29.5916 117.357 29.8463 117.518 30.0189L118.251 29.3385C117.988 29.0554 117.545 28.7405 116.969 28.3955L116.455 29.253ZM117.544 30.0451C117.772 30.2565 117.866 30.374 117.889 30.4151L118.758 29.9189C118.651 29.7321 118.452 29.5241 118.224 29.3123L117.544 30.0451ZM117.889 30.4151C117.922 30.4719 117.955 30.5567 117.98 30.6801L118.96 30.484C118.92 30.2818 118.855 30.09 118.758 29.9189L117.889 30.4151ZM117.996 30.7401C118.028 30.8365 118.055 30.9726 118.069 31.1575L119.066 31.0808C119.048 30.8425 119.01 30.6206 118.944 30.4239L117.996 30.7401ZM118.074 31.1952C118.101 31.3743 118.117 31.5999 118.117 31.876H119.117C119.117 31.5661 119.099 31.2871 119.062 31.0431L118.074 31.1952ZM118.117 31.876C118.117 32.1867 118.101 32.4383 118.073 32.6353L119.063 32.7768C119.1 32.5181 119.117 32.2163 119.117 31.876H118.117ZM118.073 32.6353C118.044 32.8353 118.004 32.9899 117.957 33.1063L118.885 33.4777C118.969 33.2685 119.026 33.0325 119.063 32.7768L118.073 32.6353ZM117.964 33.0889C117.922 33.1832 117.882 33.2285 117.857 33.2497L118.497 34.0179C118.667 33.8764 118.79 33.6938 118.878 33.4951L117.964 33.0889ZM117.865 33.2434C117.87 33.2392 117.875 33.2358 117.88 33.2332C117.885 33.2307 117.888 33.2295 117.89 33.2291C117.892 33.2284 117.884 33.2314 117.86 33.2314V34.2314C118.074 34.2314 118.299 34.1765 118.489 34.0242L117.865 33.2434ZM117.86 33.2314C117.852 33.2314 117.794 33.2265 117.67 33.166C117.55 33.1078 117.398 33.0123 117.21 32.8695L116.605 33.6657C116.824 33.8321 117.034 33.9685 117.232 34.065C117.425 34.159 117.64 34.2314 117.86 34.2314V33.2314ZM117.22 32.8771C116.787 32.5304 116.234 32.1663 115.57 31.7843L115.071 32.6512C115.709 33.0179 116.215 33.3537 116.595 33.658L117.22 32.8771ZM115.583 31.7919C114.907 31.3761 114.089 31.0115 113.135 30.6936L112.819 31.6423C113.721 31.943 114.465 32.2782 115.059 32.6436L115.583 31.7919ZM113.145 30.6971C112.165 30.3471 111.006 30.1797 109.681 30.1797V31.1797C110.927 31.1797 111.966 31.3378 112.809 31.6388L113.145 30.6971ZM109.681 30.1797C108.211 30.1797 106.857 30.4793 105.627 31.0857L106.069 31.9826C107.15 31.4497 108.351 31.1797 109.681 31.1797V30.1797ZM105.63 31.0844C104.413 31.6753 103.376 32.5513 102.518 33.701L103.319 34.299C104.089 33.2678 105.004 32.4998 106.066 31.9839L105.63 31.0844ZM102.518 33.701C101.661 34.8485 101.003 36.2403 100.534 37.8652L101.494 38.1426C101.937 36.6099 102.548 35.3324 103.319 34.299L102.518 33.701ZM100.533 37.8685C100.078 39.4843 99.8548 41.3216 99.8548 43.375H100.855C100.855 41.3919 101.071 39.6486 101.495 38.1393L100.533 37.8685ZM99.8548 43.375C99.8548 45.411 100.07 47.2309 100.507 48.8293L101.472 48.5653C101.063 47.0712 100.855 45.3429 100.855 43.375H99.8548ZM100.509 48.8353C100.962 50.4128 101.605 51.758 102.448 52.8586L103.242 52.2507C102.49 51.268 101.896 50.0416 101.47 48.5592L100.509 48.8353ZM102.453 52.8655C103.315 53.9516 104.371 54.7825 105.615 55.353L106.032 54.4439C104.933 53.9401 104.002 53.2086 103.237 52.2439L102.453 52.8655ZM105.621 55.3553C106.865 55.9087 108.263 56.1797 109.803 56.1797V55.1797C108.381 55.1797 107.125 54.9299 106.027 54.4415L105.621 55.3553ZM109.803 56.1797C111.096 56.1797 112.242 56.0204 113.233 55.6902L112.916 54.7415C112.052 55.0297 111.017 55.1797 109.803 55.1797V56.1797ZM113.23 55.691C114.197 55.3743 115.028 55.0197 115.716 54.6239L115.218 53.757C114.604 54.1098 113.84 54.4389 112.919 54.7407L113.23 55.691ZM115.72 54.6219C116.395 54.2264 116.956 53.867 117.398 53.5443L116.808 52.7369C116.403 53.0327 115.873 53.3732 115.215 53.7589L115.72 54.6219ZM117.398 53.5443C117.814 53.2399 118.034 53.1768 118.104 53.1768V52.1768C117.686 52.1768 117.238 52.4229 116.808 52.7369L117.398 53.5443ZM118.104 53.1768C118.125 53.1768 118.137 53.179 118.141 53.1801C118.145 53.1811 118.144 53.1812 118.14 53.1787L118.654 52.3213C118.481 52.2172 118.29 52.1768 118.104 52.1768V53.1768ZM118.14 53.1787C118.104 53.1572 118.09 53.1357 118.091 53.1372C118.091 53.1378 118.094 53.1428 118.099 53.1537C118.104 53.1646 118.111 53.1801 118.118 53.2011L119.066 52.8849C119.002 52.6915 118.885 52.4598 118.654 52.3213L118.14 53.1787ZM118.124 53.2185C118.147 53.281 118.176 53.4113 118.191 53.6378L119.189 53.5712C119.171 53.3094 119.135 53.0653 119.06 52.8674L118.124 53.2185ZM118.194 53.6706C118.223 53.8847 118.239 54.1699 118.239 54.5322H119.239C119.239 54.1459 119.222 53.8126 119.185 53.5384L118.194 53.6706ZM145.067 58.7314L144.651 58.4541L144.644 58.464L144.638 58.4742L145.067 58.7314ZM144.188 59.0977L144.122 58.602L144.117 58.6027L144.188 59.0977ZM142.406 59.0977L142.335 59.5927L142.34 59.5933L142.406 59.0977ZM141.844 58.9512L141.62 59.3984L141.631 59.4035L141.641 59.4081L141.844 58.9512ZM141.576 58.7314L141.128 58.9551L141.137 58.9722L141.147 58.9887L141.576 58.7314ZM141.502 55.4844H142.002V54.1877L141.132 55.1487L141.502 55.4844ZM130.369 58.7314L130.149 59.1801L130.152 59.1815L130.369 58.7314ZM127.952 56.7539L127.549 57.0489L127.552 57.0526L127.952 56.7539ZM126.61 53.8242L126.123 53.9372L126.125 53.9455L126.61 53.8242ZM126.292 36.0996L125.876 35.8223L125.87 35.8322L125.864 35.8424L126.292 36.0996ZM126.634 35.8555L126.82 36.3197L126.839 36.312L126.858 36.3027L126.634 35.8555ZM127.269 35.709L127.3 36.208L127.316 36.207L127.331 36.2051L127.269 35.709ZM129.222 35.709L129.16 36.2051L129.175 36.207L129.191 36.208L129.222 35.709ZM129.832 35.8555L129.59 36.2925L129.617 36.3079L129.647 36.3197L129.832 35.8555ZM130.174 36.0996L129.758 36.377L129.77 36.395L129.784 36.412L130.174 36.0996ZM130.54 52.3105L130.053 52.4223L130.056 52.4342L130.54 52.3105ZM131.395 54.2881L130.981 54.5682L130.985 54.5753L130.99 54.5822L131.395 54.2881ZM132.86 55.5576L132.626 55.9999L132.636 56.0048L132.86 55.5576ZM137.913 54.9229L137.624 54.5151L137.621 54.5173L137.913 54.9229ZM141.112 51.7734L141.5 52.0886L141.612 51.9508V51.7734H141.112ZM141.185 36.0996L140.769 35.8223L140.762 35.8322L140.756 35.8424L141.185 36.0996ZM141.527 35.8555L141.712 36.3197L141.732 36.312L141.75 36.3027L141.527 35.8555ZM142.137 35.709L142.17 36.2079L142.185 36.2069L142.199 36.2051L142.137 35.709ZM144.115 35.709L144.053 36.2051L144.068 36.207L144.083 36.208L144.115 35.709ZM144.725 35.8555L144.482 36.2925L144.502 36.3033L144.522 36.3124L144.725 35.8555ZM145.042 36.0996L144.626 36.377L144.654 36.4182L144.689 36.4532L145.042 36.0996ZM144.664 58.3896C144.664 58.4324 144.655 58.4474 144.651 58.4541L145.483 59.0088C145.609 58.8201 145.664 58.6073 145.664 58.3896H144.664ZM144.638 58.4742C144.655 58.446 144.668 58.439 144.657 58.4474C144.646 58.4557 144.62 58.4725 144.571 58.4943L144.977 59.4081C145.159 59.3271 145.368 59.2004 145.495 58.9887L144.638 58.4742ZM144.571 58.4943C144.485 58.5326 144.341 58.5728 144.122 58.602L144.254 59.5933C144.523 59.5574 144.77 59.5 144.977 59.4081L144.571 58.4943ZM144.117 58.6027C143.921 58.6307 143.662 58.6465 143.333 58.6465V59.6465C143.689 59.6465 143.999 59.6297 144.259 59.5926L144.117 58.6027ZM143.333 58.6465C142.971 58.6465 142.686 58.6306 142.472 58.602L142.34 59.5933C142.614 59.6298 142.947 59.6465 143.333 59.6465V58.6465ZM142.476 58.6027C142.276 58.5741 142.138 58.5344 142.047 58.4943L141.641 59.4081C141.844 59.4981 142.079 59.5561 142.335 59.5926L142.476 58.6027ZM142.068 58.504C142.028 58.4839 142.006 58.4685 141.996 58.4604C141.986 58.4526 141.993 58.456 142.004 58.4742L141.147 58.9887C141.264 59.1842 141.447 59.3118 141.62 59.3984L142.068 58.504ZM142.023 58.5078C142.015 58.4918 142.002 58.4571 142.002 58.3896H141.002C141.002 58.5827 141.039 58.7758 141.128 58.9551L142.023 58.5078ZM142.002 58.3896V55.4844H141.002V58.3896H142.002ZM141.132 55.1487C139.905 56.5028 138.714 57.4686 137.561 58.0681L138.022 58.9553C139.31 58.2853 140.593 57.2329 141.873 55.8201L141.132 55.1487ZM137.561 58.0681C136.404 58.6695 135.246 58.9639 134.08 58.9639V59.9639C135.422 59.9639 136.737 59.6234 138.022 58.9553L137.561 58.0681ZM134.08 58.9639C132.669 58.9639 131.511 58.7283 130.587 58.2814L130.152 59.1815C131.246 59.7111 132.562 59.9639 134.08 59.9639V58.9639ZM130.59 58.2828C129.663 57.827 128.921 57.2173 128.353 56.4552L127.552 57.0526C128.221 57.9506 129.09 58.6593 130.149 59.1801L130.59 58.2828ZM128.356 56.4589C127.779 55.6691 127.357 54.7527 127.095 53.703L126.125 53.9455C126.416 55.1093 126.889 56.146 127.549 57.0489L128.356 56.4589ZM127.097 53.7113C126.848 52.6363 126.719 51.3175 126.719 49.7471H125.719C125.719 51.3668 125.851 52.766 126.123 53.9372L127.097 53.7113ZM126.719 49.7471V36.417H125.719V49.7471H126.719ZM126.719 36.417C126.719 36.3825 126.722 36.362 126.725 36.3524C126.727 36.3433 126.727 36.3467 126.721 36.3569L125.864 35.8424C125.754 36.0252 125.719 36.2285 125.719 36.417H126.719ZM126.708 36.377C126.702 36.3872 126.7 36.3843 126.717 36.3722C126.735 36.3597 126.767 36.341 126.82 36.3197L126.448 35.3912C126.235 35.4764 126.019 35.6083 125.876 35.8223L126.708 36.377ZM126.858 36.3027C126.94 36.2613 127.08 36.2218 127.3 36.208L127.238 35.21C126.937 35.2287 126.653 35.2868 126.411 35.4083L126.858 36.3027ZM127.331 36.2051C127.563 36.1761 127.867 36.1602 128.245 36.1602V35.1602C127.843 35.1602 127.495 35.1768 127.207 35.2128L127.331 36.2051ZM128.245 36.1602C128.624 36.1602 128.927 36.1761 129.16 36.2051L129.284 35.2128C128.996 35.1768 128.648 35.1602 128.245 35.1602V36.1602ZM129.191 36.208C129.414 36.222 129.534 36.2619 129.59 36.2925L130.075 35.4184C129.837 35.2863 129.551 35.2286 129.253 35.21L129.191 36.208ZM129.647 36.3197C129.7 36.341 129.732 36.3597 129.749 36.3722C129.766 36.3843 129.765 36.3872 129.758 36.377L130.59 35.8223C130.448 35.6083 130.231 35.4764 130.018 35.3912L129.647 36.3197ZM129.784 36.412C129.78 36.4067 129.776 36.4014 129.774 36.3965C129.771 36.3917 129.77 36.3883 129.77 36.387C129.769 36.3848 129.772 36.3932 129.772 36.417H130.772C130.772 36.2022 130.717 35.9775 130.565 35.7873L129.784 36.412ZM129.772 36.417V49.21H130.772V36.417H129.772ZM129.772 49.21C129.772 50.5137 129.862 51.5892 130.053 52.4222L131.028 52.1989C130.861 51.4694 130.772 50.4778 130.772 49.21H129.772ZM130.056 52.4342C130.263 53.2451 130.569 53.9594 130.981 54.5682L131.809 54.0079C131.472 53.51 131.208 52.9059 131.025 52.1869L130.056 52.4342ZM130.99 54.5822C131.426 55.1809 131.973 55.6548 132.626 55.9998L133.093 55.1154C132.575 54.8419 132.145 54.4695 131.799 53.994L130.99 54.5822ZM132.636 56.0048C133.304 56.3386 134.066 56.4971 134.91 56.4971V55.4971C134.192 55.4971 133.588 55.3626 133.083 55.1104L132.636 56.0048ZM134.91 56.4971C136.045 56.4971 137.146 56.0926 138.206 55.3284L137.621 54.5173C136.695 55.1854 135.794 55.4971 134.91 55.4971V56.4971ZM138.203 55.3306C139.261 54.5795 140.36 53.4932 141.5 52.0886L140.723 51.4583C139.618 52.8206 138.584 53.8339 137.624 54.5151L138.203 55.3306ZM141.612 51.7734V36.417H140.612V51.7734H141.612ZM141.612 36.417C141.612 36.3825 141.615 36.362 141.617 36.3524C141.619 36.3433 141.62 36.3467 141.614 36.3569L140.756 35.8424C140.646 36.0252 140.612 36.2285 140.612 36.417H141.612ZM141.601 36.377C141.594 36.3872 141.593 36.3843 141.61 36.3722C141.627 36.3597 141.659 36.341 141.712 36.3197L141.341 35.3912C141.128 35.4764 140.912 35.6083 140.769 35.8223L141.601 36.377ZM141.75 36.3027C141.837 36.2593 141.971 36.2212 142.17 36.2079L142.104 35.2101C141.815 35.2293 141.542 35.2889 141.303 35.4083L141.75 36.3027ZM142.199 36.2051C142.431 36.1761 142.742 36.1602 143.138 36.1602V35.1602C142.72 35.1602 142.364 35.1767 142.075 35.2128L142.199 36.2051ZM143.138 36.1602C143.517 36.1602 143.82 36.1761 144.053 36.2051L144.177 35.2128C143.888 35.1768 143.54 35.1602 143.138 35.1602V36.1602ZM144.083 36.208C144.307 36.222 144.427 36.2619 144.482 36.2925L144.968 35.4184C144.73 35.2863 144.443 35.2286 144.146 35.21L144.083 36.208ZM144.522 36.3124C144.612 36.3526 144.63 36.382 144.626 36.377L145.458 35.8223C145.325 35.6219 145.13 35.4885 144.928 35.3986L144.522 36.3124ZM144.689 36.4532C144.685 36.4498 144.681 36.4448 144.677 36.4384C144.673 36.4319 144.669 36.4254 144.667 36.4195C144.663 36.4072 144.664 36.4042 144.664 36.417H145.664C145.664 36.1732 145.584 35.9338 145.396 35.7461L144.689 36.4532ZM144.664 36.417V58.3896H145.664V36.417H144.664ZM167.83 39.3467L168.299 39.5222L168.302 39.5136L168.305 39.5048L167.83 39.3467ZM166.854 39.6641L166.647 40.1192L166.671 40.1301L166.696 40.1384L166.854 39.6641ZM166.219 39.4443L166.051 39.9152L166.07 39.9221L166.09 39.9275L166.219 39.4443ZM162.044 40.1768L161.72 39.7961L161.713 39.8023L162.044 40.1768ZM159.139 43.9365L158.717 43.6681L158.639 43.7909V43.9365H159.139ZM159.041 58.7314L159.432 59.0438L159.445 59.0268L159.457 59.0088L159.041 58.7314ZM155.501 58.9512L155.298 59.4081L155.307 59.4119L155.316 59.4154L155.501 58.9512ZM155.184 58.7314L154.737 58.9551L154.76 59.0024L154.793 59.0438L155.184 58.7314ZM155.184 36.0996L155.613 36.3569L155.623 36.3404L155.631 36.3232L155.184 36.0996ZM155.477 35.8555L155.68 36.3124L155.7 36.3033L155.72 36.2925L155.477 35.8555ZM156.038 35.709L156.074 36.2077L156.092 36.2065L156.109 36.204L156.038 35.709ZM157.821 35.709L157.75 36.204L157.769 36.2066L157.787 36.2079L157.821 35.709ZM158.382 35.8555L158.117 36.2795L158.137 36.2921L158.159 36.3027L158.382 35.8555ZM158.651 36.0996L158.204 36.3232L158.227 36.3706L158.26 36.412L158.651 36.0996ZM158.748 39.6152H158.248V41.2296L159.161 39.8979L158.748 39.6152ZM160.433 37.4668L160.074 37.1185L160.069 37.1241L160.433 37.4668ZM161.947 36.1729L162.221 36.5912L162.23 36.5845L161.947 36.1729ZM163.338 35.5137L163.46 35.9989L163.471 35.9957L163.338 35.5137ZM165.462 35.3672L165.4 35.8633L165.417 35.8654L165.433 35.8663L165.462 35.3672ZM167.098 35.709L166.93 36.18L166.94 36.1833L167.098 35.709ZM167.806 36.1973L167.342 36.383L167.349 36.4023L167.359 36.4209L167.806 36.1973ZM167.879 36.4658L167.384 36.5365L167.389 36.5703L167.398 36.6032L167.879 36.4658ZM167.928 36.9785H167.428V36.9977L167.43 37.0169L167.928 36.9785ZM167.452 37.8574C167.452 38.209 167.444 38.4982 167.429 38.7275L168.427 38.794C168.444 38.535 168.452 38.222 168.452 37.8574H167.452ZM167.429 38.7275C167.414 38.9508 167.386 39.0989 167.356 39.1886L168.305 39.5048C168.373 39.3015 168.409 39.059 168.427 38.794L167.429 38.7275ZM167.362 39.1711C167.333 39.2482 167.303 39.289 167.282 39.3105L167.989 40.0176C168.13 39.8764 168.23 39.7056 168.299 39.5222L167.362 39.1711ZM167.282 39.3105C167.31 39.282 167.339 39.2683 167.355 39.263C167.369 39.2584 167.367 39.2617 167.342 39.2617V40.2617C167.549 40.2617 167.797 40.2096 167.989 40.0176L167.282 39.3105ZM167.342 39.2617C167.288 39.2617 167.182 39.2465 167.012 39.1897L166.696 40.1384C166.916 40.2118 167.136 40.2617 167.342 40.2617V39.2617ZM167.061 39.2089C166.851 39.1134 166.612 39.0316 166.348 38.9612L166.09 39.9275C166.315 39.9873 166.499 40.052 166.647 40.1192L167.061 39.2089ZM166.387 38.9735C166.136 38.8837 165.855 38.8051 165.546 38.7365L165.329 39.7127C165.607 39.7743 165.847 39.8422 166.051 39.9152L166.387 38.9735ZM165.546 38.7365C165.213 38.6625 164.859 38.627 164.486 38.627V39.627C164.796 39.627 165.077 39.6565 165.329 39.7127L165.546 38.7365ZM164.486 38.627C164.01 38.627 163.546 38.7224 163.097 38.9096L163.482 39.8326C163.814 39.6942 164.147 39.627 164.486 39.627V38.627ZM163.097 38.9096C162.645 39.0981 162.186 39.3995 161.72 39.7961L162.369 40.5574C162.782 40.2053 163.153 39.9697 163.482 39.8326L163.097 38.9096ZM161.713 39.8023C161.258 40.2045 160.789 40.7273 160.304 41.3627L161.099 41.9694C161.558 41.3678 161.984 40.8978 162.376 40.5513L161.713 39.8023ZM160.304 41.3627C159.821 41.9957 159.292 42.7649 158.717 43.6681L159.561 44.205C160.125 43.3178 160.638 42.5734 161.099 41.9694L160.304 41.3627ZM158.639 43.9365V58.3896H159.639V43.9365H158.639ZM158.639 58.3896C158.639 58.4324 158.63 58.4474 158.625 58.4541L159.457 59.0088C159.583 58.8201 159.639 58.6073 159.639 58.3896H158.639ZM158.651 58.4191C158.655 58.4143 158.651 58.4211 158.629 58.4363C158.607 58.4514 158.572 58.4715 158.521 58.4943L158.927 59.4081C159.111 59.3264 159.297 59.2124 159.432 59.0438L158.651 58.4191ZM158.521 58.4943C158.439 58.5308 158.29 58.5717 158.052 58.6015L158.176 59.5938C158.458 59.5585 158.716 59.5017 158.927 59.4081L158.521 58.4943ZM158.052 58.6015C157.82 58.6305 157.509 58.6465 157.113 58.6465V59.6465C157.53 59.6465 157.887 59.6299 158.176 59.5938L158.052 58.6015ZM157.113 58.6465C156.734 58.6465 156.431 58.6306 156.198 58.6015L156.074 59.5938C156.362 59.6298 156.71 59.6465 157.113 59.6465V58.6465ZM156.198 58.6015C155.961 58.5719 155.796 58.5304 155.687 58.4869L155.316 59.4154C155.532 59.5022 155.79 59.5583 156.074 59.5938L156.198 58.6015ZM155.704 58.4943C155.653 58.4715 155.619 58.4514 155.597 58.4363C155.575 58.4211 155.57 58.4143 155.574 58.4191L154.793 59.0438C154.928 59.2124 155.114 59.3264 155.298 59.4081L155.704 58.4943ZM155.631 58.5078C155.623 58.4918 155.611 58.4571 155.611 58.3896H154.611C154.611 58.5827 154.647 58.7758 154.737 58.9551L155.631 58.5078ZM155.611 58.3896V36.417H154.611V58.3896H155.611ZM155.611 36.417C155.611 36.3825 155.614 36.362 155.616 36.3524C155.618 36.3433 155.619 36.3467 155.613 36.3569L154.755 35.8424C154.645 36.0252 154.611 36.2285 154.611 36.417H155.611ZM155.631 36.3232C155.62 36.3454 155.609 36.3532 155.614 36.3494C155.619 36.3448 155.638 36.3308 155.68 36.3124L155.274 35.3986C155.069 35.4894 154.857 35.6357 154.737 35.876L155.631 36.3232ZM155.72 36.2925C155.784 36.257 155.894 36.2206 156.074 36.2077L156.003 35.2103C155.727 35.2299 155.463 35.2912 155.234 35.4184L155.72 36.2925ZM156.109 36.204C156.304 36.1762 156.578 36.1602 156.942 36.1602V35.1602C156.556 35.1602 156.229 35.1767 155.968 35.214L156.109 36.204ZM156.942 36.1602C157.288 36.1602 157.555 36.1761 157.75 36.204L157.891 35.214C157.631 35.1768 157.312 35.1602 156.942 35.1602V36.1602ZM157.787 36.2079C157.993 36.2216 158.086 36.2603 158.117 36.2795L158.647 35.4315C158.417 35.2879 158.136 35.2289 157.854 35.2101L157.787 36.2079ZM158.159 36.3027C158.191 36.3188 158.206 36.3309 158.211 36.3353C158.215 36.3389 158.21 36.3353 158.204 36.3232L159.098 35.876C158.987 35.6538 158.801 35.5057 158.606 35.4083L158.159 36.3027ZM158.26 36.412C158.256 36.4067 158.253 36.4014 158.25 36.3965C158.248 36.3917 158.246 36.3883 158.246 36.387C158.245 36.3848 158.248 36.3932 158.248 36.417H159.248C159.248 36.2022 159.193 35.9775 159.041 35.7873L158.26 36.412ZM158.248 36.417V39.6152H159.248V36.417H158.248ZM159.161 39.8979C159.754 39.0324 160.299 38.3383 160.797 37.8095L160.069 37.1241C159.525 37.702 158.947 38.4402 158.336 39.3326L159.161 39.8979ZM160.792 37.815C161.312 37.2791 161.788 36.8744 162.221 36.5911L161.673 35.7546C161.161 36.0898 160.628 36.5477 160.074 37.1186L160.792 37.815ZM162.23 36.5845C162.664 36.2857 163.073 36.0953 163.459 35.9987L163.217 35.0286C162.692 35.1599 162.174 35.409 161.663 35.7612L162.23 36.5845ZM163.471 35.9957C163.902 35.877 164.329 35.8184 164.754 35.8184V34.8184C164.236 34.8184 163.719 34.89 163.205 35.0317L163.471 35.9957ZM164.754 35.8184C164.941 35.8184 165.156 35.8328 165.4 35.8633L165.524 34.871C165.248 34.8365 164.991 34.8184 164.754 34.8184V35.8184ZM165.433 35.8663C165.681 35.8809 165.939 35.9176 166.208 35.9774L166.425 35.0012C166.108 34.9307 165.797 34.886 165.492 34.8681L165.433 35.8663ZM166.208 35.9774C166.486 36.039 166.725 36.1069 166.93 36.1799L167.266 35.2381C167.015 35.1483 166.734 35.0697 166.425 35.0012L166.208 35.9774ZM166.94 36.1833C167.173 36.261 167.268 36.3188 167.291 36.3372L167.931 35.569C167.758 35.4247 167.511 35.3197 167.256 35.2346L166.94 36.1833ZM167.291 36.3372C167.319 36.3609 167.335 36.378 167.342 36.3875C167.35 36.3969 167.347 36.3955 167.342 36.383L168.27 36.0116C168.196 35.8262 168.065 35.6812 167.931 35.569L167.291 36.3372ZM167.359 36.4209C167.357 36.4172 167.361 36.4236 167.366 36.4448C167.372 36.4655 167.378 36.4954 167.384 36.5365L168.374 36.3951C168.354 36.2551 168.32 36.1064 168.253 35.9737L167.359 36.4209ZM167.398 36.6032C167.411 36.6484 167.428 36.7627 167.428 36.9785H168.428C168.428 36.7386 168.412 36.5111 168.36 36.3285L167.398 36.6032ZM167.43 37.0169C167.444 37.2096 167.452 37.4878 167.452 37.8574H168.452C168.452 37.4783 168.444 37.1706 168.427 36.9402L167.43 37.0169ZM187.811 59.0732L187.713 59.5636L187.719 59.5647L187.811 59.0732ZM187.103 56.2168H187.603V54.9514L186.738 55.875L187.103 56.2168ZM183.88 58.6094L183.664 58.1585L183.662 58.1597L183.88 58.6094ZM176.995 59L177.151 58.5248L177.146 58.5232L176.995 59ZM174.603 57.7061L174.274 58.0824L174.278 58.0863L174.603 57.7061ZM173.065 55.6064L172.606 55.8045L172.609 55.812L173.065 55.6064ZM178.924 45.9385L179.029 46.4274L179.034 46.4262L178.924 45.9385ZM186.566 45.4746V45.9746H187.066V45.4746H186.566ZM186.297 41.5195L185.815 41.6521L186.297 41.5195ZM185.418 39.9082L185.045 40.2404L185.051 40.2477L185.058 40.2548L185.418 39.9082ZM183.88 38.9316L183.711 39.4024L183.722 39.406L183.88 38.9316ZM178.851 38.9561L178.991 39.4361L178.997 39.4342L178.851 38.9561ZM176.776 39.7373L176.989 40.1895L176.994 40.1869L176.776 39.7373ZM175.286 40.5186L175.538 40.9505L175.544 40.9473L175.286 40.5186ZM173.797 40.4697L173.35 40.6933L173.361 40.7146L173.373 40.7347L173.797 40.4697ZM173.651 39.9814L173.157 40.0575L173.158 40.0636L173.651 39.9814ZM173.675 38.3457L173.192 38.2169L173.189 38.2288L173.186 38.2409L173.675 38.3457ZM174.09 37.6621L173.75 37.2957L173.743 37.302L173.737 37.3086L174.09 37.6621ZM175.238 36.9297L175.467 37.3743L175.477 37.3686L175.238 36.9297ZM177.093 36.1484L177.248 36.624L177.258 36.6205L177.093 36.1484ZM179.388 35.5625L179.475 36.055L179.484 36.0532L179.388 35.5625ZM185.931 35.8555L185.777 36.3312L185.931 35.8555ZM188.617 37.4424L188.259 37.7918L188.263 37.7959L188.617 37.4424ZM186.566 48.3799H187.066V47.8799H186.566V48.3799ZM180.243 48.6729L180.35 49.1613L180.359 49.159L180.243 48.6729ZM178.216 49.5029L178.494 49.919L178.502 49.9131L178.216 49.5029ZM177.02 50.8213L176.573 50.5977L176.57 50.6035L177.02 50.8213ZM177.728 55.3135L177.383 55.6753L177.391 55.6831L177.728 55.3135ZM183.709 55.5088L183.455 55.078L183.452 55.08L183.709 55.5088ZM186.566 53.043L186.938 53.3768L187.066 53.2344V53.043H186.566ZM190.07 58.4141C190.07 58.4567 190.063 58.4704 190.064 58.4673C190.065 58.4658 190.066 58.4625 190.069 58.4588C190.072 58.455 190.075 58.4533 190.074 58.4535L190.674 59.2535C190.956 59.042 191.07 58.7314 191.07 58.4141H190.07ZM190.074 58.4535C190.021 58.4932 189.918 58.5446 189.732 58.5843L189.942 59.5621C190.212 59.5042 190.467 59.4091 190.674 59.2535L190.074 58.4535ZM189.732 58.5843C189.557 58.6219 189.266 58.6465 188.836 58.6465V59.6465C189.286 59.6465 189.662 59.6222 189.942 59.5621L189.732 58.5843ZM188.836 58.6465C188.428 58.6465 188.121 58.6226 187.903 58.5818L187.719 59.5647C188.022 59.6215 188.398 59.6465 188.836 59.6465V58.6465ZM187.909 58.583C187.7 58.5411 187.618 58.4904 187.599 58.4739L186.948 59.2331C187.157 59.412 187.434 59.5077 187.713 59.5635L187.909 58.583ZM187.599 58.4739C187.602 58.4766 187.606 58.4803 187.609 58.4844C187.611 58.4884 187.612 58.4905 187.612 58.4892C187.61 58.4859 187.603 58.4642 187.603 58.4141H186.603C186.603 58.7083 186.692 59.0136 186.948 59.2331L187.599 58.4739ZM187.603 58.4141V56.2168H186.603V58.4141H187.603ZM186.738 55.875C185.817 56.8582 184.793 57.6174 183.664 58.1585L184.096 59.0602C185.344 58.462 186.468 57.6262 187.468 56.5586L186.738 55.875ZM183.662 58.1597C182.559 58.6958 181.388 58.9639 180.145 58.9639V59.9639C181.538 59.9639 182.858 59.6622 184.099 59.0591L183.662 58.1597ZM180.145 58.9639C179.034 58.9639 178.037 58.8152 177.151 58.5248L176.84 59.4752C177.841 59.8033 178.945 59.9639 180.145 59.9639V58.9639ZM177.146 58.5232C176.275 58.2482 175.539 57.8474 174.928 57.3258L174.278 58.0863C175.002 58.704 175.86 59.1658 176.845 59.4768L177.146 58.5232ZM174.932 57.3298C174.338 56.8098 173.867 56.1692 173.521 55.4009L172.609 55.812C173.011 56.7039 173.566 57.463 174.274 58.0823L174.932 57.3298ZM173.524 55.4084C173.197 54.6506 173.028 53.7757 173.028 52.7744H172.028C172.028 53.889 172.216 54.9021 172.606 55.8045L173.524 55.4084ZM173.028 52.7744C173.028 51.6063 173.265 50.6185 173.722 49.7939L172.847 49.3096C172.294 50.3079 172.028 51.4686 172.028 52.7744H173.028ZM173.722 49.7939C174.183 48.9608 174.847 48.2636 175.726 47.7028L175.188 46.8597C174.18 47.5033 173.395 48.3198 172.847 49.3096L173.722 49.7939ZM175.726 47.7028C176.609 47.1395 177.706 46.7108 179.029 46.4274L178.819 45.4496C177.408 45.752 176.193 46.2186 175.188 46.8597L175.726 47.7028ZM179.034 46.4262C180.359 46.1267 181.859 45.9746 183.538 45.9746V44.9746C181.8 44.9746 180.224 45.1318 178.814 45.4508L179.034 46.4262ZM183.538 45.9746H186.566V44.9746H183.538V45.9746ZM187.066 45.4746V43.7656H186.066V45.4746H187.066ZM187.066 43.7656C187.066 42.8853 186.973 42.0905 186.779 41.387L185.815 41.6521C185.98 42.2507 186.066 42.9533 186.066 43.7656H187.066ZM186.779 41.387C186.582 40.6677 186.252 40.0534 185.779 39.5616L185.058 40.2548C185.399 40.6094 185.655 41.0692 185.815 41.6521L186.779 41.387ZM185.792 39.576C185.336 39.0625 184.745 38.6927 184.038 38.4573L183.722 39.406C184.285 39.5938 184.72 39.875 185.045 40.2404L185.792 39.576ZM184.049 38.461C183.344 38.2079 182.502 38.0898 181.536 38.0898V39.0898C182.427 39.0898 183.147 39.1996 183.711 39.4022L184.049 38.461ZM181.536 38.0898C180.503 38.0898 179.558 38.2168 178.705 38.478L178.997 39.4342C179.739 39.207 180.584 39.0898 181.536 39.0898V38.0898ZM178.711 38.4761C177.908 38.7102 177.189 38.9801 176.557 39.2877L176.994 40.1869C177.567 39.9086 178.231 39.6576 178.991 39.4361L178.711 38.4761ZM176.562 39.2852C175.966 39.5666 175.454 39.8347 175.029 40.0898L175.544 40.9473C175.932 40.7141 176.413 40.4614 176.989 40.1894L176.562 39.2852ZM175.035 40.0867C174.853 40.1926 174.707 40.2646 174.593 40.3089C174.473 40.3554 174.417 40.3604 174.408 40.3604V41.3604C174.593 41.3604 174.782 41.3083 174.955 41.2409C175.134 41.1713 175.329 41.0724 175.538 40.9504L175.035 40.0867ZM174.408 40.3604C174.365 40.3604 174.35 40.3511 174.343 40.3467L173.788 41.1787C173.977 41.3045 174.19 41.3604 174.408 41.3604V40.3604ZM174.343 40.3467C174.32 40.3311 174.276 40.2925 174.221 40.2047L173.373 40.7347C173.481 40.9074 173.616 41.0641 173.788 41.1787L174.343 40.3467ZM174.244 40.2461C174.208 40.1733 174.171 40.0618 174.144 39.8992L173.158 40.0636C173.196 40.2917 173.256 40.5058 173.35 40.6933L174.244 40.2461ZM174.145 39.9054C174.117 39.7222 174.102 39.52 174.102 39.2979H173.102C173.102 39.564 173.12 39.8175 173.157 40.0575L174.145 39.9054ZM174.102 39.2979C174.102 38.9043 174.126 38.6276 174.164 38.4505L173.186 38.2409C173.127 38.5195 173.102 38.8776 173.102 39.2979H174.102ZM174.158 38.4745C174.197 38.3299 174.283 38.1766 174.444 38.0157L173.737 37.3086C173.474 37.5708 173.284 37.8733 173.192 38.2169L174.158 38.4745ZM174.43 38.0285C174.607 37.8648 174.939 37.6457 175.467 37.3742L175.009 36.4852C174.462 36.767 174.029 37.0363 173.75 37.2957L174.43 38.0285ZM175.477 37.3686C175.982 37.093 176.572 36.8441 177.248 36.6239L176.938 35.673C176.215 35.9085 175.567 36.1804 174.998 36.4907L175.477 37.3686ZM177.258 36.6205C177.929 36.3863 178.668 36.1973 179.475 36.0549L179.301 35.0701C178.448 35.2206 177.657 35.4223 176.928 35.6763L177.258 36.6205ZM179.484 36.0532C180.283 35.8966 181.089 35.8184 181.903 35.8184V34.8184C181.024 34.8184 180.154 34.9029 179.292 35.0718L179.484 36.0532ZM181.903 35.8184C183.447 35.8184 184.734 35.9938 185.777 36.3312L186.085 35.3797C184.914 35.001 183.516 34.8184 181.903 34.8184V35.8184ZM185.777 36.3312C186.821 36.669 187.642 37.1599 188.259 37.7918L188.974 37.093C188.224 36.3251 187.254 35.7581 186.085 35.3797L185.777 36.3312ZM188.263 37.7959C188.882 38.4151 189.339 39.1951 189.627 40.1502L190.585 39.8615C190.254 38.7658 189.718 37.8368 188.97 37.0888L188.263 37.7959ZM189.627 40.1502C189.919 41.1179 190.07 42.2636 190.07 43.5947H191.07C191.07 42.1914 190.911 40.9446 190.585 39.8615L189.627 40.1502ZM190.07 43.5947V58.4141H191.07V43.5947H190.07ZM186.566 47.8799H183.123V48.8799H186.566V47.8799ZM183.123 47.8799C181.989 47.8799 180.988 47.9798 180.126 48.1867L180.359 49.159C181.125 48.9753 182.044 48.8799 183.123 48.8799V47.8799ZM180.135 48.1845C179.274 48.374 178.534 48.6722 177.93 49.0927L178.502 49.9131C178.973 49.585 179.583 49.3298 180.35 49.1612L180.135 48.1845ZM177.939 49.0869C177.337 49.4879 176.876 49.9908 176.573 50.5977L177.467 51.0449C177.684 50.6101 178.021 50.2341 178.494 49.919L177.939 49.0869ZM176.57 50.6035C176.287 51.1877 176.154 51.8506 176.154 52.5791H177.154C177.154 51.973 177.264 51.464 177.47 51.0391L176.57 50.6035ZM176.154 52.5791C176.154 53.8326 176.552 54.8827 177.383 55.6752L178.073 54.9518C177.471 54.377 177.154 53.6043 177.154 52.5791H176.154ZM177.391 55.6831C178.241 56.4579 179.393 56.8145 180.78 56.8145V55.8145C179.562 55.8145 178.679 55.5037 178.065 54.9439L177.391 55.6831ZM180.78 56.8145C181.927 56.8145 182.993 56.5219 183.967 55.9375L183.452 55.08C182.636 55.5699 181.748 55.8145 180.78 55.8145V56.8145ZM183.963 55.9396C184.933 55.3682 185.924 54.5076 186.938 53.3768L186.194 52.7091C185.222 53.7919 184.309 54.5751 183.455 55.078L183.963 55.9396ZM187.066 53.043V48.3799H186.066V53.043H187.066Z" fill="black"/>
<path d="M229.073 36.3682C229.073 36.4495 229.056 36.5472 229.024 36.6611C229.007 36.7588 228.983 36.8727 228.951 37.0029L222.115 58.5117C222.082 58.6419 222.017 58.7477 221.919 58.8291C221.838 58.9105 221.724 58.9756 221.577 59.0244C221.431 59.0732 221.236 59.1058 220.992 59.1221C220.764 59.1383 220.487 59.1465 220.161 59.1465C219.82 59.1465 219.527 59.1302 219.283 59.0977C219.038 59.0814 218.835 59.0488 218.672 59C218.526 58.9512 218.404 58.8861 218.306 58.8047C218.225 58.7233 218.168 58.6257 218.135 58.5117L213.008 41.0801L212.959 40.8848L212.91 41.0801L208.125 58.5117C208.093 58.6419 208.028 58.7477 207.93 58.8291C207.832 58.9105 207.694 58.9756 207.515 59.0244C207.352 59.0732 207.149 59.1058 206.905 59.1221C206.66 59.1383 206.384 59.1465 206.075 59.1465C205.749 59.1465 205.472 59.1302 205.244 59.0977C205.017 59.0814 204.821 59.0488 204.659 59C204.512 58.9512 204.398 58.8861 204.317 58.8047C204.235 58.7233 204.178 58.6257 204.146 58.5117L197.359 37.0029C197.31 36.889 197.269 36.7751 197.237 36.6611C197.22 36.5472 197.212 36.4495 197.212 36.3682C197.212 36.2542 197.237 36.1566 197.285 36.0752C197.334 35.9938 197.416 35.9368 197.53 35.9043C197.644 35.8555 197.79 35.8229 197.969 35.8066C198.148 35.7904 198.368 35.7822 198.628 35.7822C198.97 35.7822 199.247 35.7985 199.458 35.8311C199.67 35.8473 199.825 35.8799 199.922 35.9287C200.036 35.9775 200.118 36.0426 200.166 36.124C200.215 36.2054 200.256 36.3031 200.288 36.417L206.123 55.7041L206.172 55.875L206.221 55.7041L211.519 36.417C211.551 36.3031 211.592 36.2054 211.641 36.124C211.706 36.0426 211.787 35.9775 211.885 35.9287C211.999 35.8799 212.146 35.8473 212.325 35.8311C212.52 35.7985 212.764 35.7822 213.057 35.7822C213.334 35.7822 213.562 35.7985 213.741 35.8311C213.92 35.8473 214.066 35.8799 214.18 35.9287C214.294 35.9775 214.375 36.0426 214.424 36.124C214.473 36.2054 214.514 36.3031 214.546 36.417L220.259 55.7041L220.308 55.875L220.332 55.7041L226.143 36.417C226.175 36.3031 226.216 36.2054 226.265 36.124C226.33 36.0426 226.42 35.9775 226.534 35.9287C226.647 35.8799 226.802 35.8473 226.997 35.8311C227.209 35.7985 227.478 35.7822 227.803 35.7822C228.063 35.7822 228.275 35.7904 228.438 35.8066C228.601 35.8229 228.731 35.8555 228.828 35.9043C228.926 35.9531 228.991 36.0182 229.024 36.0996C229.056 36.1647 229.073 36.2542 229.073 36.3682ZM256.28 47.2324C256.28 48.9902 256.052 50.6097 255.596 52.0908C255.14 53.5719 254.457 54.8577 253.545 55.9482C252.65 57.0387 251.527 57.8932 250.176 58.5117C248.825 59.1139 247.255 59.415 245.464 59.415C243.739 59.415 242.225 59.1465 240.923 58.6094C239.637 58.056 238.555 57.2747 237.676 56.2656C236.813 55.2402 236.162 54.0033 235.723 52.5547C235.3 51.1061 235.088 49.4704 235.088 47.6475C235.088 45.8896 235.308 44.2702 235.747 42.7891C236.203 41.3079 236.879 40.0303 237.774 38.9561C238.685 37.8656 239.816 37.0192 241.167 36.417C242.518 35.8148 244.097 35.5137 245.904 35.5137C247.629 35.5137 249.134 35.7822 250.42 36.3193C251.722 36.8564 252.805 37.6377 253.667 38.6631C254.53 39.6722 255.181 40.901 255.62 42.3496C256.06 43.7982 256.28 45.4258 256.28 47.2324ZM253.203 47.501C253.203 46.2477 253.081 45.0514 252.837 43.9121C252.593 42.7728 252.186 41.7718 251.617 40.9092C251.047 40.0303 250.282 39.3385 249.322 38.834C248.361 38.3132 247.165 38.0527 245.733 38.0527C244.414 38.0527 243.275 38.2887 242.315 38.7607C241.355 39.2327 240.565 39.8919 239.947 40.7383C239.344 41.5684 238.897 42.5531 238.604 43.6924C238.311 44.8317 238.164 46.0605 238.164 47.3789C238.164 48.6484 238.286 49.861 238.531 51.0166C238.775 52.1559 239.182 53.1569 239.751 54.0195C240.321 54.8822 241.086 55.5658 242.046 56.0703C243.007 56.5749 244.203 56.8271 245.635 56.8271C246.953 56.8271 248.093 56.5911 249.053 56.1191C250.013 55.6471 250.795 54.9961 251.397 54.166C252.015 53.3359 252.471 52.3512 252.764 51.2119C253.057 50.0726 253.203 48.8356 253.203 47.501ZM277.554 37.54C277.554 37.7842 277.546 37.9958 277.53 38.1748C277.513 38.3376 277.481 38.4759 277.432 38.5898C277.399 38.6875 277.351 38.7689 277.285 38.834C277.237 38.8828 277.163 38.9072 277.066 38.9072C276.919 38.9072 276.748 38.8747 276.553 38.8096C276.358 38.7282 276.13 38.6468 275.869 38.5654C275.609 38.484 275.324 38.4108 275.015 38.3457C274.706 38.2643 274.364 38.2236 273.99 38.2236C273.55 38.2236 273.119 38.3213 272.696 38.5166C272.272 38.6956 271.825 38.9967 271.353 39.4199C270.897 39.8268 270.409 40.3721 269.888 41.0557C269.383 41.7393 268.822 42.5775 268.203 43.5703V58.5117C268.203 58.6094 268.179 58.6989 268.13 58.7803C268.081 58.8617 268 58.9268 267.886 58.9756C267.788 59.0244 267.642 59.0651 267.447 59.0977C267.268 59.1302 267.032 59.1465 266.739 59.1465C266.462 59.1465 266.226 59.1302 266.031 59.0977C265.852 59.0651 265.705 59.0244 265.591 58.9756C265.477 58.9268 265.396 58.8617 265.347 58.7803C265.314 58.6989 265.298 58.6094 265.298 58.5117V36.417C265.298 36.3193 265.314 36.2298 265.347 36.1484C265.396 36.0671 265.477 36.002 265.591 35.9531C265.705 35.888 265.843 35.8473 266.006 35.8311C266.185 35.7985 266.413 35.7822 266.69 35.7822C266.966 35.7822 267.194 35.7985 267.373 35.8311C267.552 35.8473 267.691 35.888 267.788 35.9531C267.886 36.002 267.951 36.0671 267.984 36.1484C268.033 36.2298 268.057 36.3193 268.057 36.417V39.9082C268.692 38.9805 269.278 38.2318 269.815 37.6621C270.352 37.0924 270.865 36.653 271.353 36.3438C271.841 36.0182 272.313 35.7985 272.769 35.6846C273.241 35.5706 273.721 35.5137 274.209 35.5137C274.421 35.5137 274.665 35.5299 274.942 35.5625C275.218 35.5788 275.511 35.6195 275.821 35.6846C276.146 35.7497 276.431 35.8311 276.675 35.9287C276.936 36.0101 277.115 36.0915 277.212 36.1729C277.31 36.238 277.375 36.3031 277.408 36.3682C277.44 36.417 277.465 36.4902 277.481 36.5879C277.513 36.6693 277.53 36.7913 277.53 36.9541C277.546 37.1006 277.554 37.2959 277.554 37.54ZM301.88 58.4629C301.88 58.5768 301.856 58.6745 301.807 58.7559C301.758 58.8372 301.677 58.9105 301.563 58.9756C301.449 59.0244 301.294 59.0651 301.099 59.0977C300.904 59.1302 300.651 59.1465 300.342 59.1465C300.017 59.1465 299.748 59.1302 299.536 59.0977C299.325 59.0814 299.138 59.0488 298.975 59C298.828 58.9512 298.698 58.8861 298.584 58.8047C298.487 58.7233 298.389 58.6257 298.291 58.5117L287.94 45.9629V58.5117C287.94 58.6094 287.915 58.6989 287.867 58.7803C287.818 58.8617 287.736 58.9268 287.622 58.9756C287.525 59.0244 287.378 59.0651 287.183 59.0977C287.004 59.1302 286.768 59.1465 286.475 59.1465C286.198 59.1465 285.962 59.1302 285.767 59.0977C285.588 59.0651 285.441 59.0244 285.327 58.9756C285.214 58.9268 285.132 58.8617 285.083 58.7803C285.051 58.6989 285.035 58.6094 285.035 58.5117V25.6016C285.035 25.5039 285.051 25.4144 285.083 25.333C285.132 25.2516 285.214 25.1865 285.327 25.1377C285.441 25.0726 285.588 25.0319 285.767 25.0156C285.962 24.9831 286.198 24.9668 286.475 24.9668C286.768 24.9668 287.004 24.9831 287.183 25.0156C287.378 25.0319 287.525 25.0726 287.622 25.1377C287.736 25.1865 287.818 25.2516 287.867 25.333C287.915 25.4144 287.94 25.5039 287.94 25.6016V45.9141L297.242 36.5146C297.372 36.3682 297.502 36.2542 297.632 36.1729C297.779 36.0752 297.933 36.002 298.096 35.9531C298.259 35.888 298.446 35.8473 298.658 35.8311C298.869 35.7985 299.113 35.7822 299.39 35.7822C299.667 35.7822 299.903 35.7904 300.098 35.8066C300.31 35.8229 300.48 35.8555 300.611 35.9043C300.741 35.9531 300.839 36.0182 300.904 36.0996C300.969 36.1647 301.001 36.2542 301.001 36.3682C301.001 36.5309 300.952 36.6937 300.855 36.8564C300.757 37.0029 300.586 37.1982 300.342 37.4424L291.504 45.792L301.319 57.5107C301.53 57.7549 301.677 57.9421 301.758 58.0723C301.84 58.2025 301.88 58.3327 301.88 58.4629Z" fill="black"/>
<path fill-rule="evenodd" clip-rule="evenodd" d="M29.2901 63.7554C36.0546 70.4485 46.9746 70.3895 53.666 63.6268L69.4794 47.6447C76.1708 40.8819 76.1154 29.9604 69.3509 23.2672C62.5891 16.5768 51.6648 16.6345 44.9734 23.3973L29.16 39.3794C22.4686 46.1422 22.5283 57.065 29.2901 63.7554Z" fill="white"/>
<path fill-rule="evenodd" clip-rule="evenodd" d="M23.7465 69.3584C33.6006 79.1085 49.5174 79.0246 59.2679 69.1702L75.0813 53.1881C84.8317 43.3336 84.7467 27.4167 74.8926 17.6666C65.0385 7.91651 49.1216 8.00034 39.3712 17.8548L23.5577 33.8369C13.8073 43.6914 13.8923 59.6082 23.7465 69.3584ZM29.2899 63.7558C36.0545 70.449 46.9744 70.39 53.6658 63.6272L69.4792 47.6451C76.1706 40.8824 76.1153 29.9608 69.3507 23.2676C62.5889 16.5773 51.6646 16.635 44.9732 23.3977L29.1598 39.3799C22.4684 46.1426 22.5281 57.0654 29.2899 63.7558Z" fill="#FF9721"/>
<path fill-rule="evenodd" clip-rule="evenodd" d="M54.339 62.9467C61.2429 56.3395 60.2446 45.6389 53.4579 38.9121L37.7683 23.3662C30.9816 16.6419 20.0105 16.6922 13.2861 23.4789C6.56173 30.268 6.61206 41.2368 13.3988 47.9636L29.086 63.507C41.1991 75.304 41.314 75.134 46.6021 70.2744C49.7117 67.4185 51.0499 66.0946 54.339 62.9467Z" fill="white"/>
<path fill-rule="evenodd" clip-rule="evenodd" d="M59.7874 68.6378C69.9303 58.9329 68.9752 43.1931 59.0045 33.3135L43.3149 17.7677C33.4376 7.98146 17.4751 8.0533 7.68644 17.9305C-2.0998 27.8077 -2.02556 43.7726 7.8517 53.5587L23.5629 69.1286C29.3585 74.7709 32.813 77.8974 35.226 79.3385C37.6247 80.7724 39.6811 81.2416 41.5267 81.268C44.6221 81.3135 47.7365 79.9345 51.9354 76.0756C55.0906 73.1766 56.4503 71.8336 59.7874 68.6378ZM54.3389 62.9451C61.2429 56.3379 60.2446 45.6373 53.4579 38.9105L37.7682 23.3645C30.9815 16.6401 20.0102 16.6904 13.2858 23.4771C6.56133 30.2662 6.61162 41.235 13.3983 47.9618L29.0856 63.5053C41.1988 75.3024 41.3137 75.1324 46.6018 70.2728C49.7115 67.4169 51.0497 66.093 54.3389 62.9451Z" fill="#FF9721"/>
</svg>
