<svg width="329" height="213" viewBox="0 0 329 213" fill="none" xmlns="http://www.w3.org/2000/svg">
<path d="M277.483 55.6227H297.018L294.712 9.75208H277.483V55.6227Z" fill="#F5F5F5"/>
<path d="M316.491 62.6591L320.705 75.4803H316.491L290.668 62.6591H316.491Z" fill="#F5F5F5"/>
<path d="M320.697 62.6591V75.4803L294.874 62.6591H320.697Z" fill="#E6E6E6"/>
<path d="M203.89 62.6591L208.104 75.4803H203.89L178.071 62.6591H203.89Z" fill="#F5F5F5"/>
<path d="M208.181 62.6591V75.4803L182.358 62.6591H208.181Z" fill="#E6E6E6"/>
<path d="M328.284 55.7101H311.618V63.2269H328.284V55.7101Z" fill="#E6E6E6"/>
<path d="M172 63.2118L311.618 63.2118V55.695L172 55.695V63.2118Z" fill="#F5F5F5"/>
<path d="M220.052 55.5844H290.749L295.931 0H225.234L220.052 55.5844Z" fill="#E6E6E6"/>
<path d="M217.868 55.5844H288.572L293.754 0H223.05L217.868 55.5844Z" fill="#F0F0F0"/>
<path d="M285.048 49.4817L289.792 6.19861H226.577L221.832 49.4817H285.048Z" fill="white"/>
<path d="M310.864 189.991H327.311V111.912H310.864V189.991Z" fill="#F0F0F0"/>
<path d="M209.725 193.584H323.023V189.994H209.725V193.584Z" fill="#F0F0F0"/>
<path d="M310.944 111.894H205.412V189.973H310.944V111.894Z" fill="#F5F5F5"/>
<path d="M302.062 140.124H214.309V158.703H302.062V140.124Z" fill="#F0F0F0"/>
<path d="M302.062 164.446H214.309V183.024H302.062V164.446Z" fill="#F0F0F0"/>
<path d="M237.232 141.409H279.124C279.475 141.409 279.812 141.272 280.061 141.03C280.309 140.787 280.449 140.458 280.449 140.115C280.449 139.772 280.309 139.443 280.061 139.2C279.812 138.957 279.475 138.821 279.124 138.821H237.232C236.88 138.821 236.543 138.957 236.294 139.2C236.046 139.443 235.906 139.772 235.906 140.115C235.906 140.458 236.046 140.787 236.294 141.03C236.543 141.272 236.88 141.409 237.232 141.409Z" fill="#F5F5F5"/>
<path d="M237.232 165.691H279.124C279.475 165.691 279.812 165.554 280.061 165.312C280.309 165.069 280.449 164.74 280.449 164.397C280.449 164.054 280.309 163.725 280.061 163.482C279.812 163.239 279.475 163.103 279.124 163.103H237.232C236.88 163.103 236.543 163.239 236.294 163.482C236.046 163.725 235.906 164.054 235.906 164.397C235.906 164.74 236.046 165.069 236.294 165.312C236.543 165.554 236.88 165.691 237.232 165.691Z" fill="#F5F5F5"/>
<path d="M302.062 115.842H214.309V134.421H302.062V115.842Z" fill="#F0F0F0"/>
<path d="M237.232 117.087H279.124C279.475 117.087 279.812 116.951 280.061 116.708C280.309 116.466 280.449 116.137 280.449 115.794C280.449 115.451 280.309 115.121 280.061 114.879C279.812 114.636 279.475 114.5 279.124 114.5H237.232C236.88 114.5 236.543 114.636 236.294 114.879C236.046 115.121 235.906 115.451 235.906 115.794C235.906 116.137 236.046 116.466 236.294 116.708C236.543 116.951 236.88 117.087 237.232 117.087Z" fill="#F5F5F5"/>
<path d="M9.03654 189.26H97.9893L97.9893 12H9.03654L9.03654 189.26Z" fill="#E6E6E6"/>
<path d="M5.66209 189.26H97.5039L97.5039 12H5.66209L5.66209 189.26Z" fill="#F0F0F0"/>
<path d="M9.03654 192.339H97.9893V189.286H9.03654V192.339Z" fill="#E6E6E6"/>
<path d="M-2.28882e-05 192.339H91.8418V189.286H-2.28882e-05V192.339Z" fill="#F0F0F0"/>
<path d="M92.7314 184.656L92.7314 16.6016L10.3124 16.6016L10.3124 184.656H92.7314Z" fill="#FAFAFA"/>
<path d="M90.582 67.1681C90.6775 67.1681 90.7692 67.1315 90.8373 67.0661C90.9055 67.0008 90.9447 66.912 90.9464 66.8187V19.5961C90.9447 19.5029 90.9055 19.4141 90.8373 19.3487C90.7692 19.2834 90.6775 19.2468 90.582 19.2468C90.4871 19.2468 90.396 19.2836 90.3289 19.3491C90.2618 19.4146 90.2241 19.5035 90.2241 19.5961V66.8187C90.2241 66.9114 90.2618 67.0002 90.3289 67.0657C90.396 67.1313 90.4871 67.1681 90.582 67.1681Z" fill="#F0F0F0"/>
<path d="M10.9531 184.656L10.9531 16.6016H10.3567L10.3567 184.656H10.9531Z" fill="#E6E6E6"/>
<path opacity="0.5" d="M4.56299 22.6288H94.6157L95.0464 18.4176H5.00033L4.56299 22.6288Z" fill="#E0E0E0"/>
<path opacity="0.5" d="M4.56299 29.545H94.6157L95.0464 25.3273H5.00033L4.56299 29.545Z" fill="#E0E0E0"/>
<path opacity="0.5" d="M4.56299 36.4938H94.6157L95.0464 32.2761H5.00033L4.56299 36.4938Z" fill="#E0E0E0"/>
<path opacity="0.5" d="M4.56299 43.4033H94.6157L95.0464 39.1857H5.00033L4.56299 43.4033Z" fill="#E0E0E0"/>
<path opacity="0.5" d="M4.56299 50.3459H94.6157L95.0464 46.1346H5.00033L4.56299 50.3459Z" fill="#E0E0E0"/>
<path opacity="0.5" d="M4.56299 57.3013H94.6157L95.0464 53.0836H5.00033L4.56299 57.3013Z" fill="#E0E0E0"/>
<path d="M158.607 213C229.564 213 287.086 209.721 287.086 205.677C287.086 201.633 229.564 198.354 158.607 198.354C87.65 198.354 30.1279 201.633 30.1279 205.677C30.1279 209.721 87.65 213 158.607 213Z" fill="#F5F5F5"/>
<path d="M187.546 200.52C187.546 200.52 188.879 199.583 190.545 195.458C190.545 195.458 193.538 195.683 195.381 197.546C194.065 200.323 192.536 202.811 192.536 202.811L187.546 200.52Z" fill="#EBB376"/>
<path d="M214.231 93.8936C214.231 93.8936 210.574 119.621 207.308 136.514C203.883 154.258 189.051 193.297 188.5 194.5L198.5 199.5C198.5 199.5 216.5 163 221.5 143C230 122.5 230.98 115.733 232.48 107.495C234.376 97.0813 230.109 87.79 230.109 87.79L214.231 93.8936Z" fill="#FF9721"/>
<path d="M179.5 197.5C184.189 198.784 186.5 199.5 189 197.5L195.5 200C195.5 200 193.323 203.706 193.148 204.631C193.109 204.819 193.028 204.998 192.911 205.152C192.793 205.307 192.642 205.435 192.468 205.526C192.294 205.617 192.102 205.67 191.905 205.68C191.708 205.69 191.511 205.657 191.328 205.585C186 203.5 182.5 202 177.345 199.027L177 198.5L177.129 198.212L178 197.5H179.5Z" fill="#263238"/>
<path d="M187.172 72.2092L186.265 70.9944C185.771 70.3258 185.116 69.7853 184.359 69.4203C183.601 69.0553 182.764 68.8767 181.92 68.9003C181.542 68.9108 181.178 69.0325 180.873 69.2494C180.568 69.4662 180.338 69.768 180.212 70.1151L179.477 72.1745C179.321 72.6053 179.337 73.0779 179.523 73.4974C179.709 73.917 180.05 74.2524 180.479 74.4364L181.475 74.8703C181.475 74.8703 184.789 76.7562 187.617 76.4727L187.824 75.7323C187.994 75.135 188.023 74.5081 187.91 73.8981C187.797 73.2882 187.545 72.7109 187.172 72.2092Z" fill="#EBB376"/>
<path d="M212.072 64.4284L212.102 64.8855V65.2616V65.9964V67.414C212.066 68.3571 211.971 69.2887 211.847 70.2144C211.59 72.0896 211.141 73.9349 210.508 75.7228C209.241 79.4695 206.994 82.8283 203.989 85.4665L203.705 85.7153L203.562 85.8368L203.491 85.9004L203.313 86.0393C202.771 86.4658 202.149 86.7861 201.482 86.9824C200.499 87.259 199.46 87.2928 198.46 87.0808C197.265 86.8065 196.124 86.3433 195.082 85.7095C193.481 84.7318 191.984 83.5998 190.614 82.3304C189.304 81.1385 188.09 79.9119 186.934 78.6331C188.169 80 187.082 78.7962 185.5 77.5L188 72.5C190.608 74.4152 191.93 75.7575 194.567 77.4412C195.786 78.2597 197.072 78.9777 198.413 79.5878C198.575 79.6695 198.743 79.7383 198.915 79.7937C199.731 78.8949 200.44 77.9076 201.026 76.851C201.67 75.6695 202.188 74.4268 202.573 73.1422C202.974 71.8179 203.262 70.4631 203.432 69.0919C203.527 68.3976 203.58 67.6917 203.628 66.9974C203.628 66.6502 203.657 66.2973 203.663 65.9617V64.735C203.64 64.1967 203.725 63.6591 203.915 63.1531C204.104 62.647 204.394 62.1823 204.767 61.7855C205.141 61.3887 205.59 61.0676 206.091 60.8405C206.591 60.6134 207.133 60.4848 207.684 60.462C208.235 60.4393 208.786 60.5227 209.304 60.7077C209.823 60.8926 210.298 61.1755 210.705 61.54C211.111 61.9045 211.44 62.3437 211.673 62.8323C211.905 63.321 212.037 63.8495 212.06 64.3879L212.072 64.4284Z" fill="#FF9721"/>
<rect x="213" y="114.599" width="5.35301" height="8.41187" rx="0.5" transform="rotate(-2.84788 213 114.599)" fill="white"/>
<rect x="214.765" y="112.076" width="1.52943" height="3.22426" rx="0.1" transform="rotate(-2.82896 214.765 112.076)" fill="#3F3D56"/>
<line x1="214.339" y1="120.787" x2="217.393" y2="120.617" stroke="#C4C4C4" stroke-width="0.5"/>
<line x1="214.879" y1="121.958" x2="217.176" y2="121.83" stroke="#C4C4C4" stroke-width="0.3"/>
<circle cx="215.882" cy="117.902" r="1.91179" fill="#C4C4C4"/>
<path d="M239 202.423C239 202.423 239.862 200.549 239.839 194.413C239.839 194.413 242.923 193.331 245 194.669C244.838 198.907 244.589 203 244.589 203L239 202.423Z" fill="#EBB376"/>
<path d="M236.812 86.5542C236.812 86.5542 242.804 90.3958 245.015 100.752C246.793 108.939 245.353 113 248 137.774C249.5 159 248.5 196.5 248.5 196.5L236 198C236.053 196.687 234.916 155.489 231.336 137.774C227.934 120.903 218.943 88.7932 218.943 88.7932L236.812 86.5542Z" fill="#FF9721"/>
<path d="M245.762 199.101L238.912 199.051C238.784 199.05 238.098 200.92 238 201C235.192 202.759 232.76 203.311 229.5 204L229 205L229.433 205.696H244.923C245.121 205.697 245.316 205.655 245.495 205.573C245.674 205.492 245.833 205.373 245.96 205.224C246.086 205.076 246.178 204.903 246.229 204.716C246.279 204.529 246.286 204.334 246.251 204.144C246.064 203.221 245.788 202.326 245.762 201.386C245.756 201.243 245.762 201.386 245.762 200.963C245.762 199.161 245.762 199.101 245.762 199.101Z" fill="#263238"/>
<path d="M204.295 67.2284C204.887 69.4444 202.381 75.3576 207.483 77.4348C208.982 81.8436 211 93.5 209.427 112L248.5 110C244.5 87.5 235.5 87.5 233 63.5C232.999 62.6767 232.803 58.2952 232.459 57.5435C232.115 56.7918 231.613 56.1192 230.986 55.5692C230.358 55.0193 229.619 54.6043 228.817 54.3512C228.014 54.0981 227.166 54.0126 226.328 54.1002C225.38 54.1986 224.378 54.3259 223.365 54.4879C219.792 54.9616 216.259 55.6867 212.793 56.6576C211.673 56.9932 210.523 57.3751 209.427 57.7627C207.52 58.4358 205.937 59.7781 204.989 61.5281C204.04 63.278 203.793 65.3101 204.295 67.2284Z" fill="#FF9721"/>
<path d="M209.932 96.7216C209.933 96.4548 210.143 96.2355 210.41 96.2235L216.331 95.9552C216.598 95.9431 216.828 96.1431 216.852 96.4094L217.694 105.664C217.72 105.955 217.493 106.206 217.201 106.21L210.413 106.283C210.134 106.286 209.906 106.061 209.907 105.782L209.932 96.7216Z" fill="#FCB667"/>
<path d="M209.877 95.6227L216.752 95.3112L216.837 96.2448L209.962 96.5563L209.877 95.6227Z" fill="#E1841B"/>
<path d="M244.139 95.3008C244.055 95.1185 243.87 95.0044 243.669 95.0111L238.539 95.1822C238.264 95.1914 238.048 95.4217 238.056 95.6972L238.34 104.966C238.349 105.257 238.605 105.479 238.895 105.447L246.918 104.564C247.223 104.53 247.426 104.231 247.345 103.935L246.241 99.9141C246.234 99.8888 246.225 99.8641 246.214 99.8402L245.028 97.2204L244.139 95.3008Z" fill="#FCB667"/>
<path d="M243.518 94.0066L238.012 94.5745L238.041 95.5115L244.091 95.0515L243.518 94.0066Z" fill="#E1841B"/>
<path d="M210.879 69.4579L210.074 69.5882C208.842 61.9833 208.767 57.5628 212.243 57.0001L212.101 57.451C209.697 57.8402 209.565 61.3465 210.879 69.4579Z" fill="#3F3D56"/>
<path d="M222.769 66.1098L223.41 66.2849C225.379 59.5227 226.094 55.8407 223.325 55.0846L222.926 55.3045C224.842 55.8275 224.869 58.8973 222.769 66.1098Z" fill="#3F3D56"/>
<path d="M222.391 68.6364C223.247 68.8702 224.14 68.3779 224.384 67.537C224.629 66.6961 224.134 65.8249 223.278 65.5912C222.422 65.3574 221.529 65.8497 221.284 66.6906C221.039 67.5315 221.535 68.4027 222.391 68.6364Z" fill="#3F3D56"/>
<path d="M208.83 74.6482L208.037 74.7766C207.559 71.824 208.771 69.1624 210.74 68.8437L210.873 69.6675C209.342 69.9155 208.426 72.1498 208.83 74.6482Z" fill="#3F3D56"/>
<path d="M215.177 73.6206L214.384 73.7491C213.979 71.2506 212.405 69.4197 210.874 69.6676L210.74 68.8438C212.709 68.525 214.699 70.6679 215.177 73.6206Z" fill="#3F3D56"/>
<path d="M215.17 74.9954C215.786 74.8956 216.205 74.3153 216.105 73.6992C216.005 73.083 215.425 72.6644 214.809 72.7642C214.193 72.8639 213.774 73.4443 213.874 74.0604C213.974 74.6766 214.554 75.0952 215.17 74.9954Z" fill="#3F3D56"/>
<path d="M208.477 76.0794C209.093 75.9796 209.512 75.3993 209.412 74.7831C209.312 74.167 208.732 73.7484 208.116 73.8482C207.499 73.9479 207.081 74.5283 207.181 75.1444C207.28 75.7605 207.861 76.1791 208.477 76.0794Z" fill="#3F3D56"/>
<path d="M220.116 43C220.17 46.4713 220.816 52.6793 223.673 54.4092C223.673 54.4092 219.693 58.5177 216 64.5C213.037 60.3749 213.098 56.5845 213.098 56.5845C216.702 54.9183 216.009 52.1875 214.793 49.746L220.116 43Z" fill="#EBB376"/>
<path opacity="0.2" d="M227.5 120C227.5 120.04 227.023 116.948 227 117C225.157 120.766 223 124 222 134.92C221.992 137.095 221.731 139.841 222 142C225 134.5 226.5 130.5 228.447 124.479L227.5 120Z" fill="black"/>
<path opacity="0.2" d="M217.609 45.839L214.458 49.8253C214.752 50.3916 214.993 50.982 215.181 51.5898C216.585 51.0923 218.243 49.1252 218.077 47.6152C218.036 46.9999 217.877 46.3976 217.609 45.839Z" fill="black"/>
<path d="M222.011 36.2401C221.851 41.9161 221.904 44.3404 219.124 47.3201C214.945 51.8273 207.98 50.3808 206.432 44.7685C205.045 39.7175 205.543 31.2874 211.038 28.8574C216.534 26.4273 222.207 30.57 222.011 36.2401Z" fill="#EBB376"/>
<path d="M217.743 29.9965C213.39 31.7217 208.739 32.6172 204.041 32.6346C204.041 32.6346 215.959 20.0515 217.743 29.9965Z" fill="#263238"/>
<path d="M218.159 27.4251C215.197 30.1384 214.261 37.8965 221.831 39.4643C225.332 37.6882 230.284 25.192 218.159 27.4251Z" fill="#263238"/>
<path d="M213.842 37.9684C213.842 38.4314 213.622 38.8134 213.314 38.8192C213.006 38.8249 212.722 38.4661 212.722 38.0031C212.722 37.5401 212.941 37.1581 213.249 37.1523C213.557 37.1465 213.83 37.5053 213.842 37.9684Z" fill="#263238"/>
<path d="M208.06 38.256C208.06 38.7128 207.835 39.0943 207.527 39.1059C207.219 39.1174 206.934 38.7474 206.934 38.2907C206.934 37.834 207.159 37.4467 207.467 37.4351C207.776 37.4235 208.025 37.7704 208.06 38.256Z" fill="#263238"/>
<path d="M207.644 37.4373L206.5 37.1522C206.5 37.1522 207.11 38.0016 207.644 37.4373Z" fill="#263238"/>
<path d="M209.752 38.7413C209.368 39.8076 208.833 40.8165 208.164 41.7393C208.41 41.9001 208.69 42.0063 208.983 42.0503C209.275 42.0943 209.575 42.075 209.859 41.9939L209.752 38.7413Z" fill="#C06363"/>
<path d="M212.638 43.8279C212.379 43.8839 212.116 43.9149 211.851 43.9205C211.833 43.9221 211.815 43.92 211.798 43.9143C211.78 43.9086 211.765 43.8995 211.751 43.8875C211.738 43.8755 211.727 43.861 211.72 43.8447C211.713 43.8284 211.709 43.8109 211.709 43.7931C211.707 43.7572 211.72 43.7221 211.744 43.6951C211.769 43.6681 211.803 43.6514 211.839 43.6484C212.426 43.6447 213.004 43.5048 213.526 43.2402C214.047 42.9756 214.496 42.5938 214.838 42.1262C214.847 42.111 214.859 42.0978 214.874 42.0872C214.888 42.0766 214.905 42.069 214.923 42.0647C214.94 42.0604 214.958 42.0595 214.976 42.0621C214.994 42.0647 215.011 42.0708 215.027 42.0799C215.043 42.089 215.056 42.1011 215.067 42.1153C215.078 42.1295 215.085 42.1457 215.09 42.1629C215.094 42.1801 215.095 42.198 215.092 42.2155C215.09 42.2331 215.084 42.2499 215.074 42.2651C214.502 43.0778 213.627 43.6388 212.638 43.8279Z" fill="#263238"/>
<path d="M223.396 39.5939C223.284 40.0987 223.063 40.5747 222.749 40.9906C222.435 41.4065 222.034 41.753 221.573 42.0073C220.386 42.586 219.46 41.3822 219.525 39.9354C219.579 38.6332 220.267 36.7581 221.591 36.7639C222.915 36.7697 223.716 38.2571 223.396 39.5939Z" fill="#EBB376"/>
<path d="M214.784 34.7589C214.746 34.7577 214.71 34.7489 214.676 34.7329C214.642 34.717 214.612 34.6943 214.588 34.6663C214.366 34.4043 214.084 34.197 213.764 34.0613C213.445 33.9255 213.097 33.8651 212.749 33.8849C212.676 33.8933 212.603 33.8739 212.544 33.8308C212.486 33.7876 212.447 33.7241 212.435 33.6534C212.425 33.582 212.444 33.5097 212.488 33.4521C212.533 33.3946 212.599 33.3567 212.672 33.3467C213.113 33.3134 213.555 33.3838 213.961 33.552C214.368 33.7202 214.728 33.9813 215.009 34.3132C215.034 34.3399 215.052 34.3711 215.064 34.405C215.076 34.4389 215.08 34.4747 215.078 34.5104C215.075 34.546 215.065 34.5808 215.048 34.6125C215.031 34.6443 215.008 34.6724 214.98 34.6952C214.953 34.7183 214.922 34.7358 214.889 34.7467C214.855 34.7577 214.819 34.7618 214.784 34.7589Z" fill="#263238"/>
<path d="M206.043 35.7357C206.008 35.7444 205.971 35.7457 205.935 35.7397C205.9 35.7337 205.866 35.7206 205.835 35.701C205.804 35.6826 205.777 35.6584 205.756 35.6297C205.735 35.601 205.72 35.5684 205.711 35.5339C205.703 35.4994 205.702 35.4636 205.708 35.4286C205.714 35.3937 205.727 35.3602 205.747 35.3303C205.969 34.9588 206.279 34.645 206.652 34.4152C207.024 34.1854 207.447 34.0463 207.886 34.0097C207.922 34.0081 207.959 34.0137 207.993 34.026C208.027 34.0383 208.058 34.0572 208.084 34.0815C208.111 34.1057 208.132 34.135 208.147 34.1674C208.162 34.1998 208.17 34.2348 208.171 34.2703C208.172 34.3058 208.166 34.3412 208.154 34.3745C208.141 34.4078 208.122 34.4383 208.097 34.4642C208.072 34.4901 208.042 34.5109 208.009 34.5253C207.976 34.5398 207.94 34.5476 207.904 34.5483C207.557 34.5823 207.223 34.6968 206.93 34.8821C206.638 35.0675 206.394 35.3184 206.221 35.6141C206.201 35.6452 206.175 35.672 206.145 35.693C206.114 35.7139 206.079 35.7285 206.043 35.7357Z" fill="#263238"/>
<path d="M213.437 37.1871L212.288 36.9052C212.288 36.9052 212.898 37.7624 213.437 37.1871Z" fill="#263238"/>
<path d="M239.434 85.5891L235.221 86.3006L239.369 91.7499C239.369 91.7499 242.558 89.6789 243.547 87.0758L242.955 86.5667C242.48 86.1577 241.917 85.8575 241.308 85.6884C240.699 85.5192 240.059 85.4853 239.434 85.5891Z" fill="#EBB376"/>
<path d="M234.456 90.7673L236.025 92.3235C236.353 92.6507 236.795 92.8446 237.263 92.866C237.731 92.8875 238.19 92.735 238.548 92.4392L239.383 91.7566L235.238 86.307L234.083 88.7425C233.928 89.0773 233.881 89.45 233.948 89.8115C234.014 90.173 234.192 90.5062 234.456 90.7673Z" fill="#EBB376"/>
<path d="M230.753 54.9279C231.298 55.1015 231.695 55.2403 232.151 55.4081C232.608 55.5759 233.022 55.7379 233.455 55.9057C234.314 56.2413 235.162 56.6116 235.997 56.9935C237.674 57.7514 239.304 58.6077 240.91 59.5277C244.196 61.3952 247.22 63.6707 249.906 66.2973C250.25 66.6386 250.582 66.9916 250.908 67.3503L251.394 67.8942L251.512 68.0331L251.732 68.2876C251.937 68.5397 252.119 68.8088 252.277 69.0919C252.552 69.5957 252.751 70.1354 252.869 70.6946C252.959 71.1386 253.002 71.5902 253 72.0427C252.984 72.7364 252.885 73.4258 252.703 74.0967C252.415 75.1367 252.018 76.1449 251.518 77.1054C251.068 77.9849 250.576 78.7892 250.072 79.5703C249.078 81.0819 247.987 82.5313 246.807 83.9097C245.657 85.2717 244.798 87.2719 243.5 88.5L239.604 85C241.187 82.107 243.079 79.443 244.324 76.5731C244.638 75.8615 244.916 75.1498 245.136 74.4728C245.348 73.8995 245.495 73.3052 245.575 72.7006L245.396 72.5287C245.118 72.2799 244.845 72.0254 244.555 71.7824C242.16 69.798 239.553 68.0715 236.78 66.6329C235.375 65.8749 233.917 65.1806 232.448 64.5152C231.713 64.1854 230.972 63.8672 230.231 63.5605L229.123 63.1092L228.086 62.71L227.92 62.6463C226.916 62.2441 226.11 61.4785 225.67 60.5097C225.231 59.5409 225.191 58.4436 225.561 57.4473C225.93 56.4509 226.68 55.6325 227.653 55.163C228.626 54.6935 229.747 54.6093 230.782 54.9279H230.753Z" fill="#FF9721"/>
<path opacity="0.2" d="M228.195 61.8897L233.042 64.7753L234.304 72.1219C232.158 69.6477 228.426 64.5041 228.199 61.942C228.199 61.942 228.201 61.9015 228.202 61.8784L228.195 61.8897Z" fill="black"/>
<path d="M206.892 47.416C207.821 48.8676 208.948 49.6683 210.132 50.0289C211.323 50.3914 212.584 50.3129 213.779 49.983C214.974 49.6531 216.095 49.0736 217 48.444C217.828 47.8676 218.464 47.2564 218.808 46.7668C218.256 46.4731 217.434 45.8812 216.809 44.9841C216.142 44.0269 215.702 42.7229 216.053 41.0754L209.315 40.459L205.982 41.2458C205.898 42.8448 205.88 44.744 206.892 47.416Z" fill="white" stroke="#BCBBBB" stroke-width="0.3"/>
<path d="M221.871 42.0519L218.318 46.8451L218 46.7932L221.553 42L221.871 42.0519Z" fill="white"/>
<path d="M215 41.5096L220.044 37.9999L220.262 38.1143L215.217 41.624L215 41.5096Z" fill="white"/>
<path d="M162.202 201.665H79.5191C77.9898 201.68 76.4742 201.377 75.0675 200.777C73.6608 200.177 72.3935 199.292 71.3453 198.179C70.2972 197.065 69.4908 195.746 68.9769 194.306C68.4631 192.866 68.2529 191.334 68.3595 189.809L78.4075 17.9566C78.6367 14.7668 80.0542 11.7789 82.3798 9.58362C84.7053 7.3883 87.7698 6.14519 90.9675 6.09996H173.669C175.198 6.08584 176.714 6.38833 178.12 6.98842C179.527 7.5885 180.794 8.47319 181.843 9.58683C182.891 10.7005 183.697 12.019 184.211 13.4594C184.725 14.8998 184.935 16.431 184.828 17.9566L174.749 189.809C174.52 192.997 173.104 195.983 170.781 198.178C168.458 200.373 165.397 201.617 162.202 201.665Z" fill="#FF9721"/>
<path d="M162.202 201.665H79.5191C77.9898 201.68 76.4742 201.377 75.0675 200.777C73.6608 200.177 72.3935 199.292 71.3453 198.179C70.2972 197.065 69.4908 195.746 68.9769 194.306C68.4631 192.866 68.2529 191.334 68.3595 189.809L78.4075 17.9566C78.6367 14.7668 80.0542 11.7789 82.3798 9.58362C84.7053 7.3883 87.7698 6.14519 90.9675 6.09996H173.669C175.198 6.08584 176.714 6.38833 178.12 6.98842C179.527 7.5885 180.794 8.47319 181.843 9.58683C182.891 10.7005 183.697 12.019 184.211 13.4594C184.725 14.8998 184.935 16.431 184.828 17.9566L174.749 189.809C174.52 192.997 173.104 195.983 170.781 198.178C168.458 200.373 165.397 201.617 162.202 201.665Z" fill="#FFD19F"/>
<path d="M161.711 198.224H81.3273C80.2529 198.234 79.1879 198.022 78.1994 197.601C77.2109 197.18 76.3203 196.559 75.5835 195.777C74.8468 194.994 74.2799 194.068 73.9185 193.056C73.5571 192.044 73.409 190.969 73.4836 189.897L83.5316 18.7919C83.6927 16.5561 84.6841 14.4615 86.3109 12.9194C87.9378 11.3774 90.0825 10.4995 92.3236 10.4583H172.708C173.782 10.4488 174.847 10.6617 175.836 11.0836C176.824 11.5055 177.715 12.1273 178.452 12.91C179.188 13.6926 179.755 14.6192 180.116 15.6314C180.478 16.6436 180.626 17.7197 180.551 18.7919L170.503 189.897C170.342 192.132 169.351 194.226 167.724 195.767C166.097 197.308 163.952 198.184 161.711 198.224Z" fill="#FFB460"/>
<path d="M160.845 197.307H80.4611C79.3864 197.317 78.3213 197.104 77.3327 196.682C76.3442 196.26 75.4537 195.638 74.717 194.856C73.9804 194.073 73.4136 193.146 73.0523 192.134C72.6909 191.122 72.5429 190.046 72.6174 188.974L82.6654 17.8688C82.8265 15.633 83.8178 13.5384 85.4447 11.9963C87.0715 10.4543 89.2162 9.57645 91.4574 9.53522H171.841C172.916 9.5257 173.981 9.73859 174.97 10.1605C175.958 10.5824 176.849 11.2042 177.585 11.9869C178.322 12.7695 178.889 13.6961 179.25 14.7083C179.612 15.7205 179.76 16.7966 179.685 17.8688L169.637 188.974C169.476 191.209 168.485 193.304 166.858 194.846C165.231 196.388 163.086 197.266 160.845 197.307Z" fill="white"/>
<path opacity="0.1" d="M141.51 22.8153H119.662C119.425 22.8176 119.189 22.7708 118.971 22.6777C118.753 22.5846 118.556 22.4473 118.393 22.2745C118.23 22.1017 118.105 21.897 118.025 21.6734C117.945 21.4498 117.912 21.2121 117.929 20.9753C117.964 20.4786 118.184 20.0131 118.545 19.6711C118.907 19.3291 119.384 19.1356 119.882 19.1289H141.724C141.964 19.123 142.203 19.1675 142.425 19.2593C142.646 19.3512 142.847 19.4885 143.012 19.6624C143.178 19.8363 143.305 20.043 143.386 20.2691C143.467 20.4952 143.5 20.7357 143.482 20.9753C143.447 21.4745 143.224 21.942 142.858 22.2834C142.493 22.6249 142.011 22.8149 141.51 22.8153Z" fill="#FF9721"/>
<path d="M162.611 18.7898H171.459C171.701 18.7857 171.933 18.6913 172.108 18.5251C172.284 18.3588 172.391 18.1329 172.408 17.8918C172.416 17.7769 172.4 17.6617 172.361 17.5533C172.322 17.4449 172.261 17.3457 172.182 17.262C172.103 17.1783 172.007 17.1118 171.901 17.0667C171.796 17.0216 171.681 16.9989 171.566 17H162.711C162.471 17.004 162.24 17.0976 162.065 17.2625C161.889 17.4274 161.782 17.6518 161.763 17.8918C161.754 18.0077 161.77 18.1242 161.809 18.2337C161.848 18.3433 161.909 18.4436 161.989 18.5281C162.068 18.6126 162.165 18.6796 162.272 18.7246C162.379 18.7697 162.495 18.7919 162.611 18.7898Z" fill="#FF9721"/>
<path d="M162.429 21.8733H171.278C171.52 21.8692 171.751 21.7747 171.927 21.6085C172.102 21.4423 172.209 21.2164 172.226 20.9752C172.235 20.8599 172.22 20.7439 172.181 20.6348C172.143 20.5257 172.082 20.4257 172.003 20.3413C171.924 20.2568 171.828 20.1898 171.721 20.1443C171.615 20.0988 171.5 20.076 171.385 20.0772H162.536C162.293 20.0797 162.06 20.1735 161.884 20.3399C161.707 20.5062 161.599 20.733 161.582 20.9752C161.575 21.0907 161.592 21.2064 161.631 21.3151C161.671 21.4238 161.732 21.5233 161.811 21.6075C161.891 21.6916 161.987 21.7586 162.093 21.8043C162.199 21.85 162.314 21.8735 162.429 21.8733Z" fill="#FF9721"/>
<path d="M90.8434 21.8733H99.6919C99.9343 21.8693 100.166 21.7751 100.343 21.609C100.52 21.4429 100.628 21.2169 100.647 20.9752C100.654 20.8595 100.638 20.7435 100.599 20.6343C100.56 20.5252 100.498 20.4253 100.419 20.341C100.339 20.2567 100.243 20.1897 100.136 20.1443C100.03 20.0989 99.9147 20.0761 99.7987 20.0772H90.9502C90.708 20.0798 90.4758 20.1738 90.3 20.3403C90.1242 20.5068 90.0177 20.7336 90.0019 20.9752C89.9941 21.0904 90.0102 21.2059 90.049 21.3146C90.0878 21.4234 90.1485 21.5229 90.2275 21.6072C90.3064 21.6914 90.4018 21.7585 90.5078 21.8043C90.6137 21.85 90.728 21.8735 90.8434 21.8733Z" fill="#FF9721"/>
<path d="M162.247 24.9505H171.115C171.357 24.948 171.59 24.8542 171.767 24.6878C171.944 24.5214 172.052 24.2946 172.069 24.0525C172.076 23.937 172.059 23.8213 172.02 23.7126C171.98 23.6038 171.919 23.5044 171.839 23.4202C171.76 23.3361 171.664 23.2691 171.558 23.2234C171.451 23.1777 171.337 23.1542 171.221 23.1544H162.354C162.112 23.1584 161.879 23.2526 161.703 23.4187C161.526 23.5848 161.418 23.8108 161.399 24.0525C161.392 24.1682 161.408 24.2842 161.447 24.3934C161.486 24.5025 161.547 24.6024 161.627 24.6867C161.707 24.771 161.803 24.838 161.91 24.8834C162.016 24.9288 162.131 24.9516 162.247 24.9505Z" fill="#FF9721"/>
<path d="M145.664 147.006C158.275 134.945 158.888 115.591 147.033 103.776C135.178 91.9622 115.344 92.1622 102.732 104.223C90.1203 116.284 89.507 135.638 101.362 147.453C113.217 159.267 133.052 159.067 145.664 147.006Z" fill="#FF9721"/>
<path d="M138.661 133.334L139.042 124.789C139.401 116.949 133.456 110.262 125.447 109.962C121.383 109.845 117.434 111.286 114.446 113.977C111.457 116.667 109.667 120.394 109.458 124.358L109.056 133.252C109.036 133.677 108.847 134.078 108.53 134.37L106.185 136.55C105.868 136.845 105.68 137.248 105.658 137.675C105.647 137.88 105.679 138.086 105.752 138.279C105.825 138.472 105.937 138.648 106.083 138.797C106.228 138.946 106.403 139.064 106.597 139.144C106.791 139.225 107 139.265 107.211 139.264L139.969 139.354C140.405 139.351 140.823 139.185 141.137 138.892C141.452 138.598 141.64 138.198 141.663 137.773C141.674 137.567 141.641 137.361 141.568 137.167C141.494 136.974 141.381 136.796 141.236 136.647L139.095 134.454C138.948 134.306 138.833 134.131 138.758 133.938C138.684 133.745 138.65 133.54 138.661 133.334Z" fill="white"/>
<path d="M129.02 105.306C128.986 105.971 128.69 106.597 128.196 107.055C127.701 107.512 127.044 107.766 126.362 107.764C126.035 107.765 125.712 107.701 125.411 107.576C125.11 107.45 124.839 107.266 124.613 107.035C124.388 106.803 124.214 106.529 124.101 106.23C123.988 105.93 123.939 105.611 123.957 105.292C123.993 104.629 124.289 104.004 124.784 103.548C125.278 103.091 125.934 102.838 126.614 102.841C126.941 102.84 127.264 102.904 127.565 103.029C127.865 103.154 128.136 103.337 128.361 103.568C128.586 103.799 128.761 104.072 128.874 104.371C128.987 104.67 129.037 104.988 129.02 105.306Z" fill="white"/>
<path d="M119.754 141.536C119.539 141.533 119.326 141.579 119.133 141.67C118.94 141.762 118.771 141.897 118.642 142.065C118.512 142.232 118.425 142.427 118.387 142.633C118.349 142.839 118.362 143.052 118.424 143.252C118.737 144.153 119.334 144.934 120.128 145.485C120.922 146.036 121.874 146.329 122.849 146.323C123.852 146.316 124.832 146.025 125.668 145.484C126.504 144.943 127.16 144.176 127.557 143.278C127.641 143.09 127.676 142.886 127.659 142.682C127.642 142.478 127.572 142.282 127.458 142.111C127.343 141.94 127.186 141.799 127.002 141.702C126.817 141.605 126.611 141.554 126.402 141.555L119.754 141.536Z" fill="white"/>
<path opacity="0.1" d="M159.824 166.672H84.8597C84.1955 166.678 83.5373 166.546 82.9263 166.285C82.3154 166.025 81.765 165.64 81.3097 165.157C80.8544 164.673 80.504 164.101 80.2806 163.475C80.0572 162.85 79.9656 162.185 80.0115 161.522L84.2317 90.1498C84.3306 88.7649 84.9455 87.4674 85.9548 86.5139C86.9641 85.5604 88.2944 85.0202 89.6827 85.0002H164.616C165.28 84.9943 165.938 85.1258 166.549 85.3865C167.16 85.6472 167.71 86.0314 168.166 86.515C168.621 86.9986 168.971 87.5712 169.195 88.1967C169.418 88.8222 169.51 89.4872 169.464 90.1498L165.275 161.522C165.176 162.907 164.561 164.204 163.552 165.158C162.543 166.111 161.212 166.652 159.824 166.672Z" fill="#FF9721"/>
<path d="M143.927 62.9999H54.0074C53.1952 63.0036 52.3908 62.832 51.6433 62.4956C50.8958 62.1593 50.2207 61.6652 49.6593 61.0436C49.0979 60.4219 48.6619 59.6857 48.3778 58.8798C48.0937 58.0738 47.9676 57.2151 48.0071 56.3558L48.5399 42.6442C48.6275 40.8646 49.3518 39.1872 50.5653 37.953C51.7789 36.7188 53.3907 36.0205 55.073 36.0001H144.981C145.794 35.9956 146.599 36.1665 147.348 36.5024C148.096 36.8383 148.772 37.3321 149.335 37.9538C149.897 38.5754 150.335 39.3119 150.62 40.1183C150.905 40.9247 151.032 41.7841 150.993 42.6442L150.46 56.3558C150.371 58.1349 149.647 59.8114 148.433 61.0453C147.22 62.2792 145.609 62.978 143.927 62.9999Z" fill="#FF9721"/>
<path opacity="0.3" d="M143.927 62.9999H54.0074C53.1952 63.0036 52.3908 62.832 51.6433 62.4956C50.8958 62.1593 50.2207 61.6652 49.6593 61.0436C49.0979 60.4219 48.6619 59.6857 48.3778 58.8798C48.0937 58.0738 47.9676 57.2151 48.0071 56.3558L48.5399 42.6442C48.6275 40.8646 49.3518 39.1872 50.5653 37.953C51.7789 36.7188 53.3907 36.0205 55.073 36.0001H144.981C145.794 35.9956 146.599 36.1665 147.348 36.5024C148.096 36.8383 148.772 37.3321 149.335 37.9538C149.897 38.5754 150.335 39.3119 150.62 40.1183C150.905 40.9247 151.032 41.7841 150.993 42.6442L150.46 56.3558C150.371 58.1349 149.647 59.8114 148.433 61.0453C147.22 62.2792 145.609 62.978 143.927 62.9999Z" fill="black"/>
<path d="M138.83 62.9999H48.0824C47.2615 63.0043 46.4482 62.8334 45.6922 62.4976C44.9362 62.1618 44.2532 61.6681 43.6848 61.0466C43.1164 60.425 42.6745 59.6886 42.386 58.8822C42.0975 58.0758 41.9684 57.2162 42.0065 56.3558L42.5506 42.6442C42.6376 40.8641 43.3683 39.1858 44.5937 37.9513C45.8192 36.7168 47.4472 36.019 49.146 36.0001H139.918C140.739 35.9957 141.552 36.1666 142.308 36.5024C143.064 36.8382 143.747 37.3319 144.315 37.9534C144.884 38.575 145.325 39.3114 145.614 40.1178C145.903 40.9242 146.032 41.7838 145.993 42.6442L145.449 56.3558C145.362 58.1403 144.628 59.8223 143.397 61.0575C142.167 62.2926 140.533 62.9875 138.83 62.9999Z" fill="#FFAF54"/>
<path d="M114 60L130.299 78L131 60H114Z" fill="#FFAF54"/>
<path opacity="0.2" d="M68.026 40H60.974C60.7157 40 60.468 39.8946 60.2853 39.7071C60.1026 39.5196 60 39.2652 60 39C60 38.7348 60.1026 38.4804 60.2853 38.2929C60.468 38.1054 60.7157 38 60.974 38H68.026C68.2843 38 68.5321 38.1054 68.7147 38.2929C68.8974 38.4804 69 38.7348 69 39C69 39.2652 68.8974 39.5196 68.7147 39.7071C68.5321 39.8946 68.2843 40 68.026 40Z" fill="white"/>
<path opacity="0.2" d="M44.8909 50.9996H44.8491C44.7329 50.9945 44.6188 50.964 44.5133 50.9097C44.4078 50.8555 44.3129 50.7787 44.2341 50.6837C44.1554 50.5887 44.0942 50.4774 44.0541 50.356C44.0141 50.2347 43.996 50.1058 44.0008 49.9767L44.2636 42.8757C44.3229 41.5695 44.8282 40.3377 45.6763 39.4317C46.5245 38.5256 47.6516 38.0136 48.8277 38H56.1039C56.3416 38 56.5695 38.105 56.7375 38.2918C56.9056 38.4787 57 38.7321 57 38.9964C57 39.2607 56.9056 39.5141 56.7375 39.7009C56.5695 39.8878 56.3416 39.9928 56.1039 39.9928H48.8337C48.1126 40.0003 47.4215 40.3141 46.9017 40.8698C46.3819 41.4255 46.0729 42.1811 46.0379 42.982L45.7929 50.0564C45.7851 50.3142 45.6859 50.5581 45.5169 50.7349C45.3478 50.9116 45.1228 51.0068 44.8909 50.9996Z" fill="white"/>
<path d="M50 51.6038L52.9133 51.4284C52.9296 51.8025 53.0478 52.1657 53.2557 52.4809C53.4082 52.6801 53.6091 52.8396 53.8404 52.9452C54.0718 53.0507 54.3264 53.099 54.5816 53.0858C54.9473 53.1084 55.3094 53.0033 55.6025 52.7894C55.7144 52.7072 55.8068 52.6025 55.8734 52.4825C55.94 52.3624 55.9792 52.2299 55.9884 52.0938C55.9909 51.9673 55.9643 51.8419 55.9105 51.7268C55.8566 51.6117 55.7769 51.5097 55.6772 51.4284C55.2116 51.1336 54.6842 50.9435 54.1334 50.8719C53.1121 50.7098 52.1465 50.3092 51.3197 49.7045C51.0457 49.4728 50.8314 49.182 50.6941 48.8553C50.5568 48.5285 50.5003 48.1751 50.5291 47.8233C50.5573 47.3186 50.7322 46.832 51.0334 46.4199C51.3781 45.9569 51.8508 45.5983 52.3966 45.3856C53.1791 45.1065 54.0102 44.9791 54.843 45.0106C55.8473 44.9453 56.8477 45.1841 57.7065 45.6941C58.0488 45.9582 58.3256 46.2938 58.5164 46.676C58.7071 47.0582 58.8069 47.4772 58.8083 47.9019L55.9199 48.0652C55.9007 47.7077 55.7428 47.3705 55.478 47.1216C55.1922 46.9075 54.8358 46.8021 54.4757 46.8252C54.1864 46.8061 53.8989 46.8829 53.6603 47.043C53.5757 47.1067 53.5059 47.187 53.4554 47.2787C53.405 47.3705 53.3751 47.4715 53.3677 47.5753C53.3665 47.6555 53.3844 47.735 53.42 47.8074C53.4557 47.8798 53.5081 47.9432 53.5731 47.9926C53.881 48.1801 54.2273 48.2999 54.5878 48.3435C55.5638 48.516 56.5148 48.8024 57.4201 49.1964C57.9341 49.4241 58.3673 49.7945 58.6651 50.261C58.9116 50.6948 59.026 51.1878 58.995 51.6825C58.9644 52.2981 58.7479 52.8914 58.3725 53.3883C57.9947 53.9235 57.4679 54.3431 56.8537 54.598C56.0882 54.8857 55.2712 55.0215 54.4508 54.9972C52.7909 54.9972 51.6393 54.6827 50.996 54.0536C50.3531 53.3913 49.9965 52.5143 50 51.6038Z" fill="white"/>
<path d="M67.177 45H70L69.7753 50.8591C69.7563 51.4229 69.6491 51.9792 69.4584 52.5049C69.2696 53.0163 68.9808 53.4784 68.6115 53.8598C68.2843 54.2134 67.8918 54.4895 67.4593 54.6703C66.8179 54.9046 66.1431 55.0156 65.4659 54.9982C64.9805 54.9965 64.4957 54.9635 64.014 54.8992C63.5592 54.8541 63.1159 54.7199 62.7062 54.5033C62.346 54.2872 62.0273 53.9995 61.7671 53.6556C61.5009 53.3252 61.3044 52.9369 61.191 52.5172C61.0558 51.9852 60.9918 51.4352 61.0008 50.8839L61.2255 45.0247H64.0486L63.8181 51.02C63.7975 51.2423 63.8196 51.4669 63.883 51.6797C63.9464 51.8926 64.0498 52.0892 64.1868 52.2574C64.337 52.4182 64.5176 52.5423 64.7165 52.6213C64.9153 52.7003 65.1277 52.7323 65.3391 52.7152C65.5495 52.7263 65.7599 52.6921 65.9578 52.6145C66.1556 52.5369 66.3371 52.4176 66.4914 52.2636C66.7899 51.9313 66.9571 51.4879 66.958 51.0262L67.177 45Z" fill="white"/>
<path d="M72.4052 45.0079H77.9686C78.7334 44.9504 79.4893 45.2079 80.0731 45.7248C80.3049 45.9497 80.4855 46.2257 80.6016 46.5325C80.7178 46.8393 80.7665 47.1692 80.7443 47.4981C80.7292 48.0635 80.5139 48.6031 80.1396 49.0136C79.8482 49.3286 79.4838 49.5603 79.0813 49.6864C79.6614 49.7927 80.1876 50.1063 80.569 50.573C80.8869 51.0321 81.037 51.5939 80.9923 52.1577C80.9812 52.6517 80.8434 53.1336 80.5931 53.5537C80.3492 53.9639 80.0076 54.3018 79.6014 54.5347C79.2441 54.7189 78.8561 54.8299 78.4585 54.8617C78.0157 54.9331 77.5696 54.9793 77.122 55H72L72.4052 45.0079ZM75.2474 48.9255H76.5415C76.8832 48.9587 77.2258 48.8724 77.5151 48.6803C77.6118 48.5888 77.6887 48.477 77.7408 48.3524C77.7929 48.2277 77.819 48.093 77.8175 47.9571C77.8293 47.8317 77.813 47.7052 77.77 47.5873C77.727 47.4695 77.6584 47.3637 77.5695 47.278C77.2947 47.0839 76.9627 46.997 76.6322 47.0328H75.3078L75.2474 48.9255ZM75.0901 52.8557H76.608C76.9911 52.8912 77.3746 52.7916 77.6965 52.5727C77.8037 52.4795 77.89 52.3632 77.9495 52.2318C78.0091 52.1004 78.0403 51.9571 78.0412 51.8118C78.0527 51.6789 78.0335 51.545 77.9851 51.4214C77.9367 51.2978 77.8606 51.188 77.763 51.1013C77.442 50.8864 77.0604 50.7911 76.6806 50.8309H75.1688L75.0901 52.8557Z" fill="white"/>
<path d="M82.0007 51.612L84.932 51.437C84.9456 51.8107 85.0647 52.1737 85.2764 52.487C85.572 52.7963 85.9733 52.9928 86.4069 53.0404C86.8405 53.0881 87.2774 52.9837 87.6377 52.7465C87.7495 52.6641 87.8415 52.5595 87.9074 52.4397C87.9734 52.32 88.0117 52.1879 88.0198 52.0525C88.0235 51.9268 87.9979 51.8019 87.9448 51.687C87.8917 51.5721 87.8124 51.4701 87.7129 51.3888C87.2444 51.0947 86.7137 50.905 86.1596 50.8336C85.1305 50.6703 84.1574 50.2708 83.3223 49.669C83.052 49.4392 82.8403 49.1527 82.7034 48.8314C82.5666 48.5102 82.5083 48.1629 82.5331 47.8165C82.5587 47.3125 82.7349 46.8263 83.0405 46.4165C83.3907 45.9553 83.8681 45.5979 84.4184 45.3847C85.2078 45.1064 86.0461 44.9793 86.8861 45.0105C87.8966 44.9454 88.9031 45.1836 89.7672 45.6924C90.1059 45.9635 90.3774 46.3041 90.5616 46.6894C90.7458 47.0747 90.8382 47.4949 90.832 47.9191L87.9258 48.082C87.9065 47.7253 87.7476 47.3889 87.4811 47.1406C87.1936 46.9271 86.835 46.8219 86.4727 46.845C86.1816 46.8259 85.8924 46.9025 85.6522 47.0622C85.5659 47.1246 85.4948 47.2045 85.4439 47.2962C85.3931 47.388 85.3637 47.4894 85.3579 47.5932C85.3566 47.6733 85.3747 47.7525 85.4105 47.8247C85.4464 47.897 85.4991 47.9602 85.5646 48.0096C85.8733 48.1986 86.2222 48.3182 86.5855 48.3596C87.5672 48.5328 88.5239 48.8184 89.4353 49.2104C89.9427 49.4398 90.3679 49.8095 90.6566 50.2724C90.9094 50.7036 91.0269 51.1962 90.9948 51.6905C90.964 52.3046 90.7461 52.8965 90.3685 53.3921C89.9874 53.9277 89.4549 54.3465 88.834 54.599C88.066 54.886 87.246 55.0214 86.4226 54.9973C84.7524 54.9973 83.5937 54.6835 82.9465 54.0559C82.3201 53.3868 81.9819 52.5129 82.0007 51.612Z" fill="white"/>
<path d="M98.4845 50.8927L100.965 51.6829C100.796 52.3456 100.5 52.9659 100.095 53.5065C99.7225 53.9882 99.2442 54.3697 98.7004 54.6189C98.0425 54.8935 97.3368 55.0218 96.6285 54.9958C95.7895 55.0281 94.9536 54.8727 94.1772 54.5399C93.5022 54.1848 92.9481 53.6226 92.5897 52.929C92.0942 51.8619 91.905 50.6685 92.0448 49.4921C92.1845 48.3157 92.6473 47.2063 93.3776 46.2972C93.8509 45.8524 94.4039 45.5096 95.0049 45.2884C95.6059 45.0673 96.243 44.9721 96.8795 45.0085C97.8397 44.9488 98.7935 45.2062 99.6051 45.744C100.303 46.3132 100.795 47.1127 101 48.0114L98.4495 48.6192C98.3983 48.3903 98.3137 48.1709 98.1985 47.9688C98.0486 47.7468 97.848 47.5672 97.6149 47.446C97.3773 47.317 97.1124 47.2522 96.8445 47.2576C96.5443 47.2468 96.2465 47.3166 95.9797 47.4604C95.7129 47.6041 95.4862 47.8168 95.3211 48.0782C95.0344 48.7201 94.8834 49.4186 94.8784 50.1265C94.8733 50.8344 95.0144 51.5352 95.292 52.1814C95.445 52.3823 95.6418 52.5423 95.8662 52.648C96.0905 52.7538 96.3359 52.8022 96.5818 52.7892C96.8132 52.8038 97.0451 52.7687 97.2629 52.6861C97.4808 52.6035 97.6801 52.4751 97.8483 52.309C98.1705 51.8996 98.3892 51.4127 98.4845 50.8927Z" fill="white"/>
<path d="M103 54.9624L103.381 45.005H108.109C108.782 44.9781 109.456 45.0605 110.106 45.2493C110.555 45.4043 110.94 45.726 111.192 46.158C111.467 46.6395 111.594 47.2034 111.555 47.7685C111.545 48.2726 111.414 48.7651 111.174 49.1972C110.941 49.5994 110.623 49.9347 110.245 50.1748C109.928 50.3585 109.587 50.4914 109.235 50.5696C109.482 50.6646 109.715 50.7976 109.928 50.9644C110.09 51.1216 110.235 51.2982 110.36 51.4908C110.504 51.6859 110.63 51.8957 110.736 52.1174L112 55H108.773L107.37 51.9545C107.263 51.6639 107.097 51.4028 106.885 51.19C106.686 51.0365 106.448 50.9553 106.204 50.9581H105.95L105.8 55L103 54.9624ZM106.077 49.0406H107.272C107.527 49.02 107.781 48.9739 108.028 48.9027C108.215 48.865 108.381 48.7533 108.496 48.5894C108.623 48.4284 108.694 48.2246 108.698 48.0129C108.713 47.8766 108.697 47.7384 108.653 47.6099C108.609 47.4813 108.537 47.366 108.444 47.2734C108.131 47.0654 107.764 46.9751 107.399 47.0165H106.152L106.077 49.0406Z" fill="white"/>
<path d="M113.473 45H117L116.527 55H113L113.473 45Z" fill="white"/>
<path d="M118.411 45.0079H123.974C124.739 44.9504 125.495 45.2079 126.078 45.7248C126.31 45.9497 126.491 46.2257 126.607 46.5325C126.723 46.8393 126.772 47.1692 126.75 47.4981C126.732 48.063 126.517 48.6018 126.145 49.0136C125.85 49.3273 125.484 49.5587 125.081 49.6864C125.661 49.7927 126.187 50.1063 126.568 50.573C126.889 51.0308 127.039 51.5937 126.991 52.1577C126.98 52.6517 126.843 53.1336 126.592 53.5537C126.348 53.9639 126.007 54.3018 125.601 54.5347C125.245 54.7181 124.859 54.8291 124.464 54.8617C124.021 54.9326 123.575 54.9788 123.128 55H118L118.411 45.0079ZM121.253 48.9255H122.547C122.889 48.9587 123.231 48.8724 123.521 48.6803C123.617 48.5888 123.694 48.477 123.746 48.3524C123.798 48.2277 123.825 48.093 123.823 47.9571C123.835 47.8323 123.819 47.7063 123.777 47.5887C123.735 47.4711 123.668 47.3648 123.581 47.278C123.304 47.0844 122.97 46.9977 122.638 47.0328H121.332L121.253 48.9255ZM121.096 52.8746H122.614C122.997 52.9111 123.38 52.8113 123.702 52.5916C123.809 52.4979 123.896 52.3816 123.956 52.2504C124.017 52.1192 124.05 51.9761 124.053 51.8307C124.062 51.6974 124.041 51.5637 123.992 51.4403C123.942 51.3169 123.866 51.2072 123.769 51.1201C123.448 50.9043 123.066 50.8089 122.686 50.8497H121.156L121.096 52.8746Z" fill="white"/>
<path d="M129.393 45H137L136.919 47.1334H132.156L132.098 48.7256H136.497L136.422 50.7646H132.006L131.931 52.7344H136.827L136.746 55H129L129.393 45Z" fill="white"/>
<path d="M135.452 78H130L130.548 63H136L135.452 78Z" fill="#FF9721"/>
<path opacity="0.3" d="M135.452 78H130L130.548 63H136L135.452 78Z" fill="black"/>
<path d="M211.189 111.796L226.912 111.796L245.955 110L246.006 110.999L226.912 112.794L211.241 112.794L211.189 111.796Z" fill="#CC791A"/>
</svg>
