<svg width="79" height="78" viewBox="0 0 79 78" fill="none" xmlns="http://www.w3.org/2000/svg">
<path d="M77.4787 21.7372C77.1755 21.3673 76.6969 21.1883 76.2255 21.2685L48.2692 26.0198C47.5439 26.143 47.056 26.8308 47.1792 27.556C47.3024 28.2811 47.9901 28.769 48.7154 28.646L68.7736 25.2371L26.2065 45.1817L12.8297 34.7446L37.0806 30.6232C37.8059 30.4999 38.2938 29.8121 38.1706 29.0869C38.0474 28.3618 37.3597 27.8736 36.6344 27.9969L9.40658 32.6242C8.88634 32.7127 8.46727 33.0998 8.33819 33.6116C8.20911 34.1234 8.39431 34.663 8.8103 34.9876L24.7856 47.452L27.2049 65.0391C27.2075 65.0573 27.2112 65.0733 27.2157 65.088C27.2639 65.3612 27.394 65.6191 27.603 65.8192C27.7337 65.9444 27.8853 66.0391 28.048 66.1014C28.3668 66.2235 28.7276 66.221 29.0533 66.08L41.6676 60.6237L56.9111 72.5172C57.0166 72.5994 57.1322 72.6643 57.2541 72.711C57.5173 72.8118 57.8093 72.8278 58.0874 72.7504C58.4943 72.6372 58.8234 72.3378 58.9744 71.9434L77.6926 23.058C77.8636 22.6113 77.782 22.1071 77.4787 21.7372ZM32.5429 51.3012C32.3191 51.4542 32.1473 51.6716 32.0504 51.9248L29.1369 59.5339L27.4848 47.5246L61.1901 31.7322L32.5429 51.3012ZM30.9 62.3789L33.8943 54.5589L39.2744 58.7566L30.9 62.3789ZM57.1304 69.3095L35.5511 52.4726L73.5042 26.5466L57.1304 69.3095Z" fill="#FF9721"/>
</svg>
