<svg width="62" height="61" viewBox="0 0 62 61" fill="none" xmlns="http://www.w3.org/2000/svg">
<path d="M60.9147 1.1223C60.4992 0.885206 59.9883 0.889201 59.5767 1.13269L35.1678 15.5665C34.5345 15.9409 34.3248 16.7577 34.6992 17.3909C35.0735 18.024 35.8902 18.2337 36.5236 17.8595L54.0366 7.50351L21.4158 41.3507L5.19132 36.3869L26.365 23.8664C26.9982 23.4918 27.208 22.6751 26.8336 22.0419C26.4593 21.4088 25.6424 21.1987 25.0092 21.5733L1.2363 35.6308C0.782095 35.8994 0.529153 36.4108 0.591623 36.9349C0.654092 37.459 1.01999 37.8967 1.52454 38.0511L20.9006 43.9789L29.4488 59.5381C29.4577 59.5542 29.4669 59.5678 29.4764 59.5799C29.619 59.8178 29.8328 60.0121 30.0995 60.1243C30.2664 60.1945 30.4418 60.2287 30.616 60.2287C30.9574 60.2287 31.2935 60.0974 31.5472 59.8492L41.3764 50.243L59.8649 55.8994C59.9928 55.9384 60.124 55.9577 60.2545 55.9577C60.5364 55.9577 60.8148 55.8682 61.0468 55.6965C61.3863 55.4453 61.5866 55.048 61.5866 54.6258V2.27925C61.5866 1.80094 61.3301 1.35925 60.9147 1.1223ZM29.5214 44.7998C29.3672 45.0227 29.2844 45.2872 29.2844 45.5582V53.706L23.4473 43.0816L49.2771 16.2809L29.5214 44.7998ZM31.9484 55.7325V47.3588L38.4737 49.3552L31.9484 55.7325ZM58.9227 52.8253L32.7496 44.8181L58.9227 7.03492V52.8253Z" fill="#7F7F7F"/>
</svg>
