<svg width="23" height="20" viewBox="0 0 23 20" fill="none" xmlns="http://www.w3.org/2000/svg">
<path d="M22.0315 7.13517L12.9999 0.867287C12.805 0.732026 12.5493 0.714643 12.3371 0.822284C12.125 0.929966 11.9918 1.14466 11.9918 1.37896V4.52898C8.98883 4.68075 6.18731 5.90006 4.04541 8.00093C1.75214 10.2503 0.489197 13.2409 0.489197 16.4219V18.929C0.489197 19.277 0.777187 19.5558 1.12874 19.5558C1.41013 19.5558 1.66344 19.3733 1.74268 19.1012L1.84105 18.7636C3.15132 14.2654 7.27162 11.0655 11.9918 10.7988V13.9147C11.9918 14.149 12.125 14.3637 12.3371 14.4714C12.5493 14.579 12.8049 14.5617 12.9999 14.4264L22.0315 8.1585C22.2008 8.041 22.3014 7.85025 22.3014 7.64683C22.3014 7.44342 22.2008 7.25267 22.0315 7.13517ZM13.2698 12.7034V10.154C13.2698 9.80783 12.9837 9.5272 12.6308 9.5272C11.2593 9.5272 9.90784 9.74565 8.61397 10.1765C5.69164 11.1496 3.28389 13.1336 1.79359 15.6759C2.18514 10.1471 6.89617 5.76647 12.6308 5.76647C12.9837 5.76647 13.2698 5.48584 13.2698 5.13968V2.59024L20.5561 7.64683L13.2698 12.7034Z" fill="url(#paint0_linear)" stroke="#FF9721" stroke-width="0.7"/>
<defs>
<linearGradient id="paint0_linear" x1="11.3953" y1="19.5558" x2="11.3953" y2="0.752208" gradientUnits="userSpaceOnUse">
<stop offset="1" stop-color="#FF9721"/>
</linearGradient>
</defs>
</svg>
