<svg width="32" height="32" viewBox="0 0 32 32" fill="none" xmlns="http://www.w3.org/2000/svg">
<path d="M23.0771 1H8.9229C4.48 1 1 4.48 1 8.9229V23.0771C1 27.52 4.48 31 8.9229 31H23.0771C27.52 31 31 27.52 31 23.0771V8.9229C31 4.48 27.519 1 23.0771 1ZM29.0645 23.0771C29.0645 26.4352 26.4342 29.0645 23.0771 29.0645H8.9229C5.56581 29.0645 2.93548 26.4342 2.93548 23.0771V8.9229C2.93548 5.56581 5.56581 2.93548 8.9229 2.93548H23.0771C26.4352 2.93548 29.0645 5.56581 29.0645 8.9229V23.0771Z" fill="#FF9721" stroke="#FF9721" stroke-width="0.4"/>
<path d="M25.4345 8.65972C25.1239 8.43231 24.7077 8.41295 24.3758 8.6065C24.0448 8.80102 23.3113 8.89682 22.7229 8.97424C22.601 8.99069 22.481 9.00618 22.3648 9.02263C21.5413 8.3394 20.4893 7.95618 19.4045 7.95618C16.961 7.95618 14.9558 9.84714 14.8135 12.2259C12.5974 11.8523 10.568 10.6968 9.12998 8.96069C8.91611 8.70134 8.58418 8.57456 8.24934 8.61811C7.91644 8.66456 7.63192 8.88037 7.4974 9.18811C7.43547 9.3294 6.89547 10.6581 6.89547 13.9446C6.89547 16.7907 9.1416 18.882 10.6822 19.9823C9.62837 20.4613 8.41386 20.6375 7.26031 20.5097C6.80934 20.4613 6.3874 20.7265 6.23837 21.1513C6.08934 21.5771 6.25386 22.0494 6.63515 22.2904C8.4545 23.4381 10.5574 24.0449 12.7174 24.0449C19.6542 24.0449 23.8522 18.5955 24.008 13.2226C24.2074 12.9333 24.5877 12.37 25.2303 11.382C25.4877 10.9842 25.7035 10.1268 25.809 9.65166C25.8932 9.27618 25.7451 8.88618 25.4345 8.65972ZM22.2622 12.343C22.1432 12.5075 22.0784 12.7068 22.0784 12.91C22.0784 16.7297 19.1742 22.1094 12.7184 22.1094C12.1348 22.1094 11.5561 22.0562 10.989 21.9517C11.7458 21.6652 12.461 21.2655 13.118 20.7594C13.3813 20.5571 13.5216 20.232 13.4906 19.902C13.4597 19.572 13.2613 19.2797 12.9642 19.1297C12.9226 19.1084 8.83192 16.9571 8.83192 13.9455C8.83192 12.9362 8.88611 12.1426 8.95773 11.5388C10.8574 13.1742 13.2748 14.1526 15.819 14.2784C15.8384 14.2794 15.8587 14.2804 15.8771 14.2794C16.4403 14.263 16.8545 13.8497 16.8545 13.3117C16.8545 13.1781 16.8274 13.0513 16.778 12.9352C16.7539 12.79 16.7413 12.6439 16.7413 12.4978C16.7413 11.0607 17.9355 9.89166 19.4045 9.89166C20.1419 9.89166 20.8513 10.1936 21.3516 10.7191C21.58 10.9571 21.9139 11.0646 22.2361 11.0017C22.4558 10.96 22.7093 10.9271 22.9755 10.8923C23.0703 10.8797 23.1661 10.8671 23.2639 10.8536C22.5371 11.9607 22.2748 12.3255 22.2622 12.343Z" fill="#FF9721" stroke="#FF9721" stroke-width="0.4"/>
</svg>
