<svg width="17" height="15" viewBox="0 0 17 15" fill="none" xmlns="http://www.w3.org/2000/svg">
<path d="M5.70744 0.787598C3.81391 0.787598 2.27344 2.30828 2.27344 4.17745C2.27344 6.04661 3.81391 7.5673 5.70744 7.5673C7.60096 7.5673 9.14147 6.04661 9.14147 4.17745C9.14147 2.30828 7.601 0.787598 5.70744 0.787598Z" fill="white"/>
<path d="M11.4039 13.4572C11.2999 11.8976 10.4507 10.5257 9.1834 9.64646C8.26146 9.00671 7.11794 8.62799 5.87926 8.62799H5.53606C2.47847 8.62802 0 10.9355 0 13.7822V14.3939H11.4149V13.7822C11.4149 13.6731 11.4113 13.5647 11.4039 13.4572Z" fill="white"/>
<path d="M13.7608 5.6546H16.3584V7.17218H13.7608V10.1321H12.1475V7.17218H9.53614V5.6546H12.1475V2.88605H13.7608V5.6546Z" fill="white"/>
</svg>
