<svg width="108" height="94" viewBox="0 0 108 94" fill="none" xmlns="http://www.w3.org/2000/svg">
<path d="M76.9707 77.4313C64.2232 90.315 43.4139 90.424 30.5309 77.6773L37.7782 70.3526C51.4999 86 53.4999 90.5 69.6467 70.1846L90.3208 49.2899C99.0689 40.4485 98.9965 26.17 90.1527 17.4195C81.3126 8.67257 67.0304 8.74807 58.2823 17.5895L50.9583 10.3428C63.7057 -2.54063 84.515 -2.65023 97.398 10.0968C110.281 22.8439 110.392 43.6532 97.6448 56.5366L76.9707 77.4313Z" fill="#FF9721"/>
<path fill-rule="evenodd" clip-rule="evenodd" d="M77.6482 76.7353C90.9088 64.0474 89.66 43.4695 76.6247 30.5533L56.1124 10.229C43.1992 -2.56521 22.3302 -2.47131 9.53273 10.4419C-3.26156 23.3551 -3.16449 44.2271 9.74878 57.0213L30.2892 77.3769C37.8663 84.7536 42.3825 88.841 45.5373 90.725C48.6733 92.6 51.3617 93.213 53.7747 93.248C57.8214 93.307 61.8932 91.504 67.3827 86.4593C71.5077 82.6692 73.2854 80.9134 77.6482 76.7353ZM70.5249 69.2928C79.551 60.6548 78.2459 46.665 69.3731 37.8706L48.8609 17.5462C39.9881 8.75489 25.6445 8.82059 16.8532 17.6934C8.06178 26.5692 8.12753 40.9096 17.0003 49.704L37.5095 70.0252C53.3459 85.4484 53.4962 85.2262 60.4097 78.8729C64.4752 75.1391 66.2247 73.4083 70.5249 69.2928Z" fill="#FF9721"/>
</svg>